<svg xmlns="http://www.w3.org/2000/svg" width="845" height="734" viewBox="0 0 845 734">
    <defs>
        <linearGradient id="prefix__a" x1="49.949%" x2="50.583%" y1="16.285%" y2="64.705%">
            <stop offset="0%" stop-color="#241084"/>
            <stop offset="99%" stop-color="#0A5DE2"/>
        </linearGradient>
        <linearGradient id="prefix__b" x1="50.415%" x2="48.337%" y1="28.984%" y2="85.099%">
            <stop offset="0%" stop-color="#0C0335"/>
            <stop offset="100%" stop-color="#212732"/>
        </linearGradient>
        <linearGradient id="prefix__c" x1="51.182%" x2="45.27%" y1="28.984%" y2="85.099%">
            <stop offset="0%" stop-color="#0C0335"/>
            <stop offset="100%" stop-color="#212732"/>
        </linearGradient>
    </defs>
    <g fill="none" fill-rule="evenodd">
        <path fill="#F1F6FF" d="M887 143.132c-57.173 61.305-110.67 63.056-160.492 5.255C651.776 61.685 660.81 11.694 502.8 0 113.216 52.661-126.544 268.24 70.245 528.584c196.789 260.344 519.64 10.641 612.464 99.288C744.592 686.97 812.69 726.679 887 747V143.132z"/>
        <g transform="translate(28 29)">
            <path fill="#263238" fill-rule="nonzero" d="M77.76 419.958L75.78 436.626 64.044 467.118 74.79 470.43 83.052 438.624 84.132 420.696z"/>
            <path fill="url(#prefix__a)" fill-rule="nonzero" d="M52.65 500.58L57.906 553.644 56.16 600.282 74.232 600.282 75.204 596.808 62.802 595.17 69.408 553.86 75.384 502.506z"/>
            <path fill="#3878FF" fill-rule="nonzero" d="M46.674 499.986L42.57 545.184 14.904 581.94 18.198 599.292 26.46 599.292 21.51 595.584 20.682 584.424 47.124 554.688 71.064 501.408z"/>
            <path fill="#F76D59" fill-rule="nonzero" d="M84.132 420.696L83.808 403.884 80.424 403.47 77.76 419.958zM51.264 443.988c-1.242 6.102-1.314 15.444 7.866 16.92 3.493.77 7.15.1 10.143-1.857 2.994-1.957 5.074-5.038 5.769-8.547 1.332-6.084-.918-13.932-10.332-15.138-6.192-.81-12.51 3.726-13.446 8.622z"/>
            <path fill="#1F1F89" fill-rule="nonzero" d="M57.852 460.494c-6.534-1.8-9-8.082-8.082-14.4.528-3.415 2.41-6.474 5.223-8.483 2.812-2.009 6.315-2.799 9.717-2.191.356.087.705.201 1.044.342.138.897.07 1.815-.198 2.682-1.137 3.084-3.635 5.47-6.768 6.462 0 0-1.926 13.608-.936 15.588z"/>
            <path fill="#F76D59" fill-rule="nonzero" d="M57.096 445.896c-.935-.12-1.883.07-2.7.54-2.646 1.44-1.8 5.4.612 6.678.772.38 1.609.611 2.466.684.738.113 1.493-.007 2.16-.342.615-.413 1.027-1.067 1.134-1.8.143-.707.143-1.435 0-2.142-.45-1.798-1.867-3.195-3.672-3.618z"/>
            <path fill="#F7F5EF" fill-rule="nonzero" d="M67.14 442.188c.491 2.044 2.512 3.333 4.572 2.916 1.609-1.195 2.234-3.31 1.533-5.187-.7-1.877-2.559-3.065-4.557-2.913-1.823 1.033-2.506 3.32-1.548 5.184z"/>
            <path fill="#8E574A" fill-rule="nonzero" d="M78.516 401.562c-.022 1.548.894 2.956 2.318 3.564 1.424.607 3.074.294 4.177-.793 1.102-1.087 1.439-2.732.851-4.165-.587-1.432-1.982-2.368-3.53-2.368-2.09-.01-3.796 1.671-3.816 3.762z"/>
            <path fill="#263238" fill-rule="nonzero" d="M96.39 427.068l-5.778 1.908c-2.339 6.812-6.248 12.978-11.412 18L68.4 457.47l-13.302 9-9.882 36.648 30.906 2.916 1.026-40.374 11.466-14.4c4.717-5.897 7.913-12.864 9.306-20.286l-1.53-3.906z"/>
            <rect width="69.714" height="69.714" x="54.648" y="335.718" fill="#F7F5EF" fill-rule="nonzero" rx="13.32"/>
            <path fill="#F76D59" fill-rule="nonzero" d="M97.524 404.1c0 2.098 1.7 3.798 3.798 3.798s3.798-1.7 3.798-3.798-1.7-3.798-3.798-3.798-3.798 1.7-3.798 3.798z"/>
            <path fill="#F76D59" fill-rule="nonzero" d="M90.018 430.992L97.614 433.692 103.716 405.846 99.36 404.856z"/>
            <path fill="#3878FF" fill-rule="nonzero" d="M106.38 361.8c0 9.774-17.676 35.694-17.676 35.694s-17.676-25.92-17.676-35.694c0-9.762 7.914-17.676 17.676-17.676 9.762 0 17.676 7.914 17.676 17.676z"/>
            <path fill="#F7F5EF" fill-rule="nonzero" d="M97.2 360.396c0 4.682-3.796 8.478-8.478 8.478s-8.478-3.796-8.478-8.478 3.796-8.478 8.478-8.478c2.25-.005 4.41.887 6 2.478 1.591 1.59 2.483 3.75 2.478 6z"/>
            <path stroke="#0A5DE2" stroke-linecap="round" stroke-width="3.6" d="M0 599.94L136.8 599.94" opacity=".5"/>
            <rect width="182.088" height="392.4" x="261.756" y="83.34" fill="#F7F5EF" fill-rule="nonzero" rx="15.462"/>
            <path fill="#1F1F89" fill-rule="nonzero" d="M428.4 83.34H277.2c-8.535.01-15.452 6.927-15.462 15.462v15.66h182.106v-15.66c-.01-8.528-6.916-15.442-15.444-15.462zM261.756 440.568v19.8c.05 8.497 6.947 15.362 15.444 15.372h151.2c8.54 0 15.462-6.923 15.462-15.462v-19.8l-182.106.09z"/>
            <rect width="69.714" height="69.714" x="358.848" y="125.118" fill="#D6D6D6" fill-rule="nonzero" rx="13.32"/>
            <rect width="69.714" height="69.714" x="358.848" y="336.654" fill="#AFC6F5" fill-rule="nonzero" rx="13.32"/>
            <rect width="69.714" height="69.714" x="276.498" y="336.654" fill="#D6D6D6" fill-rule="nonzero" rx="13.32"/>
            <path stroke="#0A5DE2" stroke-linecap="round" stroke-width="3.6" d="M261.018 477.522L457.218 477.522" opacity=".5"/>
            <path fill="#1F1F89" fill-rule="nonzero" d="M500.34 340.3H502.14V486.064H500.34z" transform="rotate(-9.44 501.24 413.182)"/>
            <path fill="#1F1F89" fill-rule="nonzero" d="M456.456 340.298H458.25600000000003V486.062H456.456z" transform="rotate(-9.44 457.356 413.18)"/>
            <path fill="#1F1F89" fill-rule="nonzero" d="M450.486 370.962H494.76599999999996V372.762H450.486zM453.618 390.168H497.898V391.968H453.618zM456.75 409.356H501.03V411.156H456.75zM459.9 428.562H504.17999999999995V430.362H459.9zM463.032 447.768H507.312V449.568H463.032zM466.164 466.956H510.44399999999996V468.75600000000003H466.164z"/>
            <path fill="#3878FF" fill-rule="nonzero" d="M359.247 412.265H505.011V414.065H359.247z" transform="rotate(-80.56 432.13 413.165)"/>
            <path fill="#3878FF" fill-rule="nonzero" d="M403.164 412.332H548.928V414.132H403.164z" transform="rotate(-80.55 476.046 413.232)"/>
            <path fill="#3878FF" fill-rule="nonzero" d="M438.606 370.962H482.88599999999997V372.762H438.606zM435.474 390.168H479.754V391.968H435.474zM432.342 409.356H476.62199999999996V411.156H432.342zM429.21 428.562H473.49V430.362H429.21zM426.078 447.768H470.35799999999995V449.568H426.078zM422.928 466.956H467.20799999999997V468.75600000000003H422.928z"/>
            <path fill="#0A5DE2" fill-rule="nonzero" d="M440.514 339.066H494.514V344.46599999999995H440.514z"/>
            <path fill="#263238" fill-rule="nonzero" d="M541.656 314.802L536.364 260.442 529.578 202.284 534.852 201.528 546.948 256.662 565.812 258.174 585.45 202.284 590.742 203.04 576.396 262.71 577.152 313.308z"/>
            <path fill="#F76D59" fill-rule="nonzero" d="M548.37 240.534c-1.422 5.202.828 13.572 6.03 14.994 5.202 1.422 11.412-4.626 12.852-9.828 1.251-5.149-1.82-10.359-6.931-11.757-5.11-1.398-10.407 1.522-11.951 6.591z"/>
            <path fill="#2B159B" fill-rule="nonzero" d="M555.336 237.6c-1.243-.283-2.347-.997-3.114-2.016-.05-.086-.092-.177-.126-.27 3.352-2.447 7.885-2.505 11.299-.145 3.414 2.36 4.961 6.62 3.857 10.621-1.321 4.148-4.317 7.555-8.262 9.396.1-1.054.3-2.097.594-3.114 1.08-4.122 2.268-8.208 3.6-12.258-2.67-.531-5.294-1.271-7.848-2.214z"/>
            <path fill="#F76D59" fill-rule="nonzero" d="M561.42 245.484c.701-.558 1.644-.709 2.484-.396.188.073.36.183.504.324.38.412.546.978.45 1.53-.212 1.543-1.324 2.811-2.826 3.222-.4.155-.835.204-1.26.144-.436-.054-.831-.281-1.098-.63-.9-1.278.738-3.456 1.746-4.194z"/>
            <path fill="#3878FF" fill-rule="nonzero" d="M577.152 313.308L571.914 396.702 566.136 396.702 561.24 313.974 556.092 314.19 552.942 398.736 548.478 398.628 541.656 314.802 540.648 304.488 577.026 304.956z"/>
            <path fill="#3878FF" fill-rule="nonzero" d="M571.914 396.702L584.586 398.088 584.136 400.068 565.56 400.068 566.136 396.702zM552.942 398.736L552.942 401.112 535.518 401.76 535.518 399.582 548.478 398.628z"/>
            <path fill="#2B159B" fill-rule="nonzero" d="M557.73 247.59c-3.186.342-5.706-2.844-8.874-3.258-.194-.055-.4-.055-.594 0-.221.14-.392.349-.486.594l-1.206 2.34c-.437.781-.77 1.616-.99 2.484-.209 1.919.057 3.86.774 5.652.73 1.36 1.944 2.394 3.402 2.898 1.449.479 2.984.638 4.5.468 1.041-.057 2.062-.314 3.006-.756 2.088-1.108 3.266-3.399 2.952-5.742-.138-.553-.204-1.122-.198-1.692.1-.546.308-1.066.612-1.53.306-.558 2.412-3.294.774-3.312-.504 0-1.224.846-1.656 1.098-.61.393-1.298.65-2.016.756z"/>
            <g fill="#AFC6F5" fill-rule="nonzero" opacity=".4">
                <path d="M49.482 20.744L57.096 20.744 61.542 2.24 56.25 1.484zM5.652.728L.378 1.484 2.628 20.744 10.044 20.744z" transform="translate(529.2 200.8)"/>
            </g>
            <rect width="207.342" height="57.492" x="472.302" y="142.74" fill="#3878FF" fill-rule="nonzero" rx="15.642"/>
            <rect width="207.342" height="57.492" x="467.1" y="142.74" fill="#F7F5EF" fill-rule="nonzero" rx="15.642"/>
            <path fill="#AFC6F5" fill-rule="nonzero" d="M661.32 186.948l-8.442-8.748c4.359-5.164 4.54-12.665.435-18.034-4.104-5.369-11.39-7.16-17.517-4.308-6.127 2.852-9.446 9.581-7.98 16.178 1.467 6.598 7.324 11.287 14.082 11.276 2.94.014 5.81-.892 8.208-2.592l8.514 8.856c.348.375.839.585 1.35.576.485.008.952-.18 1.296-.522.37-.34.58-.82.58-1.323s-.21-.982-.58-1.323l.054-.036zM641.898 158.4c5.855 0 10.602 4.747 10.602 10.602s-4.747 10.602-10.602 10.602-10.602-4.747-10.602-10.602c0-2.812 1.117-5.508 3.105-7.497 1.989-1.988 4.685-3.105 7.497-3.105z"/>
            <path stroke="#0A5DE2" stroke-linecap="round" stroke-width="3.6" d="M484.2 401.94L671.4 401.94" opacity=".5"/>
            <path fill="#F76D59" fill-rule="nonzero" d="M536.076 199.26c.007 1.836-1.093 3.496-2.788 4.204-1.694.707-3.648.324-4.949-.972-1.301-1.296-1.692-3.248-.991-4.946.7-1.697 2.356-2.804 4.192-2.804 2.498 0 4.526 2.02 4.536 4.518zM590.778 200.556c0 1.836-1.107 3.491-2.804 4.192-1.698.701-3.65.31-4.946-.991-1.296-1.301-1.68-3.255-.972-4.95.708-1.694 2.368-2.794 4.204-2.787 1.201 0 2.353.478 3.201 1.33.848.85 1.322 2.005 1.317 3.206z"/>
            <path fill="#AFC6F5" fill-rule="nonzero" d="M369.864 213.858c.727 1.875.252 4.004-1.204 5.392-1.456 1.387-3.605 1.76-5.443.945-1.839-.816-3.004-2.66-2.951-4.67.052-2.011 1.312-3.792 3.19-4.511 2.555-.978 5.42.294 6.408 2.844z"/>
            <rect width="69.714" height="69.714" x="292.785" y="188.034" fill="#3878FF" fill-rule="nonzero" rx="13.32" transform="rotate(-80.04 327.642 222.891)"/>
            <path fill="#3878FF" fill-rule="nonzero" d="M149.562 432.828h31.194c.718.002 1.369-.422 1.656-1.08.283-.658.149-1.422-.342-1.944l-29.988-32.4-2.682 2.448 27.198 29.376h-27l-.036 3.6z"/>
            <path fill="#2463E8" fill-rule="nonzero" d="M368.73 214.398L382.122 219.636 421.056 223.326 408.06 232.488 380.7 225.918 366.714 219.51z"/>
            <path fill="#AFC6F5" fill-rule="nonzero" d="M415.8 208.494c2.156 5.636-.665 11.952-6.3 14.108-5.635 2.156-11.952-.664-14.109-6.299-2.157-5.635.662-11.951 6.297-14.109 2.707-1.036 5.714-.955 8.361.227 2.647 1.181 4.715 3.366 5.751 6.073z"/>
            <path fill="url(#prefix__b)" fill-rule="nonzero" d="M456.66 253.656L452.178 299.106 453.672 339.048 438.192 339.048 437.346 336.078 447.966 334.656 442.314 299.286 437.202 255.294z"/>
            <path fill="#3878FF" fill-rule="nonzero" d="M362.502 219.114c5.706 2.322 24.858 7.416 30.996 6.93L406.35 225l13.284-3.6 29.196 14.4-15.552 21.6-26.604-22.122-15.714-.702c-6.462-.288-24.786-7.2-30.348-10.566l1.89-4.896z"/>
            <path fill="#1F1F89" fill-rule="nonzero" d="M417.456 205.704c-2.268-5.148-11.412-6.39-16.488-3.996-.306.144-.576.342-.864.504.073.822.318 1.62.72 2.34 1.615 2.46 4.268 4.046 7.2 4.302 0 0 .216.558.54 1.44.31-.375.705-.67 1.152-.864.806-.27 1.678-.27 2.484 0 2.628.738 2.61 4.428.81 5.994-.599.497-1.29.87-2.034 1.098h-.27c-.234 3.6 0 3.942.756 5.04 4.194-3.042 9-9.072 5.994-15.858z"/>
            <path fill="#263238" fill-rule="nonzero" d="M504.306 247.626L478.206 259.002 448.11 235.89 432.684 257.04 478.17 271.008 505.098 252.954 510.822 259.344 512.766 257.472z"/>
            <path fill="#AFC6F5" fill-rule="nonzero" d="M364.104 218.952c.72 1.877.238 4.003-1.22 5.386-1.46 1.383-3.609 1.75-5.444.93-1.836-.82-2.996-2.665-2.94-4.675.056-2.01 1.318-3.787 3.196-4.503 2.56-.965 5.419.312 6.408 2.862z"/>
            <path fill="#3878FF" fill-rule="nonzero" d="M147.942 93.402h35.226v354.006h-35.226V93.402zm31.626 3.6h-28.026v346.806h28.026V97.002z"/>
            <path fill="#F7F5EF" fill-rule="nonzero" d="M143.136 428.454H187.992V460.60200000000003H143.136z" transform="rotate(180 165.564 444.528)"/>
            <path fill="#3878FF" fill-rule="nonzero" d="M149.562 299.79h31.194c.718.002 1.369-.422 1.656-1.08.283-.658.149-1.422-.342-1.944l-29.988-32.4-2.682 2.448 27.198 29.376h-27l-.036 3.6z"/>
            <path fill="#3878FF" fill-rule="nonzero" d="M149.562 333h31.194c.715-.002 1.36-.427 1.645-1.083.285-.655.155-1.417-.331-1.941l-29.988-32.4-2.682 2.502 27.234 29.322h-27l-.072 3.6z"/>
            <path fill="#3878FF" fill-rule="nonzero" d="M149.562 366.318h31.194c.715-.002 1.36-.427 1.645-1.083.285-.655.155-1.417-.331-1.941l-29.988-32.4-2.682 2.448 27.198 29.376h-27l-.036 3.6z"/>
            <path fill="#3878FF" fill-rule="nonzero" d="M149.562 399.6h31.194c.718.002 1.369-.422 1.656-1.08.283-.658.149-1.422-.342-1.944l-29.988-32.4-2.682 2.412L176.634 396h-27l-.072 3.6zM149.562 267.336h31.194c.715-.002 1.36-.427 1.645-1.083.285-.655.155-1.417-.331-1.941l-29.988-32.4-2.682 2.448 27.198 29.376h-27l-.036 3.6z"/>
            <path fill="#3878FF" fill-rule="nonzero" d="M149.562 234.81h31.194c.718.002 1.369-.422 1.656-1.08.283-.658.149-1.422-.342-1.944l-29.988-32.4-2.682 2.448 27.198 29.376h-27l-.036 3.6z"/>
            <path fill="#3878FF" fill-rule="nonzero" d="M149.562 202.356h31.194c.715-.002 1.36-.427 1.645-1.083.285-.655.155-1.417-.331-1.941l-29.988-32.4-2.682 2.448 27.198 29.376h-27l-.036 3.6z"/>
            <path fill="#3878FF" fill-rule="nonzero" d="M149.562 169.884h31.194c.718.003 1.369-.422 1.656-1.08.283-.658.149-1.422-.342-1.944l-29.988-32.4-2.682 2.448 27.234 29.376h-27l-.072 3.6z"/>
            <path fill="#3878FF" fill-rule="nonzero" d="M149.562 137.43h31.194c.715-.002 1.36-.427 1.645-1.083.285-.655.155-1.417-.331-1.941l-29.988-32.4-2.682 2.394 27.234 29.43h-27l-.072 3.6z"/>
            <path fill="#3878FF" fill-rule="nonzero" d="M149.562 104.958h31.194c.718.002 1.369-.422 1.656-1.08.283-.658.149-1.422-.342-1.944l-29.988-32.4L149.4 72l27.234 29.358h-27l-.072 3.6z"/>
            <path fill="#1F1F89" fill-rule="nonzero" d="M147.996 57.474H205.092V105.606H147.996z" transform="rotate(180 176.544 81.54)"/>
            <path fill="#1F1F89" fill-rule="nonzero" d="M62.208 57.474H119.304V85.122H62.208z" transform="rotate(180 90.756 71.298)"/>
            <path fill="#3878FF" fill-rule="nonzero" d="M63.162 60.984H345.15c.994 0 1.8-.806 1.8-1.8s-.806-1.8-1.8-1.8H63.162c-.994 0-1.8.806-1.8 1.8s.806 1.8 1.8 1.8zM330.246 67.59H332.046V184.59H330.246z"/>
            <path fill="#3878FF" fill-rule="nonzero" d="M127.836 454.842H203.292V468.99H127.836z" transform="rotate(180 165.564 461.916)"/>
            <path fill="#3878FF" fill-rule="nonzero" d="M176.4 60.516c.234-.002.459-.092.63-.252l15.048-15.048h137.844L344.016 59.4c.35.343.91.343 1.26 0 .17-.169.266-.399.266-.639s-.096-.47-.266-.639l-14.652-14.67H191.268l-15.552 15.57c-.252.257-.327.64-.19.973.138.333.46.552.82.557l.054-.036zM61.956 60.516c.33.005.637-.176.792-.468l15.048-28.8H114.3l14.148 27.846c.225.441.764.618 1.206.396.433-.231.608-.763.396-1.206l-14.652-28.8H76.716L61.2 59.202c-.114.212-.138.461-.067.691.071.23.231.422.445.533.117.06.247.09.378.09z"/>
            <path fill="#F7F5EF" fill-rule="nonzero" d="M324.558 67.59c-.01 3.646 2.936 6.61 6.582 6.624 3.646.013 6.613-2.93 6.63-6.576.016-3.646-2.924-6.616-6.57-6.636-1.757-.014-3.446.673-4.693 1.91-1.248 1.237-1.949 2.921-1.949 4.678z"/>
            <path fill="#3878FF" fill-rule="nonzero" d="M292.14 45.216c.497.07.956-.277 1.026-.774.07-.497-.277-.956-.774-1.026l-133.2-40.644c-.2-.063-.413-.063-.612 0L95.4 29.502c-.308.117-.528.393-.573.72-.044.327.093.652.36.847.265.195.617.23.915.089l62.82-26.532L291.87 45.162c.086.035.177.054.27.054z"/>
            <path fill="#3878FF" fill-rule="nonzero" d="M179.838 60.642c.222.002.443-.04.648-.126.922-.36 1.38-1.398 1.026-2.322l-20.97-55.206c-.282-.737-1.012-1.204-1.8-1.152-.8.065-1.462.652-1.62 1.44l-10.8 53.838c-.129.643.096 1.306.588 1.739.493.433 1.179.57 1.8.36.621-.21 1.083-.736 1.212-1.379l9.468-47.736L178.2 59.49c.262.68.91 1.135 1.638 1.152z"/>
            <path fill="#BCCCFD" fill-rule="nonzero" d="M155.232 3.6c0 1.988 1.612 3.6 3.6 3.6s3.6-1.612 3.6-3.6-1.612-3.6-3.6-3.6-3.6 1.612-3.6 3.6z"/>
            <path fill="#3878FF" fill-rule="nonzero" d="M311.112 60.696c.203-.003.399-.072.558-.198l17.73-14.292v13.356c0 .497.403.9.9.9s.9-.403.9-.9V44.316c-.003-.348-.206-.664-.522-.81-.307-.148-.671-.106-.936.108l-19.152 15.48c-.187.148-.306.366-.33.603-.023.238.05.475.204.657.16.199.394.323.648.342z"/>
            <path fill="#3878FF" fill-rule="nonzero" d="M294.012 60.696c.203-.003.399-.072.558-.198l17.676-14.292v13.356c0 .497.403.9.9.9s.9-.403.9-.9V44.316c-.002-.344-.2-.657-.51-.807-.31-.15-.678-.108-.948.105L293.4 59.094c-.386.31-.45.872-.144 1.26.183.228.464.355.756.342z"/>
            <path fill="#3878FF" fill-rule="nonzero" d="M276.912 60.696c.209 0 .411-.07.576-.198L295.2 46.206v13.356c0 .497.403.9.9.9s.9-.403.9-.9V44.316c-.003-.348-.206-.664-.522-.81-.313-.146-.682-.105-.954.108l-19.134 15.48c-.187.148-.306.366-.33.603-.023.238.05.475.204.657.156.203.393.327.648.342z"/>
            <path fill="#3878FF" fill-rule="nonzero" d="M259.83 60.696c.203-.003.399-.072.558-.198l17.676-14.292v13.356c0 .497.403.9.9.9s.9-.403.9-.9V44.316c-.002-.344-.2-.657-.51-.807-.31-.15-.678-.108-.948.105L259.2 59.094c-.3.24-.414.645-.284 1.007.13.361.476.6.86.595h.054z"/>
            <path fill="#3878FF" fill-rule="nonzero" d="M242.73 60.696c.208-.003.41-.072.576-.198L261 46.206v13.356c0 .497.403.9.9.9s.9-.403.9-.9V44.316c-.003-.348-.206-.664-.522-.81-.313-.146-.682-.105-.954.108l-19.134 15.48c-.297.238-.412.638-.287.998.126.36.464.602.845.604h-.018z"/>
            <path fill="#3878FF" fill-rule="nonzero" d="M225.648 60.696c.203-.003.399-.072.558-.198l17.676-14.292v13.356c0 .497.403.9.9.9s.9-.403.9-.9V44.316c-.002-.344-.2-.657-.51-.807-.31-.15-.678-.108-.948.105L225 59.094c-.3.24-.414.645-.284 1.007.13.361.476.6.86.595h.072z"/>
            <path fill="#3878FF" fill-rule="nonzero" d="M208.548 60.696c.208-.005.409-.074.576-.198L226.8 46.206v13.356c0 .497.403.9.9.9s.9-.403.9-.9V44.316c-.003-.348-.206-.664-.522-.81-.313-.146-.682-.105-.954.108l-19.134 15.48c-.386.31-.45.872-.144 1.26.173.21.43.336.702.342z"/>
            <path fill="#3878FF" fill-rule="nonzero" d="M191.466 60.696c.203-.003.399-.072.558-.198L209.7 46.206v13.356c0 .497.403.9.9.9s.9-.403.9-.9V44.316c-.002-.344-.2-.657-.51-.807-.31-.15-.678-.108-.948.105l-19.152 15.48c-.3.24-.414.645-.284 1.007.13.361.476.6.86.595zM90.414 60.696c.27.003.529-.116.702-.324l22.95-27v26.28c0 .497.403.9.9.9s.9-.403.9-.9v-28.8c0-.379-.238-.717-.594-.846-.35-.141-.75-.039-.99.252L89.73 59.22c-.223.267-.271.639-.125.954.146.316.461.52.809.522z"/>
            <path fill="#3878FF" fill-rule="nonzero" d="M72.756 60.696c.308.007.596-.151.756-.414l17.496-26.46v25.74c0 .497.403.9.9.9s.9-.403.9-.9v-28.8c.007-.402-.253-.76-.638-.877-.384-.117-.8.035-1.018.373L72 59.292c-.273.419-.16.979.252 1.26.151.094.326.144.504.144z"/>
            <path fill="#1F1F89" fill-rule="nonzero" d="M325.494 187.002c0 2.295 1.383 4.364 3.504 5.24 2.121.877 4.561.388 6.182-1.237 1.62-1.625 2.1-4.067 1.217-6.185-.883-2.118-2.956-3.495-5.251-3.488-3.124.01-5.652 2.546-5.652 5.67z"/>
            <path stroke="#0A5DE2" stroke-linecap="round" stroke-width="3.6" d="M95.4 470.34L232.2 470.34" opacity=".5"/>
            <path fill="#3878FF" fill-rule="nonzero" d="M664.848 528.534L662.814 500.328 665.964 479.556 676.674 418.338 671.508 417.6 659.664 471.582 641.178 473.076 621.954 418.338 616.77 419.076 630.828 477.504 635.76 499.842 635.184 527.058z"/>
            <path fill="#1F1F89" fill-rule="nonzero" d="M639.36 453.096L637.542 469.242 648.522 470.106 655.236 453.096z"/>
            <path fill="#F7F5EF" fill-rule="nonzero" d="M659.628 459c.007 4.494-2.694 8.549-6.843 10.273-4.15 1.725-8.93.78-12.11-2.396-3.18-3.174-4.133-7.953-2.415-12.105s5.768-6.86 10.262-6.86c2.944-.005 5.769 1.161 7.852 3.241s3.254 4.903 3.254 7.847z"/>
            <rect width="69.714" height="69.714" x="612.648" y="350.118" fill="#0A5DE2" fill-rule="nonzero" rx="13.32"/>
            <path fill="#1F1F89" fill-rule="nonzero" d="M652.608 458.28c.202.132.451.171.684.108.234 0 .342-.324.486-.504.698-.674 1.804-.674 2.502 0 .655.721.771 1.782.288 2.628-.513.816-1.365 1.358-2.322 1.476-.613 2.2-.862 4.487-.738 6.768l4.572.342c.29.054.59.003.846-.144.207-.193.335-.456.36-.738.578-2.618.862-5.293.846-7.974.14-2.617-.433-5.224-1.656-7.542-1.602-2.664-8.208-7.056-11.43-4.59-3.564 2.628 3.096 8.982 5.562 10.17z"/>
            <path fill="#1F1F89" fill-rule="nonzero" d="M643.41 454.464c-1.82 1.93-4.287 3.12-6.93 3.348-.109-2.976 1.135-5.841 3.384-7.794 1.26-1.08 5.4-3.456 7.2-2.304 1.8 1.152-2.376 5.508-3.654 6.75z"/>
            <path fill="#263238" fill-rule="nonzero" d="M663.768 508.518L635.472 507.204 613.71 604.674 603.63 598.518 615.906 613.458 644.886 533.106 644.454 569.556 664.092 595.584 665.352 604.98 665.874 608.976 669.366 608.544 670.014 594.234 654.804 569.502 665.532 528.57z"/>
            <path fill="#F7F5EF" fill-rule="nonzero" d="M665.55 444.744L671.67 446.886 676.674 418.338 671.508 417.6zM629.892 440.928L622.71 443.772 616.77 419.076 621.954 418.338zM653.886 472.05L648.576 481.482 645.894 472.698z"/>
            <path fill="#F7F5EF" fill-rule="nonzero" d="M614.448 415.386c0 2.455 1.99 4.446 4.446 4.446 2.455 0 4.446-1.99 4.446-4.446 0-2.455-1.99-4.446-4.446-4.446-2.455 0-4.446 1.99-4.446 4.446zM670.158 416.214c0 2.455 1.99 4.446 4.446 4.446 2.455 0 4.446-1.99 4.446-4.446 0-2.455-1.99-4.446-4.446-4.446-1.18 0-2.31.468-3.144 1.302-.834.834-1.302 1.965-1.302 3.144z"/>
            <path fill="url(#prefix__c)" fill-rule="nonzero" d="M636.912 555.21l6.84-18.954.648-6.012-9-23.04-9.45 42.336c4.05 2.16 8.064 4.194 10.962 5.67z"/>
            <path fill="#F7F5EF" fill-rule="nonzero" d="M656.46 373.104c0 5.04-4.086 9.126-9.126 9.126-5.04 0-9.126-4.086-9.126-9.126 0-5.04 4.086-9.126 9.126-9.126 5.04 0 9.126 4.086 9.126 9.126zM665.28 400.788c0-9.653-7.825-17.478-17.478-17.478-9.653 0-17.478 7.825-17.478 17.478h34.956z"/>
            <path stroke="#0A5DE2" stroke-linecap="round" stroke-width="3.6" d="M578.034 611.64L714.834 611.64M394.434 484.74L531.234 484.74" opacity=".5"/>
            <rect width="69.714" height="69.714" x="196.848" y="261.918" fill="#0A5DE2" fill-rule="nonzero" rx="13.32"/>
            <path fill="#263238" fill-rule="nonzero" d="M213.534 444.78L208.296 390.78 201.546 333.036 206.784 332.28 218.79 387.036 237.528 388.53 257.04 333.036 262.278 333.792 248.04 393.03 248.778 443.286z"/>
            <path fill="#F76D59" fill-rule="nonzero" d="M209.79 330.048c0 2.485-2.015 4.5-4.5 4.5s-4.5-2.015-4.5-4.5 2.015-4.5 4.5-4.5 4.5 2.015 4.5 4.5zM262.278 331.542c0 2.485-2.015 4.5-4.5 4.5s-4.5-2.015-4.5-4.5 2.015-4.5 4.5-4.5 4.5 2.015 4.5 4.5zM240.03 370.62c.007 4.632-2.777 8.812-7.055 10.59-4.277 1.777-9.204.802-12.482-2.47-3.277-3.273-4.26-8.199-2.49-12.479 1.772-4.28 5.947-7.071 10.579-7.071 6.316 0 11.438 5.114 11.448 11.43z"/>
            <path fill="#1F1F89" fill-rule="nonzero" d="M240.03 372.42c.007 4.632-2.777 8.812-7.055 10.59-4.277 1.777-9.204.802-12.482-2.47-3.277-3.273-4.26-8.199-2.49-12.479 1.772-4.28 5.947-7.071 10.579-7.071 6.316 0 11.438 5.114 11.448 11.43z"/>
            <path fill="#3878FF" fill-rule="nonzero" d="M248.778 443.286L243.576 526.104 237.852 526.104 232.992 443.952 227.862 444.168 224.748 528.12 220.32 528.03 213.534 444.78 212.544 434.52 248.652 434.988z"/>
            <path fill="#3878FF" fill-rule="nonzero" d="M243.576 526.104L256.176 527.49 255.726 529.434 237.276 529.434 237.852 526.104zM224.748 528.12L224.748 530.478 207.432 531.126 207.432 528.966 220.32 528.03z"/>
            <path stroke="#0A5DE2" stroke-linecap="round" stroke-width="3.6" d="M187.434 530.64L288.234 530.64" opacity=".5"/>
            <path fill="#656565" fill-rule="nonzero" d="M384.174 550.512c.019.137.019.277 0 .414v.108c-.034.11-.076.22-.126.324l-.27.378v.09l-.342.342c-.156.129-.318.249-.486.36l-.162.09c-.143.1-.294.19-.45.27l-.198.108-.558.27-.216.09-.9.342-30.69 10.638-.936.252c-.45.126-.882.27-1.368.378-.486.108-1.206.234-1.8.324-.594.09-.774.108-1.17.162l-1.458.144h-.288c-.792 0-1.584.09-2.394.09h-2.484c-.828 0-1.638-.126-2.43-.234-.774-.108-1.512-.252-2.214-.396-.694-.153-1.38-.345-2.052-.576l-30.222-10.35-.486-.18-.414-.162-.414-.18-.378-.18-.306-.18-.342-.198-.252-.198-.288-.216-.216-.198-.198-.198-.198-.27-.108-.162v-.216c-.09-.204-.14-.425-.144-.648l.108 13.518c.005.223.054.444.144.648v.216l.108.162.198.27.18.162.234.252.198.144.342.252.252.144c.134.086.272.164.414.234l.27.126.504.234.342.144.54.198 30.222 10.35c.347.13.702.238 1.062.324l.918.234H333l.72.144.81.144.684.108h.126l.792.09h7.344l.882-.108 1.17-.144h.324l1.314-.252h.162c.504-.108.954-.252 1.404-.378l.72-.198h.198l30.69-10.62c.306-.108.594-.216.864-.342l.216-.09.468-.216h.09l.198-.108.27-.144.18-.126h.27l.36-.27.234-.216.108-.126v-.09l.198-.288v-.18-.252c.009-.108.009-.216 0-.324l.378-14.058z"/>
            <path fill="#BABABA" fill-rule="nonzero" d="M380.358 547.344c5.148 1.8 5.076 4.68-.162 6.48l-30.69 10.638c-6.15 1.782-12.679 1.782-18.828 0l-30.222-10.35c-5.166-1.8-5.112-4.68.126-6.48l30.6-10.638c6.156-1.782 12.69-1.782 18.846 0l30.33 10.35z"/>
            <path fill="#1F1F89" fill-rule="nonzero" d="M503.154 538.938c.018.131.018.265 0 .396.008.036.008.072 0 .108-.034.11-.076.22-.126.324-.078.134-.168.26-.27.378v.09c-.111.123-.231.237-.36.342-.156.129-.318.249-.486.36l-.144.108-.468.27-.198.09-.558.27-.216.108-.9.342-30.69 10.62-.918.252c-.45.144-.9.27-1.386.378l-1.8.342-1.17.144-1.458.144h-.288c-.792 0-1.584 0-2.394.09h-2.484c-.828 0-1.638-.126-2.412-.234-.756-.108-1.512-.234-2.214-.396-.694-.155-1.379-.347-2.052-.576L419.4 542.592l-.486-.18-.414-.162-.396-.18-.378-.18-.324-.18-.342-.198-.252-.198-.288-.198-.216-.216-.198-.198-.18-.27-.126-.162V540c-.09-.204-.14-.425-.144-.648l.108 13.518c.003.224.052.444.144.648l.09.216.126.162c.054.094.114.184.18.27l.18.162.234.252.198.144.342.252.252.144.414.234c.085.053.175.095.27.126l.504.234.342.144.54.198 30.222 10.35c.347.13.702.238 1.062.324l.918.234h.144l.72.144.828.144.666.108h.126l.81.09h7.326c.306 0 .594 0 .882-.108l1.17-.144h.342L466.2 567h.18c.486-.108.936-.234 1.386-.378.45-.144.504-.108.72-.198h.198l30.69-10.62.864-.324.234-.108.45-.216h.09l.198-.108.27-.144.198-.126.144-.108h.108l.36-.288.234-.198.126-.144c.076-.089.142-.185.198-.288v-.18c.008-.048.008-.096 0-.144.008-.036.008-.072 0-.108.009-.108.009-.216 0-.324l.306-14.058z"/>
            <path fill="#3878FF" fill-rule="nonzero" d="M499.338 535.752c5.148 1.8 5.076 4.68-.162 6.498l-30.69 10.62c-6.15 1.782-12.679 1.782-18.828 0L419.4 542.592c-5.166-1.8-5.112-4.68.126-6.48l30.6-10.62c6.152-1.82 12.695-1.852 18.864-.09l30.348 10.35z"/>
        </g>
    </g>
</svg>
