<svg xmlns="http://www.w3.org/2000/svg" width="717" height="595" viewBox="0 0 717 595">
    <defs>
        <linearGradient id="prefix__a" x1="49.998%" x2="49.998%" y1="0%" y2="100%">
            <stop offset="0%" stop-color="#5CE7ED" stop-opacity="0"/>
            <stop offset="7%" stop-color="#5CE7ED" stop-opacity=".09"/>
            <stop offset="33%" stop-color="#5CE7ED" stop-opacity=".41"/>
            <stop offset="56%" stop-color="#5CE7ED" stop-opacity=".66"/>
            <stop offset="76%" stop-color="#5CE7ED" stop-opacity=".85"/>
            <stop offset="91%" stop-color="#5CE7ED" stop-opacity=".96"/>
            <stop offset="100%" stop-color="#5CE7ED"/>
        </linearGradient>
    </defs>
    <g fill="none" fill-rule="evenodd">
        <circle cx="397.746" cy="289.541" r="289.541" fill="#F3FEFF" fill-rule="nonzero"/>
        <path fill="#DEFDFF" fill-rule="nonzero" d="M77.064 149.112H245.974V267.729H77.064z"/>
        <path fill="#BCF0F8" fill-rule="nonzero" d="M241.68 159.6c0 2.56-1.544 4.869-3.91 5.847-2.367.978-5.09.434-6.898-1.38-1.808-1.813-2.344-4.538-1.359-6.901.985-2.364 3.298-3.9 5.859-3.893 1.676 0 3.284.667 4.467 1.854 1.184 1.187 1.846 2.797 1.841 4.473zM225.473 159.6c0 2.56-1.544 4.869-3.91 5.847-2.367.978-5.09.434-6.898-1.38-1.808-1.813-2.344-4.538-1.359-6.901.985-2.364 3.298-3.9 5.859-3.893 1.676 0 3.284.667 4.467 1.854 1.184 1.187 1.846 2.797 1.841 4.473z"/>
        <path fill="#A9E7F1" fill-rule="nonzero" d="M215.289 158.498H223.07899999999998V160.62599999999998H215.289z"/>
        <path fill="#A9E7F1" fill-rule="nonzero" d="M231.465 158.497H239.255V160.625H231.465z" transform="rotate(45 235.36 159.56)"/>
        <path fill="#A9E7F1" fill-rule="nonzero" d="M231.476 158.491H239.266V160.61900000000003H231.476z" transform="rotate(-45 235.37 159.555)"/>
        <path fill="#BCF0F8" fill-rule="nonzero" d="M83.809 157.111H159.429V164.12199999999999H83.809zM83.809 239.514H159.429V246.525H83.809zM85.937 177.517H130.777V225.91H85.937zM138.605 177.517H185.611V181.184H138.605zM138.605 188.233H185.611V191.9H138.605zM138.605 198.968H185.611V202.635H138.605zM138.605 209.684H177.17499999999998V213.351H138.605z"/>
        <path fill="#DEFDFF" fill-rule="nonzero" d="M567.492 85.804H716.547V190.47500000000002H567.492z"/>
        <path fill="#BCF0F8" fill-rule="nonzero" d="M712.766 95c.008 2.261-1.348 4.304-3.435 5.174-2.087.87-4.493.398-6.094-1.198-1.602-1.596-2.083-4-1.22-6.09.864-2.09 2.902-3.453 5.163-3.453 3.078 0 5.576 2.49 5.586 5.567zM698.459 95c.008 2.261-1.348 4.304-3.435 5.174-2.087.87-4.493.398-6.094-1.198-1.602-1.596-2.083-4-1.22-6.09.864-2.09 2.902-3.453 5.163-3.453 3.078 0 5.576 2.49 5.586 5.567z"/>
        <path fill="#A9E7F1" fill-rule="nonzero" d="M689.472 94.088H696.35V95.94999999999999H689.472z"/>
        <path fill="#A9E7F1" fill-rule="nonzero" d="M703.746 94.083H710.624V95.945H703.746z" transform="rotate(45 707.185 95.014)"/>
        <path fill="#A9E7F1" fill-rule="nonzero" d="M703.736 94.083H710.614V95.945H703.736z" transform="rotate(-45 707.175 95.014)"/>
        <path fill="#BCF0F8" fill-rule="nonzero" d="M573.458 92.872H640.1859999999999V99.066H573.458zM573.458 165.585H640.1859999999999V171.779H573.458zM575.32 110.865H614.897V153.558H575.32zM621.794 110.865H663.29V114.095H621.794zM621.794 120.327H663.29V123.557H621.794zM621.794 129.789H663.29V133.01899999999998H621.794zM621.794 139.27H655.823V142.5H621.794z"/>
        <path fill="#DEFDFF" fill-rule="nonzero" d="M329.46 260.642H565.326V426.265H329.46z"/>
        <circle cx="550.506" cy="275.234" r="8.816" fill="#FFEDE6" fill-rule="nonzero"/>
        <circle cx="527.877" cy="275.234" r="8.816" fill="#FFEDE6" fill-rule="nonzero"/>
        <path fill="#F7E0D7" fill-rule="nonzero" d="M522.481 273.752H533.3679999999999V276.716H522.481z"/>
        <path fill="#F7E0D7" fill-rule="nonzero" d="M545.061 273.756H555.9480000000001V276.71999999999997H545.061z" transform="rotate(45 550.504 275.238)"/>
        <path fill="#F7E0D7" fill-rule="nonzero" d="M545.067 273.754H555.954V276.718H545.067z" transform="rotate(-45 550.51 275.236)"/>
        <path fill="#BCF0F8" fill-rule="nonzero" d="M338.884 271.814H444.467V281.59900000000005H338.884zM338.884 386.878H444.467V396.663H338.884zM341.848 300.295H404.47200000000004V367.85900000000004H341.848zM415.397 300.295H481.042V305.406H415.397zM415.397 315.267H481.042V320.378H415.397zM415.397 330.258H481.042V335.36899999999997H415.397zM415.397 345.23H469.262V350.341H415.397z"/>
        <path fill="#C2C2C2" fill-rule="nonzero" d="M239.153 396.112l-21.66-24.263c-2.178-2.454-1.965-6.205.475-8.398 1.177-1.05 2.722-1.591 4.297-1.502 1.575.089 3.05.8 4.101 1.977l21.679 24.282c1.049 1.179 1.586 2.726 1.493 4.301-.093 1.575-.807 3.05-1.987 4.097-1.179 1.049-2.726 1.586-4.301 1.493-1.575-.093-3.05-.807-4.097-1.987z"/>
        <path fill="#5CE7ED" fill-rule="nonzero" d="M242.003 393.3L220.4 368.942c-1.55-1.752-1.93-4.25-.969-6.384-.503.229-.97.53-1.387.893-2.44 2.193-2.653 5.944-.475 8.398l21.66 24.263c1.048 1.18 2.522 1.894 4.097 1.987 1.575.093 3.122-.444 4.301-1.493.632-.56 1.132-1.255 1.463-2.033-2.377 1.237-5.29.714-7.087-1.273z" opacity=".2"/>
        <path fill="#C2C2C2" fill-rule="nonzero" d="M208.696 360.316l13.737 1.425c1.57.163 3.011.943 4.005 2.17.995 1.225 1.46 2.796 1.296 4.366l-.38 3.8c-.058.562-.336 1.078-.775 1.435-.438.356-1 .523-1.562.465l-17.556-1.805c-1.568-.158-3.01-.934-4.004-2.157-.995-1.223-1.462-2.792-1.297-4.36.34-3.274 3.26-5.66 6.536-5.339z"/>
        <path fill="#C2C2C2" fill-rule="nonzero" d="M213.351 367.194l-1.729 15.789c-.368 3.263-3.31 5.61-6.574 5.244-3.263-.358-5.618-3.292-5.263-6.555l1.748-15.789c.172-1.57.962-3.008 2.195-3.996 1.233-.987 2.809-1.443 4.379-1.267 3.263.368 5.61 3.31 5.244 6.574z"/>
        <path fill="#D1D1D1" fill-rule="nonzero" d="M239.153 378.1l-21.66-24.282c-2.178-2.454-1.965-6.205.475-8.398 1.177-1.05 2.722-1.591 4.297-1.502 1.575.089 3.05.8 4.101 1.977l21.679 24.282c1.049 1.179 1.586 2.726 1.493 4.301-.093 1.575-.807 3.05-1.987 4.097-2.454 2.178-6.205 1.965-8.398-.475z"/>
        <path fill="#5CE7ED" fill-rule="nonzero" d="M241.3 373.559l-21.66-24.282c-.98-1.097-1.515-2.52-1.501-3.99l-.152.114c-2.44 2.193-2.653 5.944-.475 8.398l21.641 24.301c1.64 1.83 4.238 2.461 6.535 1.59 2.298-.871 3.823-3.066 3.839-5.523-2.46 2.041-6.094 1.773-8.227-.608z" opacity=".2"/>
        <path fill="#D1D1D1" fill-rule="nonzero" d="M208.145 342.57l13.737 1.425c1.568.158 3.01.934 4.004 2.157.995 1.223 1.462 2.792 1.297 4.36-.158 1.57-.934 3.012-2.156 4.01-1.223.998-2.791 1.47-4.361 1.31l-13.756-1.425c-3.259-.359-5.623-3.273-5.301-6.536.163-1.57.943-3.011 2.17-4.005 1.225-.995 2.796-1.46 4.366-1.296z"/>
        <path fill="#5CE7ED" fill-rule="nonzero" d="M203.775 381.596l1.748-15.789c.237-2.217 1.709-4.109 3.8-4.883-1.707-.611-3.6-.403-5.133.566-1.532.969-2.534 2.589-2.714 4.393l-1.748 15.789c-.232 2.051.62 4.075 2.249 5.343 1.628 1.268 3.8 1.598 5.731.87-2.613-.928-4.243-3.533-3.933-6.289z" opacity=".2"/>
        <path fill="#D1D1D1" fill-rule="nonzero" d="M213.351 349.144l-1.729 15.789c-.368 3.265-3.307 5.619-6.574 5.263-1.57-.172-3.008-.962-3.996-2.195-.987-1.233-1.443-2.809-1.267-4.379l1.748-15.789c.172-1.57.962-3.008 2.195-3.996 1.233-.987 2.809-1.443 4.379-1.267 3.263.368 5.61 3.31 5.244 6.574z"/>
        <path fill="#5CE7ED" fill-rule="nonzero" d="M203.775 363.565l1.748-15.789c.234-2.223 1.706-4.121 3.8-4.902-1.707-.611-3.6-.403-5.133.566-1.532.969-2.534 2.589-2.714 4.393l-1.748 15.789c-.176 1.57.28 3.146 1.267 4.379.988 1.233 2.425 2.023 3.996 2.195.921.085 1.85-.039 2.717-.361-2.606-.926-4.234-3.521-3.933-6.27z" opacity=".2"/>
        <path fill="#C2C2C2" fill-rule="nonzero" d="M251.047 358.758l-17.1-27.645c-1.735-2.786-.885-6.451 1.9-8.189 2.786-1.735 6.451-.885 8.189 1.9l17.1 27.664c1.735 2.786.885 6.451-1.9 8.189-1.34.832-2.956 1.097-4.492.737s-2.866-1.316-3.697-2.656z"/>
        <path fill="#C2C2C2" fill-rule="nonzero" d="M247 368.999l-21.66-24.282c-1.049-1.179-1.586-2.726-1.493-4.301.093-1.575.807-3.05 1.987-4.097 1.176-1.047 2.72-1.584 4.292-1.491 1.572.092 3.042.807 4.087 1.985L255.873 361c1.049 1.179 1.586 2.726 1.493 4.301-.093 1.575-.807 3.05-1.987 4.097-2.427 2.195-6.171 2.017-8.379-.399z"/>
        <path fill="#5CE7ED" fill-rule="nonzero" d="M252.32 367.365l-21.66-24.282c-2.084-2.348-1.976-5.915.247-8.132-2.503-.504-5.048.652-6.316 2.868-1.267 2.217-.973 4.996.73 6.898L247 368.999c1.05 1.177 2.526 1.888 4.1 1.977 1.576.09 3.121-.451 4.298-1.502l.247-.247c-1.283-.238-2.452-.892-3.325-1.862z" opacity=".2"/>
        <path fill="#C2C2C2" fill-rule="nonzero" d="M224.086 315.685l16.397 5.947c3.081 1.116 4.679 4.515 3.572 7.6-1.133 3.066-4.516 4.657-7.6 3.572l-16.416-6.004c-3.081-1.116-4.679-4.515-3.572-7.6 1.148-3.061 4.545-4.629 7.619-3.515zM216.6 333.203l13.737 1.425c1.568.158 3.01.934 4.004 2.157.995 1.223 1.462 2.792 1.297 4.36l-.608 5.928-19.665-2.033c-1.57-.163-3.011-.943-4.005-2.17-.995-1.225-1.46-2.796-1.296-4.366.163-1.57.943-3.011 2.17-4.005 1.225-.995 2.796-1.46 4.366-1.296z"/>
        <path fill="#C2C2C2" fill-rule="nonzero" d="M221.179 340.1l-1.729 15.789c-.172 1.57-.962 3.008-2.195 3.996-1.233.987-2.809 1.443-4.379 1.267-3.263-.358-5.618-3.292-5.263-6.555l1.748-15.789c.172-1.57.962-3.008 2.195-3.996 1.233-.987 2.809-1.443 4.379-1.267 1.566.172 2.998.96 3.982 2.19s1.438 2.8 1.262 4.365z"/>
        <path fill="#5CE7ED" fill-rule="nonzero" d="M218.101 358.986c-3.263-.358-5.618-3.292-5.263-6.555l1.748-15.789c.13-1.152.592-2.24 1.33-3.135-3.263-.355-6.197 2-6.555 5.263l-1.748 15.789c-.276 2.606 1.187 5.086 3.601 6.105 2.415 1.02 5.212.338 6.887-1.678z" opacity=".2"/>
        <path fill="#C2C2C2" fill-rule="nonzero" d="M208.506 313.215l13.927 2.09c3.248.488 5.485 3.516 4.997 6.764-.488 3.248-3.516 5.485-6.764 4.997l-13.927-2.09c-3.248-.488-5.485-3.516-4.997-6.764.488-3.248 3.516-5.485 6.764-4.997z"/>
        <path fill="#5CE7ED" fill-rule="nonzero" d="M255.949 354.863l-16.53-26.6-14.041-5.073-13.737-2.09c-3.248-.488-5.485-3.516-4.997-6.764.054-.377.15-.746.285-1.102-2.969.326-5.231 2.81-5.28 5.797-.048 2.986 2.133 5.542 5.09 5.964l13.737 2.071 14.041 5.073 16.53 26.6c1.738 2.785 5.403 3.635 8.189 1.9 1.13-.719 1.986-1.796 2.432-3.059-2.272.278-4.5-.78-5.719-2.717z" opacity=".2"/>
        <path fill="#E9E9E9" fill-rule="nonzero" d="M386.26 417.366H445.882V529.96H386.26z" transform="rotate(28.51 416.071 473.663)"/>
        <path fill="#000" fill-rule="nonzero" d="M416.746 409.944L416.119 411.103 446.747 427.747 393.642 525.521 415.397 537.339 469.148 438.406z" opacity=".05"/>
        <path fill="#5CE7ED" fill-rule="nonzero" d="M374.984 511.613L427.139 415.587 416.746 409.944 363.014 508.877 415.397 537.339 416.993 534.432z" opacity=".2"/>
        <path fill="#000" fill-rule="nonzero" d="M401.926 530.1c-.437-.551-.874-1.102-1.33-1.615l-9.975-11.001c-4.337-4.788-5.274-11.754-2.356-17.518 3.33-6.449 1.955-14.327-3.363-19.266l-4.389-4.104-17.499 32.3 38.912 21.204z" opacity=".1"/>
        <path fill="#E3E3E3" fill-rule="nonzero" d="M283.423 393.927l94.449 88.673c5.191 4.897 6.558 12.619 3.363 19-2.907 5.766-1.97 12.725 2.356 17.518l9.975 11.001c4.357 4.81 6.833 11.03 6.973 17.518l-37.525 20.9L247 411.236l36.423-17.309z"/>
        <path fill="#5CE7ED" fill-rule="nonzero" d="M377.625 557.042l-113.601-153.9-17.1 8.113 116.09 157.301 37.525-20.9c-.028-1.075-.123-2.148-.285-3.211l-22.629 12.597z" opacity=".2"/>
        <path fill="#D1D1D1" fill-rule="nonzero" d="M367.593 506.863h-38.152c-3.284 0-5.947-2.663-5.947-5.947 0-3.284 2.663-5.947 5.947-5.947h38.152c3.284 0 5.947 2.663 5.947 5.947 0 3.284-2.663 5.947-5.947 5.947z"/>
        <path fill="#D1D1D1" fill-rule="nonzero" d="M333.659 505.115L312.55 526.3c-2.328 2.316-6.09 2.316-8.417 0-2.316-2.328-2.316-6.09 0-8.417l21.109-21.109c2.328-2.316 6.09-2.316 8.417 0 2.266 2.318 2.266 6.023 0 8.341z"/>
        <path fill="#5CE7ED" fill-rule="nonzero" d="M311.106 526.3c-2.316-2.328-2.316-6.09 0-8.417l21.109-21.109c.282-.267.587-.509.912-.722.152-.114.304-.171.456-.266.184-.106.374-.201.57-.285.196-.083.4-.147.608-.19l.494-.152c.382-.076.77-.114 1.159-.114h-6.973c-.39 0-.777.038-1.159.114l-.494.152c-.208.043-.412.107-.608.19-.196.084-.386.179-.57.285-.152.095-.304.152-.456.266-.325.213-.63.455-.912.722l-21.109 21.109c-2.15 2.201-2.266 5.68-.267 8.018 1.999 2.34 5.452 2.768 7.962.988-.253-.18-.495-.377-.722-.589z" opacity=".2"/>
        <path fill="#C2C2C2" fill-rule="nonzero" d="M366.7 509.827h-25.365c-3.284 0-5.947-2.663-5.947-5.947 0-3.284 2.663-5.947 5.947-5.947H366.7c3.284 0 5.947 2.663 5.947 5.947 0 1.577-.627 3.09-1.742 4.205-1.115 1.115-2.628 1.742-4.205 1.742z"/>
        <path fill="#D1D1D1" fill-rule="nonzero" d="M369.037 521.512h-25.441c-3.284 0-5.947-2.663-5.947-5.947 0-3.284 2.663-5.947 5.947-5.947h25.441c3.284 0 5.947 2.663 5.947 5.947 0 1.577-.627 3.09-1.742 4.205-1.115 1.115-2.628 1.742-4.205 1.742z"/>
        <path fill="#C2C2C2" fill-rule="nonzero" d="M345.515 508.079l-21.109 21.109c-2.321 2.314-6.077 2.314-8.398 0-1.12-1.11-1.752-2.622-1.752-4.199s.631-3.09 1.752-4.199l21.09-21.09c1.113-1.122 2.628-1.753 4.209-1.753 1.58 0 3.095.631 4.208 1.753 2.302 2.319 2.302 6.06 0 8.379z"/>
        <path fill="#5CE7ED" fill-rule="nonzero" d="M322.183 529.188c-2.314-2.321-2.314-6.077 0-8.398l21.109-21.09c1.114-1.126 2.634-1.756 4.218-1.748h-6.175c-1.59-.009-3.116.62-4.237 1.748l-21.09 21.109c-2.15 2.12-2.363 5.52-.493 7.892 1.87 2.371 5.225 2.958 7.789 1.361-.411-.24-.788-.534-1.121-.874z" opacity=".2"/>
        <path fill="#E7E7E7" fill-rule="nonzero" d="M648.774 539.98L464.778 539.98 464.778 426.626 673.436 426.626 648.774 500.916z"/>
        <path fill="#000" fill-rule="nonzero" d="M439.546 422.332l-22.8-12.388-6.783 12.502c4.53 13.7 15.648 24.203 29.583 27.949v11.97c.019 6.83 2.193 13.479 6.213 19l23.389-43.035-29.602-15.998z" opacity=".1"/>
        <circle cx="458.242" cy="402.021" r="42.788" fill="#E3E3E3" fill-rule="nonzero"/>
        <circle cx="447.395" cy="386.599" r="16.017" fill="#FFF" fill-rule="nonzero" opacity=".1" transform="rotate(-22.62 447.395 386.599)"/>
        <path fill="#5CE7ED" fill-rule="nonzero" d="M464.398 437.741c-15.943.014-30.572-8.837-37.957-22.966-7.386-14.129-6.304-31.192 2.807-44.275-12.045 11.128-16.67 28.162-11.907 43.854 4.762 15.692 18.075 27.282 34.273 29.838 16.198 2.557 32.433-4.37 41.797-17.832-7.891 7.314-18.253 11.379-29.013 11.381z" opacity=".2"/>
        <path fill="#000" fill-rule="nonzero" d="M458.242 425.163c-19.841-.008-37.074-13.654-41.629-32.965-.774 3.217-1.163 6.514-1.159 9.823 1.175 22.753 19.967 40.599 42.75 40.599s41.575-17.846 42.75-40.599c.004-3.309-.385-6.606-1.159-9.823-4.548 19.283-21.74 32.922-41.553 32.965z" opacity=".05"/>
        <path fill="#000" fill-rule="nonzero" d="M668.458 426.626h-203.68v67.032c.741.304 1.501.57 2.28.817 44.238 14.117 91.399 16.416 136.8 6.669l8.303-1.786c32.84-7.042 56.3-36.067 56.297-69.654v-3.078z" opacity=".1"/>
        <path fill="#EDEDED" fill-rule="nonzero" d="M612.161 494.171l-8.303 1.786c-45.403 9.728-92.559 7.429-136.8-6.669-13.4-4.318-22.476-16.797-22.458-30.875v-60.667c0-29.98 24.303-54.283 54.283-54.283H618.83c27.409 0 49.628 22.22 49.628 49.628v31.426c-.004 33.584-23.46 62.606-56.297 69.654z"/>
        <path fill="#000" fill-rule="nonzero" d="M618.83 343.463h-32.832l-26.752 15.77h95.855c-9.367-10.078-22.512-15.794-36.271-15.77zM512.639 499.833c-11.4-87.001 29.792-144.571 30.21-145.141l2.641 1.9c-.399.551-40.85 57.133-29.583 142.785l-3.268.456z" opacity=".05"/>
        <path fill="#407BFF" fill-rule="nonzero" d="M561.583 433.998H599.963V441.104H561.583zM561.583 444.809H599.963V457.786H561.583z"/>
        <path fill="#000" fill-rule="nonzero" d="M639.407 347.928c1.853 5.275 2.798 10.825 2.793 16.416v31.426c.031 33.613-23.433 62.676-56.297 69.73l-8.303 1.786c-44.055 9.432-89.782 7.536-132.905-5.51 1.3 12.827 10.083 23.661 22.363 27.588 44.241 14.098 91.397 16.397 136.8 6.669l8.303-1.786c32.836-7.048 56.293-36.07 56.297-69.654v-31.502c0-19.446-11.356-37.1-29.051-45.163z" opacity=".05"/>
        <path fill="#5CE7ED" fill-rule="nonzero" d="M475.817 489.288c-13.441-4.283-22.568-16.768-22.572-30.875v-60.667c0-29.98 24.303-54.283 54.283-54.283h-8.74c-29.943.052-54.188 24.34-54.188 54.283v60.667c-.005 14.104 9.116 26.59 22.553 30.875 27.562 8.78 56.369 13.016 85.291 12.54-26.018-.414-51.835-4.638-76.627-12.54z" opacity=".2"/>
        <path fill="#D1D1D1" fill-rule="nonzero" d="M514.577 300.713h76.228V343.9c0 8.51-6.899 15.409-15.409 15.409h-45.41c-8.51 0-15.409-6.899-15.409-15.409v-43.187z"/>
        <path fill="#000" fill-rule="nonzero" d="M574.655 300.713V343.9c-.01 8.506-6.903 15.399-15.409 15.41h16.15c4.102.02 8.042-1.595 10.952-4.486 2.909-2.891 4.547-6.822 4.552-10.924v-43.187h-16.245z" opacity=".05"/>
        <path fill="#5CE7ED" fill-rule="nonzero" d="M519.574 343.9v-43.187h-4.997V343.9c.01 8.506 6.903 15.399 15.409 15.409h4.997c-8.506-.01-15.399-6.903-15.409-15.409z" opacity=".2"/>
        <path fill="#424242" fill-rule="nonzero" d="M492.1 232.009s-7.22-51.623 2.356-72.941c9.576-21.318 40.185-28.234 64.144-26.429 23.959 1.805-11.609-11.4-11.609-11.4S493.449 117.23 475 159.068c-14.288 32.3-6.574 79.021-6.574 79.021l23.674-6.08z"/>
        <path fill="#424242" fill-rule="nonzero" d="M508.022 242.193c0-13.87-7.771-25.498-18.316-28.994v-1.083h-6.574c-13.737 0-24.89 13.471-24.89 30.077s11.153 30.077 24.89 30.077h6.574v-1.083c10.545-3.496 18.316-15.143 18.316-28.994z"/>
        <ellipse cx="489.706" cy="242.193" fill="#656565" fill-rule="nonzero" rx="24.89" ry="30.077"/>
        <path fill="#000" fill-rule="nonzero" d="M514.577 326.933H539.6c18.603.064 36.682-6.163 51.3-17.67v-8.55h-76.323v26.22z" opacity=".1"/>
        <path fill="#EDEDED" fill-rule="nonzero" d="M547.048 131.1c41.68 0 75.468 33.788 75.468 75.468v31.445c.02 21.999-8.708 43.102-24.262 58.66-15.554 15.557-36.655 24.29-58.654 24.275h-23.731c-11.75 0-23.017-4.669-31.324-12.979-8.306-8.31-12.97-19.58-12.965-31.329v-69.996c-.02-20.029 7.922-39.244 22.077-53.413 14.155-14.17 33.362-22.131 53.391-22.131z"/>
        <path fill="#424242" fill-rule="nonzero" d="M501.6 267.691h42.522v3.477c0 11.742-9.519 21.261-21.261 21.261-11.742 0-21.261-9.519-21.261-21.261v-3.477z"/>
        <path fill="#000" fill-rule="nonzero" d="M575.016 183.521c-4.37 25.403 5.472 54.074-2.983 64.429-8.455 10.355 1.9 28.253-5.415 48.203-4.009 11.058-12.711 19.285-19.684 24.453 42.767-3.77 75.57-39.584 75.582-82.517v-31.445c.021-18.37-6.683-36.11-18.848-49.875-10.564 3.154-25.84 10.431-28.652 26.752z" opacity=".05"/>
        <path fill="#407BFF" fill-rule="nonzero" d="M544.179 306.679H501.6v11.913c4.576 1.561 9.377 2.357 14.212 2.356H539.6c1.52 0 3.021 0 4.522-.133l.057-14.136z"/>
        <path fill="#000" fill-rule="nonzero" d="M570.969 135.071c23.632 13.394 38.235 38.462 38.228 65.626v31.445c-.005 21.98-8.742 43.059-24.288 58.598-15.546 15.54-36.628 24.266-58.609 24.261h-23.75c-3.798-.011-7.58-.516-11.248-1.501 7.27 4.862 15.82 7.454 24.567 7.448H539.6c21.976 0 43.051-8.73 58.59-24.269 15.54-15.539 24.269-36.614 24.269-58.59v-31.445c-.005-32.442-20.733-61.254-51.49-71.573z" opacity=".05"/>
        <path fill="#5CE7ED" fill-rule="nonzero" d="M477.223 276.64v-69.996c.012-40.573 32.093-73.88 72.637-75.411h-2.812c-41.68 0-75.468 33.788-75.468 75.468v69.939c-.005 11.75 4.659 23.02 12.965 31.33 8.307 8.31 19.575 12.978 31.324 12.978h5.7c-11.758.01-23.037-4.654-31.355-12.964-8.318-8.31-12.991-19.586-12.991-31.344z" opacity=".2"/>
        <path fill="#407BFF" fill-rule="nonzero" d="M547.048 131.1c-7.262-.005-14.487 1.038-21.451 3.097-15.243 13.297-23.993 32.535-23.997 52.763h41.61c.005-20.343 8.87-39.675 24.282-52.953-6.648-1.91-13.528-2.888-20.444-2.907z"/>
        <path fill="#000" fill-rule="nonzero" d="M622.516 216.6c-2.266-.822-4.657-1.247-7.068-1.254h-6.555c-13.737 0-24.89 13.471-24.89 30.077s11.153 30.077 24.89 30.077h4.807c5.862-11.565 8.908-24.35 8.892-37.316l-.076-21.584z" opacity=".1"/>
        <path fill="#000" fill-rule="nonzero" d="M608.779 263.53c-.46-.463-1.086-.723-1.739-.723-.652 0-1.278.26-1.738.723l-24.871 24.852c-1.831 1.826-4.311 2.85-6.897 2.85h-12.35c-.95-2.308-3.204-3.81-5.7-3.8-.74.152-1.502.152-2.242 0h-12.521c-3.4 0-6.156 2.756-6.156 6.156s2.756 6.156 6.156 6.156h12.521c.74-.152 1.502-.152 2.242 0 2.393-.003 4.567-1.398 5.567-3.572h12.483c3.895-.006 7.63-1.55 10.393-4.294l24.852-24.852c.464-.463.725-1.092.725-1.748 0-.656-.26-1.285-.725-1.748z" opacity=".1"/>
        <path fill="#424242" fill-rule="nonzero" d="M633.783 242.193c0-13.87-7.771-25.498-18.335-28.994v-1.083h-6.555c-13.737 0-24.89 13.471-24.89 30.077s11.153 30.077 24.89 30.077h6.555v-1.083c10.564-3.496 18.335-15.143 18.335-28.994z"/>
        <ellipse cx="615.448" cy="242.193" fill="#656565" fill-rule="nonzero" rx="24.89" ry="30.077"/>
        <path fill="#424242" fill-rule="nonzero" d="M622.516 238.089c-13.256-3.425-22.24-15.744-21.451-29.412.931-16.511.798-37.753-4.522-49.609-9.5-21.337-40.261-28.234-64.296-26.429-24.035 1.805 14.801-11.4 14.801-11.4s54.967 0 68.913 37.791c12.217 33.117 6.555 79.021 6.555 79.021v.038z"/>
        <path fill="#407BFF" fill-rule="nonzero" d="M632.054 242.193c0-8.512-4.446-15.732-10.659-18.544V222.3h-5.7c-9.063 0-16.397 8.892-16.397 19.836 0 10.944 7.334 19.817 16.397 19.817h5.7v-1.273c6.213-2.755 10.659-9.994 10.659-18.487z"/>
        <ellipse cx="621.395" cy="242.193" fill="#6C9AFF" fill-rule="nonzero" rx="16.397" ry="19.817"/>
        <path fill="#000" fill-rule="nonzero" d="M632.529 227.658c2.34 3.664 3.567 7.927 3.534 12.274 0 10.944-7.334 19.836-16.397 19.836-4.301-.083-8.358-2.015-11.134-5.301 2.704 4.568 7.557 7.436 12.863 7.6 9.063 0 16.397-8.873 16.397-19.817.09-5.344-1.783-10.535-5.263-14.592z" opacity=".1"/>
        <path fill="#656565" fill-rule="nonzero" d="M553.242 291.004h-12.521c-3.4 0-6.156-2.756-6.156-6.156 0-1.633.649-3.198 1.803-4.353 1.155-1.154 2.72-1.803 4.353-1.803h12.521c1.633 0 3.198.649 4.353 1.803 1.154 1.155 1.803 2.72 1.803 4.353 0 1.633-.649 3.198-1.803 4.353-1.155 1.154-2.72 1.803-4.353 1.803z"/>
        <path fill="#424242" fill-rule="nonzero" d="M555.484 291.004c-3.392-.01-6.137-2.764-6.137-6.156s2.745-6.146 6.137-6.156c3.4 0 6.156 2.756 6.156 6.156 0 1.633-.649 3.198-1.803 4.353-1.155 1.154-2.72 1.803-4.353 1.803z"/>
        <path fill="#656565" fill-rule="nonzero" d="M573.534 287.451h-15.846c-.93.082-1.828-.368-2.318-1.163-.491-.796-.491-1.8 0-2.595.49-.795 1.387-1.245 2.318-1.163h15.846c2.588-.007 5.068-1.038 6.897-2.869l24.871-24.852c.46-.463 1.086-.723 1.738-.723.653 0 1.279.26 1.739.723.954.963.954 2.514 0 3.477L583.927 283.1c-2.759 2.759-6.492 4.321-10.393 4.351z"/>
        <path fill="#000" fill-rule="nonzero" d="M648.774 504.678L648.774 500.916 668.591 441.218 641.725 426.626 623.314 426.626 575.016 515.546 620.008 539.98 629.584 539.98z" opacity=".1"/>
        <path fill="#E9E9E9" fill-rule="nonzero" d="M591.182 419.817H650.804V529.789H591.182z" transform="rotate(28.51 620.993 474.803)"/>
        <path fill="#888" fill-rule="nonzero" d="M628.589 436.438H652.9280000000001V465.793H628.589z" transform="rotate(28.51 640.759 451.116)"/>
        <path fill="#000" fill-rule="nonzero" d="M621.053 412.243L619.191 415.663 652.403 433.694 601.768 526.927 620.958 537.339 673.436 440.705z" opacity=".05"/>
        <path fill="#5CE7ED" fill-rule="nonzero" d="M579.234 513.817L631.351 417.829 621.053 412.243 568.575 508.877 620.958 537.339 621.319 536.674z" opacity=".2"/>
        <path fill="#000" fill-rule="nonzero" d="M613.985 425.277c9.276 21.404 33.965 31.46 55.556 22.629l3.914-7.201-52.402-28.5-7.068 13.072z" opacity=".1"/>
        <circle cx="655.747" cy="402.021" r="42.788" fill="#E3E3E3" fill-rule="nonzero"/>
        <path fill="#5CE7ED" fill-rule="nonzero" d="M623.2 402.021c.006-21.646 16.17-39.88 37.658-42.484-1.697-.198-3.403-.3-5.111-.304-15.703-.662-30.505 7.338-38.554 20.838-8.05 13.5-8.05 30.325 0 43.824 8.049 13.5 22.85 21.5 38.554 20.838 1.708-.005 3.414-.106 5.111-.304-21.46-2.6-37.613-20.791-37.658-42.408z" opacity=".2"/>
        <path fill="#000" fill-rule="nonzero" d="M602.509 510.739c-6.468 0-12.265-3.99-14.573-10.032-1.703-4.453-5.283-7.929-9.785-9.5l-9.595 17.67 48.678 26.429h4.807l10.659-19.703c-4.516-3.164-9.895-4.862-15.409-4.864h-14.782z" opacity=".1"/>
        <path fill="#E3E3E3" fill-rule="nonzero" d="M435.48 505.514l129.067-10.488c7.16-.584 13.848 3.626 16.416 10.336 2.31 6.038 8.108 10.022 14.573 10.013h14.839c6.493.007 12.767 2.355 17.67 6.612l20.729 17.993H435.48v-34.466z"/>
        <path fill="#000" fill-rule="nonzero" d="M435.48 523.412L435.48 539.98 648.774 539.98 629.698 523.412z" opacity=".05"/>
        <path fill="#888" fill-rule="nonzero" d="M435.48 505.514L367.593 494.969 367.669 521.664 401.565 539.98 435.48 539.98z"/>
        <path fill="#D1D1D1" fill-rule="nonzero" d="M349.429 517.294l-5.187 17.1c-.95 3.142-4.267 4.92-7.41 3.971-1.512-.452-2.78-1.488-3.526-2.88-.746-1.39-.906-3.02-.445-4.53l5.168-17.1c.95-3.142 4.267-4.92 7.41-3.971 1.512.453 2.783 1.488 3.531 2.878.749 1.39.914 3.02.459 4.532z"/>
        <path fill="#5CE7ED" fill-rule="nonzero" d="M337.915 530.993l4.864-16.112c.305-2.736 2.47-4.892 5.206-5.187h.665-5.719c-2.737.295-4.901 2.451-5.206 5.187l-4.864 16.112c-.46 1.51-.3 3.14.445 4.53.745 1.392 2.014 2.428 3.526 2.88 1.402.433 2.917.317 4.237-.323-2.666-1.251-4.009-4.27-3.154-7.087z" opacity=".2"/>
        <path fill="#A2C0C8" fill-rule="nonzero" d="M698.478 574.484H63.688c-9.699-.01-17.556-7.876-17.556-17.575 0-9.696 7.86-17.556 17.556-17.556h634.79c9.696 0 17.556 7.86 17.556 17.556 0 9.699-7.857 17.565-17.556 17.575z"/>
        <path fill="#888" fill-rule="nonzero" d="M283.423 393.927L275.69 363.147 260.376 351.272 224.466 379.658 246.924 411.236z"/>
        <path fill="#D1D1D1" fill-rule="nonzero" d="M264.385 368.087l-3.002-20.387c-.234-1.56.164-3.15 1.106-4.415.941-1.266 2.349-2.105 3.91-2.33 1.558-.24 3.147.154 4.414 1.093 1.267.938 2.106 2.344 2.331 3.904l3.021 20.368c.476 3.247-1.77 6.266-5.016 6.745-3.239.477-6.257-1.744-6.764-4.978z"/>
        <path fill="#D1D1D1" fill-rule="nonzero" d="M247.608 336.87l20.292 3.648c3.234.588 5.383 3.68 4.807 6.916-.597 3.228-3.683 5.372-6.916 4.807l-20.254-3.667c-1.55-.277-2.927-1.16-3.825-2.455-.899-1.294-1.245-2.892-.963-4.442.579-3.214 3.64-5.36 6.859-4.807z"/>
        <path fill="#5CE7ED" fill-rule="nonzero" d="M270.009 364.382l-2.451-16.549-16.454-2.964c-1.552-.282-2.929-1.17-3.827-2.466-.898-1.297-1.243-2.898-.961-4.45.06-.398.17-.787.323-1.159-3.059 0-5.62 2.32-5.919 5.365-.3 3.044 1.76 5.819 4.76 6.415l16.454 2.983 2.451 16.53c.489 3.25 3.513 5.492 6.764 5.016 2.084-.309 3.845-1.707 4.617-3.667-2.896-.052-5.33-2.19-5.757-5.054z" opacity=".2"/>
        <ellipse cx="203.737" cy="318.364" fill="#5CE7ED" fill-rule="nonzero" opacity=".2" rx="16.112" ry="24.111"/>
        <ellipse cx="203.737" cy="318.364" fill="#5CE7ED" fill-rule="nonzero" opacity=".2" rx="9.063" ry="13.566"/>
        <path fill="#5CE7ED" fill-rule="nonzero" d="M125.837 304.817H180.386V315.343H125.837zM137.731 380.019H192.28V390.545H137.731zM245.461 434.283H300.01V444.809H245.461zM137.731 324.254H180.386V329.821H137.731zM137.731 397.404H180.386V402.971H137.731zM244.416 452.599H287.071V458.166H244.416zM137.731 409.146H180.386V414.713H137.731zM137.731 420.888H161.519V426.455H137.731zM308.389 403.484H323.817V406.16299999999995H308.389zM308.389 407.493H319.846V409.07H308.389zM285.038 356.25L276.716 389.139 304.304 404.814 334.704 377.701 299.288 374.642z" opacity=".2"/>
        <path stroke="#5CE7ED" stroke-width=".817" d="M285.038 356.25L276.716 389.139 304.304 404.814 334.704 377.701 299.288 374.642z" opacity=".5"/>
        <path fill="#5CE7ED" fill-rule="nonzero" d="M286.729 356.231c0 1.482-.798 2.679-1.786 2.679s-1.786-1.197-1.786-2.679c0-1.482.817-2.66 1.786-2.66.969 0 1.786 1.197 1.786 2.66zM301.093 374.528c0 1.482-.798 2.679-1.786 2.679s-1.786-1.197-1.786-2.679c0-1.482.798-2.66 1.786-2.66s1.786 1.197 1.786 2.66z" opacity=".2"/>
        <ellipse cx="299.307" cy="385.092" fill="#5CE7ED" fill-rule="nonzero" opacity=".2" rx="1.786" ry="2.679"/>
        <ellipse cx="334.704" cy="377.853" fill="#5CE7ED" fill-rule="nonzero" opacity=".2" rx="1.786" ry="2.66"/>
        <ellipse cx="304.361" cy="404.814" fill="#5CE7ED" fill-rule="nonzero" opacity=".2" rx="1.786" ry="2.66"/>
        <path fill="#5CE7ED" fill-rule="nonzero" d="M278.502 389.139c0 1.463-.798 2.66-1.786 2.66s-1.786-1.197-1.786-2.66.798-2.679 1.786-2.679 1.786 1.14 1.786 2.679zM338.333 375.193H353.761V377.87199999999996H338.333zM338.333 379.202H349.79V380.779H338.333zM302.575 366.282H318.003V368.96099999999996H302.575zM302.575 370.291H314.032V371.868H302.575z" opacity=".2"/>
        <path fill="#5CE7ED" fill-rule="nonzero" d="M264.974 353.438H280.402V356.11699999999996H264.974z" opacity=".2" transform="rotate(180 272.688 354.777)"/>
        <path fill="#5CE7ED" fill-rule="nonzero" d="M268.926 357.466H280.383V359.043H268.926z" opacity=".2" transform="rotate(180 274.654 358.255)"/>
        <path fill="#5CE7ED" fill-rule="nonzero" d="M257.26 387.391H272.688V390.07H257.26z" opacity=".2" transform="rotate(180 264.974 388.73)"/>
        <path fill="#5CE7ED" fill-rule="nonzero" d="M261.231 391.4H272.688V392.977H261.231z" opacity=".2" transform="rotate(180 266.96 392.188)"/>
        <path stroke="#5CE7ED" stroke-width=".817" d="M299.307 374.528L299.307 385.092 284.943 356.25M276.716 389.139L299.307 385.092 304.361 404.814M299.307 385.092L334.704 377.853" opacity=".5"/>
        <path fill="url(#prefix__a)" fill-rule="nonzero" d="M212.838 226.062L0 226.062 100.073 538.669 212.838 538.669 325.603 538.669 425.695 226.062z" opacity=".3"/>
        <path fill="#5CE7ED" fill-rule="nonzero" d="M264.024 403.123L238.013 368.961 224.466 379.658 246.924 411.236zM565.136 501.866c5.376-.569 10.8.455 15.599 2.945-2.722-6.411-9.247-10.355-16.188-9.785L435.48 505.514l-67.887-10.545 67.887 16.416s117.021-7.885 129.656-9.519zM84.417 380.057H131.993V439.546H84.417zM165.015 451.478H212.59099999999998V510.967H165.015z" opacity=".2"/>
        <path fill="#7395AC" fill-rule="nonzero" d="M678.3 594.795H83.999c-11.213-.01-20.3-9.098-20.311-20.311h634.847c-.01 11.184-9.052 20.259-20.235 20.311z"/>
        <path fill="#000" fill-rule="nonzero" d="M655.747 425.163c-19.846-.006-37.085-13.651-41.648-32.965-4.052 17.2 2.886 35.12 17.463 45.108 14.577 9.988 33.793 9.988 48.37 0 14.577-9.988 21.515-27.909 17.463-45.108-4.57 19.31-21.805 32.952-41.648 32.965zM435.48 523.412L367.65 514.425 348.137 521.512 367.669 521.664 401.565 539.98 435.48 539.98z" opacity=".05"/>
        <circle cx="656.798" cy="386.601" r="16.017" fill="#FFF" fill-rule="nonzero" opacity=".1" transform="rotate(-22.62 656.798 386.601)"/>
        <circle cx="482.41" cy="382.356" r="16.017" fill="#FFF" fill-rule="nonzero" opacity=".2"/>
        <path fill="#FFF" fill-rule="nonzero" d="M479.332 409.944c.008 4.13-2.475 7.858-6.29 9.442-3.814 1.584-8.207.712-11.128-2.208-2.92-2.92-3.792-7.314-2.208-11.128 1.584-3.815 5.312-6.298 9.442-6.29 5.624 0 10.184 4.56 10.184 10.184z" opacity=".2"/>
        <circle cx="505.267" cy="179.683" r="16.017" fill="#FFF" fill-rule="nonzero" opacity=".1"/>
        <path fill="#424242" fill-rule="nonzero" d="M275.557 523.526H363.014V539.353H275.557z"/>
        <path fill="#656565" fill-rule="nonzero" d="M75.126 523.526H275.557V539.353H75.126z"/>
        <path fill="#407BFF" fill-rule="nonzero" d="M610.85 238.089H633.783V242.193H610.85z"/>
        <circle cx="493.411" cy="235.22" r="9.158" fill="#2B67EC" fill-rule="nonzero"/>
        <circle cx="544.179" cy="235.22" r="9.158" fill="#2B67EC" fill-rule="nonzero"/>
    </g>
</svg>
