<svg xmlns="http://www.w3.org/2000/svg" width="730" height="602" viewBox="0 0 730 602">
    <g fill="none">
        <path fill="#DCEDF9" d="M649.936 574.64c-36.352-27.616-98.528-96.16-16.656-203.744 101.248-133.056-20-187.648-136.24-181.952-93.504 4.656-198.752-112.976-303.728-91.968C53.968 124.8 144.448 244.8 49.968 309.504-30.608 364.64 3.984 532.64 108.8 574.64h541.136z"/>
        <path fill="#DCEDF9" d="M715.552 330.656c-.56-19.744-18.944-27.392-31.216-13.104-8.702 9.967-13.96 22.473-14.992 35.664-2.816 35.2 27.968 24.976 39.456 6.144 4.912-8.032 7.04-18.736 6.752-28.704zM376.896 90.016c-19.392-3.664-30.8 12.656-19.472 27.68 7.872 10.638 18.965 18.454 31.632 22.288 33.776 10.256 30.4-21.984 14.4-37.248-6.752-6.496-16.752-10.864-26.56-12.72zM56.352 270.784c7.76-18.144-5.712-32.8-22.832-24.976-12.083 5.401-22.103 14.552-28.576 26.096-17.296 30.768 14.912 34.416 33.248 22.128 7.824-5.232 14.24-14.032 18.16-23.248z"/>
        <ellipse cx="365.408" cy="580.016" fill="#DCEDF9" rx="332.416" ry="21.888"/>
        <path fill="#0077EB" d="M688.864 400.496c-20.352 20.304 2.336 22.064-12.592 37.424-13.6 14.016-33.696.384-32.352 34.576.288 7.488-5.152 13.04-12.8 15.888-11.47 4.365-24.445 1.062-32.432-8.256-.626-.687-1.213-1.408-1.76-2.16-6.206-8.375-7.566-19.39-3.584-29.024 3.456-8.544 9.6-16.96 20.416-20.304 25.456-7.872 11.328-41.6 32.832-43.056 25.952-1.792 26.88-11.296 45.28-24.128 19.52-13.584 24.576 11.456-3.008 39.04z"/>
        <path fill="#0059D3" d="M679.744 389.376c-.576.576-47.76 49.232-81.056 90.752-.626-.687-1.213-1.408-1.76-2.16 33.392-41.6 80.288-89.904 80.864-90.496.253-.258.599-.403.96-.403s.707.145.96.403c.527.52.542 1.367.032 1.904z"/>
        <path fill="#008EFF" d="M694.08 468.416c-31.872 18.768-4.176 28.224-27.712 42.544-21.456 13.04-42.064-10.384-51.424 32.624-2.032 9.408-10.608 14.56-21.024 15.632-15.687 1.74-30.781-6.54-37.744-20.704-.528-1.072-1.024-2.16-1.472-3.28-5.03-12.416-3.178-26.561 4.88-37.264 7.056-9.6 17.392-18.032 32-18.704 34.208-1.6 27.472-48.096 54.72-43.024 32.864 6.144 37.088-5.408 64.128-15.44 28.64-10.64 26.864 22.176-16.352 47.616z"/>
        <path fill="#0077EB" d="M686.304 451.632c-.896.544-75.296 45.92-130.128 86.88-.528-1.072-1.024-2.16-1.472-3.28 54.944-40.96 128.88-86.048 129.792-86.592.534-.323 1.2-.336 1.748-.035.547.301.891.872.904 1.496.012.624-.31 1.208-.844 1.531zM72.224 168c10.928 26.608-10.688 19.456-2.816 39.392C76.56 225.6 100.352 220.8 85.936 251.84c-3.2 6.784-.272 14.016 5.696 19.584 8.913 8.475 22.192 10.429 33.168 4.88.848-.4 1.6-.848 2.464-1.328 8.92-5.353 14.385-14.988 14.4-25.392.112-9.216-2.304-19.344-11.008-26.608-20.464-17.072 5.568-42.72-13.712-52.384-23.248-11.632-20.448-20.8-32.48-39.712-12.752-20.064-27.072 1.104-12.24 37.12z"/>
        <path fill="#0059D3" d="M84.928 161.328c.288.752 25.088 63.84 39.808 114.976.848-.4 1.6-.848 2.464-1.328-14.8-51.2-39.44-113.888-39.744-114.656-.18-.452-.587-.773-1.068-.843-.482-.07-.963.123-1.264.504-.302.382-.376.895-.196 1.347z"/>
        <path fill="#008EFF" d="M41.056 237.584c23.072 28.928-6.176 27.872 10.688 49.6C67.2 307.088 94.752 292.56 88.112 336c-1.456 9.6 4.704 17.408 14.064 22.144 14.032 7.215 31.08 4.867 42.64-5.872.88-.8 1.728-1.6 2.544-2.528 9.143-9.793 12.472-23.668 8.768-36.544-3.2-11.424-9.808-23.056-23.168-28.896-31.392-13.712-8.48-54.752-35.76-59.728-32.88-6.016-32.688-18.304-54.4-37.344-22.944-20.128-33.008 11.168-1.744 50.352z"/>
        <path fill="#0077EB" d="M54.4 224.704c.64.832 53.936 69.792 90.496 127.632.88-.8 1.728-1.6 2.544-2.528-36.672-57.888-89.6-126.4-90.272-127.248-.383-.494-1-.747-1.62-.663-.62.085-1.148.494-1.384 1.072-.237.58-.147 1.24.236 1.735z"/>
        <path fill="#008EFF" d="M196.688 212.416c9.296-6.4 32.576 9.328 44.8 28.4l-10.8-30.256c-6.34-5.28-13.612-9.327-21.44-11.936-16.64-5.904-33.296-15.136-24-21.504 8.72-5.984 29.776 7.488 42.384 24.944L213.744 163.2c-3.686-2.759-7.785-4.919-12.144-6.4-10.48-3.728-20.976-9.6-15.104-13.552 5.088-3.488 16.848 3.536 24.864 13.312L206.88 144c-2.585-4.952-5.813-9.541-9.6-13.648-10.672-11.04-18.752-23.472-10.512-25.28 8.24-1.808 21.728 19.856 23.856 39.408l2.304 6.4c-1.792-14.224 3.328-31.44 10.448-32 7.12-.56 2.656 10.56-3.104 20.064-3.11 4.841-5.13 10.3-5.92 16L225.28 185.6c-2.768-22.528 5.328-49.696 16.608-50.672 11.28-.976 4.192 16.736-4.944 31.84-6.896 11.392-8.848 20.464-9.376 25.216l13.104 36.704c-2.272-22.288 5.632-49.376 16.752-49.488 8.56 0 5.936 12.032-4.288 29.104-5.153 8.4-8.534 17.765-9.936 27.52l6.16 17.296c-.93.687-2.044 1.083-3.2 1.136l-2.464-6.88c-3.456-3.36-10.688-9.056-23.104-13.456-16.544-5.904-33.216-15.136-23.904-21.504zM114.896 468.8c-9.6 6-4.384 33.6 8.272 52.352L99.712 499.2c-2.336-7.914-3.161-16.197-2.432-24.416 1.2-17.6-.64-36.576-10.208-30.56-8.944 5.632-4.944 30.304 6.048 48.816l-30.144-28.16c-1.061-4.472-1.412-9.083-1.04-13.664.752-11.088-.4-23.04-6.4-19.2-5.216 3.296-3.44 16.88 2.352 28.128l-9.776-9.136c-3.53-4.33-6.472-9.108-8.752-14.208-5.888-14.176-14.08-26.528-19.008-19.696-4.928 6.832 9.6 27.84 26.672 37.552l5.024 4.704c-12.336-7.296-30.176-9.456-33.6-3.2-3.424 6.256 8.64 6.608 19.648 5.104 5.664-.922 11.46-.61 16.992.912l23.744 22.192c-19.568-11.504-47.728-14.88-53.104-4.896-5.376 9.984 13.696 10.496 31.184 8.112 13.2-1.808 22.304 0 26.864 1.408l28.48 26.624c-19.52-10.992-47.488-14.4-51.984-4.272-3.456 7.84 8.672 10.24 28.416 7.632 9.749-1.361 19.673-.724 29.168 1.872l13.408 12.528c.997-.572 1.8-1.43 2.304-2.464l-5.344-4.992c-1.696-4.512-4.048-13.408-3.2-26.544 1.28-17.616-.576-36.576-10.128-30.576z"/>
        <path fill="#FFAA01" d="M87.2 221.472H596.144V573.04H87.2z"/>
        <path fill="#F88800" d="M596.144 221.488L596.144 244.016 341.68 469.552 87.2 244.016 87.2 221.488 341.664 447.792z"/>
        <path fill="#F88800" d="M292.656 403.408L101.952 573.024 87.2 573.024 87.2 564.064 281.68 391.088zM596.16 565.264L596.16 573.024 580.08 573.024 389.376 403.408 400.336 391.088z"/>
        <path fill="#FDCC50" d="M87.184 221.456L341.664 447.792 596.144 221.456z"/>
        <path fill="#F9AF8B" d="M455.744 189.808L462.24 203.696 448.512 203.904 443.216 191.264z"/>
        <path fill="#008EFF" d="M457.904 202.832s2.832-3.792 5.072-3.632c2.24.16 19.504 13.904 25.424 15.04 5.92 1.136 5.376 7.152 2.896 7.152H444.8s-1.184-14.08.32-18.272c1.504-4.192 8.16.704 12.784-.288z"/>
        <path fill="#FFF" d="M467.456 212.416c-.203.093-.437.093-.64 0-.193-.105-.335-.282-.395-.493-.06-.21-.033-.436.075-.627 1.045-1.838 2.53-3.388 4.32-4.512 1.861-.992 4.117-.882 5.872.288.178.128.297.322.33.539.033.217-.022.438-.154.613-.278.365-.795.443-1.168.176-1.25-.794-2.832-.843-4.128-.128-1.5.972-2.745 2.289-3.632 3.84-.115.159-.287.268-.48.304z"/>
        <path fill="#FFF" d="M464.992 210.08c-.22.07-.46.04-.656-.08-.19-.107-.329-.286-.386-.497-.057-.21-.027-.434.082-.623 1.043-1.835 2.528-3.38 4.32-4.496 1.85-1.009 4.108-.904 5.856.272.297.29.336.754.09 1.089-.246.334-.7.436-1.066.239-1.258-.784-2.84-.832-4.144-.128-1.494.974-2.734 2.29-3.616 3.84-.108.183-.278.32-.48.384zM470.816 214.304c-.21.086-.446.086-.656 0-.397-.23-.533-.738-.304-1.136 1.036-1.84 2.523-3.387 4.32-4.496 1.852-.998 4.104-.893 5.856.272.178.128.297.322.33.539.033.217-.022.438-.154.613-.131.179-.328.298-.547.331-.22.033-.443-.023-.621-.155-1.251-.787-2.83-.836-4.128-.128-1.494.974-2.734 2.29-3.616 3.84-.115.163-.286.277-.48.32z"/>
        <path fill="#2E3052" d="M459.648 194.336l-6.08 1.984-3.376.192-5.808.352c-7.68-6.08-28.4-24.352-32.432-35.2 0 0-26.656 61.984-63.488 61.984-2.4 0 3.92-30.848 9.92-37.248 0 0 33.968-63.296 56-56.592 9.84 3.088 19.824 17.392 45.264 64.528z"/>
        <path fill="#001030" d="M453.568 196.32l-3.376.192c-22.608-17.104-33.072-31.6-37.888-40.88-.115-.246-.353-.411-.624-.432-.162.011-.3.118-.352.272-10.816 25.488-23.808 40.768-32.8 49.12-9.792 9.088-16.96 12.08-17.264 12.208l-.416-1.008-.4-1.008s7.168-3.024 16.704-11.888c8.8-8.192 21.536-23.216 32.176-48.272.367-.942 1.262-1.572 2.272-1.6 1.117-.027 2.147.597 2.64 1.6 4.848 9.36 15.616 24.144 39.328 41.696z"/>
        <path fill="#524E84" d="M438.288 192.72c1.054 2.1 2.48 3.992 4.208 5.584 0 0 13.024-.592 19.344-3.776l-2.832-6.608c-6.712 2.346-13.66 3.956-20.72 4.8z"/>
        <path fill="#0077EB" d="M455.312 103.872c-18.512 7.536-33.296 11.328-45.888 12.928-.16 0-3.12.256-4.272.208-4.367-.184-8.656-1.222-12.624-3.056-3.312-1.6-8-5.552-12.992-10.32-6.144-5.92-12.608-13.008-17.072-18.08-3.488-3.936-5.76-6.656-5.76-6.656 3.088-4.592 9.92-8.768 15.872-11.008 0 0 12.416 20.672 31.216 30.816 1.024.56 2.08 1.088 3.2 1.6 4.288-.688 15.872-1.216 20.896-1.6 8.312-.603 16.578-1.72 24.752-3.344l2.672 8.512z"/>
        <path fill="#F9AF8B" d="M452.096 94.624s2.576-6.512 6.08-8.368c3.504-1.856 13.488-8.4 15.616-6.4s1.68 11.36-7.264 19.2c-3.119 2.913-7.176 4.616-11.44 4.8l-2.992-9.232z"/>
        <path fill="#001030" d="M474.432 85.792l-14.736 13.76c-.622.53-1.49.66-2.24.336l-9.024-4.368c-.246-.102-.442-.298-.544-.544l-.448-1.504 2.4-.912 23.168-8.8 1.264-.48.464 1.6v.112c.032.3-.08.597-.304.8z"/>
        <path fill="#1F2232" d="M472.992 83.68l-23.168 8.8 13.104-12.24c.623-.526 1.49-.656 2.24-.336l7.824 3.776z"/>
        <path fill="#2E3052" d="M457.008 98.368L448 94c-.34-.09-.595-.373-.648-.72-.052-.35.108-.695.408-.88l14.736-13.76c.617-.527 1.48-.657 2.224-.336l9.04 4.368c.306.105.528.372.576.692.047.32-.089.64-.352.828l-14.72 13.76c-.61.56-1.486.721-2.256.416z"/>
        <path fill="#2E3052" d="M458.112 95.888l-6.912-3.376c-.34-.09-.595-.373-.648-.72-.052-.35.108-.695.408-.88l11.44-10.624c.613-.532 1.476-.669 2.224-.352l7.008 3.392c.35.08.614.367.664.723.05.355-.125.704-.44.877L460.4 95.632c-.643.534-1.543.635-2.288.256z"/>
        <path fill="#F9AF8B" d="M457.92 82.96s2.096.32 2.32 2.128c.224 1.808-1.744 1.088-2.992.688-.843-.304-1.777-.228-2.56.208-.56.656-.464-3.552 3.232-3.024zM467.296 92.8c1.768-2.906 3.713-5.7 5.824-8.368 1.68-1.968 2.528.896 1.392 2.88-1.136 1.984-3.424 6-7.216 5.488z"/>
        <path fill="#008EFF" d="M313.92 190.304l-7.296-47.04-.432-2.784v-2.096l1.6-66.64 18.608-6.24.992-.336 4.144-1.408 3.296-1.12 19.52 2.688 3.2.432 1.12.16 13.952 1.92c.128 44.176-4.112 53.712 4.064 89.6 4.112 13.6-11.04 61.6-62.768 32.864z"/>
        <path fill="#0077EB" d="M324.32 178.272c14.608-4.08 25.28-14.176 31.648-21.92 4.086-4.911 7.587-10.28 10.432-16 .08-.176.087-.377.018-.557-.07-.18-.209-.326-.386-.403-.173-.086-.374-.097-.556-.03-.181.066-.328.204-.404.382-2.803 5.61-6.244 10.876-10.256 15.696-6.24 7.568-16.656 17.424-30.896 21.408-.185.052-.342.176-.435.344-.093.169-.115.367-.061.552.102.393.503.63.896.528zM340.928 179.056c12.704-3.488 23.376-14.208 23.856-14.688.225-.176.328-.467.264-.745-.064-.279-.283-.495-.563-.555-.28-.06-.569.048-.741.276-.112.128-12.688 12.8-26.272 14.976-.354.107-.574.46-.513.825.06.365.383.629.753.615 1.084-.178 2.157-.413 3.216-.704zM331.936 85.104c12.704-3.52 23.344-14.272 23.824-14.752.225-.176.328-.467.264-.745-.064-.279-.283-.495-.563-.555-.28-.06-.569.048-.741.276-.128.128-12.656 12.8-26.24 15.04-.402.066-.674.446-.608.848.066.402.446.674.848.608 1.088-.192 2.16-.432 3.216-.72z"/>
        <path fill="#F9AF8B" d="M443.296 312.032L448.416 323.408 437.936 327.92 431.84 316.16z"/>
        <path fill="#008EFF" d="M446.128 323.2s1.072-4.592 3.2-5.344c2.128-.752 23.44 4.944 29.328 3.632 5.888-1.312 6.56 3.2 6.4 5.6-.16 2.4-43.632 18.08-43.632 18.08s-6.64-12.08-6.928-16.528c-.288-4.448 7.792-2.704 11.632-5.44z"/>
        <path fill="#FFF" d="M458.704 328.144c-.26.216-.623.253-.921.096-.298-.158-.472-.48-.439-.816.23-2.1.972-4.11 2.16-5.856 1.306-1.652 3.415-2.451 5.488-2.08.216.046.404.177.522.364s.154.413.102.628c-.103.445-.546.724-.992.624-1.477-.215-2.953.4-3.84 1.6-.978 1.49-1.592 3.189-1.792 4.96-.032.19-.135.362-.288.48z"/>
        <path fill="#FFF" d="M455.504 326.992c-.26.216-.623.253-.921.096-.298-.158-.472-.48-.439-.816.23-2.1.972-4.11 2.16-5.856 1.306-1.652 3.415-2.451 5.488-2.08.216.046.404.177.522.364s.154.413.102.628c-.045.215-.177.403-.365.518-.188.115-.414.148-.627.09-1.476-.208-2.948.405-3.84 1.6-.98 1.493-1.59 3.2-1.776 4.976-.043.19-.15.36-.304.48zM462.544 328.544c-.176.142-.4.21-.624.192-.22-.02-.422-.128-.561-.3-.139-.172-.202-.393-.175-.612.226-2.1.968-4.112 2.16-5.856 1.304-1.655 3.415-2.455 5.488-2.08.213.05.398.182.512.369.114.186.149.41.096.623-.045.215-.177.403-.365.518-.188.115-.414.148-.627.09-1.475-.201-2.944.41-3.84 1.6-.982 1.487-1.591 3.188-1.776 4.96-.04.192-.14.367-.288.496z"/>
        <path fill="#2E3052" d="M445.936 314.24c-2.424 2.023-5.158 3.644-8.096 4.8-.656.304-1.344.592-2.016.88-1.184.48-2.352.928-3.472 1.312 0 0-24.848-45.824-34.4-79.056 0 0-84.144-10.384-87.056-39.856-.104-1.01-.104-2.03 0-3.04.34-3.16 1.378-6.204 3.04-8.912 1.92-3.312 30.72 0 46.288 4.288 0 0 42.176 16.432 57.776 33.36 7.872 8.496 27.936 86.224 27.936 86.224z"/>
        <path fill="#001030" d="M437.84 318.976c-.656.304-1.344.592-2.016.88-12.56-20.8-30.016-69.424-33.92-81.104-.245-.818-.922-1.434-1.76-1.6-40.88-7.68-64.448-18.4-77.008-26.048-4.35-2.582-8.447-5.566-12.24-8.912-.104-1.01-.104-2.03 0-3.04 4.135 3.926 8.71 7.362 13.632 10.24 12.416 7.504 35.664 18.032 76.032 25.6 1.605.299 2.922 1.444 3.44 2.992 3.872 11.76 21.408 60.592 33.84 80.992z"/>
        <path fill="#524E84" d="M427.872 316.368l3.968 6.4s9.888-1.696 16.576-8.464l-2.48-5.664c-5.876 2.903-11.906 5.483-18.064 7.728z"/>
        <path fill="#F9AF8B" d="M293.936 207.696s5.728 7.76 5.248 11.792c-.48 4.032-5.648 11.584-9.792 11.952-4.144.368 4.8-9.728 2.656-9.408-2.544.4-19.712 14.4-23.344 14.4-3.632 0 4.272-6.544 7.344-8.192 0 0-8.128 3.632-10.016 5.52-1.888 1.888-3.2-2.16 6.192-8 0 0-8.688 4.928-9.264 5.008-1.936.256 3.568-6.208 8.304-8.528 0 0-6.944 3.376-7.664 3.392-.976 0 1.12-2.256 6.288-5.104 4.64-2.576 12.24-14.4 12.24-14.4l11.808 1.568z"/>
        <path fill="#0077EB" d="M307.872 71.744s-19.2 37.024-23.664 75.744l-2.08 58.8s1.984 4.192 11.808 1.408l9.504-58.784L310.72 122s3.312-33.104-2.848-50.256z"/>
        <circle cx="346.086" cy="28.006" r="21.296" fill="#2E3052" transform="rotate(-73.52 346.086 28.006)"/>
        <path fill="#2E3052" d="M367.392 27.888s6.224-.576 6.4-6.4c.192-5.024-6.128-2.864-4.944-6.608 1.184-3.744 2.928-7.04-1.856-8.864-4.192-1.6-4.8 1.344-9.728-3.968-5.84-6.288-13.088 4.592-19.2 3.888-8.96-1.04-10.96 3.776-12.544 7.632-.842 2.488-.34 5.235 1.328 7.264l40.544 7.056z"/>
        <path fill="#FC8664" d="M362.512 36.96s4.096-3.84 5.92.256c1.824 4.096-3.584 14.304-9.168 10.592l3.248-10.848z"/>
        <path fill="#FD664D" d="M361.184 44.704c.229.033.454-.083.56-.288 1.113-2 3.03-3.426 5.264-3.92.276-.064.457-.328.416-.608-.056-.28-.326-.465-.608-.416-2.57.54-4.77 2.184-6.016 4.496-.116.257-.01.56.24.688l.144.048z"/>
        <path fill="#FD664D" d="M364.976 43.632c.093.032.195.032.288 0 .125-.053.224-.153.275-.28.051-.126.05-.267-.003-.392-.355-.76-.908-1.413-1.6-1.888-.245-.156-.568-.092-.736.144-.078.114-.107.255-.08.39.027.136.108.255.224.33.543.35.98.843 1.264 1.424.078.139.212.238.368.272z"/>
        <path fill="#F9AF8B" d="M334.832 52.96l-1.904 10.752s3.584 5.52 7.872 6.688c4.288 1.168 7.824-3.536 7.824-3.536l1.776-10.368-15.568-3.536z"/>
        <path fill="#FC8664" d="M334.832 52.96l-.848 4.8c2.336 3.744 7.376 5.472 15.216 5.68l1.232-6.912-15.6-3.568z"/>
        <path fill="#F9AF8B" d="M328.368 23.312c-.626 4.588-.962 9.21-1.008 13.84 0 1.088.08 2.096.16 3.024.864 8.336 4.128 22.928 20.992 20.064 7.44-1.264 12.064-8.48 14.912-16.16 1.683-4.72 2.91-9.59 3.664-14.544.617-3.982-.909-7.995-4.016-10.56-8.416-6.96-18.64-6.72-25.6-5.376-4.805.948-8.469 4.856-9.104 9.712z"/>
        <path fill="#2E3052" d="M354.288 36.96c-.208 1.152.224 2.176.96 2.304.736.128 1.488-.688 1.68-1.84.192-1.152-.224-2.176-.944-2.32-.72-.144-1.488.704-1.696 1.856zM338.8 34.224c-.192 1.152.224 2.176.96 2.304.736.128 1.488-.688 1.696-1.84.208-1.152-.224-2.176-.96-2.32-.736-.144-1.488.704-1.696 1.856zM361.04 31.568s-5.12-3.2-9.68-2.064v2.032c3.137-.04 6.23.737 8.976 2.256.432-.864.896-1.232.704-2.224zM335.856 27.2s5.888-1.2 9.808 1.376l-.704 1.824c-2.932-1.109-6.102-1.44-9.2-.96-.128-.96-.432-1.456.096-2.24z"/>
        <path fill="#FC8664" d="M345.6 43.84c-.628-.13-1.23-.368-1.776-.704-.157-.097-.25-.27-.245-.456.006-.184.11-.352.272-.44.163-.087.36-.081.517.016.432.256 1.488.752 2.016.544.112 0 .256-.128.336-.432.492-2.604.85-5.231 1.072-7.872.034-.286.29-.492.576-.464.136.012.262.078.349.183.087.105.128.241.115.377-.237 2.684-.61 5.354-1.12 8-.119.507-.477.925-.96 1.12-.363.155-.764.199-1.152.128z"/>
        <path fill="#FFF" d="M351.392 48.112c-.784 2.032-2.864 5.648-7.536 4.8-4.672-.848-5.376-4.592-5.392-7.104l12.928 2.304z"/>
        <path fill="#FC8664" d="M343.456 55.616c-.878-.181-1.697-.577-2.384-1.152-.189-.203-.189-.517 0-.72.096-.1.23-.156.368-.156.139 0 .272.056.368.156.55.434 1.19.74 1.872.896.65.065 1.306-.017 1.92-.24.127-.052.27-.051.396.003.127.054.226.157.276.285.057.127.059.272.004.4-.055.127-.16.226-.292.272-.807.298-1.677.386-2.528.256z"/>
        <path fill="#2E3052" d="M362.432 40.464c.829-1.954 1.368-4.018 1.6-6.128 0-2.56-1.84-4.368-.736-6.64 1.104-2.272-.96-5.264-2.752-6.016-1.792-.752-6.256-.592-10.16-3.376s-11.04-2.512-12.656-.112c-1.952 2.912-.096 3.552-4.512 6.288-1.76 1.104-.576 4.944-.736 7.296-.045.922-.173 1.838-.384 2.736l-.112.56-4.56-.8c.128-3.648.544-7.632.96-10.96.633-4.863 4.307-8.775 9.12-9.712 6.944-1.344 17.168-1.6 25.6 5.376 3.107 2.565 4.633 6.578 4.016 10.56-.596 3.82-1.457 7.595-2.576 11.296l-2.112-.368z"/>
        <path fill="#F9AF8B" d="M329.072 36.592c.23-1.186.347-2.392.352-3.6.259-1.611-.41-3.231-1.728-4.192-1.167-.96-2.88-.84-3.904.272-3.104 3.2-2.368 15.12 4.144 13.552l1.136-6.032z"/>
        <path fill="#FC8664" d="M327.344 39.136c-.217-.08-.35-.299-.32-.528.08-2.29-.816-4.505-2.464-6.096-.16-.203-.148-.492.026-.683.175-.19.462-.226.678-.085 1.885 1.81 2.884 4.352 2.736 6.96-.008.138-.072.266-.179.354-.106.088-.244.128-.381.11l-.096-.032z"/>
        <path fill="#FC8664" d="M324.672 36.256c-.179-.064-.307-.222-.334-.41-.027-.187.053-.374.206-.486.717-.465 1.546-.73 2.4-.768.252.044.436.264.436.52s-.184.476-.436.52c-.65.037-1.28.229-1.84.56-.125.09-.286.113-.432.064z"/>
        <path fill="#F9AF8B" d="M569.488 282.528c-4.47 8.325-9.574 16.295-15.264 23.84-2.246 2.944-4.752 5.68-7.488 8.176-4.048 3.6-8 5.472-11.2 3.872-11.952-5.904-38.608-52.896-38.608-52.896l6.56-7.616s11.856 13.408 20.544 21.44c8 7.408 14.144 12.944 14.144 12.944 1.104-1.6 2.288-3.456 3.52-5.376 1.232-1.92 2.656-4.176 4.032-6.4 9.984-16 22.016-33.6 22.016-33.6l1.744 35.616z"/>
        <path fill="#F9AF8B" d="M505.2 262.512s2.704-4.432 1.6-8.416-2.064-12.976-6.4-12.72c-1.6 0 .736 3.84-.336 7.312-2.7-1.31-5.295-2.83-7.76-4.544-2.752-2.016-8.416-5.312-11.056-6.816-.315-.188-.717-.142-.982.112s-.328.653-.154.976c.672 1.152 2.32 2.864 6.16 5.264 0 0-9.52-5.328-11.104-4.16-1.584 1.168 10.416 7.616 10.416 7.616s-9.696-3.92-10.496-2.48c-.48.864 9.024 6.4 9.024 6.4s-9.44-2.912-7.68-.704c.512.656 18.448 8.768 22.192 18.192.048.048 5.28-2.816 6.576-6.032z"/>
        <path fill="#FC8664" d="M554.224 306.368c-2.246 2.944-4.752 5.68-7.488 8.176l-5.072-27.632c1.296-2.032 2.656-4.176 4.032-6.4l8.528 25.856z"/>
        <path fill="#008EFF" d="M568.08 245.632l-25.264 36.448 8 32.464 19.824-31.616s3.76-21.168-2.56-37.296z"/>
        <path fill="#F9AF8B" d="M581.04 557.44L581.04 568.944 591.776 568.768 592.48 556.576z"/>
        <path fill="#2E3052" d="M608.304 389.36c-.08 1.36-.448 8-1.008 17.088-1.504 25.136-4.336 69.824-6 79.856-1.712 10.304-.944 44.08-.384 61.76.082 2.887-1.016 5.683-3.04 7.744-.746.74-1.585 1.38-2.496 1.904-1.648.92-3.505 1.399-5.392 1.393h-8.192c-2.927.03-5.742-1.127-7.801-3.207-2.06-2.08-3.188-4.907-3.127-7.834.464-14.944 1.024-42.208 0-63.28-1.024-20.048.464-55.52 1.6-77.632.464-8.832.864-15.52 1.024-18.24l34.816.448z"/>
        <path fill="#001030" d="M573.456 388.912l34.848.448c-.08 1.36-.448 8-1.008 17.088-11.555 1.583-23.255 1.82-34.864.704.464-8.752.864-15.52 1.024-18.24z"/>
        <path fill="#001030" d="M597.728 516.544c.304 11.296.624 22.992.416 32.416 0 2.64-.144 4.912-.272 6.848-.734.753-1.575 1.395-2.496 1.904.192-2.256.352-5.136.432-8.8.208-9.376-.112-21.04-.416-32.32-.384-13.776-.736-26.8 0-32.336 1.68-12.144 5.408-77.888 6.4-95.44l2.336.096c-.976 17.6-4.8 83.44-6.4 95.648-.72 5.36-.368 18.288 0 31.984z"/>
        <path fill="#008EFF" d="M583.792 568.512s-2.224-3.072-4.048-2.976c-1.824.096-16.096 10.72-20.928 11.52-4.832.8-3.984 4.288-3.2 6.08.784 1.792 38.4.16 38.4.16s1.264-10.912.128-14.288c-1.136-3.376-6.608.368-10.352-.496z"/>
        <path fill="#FFF" d="M575.856 576c.167.08.361.08.528 0 .156-.082.273-.222.324-.39.051-.17.032-.351-.052-.506-.819-1.483-1.996-2.737-3.424-3.648-1.5-.844-3.34-.8-4.8.112-.295.208-.367.616-.16.912.22.3.638.37.944.16 1.04-.6 2.32-.6 3.36 0 1.203.816 2.186 1.915 2.864 3.2.118.096.264.152.416.16z"/>
        <path fill="#FFF" d="M577.92 574.16c.17.062.358.062.528 0 .156-.082.273-.222.324-.39.051-.17.032-.351-.052-.506-.824-1.488-2.007-2.747-3.44-3.664-1.505-.823-3.335-.78-4.8.112-.297.214-.369.627-.16.928.22.3.638.37.944.16 1.039-.604 2.321-.604 3.36 0 1.194.792 2.177 1.863 2.864 3.12.11.13.264.215.432.24zM573.104 577.424c.17.064.358.064.528 0 .156-.082.273-.222.324-.39.051-.17.032-.351-.052-.506-.817-1.489-1.994-2.748-3.424-3.664-1.501-.846-3.346-.797-4.8.128-.145.097-.245.25-.275.422-.03.172.011.35.115.49.22.3.638.37.944.16 1.033-.604 2.311-.604 3.344 0 1.192.799 2.179 1.868 2.88 3.12.102.131.251.217.416.24z"/>
        <path fill="#F9AF8B" d="M633.344 557.44L634.496 568.912 644.08 568.768 644.784 556.576z"/>
        <path fill="#2E3052" d="M653.072 484.8c-1.072 21.072-.512 48.336 0 63.28.06 2.927-1.067 5.753-3.127 7.834-2.06 2.08-4.874 3.237-7.801 3.207h-8.224c-1.749 0-3.474-.405-5.04-1.185-.9-.462-1.729-1.05-2.464-1.744-2.282-2.066-3.536-5.035-3.424-8.112.544-17.68 1.312-51.456-.4-61.76-1.712-10.304-4.592-56.256-6.08-81.136-.496-8.32-.832-14.256-.928-15.728l34.912.448c.096 1.776.256 4.512.448 8 1.136 19.856 3.312 63.68 2.128 86.896z"/>
        <path fill="#001030" d="M650.944 397.856c-11.346 3.018-22.838 5.459-34.432 7.312-.496-8.32-.832-14.256-.928-15.728l34.912.448c.096 1.776.256 4.512.448 7.968z"/>
        <path fill="#001030" d="M628.448 548.912c.08 3.776.24 6.72.448 8.992-.91-.454-1.75-1.036-2.496-1.728-.128-2.016-.24-4.4-.304-7.216-.208-9.424.112-21.12.416-32.416.368-13.696.72-26.624 0-32-1.68-12.224-5.44-78.144-6.4-95.664l2.288-.08c.976 17.52 4.8 83.312 6.4 95.456.768 5.536.416 18.56 0 32.336-.24 11.28-.56 22.944-.352 32.32z"/>
        <path fill="#008EFF" d="M638.24 567.152c2.047-.565 4.133-.982 6.24-1.248 1.344 0 10.4 9.936 13.44 10.528 5.536 1.056 5.536 9.504 2.176 9.936-9.728 1.216-26.368-2.816-26.368-2.816s-1.6-10.848-.864-14.256c.736-3.408 2.656-1.136 5.376-2.144z"/>
        <path fill="#FFF" d="M646.288 576.416c-.177.033-.36-.001-.512-.096-.15-.092-.257-.242-.293-.415-.036-.172 0-.352.101-.497.96-1.408 2.259-2.552 3.776-3.328 1.584-.691 3.418-.477 4.8.56.239.252.247.643.019.905-.228.26-.618.306-.899.103-.972-.707-2.247-.841-3.344-.352-1.277.682-2.374 1.658-3.2 2.848-.105.149-.267.248-.448.272z"/>
        <path fill="#FFF" d="M644.432 574.4c-.182.04-.372.006-.528-.096-.144-.097-.244-.248-.277-.42-.033-.17.003-.348.101-.492.953-1.409 2.246-2.554 3.76-3.328 1.584-.691 3.418-.477 4.8.56.138.11.225.271.24.447.015.175-.043.35-.16.481-.267.26-.693.26-.96 0-.97-.71-2.247-.844-3.344-.352-1.28.679-2.377 1.656-3.2 2.848-.09.172-.246.3-.432.352zM648.896 578.112c-.181.05-.375.014-.528-.096-.144-.097-.244-.248-.277-.42-.033-.17.003-.348.101-.492.957-1.405 2.25-2.548 3.76-3.328 1.583-.711 3.43-.49 4.8.576.138.11.225.271.24.447.015.175-.043.35-.16.481-.27.252-.69.252-.96 0-.975-.701-2.25-.83-3.344-.336-1.278.675-2.375 1.646-3.2 2.832-.093.166-.249.287-.432.336z"/>
        <path fill="#008EFF" d="M658.416 392.88c-31.012 7.784-63.468 7.784-94.48 0-.16-11.504-.32-57.6.576-95.344v-2.224-1.088-1.408c.672-24.928 1.84-45.28 3.856-48 4.704-6.32 28.288-16.4 34.816-20.912.544.864 3.76 5.632 8 5.984 4.608.4 8.72-4.928 8.72-4.928v-1.008c6.56 4.496 27.92 13.84 32.608 20.144 5.232 6.848 6.112 129.168 5.904 148.784z"/>
        <path fill="#0077EB" d="M574.128 279.792c-3.202 4.935-6.02 10.107-8.432 15.472l-.592 1.264c-.208.432-.32.688-.32.704-.06.125-.154.231-.272.304v-2.224-1.088c.352-.768.784-1.6 1.264-2.656 2.028-4.372 4.398-8.577 7.088-12.576.239-.318.69-.383 1.008-.144.16.09.277.241.325.419.048.177.023.366-.069.525zM634.496 251.984c-10.118-.396-19.893-3.775-28.096-9.712-3.72-2.581-7.064-5.667-9.936-9.168-.117-.15-.166-.343-.135-.53.03-.189.137-.356.295-.462.153-.115.345-.164.534-.137.189.027.36.128.474.281.144.176 13.664 17.6 36.896 18.304.194 0 .38.078.515.217.135.138.21.325.205.519-.026.394-.357.697-.752.688zM592.288 368.864c-.383.01-.703-.29-.72-.672-.013-.191.05-.38.176-.524.127-.144.305-.232.496-.244 20.56-1.312 32.816-11.52 39.488-19.84 4.306-5.347 7.563-11.46 9.6-18.016.116-.381.509-.606.896-.512.383.095.618.48.528.864-2.09 6.741-5.452 13.02-9.904 18.496-6.848 8.576-19.456 19.088-40.576 20.448h.016z"/>
        <path fill="#0077EB" d="M603.328 356.08c-.33-.003-.618-.225-.704-.544-.048-.183-.021-.377.075-.54.096-.162.254-.279.437-.324 17.856-4.8 21.312-19.344 21.344-19.504.095-.384.477-.624.864-.544.388.08.639.46.56.848-.821 3.044-2.211 5.905-4.096 8.432-4.473 6.078-10.95 10.38-18.288 12.144l-.192.032z"/>
        <path fill="#F9AF8B" d="M681.6 391.616c-.448 6.272-4.288 10.912-4.304 15.04-.016 4.128-4.8 1.424-2.64-6.72 2.16-8.144-1.088-16-2.864-16-1.776 0 .576 9.184-1.296 12.208-1.872 3.024-3.296-3.328-4.928-7.264-1.632-3.936-.752-12.528.784-18.48s-6.032-43.728-5.04-54.4l-2.736-13.808-1.6-8-.288-8.4 14.592-5.68c.56 2.704 1.12 5.504 1.68 8.32l.72 3.728c1.952 10.064 3.712 19.968 4.432 26.32 1.968 17.6-1.264 53.456-1.264 53.456s5.12 13.808 4.752 19.68z"/>
        <path fill="#FC8664" d="M673.6 292.192c-3.296 3.68-8.544 8.368-15.104 10.08l-1.6-8-.288-8.4 14.592-5.68c.56 2.704 1.12 5.504 1.68 8.32l.72 3.68z"/>
        <path fill="#008EFF" d="M677.696 284.208c-1.448 1.582-3.056 3.008-4.8 4.256-4.603 3.54-10.197 5.554-16 5.76-.8-23.296-1.984-42.992-3.728-48.768 3.136 3.728 17.936 22.08 24.528 38.752z"/>
        <path fill="#0077EB" d="M646.928 277.456c3.198 4.931 6.017 10.098 8.432 15.456l.592 1.28c.208.432.32.688.32.704.124.257.386.42.672.416v-1.088h.64l-.672-1.456c-.432-.912-1.024-2.16-1.712-3.584-2.029-4.368-4.393-8.573-7.072-12.576-.244-.32-.7-.384-1.024-.144-.16.104-.27.27-.304.458-.033.188.013.381.128.534z"/>
        <path fill="#2E3052" d="M633.728 186.432c0 12.624-8 21.328-20.8 21.328s-21.856-9.36-21.856-21.984c0-12.624 7.632-22.176 20.512-22.176 15.424 0 22.144 10.224 22.144 22.832z"/>
        <path fill="#FC8664" d="M630.832 191.872s3.584-4.672 6.24-.816-1.104 15.296-7.616 12.496l1.376-11.68z"/>
        <path fill="#FD664D" d="M630.88 200c.246.002.463-.163.528-.4.815-2.265 2.563-4.07 4.8-4.96.196-.06.341-.225.377-.427.035-.201-.046-.406-.21-.529-.164-.122-.383-.143-.567-.052-2.558 1.005-4.547 3.08-5.44 5.68-.04.14-.02.29.052.416s.191.219.332.256l.128.016z"/>
        <path fill="#FD664D" d="M634.64 198.256c.1.024.204.024.304 0 .252-.164.323-.5.16-.752-.535-.706-1.247-1.258-2.064-1.6-.278-.125-.606-.004-.736.272-.058.131-.06.28-.006.413.055.133.16.238.294.291.63.268 1.18.692 1.6 1.232.122.11.285.162.448.144z"/>
        <path fill="#FC8664" d="M593.952 191.872s-3.584-4.672-6.24-.816 1.104 15.296 7.616 12.496l-1.376-11.68z"/>
        <path fill="#FD664D" d="M593.904 200c-.246.002-.463-.163-.528-.4-.815-2.265-2.563-4.07-4.8-4.96-.278-.111-.413-.426-.304-.704.111-.278.426-.413.704-.304 2.562.999 4.552 3.077 5.44 5.68.04.14.02.29-.052.416s-.191.219-.332.256l-.128.016z"/>
        <path fill="#FD664D" d="M590.144 198.256c-.1.024-.204.024-.304 0-.252-.164-.323-.5-.16-.752.535-.706 1.247-1.258 2.064-1.6.278-.125.606-.004.736.272.058.131.06.28.006.413-.055.133-.16.238-.294.291-.626.274-1.175.697-1.6 1.232-.122.11-.285.162-.448.144z"/>
        <path fill="#F9AF8B" d="M603.584 213.248v11.344s3.456 5.792 8.128 6.176c4.672.384 8.816-4.976 8.816-4.976v-11.744l-16.944-.8z"/>
        <path fill="#FC8664" d="M603.584 213.248v5.04c3.2 3.408 8.704 4.256 16.944 3.056v-7.296l-16.944-.8z"/>
        <path fill="#F9AF8B" d="M632.752 191.504c-.172 2.512-.487 5.012-.944 7.488-1.6 8.368-5.056 16.592-12.592 19.2-17.088 5.984-23.184-8.368-25.6-16.736-.256-.928-.496-1.968-.72-3.072-.384-1.984-.688-4.208-.912-6.4-.288-2.72-.48-5.472-.592-7.888-.214-5.134 2.908-9.82 7.728-11.6 7.008-2.624 17.6-4.8 27.728.88 3.695 2.034 6.03 5.88 6.128 10.096.016 2.256-.016 5.04-.224 8.032z"/>
        <path fill="#2E3052" d="M630.624 192c-.56 1.024-3.76 10.704-4.656 12.048-2.016-4.352-11.76-1.184-11.76-1.184-.611.192-1.248.289-1.888.288-.623-.003-1.243-.095-1.84-.272 0 0-9.856-3.024-11.792 1.6-.896-1.36-3.68-10.848-4.208-12.4H592c.224 2.24.528 4.464.912 6.4.224 1.104.464 2.144.72 3.072 2.448 8.368 8.544 22.72 25.6 16.736 7.536-2.64 11.04-10.864 12.592-19.2.457-2.476.772-4.976.944-7.488l-2.144.4zm-9.168 17.6c-.67.685-1.429 1.277-2.256 1.76-4.32 2.304-4.8 1.952-6.512 2.032-2.303 0-4.566-.608-6.56-1.76-1.122-.663-2.168-1.447-3.12-2.336 0 0-1.76-5.872 9.392-4.4 11.12-1.888 9.232 3.616 9.056 4.704z"/>
        <path fill="#2E3052" d="M619.712 193.36c0 1.2.64 2.192 1.424 2.192.784 0 1.424-.992 1.424-2.192 0-1.2-.64-2.208-1.424-2.208-.784 0-1.424.992-1.424 2.208zM602.928 193.312c0 1.2.64 2.192 1.424 2.192.784 0 1.424-.992 1.424-2.192 0-1.2-.64-2.192-1.424-2.192-.784 0-1.424.976-1.424 2.192zM626.784 187.2s-5.456-2.112-9.6-.336l.416 2.288s6.16-.512 9.28.72c.28-.875.247-1.82-.096-2.672zM599.648 187.2s5.456-2.112 9.6-.336l-.416 2.288s-6.176-.512-9.28.72c-.28-.875-.247-1.82.096-2.672z"/>
        <path fill="#FC8664" d="M612.208 201.84c-.684-.026-1.359-.16-2-.4-.136-.05-.246-.153-.303-.287-.058-.133-.058-.284-.001-.417.118-.28.437-.415.72-.304.69.322 1.47.396 2.208.208.169-.109.271-.295.272-.496.033-2.761-.08-5.522-.336-8.272-.01-.298.215-.55.512-.576.144-.013.288.032.4.125.11.093.18.227.192.371.263 2.813.37 5.639.32 8.464-.025.545-.327 1.04-.8 1.312-.363.195-.772.289-1.184.272z"/>
        <path fill="#FFF" d="M619.712 205.808c-.448 2.208-1.936 6.288-6.976 6.288s-6.4-3.728-6.96-6.288h13.936z"/>
        <path fill="#2E3052" d="M592 192h2.496c-.288-2.448-.672-6.784 1.376-7.392 6.512-1.968-1.92-6.4 1.008-8.704 2.928-2.304 10.24-1.296 15.328-1.456 5.106-.227 10.222-.104 15.312.368 2 .448.912 3.696.176 6.224s2.448 5.296 2.992 7.888c.136 1.02.136 2.053 0 3.072h2.08c.256-3.2.288-6.128.24-8.512-.099-4.217-2.433-8.062-6.128-10.096-10.08-5.6-20.72-3.504-27.728-.864-4.821 1.77-7.945 6.453-7.728 11.584.064 2.384.24 5.136.576 7.888z"/>
        <path fill="#FFF" d="M226.064 468.304H99.408c2.08-12.72 12.16-21.952 23.92-21.904l39.408.112 39.408-.112c11.744 0 21.856 9.184 23.92 21.904z"/>
        <path fill="#FFF" d="M109.36 466.48H116.256V584.576H109.36zM209.2 466.48H216.09599999999998V584.576H209.2z"/>
        <path fill="#DCEDF9" d="M116.272 499.568H209.2V506.224H116.272z"/>
        <path fill="#0077EB" d="M131.728 309.328s-21.152 28.208-24 52.8c-2 17.376 24 43.344 24 43.344l8.928-4.448-8.912-20.112c-3.2-9.776-7.072-13.648-4.192-23.52l6.4-13.92-2.224-34.144zM198.4 308.896s20.8 30.08 22.608 54.784c1.488 21.296-24 41.808-24 41.808l-7.392-3.68 10.224-20.304c3.2-9.792 4.688-15.696.352-26.336l-5.488-11.68 3.696-34.592z"/>
        <path fill="#008EFF" d="M136 373.568l-14.016 44.608s60.704 7.744 79.264 2.736l-9.424-48.576 6.576-63.44c-9.075-3.869-18.723-6.225-28.56-6.976-14.4-1.04-23.424 1.328-38.096 7.408l4.256 64.24z"/>
        <path fill="#0077EB" d="M151.2 322.768c13.408-1.6 25.856-10.768 26.432-11.2.289-.26.331-.697.099-1.008-.232-.312-.664-.395-.995-.192-.144.112-14.816 10.928-28.912 11.12-.37.054-.643.37-.643.744 0 .373.274.69.643.744 1.128-.013 2.255-.082 3.376-.208z"/>
        <path fill="#F9AF8B" d="M162 561.76L163.088 571.6 173.568 571.84 174.448 563.68z"/>
        <path fill="#001030" d="M160.352 405.6s-27.2-1.488-36.304 6.032c-9.104 7.52-7.344 29.088 2.016 34.976 9.36 5.888 25.312 17.392 25.312 17.392L161.6 564.976l13.424.448s12.352-101.36 6.08-120.976-20.752-38.848-20.752-38.848z"/>
        <path fill="#2E3052" d="M176.176 560.416c.615 2.283.492 4.703-.352 6.912l-15.424-.336c-.532-2.216-.635-4.513-.304-6.768l16.08.192z"/>
        <path fill="#FFF" d="M198.736 404.8h-71.184l-6.576-38.4c-.28-1.597.163-3.235 1.211-4.472 1.048-1.236 2.592-1.943 4.213-1.928H200c1.615-.005 3.15.705 4.19 1.94 1.042 1.236 1.481 2.869 1.202 4.46l-6.656 38.4z"/>
        <path fill="#DCEDF9" d="M193.024 413.2H133.36c-3.201 0-5.8-2.59-5.808-5.792V404.8h71.264v2.56c.013 1.544-.592 3.03-1.68 4.127-1.087 1.096-2.568 1.713-4.112 1.713zM169.488 384c.006 2.507-1.5 4.771-3.815 5.734-2.315.962-4.982.433-6.755-1.34-1.773-1.773-2.302-4.44-1.34-6.755.963-2.315 3.227-3.821 5.734-3.815 3.41 0 6.176 2.765 6.176 6.176z"/>
        <path fill="#F9AF8B" d="M117.504 534.064L115.184 543.808 124.576 545.664 128.416 536.96z"/>
        <path fill="#2E3052" d="M174.144 403.936s-18.176-6.272-28.8 6.88C134.72 423.968 116.8 535.024 116.8 535.024l12.224 5.056 39.312-98.624s32 18.256 35.872-7.712c3.104-20.544-30.064-29.808-30.064-29.808z"/>
        <path fill="#524E84" d="M131.84 534.992c-.138 2.434-1.04 4.763-2.576 6.656l-15.024-5.312c.188-2.346.829-4.634 1.888-6.736l15.712 5.392z"/>
        <path fill="#008EFF" d="M122.352 542.208c-2.381-1.237-4.846-2.306-7.376-3.2-1.6-.32-15.52 9.504-19.44 9.408-7.12-.176-9.392 10.272-5.36 11.696 11.712 4.112 33.36 3.6 33.36 3.6s4.8-12.992 4.896-17.392c.096-4.4-2.976-2.16-6.08-4.112z"/>
        <path fill="#FFF" d="M109.92 551.488c.312.137.675.074.923-.16.248-.233.332-.593.213-.912-.813-1.986-2.104-3.74-3.76-5.104-1.755-1.262-4.053-1.482-6.016-.576-.199.098-.348.275-.411.487-.064.212-.037.442.075.633.232.412.747.567 1.168.352 1.383-.617 2.992-.44 4.208.464 1.404 1.176 2.502 2.675 3.2 4.368.081.189.221.346.4.448z"/>
        <path fill="#FFF" d="M112.752 549.52c.217.08.455.08.672 0 .21-.079.378-.238.469-.443.09-.205.094-.437.011-.645-.82-1.985-2.118-3.738-3.776-5.104-1.743-1.274-4.041-1.5-6-.592-.196.105-.342.284-.406.498-.063.213-.038.443.07.638.108.197.29.344.506.407.216.063.449.037.646-.071 1.394-.595 2.999-.413 4.224.48 1.397 1.176 2.494 2.668 3.2 4.352.066.201.202.371.384.48zM106.24 552.896c.217.08.455.08.672 0 .21-.079.378-.238.469-.443.09-.205.094-.437.011-.645-.82-1.985-2.118-3.738-3.776-5.104-1.743-1.274-4.041-1.5-6-.592-.196.105-.342.284-.406.498-.063.213-.038.443.07.638.23.404.74.552 1.152.336 1.394-.595 2.999-.413 4.224.48 1.397 1.176 2.494 2.668 3.2 4.352.066.201.202.371.384.48z"/>
        <path fill="#008EFF" d="M167.136 571.2c2.44-.778 4.931-1.382 7.456-1.808 1.6 0 13.008 11.504 16.72 12.064 6.704 1.008 7.104 11.2 3.072 11.872-11.664 1.92-31.92-2.16-31.92-2.16s-2.352-13.008-1.712-17.136c.64-4.128 3.152-1.504 6.384-2.832z"/>
        <path fill="#FFF" d="M177.28 581.984c-.218.047-.446.013-.64-.096-.18-.11-.308-.286-.356-.49-.048-.205-.012-.42.1-.598 1.091-1.74 2.598-3.18 4.384-4.192 1.858-.893 4.053-.716 5.744.464.169.13.277.322.302.533.024.211-.039.423-.174.587-.29.34-.794.395-1.152.128-1.201-.801-2.74-.899-4.032-.256-1.498.88-2.765 2.102-3.696 3.568-.11.174-.281.3-.48.352z"/>
        <path fill="#FFF" d="M174.944 579.664c-.218.047-.446.013-.64-.096-.184-.11-.316-.289-.364-.497-.048-.209-.01-.428.108-.607 1.098-1.73 2.604-3.163 4.384-4.176 1.858-.893 4.053-.716 5.744.464.166.132.272.325.293.536.021.211-.044.422-.181.584-.285.34-.79.39-1.136.112-1.211-.792-2.752-.884-4.048-.24-1.494.878-2.756 2.101-3.68 3.568-.11.174-.281.3-.48.352zM180.496 583.904c-.215.06-.446.032-.64-.08-.18-.112-.31-.292-.357-.499-.048-.207-.012-.425.101-.605 1.094-1.733 2.6-3.168 4.384-4.176 1.855-.901 4.052-.73 5.744.448.343.275.4.775.128 1.12-.286.347-.797.404-1.152.128-1.201-.801-2.74-.899-4.032-.256-1.498.879-2.765 2.102-3.696 3.568-.105.178-.278.306-.48.352z"/>
        <path fill="#2E3052" d="M182.976 245.696s8.624 13.376 7.68 27.312c-.944 13.936 1.28 30-11.2 29.296-12.48-.704-34.704 4.992-41.76-5.856-7.056-10.848 45.28-50.752 45.28-50.752z"/>
        <path fill="#000B29" d="M186.176 270.288s2.24 20.192-7.344 25.744-16.512-.64-16.512-.64 20.192-28.192 23.856-25.104z"/>
        <path fill="#FC8664" d="M146.384 270.192s-3.44-4.592-6-.8 1.056 15.008 7.312 12.272l-1.312-11.472z"/>
        <path fill="#FD664D" d="M146.336 278.192c-.24.008-.452-.152-.512-.384-.779-2.18-2.449-3.925-4.592-4.8-.132-.05-.239-.151-.296-.28-.057-.13-.06-.277-.008-.408.05-.132.151-.239.28-.296.13-.057.277-.06.408-.008 2.476.999 4.389 3.035 5.232 5.568.073.282-.09.571-.368.656l-.144-.048z"/>
        <path fill="#FD664D" d="M142.72 276.448c-.102.006-.203-.022-.288-.08-.242-.163-.313-.487-.16-.736.514-.694 1.197-1.245 1.984-1.6.27-.12.585.002.704.272.12.27-.002.585-.272.704-.633.246-1.186.661-1.6 1.2-.082.13-.216.217-.368.24z"/>
        <path fill="#FC8664" d="M181.824 270.192s3.44-4.592 6-.8-1.056 15.008-7.328 12.272l1.328-11.472z"/>
        <path fill="#FD664D" d="M181.872 278.192c.238.002.447-.155.512-.384.763-2.19 2.438-3.941 4.592-4.8.27-.111.403-.414.304-.688-.05-.132-.151-.239-.28-.296-.13-.057-.277-.06-.408-.008-2.476.999-4.389 3.035-5.232 5.568-.04.136-.022.282.047.405.069.123.185.214.321.251l.144-.048z"/>
        <path fill="#FD664D" d="M185.488 276.448c.102.004.203-.024.288-.08.242-.163.313-.487.16-.736-.519-.69-1.2-1.239-1.984-1.6-.13-.059-.277-.063-.41-.012-.132.051-.238.154-.294.284-.059.13-.063.277-.012.41.051.132.154.238.284.294.633.246 1.186.661 1.6 1.2.08.131.215.22.368.24z"/>
        <path fill="#F9AF8B" d="M172.576 291.2v11.2s-3.328 5.664-7.824 6.048c-4.496.384-8.48-4.88-8.48-4.88v-11.536l16.304-.832z"/>
        <path fill="#FC8664" d="M172.576 291.2v4.928c-3.024 3.36-8.368 4.544-16.304 3.376v-7.536l16.304-.768z"/>
        <path fill="#F9AF8B" d="M184.32 262.544c-.176 4.72-.662 9.424-1.456 14.08-.208 1.072-.432 2.096-.688 3.008-2.352 8.208-8.208 22.288-24.624 16.416-7.248-2.592-10.608-10.656-12.112-18.88-.855-5.03-1.225-10.131-1.104-15.232.088-4.11 2.33-7.872 5.904-9.904 9.696-5.488 19.92-3.44 26.656-.848 4.666 1.789 7.659 6.368 7.424 11.36z"/>
        <path fill="#2E3052" d="M156.88 272c0 1.184-.624 2.144-1.376 2.144-.752 0-1.376-.96-1.376-2.144 0-1.184.624-2.16 1.376-2.16.752 0 1.376.88 1.376 2.16zM173.776 272c0 1.184-.608 2.144-1.376 2.144-.768 0-1.36-.96-1.36-2.144 0-1.184.608-2.16 1.36-2.16.752 0 1.376.88 1.376 2.16zM152.8 264.752c1.9-.55 3.863-.846 5.84-.88.302-.004.59.126.787.354.197.228.284.532.237.83-.089.506-.543.864-1.056.832-2.702-.088-5.401.247-8 .992.01-.409.176-.798.464-1.088.462-.509 1.063-.87 1.728-1.04zM174.912 264.8c-1.903-.556-3.873-.853-5.856-.88-.3-.005-.588.125-.783.354-.195.23-.278.534-.225.83.074.508.529.871 1.04.832 2.702-.096 5.403.239 8 .992.008-.412-.16-.809-.464-1.088-.454-.51-1.05-.872-1.712-1.04z"/>
        <path fill="#FC8664" d="M164.288 280.672c-.4.009-.797-.085-1.152-.272-.456-.277-.744-.763-.768-1.296-.05-2.772.057-5.544.32-8.304.008-.139.072-.269.178-.36.106-.09.244-.133.382-.12.143.008.277.074.37.183.094.108.14.25.126.393-.25 2.691-.356 5.394-.32 8.096-.003.198.093.384.256.496.711.188 1.466.114 2.128-.208.274-.1.577.035.688.304.101.27-.025.57-.288.688-.613.239-1.262.374-1.92.4z"/>
        <path fill="#FFF" d="M157.568 284.016c.4 2.016 1.728 5.712 6.208 5.712s5.744-3.376 6.176-5.712h-12.384z"/>
        <path fill="#FC8664" d="M163.712 292.8c-.874-.03-1.726-.278-2.48-.72-.122-.073-.21-.192-.243-.33-.034-.14-.01-.286.067-.406.157-.238.471-.315.72-.176.588.349 1.253.547 1.936.576.714-.022 1.412-.22 2.032-.576.252-.145.574-.06.72.192.076.118.1.262.066.398-.033.136-.12.252-.242.322-.786.45-1.67.697-2.576.72z"/>
        <path fill="#2E3052" d="M186.448 261.696c-.246.511-.722.874-1.28.976.011 1.304-.053 2.607-.192 3.904-.656 7.648-2.576 8.992-3.008 7.104-.264-3.594-.312-7.2-.144-10.8-1.504-.112-2.8-.352-2.8-.352l-1.776-7.424-.624 7.328c-2.656.928-8.864-.56-8.864-.56l-2.08-7.312-1.296 7.04c-2.854 1.137-5.99 1.36-8.976.64l-1.136-7.584-2.656 7.584s-8.512 3.056-8.608 0c.445-3.618 1.233-7.186 2.352-10.656 1.137-4.187 3.927-7.733 7.728-9.824 7.986-4.206 17.502-4.337 25.6-.352 8.096 4.848 7.76 20.288 7.76 20.288z"/>
        <path fill="#2E3052" d="M147.696 246.272s-7.008 8.336-9.312 23.216c-2.304 14.88-5.504 25.904 3.472 30.816 9.712 5.328 8.88-5.6 8.736-8.56-.144-2.96-8.4-11.072-2.896-33.904 1.792-7.376 0-11.568 0-11.568z"/>
        <path fill="#000B29" d="M146.064 277.04v1.6c0 .576 0 1.264.112 2.064.336 5.024 1.312 13.68 4.176 16.688 1.681 1.303 3.745 2.017 5.872 2.032v-3.904c-2.662-1.34-4.884-3.418-6.4-5.984-1.76-3.46-2.964-7.174-3.568-11.008l-.192-1.488z"/>
        <path fill="#FFF" d="M184.448 281.904c0 .69-.559 1.248-1.248 1.248-.69 0-1.248-.559-1.248-1.248 0-.69.559-1.248 1.248-1.248.69 0 1.248.559 1.248 1.248z"/>
        <rect width="38.864" height="38.864" x="523.376" y="136.272" fill="#FFAA01" rx="4.224"/>
        <path fill="#FDCC50" d="M556.048 155.696c-.248 7.133-6.102 12.788-13.24 12.788s-12.992-5.655-13.24-12.788c.248-7.133 6.102-12.788 13.24-12.788s12.992 5.655 13.24 12.788z"/>
        <path fill="#FFF" d="M553.008 164.128c-2.51 3.047-6.252 4.812-10.2 4.812-3.948 0-7.69-1.765-10.2-4.812l.176-.352c.574-1.133 1.585-1.983 2.8-2.352 2.16-.656 4.16-1.328 5.28-3.2-1.196-.596-2.138-1.6-2.656-2.832-1.504.32-2.576-2.448-1.776-3.2.234-.229.553-.35.88-.336.158-2.92 2.571-5.207 5.496-5.207 2.925 0 5.338 2.287 5.496 5.207.327-.015.646.107.88.336.8.736-.272 3.504-1.76 3.2-.465 1.16-1.343 2.105-2.464 2.656 1.17 1.768 2.994 3 5.072 3.424.586.193 1.13.497 1.6.896.478.403.87.898 1.152 1.456l.224.304z"/>
        <rect width="38.864" height="38.864" x="18.384" y="342.944" fill="#FFAA01" rx="4.224"/>
        <path fill="#FFF" d="M38.4 349.488c-2.355-.164-4.673.657-6.4 2.268-1.726 1.611-2.705 3.867-2.704 6.228-.003 1.528.412 3.027 1.2 4.336 1.12 1.888 2.288 3.776 3.36 5.696l4.016 7.264 6.16-11.088c.352-.64.752-1.28 1.12-1.92.803-1.36 1.207-2.918 1.168-4.496-.127-4.384-3.547-7.962-7.92-8.288zm-.592 11.056c-1.977-.009-3.574-1.617-3.568-3.595.006-1.977 1.612-3.576 3.59-3.573 1.977.003 3.578 1.607 3.578 3.584 0 .953-.38 1.867-1.055 2.54-.676.673-1.592 1.048-2.545 1.044z"/>
        <path fill="#008EFF" d="M691.648 187.936c3.515 0 6.684 2.119 8.028 5.367 1.344 3.248.598 6.987-1.89 9.47-2.488 2.483-6.228 3.223-9.474 1.873-3.246-1.35-5.358-4.523-5.352-8.038.009-4.792 3.896-8.672 8.688-8.672zm0 14.64c3.296 0 5.968-2.672 5.968-5.968s-2.672-5.968-5.968-5.968-5.968 2.672-5.968 5.968 2.672 5.968 5.968 5.968z"/>
        <path fill="#FFAA01" d="M660.4 157.504c4.79 0 8.672 3.883 8.672 8.672 0 4.79-3.883 8.672-8.672 8.672-4.79 0-8.672-3.883-8.672-8.672.009-4.786 3.886-8.663 8.672-8.672zm0 14.624c3.287 0 5.952-2.665 5.952-5.952s-2.665-5.952-5.952-5.952-5.952 2.665-5.952 5.952c.009 3.284 2.668 5.943 5.952 5.952z"/>
        <path fill="#008EFF" d="M649.68 129.312c.754 0 1.367.606 1.376 1.36v6c-.009.754-.622 1.36-1.376 1.36-.751 0-1.36-.609-1.36-1.36v-6c0-.751.609-1.36 1.36-1.36zM649.68 118.8c.754 0 1.367.606 1.376 1.36v6c-.009.754-.622 1.36-1.376 1.36-.751 0-1.36-.609-1.36-1.36v-6c0-.751.609-1.36 1.36-1.36zM641.264 127.056h5.392c.751 0 1.36.609 1.36 1.36 0 .751-.609 1.36-1.36 1.36h-5.392c-.751 0-1.36-.609-1.36-1.36 0-.751.609-1.36 1.36-1.36zM652.8 127.056h5.392c.751 0 1.36.609 1.36 1.36 0 .751-.609 1.36-1.36 1.36H652.8c-.751 0-1.36-.609-1.36-1.36 0-.751.609-1.36 1.36-1.36z"/>
        <path fill="#FFAA01" d="M697.6 162.944c.751 0 1.36.609 1.36 1.36v6c0 .751-.609 1.36-1.36 1.36-.751 0-1.36-.609-1.36-1.36v-6c0-.751.609-1.36 1.36-1.36zM697.6 152.432c.751 0 1.36.609 1.36 1.36v6c0 .751-.609 1.36-1.36 1.36-.751 0-1.36-.609-1.36-1.36v-6c0-.751.609-1.36 1.36-1.36zM689.168 160.688h5.392c.751 0 1.36.609 1.36 1.36 0 .751-.609 1.36-1.36 1.36h-5.392c-.751 0-1.36-.609-1.36-1.36 0-.751.609-1.36 1.36-1.36zM700.624 160.688h5.392c.751 0 1.36.609 1.36 1.36 0 .751-.609 1.36-1.36 1.36h-5.392c-.751 0-1.36-.609-1.36-1.36 0-.751.609-1.36 1.36-1.36z"/>
        <path fill="#008EFF" d="M154.336 77.152c4.794.026 8.66 3.931 8.64 8.725-.02 4.794-3.92 8.665-8.715 8.65-4.794-.014-8.67-3.909-8.661-8.703.004-2.31.928-4.523 2.567-6.15 1.64-1.627 3.86-2.535 6.169-2.522zm0 2.72c-3.285.009-5.942 2.678-5.936 5.963.006 3.285 2.672 5.944 5.957 5.941 3.285-.003 5.947-2.667 5.947-5.952-.009-3.29-2.678-5.952-5.968-5.952z"/>
        <path fill="#FFAA01" d="M122.752 48.496c4.787.009 8.662 3.895 8.656 8.683-.006 4.787-3.89 8.664-8.677 8.661-4.788-.003-8.667-3.885-8.667-8.672 0-2.303.916-4.51 2.546-6.138 1.63-1.626 3.84-2.538 6.142-2.534zm0 2.72c-3.287 0-5.952 2.665-5.952 5.952s2.665 5.952 5.952 5.952 5.952-2.665 5.952-5.952c0-3.29-2.662-5.96-5.952-5.968v.016z"/>
        <path fill="#008EFF" d="M111.296 98.08c0 .751.609 1.36 1.36 1.36h6c.751 0 1.36-.609 1.36-1.36 0-.751-.609-1.36-1.36-1.36h-6c-.751 0-1.36.609-1.36 1.36zM100.8 98.08c0 .36.143.707.398.962s.601.398.962.398h6c.751 0 1.36-.609 1.36-1.36 0-.751-.609-1.36-1.36-1.36h-6c-.751 0-1.36.609-1.36 1.36zM109.056 89.6v5.392c0 .751.609 1.36 1.36 1.36.751 0 1.36-.609 1.36-1.36V89.6c0-.751-.609-1.36-1.36-1.36-.751 0-1.36.609-1.36 1.36zM109.056 101.12v5.392c0 .751.609 1.36 1.36 1.36.751 0 1.36-.609 1.36-1.36v-5.392c0-.751-.609-1.36-1.36-1.36-.751 0-1.36.609-1.36 1.36z"/>
        <path fill="#FFAA01" d="M174.848 51.2c0 .751.609 1.36 1.36 1.36h6.016c.751 0 1.36-.609 1.36-1.36 0-.751-.609-1.36-1.36-1.36h-6.016c-.751 0-1.36.609-1.36 1.36zM164.352 51.2c0 .751.609 1.36 1.36 1.36h6c.751 0 1.36-.609 1.36-1.36 0-.751-.609-1.36-1.36-1.36h-6c-.751 0-1.36.609-1.36 1.36zM172.608 42.784v5.392c0 .751.609 1.36 1.36 1.36.751 0 1.36-.609 1.36-1.36v-5.392c0-.751-.609-1.36-1.36-1.36-.751 0-1.36.609-1.36 1.36zM172.608 54.24v5.392c0 .751.609 1.36 1.36 1.36.751 0 1.36-.609 1.36-1.36V54.24c0-.751-.609-1.36-1.36-1.36-.751 0-1.36.609-1.36 1.36z"/>
        <path fill="#DCEDF9" d="M536.624 93.104c.19.04.386.04.576 0 2.064-.512 3.2-.72 3.2-.72.29-.04.552-.194.726-.429.175-.235.248-.53.202-.819-.136-.601-.721-.99-1.328-.88 0 0-1.28.224-3.44.752-.29.06-.541.237-.698.487-.157.25-.206.554-.134.841.135.401.479.696.896.768zM469.952 142.496c-1.072 1.824-2.112 3.728-3.072 5.632-.225.489-.75.765-1.28.672h-.208c-.268-.109-.48-.323-.585-.592-.106-.269-.097-.57.025-.832.992-1.952 2.048-3.888 3.2-5.76.154-.27.41-.468.71-.549.3-.081.62-.039.89.117.409.303.543.855.32 1.312zM464.192 153.936c-.832 1.936-1.6 3.936-2.352 5.936-.203.55-.793.856-1.36.704h-.096c-.28-.085-.513-.278-.649-.537-.135-.259-.16-.561-.071-.839.752-2.048 1.6-4.08 2.384-6.048.262-.568.92-.835 1.504-.608.271.097.492.3.613.561.12.262.13.562.027.831zM454.4 185.504c-.544-.12-.91-.63-.848-1.184.288-2.144.64-4.288 1.024-6.4.136-.6.724-.983 1.328-.864.292.035.557.189.732.425.176.236.246.533.196.823-.384 2.048-.72 4.16-1.008 6.272-.098.61-.67 1.024-1.28.928h-.144zM459.056 164.608c.288.06.538.237.69.49.152.251.192.555.11.838-.272.944-.544 1.904-.8 2.848s-.576 2.192-.848 3.296c-.157.604-.771.968-1.376.816-.58-.128-.95-.698-.832-1.28.272-1.12.56-2.256.864-3.36.304-1.104.528-1.936.816-2.896.191-.581.798-.916 1.392-.768l-.016.016zM473.376 137.04c-.287.399-.787.583-1.264.464-.113-.026-.22-.07-.32-.128-.256-.14-.441-.38-.511-.663-.07-.283-.018-.582.143-.825 1.232-1.824 2.528-3.616 3.872-5.36.387-.489 1.087-.594 1.6-.24.242.158.408.41.456.696.049.286-.024.578-.2.808-1.312 1.696-2.592 3.456-3.776 5.248zM530.752 94.928c-2.08.672-4.208 1.424-6.304 2.24-.575.223-1.225-.026-1.504-.576-.114-.269-.111-.572.007-.84.118-.266.342-.472.617-.568 2.144-.832 4.304-1.6 6.4-2.288.587-.197 1.225.098 1.456.672.096.27.079.566-.048.822-.127.257-.352.45-.624.538zM512.288 102.688c-.26.141-.564.175-.848.096-.3-.065-.56-.25-.72-.512-.145-.253-.179-.554-.094-.833.085-.279.28-.51.542-.639 2-1.04 4.048-2.048 6.112-2.976.58-.296 1.29-.076 1.6.496.128.262.143.565.04.838-.104.272-.315.49-.584.602-2.08.912-4.096 1.904-6.048 2.928zM490.512 117.568c-.29.262-.694.358-1.072.256-.207-.046-.396-.152-.544-.304-.243-.194-.385-.489-.385-.8 0-.311.142-.606.385-.8 1.6-1.472 3.408-2.896 5.168-4.272.49-.376 1.186-.314 1.6.144.222.218.334.524.306.834-.028.31-.193.59-.45.766-1.664 1.344-3.376 2.752-5.008 4.176zM500.912 109.504c-.278.198-.63.262-.96.176-.253-.057-.478-.198-.64-.4-.205-.236-.295-.55-.246-.86.05-.309.233-.58.502-.74 1.84-1.248 3.744-2.48 5.68-3.632.535-.328 1.232-.189 1.6.32.169.237.229.535.164.82-.064.283-.246.526-.5.668-1.92 1.216-3.792 2.416-5.6 3.648zM481.28 126.784c-.293.327-.74.468-1.168.368-.164-.042-.316-.118-.448-.224-.232-.17-.381-.43-.412-.717-.03-.286.061-.572.252-.787 1.456-1.6 2.992-3.296 4.56-4.8.456-.407 1.144-.407 1.6 0 .238.198.375.49.375.8 0 .31-.137.602-.375.8-1.456 1.344-2.96 2.944-4.384 4.56z"/>
        <path fill="#008EFF" d="M537.776 85.808L535.456 67.84 596.304 76.576z"/>
        <path fill="#0077EB" d="M596.304 76.576L540.096 90.384 539.936 90.416 537.12 93.648 537.776 85.808z"/>
        <path fill="#0059D3" d="M537.12 93.648L542.176 93.584 539.936 90.416z"/>
        <path fill="#008EFF" d="M547.008 88.672L539.936 90.416 551.44 106.8 596.304 76.576z"/>
    </g>
</svg>
