<svg xmlns="http://www.w3.org/2000/svg" width="850" height="634" viewBox="0 0 850 634">
    <g fill="none" fill-rule="evenodd">
        <g fill-rule="nonzero">
            <path fill="#EBEBEB" d="M0 556.665H850V557.665H0zM89.182 572.849H145.486V573.849H89.182zM290.938 568.242H385.152V569.242H290.938zM154.7 582.947H187.32299999999998V583.947H154.7zM655.282 572.628H728.705V573.628H655.282zM743.852 572.628H754.6129999999999V573.628H743.852zM471.257 578.595H550.885V579.595H471.257zM402.9 480.845H74.647c-5.354-.01-9.69-4.353-9.69-9.707V9.707c0-5.354 4.336-9.698 9.69-9.707H402.9c5.361 0 9.707 4.346 9.707 9.707v461.431c0 2.574-1.023 5.043-2.843 6.864-1.82 1.82-4.29 2.843-6.864 2.843zM74.647.425c-5.12.01-9.265 4.162-9.265 9.282v461.431c0 5.12 4.145 9.273 9.265 9.282H402.9c5.122-.01 9.273-4.16 9.282-9.282V9.707c-.01-5.122-4.16-9.273-9.282-9.282H74.647zM770.627 480.845h-328.27c-5.357-.01-9.698-4.35-9.707-9.707V9.707C432.66 4.35 437 .009 442.357 0h328.27c5.348.019 9.673 4.36 9.673 9.707v461.431c0 5.348-4.325 9.688-9.673 9.707zM442.357.425c-5.122.01-9.273 4.16-9.282 9.282v461.431c.01 5.122 4.16 9.273 9.282 9.282h328.27c5.122-.01 9.273-4.16 9.282-9.282V9.707c-.01-5.122-4.16-9.273-9.282-9.282h-328.27z"/>
            <path fill="#FAFAFA" d="M178.126 33.048H506.328V268.651H178.126z"/>
            <path fill="#FFF" d="M487.645 268.651L404.175 33.048 341.53 33.048 425 268.651zM319.192 268.651L235.722 33.048 212.874 33.048 296.344 268.651z"/>
            <path fill="#E0E0E0" d="M162.486 24.956h359.499c.798 0 1.445.647 1.445 1.445 0 .8-.644 1.453-1.445 1.462H162.486c-.804-.01-1.453-.658-1.462-1.462.01-.8.661-1.445 1.462-1.445z"/>
            <path fill="#F0F0F0" d="M340.289 32.538H344.18199999999996V269.161H340.289z"/>
            <path fill="#E0E0E0" d="M338.334 32.538H340.272V269.161H338.334z"/>
            <path fill="#F0F0F0" d="M340.272 -15.521H344.16499999999996V317.21999999999997H340.272z" transform="rotate(-90 342.219 150.85)"/>
            <path fill="#F0F0F0" d="M175.865 267.036v-236.3h332.724v240.193H175.865v-3.893zm328.848 0V34.663H179.758v232.373h324.955z"/>
            <path fill="#E0E0E0" d="M173.91 30.787H175.84799999999998V270.929H173.91z"/>
            <path fill="#EBEBEB" d="M224.111 21.386L224.111 298.078 153.867 298.078 166.753 21.386zM458.405 21.386L458.405 298.078 528.649 298.078 515.763 21.386z" opacity=".5"/>
            <path fill="#F0F0F0" d="M105.264 331.228H132.05599999999998V548.539H105.264zM110.415 548.539H405.586V556.665H110.415z"/>
            <path fill="#F5F5F5" d="M132.073 331.211H410.73699999999997V548.522H132.073z" transform="rotate(180 271.405 439.866)"/>
            <path fill="#F0F0F0" d="M101.898 324.139H129.285V331.228H101.898z"/>
            <path fill="#FAFAFA" d="M129.268 324.122H414.086V331.211H129.268z" transform="rotate(180 271.677 327.666)"/>
            <path fill="#E0E0E0" d="M401.098 453.509H141.695V346.103h259.403v107.406zm-257.601-1.802h255.799V347.905H143.497v103.802zM401.098 533.647H141.695V464.27h259.403v69.377zm-257.601-1.802h255.799v-65.773H143.497v65.773z"/>
            <rect width="189.499" height="5.763" x="176.647" y="347.004" fill="#E0E0E0" rx="2.38"/>
            <rect width="189.499" height="5.763" x="176.647" y="465.171" fill="#E0E0E0" rx="2.38"/>
            <path fill="#F0F0F0" d="M591.362 70.703H747.218V546.227H591.362z" transform="rotate(180 669.29 308.465)"/>
            <path fill="#E0E0E0" d="M586.415 70.72H591.362V546.244H586.415z"/>
            <path fill="#FAFAFA" d="M616.658 88.842H721.9390000000001V528.088H616.658z" transform="rotate(180 669.298 308.465)"/>
        </g>
        <ellipse cx="329.8" cy="19.893" fill="#F5F5F5" fill-rule="nonzero" rx="329.613" ry="19.244" transform="translate(95.2 594.3)"/>
        <g fill-rule="nonzero">
            <path fill="#B55B52" d="M142.412 527.986L155.723 522.937 147.563 490.773 134.252 495.822zM42.401 528.241L56.63 528.241 58.772 495.278 44.526 495.278z" transform="translate(101.3 71.4)"/>
            <path fill="#263238" d="M58.058 526.592H40.701c-.573-.002-1.067.406-1.173.969l-2.176 12.665c-.089.639.104 1.284.528 1.77.424.486 1.037.764 1.682.763 5.576-.102 9.639-.425 16.677-.425 4.318 0 17.391.442 23.375.442 5.984 0 6.46-5.899 3.978-6.443-11.084-2.397-19.516-5.712-23.188-8.857-.65-.569-1.483-.883-2.346-.884zM155.043 521.424L140.508 527c-.546.208-.877.764-.799 1.343l1.87 12.818c.073.637.437 1.205.986 1.538.548.332 1.22.392 1.819.162 5.202-2.091 9.639-4.726 16.269-7.106 7.571-2.464 14.855-5.736 21.726-9.758 4.93-3.145 2.856-9.078.527-8.143-10.574 4.233-13.175 5.644-24.276 3.502-1.179-.31-2.42-.287-3.587.068z" transform="translate(101.3 71.4)"/>
            <path fill="#B65B52" d="M117.49 94.418c4.471 7.922 9.197 16.082 13.957 23.97 4.76 7.888 9.639 15.759 14.824 23.12 1.241 1.853 2.635 3.638 3.893 5.355.284.496.659.935 1.105 1.292.796.408 1.703.545 2.584.391 1.626-.15 3.222-.529 4.743-1.122 3.85-1.528 7.531-3.454 10.982-5.746 1.836-1.207 3.706-2.448 5.525-3.774 1.819-1.326 3.655-2.754 5.321-4.046l7.973 7.106c-1.454 2.107-3.015 4.138-4.675 6.086-1.615 1.921-3.315 3.825-5.1 5.627-1.84 1.853-3.786 3.596-5.831 5.219-2.135 1.737-4.41 3.295-6.8 4.658-2.706 1.559-5.611 2.743-8.636 3.519-3.766.953-7.71.953-11.475 0-4.064-1.139-7.71-3.437-10.489-6.613-1.7-1.989-3.4-3.825-4.93-5.78-6.15-7.613-11.876-15.558-17.153-23.8-5.27-8.194-10.2-16.405-14.722-25.143l18.904-10.319z" transform="translate(101.3 71.4)"/>
            <path fill="#407BFF" d="M92.228 95.064c-3.825 13.073 23.188 48.671 23.188 48.671l27.2-17.544c-5.116-11.313-11.431-22.045-18.836-32.011-11.152-14.28-27.336-13.447-31.552.884z" transform="translate(101.3 71.4)"/>
            <path fill="#407BFF" d="M92.228 95.064c-3.825 13.073 23.188 48.671 23.188 48.671l27.2-17.544c-5.116-11.313-11.431-22.045-18.836-32.011-11.152-14.28-27.336-13.447-31.552.884z" opacity=".2" transform="translate(101.3 71.4)"/>
            <path fill="#000" d="M108.837 110.398c5.61 2.397 13.855 15.895 18.156 25.891l-11.577 7.429c-6.456-8.624-12.263-17.716-17.374-27.2 3.655-4.046 7.837-7.378 10.795-6.12z" opacity=".2" transform="translate(101.3 71.4)"/>
            <path fill="#B55B52" d="M178.741 138.295l4.998-13.974 14.161 6.8s-2.941 12.461-13.311 12.444l-5.848-5.27z" transform="translate(101.3 71.4)"/>
            <path fill="#B55B52" d="M196.336 115.107L202.337 121.737 197.9 131.087 183.739 124.321z" transform="translate(101.3 71.4)"/>
            <path fill="#000" d="M147.563 490.773L151.762 507.365 138.451 512.414 134.252 495.839zM44.526 495.295L58.772 495.295 57.667 512.278 43.421 512.278z" opacity=".2" transform="translate(101.3 71.4)"/>
            <path fill="#407BFF" d="M28.784 89.301c15.3 54.077 12.818 111.452 13.77 123.097 11.169-.391 53.193-1.972 76.092-2.839 12.937-80.614-10.2-125.477-10.2-125.477s-4.879-.952-11.526-1.7c-2.074-.204-4.318-.391-6.664-.51-1.292 0-2.601-.119-3.927-.153-10.803.185-21.588.986-32.3 2.397-2.023.255-4.08.561-6.086.884-2.006.323-3.655.663-5.372 1.003-7.871 1.615-13.787 3.298-13.787 3.298z" transform="translate(101.3 71.4)"/>
            <path fill="#407BFF" d="M28.784 89.301c15.3 54.077 12.818 111.452 13.77 123.097 11.169-.391 53.193-1.972 76.092-2.839 12.937-80.614-10.2-125.477-10.2-125.477s-4.879-.952-11.526-1.7c-2.074-.204-4.318-.391-6.664-.51-1.292 0-2.601-.119-3.927-.153-10.803.185-21.588.986-32.3 2.397-2.023.255-4.08.561-6.086.884-2.006.323-3.655.663-5.372 1.003-7.871 1.615-13.787 3.298-13.787 3.298z" transform="translate(101.3 71.4)"/>
            <path fill="#000" d="M44.985 112.489c1.36 5.236-.204 29.104-5.661 35.003-.748-7.65-1.7-15.623-3.06-23.8l8.721-11.203z" opacity=".2" transform="translate(101.3 71.4)"/>
            <path fill="#B55B52" d="M54.454 47.6c2.805 10.2 6.256 29.121-.493 36.584 6.069 5.202 13.923 11.135 26.282 10.642 12.359-.493 9.588-8.806 6.001-13.039-11.798-1.904-12.138-10.523-10.71-18.7L54.454 47.6z" transform="translate(101.3 71.4)"/>
            <path fill="#407BFF" d="M80.566 93.075L82.81 94.588 74.616 96.968 76.724 93.177zM83.66 92.276L82.81 94.588 91.038 96.968 90.477 92.565z" transform="translate(101.3 71.4)"/>
            <path fill="#FFF" d="M49.048 83.402l3.23-1.7c1.055-.53 2.319-.419 3.264.289 7.467 5.438 16.011 9.217 25.058 11.084-6.494 3.094-4.896 11.424-4.896 11.424s-20.655-6.8-27.2-19.142c-.374-.692-.134-1.556.544-1.955zM89.848 81.26l-4.743-.714c-.25-.04-.5.074-.634.29-.134.215-.125.49.022.696 1.7 2.346 4.42 7.548-.833 10.744 6.494 3.094 8.5 10.693 8.5 10.693s8.5-9.129-1.394-21.182c-.232-.282-.558-.47-.918-.527z" transform="translate(101.3 71.4)"/>
            <path fill="#000" d="M63.039 53.907L75.5 63.036c-.361 1.917-.549 3.863-.561 5.814-4.471-.323-10.914-4.726-11.73-9.316-.393-1.85-.45-3.756-.17-5.627z" opacity=".2" transform="translate(101.3 71.4)"/>
            <path fill="#263238" d="M90.579 26.622c-.578 4.93-5.321 9.197-8.381 10.2L78.373 15.3c8.585-5.984 13.005 4.369 12.206 11.322z" transform="translate(101.3 71.4)"/>
            <path fill="#B55B52" d="M50.153 32.555c2.482 13.906 3.213 22.1 11.118 28.543 11.9 9.588 28.441 1.19 30.175-13.175 1.564-12.937-2.754-33.507-17.102-37.502-6.426-1.818-13.335-.181-18.263 4.327-4.927 4.508-7.17 11.245-5.928 17.807z" transform="translate(101.3 71.4)"/>
            <path fill="#263238" d="M52.805 41.939c6.443 3.4 9.265-4.284 9.333-7.395 0-4.964-2.074-10.421-4.641-12.41 12.444-.085 37.06-.629 30.838-12.478-6.222-11.849-18.7-10.489-27.999-4.012-4.947 3.4-20.961.442-17 9.69-8.347 4.437-1.105 20.978 9.469 26.605z" transform="translate(101.3 71.4)"/>
            <path fill="#263238" d="M44.696 14.569c-2.219-.011-4.373-.745-6.137-2.091.588 2.56 2.815 4.412 5.44 4.522l.697-2.431z" transform="translate(101.3 71.4)"/>
            <path fill="#B55B52" d="M44.9 43.996c1.601 3.173 4.395 5.581 7.769 6.698 4.488 1.445 5.508-2.652 4.42-6.987-.986-3.893-3.094-9.197-7.667-8.755-4.573.442-6.426 5.134-4.522 9.044z" transform="translate(101.3 71.4)"/>
            <path fill="#263238" d="M135.221 360.06c-5.78-43.061-16.575-150.501-16.575-150.501l-49.946 1.87s23.596 107.372 32.13 150.909c8.534 43.537 32.3 148.597 32.3 148.597l22.542-8.5s-14.416-97.614-20.451-142.375z" transform="translate(101.3 71.4)"/>
            <path fill="#000" d="M87.4 240.38c-4.113.982-7.931 2.935-11.135 5.695 4.726 21.709 10.897 50.286 16.201 75.463 3.536-21.811 3.638-62.985-5.066-81.158z" opacity=".2" transform="translate(101.3 71.4)"/>
            <path fill="#263238" d="M91.667 210.579S81.042 327.114 76.18 368.543c-5.321 45.373-11.9 140.454-11.9 140.454H38.1s-1.071-84.099 2.312-128.503c3.893-50.592 2.159-167.994 2.159-167.994l49.096-1.921z" transform="translate(101.3 71.4)"/>
            <path fill="#407BFF" d="M67.68 509.558L36.978 509.558 36.332 500.378 70.604 499.783zM158.613 501.84L131.753 512.023 128.472 503.353 158.324 491.504z" transform="translate(101.3 71.4)"/>
            <path fill="#263238" d="M71.862 34c.119 1.139.833 2.006 1.581 1.904.748-.102 1.241-1.071 1.105-2.21-.136-1.139-.833-2.006-1.581-1.904-.748.102-1.241 1.088-1.105 2.21zM84.748 32.538c.136 1.139.85 1.989 1.581 1.904.731-.085 1.258-1.071 1.122-2.227-.136-1.156-.85-1.989-1.598-1.904-.748.085-1.241 1.088-1.105 2.227z" transform="translate(101.3 71.4)"/>
            <path fill="#A02724" d="M80.719 33.575c1.762 3.327 3.97 6.398 6.562 9.129-1.437 1.323-3.384 1.945-5.321 1.7l-1.241-10.829z" transform="translate(101.3 71.4)"/>
            <path fill="#263238" d="M77.506 47.957c-2.61-.006-5.1-1.089-6.885-2.992-.067-.061-.105-.148-.105-.238s.038-.177.105-.238c.132-.13.344-.13.476 0 2.012 2.109 4.916 3.121 7.803 2.72.188 0 .34.152.34.34 0 .188-.152.34-.34.34-.463.051-.928.074-1.394.068zM67.408 30.311c-.112.025-.228.025-.34 0-.156-.092-.269-.242-.314-.418-.044-.176-.017-.362.076-.517 1.045-1.896 2.948-3.165 5.1-3.4.265-.042.53.076.677.3.147.226.147.517 0 .742-.146.225-.412.343-.677.301-1.711.206-3.218 1.225-4.046 2.737-.117.147-.289.24-.476.255zM89.797 27.455c-.228.004-.441-.112-.561-.306-.885-1.475-2.419-2.44-4.131-2.601-.179 0-.35-.072-.475-.2s-.193-.301-.188-.48c.01-.369.311-.663.68-.663 2.17.152 4.13 1.35 5.253 3.213.2.315.109.732-.204.935-.114.065-.243.1-.374.102z" transform="translate(101.3 71.4)"/>
            <path fill="#407BFF" d="M62.886 529.091c-1.269-.029-2.53-.205-3.757-.527-.134-.028-.236-.136-.255-.272-.03-.13.025-.266.136-.34.493-.323 4.947-3.145 6.562-2.329.365.182.605.545.629.952.119.66-.113 1.336-.612 1.785-.788.552-1.744.81-2.703.731zm-2.788-.986c2.431.476 4.284.391 5.1-.272.336-.305.49-.761.408-1.207-.002-.169-.092-.324-.238-.408-.901-.408-3.468.782-5.27 1.887z" transform="translate(101.3 71.4)"/>
            <path fill="#407BFF" d="M59.214 528.581c-.061.015-.126.015-.187 0-.104-.068-.168-.182-.17-.306 0-.187.153-4.284 1.7-5.644.381-.349.9-.505 1.411-.425.531.007.991.37 1.122.884.374 1.581-2.312 4.709-3.757 5.508l-.119-.017zm2.584-5.763c-.277-.004-.545.1-.748.289-.937 1.297-1.448 2.854-1.462 4.454 1.411-1.105 3.094-3.4 2.873-4.403 0-.085 0-.289-.51-.34h-.153zM157.1 522.767c-.129.019-.254-.051-.306-.17-.078-.119-.078-.272 0-.391.493-.527 4.811-5.27 6.8-4.998.375.055.696.299.85.646.267.535.267 1.165 0 1.7-.969 1.836-4.981 2.754-7.293 3.145l-.051.068zm6.273-4.896c-1.139 0-3.621 2.244-5.355 4.046 3.128-.612 5.27-1.581 5.814-2.618.188-.363.188-.793 0-1.156-.054-.137-.177-.235-.323-.255l-.136-.017z" transform="translate(101.3 71.4)"/>
            <path fill="#407BFF" d="M157.1 522.767h-.102c-.116-.032-.206-.122-.238-.238 0-.153-1.037-3.876.119-5.916.334-.593.891-1.027 1.547-1.207.901-.238 1.309.102 1.513.442.816 1.411-1.275 5.491-2.618 6.8-.055.068-.134.11-.221.119zm1.853-6.8c-.118-.021-.239-.021-.357 0-.486.116-.896.439-1.122.884-.563 1.532-.634 3.202-.204 4.777 1.258-1.615 2.567-4.692 2.074-5.542-.068.051-.153-.085-.442-.085l.051-.034z" transform="translate(101.3 71.4)"/>
            <path fill="#B65B52" d="M44.424 109.412c-4.267 8.806-8.619 17.884-12.835 26.826-2.091 4.505-4.199 8.976-6.171 13.481l-2.958 6.8-1.36 3.281-.34.85-.255.629c-.17.391-.289.799-.442 1.207-1.055 3.343-1.242 6.9-.544 10.336.831 4.002 2.343 7.832 4.471 11.322 2.344 3.897 5.054 7.563 8.092 10.948 1.547 1.7 3.179 3.502 4.879 5.1.85.839 1.717 1.655 2.601 2.448.833.782 1.802 1.7 2.55 2.295l-5.712 9.163c-2.453-1.255-4.831-2.652-7.123-4.182-2.267-1.473-4.471-3.06-6.613-4.76-4.412-3.494-8.406-7.488-11.9-11.9-3.807-4.737-6.717-10.13-8.585-15.912-1.988-6.377-2.275-13.164-.833-19.686.221-.816.391-1.7.646-2.431l.663-2.108 1.19-3.74c.85-2.465 1.7-4.964 2.584-7.378 1.785-4.896 3.655-9.707 5.678-14.467 3.961-9.571 8.262-18.7 13.124-28.05l19.193 9.928z" transform="translate(101.3 71.4)"/>
            <path fill="#407BFF" d="M28.784 89.301c-12.988 4.063-25.755 48.11-25.755 48.11L33 150.552s9.724-21.267 15.3-37.961c6.171-18.156-3.791-28.22-19.516-23.29z" transform="translate(101.3 71.4)"/>
            <path fill="#407BFF" d="M28.784 89.301c-12.988 4.063-25.755 48.11-25.755 48.11L33 150.552s9.724-21.267 15.3-37.961c6.171-18.156-3.791-28.22-19.516-23.29z" opacity=".2" transform="translate(101.3 71.4)"/>
            <path fill="#B55B52" d="M38.882 202.3l12.427 7.395-12.087 12.036s-10.489-8.075-7.361-14.416l7.021-5.015z" transform="translate(101.3 71.4)"/>
            <path fill="#B55B52" d="M59.622 221.408L47.144 230.146 39.222 221.663 51.309 209.627z" transform="translate(101.3 71.4)"/>
        </g>
        <g>
            <path fill="#407BFF" fill-rule="nonzero" d="M483.972 120.765H492.183V122.465H483.972z" transform="translate(274.7 153) rotate(-85.86 488.078 121.615)"/>
            <path fill="#407BFF" fill-rule="nonzero" d="M477.829 97.537H501.646V99.23700000000001H477.829z" transform="translate(274.7 153) rotate(-85.86 489.738 98.387)"/>
            <path fill="#407BFF" fill-rule="nonzero" d="M443.244 353.601H26.863c-6.013.069-11.776-2.404-15.868-6.81-4.093-4.407-6.134-10.336-5.62-16.328l22.1-307.36C28.617 10.219 39.278.262 52.21-.001h416.381c6.013-.069 11.776 2.404 15.868 6.81 4.093 4.407 6.134 10.336 5.62 16.328l-22.1 307.36c-1.142 12.884-11.803 22.841-24.735 23.104z" transform="translate(274.7 153)"/>
            <path fill="#407BFF" fill-rule="nonzero" d="M346.395 461.193L211.228 461.193 187.139 294.168 322.306 294.168z" transform="translate(274.7 153)"/>
            <path fill="#407BFF" fill-rule="nonzero" d="M324.924 451.231L178.724 451.231 175.817 461.193 322.034 461.193z" transform="translate(274.7 153)"/>
            <path fill="#263238" fill-rule="nonzero" d="M329.429 374.578L197.696 367.37 187.139 294.168 317.835 294.168z" transform="translate(274.7 153)"/>
            <path fill="#263238" fill-rule="nonzero" d="M438.552 353.601H22.154c-6.006.064-11.76-2.41-15.845-6.812C2.224 342.387.187 336.464.7 330.48L22.8 23.12C23.933 10.242 34.576.28 47.501-.001h416.398c6.009-.069 11.767 2.402 15.856 6.805 4.09 4.404 6.129 10.329 5.615 16.316l-22.1 307.36c-1.126 12.888-11.783 22.857-24.718 23.121z" transform="translate(274.7 153)"/>
            <path fill="#FFF" fill-rule="nonzero" d="M390.389 113.487H567.155V115.119H390.389z" transform="translate(274.7 153) rotate(-85.9 478.772 114.303)"/>
            <path fill="#FFF" fill-rule="nonzero" d="M438.634 247.527H499.851V249.159H438.634z" transform="translate(274.7 153) rotate(-85.9 469.243 248.343)"/>
            <path fill="#FFF" fill-rule="nonzero" d="M437.6 347.855H23.854c-4.688.056-9.181-1.875-12.366-5.316-3.185-3.44-4.764-8.07-4.345-12.739l21.947-306c.87-10.058 9.2-17.831 19.295-18.004h413.814c4.679-.055 9.163 1.87 12.346 5.299 3.183 3.429 4.768 8.044 4.365 12.705l-21.947 306c-.848 10.104-9.225 17.915-19.363 18.055z" transform="translate(274.7 153)"/>
            <path fill="#407BFF" fill-rule="nonzero" d="M437.6 347.855H23.854c-4.688.056-9.181-1.875-12.366-5.316-3.185-3.44-4.764-8.07-4.345-12.739l21.947-306c.87-10.058 9.2-17.831 19.295-18.004h413.814c4.679-.055 9.163 1.87 12.346 5.299 3.183 3.429 4.768 8.044 4.365 12.705l-21.947 306c-.848 10.104-9.225 17.915-19.363 18.055z" opacity=".2" transform="translate(274.7 153)"/>
            <path fill="#FFF" fill-rule="nonzero" d="M130.002 334.289H33.374c-2.26.032-4.429-.895-5.968-2.55-1.539-1.656-2.304-3.886-2.107-6.138l21.318-297.5c.418-4.866 4.45-8.626 9.333-8.705h96.628c2.264-.032 4.435.896 5.975 2.556 1.54 1.66 2.303 3.894 2.1 6.149l-21.318 297.5c-.426 4.859-4.456 8.61-9.333 8.688z" opacity=".5" transform="translate(274.7 153)"/>
            <path fill="#407BFF" fill-rule="nonzero" d="M126.262 61.2H76.248c-2.036.022-3.987-.817-5.372-2.309-1.385-1.492-2.077-3.5-1.904-5.528l.544-7.667c.382-4.376 4.006-7.758 8.398-7.837h50.031c2.036-.022 3.987.817 5.372 2.309 1.385 1.492 2.077 3.5 1.904 5.528l-.561 7.667c-.344 4.395-3.99 7.798-8.398 7.837z" opacity=".4" transform="translate(274.7 153)"/>
            <path fill="#407BFF" fill-rule="nonzero" d="M94.455 181.646H18.108c-3.54.039-6.933-1.413-9.35-4-2.415-2.587-3.631-6.072-3.349-9.601L10.9 91.613c.701-7.607 7.016-13.467 14.654-13.6h76.364c3.537-.035 6.926 1.418 9.338 4.005 2.412 2.587 3.626 6.07 3.344 9.595l-5.474 76.347c-.653 7.65-6.993 13.565-14.671 13.686z" transform="translate(274.7 153)"/>
            <path fill="#FFF" fill-rule="nonzero" d="M105.403 119c-2.913.058-5.316 2.3-5.576 5.202l-.799 11.101c-.115 1.35.345 2.685 1.268 3.676.924.99 2.223 1.545 3.577 1.526h7.752c.725-.007 1.324-.569 1.377-1.292l1.36-18.921c.029-.336-.086-.668-.316-.915-.23-.246-.554-.383-.891-.377h-7.752zM75.942 97.359H27.9c-.542.012-1.063-.208-1.433-.604-.37-.396-.554-.93-.505-1.47.096-1.172 1.069-2.077 2.244-2.091h48.127c.543-.007 1.064.217 1.433.615.37.399.553.935.505 1.476-.107 1.198-1.127 2.106-2.329 2.074zM75.194 108.001H27.05c-.543.007-1.064-.217-1.433-.615-.37-.399-.553-.935-.505-1.476.104-1.168 1.072-2.07 2.244-2.091H75.5c.543-.007 1.064.217 1.433.615.37.399.553.935.505 1.476-.096 1.172-1.069 2.077-2.244 2.091zM57.786 118.626H26.285c-.54.006-1.058-.215-1.427-.61-.368-.394-.554-.926-.511-1.464.096-1.172 1.069-2.077 2.244-2.091h31.501c.543-.007 1.064.217 1.433.615.37.399.553.935.505 1.476-.105 1.165-1.074 2.061-2.244 2.074z" transform="translate(274.7 153)"/>
            <path fill="#FFF" fill-rule="nonzero" d="M76.078 169.303H29.6c-2.324.028-4.55-.928-6.131-2.631-1.58-1.704-2.367-3.996-2.165-6.311l1.7-24.463c.426-4.993 4.56-8.856 9.571-8.942h46.563c2.324-.028 4.55.928 6.131 2.631 1.58 1.704 2.367 3.996 2.165 6.311l-1.7 24.463c-.437 5.022-4.616 8.891-9.656 8.942z" opacity=".5" transform="translate(274.7 153)"/>
            <path fill="#407BFF" fill-rule="nonzero" d="M119.547 210.239H61.611c-1.007.008-1.97-.407-2.656-1.144-.685-.737-1.03-1.729-.948-2.732.191-2.168 1.99-3.84 4.165-3.876h57.936c1.005-.008 1.968.407 2.65 1.145.683.738 1.023 1.73.937 2.731-.19 2.161-1.979 3.832-4.148 3.876z" opacity=".4" transform="translate(274.7 153)"/>
            <path fill="#FFF" fill-rule="nonzero" d="M107.8 225.437H71.114c-1.007.018-1.974-.392-2.66-1.127-.688-.736-1.03-1.729-.944-2.732.183-2.165 1.975-3.84 4.148-3.876h36.771c1.007-.014 1.972.4 2.656 1.14.684.739 1.023 1.733.931 2.736-.186 2.188-2.02 3.867-4.216 3.859z" opacity=".8" transform="translate(274.7 153)"/>
            <path fill="#407BFF" fill-rule="nonzero" d="M116.538 252.212H58.602c-1.007.008-1.97-.407-2.656-1.144-.685-.737-1.03-1.729-.948-2.732.184-2.172 1.986-3.849 4.165-3.876h57.936c1.007-.014 1.972.4 2.656 1.14.684.739 1.023 1.733.931 2.736-.183 2.165-1.975 3.84-4.148 3.876z" opacity=".4" transform="translate(274.7 153)"/>
            <path fill="#FFF" fill-rule="nonzero" d="M104.859 267.41H68.105c-1.008.013-1.975-.4-2.662-1.139-.686-.738-1.029-1.732-.942-2.737.19-2.161 1.979-3.832 4.148-3.876h36.771c1.007-.008 1.97.407 2.656 1.144.685.737 1.03 1.729.948 2.732-.184 2.171-1.986 3.849-4.165 3.876z" opacity=".8" transform="translate(274.7 153)"/>
            <path fill="#407BFF" fill-rule="nonzero" d="M113.529 294.1H55.593c-1.008.013-1.975-.4-2.662-1.139-.686-.738-1.029-1.732-.942-2.737.191-2.168 1.99-3.84 4.165-3.876h57.936c1.005-.008 1.968.407 2.65 1.145.683.738 1.023 1.73.937 2.731-.175 2.169-1.972 3.848-4.148 3.876z" opacity=".4" transform="translate(274.7 153)"/>
            <path fill="#FFF" fill-rule="nonzero" d="M101.85 309.4H65.096c-1.008.013-1.975-.4-2.662-1.139-.686-.738-1.029-1.732-.942-2.737.19-2.161 1.979-3.832 4.148-3.876h36.771c1.007-.008 1.97.407 2.656 1.144.685.737 1.03 1.729.948 2.732-.191 2.168-1.99 3.84-4.165 3.876z" opacity=".8" transform="translate(274.7 153)"/>
            <path fill="#407BFF" fill-rule="nonzero" d="M442.156 247.027c2.516-3.825 8.279-2.21 7.956 2.227l-5.576 77.775c-.289 4.012-3.315 7.259-6.8 7.259H157.559c-3.4 0-5.984-3.247-5.695-7.259l3.4-46.206c.225-2.98 1.768-5.702 4.209-7.425 2.44-1.724 5.522-2.268 8.405-1.483 15.793 4.93 29.325 2.04 41.905-4.199 26.894-13.345 49.402-42.007 80.325-42.007 1.19 0 2.363 0 3.502.102 46.002 2.771 60.01 59.908 95.642 59.908 10.54 0 20.145-4.539 28.526-11.016 10.166-7.939 18.547-18.768 24.378-27.676z" opacity=".5" transform="translate(274.7 153)"/>
            <path fill="#407BFF" fill-rule="nonzero" d="M447.97 279.072l-3.4 47.957c-.289 4.012-3.315 7.259-6.8 7.259H157.559c-3.4 0-5.984-3.247-5.695-7.259l6.8-95.302c.459-6.511 9.01-9.265 12.478-3.978 8.942 13.6 22.695 31.246 38.522 39.967 5.752 3.357 12.262 5.2 18.921 5.355 22.644 0 41.905-26.86 64.906-47.26 14.093-12.512 29.597-22.61 48.144-22.61 38.709 0 44.421 62.9 76.024 71.502 6.086 1.7 13.141 1.292 21.573-1.921 2.025-.875 4.362-.621 6.152.668 1.791 1.289 2.773 3.424 2.586 5.622z" opacity=".5" transform="translate(274.7 153)"/>
            <g fill="#FFF" fill-rule="nonzero" opacity=".8">
                <path d="M296.347 5.491c-.152-.005-.297-.066-.408-.17-.055-.051-.096-.116-.119-.187-.016-.073-.016-.148 0-.221-.002-.154.06-.301.17-.408.226-.225.59-.225.816 0 .114.105.176.254.17.408.008.073.008.148 0 .221-.035.069-.081.132-.136.187-.13.13-.311.192-.493.17zM23.888 45.322c-.32 0-.578-.259-.578-.578.01-.313.265-.561.578-.561.32 0 .578.259.578.578 0 .322-.256.586-.578.595v-.034zm-5.831-.323c-.155-.008-.3-.08-.4-.2-.1-.12-.146-.275-.127-.429.017-.154.095-.294.216-.39.122-.096.277-.14.43-.12.313.036.54.315.51.629-.034.295-.28.52-.578.527l-.051-.017zm10.999-.51c-.02-.153.024-.308.12-.43.096-.121.236-.199.39-.216.153-.02.308.024.43.12.121.096.199.236.216.39.02.153-.024.308-.12.43-.096.121-.236.199-.39.216-.153.02-.308-.024-.43-.12-.121-.096-.199-.236-.216-.39zm-16.745-.374c-.312-.076-.513-.38-.459-.697.076-.312.38-.513.697-.459.312.076.513.38.459.697-.063.268-.302.458-.578.459h-.119zm22.423-.578c-.041-.151-.019-.313.061-.447.08-.135.212-.231.364-.267.308-.065.614.121.697.425.075.314-.113.63-.425.714h-.136c-.276.025-.529-.156-.595-.425h.034zm185.929.238c-.32 0-.578-.259-.578-.578 0-.32.259-.578.578-.578.32 0 .578.259.578.578 0 .32-.259.578-.578.578zm5.185-.816c-.02-.152.025-.305.12-.423.097-.119.238-.193.39-.206.154-.024.312.017.434.114.123.097.2.24.212.396.03.323-.205.61-.527.646-.317.02-.593-.212-.629-.527zm-10.999.459c-.153-.017-.292-.095-.385-.217-.093-.122-.132-.277-.108-.429.017-.154.095-.294.216-.39.122-.096.277-.14.43-.12.316.044.54.329.51.646-.034.295-.28.52-.578.527l-.085-.017zM6.667 42.721c-.15-.04-.276-.138-.353-.272-.077-.134-.097-.293-.055-.442.098-.307.418-.486.731-.408.307.098.48.422.391.731-.07.25-.302.418-.561.408h-.153v-.017zm224.893-.561c-.035-.152-.005-.31.082-.44.087-.129.223-.216.377-.24.151-.03.308.002.436.088.127.086.215.22.244.371.03.151-.002.308-.088.436-.086.127-.22.215-.371.244h-.102c-.276 0-.515-.19-.578-.459zm-22.423.204c-.154-.027-.289-.12-.37-.253-.081-.133-.101-.295-.055-.444.075-.31.387-.5.697-.425.31.075.5.387.425.697-.063.26-.294.442-.561.442h-.136v-.017zm-168.895-.476c-.06-.144-.057-.306.007-.448.065-.142.185-.25.333-.3.296-.116.63.028.748.323.055.144.05.304-.014.445-.064.14-.181.25-.326.303-.067.015-.137.015-.204 0-.228.006-.44-.12-.544-.323zm196.945-1.003c-.047-.151-.03-.315.047-.453s.208-.239.361-.278c.149-.042.308-.022.442.055s.232.204.272.353c.042.149.022.308-.055.442s-.204.232-.353.272h-.153c-.252.006-.48-.152-.561-.391zm-33.626-.204c-.3-.105-.459-.43-.357-.731.112-.302.443-.46.748-.357.302.112.46.443.357.748-.092.229-.315.378-.561.374-.064.007-.13-.005-.187-.034zm-158.1-1.088c-.07-.137-.084-.297-.036-.444.048-.147.153-.269.291-.338.291-.135.637-.015.782.272.07.135.083.292.035.437-.048.144-.153.262-.29.328-.089.026-.183.026-.272 0-.179-.012-.342-.106-.442-.255h-.068zm197.2-.408c-.054-.142-.049-.3.015-.438.064-.137.181-.243.325-.293.3-.092.62.064.731.357.103.305-.055.636-.357.748h-.187c-.216-.025-.4-.17-.476-.374h-.051zm-44.523-.714c-.14-.063-.249-.18-.303-.323-.054-.143-.05-.302.014-.442.138-.284.474-.41.765-.289.144.063.257.182.311.33.055.147.047.31-.022.452-.097.204-.301.336-.527.34-.067-.006-.132-.03-.187-.068h-.051zm49.912-1.326c-.06-.142-.06-.302 0-.443.062-.142.178-.252.323-.305.139-.067.3-.072.442-.013.143.058.254.174.306.319.062.142.065.303.007.447-.057.143-.17.258-.313.318-.073.016-.148.016-.221 0-.21-.013-.397-.136-.493-.323h-.051zm-197.54-.34c-.172-.277-.089-.641.187-.816.13-.082.288-.108.438-.073.15.035.28.129.361.26.082.13.108.288.073.438-.035.15-.129.28-.26.361-.088.066-.196.102-.306.102-.18-.02-.342-.12-.442-.272h-.051zm142.443-.935c-.284-.157-.39-.512-.238-.799.163-.278.517-.376.799-.221.275.156.374.505.221.782-.103.186-.298.302-.51.306-.077-.012-.151-.035-.221-.068h-.051zm60.384-1.054c-.134-.286-.013-.627.272-.765.291-.135.637-.015.782.272.063.14.068.299.014.442-.054.144-.163.26-.303.323-.084.016-.17.016-.255 0-.188-.01-.36-.112-.459-.272h-.051zM55.304 33.609c-.182-.264-.122-.625.136-.816.26-.186.62-.133.816.119.182.264.122.625-.136.816-.1.072-.217.113-.34.119-.17-.015-.324-.102-.425-.238h-.051zm132.6-.646c-.13-.077-.223-.204-.259-.352-.035-.147-.009-.302.072-.43.07-.137.197-.237.346-.276.149-.039.307-.013.436.072.134.078.231.206.27.357.038.15.014.31-.066.442-.104.174-.29.283-.493.289-.08-.02-.155-.054-.221-.102h-.085zm70.567-.731c-.15-.282-.044-.632.238-.782.283-.14.626-.036.782.238.152.287.046.642-.238.799-.09.016-.182.016-.272 0-.162 0-.316-.068-.425-.187l-.085-.068zM59.894 30.124c-.097-.12-.143-.272-.127-.426.016-.153.092-.293.212-.39.251-.194.61-.156.816.085.218.235.218.598 0 .833-.108.08-.24.121-.374.119-.176.007-.343-.076-.442-.221h-.085zm123.114-.255c-.267-.174-.343-.531-.17-.799.18-.27.543-.345.816-.17.26.18.334.53.17.799-.106.17-.293.273-.493.272-.085-.019-.166-.053-.238-.102h-.085zm80.512-.425c-.08-.133-.104-.292-.066-.442.039-.15.136-.28.27-.357.278-.158.63-.067.799.204.158.278.067.63-.204.799-.094.052-.199.08-.306.085-.173-.03-.323-.136-.408-.289h-.085zm-85.323-2.788c-.264-.186-.332-.547-.153-.816.19-.256.546-.322.816-.153.256.19.322.546.153.816-.112.161-.297.257-.493.255-.086-.016-.167-.05-.238-.102h-.085zm90.253-.204c-.163-.279-.08-.636.187-.816.13-.082.288-.108.438-.073.15.035.28.129.361.26.082.13.108.288.073.438-.035.15-.129.28-.26.361-.087.069-.195.105-.306.102-.168-.03-.316-.128-.408-.272h-.085zm-204 0c-.216-.23-.216-.587 0-.816.235-.218.598-.218.833 0 .225.226.225.59 0 .816-.101.094-.236.143-.374.136-.16.03-.326-.006-.459-.102v-.034zm208.93-3.196c-.182-.264-.122-.625.136-.816.128-.09.287-.125.44-.096.154.029.29.118.376.249.177.263.109.62-.153.799-.096.065-.208.1-.323.102-.182.01-.358-.065-.476-.204v-.034zm-99.875.136c-.13-.083-.22-.216-.248-.367-.029-.15.005-.307.095-.432.174-.267.531-.343.799-.17.13.086.22.222.25.376.028.153-.007.312-.097.44-.102.163-.283.26-.476.255-.112.008-.224-.015-.323-.068v-.034zm-104.618-.646c-.112-.106-.176-.254-.176-.408 0-.154.064-.302.176-.408.23-.216.587-.216.816 0 .225.226.225.59 0 .816-.103.09-.237.14-.374.136-.155.032-.317-.005-.442-.102v-.034zm99.824-2.55c-.132-.08-.225-.212-.258-.363-.032-.151 0-.309.088-.436.08-.132.212-.225.363-.258.151-.032.309 0 .436.088.267.174.343.531.17.799-.102.163-.283.26-.476.255-.11.017-.223-.001-.323-.051v-.034zm109.395-.272c-.093-.12-.133-.274-.11-.425.022-.15.105-.286.229-.374.26-.186.62-.133.816.119.182.264.122.625-.136.816-.1.067-.22.102-.34.102-.178.014-.35-.063-.459-.204v-.034zm-204.782-.867c-.225-.226-.225-.59 0-.816.251-.194.61-.156.816.085.097.12.143.272.127.426-.016.153-.092.293-.212.39-.101.094-.236.143-.374.136-.138-.016-.265-.083-.357-.187v-.034zm90.576-1.938c-.131-.08-.225-.21-.26-.36s-.009-.308.073-.439c.08-.131.21-.225.36-.26s.308-.009.439.073c.131.08.225.21.26.36s.009.308-.073.439c-.104.174-.29.283-.493.289-.11 0-.218-.036-.306-.102zm118.864-.612c-.096-.121-.139-.276-.12-.43.02-.153.1-.292.222-.386.121-.096.276-.139.43-.12.153.02.292.1.386.222.181.258.137.61-.102.816-.096.078-.216.12-.34.119-.197.018-.389-.065-.51-.221h.034zM77.88 15.521c-.186-.26-.133-.62.119-.816.26-.186.62-.133.816.119.186.26.133.62-.119.816-.1.072-.217.113-.34.119-.2.011-.39-.078-.51-.238h.034zm81.073-1.343c-.134-.078-.231-.206-.27-.357-.038-.15-.014-.31.066-.442.075-.133.2-.23.348-.268.147-.039.304-.016.434.064.136.072.236.196.278.344.042.147.021.306-.057.438-.103.186-.298.302-.51.306-.113-.002-.224-.03-.323-.085h.034zm128.316-1.275c-.097-.12-.143-.272-.127-.426.016-.153.092-.293.212-.39.226-.225.59-.225.816 0 .216.23.216.587 0 .816-.108.082-.239.129-.374.136-.198.058-.412.006-.561-.136h.034zm-204.697-.748c-.09-.128-.125-.287-.096-.44.029-.154.118-.29.249-.376.273-.175.636-.1.816.17.173.268.097.625-.17.799-.095.066-.207.102-.323.102-.202.007-.394-.089-.51-.255h.034zm71.4-.714c-.135-.072-.236-.195-.281-.342-.045-.146-.03-.305.043-.44.07-.138.19-.243.338-.29.147-.049.307-.036.444.035.276.163.386.507.255.799-.111.186-.31.302-.527.306-.129.023-.262-.001-.374-.068h.102zm137.7-2.261c-.225-.226-.225-.59 0-.816.23-.216.587-.216.816 0 .216.23.216.587 0 .816-.1.099-.234.154-.374.153-.168.019-.336-.037-.459-.153h.017zM87.4 9.078c-.079-.135-.1-.296-.058-.446.041-.15.142-.278.279-.353.277-.153.626-.054.782.221.079.135.1.296.058.446-.041.15-.142.278-.279.353-.095.022-.194.022-.289 0-.19.012-.375-.07-.493-.221zm61.285-.102c-.14-.063-.249-.18-.303-.323-.054-.143-.05-.302.014-.442.063-.14.18-.249.323-.303.143-.054.302-.05.442.014.143.06.255.175.31.32.055.145.047.306-.021.445-.094.207-.3.34-.527.34-.076-.003-.151-.02-.221-.051h-.017zM143.398 6.8c-.148-.05-.268-.158-.333-.3-.064-.142-.067-.304-.007-.448.118-.295.448-.445.748-.34.295.118.445.448.34.748-.081.23-.3.38-.544.374-.07.006-.14-.006-.204-.034zM92.5 6.409c-.122-.291.005-.627.289-.765.142-.069.305-.077.453-.022.147.054.266.167.329.311.062.142.065.303.007.447-.057.143-.17.258-.313.318-.078.018-.16.018-.238 0-.216.01-.42-.102-.527-.289zm45.441-1.377c-.307-.098-.48-.422-.391-.731.098-.307.422-.48.731-.391.307.098.48.422.391.731-.08.242-.306.406-.561.408h-.17v-.017zm-40.103-.799c-.048-.147-.036-.306.035-.443.07-.138.192-.241.339-.288.147-.048.306-.036.443.035.138.07.241.192.288.339.048.147.036.306-.035.443-.07.138-.192.241-.339.288h-.187c-.235-.006-.444-.154-.527-.374h-.017zm34.561-.612c-.308-.068-.505-.37-.442-.68.028-.154.12-.29.252-.374.132-.084.294-.109.445-.068.15.028.283.117.366.246.084.128.111.285.076.434-.057.272-.3.465-.578.459h-.119v-.017zm-29.036-.969c-.035-.154-.006-.315.08-.446.087-.132.224-.223.379-.251.31-.063.612.134.68.442.035.151.008.31-.075.441-.083.131-.215.224-.367.256h-.119c-.264-.006-.493-.186-.561-.442h-.017zm23.409 0c-.316-.052-.534-.345-.493-.663.017-.153.095-.292.217-.385.122-.093.277-.132.429-.108.316.052.534.345.493.663-.049.282-.292.49-.578.493h-.085.017zM109.058 1.7c-.03-.314.197-.593.51-.629.154-.024.312.017.434.114.123.097.2.24.212.396.03.323-.205.61-.527.646-.317.02-.593-.212-.629-.527zm12.036.374c-.155-.004-.302-.072-.405-.188-.103-.116-.153-.27-.139-.424.009-.153.078-.297.193-.4.115-.101.266-.153.419-.144.322.027.564.306.544.629-.018.306-.272.545-.578.544l-.034-.017zm-6.29-.748c-.005-.155.055-.305.164-.414.11-.11.26-.169.414-.164.32 0 .578.259.578.578 0 .32-.259.578-.578.578-.16 0-.312-.065-.421-.181-.11-.116-.166-.272-.157-.431v.034zM1.125 40.902c-.073.016-.148.016-.221 0C.829 40.885.759 40.85.7 40.8c-.059-.048-.1-.114-.119-.187-.017-.073-.017-.148 0-.221.005-.152.066-.297.17-.408.051-.055.116-.096.187-.119.14-.067.302-.067.442 0 .073.019.139.06.187.119.11.107.172.254.17.408.018.073.018.148 0 .221-.025.075-.073.14-.136.187-.05.06-.114.107-.187.136-.098.02-.199.007-.289-.034z" transform="translate(274.7 153) translate(153 255)"/>
            </g>
            <path fill="#FFF" fill-rule="nonzero" d="M247.336 121.805l-3.961-4.267c-7.153 6.766-16.606 10.57-26.452 10.642-16.126.254-30.112-11.095-33.184-26.928l-5.95 1.564-5.44 1.428c1.534 8.06 5.297 15.528 10.863 21.556 17.255 18.598 47.838 18.598 67.762 0l-3.638-3.995z" transform="translate(274.7 153)"/>
            <path fill="#263238" fill-rule="nonzero" d="M255.819 57.953L250.6 62.9l-3.587 3.4c6.391 6.952 9.584 16.26 8.806 25.67-.768 9.835-5.225 19.017-12.478 25.704l3.111 3.4 4.488 4.828c9.616-8.87 15.51-21.057 16.49-34.102 1-12.405-3.207-24.668-11.611-33.847z" transform="translate(274.7 153)"/>
            <path fill="#407BFF" fill-rule="nonzero" d="M255.819 57.953c-17.255-18.564-47.838-18.564-67.745 0-12.806 11.729-18.72 29.195-15.674 46.291l6.8-1.7 4.658-1.224c-.594-3.102-.777-6.268-.544-9.418 1.719-20.309 18.55-36.009 38.93-36.312 9.432-.103 18.474 3.758 24.922 10.642l4.59-4.301 4.063-3.978z" transform="translate(274.7 153)"/>
            <path fill="#FFF" fill-rule="nonzero" d="M304.66 121.805l4.573-4.284c-6.398-6.967-9.586-16.295-8.789-25.721 1.43-16.736 13.21-30.774 29.444-35.088l-1.156-5.848-1.037-5.338c-8.365 2.224-16.05 6.48-22.372 12.393-19.924 18.581-22.117 49.181-4.862 67.881l4.199-3.995z" transform="translate(274.7 153)"/>
            <path fill="#263238" fill-rule="nonzero" d="M368.223 125.8l-4.505-4.845-3.094-3.4c-7.15 6.774-16.603 10.583-26.452 10.659-9.437.104-18.484-3.757-24.939-10.642l-3.587 3.4-5.185 4.828c8.519 9.065 20.439 14.156 32.878 14.042 12.983-.11 25.445-5.127 34.884-14.042z" transform="translate(274.7 153)"/>
            <path fill="#407BFF" fill-rule="nonzero" d="M368.223 125.8c19.907-18.581 22.1-49.164 4.862-67.762-11.68-12.198-29.132-16.963-45.39-12.393l1.292 6.596.901 4.59c3.097-.812 6.285-1.224 9.486-1.224 9.424-.135 18.465 3.722 24.89 10.617 6.426 6.895 9.636 16.185 8.838 25.576-.772 9.83-5.229 19.004-12.478 25.687l3.978 4.301 3.621 4.012z" transform="translate(274.7 153)"/>
            <path fill="#407BFF" fill-rule="nonzero" d="M448.514 48.195c.948-.003 1.854.39 2.499 1.084.646.694.972 1.626.901 2.571l-2.108 29.308c-.205 2.145-1.977 3.8-4.131 3.859h-29.342c-.945.002-1.847-.388-2.492-1.078-.645-.69-.974-1.618-.908-2.56l2.091-29.325c.205-2.145 1.977-3.8 4.131-3.859h29.325m0-1.496h-29.291c-2.942.058-5.367 2.322-5.627 5.253l-2.091 29.325c-.115 1.357.347 2.7 1.272 3.7.925.999 2.228 1.563 3.59 1.553h29.325c2.945-.05 5.375-2.319 5.627-5.253l2.108-29.325c.115-1.36-.349-2.705-1.278-3.705s-2.236-1.562-3.601-1.548h-.034zM444.893 98.6c.948-.019 1.859.371 2.499 1.071.643.7.963 1.637.884 2.584l-2.091 29.308c-.212 2.141-1.98 3.793-4.131 3.859h-29.325c-.945.002-1.847-.388-2.492-1.078-.645-.69-.974-1.618-.908-2.56l2.108-29.325c.205-2.145 1.977-3.8 4.131-3.859h29.308m0-1.496h-29.291c-2.945.05-5.375 2.319-5.627 5.253l-2.108 29.325c-.115 1.36.349 2.705 1.278 3.705s2.236 1.562 3.601 1.548h29.325c2.942-.058 5.367-2.322 5.627-5.253l2.091-29.325c.115-1.36-.349-2.705-1.278-3.705s-2.236-1.562-3.601-1.548h-.017z" opacity=".3" transform="translate(274.7 153)"/>
            <path fill="#407BFF" fill-rule="nonzero" d="M401.9 260.916c.8-.024 1.57.299 2.115.885.544.587.808 1.38.724 2.175-.157 1.825-1.67 3.236-3.502 3.264-.8.024-1.57-.299-2.115-.885-.544-.587-.808-1.38-.724-2.175.157-1.825 1.67-3.236 3.502-3.264m0-1.513c-2.62.043-4.78 2.064-4.998 4.675-.111 1.211.298 2.413 1.125 3.304.827.892 1.994 1.39 3.21 1.371 2.62-.043 4.78-2.064 4.998-4.675.111-1.211-.298-2.413-1.125-3.304-.827-.892-1.994-1.39-3.21-1.371z" transform="translate(274.7 153)"/>
            <path fill="#407BFF" fill-rule="nonzero" d="M402.342 259.437L401.594 259.386 401.713 257.89 402.444 257.941zM402.665 254.864h-.748l.221-3.06h.748l-.221 3.06zm.442-6.137h-.748l.221-3.077h.748l-.221 3.077zm.442-6.137h-.748l.221-3.077h.748l-.221 3.077zm.442-6.137h-.748l.221-3.077h.748l-.221 3.077zm.442-6.137h-.748l.221-3.06h.748l-.221 3.06zm.442-6.154h-.748l.221-3.06h.748l-.221 3.06zm.442-6.137h-.748l.221-3.077h.748l-.221 3.077zm.442-6.137h-.748l.221-3.077h.748l-.221 3.077zm.442-6.137h-.748l.221-3.077h.748l-.221 3.077zm.425-6.137h-.748l.221-3.077h.748l-.221 3.077zm.442-6.154h-.748l.221-3.06h.748l-.221 3.06z" transform="translate(274.7 153)"/>
            <path fill="#407BFF" fill-rule="nonzero" d="M406.435 186.181H407.931V187.181H406.435z" transform="translate(274.7 153) rotate(-85.94 407.183 186.555)"/>
            <path fill="#407BFF" fill-rule="nonzero" d="M438.926 186.626H169.748c-1.49.004-2.913-.614-3.926-1.705-1.014-1.091-1.526-2.556-1.412-4.041l1.343-18.53c.262-3.144 2.864-5.577 6.018-5.627H441c1.49-.01 2.915.607 3.927 1.7s1.518 2.561 1.394 4.046l-1.326 18.53c-.271 3.159-2.898 5.595-6.069 5.627zm-267.155-28.271c-2.307.036-4.211 1.815-4.403 4.114l-1.326 18.53c-.091 1.035.261 2.06.969 2.822.703.764 1.7 1.19 2.737 1.173h269.178c2.307-.036 4.211-1.815 4.403-4.114l1.343-18.53c.08-1.032-.274-2.05-.978-2.81-.704-.758-1.693-1.188-2.728-1.185H171.771z" transform="translate(274.7 153)"/>
            <path fill="#FFF" d="M433.146 168.674h-255.17c-.654.007-1.282-.262-1.728-.74-.446-.48-.67-1.124-.618-1.776.122-1.408 1.29-2.495 2.703-2.516H433.52c.653-.007 1.279.262 1.723.741.443.48.664 1.124.606 1.775-.114 1.412-1.287 2.503-2.703 2.516zM390.629 179.316H177.211c-.655.003-1.28-.27-1.723-.753-.444-.482-.663-1.128-.606-1.78.122-1.408 1.29-2.495 2.703-2.516h213.401c.67-.027 1.318.235 1.78.72.462.485.693 1.146.634 1.813-.132 1.43-1.335 2.522-2.771 2.516z" opacity=".8" transform="translate(274.7 153)"/>
        </g>
    </g>
</svg>
