<svg xmlns="http://www.w3.org/2000/svg" width="687" height="624" viewBox="0 0 687 624">
    <g fill="none" fill-rule="evenodd">
        <g fill-rule="nonzero">
            <path fill="#E0E0E0" d="M367.155 0.03H459.73499999999996V96.54H367.155z" transform="translate(-14) translate(36.5)"/>
            <path fill="#FAFAFA" d="M360.885 0.03H453.465V96.54H360.885z" transform="translate(-14) translate(36.5)"/>
            <path fill="#E0E0E0" d="M453.495 96.57h-92.64V0h92.64v96.57zm-92.58 0h92.52V0h-92.52v96.57z" transform="translate(-14) translate(36.5)"/>
            <path fill="#FAFAFA" d="M373.32 13.005H441.015V83.565H373.32z" transform="translate(-14) translate(36.5)"/>
            <path fill="#E0E0E0" d="M373.32 84c-.476.709-1.035 1.358-1.665 1.935-1.08 1.14-2.595 2.685-4.305 4.365-1.71 1.68-3.27 3.165-4.425 4.23-.583.62-1.238 1.169-1.95 1.635.476-.709 1.035-1.358 1.665-1.935 1.08-1.14 2.595-2.7 4.305-4.38 1.71-1.68 3.285-3.18 4.5-4.23.557-.614 1.187-1.158 1.875-1.62zM441 83.865c.719.469 1.374 1.028 1.95 1.665 1.14 1.08 2.685 2.61 4.365 4.305 1.68 1.695 3.165 3.27 4.23 4.5.616.587 1.164 1.241 1.635 1.95-.711-.467-1.361-1.022-1.935-1.65-1.14-1.08-2.7-2.61-4.38-4.32-1.68-1.71-3.165-3.315-4.215-4.5-.625-.582-1.18-1.237-1.65-1.95zM440.835 13.185c.482-.704 1.04-1.353 1.665-1.935 1.095-1.14 2.61-2.685 4.305-4.365 1.695-1.68 3.27-3.165 4.425-4.23.586-.623 1.246-1.172 1.965-1.635-.49.721-1.058 1.386-1.695 1.98-1.08 1.14-2.61 2.685-4.32 4.38-1.71 1.695-3.18 3.12-4.395 4.185-.575.624-1.23 1.17-1.95 1.62zM373.14 13.365c-.709-.476-1.358-1.035-1.935-1.665-1.14-1.08-2.685-2.61-4.365-4.305-1.68-1.695-3.18-3.27-4.23-4.395-.625-.595-1.174-1.265-1.635-1.995.704.482 1.353 1.04 1.935 1.665 1.14 1.08 2.685 2.61 4.365 4.32 1.68 1.71 3.18 3.27 4.245 4.5.614.557 1.158 1.187 1.62 1.875z" transform="translate(-14) translate(36.5)"/>
            <path fill="#E0E0E0" d="M440.835 83.565c-.006-.115-.006-.23 0-.345v-.975-3.81V64.05c0-12.36-.09-30-.135-51l.255.255h-67.5l.3-.3v70.5l-.27-.255 48.885.135h17.37-17.25l-49.05.12h-.255v-.255-70.8h68.085v.27c0 21.15-.105 38.82-.135 51.21 0 6.15 0 10.995-.075 14.325v4.71c-.042.211-.118.414-.225.6z" transform="translate(-14) translate(36.5)"/>
            <path fill="#EBEBEB" d="M395.88 36.99H418.46999999999997V59.58H395.88z" transform="translate(-14) translate(36.5)"/>
            <path fill="#E0E0E0" d="M11.145 39.9H141.315V175.59H11.145z" transform="translate(-14) translate(36.5)"/>
            <path fill="#FAFAFA" d="M2.325 39.9H132.49499999999998V175.59H2.325z" transform="translate(-14) translate(36.5)"/>
            <path fill="#E0E0E0" d="M132.54 175.635H2.28V39.855h130.26v135.78zM2.37 175.5h130.08V39.945H2.37V175.5z" transform="translate(-14) translate(36.5)"/>
            <path fill="#FAFAFA" d="M19.83 58.14H115.005V157.35H19.83z" transform="translate(-14) translate(36.5)"/>
            <path fill="#E0E0E0" d="M19.83 158.01c-.68.995-1.47 1.911-2.355 2.73-1.5 1.605-3.66 3.765-6 6.135-2.34 2.37-4.605 4.5-6.225 6-.818.874-1.74 1.644-2.745 2.295.667-.997 1.453-1.908 2.34-2.715 1.5-1.605 3.66-3.78 6-6.15 2.34-2.37 4.605-4.5 6.225-6 .82-.879 1.747-1.65 2.76-2.295zM115.005 157.77c.994.676 1.91 1.46 2.73 2.34 1.605 1.5 3.765 3.66 6.12 6s4.5 4.605 6 6.225c.868.824 1.638 1.745 2.295 2.745-.998-.66-1.91-1.44-2.715-2.325-1.605-1.5-3.78-3.675-6.15-6-2.37-2.325-4.5-4.605-6-6.225-.87-.823-1.636-1.75-2.28-2.76zM114.735 58.41c.671-1.007 1.462-1.928 2.355-2.745 1.5-1.59 3.645-3.765 6-6.12s4.59-4.5 6.225-6c.82-.872 1.742-1.642 2.745-2.295-.669.995-1.454 1.907-2.34 2.715-1.5 1.605-3.66 3.78-6 6.15-2.34 2.37-4.605 4.5-6.225 6-.83.867-1.756 1.637-2.76 2.295zM19.5 58.65c-1-.674-1.916-1.465-2.73-2.355-1.605-1.5-3.765-3.66-6.135-6-2.37-2.34-4.5-4.59-6-6.225-.874-.818-1.644-1.74-2.295-2.745.992.673 1.903 1.458 2.715 2.34 1.605 1.5 3.78 3.66 6.15 6 2.37 2.34 4.5 4.605 6 6.225.879.82 1.65 1.747 2.295 2.76z" transform="translate(-14) translate(36.5)"/>
            <path fill="#E0E0E0" d="M114.735 157.35v-.48-1.395-5.355c0-4.695 0-11.535-.105-20.22 0-17.37-.105-42.12-.18-71.76l.36.36H19.83l.42-.42v99.21l-.36-.36 68.715.18 19.305.09H114.345c.15-.012.3-.012.45 0H113.1l-5.1.3H88.785l-69 .18H19.5v-.36-99.63h95.7v.375c-.09 29.73-.15 54.57-.195 72 0 8.64 0 15.45-.09 20.13v6.63c-.04.181-.101.357-.18.525z" transform="translate(-14) translate(36.5)"/>
            <path fill="#EBEBEB" d="M51.54 91.86H83.295V123.615H51.54z" transform="translate(-14) translate(36.5)"/>
            <path fill="#E0E0E0" d="M492.405 78.795H628.5V220.66500000000002H492.405z" transform="translate(-14) translate(36.5)"/>
            <path fill="#FAFAFA" d="M483.18 78.795H619.275V220.66500000000002H483.18z" transform="translate(-14) translate(36.5)"/>
            <path fill="#E0E0E0" d="M619.32 220.71H483.135V78.75H619.32v141.96zm-136.095 0h136.02V78.84h-136.02v141.87z" transform="translate(-14) translate(36.5)"/>
            <path fill="#FAFAFA" d="M501.48 97.875H600.99V201.6H501.48z" transform="translate(-14) translate(36.5)"/>
            <path fill="#E0E0E0" d="M501.48 202.29c-.712 1.038-1.537 1.994-2.46 2.85-1.59 1.68-3.825 3.945-6.33 6.42s-4.8 4.665-6.495 6.225c-.857.912-1.824 1.713-2.88 2.385.71-1.03 1.53-1.98 2.445-2.835 1.59-1.68 3.825-3.96 6.345-6.435 2.52-2.475 4.815-4.665 6.51-6.225.857-.905 1.82-1.706 2.865-2.385zM600.99 202.035c1.038.712 1.994 1.537 2.85 2.46 1.68 1.59 3.945 3.81 6.42 6.315 2.475 2.505 4.665 4.815 6.21 6.51.907.86 1.712 1.822 2.4 2.865-1.044-.686-1.997-1.503-2.835-2.43-1.68-1.59-3.96-3.84-6.435-6.345-2.475-2.505-4.665-4.815-6.225-6.51-.905-.857-1.706-1.82-2.385-2.865zM600.72 98.145c.697-1.045 1.518-2.002 2.445-2.85 1.59-1.68 3.825-3.945 6.33-6.42s4.8-4.665 6.495-6.225c.86-.908 1.827-1.71 2.88-2.385-.681 1.03-1.476 1.982-2.37 2.835-1.59 1.68-3.825 3.96-6.33 6.435-2.505 2.475-4.815 4.665-6.51 6.225-.885.906-1.871 1.706-2.94 2.385zM501.21 98.4c-1.045-.685-2.007-1.49-2.865-2.4-1.665-1.59-3.945-3.825-6.405-6.315-2.46-2.49-4.665-4.815-6.225-6.51-.908-.865-1.713-1.83-2.4-2.88 1.04.703 1.997 1.523 2.85 2.445 1.68 1.59 3.945 3.84 6.42 6.345s4.68 4.815 6.24 6.51c.902.839 1.702 1.78 2.385 2.805z" transform="translate(-14) translate(36.5)"/>
            <path fill="#E0E0E0" d="M600.72 201.6c-.012-.17-.012-.34 0-.51v-1.5-5.595c0-4.92 0-12.075-.105-21.15 0-18.165-.12-44.04-.195-75l.39.375h-99.24l.435-.435V201.51l-.375-.375 71.85.195 20.19.09h6.72-6.6l-20.1.09-72.09.195h-.375v-.375c0-30 0-65.655-.075-103.725V97.5h100.065v.39c-.075 31.08-.15 57-.195 75.285 0 9-.075 16.155-.09 21v6.93c0 .345-.21.495-.21.495z" transform="translate(-14) translate(36.5)"/>
            <path fill="#EBEBEB" d="M534.63 133.125H567.84V166.335H534.63z" transform="translate(-14) translate(36.5)"/>
            <path fill="#F5F5F5" d="M9.21 553.47L9.21 622.95 110.805 622.95 222.855 622.95 222.855 553.47z" transform="translate(-14) translate(36.5)"/>
            <path fill="#E0E0E0" d="M0.24 534.045L0.24 553.47 230.325 553.47 230.325 534.045 110.805 534.045z" transform="translate(-14) translate(36.5)"/>
            <path fill="#E0E0E0" d="M115.29 622.95L222.855 622.95 222.855 553.47 230.325 553.47 230.325 534.045 110.805 534.045 110.805 551.67zM39.09 564.675H82.42500000000001V575.13H39.09z" transform="translate(-14) translate(36.5)"/>
            <path fill="#FFF" d="M33.51 588.21H89.145V610.2900000000001H33.51z" transform="translate(-14) translate(36.5)"/>
        </g>
        <g fill-rule="nonzero">
            <path fill="#F2BFB1" d="M100.905 271.325s-3.51-15.255-17.655-14.49c-14.145.765-17.58.765-23.7 0-6.12-.765-15.57-8.115-18.255-5.82-2.685 2.295-1.17 7.26 3.795 11.685 4.965 4.425 13.5 7.425 13.5 7.425L40.5 273.23S24.225 264.5 20.4 266c-2.246 1.02-3.638 3.311-3.51 5.775 0 0-6.765-3-8.67-.375-1.905 2.625-2.385 4.5-.48 6 0 0-1.245-1.245-4.755-.21-3 .885-2.745 6.42 0 7.905l.93.54s25.605 14.76 26.4 14.865c4.5.6 32.13-.585 46.335-1.245 5.231-.245 10.19 2.346 12.975 6.78L112.5 342.38l25.86-29.775-37.455-41.28z" transform="translate(-14) translate(245 149.5)"/>
            <path fill="#AA6550" d="M54.45 279.65c-1.37.416-2.768.727-4.185.93-2.64.495-6.375 1.155-10.71 1.89H39.33l-5.775-2.64-13.815-6.405-4.17-1.98c-.529-.22-1.032-.496-1.5-.825.555.114 1.094.295 1.605.54l4.275 1.77 6.285 2.7 7.62 3.48 5.79 2.685h-.225c4.35-.69 8.1-1.245 10.755-1.62 1.41-.286 2.838-.462 4.275-.525zM48.12 286.445c-2.032.91-3.972 2.015-5.79 3.3-1.654 1.481-3.16 3.119-4.5 4.89 1.698-4.401 5.648-7.536 10.32-8.19h-.03zM77.445 265.085c.09 0 .165.93.66 2.43.675 2.061 1.875 3.912 3.48 5.37l.525.48-.705.12c-6.253 1.173-12.085 3.978-16.905 8.13-2.28 1.935-3.465 3.36-3.57 3.27-.105-.09.225-.405.75-1.08.755-.92 1.572-1.786 2.445-2.595 2.9-2.7 6.264-4.855 9.93-6.36 2.312-.947 4.722-1.636 7.185-2.055l-.165.6c-1.657-1.562-2.842-3.557-3.42-5.76-.253-.825-.324-1.695-.21-2.55zM60.51 269.405c-3.168 1.273-6.476 2.165-9.855 2.655-2.775.525-5.31.87-7.155 1.05-.99.175-2 .215-3 .12 0-.225 4.5-.9 9.99-1.935l7.05-1.395c.968-.278 1.964-.444 2.97-.495zM36.45 289.415c-1.464-.48-2.897-1.052-4.29-1.71-2.625-1.095-6.285-2.49-10.38-3.945-4.095-1.455-7.785-2.85-10.41-3.975-1.453-.525-2.846-1.203-4.155-2.025 1.48.406 2.934.907 4.35 1.5l10.5 3.75c4.095 1.5 7.755 3 10.335 4.17 1.43.588 2.79 1.338 4.05 2.235z" transform="translate(-14) translate(245 149.5)"/>
            <path fill="#AA6550" d="M42.96 288.8c-1.665.924-3.527 1.438-5.43 1.5-1.874.309-3.794.18-5.61-.375 0-.225 2.505-.09 5.535-.405 3.03-.315 5.445-.945 5.505-.72z" transform="translate(-14) translate(245 149.5)"/>
            <path fill="#4878FF" d="M185.49 201.17s-22.86 13.155-27.645 53.355c-2.505 21-11.625 60-11.625 60L127.5 293.36 99 325.865s30.675 65.46 48.075 83.31c17.4 17.85 51.75 23.325 51.75 23.325l6.9-109.41-20.235-121.92z" transform="translate(-14) translate(245 149.5)"/>
            <path fill="#4878FF" d="M358.95 183.095l-52.845-9.255-67.365 3.345s-56.1 23.16-53.25 24L174.555 309.5l27.105 52.32L195 473.24h185.85l-9.69-77.49-12.165-93.375 23.085 72.285 3.495 98.58h51.75c5.475-42.93 7.185-102.57 7.185-102.57l-42.24-138c-5.784-19.222-18.544-35.588-35.775-45.885-2.39-1.472-4.916-2.707-7.545-3.69z" transform="translate(-14) translate(245 149.5)"/>
            <path fill="#263238" d="M184.89 255.815c.066.174.112.355.135.54 0 .405.18.945.3 1.635l1.08 6.27c.93 5.445 2.235 13.335 3.75 23.1 1.515 9.765 3.21 21.42 4.83 34.38s3.135 27.27 4.005 42.345c0 1.395.15 2.79.225 4.08-.795 29.235-1.68 55.5-2.505 74.46-.42 9.48-.795 17.13-1.125 22.395-.18 2.61-.315 4.65-.405 6.075-.06.66-.105 1.185-.135 1.575v.54c-.016-.18-.016-.36 0-.54v-1.59c0-1.425.15-3.465.255-6.075.21-5.325.51-12.96.885-22.41.675-18.945 1.5-45.225 2.265-74.445-.075-1.29-.15-2.685-.225-4.08-.87-15-2.385-29.325-3.945-42.3-1.56-12.975-3.225-24.615-4.65-34.38-1.425-9.765-2.67-17.64-3.51-23.145-.39-2.7-.72-4.815-.93-6.3-.105-.69-.18-1.23-.225-1.635-.035-.163-.06-.329-.075-.495zM347.04 261.68c-.094-.22-.155-.452-.18-.69-.09-.555-.195-1.215-.33-2.01 0-.45-.135-.93-.225-1.5s-.075-1.11-.12-1.74c-.125-1.416-.17-2.839-.135-4.26v-2.475c0-.87.165-1.755.255-2.685.192-1.97.487-3.927.885-5.865.985-4.437 2.428-8.76 4.305-12.9 1.96-4.096 4.348-7.973 7.125-11.565 1.225-1.568 2.532-3.07 3.915-4.5.66-.645 1.26-1.32 1.905-1.905l1.86-1.635c1.067-.94 2.19-1.817 3.36-2.625l1.41-1.02 1.26-.765 1.755-1.035c.198-.128.409-.234.63-.315 0 0-.18.18-.555.45l-1.665 1.155-1.2.81c-.435.315-.885.69-1.38 1.065-.96.795-2.13 1.605-3.24 2.7l-1.815 1.65c-.63.585-1.215 1.26-1.86 1.92-1.305 1.305-2.505 2.865-3.81 4.5-5.476 7.142-9.298 15.411-11.19 24.21-.375 2.025-.795 3.945-.96 5.79-.09.915-.24 1.785-.27 2.64-.03.855-.075 1.68-.105 2.46-.12 1.5 0 3 0 4.215v1.74c0 .525.105 1.005.15 1.5 0 .795.135 1.5.195 2.01.03.224.04.45.03.675zM382.08 374.66c-.151-.285-.267-.587-.345-.9-.225-.675-.51-1.5-.855-2.595-.735-2.37-1.77-5.625-3-9.615-2.535-8.115-6-19.335-10.05-31.665-4.05-12.33-7.74-23.49-10.725-31.425-1.5-3.945-3.075-7.035-4.005-9.225-.48-1.095-.825-1.95-1.05-2.535-.136-.287-.236-.59-.3-.9.187.259.338.541.45.84l1.17 2.475c1.02 2.145 2.61 5.205 4.245 9.135 3.135 7.935 6.945 19.05 10.965 31.395 4.02 12.345 7.5 23.58 9.825 31.74 1.2 4.08 2.145 7.395 2.79 9.69.285 1.08.51 1.965.705 2.64.086.31.146.626.18.945zM421.05 371.21c0 .135-1.995-.435-5.25-.945-4.235-.644-8.535-.74-12.795-.285-4.258.456-8.438 1.464-12.435 3-3.075 1.185-4.875 2.175-4.935 2.055.361-.323.765-.596 1.2-.81 1.136-.66 2.313-1.247 3.525-1.755 8.029-3.463 16.912-4.435 25.5-2.79 1.295.237 2.572.557 3.825.96.478.13.937.322 1.365.57zM187.095 363.575c-.515-.66-.981-1.357-1.395-2.085-.93-1.335-2.28-3.225-4.095-5.475-3.57-4.5-8.835-10.5-14.685-17.145s-11.145-12.6-14.88-17.01c-1.875-2.22-3.36-4.02-4.365-5.295-.554-.628-1.056-1.3-1.5-2.01.62.56 1.197 1.167 1.725 1.815l4.5 5.115 15 16.86c5.85 6.615 11.055 12.69 14.55 17.325 1.396 1.817 2.697 3.705 3.9 5.655.42.69.69 1.275.885 1.65.153.178.274.381.36.6z" transform="translate(-14) translate(245 149.5)"/>
            <path fill="#000" d="M197.415 432.5c.855-30.3 2.43-58.23-.315-88.14-1.23 26.55-10.905 57.615-20.625 82.35l20.94 5.79zM358.995 302.375s-8.625-19.29-8.04-19.29c-.855 36.09 6.495 77.52 19.98 111l-11.94-91.71z" opacity=".3" transform="translate(-14) translate(245 149.5)"/>
            <path fill="#263238" d="M335.28 404.675s-.345.24-1.035.66l-3 1.755c-2.61 1.5-6.405 3.795-11.055 6.645-4.65 2.85-10.17 6.24-16.5 9.795-6.795 3.903-13.893 7.254-21.225 10.02-7.343 2.82-15.104 4.401-22.965 4.68-3.451.02-6.886-.487-10.185-1.5-2.883-.884-5.578-2.292-7.95-4.155-3.472-2.685-5.973-6.43-7.125-10.665-.29-1.138-.445-2.306-.465-3.48-.042-.409-.042-.821 0-1.23.069 1.565.3 3.118.69 4.635 1.236 4.109 3.747 7.718 7.17 10.305 2.334 1.792 4.978 3.14 7.8 3.975 3.246.935 6.612 1.385 9.99 1.335 7.779-.33 15.453-1.915 22.725-4.695 7.289-2.746 14.35-6.062 21.12-9.915 6.285-3.51 11.835-6.87 16.5-9.645 4.665-2.775 8.52-4.965 11.19-6.435l3.12-1.62c.38-.202.783-.358 1.2-.465z" transform="translate(-14) translate(245 149.5)"/>
            <path fill="#263238" d="M335.055 360.74c-.136.882-.331 1.754-.585 2.61-.235 1.015-.525 2.017-.87 3-.39 1.17-.78 2.505-1.38 3.93-.6 1.425-1.185 3-1.98 4.635-.795 1.635-1.68 3.36-2.655 5.16-2.201 3.846-4.71 7.508-7.5 10.95-2.838 3.402-5.943 6.572-9.285 9.48-1.5 1.305-3 2.565-4.5 3.6-1.5 1.035-2.865 2.025-4.17 2.85-1.305.825-2.52 1.5-3.57 2.13-1.05.63-2.01 1.08-2.79 1.5-.787.421-1.604.782-2.445 1.08.734-.51 1.506-.96 2.31-1.35.75-.39 1.665-.9 2.7-1.5 1.035-.6 2.25-1.32 3.495-2.205s2.67-1.8 4.08-2.91c1.41-1.11 2.91-2.325 4.5-3.63 3.267-2.956 6.306-6.155 9.09-9.57 2.761-3.417 5.268-7.031 7.5-10.815.975-1.77 1.935-3.435 2.685-5.07.75-1.635 1.5-3.15 2.055-4.575.555-1.425 1.05-2.715 1.5-3.855.45-1.14.75-2.145 1.005-3 .204-.835.475-1.653.81-2.445z" transform="translate(-14) translate(245 149.5)"/>
            <path fill="#FAFAFA" d="M187.5 291.5c0 .21-7.86-1.335-17.445-3.45s-17.34-3.99-17.295-4.2c.045-.21 7.86 1.32 17.46 3.435 9.6 2.115 17.385 4.065 17.28 4.215zM187.5 282.77c-1.658-.04-3.31-.225-4.935-.555-3-.465-7.215-1.2-11.805-2.085l-11.745-2.295c-1.64-.25-3.26-.62-4.845-1.11 1.658.04 3.31.225 4.935.555 3 .465 7.2 1.215 11.805 2.085l11.745 2.31c1.638.252 3.257.618 4.845 1.095zM347.31 283.91c0 .21-33.765.135-75.405-.18s-75.405-.75-75.405-.96c0-.21 33.765-.135 75.42.18s75.405.735 75.39.96zM349.815 291.5c0 .21-34.74.39-77.595.39s-77.595-.18-77.595-.39c0-.21 34.725-.39 77.595-.39s77.595.24 77.595.39zM413.055 273.74h.18c.18 0-.135 0-.24.09h-.135v-.135h.66l-.465.165c-2.775 1.02-14.37 4.95-28.065 10.17l-20.19 7.755-6.12 2.355c-.742.319-1.51.574-2.295.765.694-.411 1.422-.762 2.175-1.05 1.41-.63 3.48-1.5 6-2.58 5.115-2.13 12.21-4.995 20.115-7.98 13.71-5.22 25.425-8.91 28.305-9.585v.15h-.18v-.135h.135c.09 0 .165-.075.21.105.045.18-.09-.075-.09-.09zM411.825 264.05c0 .21-13.11 4.815-29.415 10.305-16.305 5.49-29.595 9.75-29.67 9.555-.075-.195 13.11-4.815 29.415-10.305 16.305-5.49 29.595-9.75 29.67-9.555zM311.49 174.965s0 .42.135 1.215c.101 1.162.131 2.33.09 3.495-.16 4.301-1.059 8.543-2.655 12.54-2.379 5.968-6.204 11.251-11.13 15.375-12.616 10.137-30.255 11.213-44.01 2.685-5.388-3.497-9.825-8.274-12.915-13.905-2.072-3.776-3.477-7.881-4.155-12.135-.178-1.148-.293-2.305-.345-3.465-.04-.41-.04-.82 0-1.23.086.4.141.806.165 1.215 0 .795.225 1.95.48 3.435 1.966 10.5 8.174 19.724 17.16 25.5 13.507 8.281 30.751 7.232 43.155-2.625 4.858-4.022 8.659-9.172 11.07-15 1.622-3.932 2.595-8.101 2.88-12.345 0-1.5.09-2.685 0-3.48-.022-.426.003-.854.075-1.275zM128.745 296.465c-.198.533-.466 1.037-.795 1.5-.555.915-1.38 2.19-2.46 3.765-2.797 4.072-5.8 7.997-9 11.76-3.75 4.41-7.395 8.19-10.14 10.815-1.365 1.305-2.505 2.34-3.3 3-.4.384-.836.725-1.305 1.02.31-.46.678-.879 1.095-1.245l3.12-3.21c2.64-2.7 6.195-6.525 9.93-10.92 3.735-4.395 6.9-8.535 9.135-11.58l2.655-3.6c.3-.477.657-.916 1.065-1.305z" transform="translate(-14) translate(245 149.5)"/>
            <path fill="#000" d="M298.2 408.905c-7.575 4.305-17.79 4.995-26.91 5.235-1.72.157-3.452-.073-5.07-.675-1.644-.642-2.727-2.225-2.73-3.99.18-2.07 2.235-3.39 4.155-4.185 7.365-3 15.63-2.88 23.355-4.815 13.185-3.315 26.625-12.72 36.885-21.63-7.035 12.474-17.286 22.834-29.685 30" opacity=".3" transform="translate(-14) translate(245 149.5)"/>
            <path fill="#F2BFB1" d="M269.835 210.5c-17.705-1.416-31.306-16.274-31.155-34.035.075-8.43.165-15.165.165-15.165s-27.15-4.23-27.495-31.38c-.345-27.15 4.38-89.505 4.38-89.505 31.405-13.505 67.657-8.972 94.77 11.85l4.035 3.09L306.3 179c-.597 9.036-4.792 17.456-11.645 23.376-6.853 5.92-15.793 8.846-24.82 8.124z" transform="translate(-14) translate(245 149.5)"/>
            <path fill="#AA6550" d="M238.8 160.835c12.538.235 24.861-3.269 35.4-10.065 0 0-8.37 19.5-35.46 17.1l.06-7.035z" transform="translate(-14) translate(245 149.5)"/>
            <path fill="#F2BFB1" d="M311.22 83.48c.465-.195 18.66-5.52 18 13.05-.66 18.57-19.11 14.145-19.125 13.605-.015-.54 1.125-26.655 1.125-26.655z" transform="translate(-14) translate(245 149.5)"/>
            <path fill="#AA6550" d="M316.065 103.28c.075 0 .315.24.855.51.76.347 1.624.39 2.415.12 1.98-.645 3.735-3.72 3.93-7.05.102-1.592-.154-3.186-.75-4.665-.319-1.188-1.198-2.146-2.355-2.565-.76-.225-1.572.121-1.935.825-.27.51-.165.885-.27.915-.105.03-.39-.315-.21-1.08.119-.455.389-.857.765-1.14.525-.364 1.168-.515 1.8-.42 1.547.351 2.795 1.49 3.285 3 .743 1.635 1.073 3.428.96 5.22-.24 3.735-2.265 7.17-4.965 7.86-1.037.273-2.142.058-3-.585-.51-.495-.585-.915-.525-.945z" transform="translate(-14) translate(245 149.5)"/>
            <path fill="#263238" d="M225.585 83.885c-.018 2.097 1.639 3.827 3.735 3.9.996.083 1.984-.243 2.736-.902.752-.659 1.205-1.594 1.254-2.593.026-2.098-1.624-3.834-3.72-3.915-1-.078-1.988.25-2.742.911-.754.66-1.21 1.598-1.263 2.599zM220.86 78.5c.48.495 3.42-1.68 7.59-1.665 4.17.015 7.23 2.1 7.695 1.59.21-.225-.27-1.14-1.605-2.115-1.807-1.247-3.954-1.907-6.15-1.89-2.155.005-4.254.687-6 1.95-1.32 1.035-1.755 1.95-1.53 2.13zM265.65 84.785c-.018 2.1 1.636 3.834 3.735 3.915.995.078 1.98-.249 2.732-.907.75-.658 1.204-1.59 1.258-2.588.026-2.103-1.633-3.842-3.735-3.915-.995-.078-1.98.249-2.732.907-.75.658-1.204 1.59-1.258 2.588zM261.885 79.31c.48.51 3.42-1.665 7.59-1.65 4.17.015 7.23 2.1 7.68 1.59.225-.225-.255-1.14-1.605-2.115-1.805-1.252-3.954-1.912-6.15-1.89-2.155.005-4.254.687-6 1.95-1.32.975-1.755 1.89-1.515 2.115zM246.735 110.255c0-.225-2.565-.675-6.78-1.215-1.065-.105-2.07-.315-2.25-1.05-.093-1.1.159-2.2.72-3.15.99-2.58 2.04-5.295 3.15-8.115 4.365-11.565 7.5-21 7.065-21.225-.435-.225-4.38 9-8.76 20.595-1.05 2.85-2.07 5.565-3 8.16-.677 1.285-.874 2.768-.555 4.185.326.741.972 1.294 1.755 1.5.586.163 1.191.249 1.8.255 4.215.285 6.84.3 6.855.06zM260.805 62.96c.405 1.14 4.575.6 9.465 1.185 4.89.585 8.865 1.935 9.51.915.285-.495-.39-1.5-1.995-2.655-2.122-1.367-4.538-2.21-7.05-2.46-2.504-.312-5.046-.014-7.41.87-1.8.72-2.7 1.605-2.52 2.145zM222.405 66.5c.735.945 3.6 0 7.065-.09 3.465-.09 6.375.63 7.05-.36.3-.48-.165-1.5-1.5-2.325-3.52-2.191-8.011-2.049-11.385.36-1.155.915-1.56 1.92-1.23 2.415z" transform="translate(-14) translate(245 149.5)"/>
            <path fill="#263238" d="M202.5 23.195c-.409-3.44.993-6.845 3.705-9 2.822-2.067 6.728-1.774 9.21.69-.518-2.294-.038-4.7 1.321-6.62 1.359-1.919 3.468-3.171 5.804-3.445 4.425-.27 8.205 3 12.495 4.245 4.29 1.245 8.655.15 12.675-1.5 4.02-1.65 7.77-3.84 11.835-5.325 17.89-6.544 37.712 2.553 44.415 20.385 6-1.86 12.675 1.155 16.35 6.18 3.675 5.025 4.59 11.64 3.87 17.82-.586 4.161-1.627 8.246-3.105 12.18v1.05c-.285 14.925-1.98 32.46-8.34 32.565-11.1.165-8.46-20.76-8.46-20.76-13.62-5.265-8.55-25.665-12-28.77-3.45-3.105-10.5-10.29-39 4.29-11.085 5.655-25.8 5.475-33.855 3.66l-.705-.15h-.165c-.09 0-.15-.075-.24-.09-2.58-.656-5.043-1.703-7.305-3.105-2.664-1.538-4.767-3.887-6-6.705-1.23-2.882-.641-6.218 1.5-8.505-2.197-2.572-3.59-5.733-4.005-9.09z" transform="translate(-14) translate(245 149.5)"/>
            <path fill="#D38B7A" d="M243.195 123.095c.574 1.688 1.387 3.284 2.415 4.74 1.055 1.476 2.695 2.427 4.5 2.61 1.935.001 3.738-.982 4.785-2.61 1.003-1.631 1.47-3.535 1.335-5.445-.09-1.71-.87-3.75-2.565-3.96-.718-.018-1.429.142-2.07.465l-9 3.63" transform="translate(-14) translate(245 149.5)"/>
            <path fill="#263238" d="M246.78 130.46c1.613.115 3.233-.084 4.77-.585 1.567-.614 2.854-1.783 3.615-3.285.866-1.845.91-3.97.12-5.85-.208-.473-.47-.921-.78-1.335-.36-.375-.3-.36-.69-.3-.39.06-.945.375-1.425.555l-1.5.6c-1.92.78-3.66 1.5-5.13 2.01-2.925 1.095-4.785 1.665-4.875 1.5-.09-.165 1.62-1.14 4.5-2.505 1.41-.675 3.09-1.5 4.98-2.31l1.5-.645c.53-.26 1.076-.485 1.635-.675.427-.15.893-.15 1.32 0 .394.166.736.435.99.78.406.52.743 1.09 1.005 1.695.995 2.309.896 4.943-.27 7.17-.955 1.772-2.573 3.094-4.5 3.675-1.257.402-2.6.453-3.885.15-1.005-.24-1.425-.555-1.38-.645z" transform="translate(-14) translate(245 149.5)"/>
            <path fill="#455A64" d="M293.25 40.43c.113-1.092.113-2.193 0-3.285-.486-2.956-1.987-5.65-4.245-7.62-3.399-2.878-7.781-4.324-12.225-4.035-5.025 0-10.365 1.68-15.885 3.54-2.696.939-5.44 1.735-8.22 2.385-2.607.58-5.265.907-7.935.975-4.524.119-9.04-.474-13.38-1.755-2.91-.879-5.717-2.07-8.37-3.555-.945-.525-1.635-.975-2.115-1.305-.247-.146-.478-.317-.69-.51 0-.075 1.05.585 3 1.5 2.677 1.36 5.48 2.455 8.37 3.27 6.846 1.916 14.058 2.117 21 .585 2.655-.6 5.37-1.5 8.13-2.385 5.52-1.86 10.965-3.525 16.125-3.525 4.612-.255 9.14 1.307 12.615 4.35 2.32 2.072 3.804 4.92 4.17 8.01.142 1.132.024 2.28-.345 3.36zM314.355 86.315c-.139-.174-.255-.366-.345-.57-.315-.56-.6-1.135-.855-1.725-.948-2.17-1.671-4.432-2.16-6.75-.727-3.45-.965-6.984-.705-10.5.524-4.255 1.336-8.47 2.43-12.615 1.059-4.093 1.059-8.387 0-12.48-.524-1.743-1.414-3.354-2.61-4.725-1.067-1.162-2.408-2.038-3.9-2.55-2.173-.81-4.575-.752-6.705.165-.737.439-1.435.94-2.085 1.5.496-.728 1.167-1.321 1.95-1.725 2.184-1.091 4.718-1.248 7.02-.435 1.608.505 3.059 1.414 4.215 2.64 1.286 1.43 2.243 3.125 2.805 4.965 1.127 4.21 1.127 8.644 0 12.855-1.087 4.114-1.913 8.292-2.475 12.51-.436 5.796.441 11.615 2.565 17.025.327.79.613 1.595.855 2.415z" transform="translate(-14) translate(245 149.5)"/>
            <path fill="#455A64" d="M295.86 38.24c-.04-.364-.04-.731 0-1.095 0-.78.075-1.815.12-3.105.184-3.802-.236-7.61-1.245-11.28-.751-2.5-1.984-4.829-3.63-6.855-1.858-2.334-4.412-4.015-7.29-4.8-3.211-.744-6.564-.609-9.705.39-3.402 1.084-6.664 2.564-9.72 4.41-3.097 1.871-6.32 3.525-9.645 4.95-3.168 1.241-6.529 1.917-9.93 1.995-3.068.075-6.13-.3-9.09-1.11-2.564-.722-5.04-1.728-7.38-3-3.363-1.918-6.327-4.464-8.73-7.5-.66-.81-1.253-1.672-1.77-2.58-.213-.297-.39-.62-.525-.96.252.264.474.556.66.87.572.864 1.198 1.69 1.875 2.475 2.465 2.9 5.439 5.324 8.775 7.155 2.305 1.243 4.746 2.214 7.275 2.895 2.9.771 5.896 1.115 8.895 1.02 3.31-.098 6.578-.768 9.66-1.98 3.288-1.427 6.475-3.076 9.54-4.935 3.105-1.887 6.423-3.398 9.885-4.5 3.281-1.028 6.779-1.152 10.125-.36 3.015.843 5.68 2.63 7.605 5.1 1.675 2.107 2.918 4.523 3.66 7.11.974 3.737 1.319 7.61 1.02 11.46 0 1.35-.18 2.4-.27 3.105-.02.38-.075.756-.165 1.125z" transform="translate(-14) translate(245 149.5)"/>
        </g>
        <path fill="#263238" fill-rule="nonzero" d="M701 622.74c0 .21-152.445.39-340.5.39S20 622.95 20 622.74c0-.21 152.4-.39 340.5-.39s340.5.15 340.5.39z" transform="translate(-14)"/>
        <g fill-rule="nonzero">
            <path fill="#4878FF" d="M41.565 42.665c2.895 4.08 8.475 2.685 11.04.165 2.565-2.52 3.645-6.15 4.635-9.615 2.22-7.92 4.5-16.245 2.73-24.285-.424-2.436-1.508-4.708-3.135-6.57C55.159.484 52.606-.352 50.145.17c-2.805.765-4.5 3.525-5.79 6.165-3.683 7.768-5.59 16.258-5.58 24.855 0 3.99.51 8.175 2.79 11.475" transform="translate(-14) translate(239 518.5)"/>
            <path fill="#000" d="M41.565 42.665c2.895 4.08 8.475 2.685 11.04.165 2.565-2.52 3.645-6.15 4.635-9.615 2.22-7.92 4.5-16.245 2.73-24.285-.424-2.436-1.508-4.708-3.135-6.57C55.159.484 52.606-.352 50.145.17c-2.805.765-4.5 3.525-5.79 6.165-3.683 7.768-5.59 16.258-5.58 24.855 0 3.99.51 8.175 2.79 11.475" opacity=".2" transform="translate(-14) translate(239 518.5)"/>
            <path fill="#4878FF" d="M52.5 63.38c4.803-2.287 10.212-2.976 15.435-1.965 2.858.234 5.556 1.416 7.665 3.36 1.905 2.1 2.295 5.805.12 7.62-1.411.963-3.114 1.403-4.815 1.245-4.08 0-8.61-.72-11.865 1.755-1.845 1.425-3 3.75-5.295 4.5-2.284.544-4.652-.49-5.805-2.535-1.07-2.04-1.317-4.413-.69-6.63.504-3.136 2.447-5.856 5.25-7.35zM33.705 48.59c2.964-3.937 3.805-9.079 2.25-13.755-1.607-4.6-4.451-8.67-8.22-11.76-4.271-3.757-9.234-6.646-14.61-8.505-2.086-.831-4.328-1.2-6.57-1.08-2.27.14-4.322 1.4-5.475 3.36-1.5 3 0 6.465 1.575 9.36 2.832 5.087 6.062 9.942 9.66 14.52 2.895 3.675 6.195 7.305 10.5 9 4.305 1.695 9 1.425 11.22-1.62" transform="translate(-14) translate(239 518.5)"/>
            <path fill="#263238" d="M41.715 104.57c.15-.614.236-1.243.255-1.875.12-1.35.285-3 .465-5.085.18-2.085.525-4.695 1.095-7.5.66-3.01 1.552-5.964 2.67-8.835 1.11-2.867 2.625-5.56 4.5-7.995 1.504-1.99 3.437-3.614 5.655-4.755 1.505-.75 3.12-1.257 4.785-1.5.627-.029 1.25-.12 1.86-.27-.628-.075-1.262-.075-1.89 0-1.73.136-3.423.583-4.995 1.32-2.347 1.11-4.402 2.754-6 4.8-1.927 2.482-3.484 5.23-4.62 8.16-1.132 2.92-2.015 5.931-2.64 9-.463 2.48-.779 4.984-.945 7.5-.15 2.16-.21 3.9-.225 5.115-.049.64-.039 1.282.03 1.92z" transform="translate(-14) translate(239 518.5)"/>
            <path fill="#263238" d="M42 100.64c.038-.284.038-.571 0-.855V97.31v-9.09c.135-7.68.735-18.285 1.95-30 1.215-11.715 2.865-22.155 4.38-29.67.345-1.89.705-3.585 1.05-5.07.345-1.485.6-2.775.87-3.825.27-1.05.405-1.77.555-2.4.084-.278.134-.565.15-.855-.132.257-.233.529-.3.81-.18.63-.405 1.41-.705 2.37-.3.96-.63 2.31-.99 3.795-.36 1.485-.78 3.18-1.17 5.055-2.066 9.81-3.603 19.725-4.605 29.7-1.215 11.685-1.725 22.305-1.74 30 0 3.855.075 6.96.195 9.105 0 1.005.12 1.83.165 2.475.02.318.085.631.195.93z" transform="translate(-14) translate(239 518.5)"/>
            <path fill="#263238" d="M42 80.15c.056-.86.056-1.72 0-2.58-.105-1.665-.36-4.065-.84-7.005-.587-3.437-1.368-6.837-2.34-10.185-1.15-4.1-2.6-8.111-4.335-12-2.995-7.21-7.274-13.818-12.63-19.5-.936-.973-1.939-1.88-3-2.715-.45-.39-.855-.765-1.26-1.065l-1.155-.78c-.692-.51-1.419-.971-2.175-1.38 2.513 1.96 4.907 4.07 7.17 6.315 5.176 5.713 9.34 12.267 12.315 19.38 1.724 3.871 3.182 7.856 4.365 11.925.997 3.32 1.823 6.69 2.475 10.095.555 2.91.885 5.28 1.08 6.93.04.863.15 1.72.33 2.565z" transform="translate(-14) translate(239 518.5)"/>
        </g>
        <g transform="translate(-14) translate(0 46.5)">
            <path fill="#4878FF" fill-rule="nonzero" d="M309.605 342.66L245.975 339.945 245.975 276.315 309.605 276.315z"/>
            <path fill="#4878FF" fill-rule="nonzero" d="M271.205 258.105H334.84999999999997V321.75H271.205z"/>
            <path fill="#4878FF" fill-rule="nonzero" d="M309.605 339.945L334.85 321.75 334.85 258.105 309.605 276.315z"/>
            <path fill="#4878FF" fill-rule="nonzero" d="M245.975 276.315L271.205 258.105 334.85 258.105 309.605 276.315z"/>
            <path fill="#4878FF" fill-rule="nonzero" d="M309.605 342.66L334.85 321.75 334.85 258.105 309.605 276.315z"/>
            <path fill="#FFF" fill-rule="nonzero" d="M245.975 276.315L271.205 258.105 334.85 258.105 309.605 276.315z" opacity=".3"/>
            <path fill="#000" fill-rule="nonzero" d="M309.605 342.66L334.85 321.75 334.85 258.105 309.605 276.315z" opacity=".4"/>
            <path fill="#4878FF" fill-rule="nonzero" d="M343.745 324.18c.38 1.211.513 2.486.39 3.75-.315.63-.09.18-.165.315h-.075l-.15.105-.3.225-.57.405-1.005.66c-.585.345-.975.525-1.05.435-.075-.09.225-.42.72-.885.24-.225.555-.495.9-.78l.54-.45.3-.225.15-.12h.075c0 .15.15-.3-.15.315-.131-1.264.002-2.54.39-3.75zM343.745 308.1c.52 2.655.52 5.385 0 8.04-.52-2.655-.52-5.385 0-8.04zM343.745 292.02c.52 2.655.52 5.385 0 8.04-.52-2.655-.52-5.385 0-8.04zM343.745 276c.52 2.655.52 5.385 0 8.04-.52-2.655-.52-5.385 0-8.04zM343.745 259.86c.52 2.655.52 5.385 0 8.04-.52-2.655-.52-5.385 0-8.04zM339.995 248.07c1.211-.38 2.486-.513 3.75-.39l.39.39v1.41c0 .45 0 .855-.09 1.2 0 .675-.165 1.095-.27 1.095-.105 0-.21-.42-.285-1.095v-2.61l.39.39c-1.308.141-2.631.009-3.885-.39zM325.61 248.07c2.367-.52 4.818-.52 7.185 0-2.367.52-4.818.52-7.185 0zM311.225 248.07c2.367-.52 4.818-.52 7.185 0-2.367.52-4.818.52-7.185 0zM296.84 248.07c2.367-.52 4.818-.52 7.185 0-2.367.52-4.818.52-7.185 0zM282.5 248.07c2.367-.52 4.818-.52 7.185 0-2.367.52-4.818.52-7.185 0zM268.37 248.91c-.075-.09.24-.51.81-1.08h.135c.615 0 1.41-.09 2.28-.09 1.214-.123 2.44.01 3.6.39-1.16.38-2.386.513-3.6.39-.87 0-1.665 0-2.28-.09l.195-.075c-.615.405-1.065.645-1.14.555zM257.3 258.09c-.15-.165.99-1.32 2.52-2.595 1.53-1.275 2.865-2.16 3-1.995.135.165-.99 1.335-2.52 2.595-1.53 1.26-2.865 2.16-3 1.995zM246.23 267.285c-.15-.165.99-1.335 2.52-2.61s2.865-2.16 3-1.995c.135.165-.99 1.335-2.52 2.61s-2.865 2.16-3 1.995zM237.77 278.01c-.378-1.212-.501-2.489-.36-3.75l.15-.3.135-.12.3-.225.555-.435.975-.705c.555-.375.945-.57 1.02-.48.075.09-.195.42-.675.915-.24.24-.525.525-.87.825l-.525.465-.285.24-.135.12h-.075c0-.12-.15.3.135-.285.14 1.256.022 2.526-.345 3.735zM237.62 292.89c-.37-1.203-.492-2.468-.36-3.72-.104-1.257.044-2.521.435-3.72.367 1.209.49 2.478.36 3.735.107 1.252-.041 2.512-.435 3.705zM237.5 307.77c-.37-1.203-.487-2.47-.345-3.72-.113-1.256.03-2.521.42-3.72.514 2.476.489 5.034-.075 7.5v-.06zM237.335 322.65c-.379-1.201-.502-2.468-.36-3.72-.122-1.257.027-2.525.435-3.72.36 1.205.477 2.47.345 3.72.113 1.256-.03 2.521-.42 3.72zM237.185 337.5c-.37-1.203-.492-2.468-.36-3.72-.113-1.257.035-2.523.435-3.72.37 1.203.487 2.47.345 3.72.113 1.256-.03 2.521-.42 3.72zM240.83 348.78c-1.221.357-2.5.47-3.765.33l-.375-.39V347.295c0-.435 0-.84.09-1.185 0-.675.18-1.095.285-1.095.105 0 .21.42.27 1.095 0 .345 0 .75.075 1.2.075.45 0 .48 0 .705v.735l-.39-.39c1.285-.121 2.582.022 3.81.42zM255.035 349.02c-2.35.48-4.777.44-7.11-.12 1.154-.358 2.37-.47 3.57-.33 1.199-.111 2.407.043 3.54.45zM269.24 349.245c-1.145.377-2.36.49-3.555.33-1.199.115-2.408-.039-3.54-.45 1.149-.359 2.36-.471 3.555-.33 1.199-.104 2.406.05 3.54.45zM283.46 349.5c-1.154.357-2.37.469-3.57.33-1.199.104-2.406-.05-3.54-.45 1.149-.359 2.36-.471 3.555-.33 1.204-.112 2.417.042 3.555.45zM297.665 349.71c-1.145.376-2.36.493-3.555.345-1.203.094-2.413-.059-3.555-.45 1.145-.376 2.36-.493 3.555-.345 1.203-.094 2.413.059 3.555.45zM311.87 349.95c-1.149.359-2.36.471-3.555.33-1.204.112-2.417-.042-3.555-.45 1.154-.357 2.37-.469 3.57-.33 1.199-.104 2.406.05 3.54.45zM323.75 343.065c.135.165-1.035 1.275-2.595 2.46-.867.805-1.887 1.427-3 1.83-.135-.18 1.02-1.275 2.595-2.46 1.575-1.185 2.88-2.01 3-1.83zM335.09 334.5c.12.165-1.035 1.275-2.595 2.46-.884.82-1.932 1.444-3.075 1.83-.135-.18 1.035-1.275 2.595-2.46.882-.823 1.93-1.448 3.075-1.83zM326.465 242.895c.21 0 .195.9 0 1.905s-.585 1.8-.795 1.74c-.21-.06-.195-.9 0-1.905s.585-1.8.795-1.74zM329.915 227.64c.09 1.319-.074 2.642-.48 3.9-.17 1.309-.593 2.572-1.245 3.72-.099-1.319.065-2.644.48-3.9.17-1.309.593-2.572 1.245-3.72zM333.35 212.385c-.058 2.63-.645 5.221-1.725 7.62.063-2.63.65-5.22 1.725-7.62zM336.785 197.13c.11 1.318-.05 2.645-.465 3.9-.169 1.314-.592 2.583-1.245 3.735.065-2.632.646-5.226 1.71-7.635zM340.235 181.89c.099 1.319-.065 2.644-.48 3.9-.17 1.309-.593 2.572-1.245 3.72.058-2.63.645-5.221 1.725-7.62zM343.67 166.635c-.063 2.628-.644 5.217-1.71 7.62.063-2.628.644-5.217 1.71-7.62zM346.22 155.355c.21 0 .195.9 0 1.905s-.585 1.8-.795 1.755c-.21-.045-.195-.915 0-1.92s.585-1.8.795-1.74z"/>
            <path fill="#4878FF" fill-rule="nonzero" d="M267.68 244.725c.195-.105.735.57 1.2 1.5.465.93.69 1.74.495 1.845-.195.105-.72-.57-1.2-1.5s-.675-1.755-.495-1.845zM261.11 231.66c.869.883 1.548 1.935 1.995 3.09.67 1.04 1.11 2.211 1.29 3.435-.195.105-1.08-1.275-1.995-3.09-.665-1.043-1.104-2.213-1.29-3.435zM254.54 218.61c.195-.105 1.08 1.275 1.995 3 .663 1.049 1.102 2.223 1.29 3.45-.869-.883-1.548-1.935-1.995-3.09-.652-1.022-1.09-2.165-1.29-3.36zM248 205.5c1.547 1.919 2.671 4.142 3.3 6.525-.195.105-1.095-1.275-1.995-3.09-.663-1.045-1.107-2.213-1.305-3.435zM241.385 192.48c.869.883 1.548 1.935 1.995 3.09.672 1.045 1.112 2.221 1.29 3.45-.869-.883-1.548-1.935-1.995-3.09-.666-1.047-1.105-2.223-1.29-3.45zM234.815 179.43c.195-.105 1.08 1.29 1.995 3.09.661 1.044 1.1 2.214 1.29 3.435-.195.105-1.08-1.29-1.995-3.09-.661-1.044-1.1-2.214-1.29-3.435zM228.23 166.365c1.55 1.922 2.676 4.15 3.3 6.54-.874-.879-1.554-1.932-1.995-3.09-.669-1.048-1.113-2.222-1.305-3.45zM221.66 153.315c.195-.105 1.08 1.29 1.995 3.09.67 1.04 1.11 2.211 1.29 3.435-.195.105-1.08-1.29-1.995-3.09-.661-1.044-1.1-2.214-1.29-3.435zM216.695 143.43c.18-.09.72.585 1.185 1.5.465.915.69 1.755.495 1.86-.195.105-.72-.585-1.185-1.5-.465-.915-.69-1.755-.495-1.86zM150.215 267.405c0 .225-.87.33-1.89.24-1.02-.09-1.86-.315-1.845-.525.015-.21.87-.33 1.905-.255 1.035.075 1.845.33 1.83.54zM165.5 268.605c-1.267.282-2.577.313-3.855.09-1.293.021-2.578-.213-3.78-.69 1.267-.282 2.577-.313 3.855-.09 1.294-.03 2.58.205 3.78.69zM180.71 269.79c-1.26.292-2.567.322-3.84.09-1.292.024-2.576-.205-3.78-.675 1.26-.292 2.567-.322 3.84-.09 1.292-.022 2.576.207 3.78.675zM195.95 270.99c-1.262.283-2.567.313-3.84.09-1.294.03-2.58-.205-3.78-.69 1.262-.283 2.567-.313 3.84-.09 1.293-.021 2.578.213 3.78.69zM211.205 272.19c-2.56.323-5.158.119-7.635-.6 1.26-.292 2.567-.322 3.84-.09 1.299-.031 2.59.204 3.795.69zM226.445 273.375c-1.262.283-2.567.313-3.84.09-1.294.032-2.58-.203-3.78-.69 2.554-.322 5.148-.118 7.62.6zM237.8 274.26c0 .225-.87.33-1.89.255-1.02-.075-1.86-.33-1.845-.54.015-.21.87-.33 1.905-.24 1.035.09 1.845.315 1.83.525z"/>
            <circle cx="185.642" cy="87.552" r="66.045" fill="#FFF" fill-rule="nonzero" transform="rotate(-76.97 185.642 87.552)"/>
            <path fill="#4878FF" fill-rule="nonzero" d="M251.69 87.57s0-.36-.105-1.065-.105-1.785-.195-3.135c0-.69-.09-1.5-.135-2.31-.045-.81-.27-1.77-.42-2.76-.15-.99-.315-2.07-.51-3.225-.22-1.214-.506-2.416-.855-3.6-1.536-6.161-3.999-12.054-7.305-17.475-4.3-7.249-9.959-13.6-16.665-18.705l-2.835-2.115c-1.005-.66-2.055-1.26-3.09-1.905-1.035-.645-2.07-1.335-3.21-1.86l-3.42-1.635-1.8-.78-1.83-.66-3.69-1.35c-1.26-.405-2.58-.675-3.885-1.035-1.306-.38-2.633-.68-3.975-.9-2.728-.525-5.49-.861-8.265-1.005-1.41 0-2.835-.18-4.275-.165l-4.35.225c-.735 0-1.5 0-2.19.15l-2.205.33c-1.5.24-3 .42-4.41.72-2.973.661-5.9 1.518-8.76 2.565-2.938 1.058-5.8 2.316-8.565 3.765-1.395.75-2.715 1.635-4.095 2.445-.675.435-1.38.795-2.025 1.275l-1.935 1.5c-2.637 1.942-5.143 4.056-7.5 6.33l-3.33 3.675-.84.93-.75.99-1.5 2.01-1.5 2.025-1.32 2.16-1.32 2.175-.675 1.095-.555 1.14c-.735 1.5-1.5 3.09-2.235 4.635l-1.77 4.86c-2.166 6.695-3.31 13.679-3.39 20.715.084 7.04 1.221 14.027 3.375 20.73.6 1.62 1.2 3.24 1.785 4.86l2.235 4.635.555 1.14.66 1.095 1.32 2.175 1.32 2.16 1.5 2.025 1.5 2.01.765 1.005.84.915 3.33 3.69c2.357 2.274 4.863 4.388 7.5 6.33l1.935 1.5c.63.495 1.35.855 2.025 1.29 1.38.81 2.7 1.695 4.095 2.445 2.766 1.449 5.627 2.707 8.565 3.765 2.863 1.04 5.789 1.897 8.76 2.565 1.5.3 3 .48 4.5.72l2.19.33c.72.105 1.5.09 2.19.15l4.35.225c1.5 0 2.865-.12 4.275-.165 2.788-.134 5.565-.455 8.31-.96 1.345-.23 2.677-.53 3.99-.9 1.29-.36 2.61-.63 3.87-1.05l3.69-1.335 1.83-.675 1.74-.825 3.405-1.635c1.14-.51 2.145-1.245 3.21-1.845 1.065-.6 2.1-1.245 3.09-1.905l2.85-2.115c6.717-5.093 12.395-11.427 16.725-18.66 3.292-5.477 5.725-11.426 7.215-17.64.35-1.184.635-2.386.855-3.6.195-1.14.36-2.22.51-3.21.15-.99.33-1.92.42-2.76.09-.84.09-1.62.135-2.31.09-1.365.15-2.4.195-3.135.045-.735.105-1.065.105-1.065v1.065c0 .705 0 1.785-.12 3.15 0 .69 0 1.5-.105 2.31s-.24 1.77-.375 2.775-.315 2.085-.48 3.24c-.21 1.219-.485 2.426-.825 3.615-1.497 6.228-3.935 12.192-7.23 17.685-4.32 7.314-10.014 13.722-16.77 18.87l-2.91 2.22c-1.005.675-2.055 1.275-3.105 1.935-1.05.66-2.085 1.35-3.225 1.875l-3.45 1.665-1.74.84-1.845.675-3.735 1.365c-1.26.42-2.58.705-3.9 1.065-1.32.384-2.663.69-4.02.915-2.768.53-5.57.862-8.385.99-1.5 0-2.88.195-4.32.18l-4.395-.21c-.735 0-1.5 0-2.22-.15l-2.22-.33c-1.5-.24-3-.42-4.5-.72-6.09-1.362-11.979-3.505-17.52-6.375-1.41-.765-2.76-1.65-4.14-2.46-.69-.435-1.41-.81-2.055-1.305l-1.965-1.5c-2.636-1.97-5.142-4.11-7.5-6.405l-3.375-3.72-.855-.93-.765-1.005-1.5-2.04-1.5-2.04-1.335-2.19-1.335-2.22-.675-1.11-.57-1.155-2.265-4.695-1.8-4.92c-2.196-6.787-3.349-13.867-3.42-21 .078-7.132 1.23-14.212 3.42-21 .615-1.65 1.215-3.285 1.815-4.92.6-1.635 1.5-3.135 2.25-4.68l.57-1.17.675-1.095 1.275-2.16 1.335-2.19 1.5-2.04 1.5-2.025.765-1.02.84-.93 3.39-3.72c2.358-2.291 4.863-4.426 7.5-6.39l1.965-1.5c.645-.495 1.365-.87 2.055-1.305 1.38-.825 2.73-1.695 4.14-2.46 2.798-1.465 5.695-2.733 8.67-3.795 2.89-1.052 5.847-1.914 8.85-2.58 1.5-.3 3-.48 4.5-.72l2.22-.33c.735-.105 1.5-.09 2.22-.15l4.38-.21c1.5 0 2.895.12 4.335.18 2.815.13 5.617.461 8.385.99 1.358.221 2.7.527 4.02.915 1.305.36 2.64.63 3.9 1.065l3.735 1.365 1.83.675 1.755.84 3.435 1.74c1.155.525 2.16 1.26 3.24 1.875s2.1 1.26 3.105 1.92c1.005.66 1.92 1.5 2.865 2.145 6.754 5.157 12.448 11.57 16.77 18.885 3.296 5.487 5.734 11.446 7.23 17.67.339 1.195.614 2.406.825 3.63.165 1.155.33 2.235.48 3.24.15 1.005.3 1.92.375 2.76.075.84 0 1.635.105 2.325 0 1.365.09 2.415.12 3.15.03.735.075 1.065.075 1.065z"/>
            <path d="M192.5 51c1.955.237 3.868.742 5.685 1.5l4.17-3.51 7.185 5.475-2.265 4.95c1.224 1.553 2.233 3.263 3 5.085l5.43.48 1.2 9-5.1 1.905c-.244 1.953-.749 3.865-1.5 5.685l3.495 4.17-5.46 7.185-4.95-2.265c-1.552 1.224-3.263 2.233-5.085 3L197.72 99l-9 1.215-1.905-5.1c-1.952-.251-3.863-.755-5.685-1.5l-4.185 3.495-7.17-5.46 2.265-4.965c-1.223-1.547-2.233-3.253-3-5.07L163.7 81l-1.2-9 5.1-1.905c.237-1.955.742-3.868 1.5-5.685l-3.495-4.185 5.46-7.17L176 55.5c1.553-1.224 3.263-2.233 5.085-3l.48-5.43 9-1.215L192.5 51zm-3.675 12.405c-3.878.527-7.056 3.339-8.052 7.123-.997 3.785.385 7.797 3.5 10.165 3.115 2.369 7.35 2.628 10.73.656 3.381-1.972 5.24-5.786 4.712-9.664-.331-2.568-1.678-4.896-3.738-6.463-2.061-1.567-4.664-2.243-7.227-1.877l.075.06z"/>
            <path fill="#263238" fill-rule="nonzero" d="M188.75 63.345c.195-.081.404-.127.615-.135.593-.072 1.192-.072 1.785 0 2.257.173 4.38 1.134 6 2.715 2.377 2.374 3.393 5.788 2.7 9.075-.398 1.972-1.393 3.773-2.85 5.16-3.145 3.065-7.924 3.717-11.775 1.605-2.357-1.288-4.095-3.473-4.818-6.06-.723-2.587-.37-5.357.978-7.68 1.119-1.938 2.88-3.424 4.98-4.2.56-.217 1.145-.368 1.74-.45h.615s-.84.165-2.235.765c-1.966.837-3.593 2.311-4.62 4.185-1.55 2.793-1.577 6.181-.075 9 .85 1.632 2.173 2.97 3.795 3.84 1.74.932 3.728 1.294 5.685 1.035 1.958-.267 3.781-1.15 5.205-2.52 1.334-1.268 2.255-2.91 2.64-4.71.69-3.099-.23-6.337-2.445-8.61-1.5-1.525-3.461-2.511-5.58-2.805-1.47-.27-2.325-.12-2.34-.21z"/>
            <path fill="#263238" fill-rule="nonzero" d="M192.5 51c-.055-.102-.105-.208-.15-.315l-.39-.945c-.345-.9-.84-2.175-1.5-3.81l.135.09-9 1.275.165-.18c-.135 1.65-.285 3.48-.45 5.43v.15h-.135c-1.794.776-3.479 1.784-5.01 3l-.12.09h-.15l-4.965-2.235.33-.09-5.43 7.2v-.51l3.525 4.17.12.15-.075.18c-.753 1.793-1.258 3.68-1.5 5.61v.24h-.195l-5.1 1.92.225-.375c.375 2.805.795 5.835 1.215 9l-.315-.315 5.415.465h.225l.09.21c.746 1.789 1.73 3.469 2.925 4.995l.135.18-.09.21c-.705 1.5-1.5 3.24-2.265 4.965l-.12-.465 7.185 5.46h-.48l4.17-3.495.18-.15.225.09c1.784.749 3.661 1.253 5.58 1.5.15.105-.315-.255.315.255v.24l.12.315.24.645.48 1.275c.315.855.645 1.71.96 2.55l-.42-.255 9-1.2-.345.345c.165-1.83.33-3.63.48-5.43v-.225l.21-.09c1.806-.73 3.506-1.698 5.055-2.88l.18-.135.21.09 4.965 2.265-.45.12 5.46-7.17v.45l-3.495-4.185-.135-.165.075-.195c.748-1.79 1.253-3.671 1.5-5.595v-.21h.195l5.19-2.01-.21.345c-.42-3.135-.81-6.105-1.185-9l.27.27-5.43-.51h-.165l-.075-.15c-.733-1.799-1.707-3.49-2.895-5.025l-.105-.135.075-.135 2.28-4.95.075.285-7.155-5.505h.225l-4.215 3.51c-1.361-.57-2.772-1.011-4.215-1.32l-1.065-.21-.405.03c.119-.023.241-.023.36 0 .368.029.733.079 1.095.15 1.464.254 2.897.661 4.275 1.215h-.12l4.14-3.54.105-.09.12.09 7.2 5.415.15.12-.075.165-2.25 4.935v-.255c1.226 1.567 2.235 3.293 3 5.13l-.24-.18 5.43.465h.24v.24l1.245 9v.255l-.24.09-5.1 1.92.21-.27c-.24 1.983-.744 3.926-1.5 5.775v-.36c1.14 1.365 2.31 2.76 3.51 4.17l.18.225-.18.225-5.52 7.11-.18.24-.27-.135-4.965-2.25h.39c-1.58 1.223-3.315 2.232-5.16 3l.225-.315c-.15 1.785-.315 3.6-.465 5.43v.3h-.3l-9 1.215h-.315l-.105-.3c-.315-.84-.63-1.695-.96-2.535l-.465-1.29-.24-.63-.12-.33v-.165c.63.495.165.135.315.255-1.982-.246-3.924-.75-5.775-1.5h.405l-4.185 3.495-.24.195-.24-.18-7.17-5.475-.255-.18.135-.285 2.265-4.95V87c-1.226-1.584-2.235-3.324-3-5.175l.315.225-5.43-.48h-.285v-.285c-.405-3.105-.81-6.135-1.185-9v-.27l.255-.105 5.115-1.89-.21.27c.236-1.98.74-3.917 1.5-5.76v.33l-3.495-4.2-.165-.18.15-.195 5.49-7.155.135-.18.195.09 4.95 2.28h-.255c1.571-1.229 3.302-2.238 5.145-3l-.135.195c.18-1.95.345-3.78.51-5.43v-.165h.15l9-1.14h.09v.105c.57 1.62 1.02 2.895 1.35 3.795.135.405.24.735.33.99.047.107.087.218.12.33z"/>
            <path fill="#4878FF" d="M176.6 103.995c1.078.14 2.132.422 3.135.84L182 102.9l3.96 3-1.245 2.73c.665.86 1.214 1.803 1.635 2.805l3 .27.675 4.935-2.82 1.05c-.135 1.077-.412 2.131-.825 3.135l1.935 2.31-3 3.96-2.745-1.245c-.86.666-1.802 1.216-2.805 1.635l-.255 3-4.935.675-1.05-2.82c-1.077-.135-2.131-.412-3.135-.825l-2.31 1.935-3.96-3 1.245-2.745c-.671-.856-1.221-1.8-1.635-2.805l-3-.255-.66-4.935 2.805-1.05c.14-1.078.422-2.132.84-3.135l-1.935-2.31 3-3.96 2.73 1.245c.86-.665 1.803-1.214 2.805-1.635l.27-3 4.935-.66 1.05 2.805.03-.015zm-2.025 6.855c-2.147.292-3.905 1.852-4.45 3.948-.544 2.097.232 4.315 1.965 5.615 1.733 1.3 4.08 1.424 5.94.314 1.86-1.11 2.866-3.234 2.545-5.377-.433-2.888-3.106-4.893-6-4.5z"/>
            <circle cx="366.168" cy="94.109" r="66.045" fill="#FFF" fill-rule="nonzero" transform="rotate(-45 366.168 94.11)"/>
            <path fill="#4878FF" fill-rule="nonzero" d="M432.215 94.11s0-.36-.09-1.065-.12-1.785-.195-3.135c0-.69-.09-1.5-.15-2.31s-.255-1.77-.405-2.76c-.15-.99-.33-2.07-.51-3.21-.225-1.22-.516-2.426-.87-3.615-1.532-6.177-3.995-12.085-7.305-17.52-4.326-7.236-10.004-13.57-16.725-18.66l-2.85-2.115c-.99-.66-2.055-1.26-3.09-1.905-1.035-.645-2.025-1.335-3.21-1.815l-3.405-1.65-1.74-.81-1.83-.675-3.69-1.365c-1.26-.405-2.58-.675-3.87-1.035-1.307-.376-2.634-.676-3.975-.9-2.746-.503-5.522-.824-8.31-.96-1.5 0-2.85-.18-4.29-.165l-4.35.225c-.72 0-1.5 0-2.19.15l-2.19.33c-1.5.24-3 .42-4.5.72-2.97.67-5.897 1.527-8.76 2.565-2.936 1.061-5.798 2.319-8.565 3.765-1.38.75-2.715 1.635-4.08 2.445-.675.435-1.395.795-2.04 1.29l-1.935 1.5c-2.638 1.941-5.143 4.056-7.5 6.33l-3.345 3.675-.84.93-.75.99-1.5 2.025-1.5 2.01-1.32 2.16-1.32 2.175-.66 1.095-.57 1.155c-.735 1.5-1.5 3.075-2.22 4.62l-1.785 4.86c-2.123 6.676-3.23 13.634-3.285 20.64.081 7.041 1.224 14.03 3.39 20.73l1.77 4.86c.75 1.5 1.5 3.09 2.235 4.635l.555 1.155.675 1.08 1.32 2.175 1.32 2.16 1.5 2.025 1.5 2.01.75 1.005.84.93c1.11 1.23 2.235 2.445 3.33 3.675 2.357 2.274 4.863 4.388 7.5 6.33l1.935 1.5c.645.495 1.365.855 2.025 1.29 1.38.81 2.715 1.695 4.095 2.445 5.478 2.849 11.301 4.977 17.325 6.33 1.5.3 3 .48 4.5.72l2.19.33c.735.105 1.5.105 2.19.15l4.35.225c1.5 0 2.865-.12 4.29-.165 2.788-.134 5.565-.455 8.31-.96 1.341-.224 2.668-.524 3.975-.9 1.305-.36 2.61-.63 3.87-1.035l3.705-1.35 1.815-.675 1.74-.825 3.42-1.635c1.125-.51 2.145-1.245 3.195-1.845 1.05-.6 2.1-1.245 3.09-1.905l2.85-2.115c6.72-5.09 12.4-11.424 16.725-18.66 3.313-5.44 5.776-11.352 7.305-17.535.356-1.183.646-2.385.87-3.6.18-1.14.345-2.205.51-3.21.165-1.005.33-1.905.405-2.76.075-.855.105-1.62.15-2.31.075-1.35.15-2.4.195-3.135.045-.735.09-1.065.09-1.065v1.065c0 .705-.075 1.785-.12 3.15 0 .69 0 1.5-.105 2.31s-.24 1.77-.375 2.775-.3 2.085-.48 3.24c-.21 1.219-.485 2.426-.825 3.615-1.497 6.228-3.935 12.192-7.23 17.685-4.32 7.314-10.014 13.722-16.77 18.87l-2.85 2.145c-1.005.675-2.07 1.275-3.12 1.935-1.05.66-2.085 1.35-3.225 1.875l-3.54 1.665-1.755.84-1.83.675-3.735 1.365c-1.275.435-2.595.705-3.915 1.065-1.316.383-2.653.688-4.005.915-2.773.53-5.58.86-8.4.99-1.425 0-2.865.195-4.32.18l-4.395-.21c-.735 0-1.5 0-2.22-.15l-2.22-.33c-1.5-.24-3-.42-4.5-.72-3.008-.666-5.97-1.528-8.865-2.58-2.975-1.062-5.872-2.33-8.67-3.795-1.41-.765-2.745-1.635-4.14-2.46-.675-.435-1.41-.81-2.055-1.305l-1.95-1.5c-2.64-1.966-5.145-4.106-7.5-6.405l-3.39-3.705-.84-.945-.765-1.005-1.5-2.04-1.5-2.04-1.335-2.19-1.335-2.19-.675-1.11-.57-1.155L305 120c-.6-1.635-1.2-3.27-1.815-4.92-2.188-6.789-3.34-13.868-3.42-21 .076-7.133 1.234-14.214 3.435-21l1.8-4.92 2.265-4.68.57-1.17.66-1.095 1.335-2.205 1.35-2.175 1.5-2.055 1.5-2.025.765-1.02.855-.93 3.375-3.705c2.358-2.296 4.864-4.435 7.5-6.405l1.95-1.5c.645-.495 1.38-.87 2.055-1.305 1.395-.81 2.745-1.695 4.14-2.46 2.798-1.465 5.695-2.733 8.67-3.795 2.891-1.05 5.847-1.912 8.85-2.58 1.5-.3 3-.48 4.5-.72l2.22-.33c.735-.105 1.5-.09 2.22-.15l4.395-.21c1.5 0 2.895.12 4.32.18 2.815.128 5.617.46 8.385.99 1.357.225 2.7.53 4.02.915 1.32.36 2.64.645 3.915 1.065l3.72 1.365 1.845.675 1.74.84 3.45 1.665c1.14.525 2.16 1.26 3.225 1.875s2.1 1.26 3.105 1.92l2.865 2.16c6.756 5.148 12.45 11.556 16.77 18.87 3.32 5.538 5.768 11.553 7.26 17.835.34 1.19.616 2.396.825 3.615.18 1.155.33 2.235.48 3.24.15 1.005.3 1.92.375 2.775.075.855.075 1.62.105 2.31 0 1.365.09 2.415.12 3.15.03.735.015 1.02.015 1.02z"/>
            <circle cx="364.245" cy="94.474" r="33.24" fill="#F5F5F5" fill-rule="nonzero" transform="rotate(-65.66 364.245 94.474)"/>
            <path fill="#263238" fill-rule="nonzero" d="M331.055 92.28c.02.18.02.36 0 .54v2.745c0 .42.075.885.12 1.395.082 1.16.243 2.312.48 3.45.58 3.14 1.633 6.174 3.12 9 1.936 3.756 4.574 7.106 7.77 9.87 3.886 3.368 8.511 5.773 13.5 7.02 5.705 1.437 11.69 1.328 17.34-.315 1.499-.437 2.967-.973 4.395-1.605 1.45-.672 2.848-1.45 4.185-2.325 1.374-.88 2.687-1.853 3.93-2.91 1.234-1.122 2.391-2.324 3.465-3.6 2.209-2.606 3.986-5.548 5.265-8.715 2.693-6.563 3.172-13.825 1.365-20.685-.848-3.317-2.231-6.473-4.095-9.345-.91-1.405-1.911-2.748-3-4.02-1.099-1.206-2.27-2.344-3.51-3.405-1.218-1.037-2.506-1.99-3.855-2.85-1.334-.814-2.722-1.536-4.155-2.16-14.454-6.348-31.38-1.57-40.38 11.4-1.847 2.606-3.284 5.48-4.26 8.52-.397 1.094-.708 2.217-.93 3.36-.105.495-.24.945-.315 1.365-.075.42-.105.81-.15 1.155-.09.66-.165 1.17-.225 1.5-.01.184-.045.366-.105.54v-.54c0-.36.09-.915.15-1.5 0-.36 0-.735.105-1.17.105-.435.18-.885.285-1.38.193-1.156.479-2.295.855-3.405.947-3.093 2.364-6.022 4.2-8.685 5.421-7.936 13.984-13.168 23.52-14.37 5.964-.724 12.014.162 17.52 2.565 1.49.66 2.934 1.422 4.32 2.28 1.382.87 2.7 1.838 3.945 2.895 1.27 1.086 2.471 2.248 3.6 3.48 1.096 1.297 2.099 2.67 3 4.11 1.91 2.935 3.33 6.163 4.2 9.555 1.858 7.018 1.368 14.451-1.395 21.165-1.299 3.274-3.123 6.314-5.4 9-1.104 1.3-2.291 2.529-3.555 3.675-1.273 1.087-2.615 2.09-4.02 3-1.37.894-2.804 1.686-4.29 2.37-1.46.644-2.964 1.185-4.5 1.62-10.95 3.184-22.769.553-31.335-6.975-3.229-2.829-5.877-6.257-7.8-10.095-1.46-2.88-2.471-5.965-3-9.15-.223-1.153-.358-2.321-.405-3.495 0-.51-.09-.975-.09-1.41v-1.17V93l.135-.72z"/>
            <path fill="#263238" fill-rule="nonzero" d="M379.31 95.475c-.389.042-.781.042-1.17 0h-14.31V93.33 81c0-1.5 0-2.79.075-3.735-.016-.461.01-.923.075-1.38.067.457.097.918.09 1.38v18.21l-.21-.21h14.1c.456.027.908.097 1.35.21zM364.145 66.675c.21.914.28 1.855.21 2.79.071.94 0 1.886-.21 2.805-.21-.92-.281-1.865-.21-2.805-.07-.935 0-1.876.21-2.79zM379.28 71.16c-.476.793-1.08 1.502-1.785 2.1-.605.702-1.313 1.31-2.1 1.8.48-.794 1.089-1.504 1.8-2.1.602-.7 1.305-1.307 2.085-1.8zM388.145 80.835c-.705.587-1.475 1.09-2.295 1.5-.752.534-1.562.982-2.415 1.335.614-.704 1.358-1.285 2.19-1.71.76-.534 1.615-.916 2.52-1.125zM393.335 95.19c-2.532.28-5.088.28-7.62 0 2.532-.28 5.088-.28 7.62 0zM340.535 94.68c-2.386.3-4.8.3-7.185 0 2.387-.28 4.798-.28 7.185 0zM344.27 105.375c-.81.92-1.72 1.745-2.715 2.46-.912.826-1.92 1.54-3 2.13 1.715-1.746 3.628-3.287 5.7-4.59h.015zM353.48 113.64c-.53 1.112-1.147 2.18-1.845 3.195-.568 1.097-1.226 2.145-1.965 3.135.36-1.193.896-2.325 1.59-3.36.584-1.098 1.332-2.1 2.22-2.97zM364.145 124.29c-.212-1.258-.282-2.536-.21-3.81-.072-1.269-.002-2.542.21-3.795.212 1.253.282 2.526.21 3.795.072 1.274.002 2.552-.21 3.81zM380.555 119.22c-1.156-.537-2.216-1.261-3.135-2.145-1.012-.784-1.88-1.738-2.565-2.82.996.776 1.948 1.607 2.85 2.49.997.77 1.948 1.596 2.85 2.475zM388.25 111c-.93-.632-1.776-1.378-2.52-2.22-.842-.744-1.588-1.59-2.22-2.52.932.634 1.783 1.38 2.535 2.22.845.737 1.586 1.585 2.205 2.52zM344 84.45c-.856-.535-1.629-1.192-2.295-1.95-.75-.642-1.398-1.396-1.92-2.235.824.536 1.57 1.182 2.22 1.92.774.651 1.447 1.415 1.995 2.265zM353.435 74.43c-.823-.507-1.562-1.14-2.19-1.875-.733-.628-1.37-1.361-1.89-2.175.803.517 1.526 1.148 2.145 1.875.742.633 1.393 1.365 1.935 2.175z"/>
            <circle cx="387.654" cy="66.106" r="17.35" fill="#4878FF" fill-rule="nonzero" transform="rotate(-22.443 387.654 66.107)"/>
            <path fill="#FAFAFA" fill-rule="nonzero" d="M397.88 61.245c-.598 1.01-1.313 1.947-2.13 2.79-1.395 1.665-3.36 3.915-5.565 6.375l-1.77 1.965-.255.285-.285-.255c-1.98-1.785-3.69-3.375-4.89-4.5-.687-.574-1.301-1.228-1.83-1.95.784.419 1.51.938 2.16 1.545 1.29 1.05 3 2.565 5.07 4.32h-.54l1.77-1.98c2.205-2.46 4.23-4.65 5.73-6.225.757-.88 1.607-1.674 2.535-2.37z"/>
            <path fill="#4878FF" fill-rule="nonzero" d="M231.5 353.73c-.15-.15.99-1.41 2.52-2.79 1.53-1.38 2.91-2.385 3-2.22.09.165-.99 1.41-2.535 2.805-1.545 1.395-2.85 2.37-2.985 2.205zM220.34 363.765c-.135-.165.99-1.41 2.535-2.79 1.545-1.38 2.91-2.385 3-2.22.09.165-.99 1.41-2.52 2.79-1.53 1.38-2.865 2.385-3.015 2.22zM209.195 373.8c-.15-.165.99-1.41 2.52-2.805.846-.929 1.865-1.683 3-2.22.135.165-.99 1.425-2.535 2.805-.845.923-1.858 1.676-2.985 2.22zM198.035 383.835c-.135-.165.99-1.425 2.535-2.805 1.545-1.38 2.895-2.385 3-2.22.105.165-.99 1.41-2.52 2.805-.85.93-1.874 1.684-3.015 2.22zM186.89 393.855c-.15-.15.99-1.41 2.52-2.79 1.53-1.38 2.91-2.385 3-2.22.09.165-.99 1.41-2.535 2.79-1.545 1.38-2.85 2.385-2.985 2.22z"/>
            <circle cx="146.481" cy="447.381" r="66.045" fill="#FFF" fill-rule="nonzero" transform="rotate(-76.68 146.48 447.38)"/>
            <path fill="#4878FF" fill-rule="nonzero" d="M212.525 447.39s0-.36-.09-1.065-.12-1.77-.195-3.135c0-.69-.09-1.5-.135-2.31-.045-.81-.27-1.755-.42-2.76-.15-1.005-.33-2.07-.51-3.21-.225-1.215-.516-2.416-.87-3.6-1.535-6.18-3.998-12.093-7.305-17.535-4.33-7.233-10.008-13.567-16.725-18.66L183.5 393c-.99-.66-2.04-1.26-3.09-1.89-1.037-.675-2.109-1.296-3.21-1.86l-3.405-1.635-1.74-.825-1.815-.66-3.705-1.35c-1.26-.42-2.565-.69-3.87-1.035-1.305-.383-2.632-.684-3.975-.9-2.745-.51-5.521-.835-8.31-.975-1.5 0-2.85-.18-4.29-.165l-4.35.225c-.72 0-1.5 0-2.19.15l-2.19.33c-1.5.255-3 .42-4.5.72-2.973.669-5.9 1.53-8.76 2.58-2.939 1.05-5.8 2.302-8.565 3.75-1.38.765-2.715 1.635-4.08 2.445-.675.435-1.395.795-2.04 1.29l-1.935 1.5c-2.634 1.946-5.14 4.06-7.5 6.33l-3.345 3.69-.84.915-.75 1.005-1.5 2.01-1.5 2.025-1.32 2.16-1.32 2.175-.66 1.08-.57 1.155L86 421.815c-.6 1.605-1.185 3.225-1.785 4.86-4.52 13.44-4.52 27.99 0 41.43.585 1.635 1.185 3.255 1.77 4.86l2.235 4.635.555 1.155.675 1.095 1.32 2.175 1.32 2.16 1.5 2.01 1.5 2.025.75.99.84.93 3.345 3.675c2.357 2.274 4.862 4.389 7.5 6.33l1.935 1.5c.645.48 1.365.855 2.04 1.275 1.365.825 2.7 1.695 4.08 2.445 2.767 1.446 5.629 2.704 8.565 3.765 2.859 1.052 5.785 1.909 8.76 2.565 1.5.315 3 .48 4.5.72l2.19.345c.735.09 1.5.09 2.19.135l4.35.225c1.5 0 2.865-.12 4.29-.165 2.789-.127 5.566-.448 8.31-.96 1.343-.216 2.67-.517 3.975-.9 1.305-.36 2.61-.615 3.87-1.035l3.705-1.35 1.815-.66 1.74-.825 3.42-1.635c1.14-.525 2.145-1.26 3.195-1.86 1.05-.6 2.1-1.245 3.105-1.89l2.835-2.13c6.682-5.114 12.32-11.464 16.605-18.705 3.306-5.434 5.774-11.335 7.32-17.505.285-1.275.72-2.445.855-3.6.135-1.155.345-2.22.51-3.225.165-1.005.33-1.905.42-2.76.09-.855.09-1.605.135-2.295.075-1.365.15-2.415.195-3.135.045-.72.09-1.08.09-1.08v1.08c0 .72 0 1.77-.12 3.135 0 .69 0 1.5-.09 2.325-.09.825-.255 1.77-.39 2.775s-.3 2.07-.465 3.225c-.165 1.155-.555 2.34-.84 3.63-1.496 6.224-3.934 12.183-7.23 17.67-4.319 7.319-10.013 13.732-16.77 18.885l-2.85 2.145c-1.005.66-2.07 1.275-3.12 1.92-1.05.645-2.07 1.35-3.225 1.875l-3.435 1.665-1.755.84-1.83.675-3.735 1.38c-1.275.42-2.595.69-3.915 1.05-1.314.39-2.652.695-4.005.915-2.769.527-5.57.863-8.385 1.005-1.5 0-2.88.195-4.335.165l-4.395-.21c-.735 0-1.5 0-2.22-.135l-2.22-.42c-1.5-.24-3-.405-4.5-.72-6.096-1.359-11.99-3.502-17.535-6.375-1.395-.75-2.745-1.635-4.14-2.46-.675-.435-1.41-.81-2.055-1.29l-1.95-1.5c-2.636-1.965-5.142-4.1-7.5-6.39l-3.375-3.72-.855-.93-.765-1.02-1.5-2.025-1.5-2.055-1.335-2.175-1.335-2.205-.675-1.11-.57-1.155-2.25-4.68-1.8-4.935c-4.597-13.623-4.597-28.377 0-42l1.8-4.92c.765-1.5 1.5-3.12 2.265-4.68l.57-1.155.66-1.11 1.35-2.205 1.335-2.175 1.5-2.04 1.5-2.04.765-1.005.855-.945 3.345-3.48c2.358-2.296 4.864-4.435 7.5-6.405l1.95-1.5c.66-.495 1.38-.855 2.055-1.29 1.395-.825 2.745-1.71 4.14-2.475 2.801-1.46 5.698-2.727 8.67-3.795 2.912-1.038 5.888-1.885 8.91-2.535 1.5-.3 3-.465 4.5-.72l2.22-.33c.735-.09 1.5-.09 2.22-.135L146 381c1.5 0 2.895.12 4.32.18 2.819.144 5.625.475 8.4.99 1.352.227 2.689.532 4.005.915 1.32.36 2.64.645 3.915 1.065l3.72 1.365 1.845.675 1.755.84 3.435 1.665c1.14.525 2.16 1.275 3.225 1.89s2.115 1.245 3.12 1.92l2.85 2.145c6.756 5.148 12.45 11.556 16.77 18.87 3.295 5.493 5.733 11.457 7.23 17.685.285 1.275.705 2.46.84 3.615.135 1.155.315 2.235.465 3.24.15 1.005.3 1.92.39 2.775.09.855 0 1.62.09 2.31 0 1.365.09 2.415.12 3.15.03.735.03 1.095.03 1.095z"/>
            <path fill="#263238" fill-rule="nonzero" d="M179.615 477c-.424.042-.851.042-1.275 0l-3.66.09-13.5.135-44.325.12h-3.51V477c0-16.5.105-31.41.135-42.225 0-5.295.09-9.6.135-12.675v-3.435c-.018-.402.007-.804.075-1.2.07.396.1.798.09 1.2 0 .855 0 1.995.075 3.435 0 3.075 0 7.38.12 12.675 0 10.815.09 25.665.135 42.225l-.42-.42h3.165l44.325.12 13.5.135 3.66.075c.427-.009.854.021 1.275.09z"/>
            <path fill="#263238" fill-rule="nonzero" d="M172.295 431.865c-.6.68-1.258 1.307-1.965 1.875l-5.55 4.875c-4.725 4.095-11.28 9.705-18.555 15.885l-1.095.93-.285.24-.27-.255-8.25-7.665h.51l-12.105 9.99-3.525 2.76c-.403.357-.84.673-1.305.945.343-.42.73-.802 1.155-1.14l3.36-3 12-10.23.255-.225.255.24 8.295 7.62h-.555l1.095-.93c7.275-6.15 13.89-11.7 18.705-15.675l5.73-4.68c.661-.57 1.363-1.092 2.1-1.56z"/>
            <path fill="#263238" fill-rule="nonzero" d="M172.295 445.665c-.225-1.358-.32-2.734-.285-4.11 0-2.55-.12-6.075-.135-10.02l.42.42h-.705c-4.095 0-7.815 0-10.5-.12-1.456.045-2.914-.055-4.35-.3 1.439-.225 2.894-.32 4.35-.285 2.67-.075 6.39-.135 10.5-.135h1.125v.405c0 3.945 0 7.5-.135 10.02.045 1.381-.05 2.763-.285 4.125z"/>
            <circle cx="80.438" cy="262.428" r="66.045" fill="#FFF" fill-rule="nonzero" transform="rotate(-76.13 80.438 262.428)"/>
            <path fill="#4878FF" fill-rule="nonzero" d="M146.48 262.5s0-.36-.09-1.08c-.09-.72-.12-1.77-.195-3.135 0-.69-.045-1.455-.135-2.295-.09-.855-.27-1.77-.42-2.76-.15-.99-.33-2.07-.51-3.225-.225-1.215-.516-2.416-.87-3.6-1.51-6.2-3.958-12.134-7.26-17.595-4.335-7.243-10.03-13.58-16.77-18.66l-2.85-2.13c-.99-.645-2.04-1.245-3.09-1.89-1.05-.645-2.07-1.335-3.21-1.86l-3.405-1.635-1.74-.825-1.815-.66-3.705-1.35c-1.26-.42-2.565-.675-3.87-1.035-1.305-.383-2.632-.684-3.975-.9-2.745-.512-5.521-.832-8.31-.96-1.5 0-2.85-.195-4.29-.165l-4.35.225c-.72 0-1.5 0-2.19.135l-2.19.345c-1.5.24-3 .405-4.425.72-2.975.656-5.901 1.513-8.76 2.565-2.936 1.061-5.798 2.319-8.565 3.765-1.38.75-2.715 1.62-4.08 2.445-.675.42-1.395.795-2.04 1.275l-1.935 1.5c-2.638 1.941-5.143 4.056-7.5 6.33l-3.345 3.675-.84.93-.75.99-1.5 2.01-1.5 2.025-1.32 2.16-1.32 2.175-.66 1.095-.57 1.14c-.735 1.5-1.5 3.09-2.22 4.635l-1.785 4.86c-4.52 13.445-4.52 28 0 41.445L20 288c.75 1.5 1.5 3.09 2.235 4.635l.555 1.14.675 1.095 1.26 2.13L26 299.205l1.5 2.025 1.5 2.01.75 1.005.84.915 3.345 3.675c2.357 2.279 4.862 4.399 7.5 6.345l1.935 1.5c.645.495 1.365.855 2.04 1.29 1.365.81 2.7 1.68 4.08 2.445 2.767 1.446 5.629 2.704 8.565 3.765 2.863 1.038 5.79 1.895 8.76 2.565 1.5.3 3 .48 4.425.72l2.19.33c.735.105 1.5.09 2.19.15l4.35.225c1.5 0 2.865-.12 4.29-.165 2.79-.132 5.566-.458 8.31-.975 1.343-.216 2.67-.517 3.975-.9 1.305-.345 2.61-.615 3.87-1.035l3.705-1.35 1.815-.66 1.74-.825 3.42-1.635c1.098-.56 2.165-1.182 3.195-1.86 1.05-.63 2.1-1.23 3.105-1.89 1.005-.66 1.905-1.5 2.835-2.115 6.74-5.106 12.433-11.462 16.77-18.72 3.306-5.445 5.773-11.356 7.32-17.535.285-1.275.72-2.445.855-3.6.135-1.155.345-2.22.51-3.21.165-.99.33-1.92.42-2.76.09-.84.09-1.62.135-2.31.075-1.365.15-2.4.195-3.135.045-.735.09-1.065.09-1.065v1.065c0 .705 0 1.785-.12 3.15 0 .69 0 1.5-.09 2.31s-.255 1.77-.39 2.775-.3 2.085-.465 3.225c-.165 1.14-.555 2.355-.84 3.63-1.494 6.225-3.932 12.184-7.23 17.67-4.35 7.332-10.087 13.747-16.89 18.885l-2.85 2.145c-1.005.66-2.07 1.275-3.12 1.92-1.05.645-2.07 1.365-3.225 1.89l-3.435 1.665-1.755.825-1.83.69-3.735 1.365c-1.275.42-2.595.69-3.915 1.065-1.316.383-2.653.688-4.005.915-2.775.515-5.581.846-8.4.99-1.5 0-2.865.195-4.32.18l-4.335-.285c-.735 0-1.5 0-2.22-.135l-2.205-.33c-1.5-.24-3-.42-4.5-.72-3.008-.666-5.97-1.528-8.865-2.58-2.96-1.05-5.847-2.298-8.64-3.735-1.395-.765-2.745-1.65-4.14-2.475-.675-.435-1.41-.795-2.055-1.29l-1.95-1.5c-2.636-1.97-5.142-4.11-7.5-6.405l-3.375-3.72-.855-.93-.765-1.005-1.5-2.04-1.5-2.04-1.335-2.19-1.335-2.205-.675-1.095-.66-1.125c-.75-1.55-1.5-3.11-2.25-4.68l-1.8-4.92c-4.58-13.6-4.58-28.325 0-41.925l1.8-4.92 2.25-4.695.57-1.155.66-1.095 1.335-2.205 1.35-2.19 1.5-2.04 1.5-2.04.765-1.005.855-.93 3.465-3.72c2.355-2.295 4.86-4.43 7.5-6.39l1.95-1.5c.66-.48 1.38-.855 2.055-1.29 1.395-.825 2.745-1.71 4.14-2.46 2.798-1.465 5.695-2.733 8.67-3.795 2.894-1.059 5.855-1.92 8.865-2.58 1.5-.315 3-.48 4.5-.72l2.22-.345c.735-.09 1.5-.09 2.22-.135l4.395-.21c1.5 0 2.895.12 4.32.165 2.82.142 5.626.478 8.4 1.005 1.353.22 2.69.525 4.005.915 1.32.36 2.64.63 3.915 1.05l3.72 1.38 1.845.675 1.755.84 3.435 1.665c1.107.57 2.183 1.195 3.225 1.875 1.05.645 2.1 1.26 3.105 1.92l2.76 2.175c6.757 5.153 12.451 11.566 16.77 18.885 3.296 5.487 5.734 11.446 7.23 17.67.34 1.194.616 2.406.825 3.63.18 1.155.33 2.235.48 3.225.15.99.3 1.935.39 2.775.09.84 0 1.635.09 2.325 0 1.365.09 2.4.12 3.135.03.735.075 1.155.075 1.155z"/>
            <path fill="#FAFAFA" fill-rule="nonzero" d="M82.145 233.7l7.155 14.505c.276.549.802.93 1.41 1.02l15.99 2.325c.705.092 1.295.58 1.516 1.256.22.676.034 1.418-.481 1.909l-11.58 11.28c-.43.434-.63 1.046-.54 1.65l2.745 15.945c.115.696-.174 1.398-.746 1.811-.572.413-1.33.467-1.954.139l-14.31-7.5c-.545-.285-1.195-.285-1.74 0l-14.31 7.5c-.625.328-1.382.274-1.954-.139-.572-.413-.861-1.115-.746-1.811l2.745-15.945c.09-.604-.11-1.216-.54-1.65l-11.58-11.28c-.515-.49-.702-1.233-.48-1.909.22-.676.81-1.164 1.515-1.256l15.99-2.325c.608-.09 1.134-.471 1.41-1.02l7.155-14.505c.315-.632.96-1.03 1.665-1.03.706 0 1.35.398 1.665 1.03z"/>
            <path fill="#263238" fill-rule="nonzero" d="M82.145 233.7c-.093-.13-.193-.256-.3-.375-.425-.448-1.049-.65-1.656-.534-.606.115-1.113.531-1.344 1.104l-1.395 2.91-3.84 7.935-1.17 2.4c-.21.42-.405.84-.615 1.275-.278.472-.722.825-1.245.99-1.995.33-3.99.6-6.15.93l-6.72 1.005-3.54.54c-.526.103-.958.48-1.13.987-.174.508-.063 1.07.29 1.473L65 265.65c.643.568.915 1.448.705 2.28l-.36 2.145c-.255 1.5-.495 2.91-.75 4.38-.51 3-1.01 6-1.5 9-.167.632.093 1.3.645 1.65.269.168.584.247.9.225.338-.056.66-.184.945-.375l4.245-2.22 8.655-4.5 1.11-.585c.467-.221.996-.28 1.5-.165.424.133.832.314 1.215.54l1.08.57 4.11 2.25 8.385 4.41c.583.24 1.255.09 1.68-.375.207-.23.338-.518.375-.825-.002-.348-.042-.695-.12-1.035l-.765-4.5c-.51-3-.99-5.85-1.5-8.67l-.36-2.115c-.156-.82.149-1.66.795-2.19l3-2.865 5.655-5.49c.915-.885 1.815-1.77 2.7-2.61.436-.306.678-.82.634-1.35-.043-.53-.364-.999-.844-1.23-.51-.196-1.045-.313-1.59-.345l-1.695-.255-3.3-.495-6.105-.915-2.805-.42c-.465-.09-.87-.105-1.38-.24-.47-.157-.869-.476-1.125-.9l-3.855-7.95L83 235.5l-.615-1.32c-.07-.15-.13-.306-.18-.465.103.129.188.27.255.42l.675 1.29 2.535 4.965 3.96 7.86c.205.333.525.578.9.69.426.092.857.162 1.29.21l2.82.39 6.12.87 3.285.465 1.71.24c.618.036 1.226.173 1.8.405.622.335 1.033.961 1.095 1.665.07.71-.21 1.41-.75 1.875l-2.685 2.625-5.715 5.52-3 2.88c-.47.344-.698.929-.585 1.5l.36 2.115c.48 2.82.99 5.7 1.5 8.655l.765 4.5c.103.407.148.826.135 1.245-.045.469-.24.91-.555 1.26-.639.719-1.666.948-2.55.57l-8.445-4.425-4.305-2.265-1.095-.57c-.315-.196-.652-.352-1.005-.465-.323-.072-.66-.035-.96.105l-1.08.57-8.655 4.5-4.245 2.22c-.38.235-.803.388-1.245.45-.48.038-.96-.083-1.365-.345-.813-.517-1.21-1.492-.99-2.43.53-3.06 1.03-6.06 1.5-9 .255-1.5.51-3 .75-4.38.135-.72.255-1.5.375-2.16.192-.595-.005-1.246-.495-1.635l-11.625-11.415c-.473-.586-.604-1.378-.345-2.085.23-.686.797-1.207 1.5-1.38l3.615-.525 6.72-.96 6-.87c.41-.115.759-.384.975-.75.21-.42.405-.84.615-1.245l1.2-2.385c1.5-3 2.865-5.7 3.96-7.875l1.5-2.88c.337-.781 1.132-1.263 1.98-1.2.503.042.968.285 1.29.675.2.112.358.285.45.495z"/>
            <circle cx="80.438" cy="262.428" r="66.045" fill="#FFF" fill-rule="nonzero" transform="rotate(-76.13 80.438 262.428)"/>
            <path fill="#4878FF" fill-rule="nonzero" d="M146.48 262.5s0-.36-.09-1.08c-.09-.72-.12-1.77-.195-3.135 0-.69-.045-1.455-.135-2.295-.09-.855-.27-1.77-.42-2.76-.15-.99-.33-2.07-.51-3.225-.225-1.215-.516-2.416-.87-3.6-1.51-6.2-3.958-12.134-7.26-17.595-4.335-7.243-10.03-13.58-16.77-18.66l-2.85-2.13c-.99-.645-2.04-1.245-3.09-1.89-1.05-.645-2.07-1.335-3.21-1.86l-3.405-1.635-1.74-.825-1.815-.66-3.705-1.35c-1.26-.42-2.565-.675-3.87-1.035-1.305-.383-2.632-.684-3.975-.9-2.745-.512-5.521-.832-8.31-.96-1.5 0-2.85-.195-4.29-.165l-4.35.225c-.72 0-1.5 0-2.19.135l-2.19.345c-1.5.24-3 .405-4.425.72-2.975.656-5.901 1.513-8.76 2.565-2.936 1.061-5.798 2.319-8.565 3.765-1.38.75-2.715 1.62-4.08 2.445-.675.42-1.395.795-2.04 1.275l-1.935 1.5c-2.638 1.941-5.143 4.056-7.5 6.33l-3.345 3.675-.84.93-.75.99-1.5 2.01-1.5 2.025-1.32 2.16-1.32 2.175-.66 1.095-.57 1.14c-.735 1.5-1.5 3.09-2.22 4.635l-1.785 4.86c-4.52 13.445-4.52 28 0 41.445L20 288c.75 1.5 1.5 3.09 2.235 4.635l.555 1.14.675 1.095 1.26 2.13L26 299.205l1.5 2.025 1.5 2.01.75 1.005.84.915 3.345 3.675c2.357 2.279 4.862 4.399 7.5 6.345l1.935 1.5c.645.495 1.365.855 2.04 1.29 1.365.81 2.7 1.68 4.08 2.445 2.767 1.446 5.629 2.704 8.565 3.765 2.863 1.038 5.79 1.895 8.76 2.565 1.5.3 3 .48 4.425.72l2.19.33c.735.105 1.5.09 2.19.15l4.35.225c1.5 0 2.865-.12 4.29-.165 2.79-.132 5.566-.458 8.31-.975 1.343-.216 2.67-.517 3.975-.9 1.305-.345 2.61-.615 3.87-1.035l3.705-1.35 1.815-.66 1.74-.825 3.42-1.635c1.098-.56 2.165-1.182 3.195-1.86 1.05-.63 2.1-1.23 3.105-1.89 1.005-.66 1.905-1.5 2.835-2.115 6.74-5.106 12.433-11.462 16.77-18.72 3.306-5.445 5.773-11.356 7.32-17.535.285-1.275.72-2.445.855-3.6.135-1.155.345-2.22.51-3.21.165-.99.33-1.92.42-2.76.09-.84.09-1.62.135-2.31.075-1.365.15-2.4.195-3.135.045-.735.09-1.065.09-1.065v1.065c0 .705 0 1.785-.12 3.15 0 .69 0 1.5-.09 2.31s-.255 1.77-.39 2.775-.3 2.085-.465 3.225c-.165 1.14-.555 2.355-.84 3.63-1.494 6.225-3.932 12.184-7.23 17.67-4.35 7.332-10.087 13.747-16.89 18.885l-2.85 2.145c-1.005.66-2.07 1.275-3.12 1.92-1.05.645-2.07 1.365-3.225 1.89l-3.435 1.665-1.755.825-1.83.69-3.735 1.365c-1.275.42-2.595.69-3.915 1.065-1.316.383-2.653.688-4.005.915-2.775.515-5.581.846-8.4.99-1.5 0-2.865.195-4.32.18l-4.335-.285c-.735 0-1.5 0-2.22-.135l-2.205-.33c-1.5-.24-3-.42-4.5-.72-3.008-.666-5.97-1.528-8.865-2.58-2.96-1.05-5.847-2.298-8.64-3.735-1.395-.765-2.745-1.65-4.14-2.475-.675-.435-1.41-.795-2.055-1.29l-1.95-1.5c-2.636-1.97-5.142-4.11-7.5-6.405l-3.375-3.72-.855-.93-.765-1.005-1.5-2.04-1.5-2.04-1.335-2.19-1.335-2.205-.675-1.095-.66-1.125c-.75-1.55-1.5-3.11-2.25-4.68l-1.8-4.92c-4.58-13.6-4.58-28.325 0-41.925l1.8-4.92 2.25-4.695.57-1.155.66-1.095 1.335-2.205 1.35-2.19 1.5-2.04 1.5-2.04.765-1.005.855-.93 3.465-3.72c2.355-2.295 4.86-4.43 7.5-6.39l1.95-1.5c.66-.48 1.38-.855 2.055-1.29 1.395-.825 2.745-1.71 4.14-2.46 2.798-1.465 5.695-2.733 8.67-3.795 2.894-1.059 5.855-1.92 8.865-2.58 1.5-.315 3-.48 4.5-.72l2.22-.345c.735-.09 1.5-.09 2.22-.135l4.395-.21c1.5 0 2.895.12 4.32.165 2.82.142 5.626.478 8.4 1.005 1.353.22 2.69.525 4.005.915 1.32.36 2.64.63 3.915 1.05l3.72 1.38 1.845.675 1.755.84 3.435 1.665c1.107.57 2.183 1.195 3.225 1.875 1.05.645 2.1 1.26 3.105 1.92l2.76 2.175c6.757 5.153 12.451 11.566 16.77 18.885 3.296 5.487 5.734 11.446 7.23 17.67.34 1.194.616 2.406.825 3.63.18 1.155.33 2.235.48 3.225.15.99.3 1.935.39 2.775.09.84 0 1.635.09 2.325 0 1.365.09 2.4.12 3.135.03.735.075 1.155.075 1.155z"/>
            <path fill="#FAFAFA" fill-rule="nonzero" d="M82.145 233.7l7.155 14.505c.276.549.802.93 1.41 1.02l15.99 2.325c.705.092 1.295.58 1.516 1.256.22.676.034 1.418-.481 1.909l-11.58 11.28c-.43.434-.63 1.046-.54 1.65l2.745 15.945c.115.696-.174 1.398-.746 1.811-.572.413-1.33.467-1.954.139l-14.31-7.5c-.545-.285-1.195-.285-1.74 0l-14.31 7.5c-.625.328-1.382.274-1.954-.139-.572-.413-.861-1.115-.746-1.811l2.745-15.945c.09-.604-.11-1.216-.54-1.65l-11.58-11.28c-.515-.49-.702-1.233-.48-1.909.22-.676.81-1.164 1.515-1.256l15.99-2.325c.608-.09 1.134-.471 1.41-1.02l7.155-14.505c.315-.632.96-1.03 1.665-1.03.706 0 1.35.398 1.665 1.03z"/>
            <path fill="#263238" fill-rule="nonzero" d="M82.145 233.7c-.093-.13-.193-.256-.3-.375-.425-.448-1.049-.65-1.656-.534-.606.115-1.113.531-1.344 1.104l-1.395 2.91-3.84 7.935-1.17 2.4c-.21.42-.405.84-.615 1.275-.278.472-.722.825-1.245.99-1.995.33-3.99.6-6.15.93l-6.72 1.005-3.54.54c-.526.103-.958.48-1.13.987-.174.508-.063 1.07.29 1.473L65 265.65c.643.568.915 1.448.705 2.28l-.36 2.145c-.255 1.5-.495 2.91-.75 4.38-.51 3-1.01 6-1.5 9-.167.632.093 1.3.645 1.65.269.168.584.247.9.225.338-.056.66-.184.945-.375l4.245-2.22 8.655-4.5 1.11-.585c.467-.221.996-.28 1.5-.165.424.133.832.314 1.215.54l1.08.57 4.11 2.25 8.385 4.41c.583.24 1.255.09 1.68-.375.207-.23.338-.518.375-.825-.002-.348-.042-.695-.12-1.035l-.765-4.5c-.51-3-.99-5.85-1.5-8.67l-.36-2.115c-.156-.82.149-1.66.795-2.19l3-2.865 5.655-5.49c.915-.885 1.815-1.77 2.7-2.61.436-.306.678-.82.634-1.35-.043-.53-.364-.999-.844-1.23-.51-.196-1.045-.313-1.59-.345l-1.695-.255-3.3-.495-6.105-.915-2.805-.42c-.465-.09-.87-.105-1.38-.24-.47-.157-.869-.476-1.125-.9l-3.855-7.95L83 235.5l-.615-1.32c-.07-.15-.13-.306-.18-.465.103.129.188.27.255.42l.675 1.29 2.535 4.965 3.96 7.86c.205.333.525.578.9.69.426.092.857.162 1.29.21l2.82.39 6.12.87 3.285.465 1.71.24c.618.036 1.226.173 1.8.405.622.335 1.033.961 1.095 1.665.07.71-.21 1.41-.75 1.875l-2.685 2.625-5.715 5.52-3 2.88c-.47.344-.698.929-.585 1.5l.36 2.115c.48 2.82.99 5.7 1.5 8.655l.765 4.5c.103.407.148.826.135 1.245-.045.469-.24.91-.555 1.26-.639.719-1.666.948-2.55.57l-8.445-4.425-4.305-2.265-1.095-.57c-.315-.196-.652-.352-1.005-.465-.323-.072-.66-.035-.96.105l-1.08.57-8.655 4.5-4.245 2.22c-.38.235-.803.388-1.245.45-.48.038-.96-.083-1.365-.345-.813-.517-1.21-1.492-.99-2.43.53-3.06 1.03-6.06 1.5-9 .255-1.5.51-3 .75-4.38.135-.72.255-1.5.375-2.16.192-.595-.005-1.246-.495-1.635l-11.625-11.415c-.473-.586-.604-1.378-.345-2.085.23-.686.797-1.207 1.5-1.38l3.615-.525 6.72-.96 6-.87c.41-.115.759-.384.975-.75.21-.42.405-.84.615-1.245l1.2-2.385c1.5-3 2.865-5.7 3.96-7.875l1.5-2.88c.337-.781 1.132-1.263 1.98-1.2.503.042.968.285 1.29.675.2.112.358.285.45.495z"/>
        </g>
    </g>
</svg>
