<svg xmlns="http://www.w3.org/2000/svg" width="751" height="605" viewBox="0 0 751 605">
    <g fill="none" fill-rule="evenodd">
        <g>
            <g>
                <g>
                    <path stroke="#E1E5F0" stroke-width="3" d="M5.16 4.98H113.88V113.7H5.16z" transform="translate(317) translate(276.6) translate(0 24)"/>
                    <path fill="#E1E5F0" fill-rule="nonzero" d="M0.48 0.3H9.780000000000001V9.600000000000001H0.48z" transform="translate(317) translate(276.6) translate(0 24)"/>
                    <path fill="#D8DEED" fill-rule="nonzero" d="M0.48 109.08H9.780000000000001V118.38H0.48z" transform="translate(317) translate(276.6) translate(0 24)"/>
                    <path fill="#CCF2FF" fill-rule="nonzero" d="M109.26.3H118.56V9.600000000000001H109.26zM109.26 109.08H118.56V118.38H109.26z" transform="translate(317) translate(276.6) translate(0 24)"/>
                </g>
                <g fill-rule="nonzero">
                    <path fill="#E1E5F0" d="M59.7 66.9H7.56c-3.96 0-7.2-3.24-7.2-7.2V7.56C.36 3.6 3.6.36 7.56.36H59.7c3.96 0 7.2 3.24 7.2 7.2V59.7c0 3.96-3.24 7.2-7.2 7.2z" transform="translate(317) translate(276.6) translate(72.6)"/>
                    <path fill="#F2F6FB" d="M53.46 29.52c1.325 0 2.4 1.075 2.4 2.4v16.32c0 1.325-1.075 2.4-2.4 2.4-.999 0-1.855-.61-2.216-1.478-1.48.936-3.23 1.478-5.104 1.478-5.285 0-9.6-4.315-9.6-9.6 0-5.285 4.315-9.6 9.6-9.6 1.796 0 3.48.498 4.92 1.363v-.883c0-1.325 1.075-2.4 2.4-2.4zM19.28 18.106c1.16-4.38 7.276-4.434 8.586-.112l8.46 29.28c.368 1.273-.366 2.604-1.64 2.972-1.273.368-2.604-.366-2.972-1.64L28.331 36.9h-8.956l-3.012 11.642c-.318 1.23-1.534 1.99-2.764 1.758l-.16-.036c-1.283-.332-2.054-1.64-1.722-2.924zM46.14 36.24c-2.635 0-4.8 2.165-4.8 4.8s2.165 4.8 4.8 4.8 4.8-2.165 4.8-4.8-2.165-4.8-4.8-4.8zM23.607 20.545L20.617 32.1h6.327l-3.337-11.554z" transform="translate(317) translate(276.6) translate(72.6)"/>
                </g>
                <path fill="#E1E5F0" fill-rule="nonzero" d="M105.2 228.783L65.8 203.4c-.527.366-.527.366-1 .785l14.73 44.329s5.786-.785 10.257-3.297l6.681 8.583 9.732-7.484-6.68-8.636c1.893-2.983 3.787-5.966 5.68-8.897z" transform="translate(317) translate(276.6)"/>
                <g fill-rule="nonzero">
                    <path fill="#F2F6FB" d="M0 6.007C0 2.69 2.688 0 5.998 0h55.079L83.4 22.08v69.714c0 3.317-2.68 6.006-5.998 6.006H5.998C2.685 97.8 0 95.108 0 91.793V6.007z" transform="translate(317) translate(276.6) translate(73.2 86.4)"/>
                    <path fill="#E1E5F0" d="M35.001 37.924l12.749 18.73 5.464-8.478c.251-.39.682-.4.953-.033L66.935 65.4c.275.372.12.677-.342.681l-11.645.11-12.48-.111h-25.8c-.468 0-.644-.314-.386-.713l17.777-27.43c.256-.393.677-.4.942-.014zm18.613-3.59c2.246 0 4.067 1.765 4.067 3.941 0 2.177-1.82 3.941-4.067 3.941-2.245 0-4.066-1.764-4.066-3.94 0-2.177 1.82-3.942 4.066-3.942zM61.077 0L83.4 22.08l-21.078 3.761c-3.26.582-5.445-1.598-4.882-4.848L61.077 0z" transform="translate(317) translate(276.6) translate(73.2 86.4)"/>
                </g>
            </g>
            <g fill-rule="nonzero" transform="translate(317) translate(127.8 60.6)">
                <g transform="translate(.385 .378)">
                    <path fill="#F2F6FB" d="M182.627 146.086H12.31c-6.688 0-12.15-5.832-12.15-12.974V13.31C.16 6.17 5.623.336 12.31.336h170.317c6.687 0 12.15 5.833 12.15 12.974v119.743c0 7.201-5.463 13.033-12.15 13.033z"/>
                    <ellipse cx="56.154" cy="65.375" fill="#444" opacity=".177" rx="16.154" ry="15.871"/>
                    <ellipse cx="96.154" cy="65.375" fill="#444" opacity=".177" rx="16.154" ry="15.871"/>
                    <ellipse cx="136.154" cy="65.375" fill="#444" opacity=".177" rx="16.154" ry="15.871"/>
                    <rect width="114.615" height="6.046" x="40.385" y="106.943" fill="#E1E5F0" rx="3.023"/>
                    <rect width="114.615" height="6.424" x="40.385" y="94.851" fill="#E1E5F0" rx="3.212"/>
                </g>
                <path fill="#E1E5F0" d="M0 8.314C0 3.722 3.721 0 8.317 0h178.366C191.277 0 195 3.731 195 8.314v8.313H0V8.314z"/>
                <ellipse cx="11.346" cy="8.503" fill="#FF5645" rx="3.654" ry="3.59"/>
                <ellipse cx="23.269" cy="8.503" fill="#FFCB3D" rx="3.654" ry="3.59"/>
                <ellipse cx="35.577" cy="8.503" fill="#3ABF7C" rx="3.654" ry="3.59"/>
            </g>
        </g>
        <g fill-rule="nonzero" transform="translate(0 46)">
            <path fill="#EBEBEB" d="M0 491.175H750V492.175H0zM78.69 505.455H128.37V506.455H78.69zM204.495 501.39H269.745V502.39H204.495zM122.37 513.195H180.495V514.195H122.37zM610.065 516.87H674.85V517.87H610.065zM568.5 516.87H596.7V517.87H568.5zM357.66 510.525H412.5V511.525H357.66zM355.5 424.275H65.865c-4.724-.008-8.55-3.84-8.55-8.565V8.565c0-4.724 3.826-8.557 8.55-8.565H355.5c4.73 0 8.565 3.835 8.565 8.565V415.71c0 2.272-.902 4.45-2.509 6.056-1.606 1.607-3.784 2.509-6.056 2.509zM65.865.375c-4.517.008-8.175 3.673-8.175 8.19V415.71c0 4.517 3.658 8.182 8.175 8.19H355.5c4.52-.008 8.182-3.67 8.19-8.19V8.565c-.008-4.52-3.67-8.182-8.19-8.19H65.865zM679.965 424.275h-289.65c-4.727-.008-8.557-3.838-8.565-8.565V8.565c.008-4.727 3.838-8.557 8.565-8.565h289.65c4.719.017 8.535 3.846 8.535 8.565V415.71c0 4.719-3.816 8.548-8.535 8.565zM390.315.375c-4.52.008-8.182 3.67-8.19 8.19V415.71c.008 4.52 3.67 8.182 8.19 8.19h289.65c4.52-.008 8.182-3.67 8.19-8.19V8.565c-.008-4.52-3.67-8.182-8.19-8.19h-289.65z"/>
            <path fill="#EBF1F7" d="M639.255 491.175h-100.5v-133.8h84.495c8.848 0 16.02 7.172 16.02 16.02v117.78h-.015z"/>
            <path fill="#F2F6FB" d="M344.745 357.375h212.34c8.848 0 16.02 7.172 16.02 16.02v117.78h-244.38v-117.78c0-8.848 7.172-16.02 16.02-16.02z"/>
            <circle cx="453.465" cy="424.275" r="43.215" fill="#E0E0E0"/>
            <circle cx="450.915" cy="424.275" r="43.215" fill="#FAFAFA"/>
            <circle cx="450.915" cy="424.275" r="29.07" fill="#EBF1F7"/>
            <path fill="#F2F6FB" d="M483.99 96.9c-59.683.173-108.022 48.512-108.195 108.195v152.28H592.2v-152.28C592.019 145.41 543.675 97.073 483.99 96.9z" opacity=".5"/>
            <path fill="#E0E0E0" d="M444.555 221.415h-28.65c-2.501.05-4.899-.998-6.561-2.868-1.662-1.87-2.422-4.374-2.079-6.852L411 177.93c.728-5.457 5.312-9.577 10.815-9.72h28.65c2.499-.045 4.892 1.005 6.55 2.874 1.66 1.87 2.417 4.37 2.075 6.846l-3.78 33.765c-.712 5.441-5.27 9.56-10.755 9.72zM529.11 273.69h24.3c2.119.042 4.15-.846 5.558-2.43 1.408-1.584 2.052-3.706 1.762-5.805l-3.21-28.635c-.617-4.624-4.502-8.114-9.165-8.235H524.07c-2.119-.042-4.15.846-5.558 2.43-1.408 1.584-2.052 3.706-1.762 5.805l3.21 28.68c.625 4.607 4.503 8.077 9.15 8.19zM501 173.7h20.28c1.775.054 3.483-.68 4.664-2.006 1.181-1.326 1.714-3.107 1.456-4.864l-2.685-23.91c-.508-3.865-3.753-6.785-7.65-6.885H496.74c-1.778-.055-3.489.681-4.67 2.01-1.182 1.33-1.713 3.116-1.45 4.875l2.685 23.91c.512 3.879 3.783 6.8 7.695 6.87zM450.405 313.035H433.2c-1.5.027-2.936-.603-3.932-1.725-.995-1.123-1.45-2.624-1.243-4.11l2.265-20.265c.434-3.278 3.19-5.753 6.495-5.835h17.19c1.502-.032 2.943.597 3.942 1.72.999 1.122 1.455 2.627 1.248 4.115L456.9 307.2c-.434 3.278-3.19 5.753-6.495 5.835z"/>
            <path fill="#FFF" d="M470.145 357.375h-3c0-11.34 8.13-16.935 16.005-22.35 7.5-5.19 14.685-10.11 14.685-19.875s-7.14-14.67-14.685-19.86c-7.875-5.415-16.005-11.01-16.005-22.35 0-11.34 8.13-16.935 16.005-22.35 7.5-5.19 14.685-10.11 14.685-19.875s-7.14-14.67-14.685-19.875c-7.875-5.415-16.005-11.01-16.005-22.35 0-11.34 8.13-16.935 16.005-22.35 7.5-5.19 14.685-10.11 14.685-19.875h3c0 11.34-8.13 16.935-15.99 22.35-7.5 5.19-14.7 10.11-14.7 19.875s7.14 14.685 14.7 19.875c7.86 5.415 15.99 11.01 15.99 22.35 0 11.34-8.13 16.935-15.99 22.35-7.5 5.19-14.7 10.11-14.7 19.875s7.14 14.67 14.7 19.875c7.86 5.4 15.99 10.995 15.99 22.335 0 11.34-8.13 16.95-15.99 22.35-7.56 5.205-14.7 10.11-14.7 19.875z"/>
            <path fill="#F5F5F5" d="M191.835 491.175L236.88 491.175 225.69 165.075 203.025 165.075z"/>
            <path fill="#F2F6FB" d="M138.3 491.175L183.36 491.175 172.17 165.075 149.505 165.075zM84.78 491.175L129.825 491.175 118.635 165.075 95.97 165.075z"/>
            <g fill="#F5F5F5" transform="translate(84 524.5)">
                <ellipse cx="291" cy="17.435" rx="290.835" ry="16.98"/>
            </g>
            <g transform="translate(210 126)">
                <path fill="#407BFF" d="M342.885 14.4H31.29c-2.958-.01-5.427 2.256-5.67 5.205L9.765 214.05c-.13 1.581.407 3.145 1.481 4.313 1.074 1.168 2.587 1.834 4.174 1.837H327c2.955-.006 5.413-2.275 5.655-5.22L348.54 20.535c.13-1.58-.407-3.142-1.482-4.308-1.074-1.166-2.588-1.827-4.173-1.827z"/>
                <path fill="#263238" d="M342.885 14.4H31.29c-2.958-.01-5.427 2.256-5.67 5.205L9.765 214.05c-.13 1.581.407 3.145 1.481 4.313 1.074 1.168 2.587 1.834 4.174 1.837H327c2.955-.006 5.413-2.275 5.655-5.22L348.54 20.535c.13-1.58-.407-3.142-1.482-4.308-1.074-1.166-2.588-1.827-4.173-1.827z" opacity=".4"/>
                <path fill="#407BFF" d="M226.065.015H232.53V1.6199999999999999H226.065zM191.19.015H218.055V1.6199999999999999H191.19z"/>
                <path fill="#F0F0F0" d="M334.11 5.625H22.5c-2.953.004-5.414 2.263-5.67 5.205L.99 205.275c-.13 1.581.407 3.145 1.481 4.313 1.074 1.168 2.587 1.834 4.174 1.837h311.61c2.955-.006 5.413-2.275 5.655-5.22L339.765 11.76c.13-1.58-.407-3.142-1.482-4.308-1.074-1.166-2.588-1.827-4.173-1.827z"/>
                <path fill="#FFF" d="M322.635 103.05H19.005l7.215-88.29h303.615l-7.2 88.29zm-301.89-1.59h300.42l6.945-85.095H27.69l-6.945 85.095z" opacity=".1"/>
                <path fill="#407BFF" d="M309.765 94.2c1.242-.018 2.27-.969 2.385-2.205l5.4-66.165c.06-.571-.127-1.14-.514-1.565-.387-.424-.937-.662-1.511-.655-1.25.018-2.285.975-2.4 2.22l-5.385 66.165c-.06.57.127 1.138.514 1.56.388.422.938.657 1.511.645z" opacity=".4"/>
                <path fill="#407BFF" d="M309.945 60.57h5.13c.585-.02 1.065-.468 1.125-1.05l.435-5.28c.025-.27-.064-.538-.247-.738-.183-.2-.442-.313-.713-.312H310.5c-.585.02-1.065.468-1.125 1.05l-.435 5.28c-.027.278.07.553.262.755.193.202.464.31.743.295z"/>
                <path fill="#407BFF" d="M291 94.2c1.239-.024 2.264-.972 2.385-2.205l5.4-66.165c.06-.571-.127-1.14-.514-1.565-.387-.424-.937-.662-1.511-.655-1.25.018-2.285.975-2.4 2.22l-5.4 66.165c-.056.571.135 1.14.525 1.56.39.422.941.656 1.515.645z" opacity=".4"/>
                <path fill="#407BFF" d="M292.11 48.78h5.115c.593-.005 1.086-.46 1.14-1.05l.435-5.28c.025-.27-.064-.538-.247-.738-.183-.2-.442-.313-.713-.312h-5.13c-.588.019-1.073.466-1.14 1.05l-.42 5.28c-.03.27.058.542.242.743.184.201.445.313.718.307z"/>
                <path fill="#407BFF" d="M272.16 94.2c1.245-.017 2.278-.966 2.4-2.205l5.4-66.165c.055-.573-.135-1.142-.525-1.565-.389-.424-.94-.662-1.515-.655-1.244.025-2.27.98-2.385 2.22l-5.4 66.165c-.06.57.127 1.138.514 1.56.388.422.938.657 1.511.645z" opacity=".4"/>
                <path fill="#407BFF" d="M271.2 74.655h5.115c.593-.005 1.086-.46 1.14-1.05l.435-5.265c.026-.272-.066-.543-.252-.743-.186-.201-.45-.312-.723-.307H271.8c-.59.012-1.08.462-1.14 1.05l-.42 5.265c-.03.27.058.542.242.743.184.201.445.313.718.307z"/>
                <path fill="#407BFF" d="M253.365 94.2c1.245-.017 2.278-.966 2.4-2.205l5.385-66.165c.06-.571-.127-1.14-.514-1.565-.387-.424-.937-.662-1.511-.655-1.247.018-2.277.978-2.385 2.22l-5.4 66.165c-.06.57.127 1.138.514 1.56.388.422.938.657 1.511.645z" opacity=".4"/>
                <path fill="#407BFF" d="M253.155 65.475h5.115c.59-.012 1.08-.462 1.14-1.05l.435-5.28c.026-.272-.066-.543-.252-.743-.186-.201-.45-.312-.723-.307h-5.115c-.593.005-1.086.46-1.14 1.05l-.435 5.28c-.026.272.066.543.252.743.186.201.45.312.723.307z"/>
                <path fill="#407BFF" d="M234.57 94.2c1.242-.018 2.27-.969 2.385-2.205l5.4-66.165c.06-.571-.127-1.14-.514-1.565-.387-.424-.937-.662-1.511-.655-1.25.018-2.285.975-2.4 2.22l-5.43 66.165c-.062.578.132 1.154.53 1.577.397.424.96.653 1.54.628z" opacity=".4"/>
                <path fill="#407BFF" d="M234.96 58.095h5.115c.593-.005 1.086-.46 1.14-1.05l.42-5.28c.03-.27-.058-.542-.242-.743-.184-.201-.445-.313-.718-.307H235.5c-.59.012-1.08.462-1.14 1.05L234 57c-.04.277.044.557.229.768.184.21.451.33.731.327z"/>
                <path fill="#407BFF" d="M61.905 42.945H194.67c3.446-.067 6.296-2.704 6.63-6.135.159-1.584-.367-3.16-1.444-4.332-1.078-1.172-2.604-1.828-4.196-1.803H62.91c-3.449.06-6.302 2.701-6.63 6.135-.158 1.581.365 3.155 1.44 4.326 1.073 1.172 2.596 1.83 4.185 1.809z" opacity=".271"/>
                <path fill="#407BFF" d="M39 65.04h153.855c3.452-.054 6.309-2.698 6.63-6.135.164-1.581-.359-3.156-1.434-4.327-1.076-1.17-2.602-1.823-4.191-1.793H39.945c-3.446.053-6.302 2.689-6.63 6.12-.16 1.592.372 3.176 1.46 4.35C35.861 64.427 37.4 65.077 39 65.04z"/>
                <rect width="100.44" height="12.255" x="97.245" y="74.88" fill="#407BFF" opacity=".6" rx="6.128"/>
                <path fill="#407BFF" d="M291.915 139.215L309.81 139.215 311.265 121.335 293.385 121.335zM265.605 139.215L283.485 139.215 284.94 121.335 267.06 121.335z"/>
                <path fill="#B2B6B8" d="M239.28 139.215L257.16 139.215 258.63 121.335 240.735 121.335z"/>
                <path fill="#407BFF" d="M212.97 139.215L230.85 139.215 232.305 121.335 214.425 121.335z"/>
                <path fill="#B2B6B8" d="M289.77 165.525L307.665 165.525 309.12 147.645 291.24 147.645z"/>
                <path fill="#407BFF" d="M263.46 165.525L281.34 165.525 282.795 147.645 264.915 147.645zM237.135 165.525L255.015 165.525 256.47 147.645 238.59 147.645zM210.81 165.525L228.705 165.525 230.16 147.645 212.28 147.645zM287.625 191.85L305.505 191.85 306.975 173.97 289.08 173.97zM261.315 191.85L279.195 191.85 280.65 173.97 262.77 173.97z"/>
                <path fill="#B2B6B8" d="M234.99 191.85L252.87 191.85 254.325 173.97 236.445 173.97z"/>
                <path fill="#407BFF" d="M208.665 191.85L226.545 191.85 228.015 173.97 210.12 173.97z"/>
                <path fill="#407BFF" d="M159.885 157.08L153.93 157.08 152.94 169.215 158.895 169.215zM168.675 157.08L162.705 157.08 161.715 169.215 167.685 169.215z" opacity=".673"/>
                <path fill="#FFF" d="M177.45 157.08L171.48 157.08 170.49 169.215 176.46 169.215z"/>
                <path fill="#407BFF" d="M186.225 157.08L180.27 157.08 179.265 169.215 185.235 169.215z" opacity=".673"/>
                <path fill="#FFF" d="M161.34 139.2L155.385 139.2 154.395 151.35 160.365 151.35z"/>
                <path fill="#407BFF" d="M170.13 139.2L164.16 139.2 163.17 151.35 169.14 151.35zM178.905 139.2L172.935 139.2 171.945 151.35 177.915 151.35zM187.68 139.2L181.725 139.2 180.735 151.35 186.69 151.35zM162.81 121.335L156.84 121.335 155.85 133.47 161.82 133.47zM171.585 121.335L165.615 121.335 164.625 133.47 170.595 133.47zM180.36 121.335L174.405 121.335 173.415 133.47 179.37 133.47zM189.15 121.335L183.18 121.335 182.19 133.47 188.16 133.47zM117.015 157.08L111.045 157.08 110.07 169.215 116.025 169.215z" opacity=".673"/>
                <path fill="#FFF" d="M125.79 157.08L119.835 157.08 118.845 169.215 124.8 169.215z"/>
                <path fill="#407BFF" d="M134.58 157.08L128.61 157.08 127.62 169.215 133.59 169.215zM143.355 157.08L137.385 157.08 136.395 169.215 142.365 169.215z" opacity=".673"/>
                <path fill="#FFF" d="M118.47 139.2L112.515 139.2 111.525 151.35 117.48 151.35z"/>
                <path fill="#407BFF" d="M127.26 139.2L121.29 139.2 120.3 151.35 126.27 151.35z" opacity=".673"/>
                <path fill="#FFF" d="M136.035 139.2L130.065 139.2 129.075 151.35 135.045 151.35zM144.81 139.2L138.84 139.2 137.865 151.35 143.82 151.35z"/>
                <path fill="#407BFF" d="M119.94 121.335L113.97 121.335 112.98 133.47 118.935 133.47z" opacity=".673"/>
                <path fill="#FFF" d="M128.715 121.335L122.745 121.335 121.755 133.47 127.725 133.47zM137.49 121.335L131.52 121.335 130.53 133.47 136.5 133.47z"/>
                <path fill="#407BFF" d="M146.265 121.335L140.31 121.335 139.32 133.47 145.275 133.47z" opacity=".673"/>
                <path fill="#FFF" d="M74.145 157.08L68.175 157.08 67.185 169.215 73.155 169.215z"/>
                <path fill="#263238" d="M82.92 157.08L76.965 157.08 75.975 169.215 81.93 169.215z" opacity=".3"/>
                <path fill="#FFF" d="M91.71 157.08L85.74 157.08 84.75 169.215 90.705 169.215z"/>
                <path fill="#263238" d="M100.485 157.08L94.515 157.08 93.525 169.215 99.495 169.215z" opacity=".3"/>
                <path fill="#FFF" d="M75.6 139.2L69.645 139.2 68.64 151.35 74.61 151.35zM84.375 139.2L78.42 139.2 77.43 151.35 83.385 151.35z"/>
                <path fill="#263238" d="M93.165 139.2L87.195 139.2 86.205 151.35 92.175 151.35z" opacity=".3"/>
                <path fill="#407BFF" d="M101.94 139.2L95.97 139.2 94.98 151.35 100.95 151.35z" opacity=".673"/>
                <path fill="#FFF" d="M77.055 121.335L71.1 121.335 70.11 133.47 76.065 133.47z"/>
                <path fill="#263238" d="M85.845 121.335L79.875 121.335 78.885 133.47 84.855 133.47zM94.62 121.335L88.65 121.335 87.66 133.47 93.63 133.47z" opacity=".3"/>
                <path fill="#407BFF" d="M103.395 121.335L97.44 121.335 96.435 133.47 102.405 133.47z" opacity=".673"/>
                <path fill="#FFF" d="M31.275 157.08L25.305 157.08 24.315 169.215 30.285 169.215z"/>
                <path fill="#263238" d="M40.05 157.08L34.08 157.08 33.09 169.215 39.06 169.215z" opacity=".3"/>
                <path fill="#FFF" d="M48.825 157.08L42.87 157.08 41.88 169.215 47.835 169.215z"/>
                <path fill="#263238" d="M57.615 157.08L51.645 157.08 50.655 169.215 56.625 169.215z" opacity=".3"/>
                <path fill="#79A1FA" d="M32.73 139.2L26.76 139.2 25.77 151.35 31.74 151.35z" opacity=".3"/>
                <path fill="#263238" d="M41.505 139.2L35.55 139.2 34.56 151.35 40.515 151.35z" opacity=".3"/>
                <path fill="#FFF" d="M50.295 139.2L44.325 139.2 43.335 151.35 49.305 151.35z"/>
                <path fill="#263238" d="M59.07 139.2L53.1 139.2 52.11 151.35 58.08 151.35z" opacity=".3"/>
                <path fill="#FFF" d="M34.185 121.335L28.23 121.335 27.24 133.47 33.195 133.47z"/>
                <path fill="#263238" d="M42.975 121.335L37.005 121.335 36.015 133.47 41.985 133.47z" opacity=".3"/>
                <path fill="#FFF" d="M51.75 121.335L45.78 121.335 44.79 133.47 50.76 133.47zM60.525 121.335L54.555 121.335 53.565 133.47 59.535 133.47z"/>
                <ellipse cx="180.116" cy="184.989" fill="#B2B6B8" rx="4.005" ry="3.705" transform="rotate(-43.83 180.116 184.99)"/>
                <ellipse cx="163.079" cy="184.99" fill="#B2B6B8" rx="4.005" ry="3.705" transform="rotate(-43.83 163.08 184.99)"/>
                <path fill="#B2B6B8" d="M142.2 184.98c-.099.993.232 1.98.908 2.714.677.734 1.634 1.144 2.632 1.126 2.164-.035 3.957-1.687 4.17-3.84.098-.994-.232-1.983-.908-2.72-.675-.735-1.633-1.148-2.632-1.135-2.169.036-3.964 1.696-4.17 3.855zM125.175 184.98c-.099.993.232 1.98.908 2.714.677.734 1.634 1.144 2.632 1.126 2.164-.035 3.957-1.687 4.17-3.84.098-.994-.232-1.983-.908-2.72-.675-.735-1.633-1.148-2.632-1.135-2.169.036-3.964 1.696-4.17 3.855zM108.15 184.98c-.099.993.232 1.98.908 2.714.677.734 1.634 1.144 2.632 1.126 2.164-.035 3.957-1.687 4.17-3.84.098-.994-.232-1.983-.908-2.72-.675-.735-1.633-1.148-2.632-1.135-2.169.036-3.964 1.696-4.17 3.855z"/>
                <path fill="#FFF" d="M91.125 184.98c-.099.993.232 1.98.908 2.714.677.734 1.634 1.144 2.632 1.126 2.164-.035 3.957-1.687 4.17-3.84.098-.994-.232-1.983-.908-2.72-.675-.735-1.633-1.148-2.632-1.135-2.169.036-3.964 1.696-4.17 3.855zM74.1 184.98c-.099.993.232 1.98.908 2.714.677.734 1.634 1.144 2.632 1.126 2.164-.035 3.957-1.687 4.17-3.84.098-.994-.232-1.983-.908-2.72-.675-.735-1.633-1.148-2.632-1.135-2.169.036-3.964 1.696-4.17 3.855zM57.075 184.98c-.099.993.232 1.98.908 2.714.677.734 1.634 1.144 2.632 1.126 2.164-.035 3.957-1.687 4.17-3.84.098-.994-.232-1.983-.908-2.72-.675-.735-1.633-1.148-2.632-1.135-2.169.036-3.964 1.696-4.17 3.855z"/>
                <path fill="#263238" d="M40.05 184.98c-.099.993.232 1.98.908 2.714.677.734 1.634 1.144 2.632 1.126 2.164-.035 3.957-1.687 4.17-3.84.103-.995-.225-1.987-.902-2.725-.677-.737-1.637-1.148-2.638-1.13-2.169.036-3.964 1.696-4.17 3.855z" opacity=".3"/>
                <path fill="#FFF" d="M23.025 184.98c-.094.992.238 1.977.914 2.71.675.732 1.63 1.143 2.626 1.13 2.164-.035 3.957-1.687 4.17-3.84.103-.995-.225-1.987-.902-2.725-.677-.737-1.637-1.148-2.638-1.13-2.169.036-3.964 1.696-4.17 3.855z"/>
            </g>
            <g>
                <path fill="#FF8B7B" d="M56.01 86.76c-.885 1.365-1.935 3.105-2.895 4.71s-1.965 3.27-2.91 4.935c-1.89 3.315-3.75 6.66-5.445 10.035-3.417 6.526-6.234 13.349-8.415 20.385l-.675 2.52-.09.33v.195c0-.045 0 0 0 0-.005-.08-.005-.16 0-.24l-.09-.495c-.064-.24-.145-.476-.24-.705-.112-.312-.252-.614-.42-.9-.358-.58-.82-1.09-1.365-1.5-1.005-.66-1.335-.555-1.245-.48 1.036.33 2.127.453 3.21.36 1.703-.035 3.401-.18 5.085-.435 7.215-.99 15-3 22.635-4.89l4.305 9.57c-3.58 2.287-7.291 4.36-11.115 6.21-3.88 1.921-7.89 3.57-12 4.935-2.246.733-4.535 1.324-6.855 1.77-1.319.24-2.651.395-3.99.465-1.634.097-3.273.016-4.89-.24-2.459-.384-4.784-1.374-6.765-2.88-1.338-1.035-2.464-2.318-3.315-3.78-.414-.734-.765-1.502-1.05-2.295-.24-.71-.43-1.438-.57-2.175l-.15-1.05-.075-.945c-.03-.59-.03-1.18 0-1.77 0-.585.09-1.035.15-1.5l.075-.54v-.435l.585-3.42c.864-4.403 2.042-8.74 3.525-12.975 1.404-4.123 3.027-8.169 4.86-12.12 1.785-3.93 3.75-7.74 5.85-11.475 1.05-1.86 2.115-3.705 3.255-5.52 1.14-1.815 2.265-3.555 3.645-5.535L56.01 86.76z" transform="translate(195 78)"/>
                <path fill="#FF8B7B" d="M61.26 121.29l6.495-6.495 6.48 14.43s-6.12 3.39-11.58.915l-1.395-8.85zM77.385 109.635L82.17 121.815 74.235 129.225 67.77 114.795z" transform="translate(195 78)"/>
                <path fill="#263238" d="M102.795 30.81c-.15.99.255 1.86.9 1.965.645.105 1.29-.63 1.5-1.605.21-.975-.255-1.875-.9-1.965-.645-.09-1.35.615-1.5 1.605z" transform="translate(195 78)"/>
                <path fill="#FF5652" d="M102.96 32.655c.719 3.198 1.874 6.282 3.435 9.165-1.511.77-3.285.83-4.845.165l1.41-9.33z" transform="translate(195 78)"/>
                <path fill="#263238" d="M100.05 24.795c.139.06.296.06.435 0 1.31-.726 2.89-.777 4.245-.135.18.144.43.169.635.062.205-.106.328-.324.314-.554-.014-.231-.162-.432-.379-.513-1.69-.842-3.685-.803-5.34.105-.212.108-.338.333-.318.57.02.237.18.439.408.51v-.045z" transform="translate(195 78)"/>
                <path fill="#FF8B7B" d="M70.5 33.15c.63 9.21.315 25.89-6.72 31.08 0 0 1.305 9.435 18 11.52 18.36 2.31 9.915-8.01 9.915-8.01-9.705-3.645-8.52-11.04-5.895-17.805L70.5 33.15z" transform="translate(195 78)"/>
                <path fill="#1C2225" d="M57.885 68.385c.1-.34.131-.698.09-1.05-.48-5.835 3.57-9 10.635-9.51 7.5-.555 18.09.255 24.6 5.745-1.5 1.5-.525 7.5-.525 7.5l-34.8-2.685z" transform="translate(195 78)"/>
                <path fill="#407BFF" d="M27.345 431.43h.12c.451-.241.703-.739.63-1.245-.025-.4-.209-.772-.51-1.035-1.425-1.2-5.535-.675-5.7-.645-.117.01-.214.095-.24.21-.037.109 0 .23.09.3.96.78 4.14 2.985 5.61 2.415zm-4.68-2.43c1.395-.105 3.69-.12 4.5.585.186.146.3.364.315.6 0 .555-.225.66-.3.69-.765.36-3.015-.78-4.515-1.875z" transform="translate(195 78)"/>
                <path fill="#407BFF" d="M24 428.595c1.5-.51 3-1.35 3.225-2.22.117-.437-.082-.896-.48-1.11-.38-.253-.847-.335-1.29-.225-1.815.375-3.705 3.435-3.78 3.555-.054.093-.054.207 0 .3.06.092.16.148.27.15.702-.057 1.393-.209 2.055-.45zm1.38-3h.195c.286-.08.593-.03.84.135.315.225.27.39.24.465-.24.795-2.565 1.905-4.14 2.175.708-1.134 1.694-2.069 2.865-2.715v-.06zM118.5 451.935c1.59 0 3.12-.225 3.63-.945.273-.381.273-.894 0-1.275-.205-.345-.54-.594-.93-.69-2.07-.555-6.39 1.905-6.57 2.01-.114.055-.179.179-.158.304.021.125.122.221.248.236 1.246.236 2.512.356 3.78.36zm1.965-2.415c.187 0 .374.026.555.075.24.054.45.199.585.405.195.375.12.555 0 .66-.57.795-3.705.81-6 .48 1.482-.841 3.111-1.391 4.8-1.62h.06z" transform="translate(195 78)"/>
                <path fill="#407BFF" d="M114.705 451.59h.12c1.5-.675 4.5-3.345 4.215-4.74 0-.33-.285-.75-1.095-.825-.588-.064-1.175.121-1.62.51-1.575 1.29-1.905 4.62-1.92 4.755-.017.106.03.212.12.27.057.023.119.033.18.03zm3-5.025h.18c.525 0 .555.255.57.33.135.84-1.875 3-3.405 3.855.156-1.389.731-2.697 1.65-3.75.276-.264.639-.418 1.02-.435h-.015z" transform="translate(195 78)"/>
                <path fill="#FF8B7B" d="M101.085 451.29L113.46 451.29 114.705 422.64 102.33 422.64zM8.565 425.16L20.025 428.31 34.725 401.445 23.25 398.295z" transform="translate(195 78)"/>
                <path fill="#263238" d="M21.75 427.05l-12.375-6.33c-.45-.23-.997-.117-1.32.27L.87 429.675c-.356.428-.495.996-.378 1.54.117.545.478 1.006.978 1.25 4.365 2.13 6.6 3 12 5.73 3.36 1.725 13.32 9.12 18.345 10.5 5.025 1.38 6.975-3.495 5.04-4.5-6.356-3.26-11.247-8.8-13.695-15.51-.25-.701-.753-1.284-1.41-1.635zM113.385 449.865h-13.5c-.505-.004-.943.347-1.05.84L96.39 461.7c-.124.537.005 1.102.35 1.532.345.43.869.678 1.42.673 4.875 0 11.925-.375 18-.375 7.155 0 13.35.405 21.75.405 5.085 0 6.495-5.145 4.365-5.61-9.69-2.115-17.595-2.34-25.95-7.5-.875-.58-1.891-.911-2.94-.96z" transform="translate(195 78)"/>
                <path fill="#407BFF" d="M60.21 89.055c-1.29 3.33-2.715 6.57-4.14 9.615-2.475 5.25-4.92 9.855-6.72 13.02-1.59 2.865-2.625 4.5-2.625 4.5l-27-13.395s10.89-31.32 22.26-34.8C53.61 64.5 66 74.13 60.21 89.055z" transform="translate(195 78)"/>
                <path fill="#1C2225" d="M60.21 89.055c-1.29 3.33-2.715 6.57-4.14 9.615-2.475 5.25-4.92 9.855-6.72 13.02-1.59 2.865-2.625 4.5-2.625 4.5l-27-13.395s10.89-31.32 22.26-34.8C53.61 64.5 66 74.13 60.21 89.055z" transform="translate(195 78)"/>
                <path fill="#000" d="M48.225 92.16c2.355 1.725 4.035 6.39 5.235 11.865-1.5 3-3 5.625-4.11 7.665-1.59 2.865-2.625 4.5-2.625 4.5l-3.105-1.5c.065-7.737 1.628-15.388 4.605-22.53z" opacity=".2" transform="translate(195 78)"/>
                <path fill="#407BFF" d="M117.375 109.02c0 4.215-.105 8.85-.345 13.95-.6 13.89-2.115 31.185-5.025 52.68h-66.18c-.45-10.155 5.925-59.73-3.87-107.61 7.323-1.403 14.728-2.335 22.17-2.79 9.367-.54 18.758-.54 28.125 0 6.424.65 12.788 1.799 19.035 3.435 0 0 6.105 6.885 6.09 40.335z" transform="translate(195 78)"/>
                <path fill="#1C2225" d="M117.375 109.02c0 4.215-.105 8.85-.345 13.95-.6 13.89-2.115 31.185-5.025 52.68h-66.18c-.45-10.155 5.925-59.73-3.87-107.61 7.323-1.403 14.728-2.335 22.17-2.79 9.367-.54 18.758-.54 28.125 0 6.424.65 12.788 1.799 19.035 3.435 0 0 6.105 6.885 6.09 40.335z" transform="translate(195 78)"/>
                <path fill="#FF8B7B" d="M119.49 80.295c.54 1.035 1.605 2.745 2.595 4.29.99 1.545 2.115 3.225 3.24 4.83 2.25 3.225 4.59 6.435 7.035 9.54 4.657 6.131 9.852 11.834 15.525 17.04 1.365 1.2 2.73 2.325 4.095 3.3l.51.36.255.18.12.09c-.291-.113-.593-.198-.9-.255-.472-.118-.97-.07-1.41.135-.24.27.9 0 1.995-.84 1.334-.925 2.592-1.953 3.765-3.075 5.44-5.678 10.453-11.75 15-18.165l9.45 4.5c-1.325 4.256-2.954 8.412-4.875 12.435-.945 2.025-1.995 4.02-3.135 6-1.16 2.072-2.436 4.075-3.825 6-1.505 2.117-3.213 4.081-5.1 5.865-1.12 1.053-2.33 2.007-3.615 2.85-1.628 1.074-3.408 1.899-5.28 2.445-3.835 1.093-7.944.652-11.46-1.23l-.435-.24-.21-.12-.405-.24-.825-.48c-2.105-1.264-4.142-2.635-6.105-4.11-7.178-5.634-13.717-12.037-19.5-19.095-2.835-3.435-5.58-6.93-8.13-10.605-1.29-1.83-2.55-3.69-3.765-5.655-1.357-2.134-2.585-4.348-3.675-6.63l19.065-9.12z" transform="translate(195 78)"/>
                <path fill="#FF8B7B" d="M171.48 97.5l7.11-10.5 8.625 12.69s-6.885 5.805-12.69 5.19l-3.045-7.38z" transform="translate(195 78)"/>
                <path fill="#FF8B7B" d="M192.33 82.095L194.43 94.395 187.215 99.81 178.59 87.12z" transform="translate(195 78)"/>
                <path fill="#407BFF" d="M92.16 81.27c.39 11.82 24.75 39 24.75 39l25.74-16.77s-8.16-15.255-18.765-26.31c-15.975-16.635-32.19-10.11-31.725 4.08z" transform="translate(195 78)"/>
                <path fill="#1C2225" d="M92.16 81.27c.39 11.82 24.75 39 24.75 39l25.74-16.77s-8.16-15.255-18.765-26.31c-15.975-16.635-32.19-10.11-31.725 4.08z" transform="translate(195 78)"/>
                <path fill="#000" d="M114.69 422.64L114.06 437.415 101.685 437.415 102.315 422.64zM23.25 398.295L34.725 401.445 27.15 415.305 15.66 412.14z" opacity=".2" transform="translate(195 78)"/>
                <path fill="#FF8B7B" d="M70.2 23.715c-1.095 12.225-2.355 19.335 2.82 26.49 7.785 10.755 23.58 7.5 28.32-4.185 4.26-10.5 5.34-28.725-5.79-35.355-4.976-2.998-11.15-3.204-16.315-.545-5.164 2.659-8.584 7.803-9.035 13.595z" transform="translate(195 78)"/>
                <path fill="#263238" d="M93 32.175c2.085-2.85 9.315-11.88 7.5-19.71-1.905-8.19-12.51-11.64-16.635-12 2.76 2.85-5.25.36-9.315 1.8 3.615 3.27-6.51-.12-9.33 3.66 7.365 2.175-4.005 4.5-6 7.275 3.555.525 3.84 1.815 4.35 3.72-1.29 1.605-.555 29.925 8.655 33.675 8.67 3.48 24.375-5.97 20.775-18.42z" transform="translate(195 78)"/>
                <path fill="#263238" d="M98.535 4.08c1.635 1.41-1.65 1.86-5.67.075l1.365 12.09c3.945 3.735 12.345 8.655 14.19-.27C110.265 7.05 102.48 4.5 98.535 4.08z" transform="translate(195 78)"/>
                <path fill="#FF8B7B" d="M88.8 29.67c-.482 2.396-.16 4.885.915 7.08 1.5 2.88 4.02 2.055 5.175-.63 1.035-2.43 1.5-6.84-.66-8.82-2.16-1.98-4.8-.525-5.43 2.37z" transform="translate(195 78)"/>
                <path fill="#407BFF" d="M88.5 175.65s5.835 93.645-5.235 128.175C65.775 358.5 34.5 414.39 34.5 414.39l-22.35-6.735s24.57-58.965 32.655-105c7.275-41.385.99-93.15.99-126.96l42.705-.045z" transform="translate(195 78)"/>
                <path fill="#000" d="M89.49 196.5c-6.255-1.83-11.115-1.14-12.39 4.5-3.3 14.505 6.6 52.77 11.535 70.275 2.01-25.14 1.545-55.14.855-74.775z" opacity=".2" transform="translate(195 78)"/>
                <path fill="#1C2225" d="M40.845 408c.09 0-5.835 6.93-5.835 6.93l-24.42-7.35 3.105-8.265L40.845 408z" transform="translate(195 78)"/>
                <path fill="#407BFF" d="M112.02 175.65s18.645 79.005 19.95 116.745c1.5 42.33-13.29 142.155-13.29 142.155h-21s-2.58-100.605-3.51-139.155c-1.02-42-25.695-119.745-25.695-119.745h43.545z" transform="translate(195 78)"/>
                <path fill="#1C2225" d="M122.7 426.21c.105 0-1.17 8.7-1.17 8.7H96l-.69-7.77 27.39-.93z" transform="translate(195 78)"/>
            </g>
        </g>
    </g>
</svg>
