<svg xmlns="http://www.w3.org/2000/svg" xmlns:xlink="http://www.w3.org/1999/xlink" width="226" height="200" viewBox="0 0 226 200">
    <defs>
        <path id="prefix__a" d="M17.046 20.636c.026.02.052.042.078.066.884-.238 1.817-.36 2.779-.347l4.4.076c5.58.057 10.22 4.575 10.14 10.04v.34l-.12 10.53-.02 9.898c-.214 1.217-.327 1.875-.34 1.976-.02.17-.02.322-.04.492-.04.454-.1.87-.22 1.285-.04.17-1.224.908-1.284 1.078C15.95 57.336 7.635 57.792 7.475 57.44c-.324-.75.252-6.805 1.73-18.166-1.21-.08-2.317-.193-3.322-.336-1.12 0-2.86-.2-3.7-1.4-1.22-1.72.18-4.5 1.74-7.62 1.88-3.74 3.152-5.172 5.2-7.1 3.485-3.28 5.942-3.699 7.923-2.181z"/>
    </defs>
    <g fill="none" fill-rule="evenodd" transform="translate(-10)">
        <path fill="#D8DEED" fill-rule="nonzero" d="M11.84 198.738c-.2.382-.74.522-1.16.281l-.08-.04c-.42-.24-.6-.763-.38-1.164l6.26-11.524c3.78-6.987 7.56-13.954 11.36-20.94l5.32-9.798H17.34c-.48 0-.9-.402-.9-.883v-.1c0-.483.42-.884.94-.884h54.88c.48 0 .9.401.9.883v.1c0 .482-.4.884-.9.884h-19.3l5.32 9.797c3.78 6.987 7.56 13.954 11.36 20.94l6.26 11.525c.22.401.04.923-.38 1.164l-.08.04c-.42.221-.96.1-1.16-.28l-23.42-43.186h-15.6l-23.42 43.185zm40.3-103.014c1.657 0 3 1.343 3 3v49.007c0 1.657-1.343 3-3 3h-.003l-32.64-.034c-1.656-.002-2.997-1.345-2.997-3V98.724c0-1.657 1.343-3 3-3h32.64z"/>
        <g>
            <g fill-rule="nonzero">
                <path fill="#FFCB3D" d="M59.68 74.172c.48 0 .9.346.9.762v.277c.04.415-.38.761-.88.761H39.18c-.48 0-.9-.346-.9-.761v-.277c0-.416.4-.762.9-.762h20.5zM44.474 59.286c.359-.198.817-.133 1.102.161l.074.087.063.095c.223.392.126.908-.243 1.185l-20.08 14.96-.108.07c-.148.08-.314.117-.477.11H13.69l-.106-.006c-.452-.053-.814-.44-.814-.894l.007-.104c.054-.442.449-.796.913-.796h10.816l19.864-14.8z" transform="translate(18.2 64.96) matrix(-1 0 0 1 66.8 57.828)"/>
                <path fill="#474961" d="M41.99 63.42l13.09-1.774 4.645 12.527H39.197c-.039 0-.078.001-.115.006l1.543-9.743 1.365-1.016zm2.403-4.07l-.005.004-19.866 14.8H13.708c-.112 0-.219.02-.318.057-.04-.146-.073-.301-.08-.439.02-.14.02-.3.06-.46.1-.36.26-.7.44-1 .58-.92 1.62-1.56 1.62-1.56 1.2-.78 2.3-1.3 3.6-1.86.68-.3 1.64-.7 2.76-1.14.36-1.16.72-2.32 1.08-3.5.68-2.26 1.36-4.5 2.02-6.74l12.04-8.74 7.463 10.578z" transform="translate(18.2 64.96) matrix(-1 0 0 1 66.8 57.828)"/>
                <path fill="#474BFF" d="M13.77 2.304C38.309.438 51.918-.22 54.596.332c4.017.826 7.015 2.694 8.962 6.55s2.656 8.14 1.465 14.1c-1.1 5.507-4.255 8.172-5.565 8.561-.021 10.593-.362 25.022-.478 29.925-.02.67.06 2.485-1.14 3.629-.34.335-.68.473-1.32.769-.5.236-2.74.946-7.22 1.34-.28.02-.58.04-.88.02-4.62-.177-5.76-.493-7.54-1.045l.027.008 4.531-3.375c.37-.277.466-.793.243-1.185l-.063-.095-.073-.087c-.286-.294-.744-.36-1.102-.16l-.086.054-3.474-4.923c-1.369.768-3.642 1.393-7.118 2.59-6.705 2.316-9.392 3.817-11.343 2.333-.653-.475-.958-1.043-1.077-1.314C18.352 50.968 6.73 31.107.712 16.364c-.008-.038-.032-.053-.04-.09-1.93-4.753.424-9.142 6.81-12.35 2.555-.994 4.61-1.494 6.292-1.614zM36.39 37.386l-.014-.168-.063-.222c-.143-.38-.129-.394.043-.04l.034.43c-.1-1.24-.192-2.592-.274-4.063l-.037-.672-.263-4.37-4.603-1.746c1.736 3.573 3.467 7.198 5.177 10.85z" transform="translate(18.2 64.96) matrix(-1 0 0 1 66.8 57.828)"/>
                <path fill="#482D1F" d="M41.08 54.478c.892-.61 1.558-1.31 1.735-2.005.26-.967.082-1.875-.318-2.77-2.191-4.896-3.709-8.144-4.556-9.748-.077-.146-.259-.202-.405-.125-.147.077-.203.259-.125.405.839 1.59 2.352 4.828 4.538 9.713.35.78.502 1.565.286 2.373-.132.516-.714 1.127-1.494 1.662-.137.093-.172.28-.078.417.093.137.28.171.417.078z" transform="translate(18.2 64.96) matrix(-1 0 0 1 66.8 57.828)"/>
                <path fill="#444" d="M13.718 2.395C38.258.529 51.866-.128 54.544.423c4.017.826 7.015 2.694 8.962 6.55s2.657 8.14 1.465 14.1c-1.07 5.358-4.085 8.026-5.454 8.525l.002-.504V28.05c.002-3.875.022-7.198.06-9.367.04-1.795.34-11.654-3.54-13.705-.34-.177-.68-.315-1.36-.572-.54-.197-3.34-1.222-6.94-1.064-2.34.098-5.86.256-8.76 2.72-4 3.412-3.9 8.795-3.86 9.663l.76 12.69-4.582-1.739c-2.912-5.995-5.836-11.843-8.689-17.43l-.907-1.77c-1.536-2.988-3.364-5.437-7.973-5.068z" opacity=".177" transform="translate(18.2 64.96) matrix(-1 0 0 1 66.8 57.828)"/>
            </g>
            <g transform="translate(18.2 64.96) translate(2.6)">
                <use fill="#FFCB3D" fill-rule="nonzero" xlink:href="#prefix__a"/>
                <path fill="#ED9474" fill-rule="nonzero" d="M28.33 2.31c.733.104 1.452.165 2.208.11.1.014.182.005.261.016.725.022 4.586.323 6.251 3.438.14.301.28.603.38.9.257.76.304 1.573.128 2.395l-.724 3.565c-.087.341-.174.683-.301 1.037l.04-.115c.571-.111 1.01-.154 1.313-.128 1.399.118 1.608.837.627 2.155l-4.27 4.96C41 36.546 44.277 46.72 44.072 51.17l9.873.495c3.35.839 8.105 1.902 8.105 1.902-.118 2.812-3.496 2.498-5.265 2.122l-.123-.027-4.845 1.128-3.632.814c-.704.524-1.96 2.038-5.66 2.038-4.569 0-16.425-.485-35.57-1.456-3.68-.453-5.684-1.262-6.01-2.428-.49-1.749-2.333-2.756 1.519-13.608.443-1.248.886-2.422 1.315-3.513.746.263 1.562.325 2.186.325 3.014.429 6.938.576 11.771.443-.571 1.433-.992 2.61-1.248 3.077-.62 1.32-.943 2.04-.971 2.162l-.002.016 18.589 4.506.08-7.61.02-.19.12-10.53v-.341c.059-3.959-2.256-7.421-5.658-9.05.996.228 1.96.288 2.892.181 1.608-.185 2.823-1.81 3.646-4.872l-.018.004.127-.236-.151.278c-1.429 2.554-3.113 4.072-4.39 3.967-.875-.103-1.734-.324-2.55-.7-.104-.072-.032-.013-1.334-.764l-.435 1.267c1.16.358 1.808.733 1.936.813l.02.013c-.364.472-.607.777-.967 1.077l-.163.13c-2.701 2.095-6.29 1.626-9.151.68-.291-1.436-.651-2.318-1.08-2.647-.144-.11-.29-.209-.437-.298l.121-.023c1.42-.269 2.714-.402 3.878-.441.338-.428.645-.828.922-1.202 1.014.42 2.128.85 3.337 1.29.119.042.248.047.37.013.286-.082.465-.359.431-.646l-.019-.096-.235-.823c-.848-.544-1.276-.882-1.487-1.042-.054-.048-1.061-.653-1.115-.701l-.002-3.175c-.009-.223-1.884-2.944-1.425-3.907.533-.912 2.122-2.437 3.063-2.225.352.09 2.234.905 2.301.572l.904-5.132c.047-.336.338-.536.675-.49z"/>
                <path fill="#8C2A00" fill-rule="nonzero" d="M28.618 21.445c.995.228 1.96.288 2.89.181 1.609-.185 2.824-1.81 3.647-4.872l-.018.004c.486-.877.942-1.875 1.341-2.97.016-.044.032-.088.046-.132.573-.111 1.01-.154 1.315-.128 1.398.118 1.607.837.626 2.155l-4.269 4.96c6.792 15.985 10.066 26.184 9.824 30.596l-.646-.032c-1.618-.303-3.158-.54-3.249-.512l-6.07-1.472.081-7.668.02-.189.12-10.53v-.341c.058-3.959-2.257-7.421-5.658-9.05z" opacity=".2"/>
                <path fill="#482D1F" fill-rule="nonzero" d="M35.279 16.66c-.891 3.224-2.14 4.929-3.749 5.114-1.507.174-3.106-.178-4.796-1.054l-.34-.183.519-1.286c1.292.746 1.22.687 1.323.758.817.377 1.675.598 2.55.7 1.29.107 2.993-1.44 4.43-4.038l.063-.012zM37.047 5.9c-.029.056-1.367-.334-2.29-.241-3.975.41-6.04 6.906-7.763 6.381l-.053-.016.016-.009-.523-2.457c-.131-.503-.415-.926-.766-1.299-.29-.243-.607-.429-.958-.518-.94-.213-2.072.375-2.605 1.29-.512.917-.487 2.032.1 2.882.326.494.794.881 1.341 1.11l.21.077.237.028 1.75 6.156c.09.32-.095.65-.414.742-.12.034-.247.03-.364-.012-7.795-2.765-11.59-5.197-11.385-7.295.18-1.855 1.954-4.634 5.32-8.336.276-.53.64-1.047 1.121-1.502.491-.476 1.101-.795 1.737-1.008 1.696-.57 2.848-.004 5.989.357.634.089 1.576.14 2.78.189.1.014.182.005.26.016.725.021 4.403.12 6.26 3.465zm-.2 4.9c.444 0 .722.181.92.35.161.144.086.396-.12.428-.416.083-1.053.155-1.616-.005-.95-.275-.03-.792.816-.774zm-3.268-.46c.399.036.694.239.87.425.118.158.023.407-.18.419-.41.043-1.058.053-1.594-.163-.903-.33.047-.761.904-.681zM36.38 12.377l.083.004c.136.04.303.144.304.426.046.674-.755 1.49-.937 1.06-.125-.26-.008-.809.1-1.137.055-.255.315-.38.533-.349zm-3.27-.44l.082.005c.136.039.303.143.304.426.047.673-.735 1.492-.937 1.06-.164-.266-.007-.809.1-1.137.056-.255.315-.38.533-.35zM35.84 12.34c.03-.105-.031-.216-.138-.246-.106-.03-.216.032-.246.139l-.323 1.146-.005.024-.315 2.096c-.01.023-.032.036-.058.035-.366-.09-.75-.051-1.11.093-.103.04-.153.157-.112.26.04.102.157.152.26.111.29-.116.594-.146.877-.073l.022.004c.231.033.44-.106.507-.32l.007-.03.315-2.104.32-1.134z"/>
                <path fill="#482D1F" fill-rule="nonzero" d="M33.369 17.298c-.136-.04-.482-.168-.53-.397.005-.04-.026-.105 0-.142.073-.09.687-.004.687-.004.809.134 1.013.122 1.058.23.012.062 0 .14-.163.3-.226.311-.84.083-1.052.013zM15.041 44.539c.136-.096.323-.063.418.072.096.136.063.323-.072.418l-3.312 2.332c-.136.096-.323.063-.418-.072-.096-.136-.063-.323.072-.418zm3.422-9.864c.156-.056.327.026.383.183.014.04.037.11.067.208.049.161.097.34.143.533.124.525.202 1.05.209 1.544.022 1.533-.64 2.515-2.166 2.494-.166-.002-.299-.138-.296-.303.002-.166.138-.299.304-.296 1.126.014 1.576-.652 1.558-1.886-.006-.446-.078-.93-.193-1.415-.042-.18-.088-.347-.134-.497-.027-.089-.047-.151-.058-.183-.055-.156.027-.327.183-.382z"/>
            </g>
        </g>
        <path fill="#474961" fill-rule="nonzero" d="M103 92.835l.12.037c.6.22.9.88.68 1.48l-10.02 26.96c-.022.06-.048.117-.079.17-.196.363-.58.61-1.021.61H63.94c-.597 0-1.073-.453-1.133-1.034l-.007-.126c0-.64.52-1.16 1.14-1.16h27.955l9.745-26.22c.205-.56.794-.859 1.36-.717z"/>
        <g fill-rule="nonzero" transform="translate(107 10.2)">
            <rect width="74.6" height="71.815" fill="#F2F6FB" rx="1.2"/>
            <path fill="#E1E5F0" d="M61.907 27.023v43.309c0 .443-.367.803-.791.803H13.584c-.437 0-.791-.355-.791-.803V27.023h49.114zM21.68 57.181h-3.555c-.417 0-.752.305-.801.698l-.007.1v5.606c0 .398.309.741.707.792l.101.006h3.555c.417 0 .752-.304.801-.698l.006-.1V57.98c0-.432-.361-.799-.807-.799zm8.724 0h-3.555c-.417 0-.752.305-.801.698l-.006.1v5.606c0 .398.308.741.706.792l.101.006h3.555c.417 0 .752-.304.801-.698l.007-.1V57.98c0-.432-.362-.799-.808-.799zm8.724 0h-3.554c-.418 0-.753.305-.802.698l-.006.1v5.606c0 .398.308.741.706.792l.102.006h3.554c.418 0 .753-.304.802-.698l.006-.1V57.98c0-.432-.362-.799-.808-.799zm8.724 0h-3.554c-.418 0-.753.305-.802.698l-.006.1v5.606c0 .398.308.741.707.792l.101.006h3.554c.418 0 .753-.304.802-.698l.006-.1V57.98c0-.432-.361-.799-.808-.799zm8.725 0H53.02c-.417 0-.752.305-.801.698l-.006.1v5.606c0 .398.308.741.706.792l.101.006h3.555c.417 0 .752-.304.801-.698l.006-.1V57.98c0-.432-.361-.799-.807-.799zM21.679 45.028h-3.555c-.417 0-.752.305-.801.698l-.007.1v5.606c0 .398.309.741.707.792l.101.006h3.555c.417 0 .752-.304.801-.698l.006-.1v-5.606c0-.43-.361-.798-.807-.798zm8.724 0h-3.555c-.417 0-.752.305-.801.698l-.006.1v5.606c0 .398.308.741.706.792l.101.006h3.555c.417 0 .752-.304.801-.698l.007-.1v-5.606c0-.43-.362-.798-.808-.798zm8.724 0h-3.554c-.418 0-.753.305-.802.698l-.006.1v5.606c0 .398.308.741.706.792l.102.006h3.554c.418 0 .753-.304.802-.698l.006-.1v-5.606c0-.43-.362-.798-.808-.798zm17.449 0H53.02c-.417 0-.752.305-.801.698l-.006.1v5.606c0 .398.308.741.706.792l.101.006h3.555c.417 0 .752-.304.801-.698l.006-.1v-5.606c0-.43-.361-.798-.807-.798zM21.679 32.875h-3.555c-.417 0-.752.304-.801.698l-.007.1v5.606c0 .398.309.741.707.791l.101.007h3.555c.417 0 .752-.305.801-.698l.006-.1v-5.606c0-.431-.361-.798-.807-.798zm8.724 0h-3.555c-.417 0-.752.304-.801.698l-.006.1v5.606c0 .398.308.741.706.791l.101.007h3.555c.417 0 .752-.305.801-.698l.007-.1v-5.606c0-.431-.362-.798-.808-.798zm8.724 0h-3.554c-.418 0-.753.304-.802.698l-.006.1v5.606c0 .398.308.741.706.791l.102.007h3.554c.418 0 .753-.305.802-.698l.006-.1v-5.606c0-.431-.362-.798-.808-.798zm8.724 0h-3.554c-.418 0-.753.304-.802.698l-.006.1v5.606c0 .398.308.741.707.791l.101.007h3.554c.418 0 .753-.305.802-.698l.006-.1v-5.606c0-.431-.361-.798-.808-.798zm8.725 0H53.02c-.417 0-.752.304-.801.698l-.006.1v5.606c0 .398.308.741.706.791l.101.007h3.555c.417 0 .752-.305.801-.698l.006-.1v-5.606c0-.431-.361-.798-.807-.798zM70.602 0C72.81 0 74.6 1.782 74.6 3.998V8.6H0V3.998C0 1.79 1.789 0 3.998 0h66.604z"/>
            <rect width="5.17" height="6.648" x=".512" y=".026" fill="#FFCB3D" rx=".8" transform="translate(42.978 41.538)"/>
            <g fill="#D8DEED">
                <path d="M48.323.022c.437 0 .792.356.792.802v9.2H0v-9.2C0 .38.367.022.791.022h47.532zM32.235 3.356H16.88c-.22 0-.4.18-.4.4V6.29c0 .221.18.4.4.4h15.356c.221 0 .4-.179.4-.4V3.756c0-.22-.179-.4-.4-.4z" transform="translate(12.793 16.246)"/>
            </g>
        </g>
        <g fill-rule="nonzero" transform="translate(40.6)">
            <rect width="78.2" height="58.8" fill="#F2F6FB" rx="1.2"/>
            <path fill="#E1E5F0" d="M33.47 24.185h11.26v4.187c0 .442-.35.801-.81.801h-9.64c-.447 0-.81-.358-.81-.801v-4.187zM15.424 46.254h11.26v4.187c0 .442-.35.801-.81.801h-9.64c-.447 0-.81-.359-.81-.801v-4.187zM33.47 46.254h11.26v4.187c0 .442-.35.801-.81.801h-9.64c-.447 0-.81-.359-.81-.801v-4.187zM51.67 46.254h11.26v4.187c0 .442-.35.801-.81.801h-9.64c-.447 0-.81-.359-.81-.801v-4.187z"/>
            <path fill="#474BFF" d="M25.874 36.93c.447 0 .81.358.81.798v9.584h-11.26v-9.584c0-.44.35-.797.81-.797h9.64zm18.046 0c.447 0 .81.358.81.798v9.584H33.47v-9.584c0-.44.35-.797.81-.797h9.64zm18.2 0c.448 0 .81.358.81.798v9.584H51.67v-9.584c0-.44.35-.797.81-.797h9.64zm-18.2-21.965c.447 0 .81.364.81.802v9.428H33.47v-9.428c0-.443.35-.802.81-.802h9.64z"/>
            <g fill="#E1E5F0">
                <path d="M36.706 3.378c.556 0 1.007.446 1.007 1.003v3.531h-1.08v-3.08c0-.192-.137-.351-.318-.388l-.08-.008H1.554c-.223 0-.397.181-.397.405l-.001 3.07-1.08.001V4.384c0-.556.45-1.006 1.007-1.006h35.622z" transform="translate(20.436 29.121)"/>
                <path d="M18.124 0.052H19.204V7.912H18.124z" transform="translate(20.436 29.121)"/>
            </g>
            <path fill="#E1E5F0" d="M0 3.325C0 1.49 1.492 0 3.335 0h71.53C76.707 0 78.2 1.493 78.2 3.325v3.326H0V3.325z"/>
            <ellipse cx="4.55" cy="3.401" fill="#FF5645" rx="1.465" ry="1.436"/>
            <ellipse cx="9.332" cy="3.401" fill="#FFCB3D" rx="1.465" ry="1.436"/>
            <ellipse cx="14.267" cy="3.401" fill="#3ABF7C" rx="1.465" ry="1.436"/>
        </g>
        <path fill="#D8DEED" fill-rule="nonzero" d="M234.134 95.014l.106.006.1.02c.48.06.82.56.76 1.06l-7.14 57.52c-.005.033-.011.066-.019.098l-.001.042c0 .48-.42.88-.9.88l-15.1-.001 5.32 9.761c2.533 4.64 5.058 9.271 7.58 13.905l3.78 6.955 6.26 11.48c.22.4.04.92-.38 1.16l-.08.04c-.42.24-.96.1-1.16-.28l-23.42-43.02h-15.6l-23.42 43.02c-.2.38-.74.5-1.16.28l-.08-.04c-.42-.24-.6-.76-.38-1.16l6.26-11.48c3.8-6.96 7.58-13.9 11.36-20.86l5.32-9.761-20.02.001c-.462 0-.838-.34-.893-.77l-.007-.11v-.1c0-.48.42-.88.9-.88l54.054-.001 1.686-13.639c.773-6.187 1.538-12.382 2.305-18.58l1.155-9.3 1.9-15.36c.06-.54.52-.94 1.02-.88z"/>
        <g>
            <g fill-rule="nonzero">
                <path fill="#A339FF" d="M89.2 58.1c.28-.015.558.11.734.333l.058.1c.294.346.205.884-.16 1.158L69.928 74.606l-11.722.035c-.425-.007-.776-.32-.836-.73l-.01-.104.003-.12c.025-.425.34-.776.75-.82l.104-.006 10.975-.024 19.565-14.585c.141-.097.282-.155.442-.152zM33.1 72.8c.497 0 .9.403.9.9s-.403.9-.9.9H.9c-.497 0-.9-.403-.9-.9s.403-.9.9-.9h32.2z" transform="translate(125.4 56.8) translate(0 66.8)"/>
                <path fill="#474961" d="M81.978 48l7.146 10.192c-.13.014-.248.067-.367.15L69.192 72.925l-10.975.025-.104.004c-.051.006-.101.016-.15.031-.026-.125-.04-.26-.038-.402.023-.14.025-.3.068-.459.257-.956 1.031-1.762 1.478-2.154.91-.565 1.839-1.069 2.807-1.512 1.902-.91 3.144-1.32 4.24-1.744.162-.278.316-.564.466-.874.187-.397.375-.834.564-1.33.399-1.094.678-2.209.878-3.346l.973-3.043.381-1.194L81.978 48zM36.52 60.641l-3.044 12.33c-.114-.052-.242-.082-.376-.082H.9c-.066 0-.13.007-.192.02l-.008.092c.02-.14.02-.3.06-.46.24-.96 1.02-1.76 1.46-2.16.92-.58 1.84-1.08 2.8-1.54 3.56-1.72 4.78-1.7 7.12-3.26.96-.66 1.86-1.4 2.68-2.22.522-.521 1.815-1.371 3.88-2.55l.3-.17h17.52z" transform="translate(125.4 56.8) translate(0 66.8)"/>
                <path fill="#3ABF7C" d="M49.02.134c9-.02 41.66-.08 42.22-.04.8.06 4.87-.094 7.3 4.28.02 0 .02.02.02.02.36.68.74 1.52 1.08 2.56.64 2.02 1.08 4.74.88 8.1-.12 1.34-.3 4.26-2 7.06-1.76 2.92-4.2 4.88-7.82 6.12-3.08 1.04-6.1.56-9.82.22h-.04c-.14-.02-.42-.08-.76-.14l-.68-.12c-.38-.08-.72-.14-.88-.16h-.04c-3.44-.62-6.5-1.18-9.56-1.76l-.14-.02-.739-.145.58.806.96 1.352c1.32 1.86 2.6 3.72 3.84 5.56l5.02 7.1c.76 1.06.42 2.54-.76 3.28l-6.18 3.84-5.6 3.72-1.1.7c-1.1.68-2.434.36-3.28-.52-2.235-2.329-6.432-7.802-11.7-13.76l-.618-.698c-2.96 5.517-6.636 12.719-8.783 16.325-.42.72-1.24 1.1-2.08.98l-15.88-2.36c-1.36-.2-2.16-1.66-1.58-2.92 2.94-6.46 6.68-16.64 9.86-23.48.82-1.76 1.6-3.5 2.32-5.14l.356-.81c-1.195-1.64-1.898-2.813-2.514-4.297-.7-1.68-1.34-3.22-1.3-5.3.06-3.08 1.6-6.58 4.68-8.46 1.72-1.06 3.4-1.12 4.4-1.2 1.34-.04 2.88-.02 4.6-.02C44.18.8 44.857.795 45.418.81c1.747-.616 3.194-.672 3.529-.676z" transform="translate(125.4 56.8) translate(0 66.8)"/>
                <path fill="#444" d="M57.671 24.253c.9.12 1.8.24 2.7.38 1.24.22 2.48.46 3.74.68 1.303.237 2.592.474 3.879.723l.63.879.962 1.352c1.32 1.86 2.6 3.72 3.84 5.56l5.02 7.1c.76 1.06.42 2.54-.76 3.28l-6.18 3.84-5.6 3.72-1.1.7c-1.1.68-2.435.36-3.28-.52-2.236-2.329-6.433-7.802-11.7-13.76l-.701-.79c.732-1.366 1.42-2.626 2.03-3.704 0 0 .56-1 1.76-2.9.98-1.56 2-2.92 2.86-4.06.46-.62 1.1-1.48 1.9-2.48zM43.281.807c.748-.006 1.34-.01 1.842-.003-2.34.872-5.148 2.757-6.552 6.83-.019.037-3.119 7.502-5.233 12.343-1.148-1.584-1.834-2.738-2.436-4.19-.7-1.68-1.34-3.22-1.3-5.3.06-3.08 1.6-6.58 4.68-8.46 1.72-1.06 3.4-1.12 4.4-1.2 1.34-.04 2.88-.02 4.6-.02z" opacity=".177" transform="translate(125.4 56.8) translate(0 66.8)"/>
                <path fill="#482D1F" d="M53.86 20.094c1.092 1.453 1.43 1.86 1.78 2.204.324.317.645.705 1.72 2.136.1.132.288.159.42.06.133-.1.16-.288.06-.42-1.092-1.454-1.43-1.862-1.78-2.205-.324-.317-.645-.705-1.72-2.136-.1-.132-.288-.159-.42-.06-.133.1-.16.288-.06.42z" transform="translate(125.4 56.8) translate(0 66.8)"/>
            </g>
            <g>
                <path fill="#A339FF" fill-rule="nonzero" d="M55.592 26.364l.633 1.839.116-.034c3.575-.984 7.243-.073 9.913 2.143l.146.098c.41.295.865.78 1.34 1.399.35.43.67.888.956 1.374 2.094 3.27 4.272 8.244 4.674 10.363l.031.18c0 .592-.363 1.099-.88 1.31l3.072 10.453c.188.618 1.007 3.114 1.207 6.913.133 2.532-1.133 4.056-3.799 4.572-3.128-.032-8.363.026-15.704.176-7.34.15-11.726-7.79-13.157-23.82-1.58-5.242.901-10.694 5.62-13.013l-.598-1.74c-.072-.208.04-.436.248-.508l5.673-1.953c.209-.072.437.039.509.248z" transform="translate(125.4 56.8) translate(19)"/>
                <path fill="#F2A98A" fill-rule="nonzero" d="M3.657 119.196l15.594 2.317.168.018c.06.004.121.005.181.004l-2.08 5.906H0l3.657-8.245zm55.729-9.047l3.592 4.651-12.198 8.928-3.892-5.292 5.525-3.67 6.18-3.84.143-.096c.267-.192.485-.425.65-.681zM43.891 42.375c.062.287.136.575.223.861 1.836 5.047 3.542 9.325 5.12 12.834 4.168-.605 8.103-1.065 10.946-1.703.004-.271-.278-3.482-.847-9.633l12.576.435.05.001c.318 2.055.43 4.584.329 7.584-.19 5.706.43 10.356-3.074 12.849-.816.582-1.05.98-3.856 1.197-5.845.452-11.156.323-16.54.088 1.827.089 3.642.167 5.472.214-8.145.387-35.142.715-37.497.636-2.777-.093-4.18-1.001-4.743-2.338-.451-1.073 2.285-2.479 2.702-2.696.083-.043.961-.274 2.634-.693l.014-.003c-1.257-.206-2.366-.783-2.293-2.189 0 0 10.647-1.637 13.618-2.055l-.068.047c.707-.092 1.457-.102 2.27.05.45.08.96.234 1.528.467l-.08.02c2.827-.682 5.992-1.446 9.497-2.29l1.89-12.678c.023-.243.054-.522.101-.832l.028-.173zm4.646-31.834l.634 5.082c.047.317.657.035 1.831-.846 1.455.765 2.336 1.46 2.643 2.085.509 1.013.303 2.12-.24 2.881l-.094.117 1.684 6.289-5.603 1.929-.411-1.637-.248.128c-1.6.852-1.507.782-1.622.834-1.217.47-2.294.563-2.495.564-1.683.056-3.952-2.782-5.29-7.086-.116-.35-.174-.706-.251-1.06l-.534-3.543c-.123-.792-.048-1.604.257-2.34.128-.315.258-.61.414-.848 1.76-2.96 5.592-2.86 6.276-2.852.08-.008.161.004.24-.005.776.1 1.437-.11 2.151-.206.318-.033.604.198.658.514z" transform="translate(125.4 56.8) translate(19)"/>
                <path fill="#8C2A00" fill-rule="nonzero" d="M17.435 61.999c.944.165 1.983.105 2.658.03 1.87.185 3.72.35 5.59.534l1.763.696c.973 1.654 8.506 2.912 11.432 3.128.897.063 1.436.11 2.67.15 4.382.182 8.52.456 12.742.565-8.145.387-35.142.715-37.497.636-2.777-.093-4.18-1.001-4.743-2.338-.451-1.073 2.285-2.479 2.702-2.696.083-.043.961-.274 2.634-.693zm26.456-19.624c.062.287.136.575.223.861 1.848 5.08 3.565 9.38 5.151 12.904-1.81.26-3.664.55-5.491.894-4.387.825-7.745 1.466-10.076 1.923-.473-.244-.914-.447-1.323-.61 2.827-.681 5.992-1.445 9.497-2.288l1.89-12.68c.023-.242.054-.52.101-.83l.028-.174z" opacity=".2" transform="translate(125.4 56.8) translate(19)"/>
                <path fill="#482D1F" fill-rule="nonzero" d="M39.37 19.57c.239-.026.456.132.521.367.076.334.194.884.02 1.144-.221.385-.934-.465-.861-1.116.03-.285.16-.38.32-.396zm3.528-.492c.239-.025.456.133.521.367.095.332.194.885.02 1.144-.221.386-.934-.465-.861-1.116.03-.284.16-.379.32-.395zM42.847 23.568c.135-.055.46-.21.497-.435-.004-.04.01-.101-.014-.139-.092-.111-.345-.024-.699.053-.63.127-1.153.122-1.153.122s.2.38.31.47c.233.297.846.011 1.059-.071z" transform="translate(125.4 56.8) translate(19)"/>
                <path fill="#DE6903" fill-rule="nonzero" d="M53.715 4.899c.188 1.792-.669 3.486-2.14 4.627.86-.088 1.545-.069 2.349.228.293.11.985.38 1.635 1.015 1.853 1.756 1.785 4.357 1.785 5.121-.08 2.301-1.139 3.9-1.56 4.488-.98 1.39-1.884 2.14-2.711 2.248-.48-.694-.859-1.356-1.135-1.986.348-.154.834-.442 1.198-.97.524-.758.731-1.846.227-2.818-.46-.937-1.535-1.589-2.481-1.409-.533.096-.92.439-.975.485-.48.449-.769 1.027-.868 1.247l.004-.09c-.952-.262-2.526-.881-3.902-2.305-.472-.474-.847-.977-1.136-1.43-.77.323-2.038.697-3.559.576-.456-.036-.87-.202-1.247-.323l-.203-.06-.004-.007c-.026-.057.224-.406.22-.446 1.18-2.034 3.386-2.7 4.8-2.91-1.557-.83-2.648-2.255-2.828-3.964-.312-2.966 2.24-5.665 5.701-6.029 3.46-.364 6.518 1.746 6.83 4.712zM39.801 18.317c-.536.258-1.178.265-1.563.245-.203-.019-.307-.25-.183-.403.163-.178.44-.408.836-.47.811-.126 1.756.258.91.628zm3.899-.41c-.556.26-1.199.267-1.603.25-.203-.02-.308-.25-.163-.406.162-.178.44-.408.855-.472.812-.125 1.759.278.911.628z" transform="translate(125.4 56.8) translate(19)"/>
                <path fill="#482D1F" fill-rule="nonzero" d="M49.163 27.549L51.145 25.417 48.99 26.324z" transform="translate(125.4 56.8) translate(19) rotate(-6 50.067 26.483)"/>
                <path fill="#482D1F" fill-rule="nonzero" d="M59.922 54.287c.063-.154.238-.227.391-.165l2.7 1.1c.154.063.227.238.165.391-.063.154-.238.227-.391.165l-2.7-1.1c-.154-.063-.227-.238-.165-.391zM57.01 36.3c.166.004.298.14.294.306-.058 2.772.72 5.453 2.25 7.769.092.138.054.324-.084.415-.139.092-.325.054-.416-.085-1.598-2.417-2.41-5.218-2.35-8.111.004-.166.14-.297.306-.294z" transform="translate(125.4 56.8) translate(19)"/>
                <path fill="#482D1F" fill-rule="nonzero" d="M40.943 19.994l-.002-.03v.015l.002.015zm-.017 2.124l.001.022c.023.217.193.403.413.417l.085-.002c.212-.009.363-.022.905-.08.11-.01.19-.11.178-.22-.012-.109-.11-.189-.22-.177-.532.056-.68.07-.879.077l-.062.002c.004 0-.015-.022-.02-.05l.014-2.14-.002-.028-.163-1.17c-.015-.11-.116-.186-.226-.17-.109.015-.185.116-.17.225l.161 1.155-.015 2.14z" transform="translate(125.4 56.8) translate(19)"/>
            </g>
        </g>
        <path fill="#474961" fill-rule="nonzero" d="M145.8 92.835l-.12.037c-.6.22-.9.88-.68 1.48l10.02 26.96c.022.06.048.117.079.17.196.363.58.61 1.021.61h28.74c.597 0 1.073-.453 1.133-1.034l.007-.126c0-.64-.52-1.16-1.14-1.16h-27.955l-9.745-26.22c-.205-.56-.794-.859-1.36-.717z"/>
        <rect width="204.4" height="2.8" fill="#D8DEED" fill-rule="nonzero" rx="1.4" transform="translate(19.8 122)"/>
        <g fill-rule="nonzero">
            <path fill="#E1E5F0" d="M28.8 0l-2.235 12.534C27.947 13.942 28.8 15.871 28.8 18v14.8H13.2v-5.975c-5.109-.478-8.697-7.775-6.896-14.06C7.309 9.26 9.629 6.39 13.2 4.167V1.6c0-.884.716-1.6 1.6-1.6h14zM13.2 7.825c-2.05 1.63-3.377 3.55-4.012 5.766-.683 2.383-.378 5.034.72 7.169.872 1.692 2.1 2.778 3.292 3.032z" transform="translate(107 89)"/>
            <path fill="#F2F6FB" d="M39.4 19.2v9.7c0 2.264-1.836 4.1-4.1 4.1-2.264 0-4.1-1.836-4.1-4.1v-9.7h8.2zm-31.2 0v9.7c0 2.264-1.836 4.1-4.1 4.1C1.836 33 0 31.164 0 28.9v-9.7h8.2z" transform="translate(107 89)"/>
            <path fill="#474BFF" d="M39.4 24.6v4.3c0 2.264-1.836 4.1-4.1 4.1-2.264 0-4.1-1.836-4.1-4.1v-4.3h8.2zM8.2 28v.9c0 2.264-1.836 4.1-4.1 4.1C1.836 33 0 31.164 0 28.9V28h8.2zm20.6-10v15H13.2V18h15.6z" transform="translate(107 89)"/>
        </g>
    </g>
</svg>
