<svg xmlns="http://www.w3.org/2000/svg" width="260" height="203" viewBox="0 0 260 203">
    <g fill="none" fill-rule="evenodd">
        <g fill-rule="nonzero" transform="translate(-1) translate(33)">
            <rect width="67.8" height="52" fill="#F2F6FB" rx="1.2"/>
            <g>
                <path fill="#D8DEED" d="M45.09 12.165h2.36c.892 0 1.215.092 1.541.267.326.174.582.43.756.756.174.326.267.649.267 1.54v21.498h-7.489V14.728c0-.891.093-1.214.268-1.54.174-.326.43-.582.756-.756.326-.175.649-.267 1.54-.267zM36.53 17.913h2.495c.892 0 1.215.092 1.541.267.326.174.582.43.756.756.175.326.267.649.267 1.54v15.75h-7.622v-15.75c0-.891.093-1.214.267-1.54.174-.326.43-.582.756-.756.326-.175.65-.267 1.54-.267z" transform="translate(8.96 15.774)"/>
                <path fill="#E1E5F0" d="M28.106 0h2.36c.892 0 1.216.093 1.542.267.326.174.581.43.756.756.174.326.267.65.267 1.54v33.663h-7.489V2.564c0-.892.093-1.215.267-1.54.174-.327.43-.583.756-.757.326-.174.65-.267 1.54-.267z" transform="translate(8.96 15.774)"/>
                <path fill="#D8DEED" d="M19.547 4.679h2.361c.892 0 1.215.092 1.541.267.326.174.582.43.756.756.174.326.267.649.267 1.54v28.984h-7.489V7.243c0-.892.093-1.215.268-1.541.174-.326.43-.582.756-.756.326-.175.649-.267 1.54-.267zM11.122 15.64h2.361c.892 0 1.215.093 1.541.267.326.175.582.43.756.756.175.326.267.65.267 1.541v18.022H8.56V18.204c0-.892.092-1.215.267-1.54.174-.327.43-.582.756-.757.326-.174.649-.267 1.54-.267zM2.564 10.16h2.36c.892 0 1.216.092 1.542.267.326.174.581.43.756.756.174.325.267.649.267 1.54v23.503H0V12.723c0-.891.093-1.215.267-1.54.174-.326.43-.582.756-.756.326-.175.65-.268 1.54-.268z" transform="translate(8.96 15.774)"/>
            </g>
        </g>
        <g transform="translate(-1) translate(0 50.8)">
            <path fill="#D8DEED" fill-rule="nonzero" d="M259.134 48.214l.106.006.1.02c.48.06.82.56.76 1.06l-7.14 57.52c-.005.033-.011.066-.019.098l-.001.042c0 .48-.42.88-.9.88l-15.1-.001 5.32 9.761c2.533 4.64 5.058 9.271 7.58 13.905l3.78 6.955 6.26 11.48c.22.4.04.92-.38 1.16l-.08.04c-.42.24-.96.1-1.16-.28l-23.42-43.02h-15.6l-23.42 43.02c-.2.38-.74.5-1.16.28l-.08-.04c-.42-.24-.6-.76-.38-1.16l6.26-11.48c3.8-6.96 7.58-13.9 11.36-20.86l5.32-9.761-20.02.001c-.462 0-.838-.34-.893-.77l-.007-.11v-.1c0-.48.42-.88.9-.88l54.054-.001 1.686-13.639c.773-6.187 1.538-12.382 2.305-18.58l1.155-9.3 1.9-15.36c.06-.54.52-.94 1.02-.88z"/>
            <path fill="#474961" fill-rule="nonzero" d="M98.6 45.035l.12.037c.6.22.9.88.68 1.48l-10.02 26.96c-.022.06-.048.117-.079.17-.196.363-.58.61-1.021.61H59.54c-.597 0-1.073-.453-1.133-1.034l-.007-.126c0-.64.52-1.16 1.14-1.16h27.955l9.745-26.22c.205-.56.794-.859 1.36-.717z"/>
            <path fill="#D8DEED" fill-rule="nonzero" d="M2.066 48.014l-.106.006-.1.02c-.48.06-.82.56-.76 1.06l7.14 57.52c.005.033.011.066.019.098l.001.042c0 .48.42.88.9.88l15.1-.001-5.32 9.761c-2.533 4.64-5.058 9.271-7.58 13.905l-3.78 6.955-6.26 11.48c-.22.4-.04.92.38 1.16l.08.04c.42.24.96.1 1.16-.28l23.42-43.02h15.6l23.42 43.02c.2.38.74.5 1.16.28l.08-.04c.42-.24.6-.76.38-1.16l-6.26-11.48c-3.8-6.96-7.58-13.9-11.36-20.86l-5.32-9.761 20.02.001c.462 0 .838-.34.893-.77l.007-.11v-.1c0-.48-.42-.88-.9-.88l-54.054-.001L8.34 92.14c-.773-6.187-1.538-12.382-2.305-18.58l-1.155-9.3-1.9-15.36c-.06-.54-.52-.94-1.02-.88z"/>
            <g fill-rule="nonzero">
                <g>
                    <path fill="#DE3190" d="M90.41 75.157c.461 0 .838.341.893.787l.007.113c0 .5-.4.9-.9.9H58.63c-.462 0-.838-.34-.893-.786l-.007-.114c0-.5.4-.9.9-.9h31.78zM6.224 60.411c.314-.324.837-.37 1.206-.094l19.864 14.8H38.11c.464 0 .86.363.913.815l.007.105-.007.106c-.054.452-.449.814-.913.814h-11.1c-.203 0-.39-.066-.542-.18l-.058-.04-20.08-14.96c-.4-.3-.48-.88-.18-1.28z" transform="translate(11.8 15) translate(2.53 59.243)"/>
                    <path fill="#474961" d="M14.87 49.817l12.04 8.74c.66 2.24 1.34 4.48 2.02 6.74.36 1.18.72 2.34 1.08 3.5 1.12.44 2.08.84 2.76 1.14 1.3.56 2.4 1.08 3.6 1.86 0 0 1.04.64 1.62 1.56.18.3.34.64.44 1 .04.16.04.32.06.46-.006.132-.036.28-.075.42-.122-.063-.26-.098-.404-.098H27.196L7.408 60.394l7.462-10.578zm57.76 12.74c.22 0 .42.06.6.2 2.28 2.44 4.46 3.8 6.04 4.6 1.22.62 5.3 2.34 7.14 3.18.94.42 1.84.92 2.72 1.46.06.04.1.06.16.12.46.42 1.16 1.18 1.42 2.08.04.12.04.22.06.34.02.1 0 .2 0 .3v.02c-.029.138-.084.264-.16.374-.093-.034-.194-.052-.299-.052h-31.78c-.083 0-.164.011-.24.032-.065-.13-.101-.277-.101-.434l-.3-11.06c-.04-.6.42-1.06 1-1.08l13.74-.08z" transform="translate(11.8 15) translate(2.53 59.243)"/>
                    <path fill="#FFCB3D" d="M11.128.036L33.52 1.357l21.61.8c.036-.018 4.523-.348 8.61.479l5.462-.072c1.64-.1 3.7.92 5.24 2.08.32.24.6.5.86.78.24.26.48.54.68.84.88 1.26 1.34 2.76 1.32 4.3-.04 3.34-.44 5.94-.7 6.8-1.7 5.26-6.06 25-1.68 33.54 0 0 2.22 4.3 1.74 7.52-.186 1.296-.899 2.813-1.12 3.261l.017.018c-1.672 2.411-22.436 5.954-38.39.714-2.178-.715-5.36-1.54-9-3.16-.16-.06-.32-.14-.46-.24l-7.38-4.72-6.18-3.96c-1.18-.76-1.52-2.28-.76-3.38l5.02-7.32 3-4.38c.84-1.24 1.72-2.52 2.62-3.82.43.014-.344-.02-2.32-.1-6.884-.28-15.86-1.6-19.26-7.06-1.72-2.78-2.02-5.7-2.16-7.04-.78-7.82 3.122-11.848 4.4-13.12.853-.847 3-2.208 6.439-4.08z" transform="translate(11.8 15) translate(2.53 59.243)"/>
                    <path fill="#8C2A00" d="M74.442 4.644c.32.24.6.5.86.78.24.26.48.54.68.84.88 1.26 1.34 2.76 1.32 4.3-.04 3.34-.44 5.94-.7 6.8-1.68 5.198-5.958 24.538-1.831 33.234l.15.306s2.22 4.3 1.74 7.52c-.187 1.317-.92 2.86-1.129 3.281l.027.032c-1.76-2.34-8.975-13.358-6.135-32.258.08-.48 1.834-10.85 1.834-13.71 0-10.328-2.501-11.798-6.84-12.95-.247-.066-.498-.127-.75-.183l5.534-.072c1.64-.1 3.7.92 5.24 2.08z" opacity=".2" transform="translate(11.8 15) translate(2.53 59.243)"/>
                    <path fill="#482D1F" d="M33.216 18.077c-.987 1.492-2.026 2.943-4.55 6.394-2.53 3.464-3.573 4.918-4.57 6.426-.122.184-.071.432.113.554.184.122.433.071.554-.113.987-1.493 2.026-2.943 4.55-6.394 2.531-3.464 3.574-4.919 4.57-6.426.122-.184.072-.432-.113-.554-.184-.122-.432-.071-.554.113z" transform="translate(11.8 15) translate(2.53 59.243)"/>
                </g>
                <path fill="#DE3190" d="M17.82 21.42l4.4.28c1.213.065 2.36.47 3.412 1.12 1.56-.106 3.563.183 5.288 1.843 1.68 1.6.88 3 3.4 7.28 1.26 2.12 2.46 3.52 2.02 4.84-.16.493-.633.953-1.42 1.38-1.747.227-2.82.36-3.22.4l-.357.035-.323 5.642-.02.2-.56 9.94-.12 1.94c0 .16-.02.3-.04.46l-.06.52c-.06.46-.16.9-.28 1.34-.06.18-.1.36-.18.54l-20.44-.16-2.187-20.422-5.173-.178C.987 38.06.4 37.64.2 37.16c-.54-1.3.98-2.82 2.56-5.1 3.18-4.56 2.2-5.9 4.28-7.68 2.758-2.361 5.57-2.713 7.476-2.583l.124-.037c1-.28 2.08-.4 3.18-.34z" transform="translate(11.8 15)"/>
                <path fill="#444" d="M25.565 22.824c1.57-.118 3.605.155 5.355 1.84 1.68 1.6.88 3 3.4 7.28 1.26 2.12 2.46 3.52 2.02 4.84-.16.492-.633.952-1.42 1.38-1.747.226-2.82.36-3.22.4-.133.011-.29.027-.447.043l.298-5.232c-.34-3.78-2.36-7.84-5.28-10.06l-.25-.183c-.152-.108-.307-.211-.464-.308z" opacity=".177" transform="translate(11.8 15)"/>
                <path fill="#DB9E75" d="M34.575 38.167l1.03 12.502c2.205.18 4.424.35 6.655.511 2.42.18 4.84.34 7.22.48.329-.192 3.07-.444 6.227 0 .971.136 2.395.535 4.273 1.196 3.56 1.042 5.949 1.782 7.166 2.22 1.827.657 0 1.884-2.546 1.884-.503 0-7.56.26-9.817.551l1.248.34c.643.158 1.258.397 1.86.736l1.61.904c.148.095.28.25.351.448.215.558.167 1.539-.265 1.65l-.085.011-31.015-.952 1.495-.116-1.05.074c-4.397.304-8.844.485-13.832.454-3.16-.02-3.96-.12-4.92-.62C6.06 58.3 5.26 52.1 4.6 46.68c-.26-2.002-.456-4.605-.36-7.69l.018-.461c6.358.219 11.335.388 14.928.507l-.003.198-.003.266c-.02 2.08-.08 4 .1 6.84.08 1.18.1 2.16.14 2.8 3.677.395 7.399.762 11.161 1.098l.33-5.803.02-.2.323-5.662 3.32-.406zM23.64 3.513c.493.04 1.309.04 2.447 0h.951c.478.08 4.142-.113 6.002 2.887.16.3.32.58.44.88.3.74.4 1.56.3 2.38l-.48 3.62c-.06.36-.14.72-.24 1.08-1.28 4.42-3.54 7.38-5.26 7.36-.88-.04-1.76-.2-2.58-.52-.108-.054-.038-.011-1.217-.592l-.273 1.055c.936.351 1.747 1.008 2.63 1.677-.12.52-.34.88-.6 1.14-1.58 1.58-6.633.24-11.533-2.76.403-.113 1.492-.557 3.433-.61.156-.004.339-.004.548 0 .47-.97.92-1.845 1.412-2.93l-.009.007-.011-.007.5-3.64c-.02-.22.04-.04-.16-.12-.5-.18-.94-.52-1.28-.96-.58-.8-.7-1.92-.3-2.92.46-.94 1.56-1.62 2.52-1.46.36.06.68.22.98.46l.02.02c.1.1.24.14.36.16.34.02.64-.2.68-.54l.56-5.2c.02-.34-.18-.487.16-.467z" transform="translate(11.8 15)"/>
                <path fill="#8C2A00" d="M54.774 57.534l1.135.307c.644.157 1.28.365 1.882.705.537.301 1.174.644 1.71.945.148.095.28.25.351.448.215.558.167 1.539-.265 1.65l-.085.011-31.093-.92c4.175-.31 8.29-.73 12.762-1.155 1.38-.12 12.733-1.7 13.373-1.96l.23-.03zm-20.2-19.367l.956 12.609c-1.69-.138-3.372-.282-5.045-.432l.333-5.876.02-.2.324-5.671 3.413-.43z" opacity=".2" transform="translate(11.8 15)"/>
                <path fill="#482D1F" d="M19.39 48.782c.165-.017.312.103.328.268.017.165-.103.312-.268.328l-2.56.26c-.165.017-.312-.103-.328-.268-.017-.165.103-.312.268-.328zm1.55-15.265c.156-.055.327.027.383.183.036.103.087.3.136.594.115.692.16 1.588.1 2.702-.057 1.06-.513 1.719-1.232 2.015-.38.157-.773.19-1.12.157-.044-.004-.077-.009-.098-.012-.163-.028-.273-.183-.245-.347.028-.163.183-.273.347-.245l.053.007c.26.025.559-.001.835-.115.502-.207.817-.661.861-1.492.058-1.072.014-1.924-.093-2.572-.026-.153-.053-.28-.08-.384-.014-.059-.025-.095-.03-.108-.055-.156.027-.327.183-.383zM24.08 20.52L22.02 19.62 23.48 22.6zM15.88 4.48l.047.07-.067.07c.46-.5 1.04-.86 1.66-1.12 1.66-.68 2.84-.2 6-.06.64.04 1.6.06 2.8.02h.26c.72-.02 4.613-.04 6.473 2.96-.02.06-.048.116-.093.2 0 0-3.862 6.669-9.648 6.184l-.552-1.964c-.18-.48-.48-.9-.86-1.24-.3-.24-.62-.4-.98-.46-.96-.16-2.06.52-2.52 1.46-.44.94-.34 2.06.3 2.86.356.48.838.834 1.404 1.019l.18.05-.033.182c-.276 1.53-.651 3.509-.651 3.509l-1.474-.684c-2.38-1.33-3.674-3.813-3.88-7.447-3.874 1.492-7.577.45-9.026-1.769-1.1-1.7-.858-3.965-.78-4.28C5.22.893 7.9.42 7.9.42s3.86-1.98 7.98 4.06zm17.68 7.36c.44.02.72.18.92.36.14.14.06.38-.14.42-.42.08-1.04.16-1.6-.02-.94-.26-.04-.78.82-.76zm-4.18.2c-.9-.34.06-.76.9-.68.4.02.68.24.86.42.12.16.02.4-.18.42-.4.04-1.06.06-1.58-.16zM33.096 13.213l.084.007c.14.04.3.14.3.42.04.68-.76 1.5-.94 1.06-.14-.26 0-.8.1-1.14.06-.24.32-.38.54-.34zm-3.28-.46l.084.007c.14.04.3.14.3.42.04.68-.74 1.5-.94 1.06-.16-.26 0-.8.1-1.14.06-.24.32-.38.54-.34zM32.552 13.157c.031-.106-.029-.217-.135-.249-.106-.031-.217.029-.249.135l-.34 1.14-.005.025-.34 2.12c-.002.008-.019.02-.055.014-.207-.05-.449-.11-.705-.176-.107-.027-.216.037-.244.144-.028.107.037.216.144.244.26.067.503.127.731.18.26.039.484-.108.523-.341l.338-2.108.337-1.128z" transform="translate(11.8 15)"/>
                <path fill="#482D1F" d="M24.08 20.62L22.52 19.84 23.2 23.52zM30.04 18.12c-.14-.04-.48-.16-.52-.4 0-.04-.02-.1 0-.14.06-.1.7 0 .7 0 .8.14 1.02.12 1.06.24.02.06 0 .14-.18.3-.22.3-.86.08-1.06 0z" transform="translate(11.8 15)"/>
            </g>
            <g fill-rule="nonzero">
                <g>
                    <path fill="#FF5645" d="M.9 74.7c-.5 0-.9-.4-.9-.9l.007-.113C.062 73.24.438 72.9.9 72.9h55.18c.5 0 .9.4.9.9l-.007.113c-.055.446-.431.787-.893.787z" transform="translate(160.8 17.19) translate(0 59.51)"/>
                    <path fill="#474961" d="M53.84 60.3l2.556 12.656-.09-.028h-.004l.094.028c-.048-.018-.098-.031-.15-.04l-.053-.009-.113-.007-32.179-.001-.001-.001-22.8.002H.9l-.113.007-.054.008.03.05c-.051-.074-.093-.158-.123-.248L.61 72.6v-.02l-.009-.2c0-.033.002-.067.009-.1.02-.12.02-.22.06-.34.134-.464.48-1.008 1.036-1.631.253-.283.54-.532.857-.74l.242-.15.299-.17c.777-.437 1.4-.76 1.866-.969 1.84-.84 5.92-2.56 7.14-3.18 1.58-.8 3.76-2.16 6.04-4.6.144-.112.3-.173.47-.193l.13-.007 11.47.08c.542 0 .98.418 1.002.962l-.001.118.965 5.417c1.015-.44 1.928-.862 3.055-1.517.877-.504 2.086-1.304 3.446-2.482l.294-.258 2.48-2.16 12.38-.16z" transform="translate(160.8 17.19) translate(0 59.51)"/>
                    <path fill="#444" d="M18.749 60.3l11.47.08c.542 0 .98.418 1.002.962l-.001.118.972 5.465-.154.067c-1.025.44-2.176.915-3.758 1.668-.96.46-1.88.98-2.78 1.56-.44.4-1.2 1.22-1.44 2.18-.04.16-.04.32-.06.46l.006.02.015.019L1.1 72.9H.9l-.113.007-.054.008.03.05c-.051-.074-.093-.158-.123-.248L.61 72.6v-.02l-.009-.2c0-.033.002-.067.009-.1.02-.12.02-.22.06-.34.134-.464.48-1.008 1.036-1.631.253-.283.54-.532.857-.74l.242-.15.299-.17c.777-.437 1.4-.76 1.866-.969 1.84-.84 5.92-2.56 7.14-3.18 1.58-.8 3.76-2.16 6.04-4.6.144-.112.3-.173.47-.193l.13-.007z" opacity=".177" transform="translate(160.8 17.19) translate(0 59.51)"/>
                    <path fill="#3ABF7C" d="M82.04.1c.68.04 3.549.918 4.209 1.669.64.34 4.731 4.571 4.051 12.431-.12 1.32-.38 4.26-2.06 7.06-1.76 2.92-4.72 5.06-8.34 6.28-3.2 1.08-6.94 1.46-10.82 1.04L44.5 24.16v.3l.04.14s1 1.88 1.86 3.82c.86 1.92 2.06 11 2.06 11.06 1.96 3.12 3.94 7.34 5.46 12.66.6 2.14.92 3.82 1.04 4.46.242 1.373.433 3.03.576 4.972l.003.088c0 .663-.538 1.2-1.2 1.2h-.459l-17.78-.02-5.473-.026c-.181.048-.371.073-.566.073l-14.6-.06h-1.18c-1.16 0-2.14-.92-2.2-2.08-.14-2.34-.32-5.42-.54-8.98-.6-8.98-.92-11.84-1.28-18.76-.06-1.16-.12-2.2-.16-3.18-.16-4.66-.58-9.02-1.4-14.72-.46-3.16-.68-5.12-.7-6.78-.02-1.54.44-3.06 1.32-4.32.44-.62.94-1.16 1.54-1.62 1.54-1.18 2.643-1.983 6.506-2.04C20.425.302 23.963.316 27.726.333c.343-.055.668-.072.974-.053L65.28.14z" transform="translate(160.8 17.19) translate(0 59.51)"/>
                    <path fill="#444" d="M27.839.317L27.68.34c-1.4.24-2.98 1.06-4.2 2-.6.46-1.12 1-1.54 1.62-.88 1.24-1.34 2.72-1.34 4.24v.1c.02 1.66.24 3.62.68 6.78.82 5.7 1.24 10.04 1.4 14.72.04.96.1 2.02.16 3.18.34 6.9.68 9.76 1.28 18.76.24 3.56.42 6.62.54 8.98.06 1.16 1.04 2.08 2.2 2.08h1.18l2.526.013c-.163.037-.332.057-.505.057l-14.6-.06h-1.18c-1.16 0-2.14-.92-2.2-2.08-.14-2.34-.32-5.42-.54-8.98-.6-8.98-.92-11.84-1.28-18.76-.06-1.16-.12-2.2-.16-3.18-.16-4.66-.58-9.02-1.4-14.72-.46-3.16-.68-5.12-.7-6.78-.02-1.54.44-3.06 1.32-4.32.44-.62.94-1.16 1.54-1.62C12.4 1.19 13.504.388 17.367.33 20.457.285 24.034.3 27.84.317z" opacity=".177" transform="translate(160.8 17.19) translate(0 59.51)"/>
                    <path fill="#482D1F" d="M44.4 23.715l-.776-.767-.147-.145c-.762-.755-1.385-1.377-2.594-2.586-.156-.156-.41-.156-.566 0-.156.156-.156.41 0 .566 1.21 1.21 1.834 1.832 2.597 2.589l.147.145c.27.268.53.524.779.768.157.155.41.153.565-.005.155-.157.153-.41-.005-.565z" transform="translate(160.8 17.19) translate(0 59.51)"/>
                </g>
                <g>
                    <path fill="#FF5645" d="M54.092 17.825c5.3.26 9.38 4.48 9.12 9.42-.127 2.415-1.277 4.556-3.039 6.076l4.43 16.19c.68 2.56.44 5.16-.56 7.4-.14.32-.3.64-.46.94-.18.32-.38.64-.58.94-.22.32-.46.64-.72.94h-21.78c-.18-.3-.36-.6-.52-.94-.16-.3-.3-.62-.42-.94-.12-.3-.22-.62-.32-.94l-.06-.18-5.663-19.738-4.131.456c-.36.04-.7-.2-.74-.54l-.18-1.4c-.008-.064-.005-.126.007-.186-.68-.41-1.302-.905-1.827-1.474-.76-.82-1.34-1.78-1.68-2.88-1.36-4.36 1.66-9.02 6.74-10.38 2.044-.548 4.115-.483 5.948.075.777-.54 1.629-.956 2.546-1.214l4.38-1.3c2.017-.299 3.957-.23 5.716.192 1.177-.4 2.46-.588 3.793-.517z" transform="translate(160.8 17.19) translate(20.357)"/>
                    <path fill="#444" d="M37.686 20.673c-4.139 2.842-6.189 9.196-4.822 14.14l.626 2.183-4.101.453c-.36.04-.7-.2-.74-.54l-.18-1.4c-.008-.064-.005-.126.007-.186-.68-.41-1.302-.905-1.827-1.474-.76-.82-1.34-1.78-1.68-2.88-1.36-4.36 1.66-9.02 6.74-10.38 2.055-.55 4.137-.482 5.977.084z" opacity=".177" transform="translate(160.8 17.19) translate(20.357)"/>
                    <path fill="#482D1F" d="M30.023 21.47s-.38 1.52 1.64 1.1c2.02-.42 2.6-.62 2.6-.62l-.52-1.38-3.72.9z" transform="translate(160.8 17.19) translate(20.357)"/>
                    <path fill="#DB9E75" d="M37.2.05c.08 0 .16.02.24.02.755.18 1.431.24 2.147.22.319 0 .577.26.597.58l.1 5.12c.02.48 2.446-.44 2.446-.46 1.164-.88 2.625 3.86 2.029 4.56-.438.48-1.671 1.16-2.03 1.28-.218.08-.377.26-.417.46.137 1.014.146 1.829.028 2.444l.503-.204 2.42 4.18-3.992 1.25 3.912 18.57s.332-1.34.758-3.757l.062.017 11.06 2.46c.047.01.093.016.14.017-.388 1.543-.8 3.4-1.24 5.323-1.14 4.96-1.32 7.26-3.14 10.54-2.08 3.74-4 3.84-4.76 4.12-1.7.66-3.4.56-4.46.3-1.272-.308-3.603-.804-5.58-4.4l1.16 4.04.06.18c.1.32.2.64.32.94.12.32.26.64.42.94.106.227.222.436.34.639l.18.301h2.562l-33.195.042c-.063 0-.122-.014-.175-.04l-.015-.01c-.016-.006-.03-.016-.045-.026-5.513-3.332-8.243-5.873-8.191-7.627 1.665-.253 4.042-.601 7.13-1.043 1.727-.248 3.478-.268 5.208-.061l.576.077 6.028.899c4.51-1.446 10.53-3.344 12.032-3.671l-2.58-10.87 3.682-.407 1.736 6.06c-1.016-7.155-.753-14.61-1.668-21.79l-2.105.047c-1.24.5-3.84 1.34-4.12-.44 0 0 3.44-1.42 5.86-2.46l.18-.16c.16-.14.3-.22.5-.28.04-.02.08-.02.12-.02l.96-.14.139-.02c-.322.016-.546.008-.626 0-1.67-.12-3.62-3.18-4.495-7.6-.08-.36-.1-.72-.14-1.08l-.158-3.58c-.04-.8.119-1.6.497-2.3.159-.3.318-.58.497-.8C32.746-.33 36.525-.03 37.201.05z" transform="translate(160.8 17.19) translate(20.357)"/>
                    <path fill="#8C2A00" d="M9.87 59.789c-.063 0-.123-.015-.176-.04-.005-.005-.01-.008-.014-.01-.016-.007-.031-.016-.046-.027-5.512-3.331-8.243-5.873-8.19-7.626 1.665-.254 4.041-.601 7.13-1.044 1.726-.247 3.477-.267 5.208-.06l.576.077 6.028.898c4.51-1.445 10.529-3.344 12.031-3.67l-2.58-10.871 3.682-.406 5.663 19.737.06.18c.1.32.2.64.32.94.12.32.26.64.42.94.16.34.34.64.52.94h2.562l-33.194.042z" opacity=".2" transform="translate(160.8 17.19) translate(20.357)"/>
                    <path fill="#474961" d="M.539 54.802c2.146-2.642 6.564-4.781 13.96.146 1.127.726.745 3.107-.495 3.134l-12.786.215c-.96.032-1.395-2.606-.68-3.495z" transform="translate(160.8 17.19) translate(20.357)"/>
                    <path fill="#482D1F" d="M29.846 8.454c0 1.184.196 2.077.521 3.28.757 2.702 1.562 3.696 1.46 3.696-.103 0-.37.14-2.43-.44-1.02-.28-1.98-.56-2.42-1.38-.62-1.16 1.229-3.556 2.869-5.156zM37.183.05h.04c1.14.12 2.08.16 2.7.16 3.04.06 4.22-.34 5.76.42.28.14.94.5 1.52 1.18.822.96 1.158 2.073 1.281 3.047 2.565 1.684 5.014 4.159 4.579 5.793-.34 1.32-1.62 2.02-2.92 2.74-1.05.576-2.989 1.467-5.78 1.654v.006l-1.96.3c-.31.037-.602-.158-.668-.45l-.012-.09.3-2.16c.09-.359.184-.812.242-1.298.315-.077 1.03-.282 1.578-.922.6-.7.92-1.76.52-2.78-.36-.98-1.36-1.74-2.32-1.66-.54.04-.96.34-1.02.38-.435.33-.796.78-.993 1.05-.94-.367-2.4-1.147-3.607-2.69-.28-.346-.607-.86-.98-1.54-1.992.452-3.666.339-5.02-.34.295-.563.757-1.072 1.383-1.528.94-.683 1.043-.766 2.23-1.099.74-.208 2.143-.275 3.147-.173zm-6.44 7.64c-.56.2-1.2.14-1.58.08-.2-.04-.28-.28-.14-.42.18-.16.48-.36.88-.38.82-.04 1.72.44.84.72zm3.92 0c-.6.2-1.22.14-1.62.08-.2-.04-.28-.28-.12-.42.18-.16.48-.36.9-.38.82-.04 1.72.46.84.72z" transform="translate(160.8 17.19) translate(20.357)"/>
                    <path fill="#482D1F" d="M30.183 8.89c.24 0 .44.18.48.42.04.34.08.9-.1 1.14-.26.36-.88-.56-.74-1.2.06-.28.2-.36.36-.36zm3.56-.12c.24 0 .44.18.48.42.06.34.1.9-.1 1.14-.26.36-.88-.56-.74-1.2.06-.28.2-.36.36-.36zM45.503 37.942l.027.063 1.98 6.7c.047.16-.043.326-.202.373-.137.04-.279-.02-.346-.139l-.027-.064-1.98-6.7c-.047-.159.044-.325.203-.372.136-.04.278.02.345.139zm15.115-5.2c.115.118.113.308-.006.423-.625.607-1.342 1.137-2.113 1.563l.003.054-.007.055-.34 1.498c-.115.522-.635.844-1.157.728-.162-.036-.264-.196-.228-.358.036-.162.196-.264.358-.228.176.04.35-.05.419-.203l.023-.07.291-1.289c-.053-.028-.098-.073-.127-.13-.074-.149-.014-.329.134-.403.855-.427 1.649-.99 2.326-1.647.118-.115.308-.113.424.006zm-15.653-3.494c.174.48.223.611.3.8.107.268.207.476.324.677.156.269.354.537.64.87.109.125.095.314-.03.422-.018.016-.038.03-.058.04l-.006.04-.34 1.498c-.044.202.078.4.273.442.161.036.263.197.227.358-.035.162-.196.264-.357.228-.484-.107-.797-.563-.746-1.047l.018-.112.34-1.5c.013-.058.042-.108.082-.147-.236-.286-.413-.536-.562-.79-.133-.228-.244-.461-.362-.754-.08-.199-.13-.332-.307-.82-.057-.156.023-.328.18-.385.155-.056.327.024.384.18zM38.38 17.153c-.74.34-1.243.942-2.397 1.057-.92.22-1.7-.04-2.1-.24.04-.02.08-.02.12-.02l.96-.14c.46 0 1.199-.08 2.059-.32l1.358-.337zM33.203 13.23c.14-.04.48-.16.54-.38 0-.04.02-.1 0-.14-.08-.12-.34-.06-.7-.02-.64.06-1.16 0-1.16 0s.16.4.26.5c.22.32.86.12 1.06.04zM31.703 9.477v-.029V9.477zm-.24 2.111v.022c0 .219.149.421.367.458l.084.006c.212.014.364.016.909.016.11 0 .2-.09.2-.2 0-.11-.09-.2-.2-.2-.536 0-.683-.002-.883-.015l-.062-.004c.004 0-.012-.023-.015-.053l.238-2.125.002-.03-.04-1.18c-.004-.11-.097-.196-.207-.193-.11.004-.197.097-.193.207l.04 1.165-.24 2.126z" transform="translate(160.8 17.19) translate(20.357)"/>
                </g>
            </g>
            <rect width="212.506" height="2.8" fill="#D8DEED" fill-rule="nonzero" rx="1.4" transform="translate(34.6 74.2)"/>
            <g>
                <path fill="#474961" fill-rule="nonzero" d="M46.86 0c1.5 0 2.74 1.14 2.74 2.52v22c0 1.38-1.24 2.52-2.74 2.52l-17.595-.001-.794 7.761h5.21c.752 0 1.346.567 1.413 1.284l.006.136c0 .8-.64 1.42-1.42 1.42h-22.3c-.752 0-1.346-.566-1.413-1.283l-.007-.137c-.04-.78.62-1.42 1.42-1.42h4.074l1.924-7.761-14.438.001C1.44 27.04.2 25.9.2 24.52V2.54C.18 1.14 1.4 0 2.92 0h43.94z" transform="translate(133.6 36.4)"/>
                <path fill="#FFF" d="M29.86 21.389l.06 13.431h-1.432l1.373-13.431z" transform="translate(133.6 36.4)"/>
            </g>
        </g>
        <g fill-rule="nonzero" transform="translate(-1) translate(92 3.4)">
            <rect width="73.8" height="56.6" fill="#F2F6FB" rx="4"/>
            <g>
                <path fill="#E1E5F0" d="M17.583 32.931c8.254 0 14.945-6.67 14.945-14.9 0-8.228-6.69-14.9-14.945-14.9-8.254 0-14.945 6.672-14.945 14.9 0 8.23 6.691 14.9 14.945 14.9zm0-4.775c-5.615 0-10.164-4.535-10.164-10.124 0-5.59 4.549-10.125 10.164-10.125 5.616 0 10.164 4.535 10.164 10.125S23.2 28.156 17.583 28.156z" transform="rotate(-30 48.857 -11.228)"/>
                <path fill="#474BFF" d="M17.583.744C8.01.744.248 8.483.248 18.032c0 9.548 7.762 17.287 17.335 17.287S34.92 27.58 34.92 18.032h-4.781c0 6.909-5.62 12.512-12.555 12.512-6.934 0-12.554-5.603-12.554-12.512 0-6.91 5.62-12.513 12.554-12.513V.744z" transform="rotate(-30 48.857 -11.228)"/>
                <path fill="#D8DEED" d="M17.813.098C7.978.098.003 8.05.003 17.86c0 9.81 7.975 17.761 17.81 17.761v-5.723c-6.673 0-12.08-5.39-12.08-12.038 0-6.648 5.407-12.039 12.08-12.039V.098z" transform="rotate(-30 48.857 -11.228)"/>
            </g>
            <path fill="#E1E5F0" d="M0 3.201C0 1.433 1.441 0 3.195 0h67.41C72.37 0 73.8 1.437 73.8 3.201v3.201H0V3.201z"/>
            <ellipse cx="4.294" cy="3.274" fill="#FF5645" rx="1.383" ry="1.382"/>
            <ellipse cx="8.807" cy="3.274" fill="#FFCB3D" rx="1.383" ry="1.382"/>
            <ellipse cx="13.464" cy="3.274" fill="#3ABF7C" rx="1.383" ry="1.382"/>
        </g>
        <g fill-rule="nonzero" transform="translate(-1) translate(162)">
            <rect width="67.6" height="52" fill="#F2F6FB" rx="4"/>
            <g transform="translate(8.533 9.758)">
                <path fill="#E1E5F0" d="M1.946 31.551l10.091-15.354c.958-1.458 3.057-1.608 4.209-.301l4.071 4.607c1.858 2.098 5.226 1.776 6.646-.632l9.71-16.487c.972-1.651 3.293-1.765 4.437-.222l10.3 14.045c.239.327.698.397 1.024.157.327-.24.397-.7.157-1.028L42.289 2.287c-1.77-2.386-5.373-2.21-6.88.35l-9.708 16.486c-.914 1.55-3.089 1.757-4.286.404l-4.071-4.606c-1.79-2.032-5.043-1.799-6.532.467L.721 30.742c-.223.34-.13.795.209 1.018.338.224.793.13 1.016-.209z"/>
                <ellipse cx="6.067" cy="23.995" fill="#3ABF7C" rx="2.2" ry="2.206"/>
                <ellipse cx="30.6" cy="12.098" fill="#FFCB3D" rx="2.2" ry="2.206"/>
            </g>
        </g>
    </g>
</svg>
