<svg xmlns="http://www.w3.org/2000/svg" width="215" height="212" viewBox="0 0 215 212">
    <g fill="none" fill-rule="evenodd">
        <g transform="translate(17.16)">
            <rect width="125.84" height="185.02" fill="#F2F6FB" fill-rule="nonzero" rx="4.4"/>
            <ellipse cx="7.81" cy="6.936" fill="#FF5645" fill-rule="nonzero" rx="2.09" ry="1.87"/>
            <ellipse cx="14.74" cy="6.936" fill="#FFCB3D" fill-rule="nonzero" rx="1.98" ry="1.87"/>
            <circle cx="21.45" cy="6.936" r="1.87" fill="#3ABF7C" fill-rule="nonzero"/>
            <path fill="#E1E5F0" fill-rule="nonzero" d="M58.712 158.4c.392 0 .534.04.678.118.143.076.256.189.332.332.077.144.118.286.118.678v14.923c0 .393-.04.535-.118.678-.076.144-.189.256-.332.333-.144.077-.286.117-.678.117H8.388c-.392 0-.534-.04-.678-.117-.143-.077-.256-.19-.332-.333-.077-.143-.118-.285-.118-.678v-14.923c0-.392.04-.534.118-.678.076-.143.189-.256.332-.332.144-.077.286-.118.678-.118h50.324zm58.74 0c.392 0 .534.04.678.118.143.076.256.189.332.332.077.144.118.286.118.678v14.923c0 .393-.04.535-.118.678-.076.144-.189.256-.332.333-.144.077-.286.117-.678.117H67.128c-.392 0-.534-.04-.678-.117-.143-.077-.256-.19-.332-.333-.077-.143-.118-.285-.118-.678v-14.923c0-.392.04-.534.118-.678.076-.143.189-.256.332-.332.144-.077.286-.118.678-.118h50.324zm.252-78.76c.484 0 .876.393.876.872v71.379c0 .481-.401.872-.876.872H8.576c-.484 0-.876-.394-.876-.872V80.512c0-.482.401-.872.876-.872h109.128zM87.34 63.652c.243 0 .44.197.44.44v3.745c0 .243-.197.44-.44.44h-48.4c-.243 0-.44-.197-.44-.44v-3.745c0-.243.197-.44.44-.44h48.4zm8.36-7.488c.243 0 .44.197.44.44v3.745c0 .243-.197.44-.44.44H30.14c-.243 0-.44-.197-.44-.44v-3.745c0-.243.197-.44.44-.44H95.7zM72.82 5.066c.365 0 .66.295.66.66v2.42c0 .364-.295.66-.66.66H53.24c-.365 0-.66-.296-.66-.66v-2.42c0-.365.295-.66.66-.66h19.58zm46.86 0c.365 0 .66.295.66.66v2.42c0 .364-.295.66-.66.66h-10.56c-.365 0-.66-.296-.66-.66v-2.42c0-.365.295-.66.66-.66h10.56zm-14.74 0c.365 0 .66.295.66.66v2.42c0 .364-.295.66-.66.66H94.6c-.365 0-.66-.296-.66-.66v-2.42c0-.365.295-.66.66-.66h10.34z"/>
            <ellipse cx="81.609" cy="98.46" fill="#F2F6FB" fill-rule="nonzero" rx="5.816" ry="5.84"/>
            <path fill="#3C41FF" fill-rule="nonzero" d="M63.03 50.635c1.301 0 2.58-.17 3.814-.502l-.229-.85c-1.16.312-2.361.472-3.585.472v.88zm7.364-1.986c1.112-.65 2.135-1.443 3.04-2.359l-.626-.618c-.85.86-1.812 1.607-2.857 2.217l.443.76zm5.364-5.426c.636-1.118 1.121-2.316 1.443-3.567l-.853-.22c-.302 1.176-.758 2.302-1.355 3.353l.765.434zm1.9-7.406c-.016-1.3-.202-2.578-.55-3.807l-.847.24c.327 1.155.502 2.355.518 3.578l.88-.011zm-2.081-7.34c-.663-1.104-1.47-2.116-2.398-3.01l-.61.635c.872.84 1.63 1.791 2.254 2.828l.754-.453zm-5.494-5.293c-1.126-.62-2.33-1.09-3.586-1.396l-.208.855c1.18.287 2.311.729 3.37 1.312l.424-.77zm-7.43-1.804c-1.3.033-2.574.236-3.8.6l.25.844c1.152-.343 2.35-.534 3.573-.565l-.023-.88zm-7.312 2.176c-1.095.678-2.097 1.498-2.978 2.437l.641.602c.829-.883 1.77-1.653 2.8-2.29l-.463-.749zm-5.222 5.562c-.606 1.134-1.06 2.344-1.35 3.604l.859.197c.271-1.184.698-2.32 1.267-3.386l-.776-.415zm-1.708 7.453c.05 1.299.269 2.571.65 3.793l.84-.262c-.358-1.148-.564-2.343-.61-3.565l-.88.034zm2.27 7.283c.692 1.086 1.525 2.077 2.475 2.946l.594-.649c-.893-.817-1.676-1.749-2.326-2.77l-.742.473zm5.629 5.15c1.14.59 2.357 1.03 3.62 1.302l.186-.86c-1.187-.256-2.33-.668-3.402-1.224l-.404.781z"/>
        </g>
        <g fill-rule="nonzero">
            <g>
                <path fill="#DE3190" d="M88.66 136.31c.528 0 .99.381.99.838v.305c0 .457-.44.837-.99.837H66.11c-.528 0-.99-.38-.99-.837v-.305c0-.457.44-.838.99-.838h22.55zm-51.81 0c.547 0 .99.444.99.99 0 .547-.443.99-.99.99H.99c-.547 0-.99-.443-.99-.99 0-.546.443-.99.99-.99z" transform="translate(104.94 11) translate(19.8 62.13)"/>
                <path fill="#474961" d="M20.467 122.497l16.962.38-.447 13.442c-.043-.006-.087-.009-.132-.009l-35.704.003c-.024-.121-.036-.274-.032-.471.024-.154.027-.33.074-.505.283-1.051.625-1.75 1.626-2.37 1.001-.62 2.023-1.175 3.088-1.663 3.926-1.845 5.268-1.822 7.85-3.515 1.069-.708 2.051-1.527 2.969-2.413.611-.59 1.86-1.55 3.746-2.879zm63.249.457l5.065 13.363c-.04-.004-.08-.007-.121-.007H66.186l1.778-11.222 15.752-2.134z" transform="translate(104.94 11) translate(19.8 62.13)"/>
                <path fill="#A339FF" d="M29.817 3.085c.253.238.505.41.756.537.502.3.919.402.919.402s.02 0 .042.022c0 0 13.488 3.373 26.87-.47l.03-.016.011-.006s.413-.117.905-.434c.225-.136.491-.339.736-.563.307-.3.56-.66.768-1.059 1.673 3.257 6.206 13.372 10.252 33.967.333 1.708.653 3.372.96 4.987l.03-.038c5.546 20.892 9.394 35.518 11.547 43.878 2.211 8.586-.855 8.452.822 15.675.967 4.165 4.205 7.514 4.177 11.85-.004.685.013 2.055.05 4.11.067 3.668-2.614 6.81-6.248 7.321l-14.678 2.063c-3.971.558-7.642-2.208-8.2-6.179l-.015-.11c-.396-3.167-.596-5.05-.601-5.649-.01-1.241-.026-2.372-.05-3.401l-2.437-9.964c-.956-1.478-2.082-3.521-2.97-6.827-.583-2.175-1.91-10.64-3.98-25.396-.04-.196-.115-.807-.227-1.833l-2.898-10.667c-.12 1.247-.244 2.507-.369 3.779.256 17.676.25 27.605-.02 29.789-.846 6.872-3.379 8.764-3.453 10.924-.072 2.115.25 5.198.86 9.832.079.593.142 2.486.191 5.677v.111c0 3.213-2.087 5.94-4.98 6.895-1.82 1.657-4.751.396-12.446.449 0 0-1.185.01-2.75-.084h-1.905c-1.13 0-2.204-.26-3.164-.725-.91-.254-1.662-.59-2.081-1.03-.35-.378-.571-.807-.571-.807-.105-.234-.18-.465-.234-.683-.608-.914-1.016-1.98-1.157-3.136-.249-2.04-.423-3.398-.523-4.076-.63-4.29 2.11-8.057 2.488-12.316.655-7.386-2.363-6.827-1.368-15.637.936-8.292 2.687-17.833 5.253-28.622l.193-.81c1.545-17.514 3.579-37.193 5.819-43.806l.035-.116c.233-.755 1.564-4.96 3.42-8 .062.068.126.132.191.192z" transform="translate(104.94 11) translate(19.8 62.13)"/>
                <path fill="#444" d="M29.817 3.085c.253.238.505.41.756.537.502.3.919.402.919.402s.02 0 .042.022c0 0 .343.086.976.214l7.043 25.967 6.828 25.13c-.118 1.223-.24 2.46-.362 3.707.256 17.676.25 27.605-.02 29.789-.846 6.872-3.379 8.764-3.453 10.924-.072 2.115.25 5.198.86 9.832.079.593.142 2.486.191 5.677v.111c0 3.214-2.087 5.94-4.98 6.895-1.82 1.657-4.751.396-12.446.449 0 0-1.184.01-2.748-.084h-1.907c-1.13 0-2.204-.26-3.163-.724-.91-.255-1.663-.59-2.082-1.03-.35-.379-.571-.808-.571-.808-.105-.234-.18-.464-.234-.682-.608-.915-1.016-1.98-1.157-3.137-.249-2.04-.423-3.398-.523-4.076-.63-4.29 2.11-8.057 2.488-12.316.655-7.386-2.363-6.827-1.368-15.637.96-8.499 2.775-18.308 5.446-29.43 1.545-17.515 3.579-37.195 5.819-43.808l.035-.116c.233-.755 1.564-4.96 3.42-8 .062.068.126.132.191.192z" opacity=".177" transform="translate(104.94 11) translate(19.8 62.13)"/>
            </g>
            <g>
                <path fill="#DE3190" d="M68.859 22.07c8.991-1.94 12.01 2.777 15.62 7.71l.32.436c1.505 2.036.19 3.914-3.942 5.635.025.252.05.514.074.783l.001.066.06 1.077c.355 11.986.531 17.374.63 19.484 0 0-.016.22.01.55.058.967.149 4.948-1.685 6.74-.245.225-.51.428-.736.564-.492.316-.905.433-.905.433l-.04.023c-13.384 3.842-26.872.47-26.872.47-.228-.061-.448-.123-.866-.331-.411-.205-.802-.507-.927-.625-1.875-1.727-1.846-5.714-1.822-6.683l-.008-.507-.001-.043c.023-2.013.015-6.902-.04-17.509-5.254-.487-7.381-2.003-6.381-4.547 2.271-5.778 3.776-11.323 12.783-11.963 2.209-1.102 4.621-1.47 6.3-1.583.973-.061 1.699-.052 1.99-.035.124-.002.29.017.601.034.311.016.664.032 1.058.047.393-.029.745-.057 1.055-.084.31-.028.455-.052.6-.055.31-.027 1.015-.062 1.99-.035.232.008.48.02.738.037l.12-.028z" transform="translate(104.94 11) translate(.031 .16)"/>
                <path fill="#444" d="M50.532 26.62c-.425.558-.97 1.404-1.384 2.621l-.178.51c-.138.376-.435 1.173-.69 2.036-.273.973-.49 2.825-.63 5.402v.066l-.022 1.078.01 1.976c-5.125-.506-7.192-2.016-6.204-4.53 2.253-5.73 3.751-11.231 12.559-11.947-1.287.647-2.502 1.546-3.461 2.789z" opacity=".177" transform="translate(104.94 11) translate(.031 .16)"/>
                <path fill="#F2A98A" d="M83.886 34.135c5.588 22.487 8.608 36.91 9.06 43.269.034.201.055.418.063.65.12 3.7-1.11 9.363-3.689 16.989-.02.045-6.73 3.339-11.45.554l1.467-5.927c-.184.142-.292.205-.292.205-2.888-.484 1.242-11.182 2.472-14.21L71.152 38.585c6.435-1.36 10.68-2.844 12.734-4.45zm-81.95-9.928l18.985 1.226.052-.036 16.465 17.329c1.727-1.834 2.9-3.332 3.93-4.776.698 1.265 2.82 2.061 6.363 2.39.038 7.42.053 12.043.051 14.84-5.283 6.505-8.818 5.49-8.818 5.49-2.462.107-4.345-1.013-5.055-1.443C27.71 55.49 15.941 34.68 13.915 31.042c-2.678-.365-5.179-1.07-7.501-2.11-3.602-1.614-5.113-3.147-4.533-4.6l.054-.125zM58.22 1.062c.194.043.885.204 1.885.375.542.102.98.148 1.24.197 3.246.474 4.579.216 6.128 1.263.29.186.948.653 1.48 1.483 1.501 2.348.791 5.105.595 5.925-.656 2.453-2.261 3.833-2.766 4.421-.375.445-.896.942-1.403 1.391l.491 7.1c.005.154-.055.31-.185.38-.56.373-1.359.797-2.363 1.052-1.81.481-3.382.228-4.27-.005-.178-.038-.316-.21-.322-.385l-.264-4.657-.619.158c-1.933.504-1.817.45-1.953.48-1.415.205-2.592.037-2.806-.03-.78-.148-1.543-.892-2.17-2.086-.85-1.593-1.503-4.007-1.692-6.836-.035-.302-.033-.6-.021-.898l.013-.297.325-3.926c.07-.877.359-1.732.879-2.473.212-.332.417-.598.66-.816l.016-.016.035-.045c1.931-2.164 5.486-2.1 7.087-1.755z" transform="translate(104.94 11) translate(.031 .16)"/>
                <path fill="#8C2A00" d="M39.035 60.67c-2.462.107-4.345-1.013-5.055-1.443C27.78 55.49 16.012 34.68 13.986 31.042c-2.678-.365-5.179-1.07-7.501-2.11-3.602-1.614-5.113-3.147-4.534-4.6l.055-.125 18.986 1.226.052-.036 16.465 17.329c1.727-1.834 2.9-3.332 3.93-4.776.698 1.265 2.82 2.061 6.363 2.39.038 7.42.053 12.043.051 14.84-5.283 6.505-8.818 5.49-8.818 5.49z" opacity=".2" transform="translate(104.94 11) translate(.031 .16)"/>
                <path fill="#482D1F" d="M58.145 19.622L61.42 18.702 58.629 22.658z" transform="translate(104.94 11) translate(.031 .16) rotate(-2 59.782 20.68)"/>
                <path fill="#482D1F" d="M50.373 9.11c-.602.122-1.3-.003-1.713-.112-.217-.056-.268-.345-.106-.49.207-.166.567-.323 1.007-.3.9.047 1.836.69.812.901zm7.93-7.995c.217.045.908.206 1.93.38.564.103 1.001.15 1.262.199 3.311.48 4.666.225 6.236 1.275.29.185.971.655 1.503 1.485 1.66 2.52.904 5.293.616 5.927-.201.443-.518.72-.518.72-1.165-.175-2.251-.252-3.321-.31.023-.531-.086-1.079-.373-1.583-.597-1.058-1.852-1.743-2.94-1.503-.61.134-1.053.553-1.101.592-.627.639-.855 1.359-.88 1.447l-.003.008-.107.514c-7.885-3.008-9.414-6.804-9.825-7.044.126-.141.249-.261.326-.363C53.06.697 56.68.768 58.304 1.115zm-3.369 8.388c-.646.142-1.343-.005-1.756-.114-.218-.056-.268-.345-.085-.49.207-.165.568-.322 1.03-.298.9.047 1.835.713.811.902zM49.818 10.045l.065.008c.26.058.424.309.41.572-.041.373-.14.984-.37 1.193-.391.31-.817-.814-.496-1.48.125-.28.281-.316.456-.285zm3.93.233c.264.014.472.245.48.51.002.374-.03.99-.263 1.241-.35.357-.91-.73-.653-1.422.103-.28.26-.338.436-.33zM52.19 15.197c.157-.036.536-.126.614-.364.003-.044.028-.11.008-.154-.08-.159-.348-.085-.744-.083-.706.007-1.273-.089-1.273-.089s.13.447.233.585c.203.341.917.158 1.163.105zM50.928 10.703l.004-.03-.003.014-.001.016zm-.449 2.303c-.054.245.125.499.373.554l.09.012c.37.048.6.07.998.092.122.006.225-.087.232-.208.006-.122-.087-.225-.209-.232-.385-.02-.605-.042-.964-.088l-.071-.01s-.02-.027-.018-.03l.454-2.34.003-.03.068-1.296c.007-.122-.087-.225-.208-.232-.121-.006-.225.087-.231.209l-.067 1.28-.45 2.319z" transform="translate(104.94 11) translate(.031 .16)"/>
                <path fill="#482D1F" d="M65.996 10.452c.033.652-.156 1.338-.506 1.868-.428.67-.966 1.004-1.64 1.233-.115.04-.177.164-.138.28.04.114.164.176.28.137.296-.101.533-.203.814-.377.414-.257.774-.595 1.053-1.033.4-.606.614-1.384.577-2.13-.006-.121-.11-.215-.231-.208-.121.006-.215.109-.209.23zM83.127 88.303l.067.006c.179.035.295.208.26.387-.219 1.124-.417 1.991-.879 3.919-.46 1.919-.657 2.78-.873 3.891-.035.179-.208.296-.387.26-.179-.034-.296-.207-.26-.386.218-1.124.416-1.991.878-3.919.46-1.918.657-2.78.874-3.891.034-.179.208-.296.387-.26zm4.478-.948l.066.01c.177.046.282.227.236.403-.314 1.208-.536 2.15-1.015 4.252-.48 2.109-.704 3.055-1.02 4.272-.046.177-.226.282-.403.237-.176-.046-.282-.226-.236-.403.314-1.208.537-2.15 1.015-4.252l.083-.36c.424-1.861.64-2.767.938-3.912.046-.176.226-.282.402-.236z" transform="translate(104.94 11) translate(.031 .16)"/>
            </g>
        </g>
        <g fill-rule="nonzero">
            <path fill="#E1E5F0" d="M21.89 24.53H2.772c-1.452 0-2.64-1.188-2.64-2.64V2.772c0-1.452 1.188-2.64 2.64-2.64H21.89c1.452 0 2.64 1.188 2.64 2.64V21.89c0 1.452-1.188 2.64-2.64 2.64z" transform="translate(103.84 11.88)"/>
            <path fill="#F2F6FB" d="M19.602 10.824c.486 0 .88.394.88.88v5.984c0 .486-.394.88-.88.88-.366 0-.68-.224-.813-.543-.541.344-1.184.543-1.871.543-1.938 0-3.52-1.582-3.52-3.52s1.582-3.52 3.52-3.52c.659 0 1.276.183 1.805.5l-.001-.324c0-.486.394-.88.88-.88zM7.069 6.639c.425-1.606 2.668-1.626 3.148-.041l3.102 10.736c.135.467-.134.955-.6 1.09-.468.134-.956-.135-1.09-.602l-1.241-4.292H7.104L6 17.798c-.112.435-.53.71-.964.653l-.108-.021c-.47-.122-.754-.602-.632-1.072zm9.849 6.649c-.966 0-1.76.794-1.76 1.76s.794 1.76 1.76 1.76 1.76-.794 1.76-1.76-.794-1.76-1.76-1.76zM8.656 7.533L7.56 11.77h2.32L8.656 7.533z" transform="translate(103.84 11.88)"/>
        </g>
        <g fill-rule="nonzero">
            <path fill="#F2F6FB" d="M0 2.203C0 .986.985 0 2.2 0h20.195l8.185 8.096v25.572c0 1.21-.983 2.192-2.2 2.192H2.2c-1.215 0-2.2-.978-2.2-2.203V2.203z" transform="translate(0 20.24)"/>
            <path fill="#E1E5F0" d="M12.829 13.898l4.68 6.874 2.003-3.107c.092-.144.254-.141.346-.017l4.688 6.336c.1.135.052.244-.124.246l-4.268.04-4.645-.04H6.12c-.176 0-.241-.12-.149-.262l6.518-10.057c.094-.145.252-.142.34-.013zm6.83-1.309c.823 0 1.49.647 1.49 1.445s-.667 1.445-1.49 1.445c-.824 0-1.491-.647-1.491-1.445s.667-1.445 1.49-1.445zM22.395 0l8.185 8.096-7.722 1.378c-1.2.214-2.005-.576-1.797-1.777L22.395 0z" transform="translate(0 20.24)"/>
        </g>
        <path fill="#D8DEED" fill-rule="nonzero" d="M38.354 58.587L23.906 49.28c-.192.134-.192.134-.366.288l5.4 16.254s2.122-.288 3.762-1.21l2.45 3.148c.969-.539 1.653-.962 2.053-1.27.4-.307.905-.799 1.515-1.474l-2.45-3.167c.695-1.093 1.39-2.187 2.084-3.262z"/>
        <g fill-rule="nonzero">
            <path fill="#FFF" d="M18.47 10.185h11.26v4.187c0 .442-.35.801-.81.801h-9.64c-.447 0-.81-.358-.81-.801v-4.187zM.424 32.254h11.26v4.187c0 .442-.35.801-.81.801h-9.64c-.447 0-.81-.359-.81-.801v-4.187zM18.47 32.254h11.26v4.187c0 .442-.35.801-.81.801h-9.64c-.447 0-.81-.359-.81-.801v-4.187zM36.67 32.254h11.26v4.187c0 .442-.35.801-.81.801h-9.64c-.447 0-.81-.359-.81-.801v-4.187z" transform="translate(36 98)"/>
            <path fill="#474BFF" d="M10.874 22.93c.447 0 .81.358.81.798v9.584H.424v-9.584c0-.44.35-.797.81-.797h9.64zm18.046 0c.447 0 .81.358.81.798v9.584H18.47v-9.584c0-.44.35-.797.81-.797h9.64zm18.2 0c.448 0 .81.358.81.798v9.584H36.67v-9.584c0-.44.35-.797.81-.797h9.64zM28.92.966c.447 0 .81.364.81.802v9.428H18.47V1.767c0-.443.35-.802.81-.802h9.64z" transform="translate(36 98)"/>
            <g fill="#FFF">
                <path d="M36.706 3.378c.556 0 1.007.446 1.007 1.003v3.531h-1.08v-3.08c0-.192-.137-.351-.318-.388l-.08-.008H1.554c-.223 0-.397.181-.397.405l-.001 3.07-1.08.001V4.384c0-.556.45-1.006 1.007-1.006h35.622z" transform="translate(36 98) translate(5.436 15.121)"/>
                <path d="M18.124 0.052H19.204V7.912H18.124z" transform="translate(36 98) translate(5.436 15.121)"/>
            </g>
        </g>
        <text fill="#FFF" font-family="SFProDisplay-Medium, SF Pro Display" font-size="7" font-weight="400" letter-spacing=".135" opacity=".5">
            <tspan x="58" y="107">A</tspan>
        </text>
        <text fill="#FFF" font-family="SFProDisplay-Medium, SF Pro Display" font-size="7" font-weight="400" letter-spacing=".135" opacity=".5">
            <tspan x="40" y="129">B</tspan>
        </text>
        <text fill="#FFF" font-family="SFProDisplay-Medium, SF Pro Display" font-size="7" font-weight="400" letter-spacing=".135" opacity=".5">
            <tspan x="58" y="129">C</tspan>
        </text>
        <text fill="#FFF" font-family="SFProDisplay-Medium, SF Pro Display" font-size="7" font-weight="400" letter-spacing=".135" opacity=".5">
            <tspan x="76" y="129">D</tspan>
        </text>
    </g>
</svg>
