<svg xmlns="http://www.w3.org/2000/svg" width="179" height="195" viewBox="0 0 179 195">
    <g fill="none" fill-rule="evenodd">
        <g transform="translate(97.6)">
            <rect width="80.445" height="60.4" fill="#F2F6FB" fill-rule="nonzero" rx="4"/>
            <g>
                <path fill="#D8DEED" fill-rule="nonzero" d="M7.281 0c4.021 0 7.281 3.293 7.281 7.355s-3.26 7.354-7.28 7.354C3.26 14.71 0 11.417 0 7.355S3.26 0 7.281 0zm.016 7.809c-.974 0-1.763.787-1.763 1.758H9.06l-.006-.144c-.073-.904-.832-1.614-1.757-1.614zm0-2.425c-.537 0-.973.434-.973.97s.436.97.973.97c.537 0 .973-.434.973-.97s-.436-.97-.973-.97z" transform="translate(4.814 40.991)"/>
            </g>
            <g fill-rule="nonzero">
                <path fill="#E1E5F0" d="M72.088 51.719c.805 0 1.459.653 1.459 1.459s-.654 1.46-1.46 1.46H24.6c-.806 0-1.46-.654-1.46-1.46 0-.806.654-1.46 1.46-1.46h47.489zm-7.306-4.743c.806 0 1.46.653 1.46 1.46 0 .805-.654 1.459-1.46 1.459H24.6c-.806 0-1.46-.654-1.46-1.46 0-.806.654-1.459 1.46-1.459h40.183zm-10.227-4.743c.805 0 1.459.654 1.459 1.46 0 .806-.654 1.459-1.46 1.459H24.6c-.806 0-1.46-.653-1.46-1.46 0-.805.654-1.459 1.46-1.459h29.956zm2.104-29.811c.445 0 .806.35.806.808v21.869c0 .446-.364.808-.806.808H5.62c-.445 0-.806-.35-.806-.808V13.23c0-.446.365-.808.806-.808h51.04zM77.19 0C79.071 0 80.6 1.533 80.6 3.416v3.416H0V3.416C0 1.529 1.538 0 3.412 0h73.776z"/>
                <path fill="#A339FF" d="M63.69 30.77h9.488c1.418 0 2.569 1.15 2.569 2.569 0 1.418-1.15 2.568-2.57 2.568H63.69c-1.419 0-2.569-1.15-2.569-2.568 0-1.42 1.15-2.57 2.57-2.57z"/>
            </g>
            <circle cx="4.581" cy="3.494" r="1.475" fill="#FF5645" fill-rule="nonzero"/>
            <circle cx="9.396" cy="3.494" r="1.475" fill="#FFCB3D" fill-rule="nonzero"/>
            <circle cx="14.365" cy="3.494" r="1.475" fill="#3ABF7C" fill-rule="nonzero"/>
        </g>
        <g fill="#D8DEED" fill-rule="nonzero">
            <path d="M59.594 54.86V40.48 1.02c0-.48-8.3-.88-18.28-.88h-2.08c-9.96 0-18.28.4-18.28.88V54.9c0 .48 8.3.88 18.28.88h2.08c9.96.02 18.28-.4 18.28-.92zM.574 104.32l.08.04c.42.22.96.1 1.16-.28l23.42-43.02c.22-.4.04-.9-.38-1.12l-.08-.04c-.42-.22-.96-.1-1.16.28l-5.8 10.64c-3.78 6.96-7.56 13.9-11.36 20.86l-6.26 11.48c-.22.4-.04.92.38 1.16z" transform="translate(108.4 90.06)"/>
            <path d="M58.734 59.2H3.854c-.48 0-.9.4-.9.88v.1c0 .48.4.88.9.88h54.92c.48 0 .9-.4.9-.88v-.1c0-.48-.42-.88-.94-.88z" transform="translate(108.4 90.06)"/>
            <path d="M65.874 103.16l-6.26-11.48c-3.78-6.96-7.56-13.9-11.36-20.86l-5.8-10.64c-.2-.38-.74-.52-1.16-.28l-.08.04c-.42.22-.6.74-.38 1.12l23.42 43.02c.2.38.74.52 1.16.28l.08-.04c.42-.24.6-.76.38-1.16z" transform="translate(108.4 90.06)"/>
        </g>
        <g fill-rule="nonzero">
            <path fill="#FFCB3D" d="M30.232.027c.056.018.093.056.13.113.787 1.11 2.72 3.939 3.239 5.37 1.437.713 1.928 1.42 2.005 2.04.112 1.04-.131 1.876-.711 3.251-1.122 2.75-2.076 5.537-2.843 8.399-.225-.048-.449-.1-.673-.153.47 1.786.453 3.153.453 3.153H.838c.526 0 4.326-10.29 17.734-11.335.386-.03.76-.05 1.124-.06l-.025.107c.078-.386.22-.708.503-1.221-.562-1.374-.995-4.604-1.142-5.95 0-.054.02-.11.038-.165.075-.147.283-.22.453-.147l4.245 2.08.163-.06c.676-.241 1.388-.464 2.137-.687.766-.234 1.532-.434 2.252-.617L29.84.197c.055-.152.242-.246.392-.17z" transform="translate(40.78 137.8)"/>
            <path fill="#DE6903" d="M12.335 20.026c3.223.842 5.1 1.578 5.631 2.206H1.299c-.708 0-1.267-.573-1.267-1.3-.158-1 .264-1.61 1.267-1.827 4.134-.229 7.813.078 11.036.92zM34.832 11.2s-1.631 4.953-2.614 8.025c.054-.249-.656 1.648-.8 1.341l-.015-.056v-.018c-.13-.615-.63-1.062-1.26-1.099-.594-.037-1.224-.056-1.892-.056-.682 0-1.376.036-2.063.107l-.514.06-1.242-3.78c1.205.615 2.577.839 3.912.727.463-.037.908-.13 1.353-.26 1.224-.354 2.318-1.08 3.17-2.03.482-.559 1.965-2.961 1.965-2.961zm-4.325-2.455c.11.595-.141 1.184-.625 1.522l-.126.08-.02.01c-.504.236-1.072.17-1.502-.126-.132.323-.4.599-.76.762-.725.275-1.537.004-1.902-.636-.082-.144-.032-.327.112-.41.143-.081.327-.031.409.113.216.378.714.544 1.15.38.332-.151.52-.459.485-.76-.09-.153-.107-.342-.09-.512.018-.132.087-.245.174-.302.174-.132.434-.056.538.133.092.18.1.4.058.59.261.296.69.398 1.063.23.338-.197.517-.578.446-.964-.03-.163.077-.32.24-.35.163-.03.32.078.35.24zM23.34 9.6c.211.396.018.962-.193 1-.158.019-.351-.189-.422-.321-.088-.151-.105-.34-.088-.51.018-.132.088-.245.176-.302.176-.132.422-.056.527.133zm9.007-3.2c.195.396.018.924-.195 1-.16.019-.355-.189-.426-.321-.088-.151-.106-.34-.088-.51.017-.132.088-.245.177-.302.177-.132.426-.056.532.133z" transform="translate(40.78 137.8)"/>
        </g>
        <g fill-rule="nonzero">
            <g>
                <path fill="#FF5645" d="M32.32 69.327c.47 0 .852.382.852.852 0 .471-.381.853-.852.853H.877c-.471 0-.853-.382-.853-.853 0-.47.382-.852.853-.852H32.32zm23.704 0c.471 0 .853.382.853.852 0 .471-.382.853-.853.853h-19.88c-.47 0-.852-.382-.852-.853 0-.47.382-.852.852-.852h19.88z" transform="translate(97.065 64.091) translate(.168 59.477)"/>
                <path fill="#474961" d="M17.918 57.528l13.8.042 1.13 11.94c-.145-.114-.328-.183-.528-.183H.877c-.031 0-.062.002-.092.005-.011-.085-.016-.189-.014-.314.022-.133.024-.284.065-.435.248-.905.548-1.506 1.424-2.04.877-.535 1.772-1.012 2.705-1.432 3.44-1.589 4.615-1.569 6.877-3.027.936-.609 1.797-1.314 2.6-2.077.537-.508 1.695-1.335 3.476-2.479zm33.82 1.452l4.064 10.346H36.185l1.573-10.346h13.98z" transform="translate(97.065 64.091) translate(.168 59.477)"/>
                <path fill="#A339FF" d="M38.878.743c14.162-.123 12.212-1.767 16.64.27 2.953 1.359 4.963 5.226 6.031 11.601.383 4.848-1.587 8.91-5.908 12.189-.032 9.267-.35 21.58-.46 25.816-.02.59.058 2.186-1.099 3.192-.327.295-.655.416-1.272.677-.481.208-2.64.833-6.957 1.18-.27.017-.559.034-.848.017-4.452-.156-5.55-.434-7.265-.92-1.137-.312-1.966-1.284-2.082-2.429-.54-5.048-2.023-18.807-2.139-20.021-.137-1.373-.259-2.91-.365-4.636l-.04-.656-.061-.934-5.333-2.103c2.227 8.527 4.388 17.358 6.32 26.138.096.43.27 1.399-.232 2.313-.925 1.739-3.334 1.65-9.096 2.33-6.784.807-9.617 1.65-11.159-.071-.52-.556-.694-1.13-.751-1.399-1.39-6.887-8.212-26.715-10.999-41.193l-.102-.54-.02-.09c-.867-4.68 2.39-9.09 7.228-9.681 1.6-.197 3.045-.387 4.644-.584.48-.056.957-.073 1.43-.053z" transform="translate(97.065 64.091) translate(.168 59.477)"/>
                <path fill="#444" d="M38.878.743c14.162-.123 12.212-1.767 16.64.27 2.953 1.359 4.963 5.226 6.031 11.601.382 4.839-1.58 8.895-5.883 12.17l.001-.944.001-1.498c.003-3.173.023-5.888.057-7.693.039-1.579.328-10.254-3.41-12.058-.328-.156-.656-.278-1.311-.503-.52-.174-3.219-1.076-6.688-.937-2.254.087-5.646.226-8.44 2.394-3.855 3.002-3.759 7.738-3.72 8.502l.922 14.052-5.33-2.102c-1.324-5.067-2.671-10.026-4.008-14.803l-.488-1.74c-1.024-3.618-4.45-6.121-8.205-6.299z" opacity=".177" transform="translate(97.065 64.091) translate(.168 59.477)"/>
            </g>
            <g>
                <path fill="#FF5645" d="M52.46 27.675c1.61 4.125 3.75 8.784 3.551 8.845-.042.013-.976.681-2.254 1.095 1.849 6.983 2.846 11.658 2.99 14.024.285 4.712-1.3 7.871-6.671 8.271-5.372.4-12.848.965-13.727-.598-.564-1.005-3.22-7.208-7.964-18.61-1.774.573-2.7.867-2.78.88-.247.044-1.089-2.73-1.637-7.115-.629-5.032 2.423-9.228 7.48-10.087.837-.145 1.585.026 2.245.513.23-.1.468-.19.71-.267l4.113-1.373c.239-.044.476-.082.713-.114.322-.372.982-.687 2.128-1.039 4.066-1.27 9.255.842 11.103 5.575z" transform="translate(97.065 64.091) translate(1.83)"/>
                <path fill="#444" d="M31.449 24.38c.841-.146 1.593.028 2.256.522-5.031 2.087-7.529 9.232-5.854 14.516l.548 1.28c-1.783.576-2.714.87-2.793.885-.248.043-1.09-2.73-1.638-7.116-.629-5.032 2.423-9.228 7.48-10.087z" opacity=".177" transform="translate(97.065 64.091) translate(1.83)"/>
                <path fill="#482D1F" d="M25.4 25.49s-.366 1.44 1.58 1.042c1.947-.398 2.506-.587 2.506-.587l-.5-1.307-3.585.852z" transform="translate(97.065 64.091) translate(1.83)"/>
                <path fill="#DB9E75" d="M36.405 114.328c1.556.433 2.777.687 6.962.834.29.017.578 0 .848-.017 2.06-.166 3.628-.395 4.758-.611l1.103 3.923-1.285.055H36.13l.274-4.184zm-6.9-.866l.55 3.585H16.184l.915-2.031c1.552-.178 3.5-.477 5.976-.771 2.927-.346 4.989-.494 6.43-.783zm.841-108.13c.136.007.564.028 1.166.052.568.084 1.113.113 1.671.084.309-.007.563.237.59.54l.238 4.846c.001.036.01.087.028.152 1.94-.79 3.33-.339 4.168 1.35 1.257 2.536.119 1.987-.44 2.663-.403.472-.905.705-1.242.829-.063.013-.127.05-.184.1l1.51.014.267 1.042.098 1.323.992 4.839s-1.4.767-2.803 1.311l3.584 16.735.852-4.542c4.492.879 8.147 1.319 10.966 1.318h.045l-.024.098c-.65 2.601-2.146 12.927-4.457 16.953-2.96 5.157-4.688 5.723-9.06 5.301-.453-.043-.88-.124-1.284-.241.197.064.399.118.608.161l-22.617.347-.001.007-.073-.006-.083.002c-.039 0-.076-.004-.112-.014l-9.262-.683c-1.397-.102-2.69-.764-3.59-1.829l-.164-.204-1.04-1.364c-.246-.323-.406-.704-.463-1.107-.178-1.246.645-2.405 1.86-2.662l.16-.028 2.764-.394c1.706-.243 3.435-.265 5.144-.065l.57.075 5.708.835c4.333-1.362 10.116-3.151 11.56-3.46l-1.793-8.32 2.12-.83 1.882 4.289c-.669-6.344-.594-13.35-1.393-19.573l-2.005.043c-1.194.474-3.7 1.27-3.97-.416 0 0 3.315-1.345 5.647-2.33l.174-.152c.154-.132.289-.208.481-.265.039-.019.077-.019.116-.019l.136-.019c-.351.027-.598.02-.683.011-1.612-.07-3.588-2.923-4.539-7.082-.087-.335-.118-.674-.167-1.012l-.243-3.383c-.067-.755.078-1.509.405-2.183.032-.08.065-.139.099-.199.117-.2.235-.4.356-.563.464-.648 1.04-1.135 1.647-1.492 1.443-.732 3.13-.915 4.08-.883zm2.577 15.721l-.146.061c-1.605.67-1.512.624-1.624.672-.245.075-.484.135-.71.182l1.741-.247.85-.124-.111-.544z" transform="translate(97.065 64.091) translate(1.83)"/>
                <path fill="#482D1F" d="M34.99 20.176c-.308.695-.59 1.14-.85 1.337l.07-.06-.726.1-.405.058-.044-.01-.114-.548zM24.856 14.285c.248-.04.474.11.534.353.069.336.195.877.063 1.135-.215.418-.967-.43-.909-1.081.034-.27.158-.394.312-.407zm4.096-.714c.248-.04.474.111.534.353.069.337.194.877.063 1.136-.215.418-.967-.43-.91-1.082.035-.269.16-.394.313-.407zM26.337 14.598L26.33 16.5c.02.233.216.435.442.415.134 0 .219-.008.56-.044.153-.017.257-.027.381-.038.106-.01.185-.101.175-.205-.009-.105-.102-.182-.208-.172-.127.01-.233.021-.388.038-.327.035-.407.042-.538.043-.008 0-.037-.03-.039-.054l.008-1.885c0-.105-.085-.19-.191-.19-.107 0-.193.085-.194.19zM28.1 17.904c.13-.05.445-.21.467-.402-.004-.038.01-.096-.01-.113-.086-.088-.329.01-.67.095-.605.148-1.123.192-1.123.192s.2.306.305.392c.232.208.826-.07 1.03-.164z" transform="translate(97.065 64.091) translate(1.83)"/>
                <path fill="#482D1F" d="M32.755 12.523l.639-.213c.365-.122.551.416.186.538l-.639.213-.481.161c.054.176.091.36.108.552.132 1.48-.982 2.784-2.488 2.913-1.31.113-2.485-.7-2.855-1.889l-.337.052-.279.043c.057 1.425-1.035 2.657-2.496 2.783-1.505.13-2.833-.965-2.965-2.445-.131-1.48.983-2.785 2.488-2.914 1.35-.116 2.565.754 2.89 2.014l.272-.042.09.561c-.331-.24-.332-.249-.333-.257l-.303-.22.275-.042c.013.052.025.106.036.16.024-.097.1-.181.235-.202l.317-.05c-.13-1.478.984-2.781 2.488-2.91 1.109-.096 2.12.472 2.63 1.369l.522-.175zm-6.413 2.412c-.159.024-.308-.084-.33-.24-.023-.155.084-.298.24-.322l.546-.084.317-.05v.003c.018.193.055.378.11.556l-.337.052-.546.085zm.546-.085c-.138.022-.238-.039-.29-.127l.29.127zm3.142 1.271c1.188-.102 2.066-1.13 1.962-2.298-.104-1.167-1.15-2.03-2.338-1.928-1.188.102-2.066 1.13-1.962 2.298.104 1.167 1.15 2.03 2.338 1.928zm-6.343-3.238c-1.188.102-2.066 1.131-1.963 2.298.104 1.168 1.151 2.03 2.339 1.929 1.187-.102 2.066-1.131 1.962-2.299-.004-.039-.008-.078-.014-.117-.161-1.111-1.181-1.91-2.324-1.811z" transform="translate(97.065 64.091) translate(1.83)"/>
                <path fill="#8C2A00" d="M28.312 40.56c.705 1.608 1.365 3.114 1.982 4.516l.166 1.198.21 1.286c1.423 7.442 3.072 11.89 6.954 12.7l-22.617.347-.001.007-.073-.006-.083.002c-.039 0-.076-.004-.112-.014l-9.262-.683c-1.397-.102-2.69-.764-3.59-1.829l-.164-.204-1.04-1.364c-.246-.323-.406-.704-.463-1.107-.178-1.246.645-2.405 1.86-2.662l.16-.028 2.764-.394c1.706-.243 3.435-.265 5.144-.065l.57.075 5.707.835c4.334-1.362 10.117-3.151 11.561-3.46l-1.793-8.32 2.12-.83z" opacity=".2" transform="translate(97.065 64.091) translate(1.83)"/>
                <path fill="#482D1F" d="M39.984 40.958c.153-.044.314.041.36.192l1.908 6.326c.045.15-.042.309-.195.354-.153.044-.314-.042-.36-.192L39.79 41.31c-.045-.15.042-.308.195-.353zm14.15-3.65c.152-.054.316.03.367.187.052.157-.03.327-.18.38-.77.272-1.589.404-2.457.397-.16 0-.288-.136-.287-.302.001-.166.132-.299.292-.298.804.007 1.559-.115 2.266-.364zM46.656.246c0 .023 2.973.023 3.734 3.004.076.296.609 2.388-.244 4.113-1.143 2.257-4.553 3.647-8.433 2.698.047.66.001 1.201-.019 1.483-.211 2.185-1.424 3.564-1.778 4.146-.473.775-1.057 1.556-1.752 2.342-.867-.512-1.53-1.11-1.99-1.792l-.306-.46c.289-.084 1.158-.27 1.692-.915.56-.656.836-1.688.422-2.64-.372-.92-1.362-1.614-2.282-1.516-.517.064-.917.345-.971.388-.634.492-.887 1.122-.887 1.122l-.154.438c-.076-.097-.149-.189-.218-.273-1.475-1.356-2.327-2.297-3.82-3.652-.752.255-5.575 1.942-5.937 1.783 0-1.925.716-2.544.837-2.707.465-.648 1.144-1.277 1.75-1.634 1.445-.732 3.13-.915 4.081-.883.137.007.564.028 1.166.052.174.004.349.008.562.009.502-.005.89 0 1.122-.002 2.935-.062 4.04-.461 5.568.187.09.04.215.099.364.179.1-.262.22-.506.337-.732C42.731-1.17 46.656.224 46.656.246z" transform="translate(97.065 64.091) translate(1.83)"/>
            </g>
        </g>
        <path fill="#474961" fill-rule="nonzero" d="M96.345 119.546c2.176-2.126 6.616-3.792 13.954.407 1.12.62.711 2.566-.53 2.563l-12.784-.086c-.96.006-1.365-2.17-.64-2.884z"/>
        <path fill="#3ABF7C" fill-rule="nonzero" d="M73.5 160.032c1.403.433 2.287 1.352 2.654 2.757.366 1.405-.518 2.752-2.654 4.043l-.022-.005.002.005h-33.6c-2.136-1.29-3.02-2.638-2.654-4.043.367-1.405 1.251-2.324 2.654-2.757z"/>
        <g transform="translate(0 21.4)">
            <path fill="#F2F6FB" fill-rule="nonzero" d="M84.26 54.84H23.14c-2.4 0-4.36-1.777-4.36-3.952V14.392c0-2.175 1.96-3.952 4.36-3.952h61.12c2.4 0 4.36 1.777 4.36 3.952V50.87c0 2.193-1.96 3.97-4.36 3.97z"/>
            <path fill="#E1E5F0" fill-rule="nonzero" d="M18.8 10.198c0-2.208 1.796-3.998 4.003-3.998h61.794c2.21 0 4.003 1.782 4.003 3.998V14.8H18.8v-4.602z"/>
            <g fill-rule="nonzero">
                <path fill="#E1E5F0" d="M8.85 19.2c.635 0 1.15.515 1.15 1.15 0 .635-.515 1.15-1.15 1.15h-7.7C.515 21.5 0 20.985 0 20.35c0-.635.515-1.15 1.15-1.15h7.7zm11.8 0c.635 0 1.15.515 1.15 1.15 0 .635-.515 1.15-1.15 1.15h-7.7c-.635 0-1.15-.515-1.15-1.15 0-.635.515-1.15 1.15-1.15h7.7zm11.8 0c.635 0 1.15.515 1.15 1.15 0 .635-.515 1.15-1.15 1.15h-7.7c-.635 0-1.15-.515-1.15-1.15 0-.635.515-1.15 1.15-1.15h7.7zm17.2-6.4c.635 0 1.15.515 1.15 1.15 0 .635-.515 1.15-1.15 1.15h-16.1c-.635 0-1.15-.515-1.15-1.15 0-.635.515-1.15 1.15-1.15h16.1zm-27.2 0c.635 0 1.15.515 1.15 1.15 0 .635-.515 1.15-1.15 1.15h-2.9c-.635 0-1.15-.515-1.15-1.15 0-.635.515-1.15 1.15-1.15h2.9zM8.85 6.4c.635 0 1.15.515 1.15 1.15 0 .635-.515 1.15-1.15 1.15h-7.7C.515 8.7 0 8.185 0 7.55 0 6.915.515 6.4 1.15 6.4h7.7zm11.8 0c.635 0 1.15.515 1.15 1.15 0 .635-.515 1.15-1.15 1.15h-7.7c-.635 0-1.15-.515-1.15-1.15 0-.635.515-1.15 1.15-1.15h7.7zm11.8 0c.635 0 1.15.515 1.15 1.15 0 .635-.515 1.15-1.15 1.15h-7.7c-.635 0-1.15-.515-1.15-1.15 0-.635.515-1.15 1.15-1.15h7.7zm17.2 0c.635 0 1.15.515 1.15 1.15 0 .635-.515 1.15-1.15 1.15h-13.1c-.635 0-1.15-.515-1.15-1.15 0-.635.515-1.15 1.15-1.15h13.1zM15.45 0c.635 0 1.15.515 1.15 1.15 0 .635-.515 1.15-1.15 1.15H1.15C.515 2.3 0 1.785 0 1.15 0 .515.515 0 1.15 0h14.3zm34.2 0c.635 0 1.15.515 1.15 1.15 0 .635-.515 1.15-1.15 1.15h-16.1c-.635 0-1.15-.515-1.15-1.15 0-.635.515-1.15 1.15-1.15h16.1zm-20.2 0c.635 0 1.15.515 1.15 1.15 0 .635-.515 1.15-1.15 1.15h-2.9c-.635 0-1.15-.515-1.15-1.15 0-.635.515-1.15 1.15-1.15h2.9z" transform="translate(28.4 24.6)"/>
                <path fill="#A339FF" d="M15.45 12.8c.635 0 1.15.515 1.15 1.15 0 .635-.515 1.15-1.15 1.15H1.15C.515 15.1 0 14.585 0 13.95c0-.635.515-1.15 1.15-1.15h14.3zm14 0c.635 0 1.15.515 1.15 1.15 0 .635-.515 1.15-1.15 1.15h-2.9c-.635 0-1.15-.515-1.15-1.15 0-.635.515-1.15 1.15-1.15h2.9z" transform="translate(28.4 24.6)"/>
                <path fill="#FF5645" d="M49.65 19.2c.635 0 1.15.515 1.15 1.15 0 .635-.515 1.15-1.15 1.15h-13.1c-.635 0-1.15-.515-1.15-1.15 0-.635.515-1.15 1.15-1.15h13.1zM22.45 0c.635 0 1.15.515 1.15 1.15 0 .635-.515 1.15-1.15 1.15h-2.9c-.635 0-1.15-.515-1.15-1.15 0-.635.515-1.15 1.15-1.15h2.9z" transform="translate(28.4 24.6)"/>
            </g>
            <rect width="33" height="20.6" fill="#3ABF7C" fill-rule="nonzero" rx="4"/>
            <path stroke="#FFF" stroke-linecap="round" stroke-linejoin="round" stroke-width="2" d="M10.668 5.6L4 10.965 11 14.8M21.708 14.8L28.4 10.21 21.4 5.6M14.6 17.077L17.646 3.675"/>
        </g>
        <path fill="#D8DEED" fill-rule="nonzero" d="M154.2 122.4c.773 0 1.4.627 1.4 1.4 0 .773-.627 1.4-1.4 1.4H36.3l-.001 41.204c.033-.003.067-.004.101-.004h39.8c.773 0 1.4.627 1.4 1.4 0 .773-.627 1.4-1.4 1.4H36.4l-.101-.005.001 24.105c0 .773-.627 1.4-1.4 1.4-.773 0-1.4-.627-1.4-1.4v-69.4c0-.674.476-1.237 1.11-1.37.18-.083.38-.13.59-.13h119z"/>
        <g>
            <path fill="#474961" fill-rule="nonzero" d="M46.86 0c1.5 0 2.74 1.14 2.74 2.52v22c0 1.38-1.24 2.52-2.74 2.52l-17.595-.001-.794 7.761h5.21c.752 0 1.346.567 1.413 1.284l.006.136c0 .8-.64 1.42-1.42 1.42h-22.3c-.752 0-1.346-.566-1.413-1.283l-.007-.137c-.04-.78.62-1.42 1.42-1.42h4.074l1.924-7.761-14.438.001C1.44 27.04.2 25.9.2 24.52V2.54C.18 1.14 1.4 0 2.92 0h43.94z" transform="translate(48.48 84.6)"/>
            <path fill="#FFF" d="M29.86 21.389l.06 13.431h-1.432l1.373-13.431z" transform="translate(48.48 84.6)"/>
        </g>
    </g>
</svg>
