<svg xmlns="http://www.w3.org/2000/svg" xmlns:xlink="http://www.w3.org/1999/xlink" width="277" height="213" viewBox="0 0 277 213">
    <defs>
        <path id="prefix__a" d="M21.687.078C9.725.078.027 9.778.027 21.743c0 11.966 9.698 21.665 21.66 21.665 11.963 0 21.66-9.7 21.66-21.665h-8.515c0 7.262-5.885 13.148-13.145 13.148S8.543 29.005 8.543 21.743c0-7.261 5.885-13.148 13.144-13.148V.078z"/>
        <path id="prefix__c" d="M0 0h81.28v51.29c0 .44-.363.798-.805.798H.805c-.445 0-.805-.36-.805-.798V0z"/>
    </defs>
    <g fill="none" fill-rule="evenodd">
        <g>
            <g transform="translate(-58 -1) translate(119.2 13.8) translate(0 .97)">
                <rect width="74.894" height="57.2" y="1.029" fill="#F2F6FB" fill-rule="nonzero" rx="4"/>
                <g>
                    <path fill="#E1E5F0" fill-rule="nonzero" d="M21.833 39.489c9.676 0 17.52-7.846 17.52-17.525 0-9.679-7.844-17.525-17.52-17.525-9.676 0-17.52 7.846-17.52 17.525 0 9.679 7.844 17.525 17.52 17.525zm0-8.576c-4.941 0-8.947-4.006-8.947-8.95 0-4.942 4.006-8.949 8.947-8.949 4.942 0 8.947 4.007 8.947 8.95s-4.005 8.95-8.947 8.95z" transform="rotate(-30 42.189 11.286)"/>
                    <g transform="rotate(-30 42.189 11.286) translate(.11 .09)">
                        <mask id="prefix__b" fill="#fff">
                            <use xlink:href="#prefix__a"/>
                        </mask>
                        <use fill="#FFF" xlink:href="#prefix__a"/>
                        <path fill="#474BFF" fill-rule="nonzero" d="M22.033.222C10.138-2.137-1.087 9.73-1.087 21.695s13.966 24.204 23.12 21.858l.28-8.902c-7.291 0-13.483-5.502-13.483-12.764 0-7.261 5.912-13.148 13.203-13.148V.222z" mask="url(#prefix__b)"/>
                    </g>
                </g>
                <g transform="translate(57.679 20.733)">
                    <rect width="5.444" height="5.378" y=".13" fill="#474BFF" fill-rule="nonzero" rx=".4"/>
                    <rect width="5.444" height="5.378" y="8.005" fill="#FFF" rx=".4"/>
                    <rect width="5.444" height="5.378" y="15.881" fill="#E1E5F0" fill-rule="nonzero" rx=".4"/>
                </g>
            </g>
            <path fill="#E1E5F0" fill-rule="nonzero" d="M0 5.235C0 3.448 1.457 2 3.23 2h68.14c1.784 0 3.23 1.452 3.23 3.235V8.47H0V5.235z" transform="translate(-58 -1) translate(119.2 13.8)"/>
        </g>
        <g transform="translate(-58 -1) translate(189.2)">
            <g transform="translate(0 .838)">
                <rect width="84.2" height="62.838" y=".038" fill="#F2F6FB" fill-rule="nonzero" rx="4" transform="translate(0 .124)"/>
                <g transform="translate(1.46 10.85)">
                    <mask id="prefix__d" fill="#fff">
                        <use xlink:href="#prefix__c"/>
                    </mask>
                    <use fill="#F2F6FB" fill-rule="nonzero" xlink:href="#prefix__c"/>
                    <g mask="url(#prefix__d)">
                        <g>
                            <path fill="#D8DEED" fill-rule="nonzero" d="M48.768 27.485v5.113c0 .44-.365.797-.806.797H28.67v4.433h4.138v2.365H15.96v-2.365h4.138v-4.433H.806c-.445 0-.806-.352-.806-.797v-5.113h48.768z" transform="translate(16.256 16.254)"/>
                            <path fill="#FFF" d="M0 .803C0 .36.365 0 .806 0h47.156c.445 0 .806.359.806.803v27.568H0V.803z" transform="translate(16.256 16.254)"/>
                            <path fill="#D8DEED" fill-rule="nonzero" d="M23.41 12.223l2.083 3.18.753-1.21c.092-.147.246-.151.346-.007l1.744 2.53c.099.143.041.264-.14.27l-1.458.044-.231.003.014.023h-1.756l-.304.004.002-.004h-4.091c-.172 0-.233-.126-.141-.274l2.835-4.546c.095-.151.25-.154.344-.013zm3.07-.771c.382 0 .691.311.691.696 0 .384-.309.695-.69.695-.382 0-.691-.311-.691-.695 0-.385.31-.696.69-.696z" transform="translate(16.256 16.254)"/>
                        </g>
                    </g>
                </g>
                <g fill="#D8DEED" fill-rule="nonzero" transform="translate(23.686 15.71)">
                    <rect width="18.493" height="2.946" x="9.247" y="4.788" rx=".4"/>
                    <rect width="36.986" height="2.946" rx=".4"/>
                </g>
            </g>
            <path fill="#E1E5F0" fill-rule="nonzero" d="M0 4.563C0 2.595 1.588 1 3.564 1h77.072C82.604 1 84.2 2.6 84.2 4.563v3.563H0V4.563z"/>
            <ellipse cx="4.786" cy="4.644" fill="#FF5645" fill-rule="nonzero" rx="1.541" ry="1.539"/>
            <ellipse cx="9.815" cy="4.644" fill="#FFCB3D" fill-rule="nonzero" rx="1.541" ry="1.539"/>
            <ellipse cx="15.007" cy="4.644" fill="#3ABF7C" fill-rule="nonzero" rx="1.541" ry="1.539"/>
        </g>
        <g fill-rule="nonzero" transform="translate(-58 -1) translate(146.8 60.8)">
            <g fill="#D8DEED">
                <path d="M59.52 54.72V40.34.88c0-.48-8.3-.88-18.28-.88h-2.08C29.2 0 20.88.4 20.88.88v53.88c0 .48 8.3.88 18.28.88h2.08c9.96.02 18.28-.4 18.28-.92zM.5 102.56l.08.04c.42.22.96.1 1.16-.28L25.16 59.3c.22-.4.04-.9-.38-1.12l-.08-.04c-.42-.22-.96-.1-1.16.28l-5.8 10.64c-3.78 6.96-7.56 13.9-11.36 20.86L.12 101.4c-.22.4-.04.92.38 1.16z" transform="translate(23.6 47.2)"/>
                <path d="M58.64 57.44H3.76c-.48 0-.9.4-.9.88v.1c0 .48.4.88.9.88h54.92c.48 0 .9-.4.9-.88v-.1c0-.48-.42-.88-.94-.88z" transform="translate(23.6 47.2)"/>
                <path d="M65.8 101.4l-6.26-11.48c-3.78-6.96-7.56-13.9-11.36-20.86l-5.8-10.64c-.2-.38-.74-.52-1.16-.28l-.08.04c-.42.22-.6.74-.38 1.12l23.42 43.02c.2.38.74.52 1.16.28l.08-.04c.42-.24.6-.76.38-1.16z" transform="translate(23.6 47.2)"/>
            </g>
            <g>
                <g>
                    <path fill="#FF5645" d="M32.7 74.435c.5 0 .9.4.9.9l-.007.114c-.055.445-.432.786-.894.786H.901c-.48 0-.901-.4-.901-.9l.007-.113c.055-.446.432-.787.894-.787zm26.618 0c.469 0 .88.346.88.762v.277c.039.415-.372.761-.86.761H39.28c-.47 0-.88-.346-.88-.761v-.277c0-.416.391-.762.88-.762h20.038z" transform="translate(17.254 13.8) translate(0 61.165)"/>
                    <path fill="#474961" d="M32.18 61.2s.205.474.251.593l.009.027.7 12.26c0 .152-.034.295-.095.424-.106-.045-.223-.069-.346-.069H.901l-.114.007c-.041.005-.081.013-.12.023-.03-.052-.056-.109-.075-.168L.56 74.18v-.02l-.009-.2c0-.033.002-.067.009-.1.02-.12.02-.22.06-.34.26-.9.96-1.66 1.42-2.08.06-.06.1-.08.16-.12.88-.54 1.78-1.04 2.72-1.46 1.84-.84 5.92-2.56 7.14-3.18 1.58-.8 3.76-2.16 6.04-4.6l.268-.134.012-.006 13.8-.74zm21.816.093l5.555 13.171c-.075-.019-.153-.029-.233-.029H39.28c-.11 0-.214.017-.31.049L40.82 63.8l13.176-2.507z" transform="translate(17.254 13.8) translate(0 61.165)"/>
                    <path fill="#474BFF" d="M62.505 0c.06 2.668.605 12.813.405 16.622-.316 6.02-1.674 11.805-8.393 13.127-.73.05-1.525.062-2.372.042 2.095 9.395 4.115 19.114 5.907 28.774.091.476.251 1.588-.287 2.628-.993 1.903-3.488 1.782-9.474 2.432-7.047.79-10 1.67-11.564-.276-.528-.623-.696-1.28-.75-1.577-.462-2.729-1.597-7.285-2.986-12.752.593 2.742 1.171 5.49 1.73 8.232.1.475.28 1.584-.239 2.634-.959 1.92-3.456 1.842-9.43 2.594-7.031.911-9.968 1.842-11.566-.08-.54-.613-.72-1.266-.78-1.563C11.249 53.054 4.017 30.419 1.2 14.18c0-.04-.02-.06-.02-.1C.296 8.926 3.542 4.093 8.413 3.289l.258-.038 4.975-.654c.305-.04.608-.062.91-.068l-.002-.007L38.86.251 62.425 0z" transform="translate(17.254 13.8) translate(0 61.165)"/>
                    <path fill="#444" d="M62.552.035c.06 2.669.604 12.813.404 16.622-.315 6.02-1.674 11.805-8.393 13.127-.745.05-1.558.062-2.425.041-1.472-6.605-2.981-13.049-4.475-19.201-1.117-4.593-5.278-7.634-9.743-7.136l-4.985.569c-5.026.587-8.49 5.438-7.684 10.698 0 .04.019.06.018.1.246 1.586.533 3.234.852 4.922-.88-3.506-1.764-6.947-2.641-10.3-1.027-3.92-4.268-6.661-7.977-7.005L38.906.285 62.472.036z" opacity=".177" transform="translate(17.254 13.8) translate(0 61.165)"/>
                    <path fill="#482D1F" d="M24.877 15.797l9.483 40.756c.037.162.198.262.36.224.161-.037.262-.198.224-.36l-9.482-40.756c-.038-.161-.2-.261-.36-.224-.162.038-.262.199-.225.36z" transform="translate(17.254 13.8) translate(0 61.165)"/>
                </g>
                <g>
                    <path fill="#FF5645" d="M43.968 22.893c-.015.054-.033.107-.052.158.037.023.074.048.11.074.4.28 1 .72 1.62 1.36.54.54 1.564.837 2.844 5.817.46 1.76 1.016 6.155 2.976 9.123 1.96 2.968 3.054 6.293 0 8.495-2.384 1.72-4.496 1.901-8.308 2.508.33 3.486.297 6.399-.032 8.413.343 1.467.454 2.34.334 2.62-6.622.16-10.567.26-11.834.3-3.12.1-11.662.897-19.616.32-2-1.9-1.904-8.34-1.904-8.34.036-1.01.071-1.98.107-2.911-5.233-1.345-8.101-2.62-8.607-3.824-.804-1.918.68-5.921 1.04-6.961.7-1.98 2.254-5.47 2.622-7.263 1.139-5.556 2.658-7.137 3.198-7.677.62-.64 3.212-2.875 7.144-3.43 1.218-.172 4.077-.408 8.576-.71.046-.002.065.05.058.158 1.253-.09 2.53-.166 3.803-.095 3.087-2.405 6.532-3.64 10.333-3.707 6.09-.106 6.654 1.816 5.588 5.572z" transform="translate(17.254 13.8) translate(16.79)"/>
                    <path fill="#444" d="M28.816 42.565c.884.012 1.59.739 1.577 1.622-.02 1.424.22 2.506.721 3.248.546.808 1.377 1.382 2.492 1.723.505.155.85.62.85 1.148v5.86L12.8 56.93l.194-6.314c.016-.5.34-.94.815-1.1 1.758-.596 2.893-1.266 3.406-2.011.45-.657.7-1.785.747-3.386.026-.865.734-1.553 1.6-1.553zM44.03 22.976c-.02.071-.045.14-.073.207-2.668-1.796-5.47-2.069-6.911-2.108-.027-.014-.053-.018-.08-.02h-.04l-7.1-.1c-.82-.035-.727-.07-.345.345-.475-.073-.952-.119-1.429-.144 3.102-2.434 6.565-3.685 10.39-3.752 6.09-.106 6.653 1.816 5.588 5.572z" opacity=".177" transform="translate(17.254 13.8) translate(16.79)"/>
                    <path fill="#DB9E75" d="M36.916 41.429c.476 1.404.789 2.282.842 2.29.26.04 1.64 7.398 1.8 7.358 6.3-1.28 8.907-.96 11.96-3.162.441-.318.795-.66 1.073-1.02 1.306 6.116 1.929 14.29-6.475 15.784l-32.604-.453L.207 63.459c-.11-2.151.79-4.156 1.913-5.604l.946-7.33.31-2.02 6.863 2.295-.112 3.669c2.625-.364 5.864-.401 9.533.331l.22.045c6.038-1.301 14.196-2.962 19.648-3.68l-2.612-9.736zM19.842 2.649c2.6-2.265 6.254-1.147 6.902-.92.075.036.153.05.228.086.688.337 1.364.53 2.047.683.684.153 4.863 7.873 4.862 8.3.007.55-1.214 1.925-2.583 3.353l-1.39 8.405c-.026.138-.112.264-.241.3-.572.214-1.367.427-2.308.447-1.702.057-3.042-.49-3.782-.877-.15-.07-.237-.25-.206-.407l.587-3.432c-1.091.18-1.027.154-1.134.167-1.298.074-2.35-.171-2.54-.249-.695-.196-1.326-.93-1.8-2.06-.643-1.511-1.043-3.749-.99-6.326-.01-.369.039-.726.088-1.083l.604-3.53c.133-.789.479-1.516.993-2.17.218-.284.425-.509.663-.686z" transform="translate(17.254 13.8) translate(16.79)"/>
                    <path fill="#482D1F" d="M35.913 38.516c.157-.053.328.03.381.187.504 1.477 2.863 9.394 3.605 12.015.045.16-.048.326-.207.37-.16.046-.325-.047-.37-.206-.74-2.612-3.096-10.521-3.596-11.985-.053-.157.03-.327.187-.38zm-24.278.686h.069c.164.021.28.171.26.336l-1.427 11.3c-.02.164-.17.28-.335.26-.164-.021-.28-.171-.26-.336l1.427-11.3c.02-.164.17-.28.335-.26z" transform="translate(17.254 13.8) translate(16.79)"/>
                    <path fill="#482D1F" d="M23.808 18.701L25.229 18.128 23.854 20.736z" transform="translate(17.254 13.8) translate(16.79) rotate(11 24.519 19.432)"/>
                    <path fill="#482D1F" d="M29.23 2.356c.444.127 4 .29 6.013 1.838.217.185.721.65 1.074 1.431 1.106 2.375.25 4.837-.039 5.392-.098.19-1.076 2.06-2.403 3.675-1.289 1.57-2.88 2.92-3.093 3.098l-.024.02c-1.062-.262-1.559-1.694-1.49-4.297l.066.048c.536.037.897.032 1.083-.013.278-.069 1.093-.277 1.692-1.057.6-.78.884-1.927.412-2.956-.457-1.005-1.54-1.725-2.543-1.594-.564.074-.997.417-1.044.449-.148.126-.275.258-.384.388L18.059 6.069c.348-2.294 1.493-3.791 3.433-4.492.551-.2 2.056-.492 3.362-.323 2.016.262 3.832.954 4.376 1.102zm-5.858 6.033c.805.156 1.562.874.617.914-.604.066-1.19-.17-1.567-.325-.189-.077-.198-.344-.014-.45.207-.124.551-.22.964-.14zm-4.057-.932c.805.157 1.566.855.617.915-.561.054-1.174-.147-1.528-.317-.189-.078-.198-.345-.034-.455.208-.123.552-.219.945-.143z" transform="translate(17.254 13.8) translate(16.79)"/>
                    <path fill="#482D1F" d="M19.31 9.163l.057.016c.228.085.343.332.298.567-.085.33-.25.868-.485 1.027-.391.23-.632-.836-.259-1.395.148-.237.293-.25.446-.199zm3.513.688c.235.045.393.28.367.52-.045.337-.152.887-.394 1.084-.36.277-.726-.773-.407-1.363.128-.24.277-.272.434-.241zM20.794 14.102c.145-.013.498-.046.599-.25.008-.04.039-.095.027-.138-.052-.153-.303-.12-.66-.169-.636-.083-1.135-.241-1.135-.241s.061.42.136.556c.159.337.825.262 1.033.242zM19.53 11.913c-.08.214.05.465.267.546l.079.022c.326.09.531.14.887.209.108.021.213-.05.234-.158.022-.109-.05-.214-.158-.235-.344-.067-.54-.114-.857-.201l-.062-.018s-.014-.027-.013-.03l.705-2.049.007-.027.225-1.158c.021-.108-.05-.213-.158-.234-.109-.021-.214.05-.235.158l-.222 1.144-.698 2.03z" transform="translate(17.254 13.8) translate(16.79)"/>
                    <path fill="#8C2A00" d="M2.15 57.837c1.249-1.01 2.648-1.784 4.196-2.325 1.549-.54 2.802-.887 3.76-1.039l.133-3.673-6.864-2.296-1.225 9.333z" opacity=".2" transform="translate(17.254 13.8) translate(16.79)"/>
                </g>
            </g>
            <g>
                <g>
                    <path fill="#FFCB3D" d="M81.653 57.626c.28-.015.558.11.735.333l.058.101c.294.345.204.884-.16 1.158L62.382 74.133l-11.722.035c-.425-.007-.776-.32-.837-.73l-.009-.105.002-.12c.026-.424.34-.775.75-.82l.105-.005 10.975-.025L81.211 57.78c.141-.098.282-.155.442-.153zM31.9 72.36c.497 0 .9.403.9.9s-.403.9-.9.9H.9c-.497 0-.9-.403-.9-.9s.403-.9.9-.9h31z" transform="translate(80.2 17.2) translate(0 59.828)"/>
                    <path fill="#474961" d="M18.18 60.178l16.704.554-2.64 11.643c-.105-.044-.222-.068-.344-.068H.9c-.095 0-.187.015-.274.042.008-.061.018-.126.034-.191.24-.96.54-1.6 1.44-2.18.9-.58 1.82-1.1 2.78-1.56 3.54-1.74 4.76-1.74 7.08-3.32.96-.66 1.84-1.42 2.66-2.24.547-.547 1.733-1.44 3.56-2.68zm56.348-12.709l7.033 10.109c-.123.016-.236.069-.35.147L61.646 72.31l-10.975.024-.035.002c-.027-.08-.045-.162-.053-.246l-.005-.128c.023-.14.025-.3.068-.46.255-.957.68-1.568 1.582-2.133.903-.566 1.71-1.095 2.67-1.54 1.888-.911 3.12-1.323 4.207-1.747.161-.279.315-.565.463-.875.186-.398 1.004-2.468 1.364-4.033.24-1.044.585-2.277 1.034-3.699l.282-1.117 12.28-8.889z" transform="translate(80.2 17.2) translate(0 59.828)"/>
                    <path fill="#DE3190" d="M70.02.045c11.449-.058 17.446-.06 17.993-.007.58.14 4.507 2.3 5.627 6.087.6 2.026 1.08 4.74.88 8.1-.12 1.34-.3 4.26-2 7.06-1.76 2.92-4.2 4.88-7.82 6.12-3.08 1.04-6.1.56-9.82.22h-.04c-.14-.02-.42-.08-.76-.14l-.68-.12c-.38-.08-.72-.14-.88-.16h-.04c-3.44-.62-6.5-1.18-9.56-1.76l-.14-.02-.504-.099c.528.728 1.03 1.426 1.506 2.1 1.32 1.86 2.6 3.72 3.84 5.56l5.02 7.1c.76 1.06.42 2.54-.76 3.28l-6.18 3.84-5.6 3.72-1.1.7c-1.1.68-2.54.46-3.28-.52-1.9-2.52-3.3-4.42-5.72-7.52-1.523-1.966-.575-.607-5.41-5.645-1.865 5.252-4.287 12.215-5.972 15.044-.42.72-1.24 1.1-2.08.98l-15.88-2.36c-1.36-.2-2.16-1.66-1.58-2.92 2.94-6.46 8.157-24.673 8.877-26.313.244-.553.475-1.139.694-1.746-1.86-2.436-2.774-3.81-3.55-5.68-.7-1.68-1.34-3.22-1.3-5.3.06-3.08 1.6-6.58 4.68-8.46 1.72-1.06 3.362-1.01 4.362-1.09.893-.027 4.015-.027 9.365 0l.008.01h.804z" transform="translate(80.2 17.2) translate(0 59.828)"/>
                    <path fill="#444" d="M51.671 23.477c.9.12 1.8.24 2.7.38 1.24.22 2.48.46 3.74.68 1.396.254 2.776.507 4.155.776.532.732 1.037 1.435 1.516 2.113 1.32 1.86 2.6 3.72 3.84 5.56l5.02 7.1c.76 1.06.42 2.54-.76 3.28l-6.18 3.84-5.6 3.72-1.1.7c-1.1.68-2.54.46-3.28-.52-1.9-2.52-3.3-4.42-5.72-7.52-1.53-1.976-.565-.593-5.483-5.72 1.094-3.083 1.994-5.569 2.438-6.27.98-1.56 1.954-4.5 2.814-5.64.46-.62 1.1-1.48 1.9-2.48zM32.87.076c.893-.027 4.008-.027 9.345 0l.001.001h-.444c-1.42 0-1.68.32-2.94.96-.98.48-2 1.06-3.04 1.8-1.44 1-2.54 2.42-3.22 4.02-.02.04-.04.08-.06.14-1.268 3.045-2.274 8.93-3.928 13.541-1.815-2.381-2.716-3.745-3.482-5.592-.7-1.68-1.34-3.22-1.3-5.3.06-3.08 1.6-6.58 4.68-8.46C30.202.126 31.87.156 32.87.076z" opacity=".177" transform="translate(80.2 17.2) translate(0 59.828)"/>
                    <path fill="#482D1F" d="M47.86 19.265c1.092 1.453 1.43 1.861 1.78 2.205.324.316.645.705 1.72 2.135.1.133.288.16.42.06.133-.1.16-.288.06-.42-1.092-1.453-1.43-1.861-1.78-2.204-.324-.317-.645-.706-1.72-2.136-.1-.133-.288-.16-.42-.06-.133.1-.16.288-.06.42z" transform="translate(80.2 17.2) translate(0 59.828)"/>
                </g>
                <g>
                    <path fill="#FFCB3D" d="M60.812 20.177l-4.6.28c-5.84.32-10.26 5.28-9.9 11.06l.02.36.58 10.83.512 10.379.288 1.991c0 .16.02.3.04.46l.06.52c.06.46 1.4 3.5 1.48 3.68l25.18.04-1.628-17.445 5.911-1.854c.405-.498 3.866-7.186-3.13-10.467-.497-.88-1.04-1.733-1.633-2.554-1.8-2.52-3.28-4.56-5.92-5.78-.99-.454-1.986-.717-2.945-.847-1.337-.504-2.798-.742-4.315-.653z" transform="translate(80.2 17.2) translate(13.541 .147)"/>
                    <path fill="#F2A98A" d="M7.525 111.36l15.385 2.286.168.018h.01l-1.745 6.749-16.704-.554 2.886-8.5zm50.646-8.263l3.214 4.645-12.505 8.487-3.465-4.95 1.057-.672 5.6-3.72 6.099-3.79zM46.644 37.852l.315 5.307.02.2.384 6.656c.454-.076.967-.16 1.55-.251 6.359-.993 11.727-1.744 16.204-2.35l-.003-.001c-.195-.354-.636-1.284-1.19-2.476.137.007.278.012.422.015l14.23-4.463.378 1.024c2.37 6.466 3.67 9.942 3.39 12.365l.048.007c-.018.016-.039.063-.068.14-.012.081-.025.161-.04.24l-.046-.02c-.323.816-1.263 2.87-4.566 4.86-2.758 1.663-14.918 1.886-36.48.672l-.064-.049c-2.29-.182-4.79-.663-7.503-1.443.768.223 1.522.422 2.261.597l-10.528-1.39c-1.734-.455-6.557-1.765-10.33-2.78l-.39-.104-3.42-.891c-2.22-.58-3.86-1.02-3.86-1.02.12-2.4 3.92-1.8 5.62-1.4 2.08.1 4.16.22 6.26.32.326-.086.713-.18 1.148-.26l-.01.002c-1.556-1.073.21-1.935 5.302-2.584 2.643-.338 4.657.015 6.71.594l10.942-2.03-.018-.014 3.332-9.473zM49.591 2.07c2.604-2.264 6.255-1.147 6.9-.921l.236.076c.699.33 1.366.537 2.057.686.316.062.515.376.453.693l-.993 5.023-.001.025c.058.372 3.784-1.505 3.85 2.57.157 1.021-.333 1.962-1.018 2.524l-.306 2.348-.126 1.796-.237 3.404-4.227.257-.45.034c-.446.043-.883.114-1.31.21l.22-2.974-.258.041c-1.643.273-1.687.267-1.778.273l-.026.002c-1.308.069-2.353-.184-2.548-.258-1.611-.474-2.876-3.89-2.781-8.395.005-.36.05-.718.095-1.076l.607-3.526.053-.262c.159-.693.471-1.336.919-1.875.219-.266.435-.491.669-.675z" transform="translate(80.2 17.2) translate(13.541 .147)"/>
                    <path fill="#F2A98A" d="M60.972 12.763c-.528.384-1.098.504-1.461.539-.222.025-.433.17-.507.366l-1.341 3.414s-.063.036-.205.066c-.35.116-1.208.357-3.073.647-1.785.297-1.682.264-1.804.275-1.308.07-2.352-.184-2.548-.258-1.61-.474-2.875-3.89-2.781-8.395.005-.36.05-.718.095-1.076l.608-3.526c.135-.792.468-1.53.971-2.137.22-.266.436-.491.669-.675 2.604-2.264 6.255-1.147 6.901-.921l.235.076c.699.33 1.366.537 2.057.686.317.062.515.377.453.693l-.993 5.023c-.093.475 3.782-1.56 3.849 2.595.165 1.074-.385 2.058-1.125 2.608z" transform="translate(80.2 17.2) translate(13.541 .147)"/>
                    <path fill="#482D1F" d="M56.732 19.431L54.461 17.239 56.76 17.794z" transform="translate(80.2 17.2) translate(13.541 .147) scale(-1 1) rotate(-1 0 6390.671)"/>
                    <path fill="#482D1F" d="M49.556 2.01c-.152.141-.26.248-.326.322.507.414.928.693 1.266.836 1.421.601 2.742.633 3.569.57.124.51.323 1.106.622 1.708.807 1.68 2.071 2.741 2.903 3.326l.093.066c.181-.18.602-.557 1.155-.816.062-.036.536-.223 1.072-.145.954.126 1.769 1.086 1.917 2.119.166 1.074-.364 2.06-1.105 2.609-.668.496-1.403.546-1.731.553-.28 1.032-.738 2.388-1.372 4.066 2.44 1.026 4.35 1.026 5.732 0 .57-.421 1.79-4.731 2.583-6.901.251-.724 1.124-3.17-.082-5.42-.426-.79-.993-1.272-1.24-1.47-1.348-1.076-2.58-.942-5.539-1.65-.611-.143-1.518-.366-2.596-.722-.08-.006-.158-.032-.236-.057-.646-.226-4.226-1.187-6.685 1.007zm-2.17 10.387c-.651.826-1.004 1.648-.797 2.338.263.872 1.09 1.286 1.936 1.704l.02.01c-.54-.973-.954-2.373-1.16-4.052zM65.232 47.172c-.145-.08-.327-.026-.407.12-.08.145-.026.327.12.406l2.5 1.365c.145.079.328.025.407-.12.08-.145.026-.328-.12-.407zm-4.754-10.838c-.155-.06-.328.016-.388.17-.05.127-.083.22-.133.373-.077.237-.147.496-.207.776-.39 1.812-.205 3.636.892 5.225.905 1.304 2.112 2.048 3.36 2.443.158.05.326-.038.376-.196.05-.158-.037-.326-.195-.376-1.132-.359-2.23-1.035-3.047-2.212-.99-1.432-1.158-3.093-.8-4.758.056-.26.121-.499.192-.717.045-.141.075-.224.12-.34.06-.154-.016-.328-.17-.388z" transform="translate(80.2 17.2) translate(13.541 .147)"/>
                    <path fill="#8C2A00" d="M7.259 52.697s1.64.44 3.86 1.02c1.046.273 2.224.58 3.42.89l.39.105c3.773 1.015 8.596 2.325 10.33 2.78l10.528 1.39c-.74-.175-1.493-.374-2.261-.597-2.974-.863-6.644-2.842-11.01-5.936-1.034-.348-1.777-.68-2.229-.992-.435.08-.822.174-1.148.26-2.1-.1-4.18-.22-6.26-.32-1.7-.4-5.5-1-5.62 1.4zm39.286-14.845l-3.332 9.473.018.014-10.994 2.04c.736.206 1.475.441 2.25.686 1.062.335 2.5.899 4.312 1.69 1.804-.392 3.011-.63 3.89-.754 1.297-.182.574-.278 4.58-.95l-.39-6.692-.02-.2-.314-5.307z" opacity=".2" transform="translate(80.2 17.2) translate(13.541 .147)"/>
                    <path fill="#474961" d="M.076 47.388l-.038.12c-.16.62.2 1.24.82 1.4l27.76 7.48c.188.05.377.05.553.01-1.984-1.027-4.17-2.388-6.56-4.084l.182.128-21.355-5.753c-.56-.15-1.155.154-1.362.7z" transform="translate(80.2 17.2) translate(13.541 .147)"/>
                    <path fill="#482D1F" d="M48.194 8.019c.272.036.46.268.444.543-.037.376-.08.986-.301 1.216-.36.372-.872-.761-.601-1.43.123-.272.293-.364.458-.33zm4.387.523c.272.037.46.269.444.543-.037.377-.08.986-.301 1.217-.36.372-.872-.762-.601-1.43.123-.273.293-.365.458-.33zM49.626 8.916l-.58 1.86c-.051.239.084.498.313.547.133.04.22.058.569.125.156.03.263.052.39.079.107.023.213-.046.236-.154.023-.108-.046-.215-.154-.238l-.396-.08c-.336-.064-.417-.082-.548-.12-.009-.002-.027-.038-.023-.058l.575-1.842c.032-.105-.026-.218-.132-.25-.105-.033-.217.026-.25.131zM50.356 12.77c.14-.016.488-.098.57-.304.01-.043.042-.103.028-.129-.052-.122-.312-.088-.662-.095-.619-.02-1.122-.127-1.122-.127s.09.4.16.526c.151.3.802.17 1.026.128z" transform="translate(80.2 17.2) translate(13.541 .147)"/>
                    <path fill="#482D1F" d="M53.946 6.48c1.113.236 1.93 1.103 2.155 2.148l.017.095 1.556-.458c.136-.04.278.02.345.14l.027.063c.047.159-.044.326-.203.372l-1.626.48c-.018.005-.038.008-.056.01l.003-.103c0 .19-.02.381-.062.574-.321 1.512-1.808 2.478-3.32 2.156-1.289-.274-2.18-1.393-2.218-2.653l.006-.077-.683-.05-.012.079c-.388 1.421-1.823 2.31-3.283 1.999-1.512-.321-2.478-1.808-2.156-3.32.321-1.514 1.808-2.48 3.32-2.158 1.34.285 2.25 1.484 2.218 2.805l.652.048.04-.16c.39-1.416 1.823-2.3 3.28-1.99zm-8.924 1.579c-.252 1.188.506 2.357 1.695 2.61 1.188.252 2.357-.507 2.61-1.695.252-1.189-.507-2.357-1.695-2.61-1.189-.252-2.357.506-2.61 1.695zm6.19.702c-.253 1.188.506 2.357 1.694 2.61 1.189.252 2.357-.507 2.61-1.695.252-1.189-.507-2.357-1.695-2.61-1.188-.252-2.357.507-2.61 1.695z" transform="translate(80.2 17.2) translate(13.541 .147)"/>
                </g>
            </g>
            <g fill="#D8DEED">
                <path d="M.6 102.615l.08.04c.42.22.96.1 1.16-.28l23.42-43.02c.22-.4.04-.9-.38-1.12l-.08-.04c-.42-.22-.96-.1-1.16.28l-5.8 10.64c-3.78 6.96-7.56 13.9-11.36 20.86l-6.26 11.48c-.22.4-.04.92.38 1.16z" transform="translate(118.2 46.718)"/>
                <path d="M58.151 57.495H10.935c-.414 0-.775.4-.775.88v.1c0 .48.344.88.774.88h47.252c.413 0 .774-.4.774-.88v-.1c0-.48-.361-.88-.809-.88z" transform="translate(118.2 46.718)"/>
                <path d="M65.9 101.455l-6.26-11.48c-3.78-6.96-7.56-13.9-11.36-20.86l-5.8-10.64c-.2-.38-.74-.52-1.16-.28l-.08.04c-.42.22-.6.74-.38 1.12l23.42 43.02c.2.38.74.52 1.16.28l.08-.04c.42-.24.6-.76.38-1.16zM64.113.886l-1.9 15.36c-1.16 9.3-2.3 18.6-3.46 27.88l-1.76 14.24c-.06.5.28 1 .76 1.06l.1.02c.48.06.92-.3 1-.84l7.14-57.52c.06-.5-.28-1-.76-1.06l-.1-.02c-.5-.06-.96.34-1.02.88z" transform="translate(118.2 46.718)"/>
            </g>
            <rect width="157.4" height="2.8" x="17.4" y="74.8" fill="#D8DEED" rx="1.4"/>
        </g>
        <g fill-rule="nonzero">
            <path fill="#3ABF7C" d="M24.788 176.8c.5 0 .9.346.9.762v.276c0 .416-.42.762-.9.762h-20.5c-.52 0-.92-.346-.9-.762v-.276c0-.416.42-.762.9-.762zm56.985 0c.497 0 .9.403.9.9s-.403.9-.9.9h-31.8c-.497 0-.9-.403-.9-.9s.403-.9.9-.9h31.8z" transform="translate(-58 -1) translate(58.8 35.4)"/>
            <path fill="#A339FF" d="M35.006 49.255c1.652-.373 5.721-.244 8.54 1.381 1.116.644 2.591 2.067 4.388 5.456 1.796 3.39 12.284 35.659 12.504 41.624 1.92 5.495 3.5 10.643 4.42 13.789.84 2.86.84 5.147.92 5.822 2.22 17.71 11.14 33.624 6.98 37.506-.64.592-4.06 1.266-10.9 2.635-.44.082-.84.163-.84.163-1.7.327-3.3.572-4.9.797 0 0-7.56 1.47-16.14.817-1.383-.11-2.816-16.951-4.3-50.525-.53 11.14-1.437 27.379-2.719 48.71-.072 1.197-1.015 2.157-2.21 2.25l-9.481.733c-1.61-.033-3.238-.065-4.954-.177-.685-.027-1.394-.096-2.102-.166-4.62-.959-7.845-1.832-12.464-2.79-.902-.208-2.268-2.099-1.396-5.215.871-3.117 3.55-21.091 5.704-34.286-.182-2.13-.164-4.256.138-6.363.335-2.42 6.185-42.927 6.868-46.905.535-7.451 4.17-10.703 8.355-12.079 1.12-.368 1.965-1.673 3.656-2.235 1.506-.5 4.74-.813 9.703-.936z" transform="translate(-58 -1) translate(58.8 35.4)"/>
            <path fill="#444" d="M43.545 50.566c1.117.644 2.592 2.066 4.389 5.456C49.73 59.41 60.218 91.68 60.438 97.645c1.92 5.495 3.5 10.643 4.42 13.79.84 2.86.84 5.147.92 5.821 2.22 17.711 11.14 33.625 6.98 37.506-.64.593-4.06 1.267-10.9 2.636-.44.081-.84.163-.84.163-1.7.327-3.3.572-4.9.797 0 0-7.56 1.47-16.14.817-1.393-.11-2.838-17.208-4.335-51.292.348-7.403.522-12.451.522-15.145.614-4.791 1.206-9.602 1.82-14.393.54-10.882.648-18.262.323-22.142-.038-.45-.28-2.784-.727-7.003l5.964 1.366z" opacity=".177" transform="translate(-58 -1) translate(58.8 35.4)"/>
            <path fill="#474961" d="M64.475 164.2l3.6 2.62c.84.8 1.72 1.56 2.7 2.2 2.34 1.54 3.56 1.52 7.12 3.22.96.44 1.9.96 2.8 1.52.44.4 1.22 1.2 1.48 2.16.04.16.04.32.06.46.005.181-.018.352-.06.51-.118-.058-.25-.09-.39-.09h-31.8c-.067 0-.133.007-.196.022l2.154-12.231 12.532-.391zm-53.867.85l11.08 1.34 3.107 10.41-20.284-.001 6.097-11.748z" transform="translate(-58 -1) translate(58.8 35.4)"/>
            <path fill="#482D1F" d="M19.92 66.61s6.06 12.92 3.02 13.54c0 0-1.82-.98-3.14-4.1" transform="translate(-58 -1) translate(58.8 35.4)"/>
            <g>
                <path fill="#F2F6FB" d="M2.611.83l-2.6 17.38c-.08.54.28 1.04.82 1.14l23.18 3.48c.54.08 1.04-.28 1.14-.82l2.6-17.38c.08-.54-.28-1.04-.82-1.14L3.751.01c-.56-.08-1.06.3-1.14.82z" transform="translate(-58 -1) translate(58.8 35.4) translate(1.948 69.033)"/>
                <path fill="#3ABF7C" d="M25.248 6.814l-1.98 12.74c-.1.54.28 1.04.82 1.14l1.86.3c.54.1 1.04-.28 1.14-.82l1.98-12.74c.1-.54-.28-1.04-.82-1.14l-1.86-.3c-.54-.1-1.04.28-1.14.82z" transform="translate(-58 -1) translate(58.8 35.4) translate(1.948 69.033)"/>
            </g>
            <path fill="#3ABF7C" d="M34.94 19.905c1.152-.013 2.267.253 3.312.729 1.42-.572 3.588-1.016 5.81.228 1.893 1.038 1.477 2.464 4.735 5.702 1.615 1.601 3.03 2.59 2.929 3.852-.063.725-.576 1.232-.981 1.555-1.829.733-3.662 1.462-5.497 2.19l.07 6.155.004.187.12 3.434v1.182c0 3.894-3.018 7.122-6.904 7.383l-12.761.858c-2.645.177-4.933-1.823-5.111-4.468-.007-.1-.01-.202-.01-.303l-.044-11.208-6.201.419c-.65-.12-1.504-.387-1.883-1.078-.675-1.231.678-2.899 2.025-5.333 2.693-4.868 1.574-6.093 3.493-8.095 2.658-2.776 6.19-3.149 8.142-3.13.444-.007.898.07 1.327.183l.05.025c.93-.282 1.916-.438 2.939-.446l4.436-.021z" transform="translate(-58 -1) translate(58.8 35.4)"/>
            <path fill="#BF865F" d="M10.736 159.248c1.072.243 2.19.489 3.403.74.708.07 1.417.14 2.102.167 1.716.112 3.345.143 4.954.176l1.514-.117-1.021 6.177-11.06-1.34c.046-2.06.082-3.897.106-5.512l.002-.291zm53.243-2.3l.496 7.252-12.532.39-.008-.043c-.066-.356-.526-2.829-1.064-5.516 3.147-.29 5.175-.684 5.175-.684 1.6-.225 3.2-.47 4.9-.797 0 0 .4-.082.84-.163l2.193-.44zM28.338 36.778l-8.324 35.127h-.013l3.698 15.348c.079.328-.057.665-.33.85l-.095.055c-1.152.566-2.637.839-4.454.818-3.196-.036-5.4-1.258-5.4-1.277-2.447-5.424-3.836-9.63-4.17-12.618-.045-.407-.049-.856-.011-1.347l-.039-.015 5.552-36.025 13.586-.916zM83.209 15.6c1.303.949.375 3.902-1.18 7.09.657.431 1.364 1.28 2.118 2.547.71 1.19.508 2.703-.465 3.667l-.138.128-6.117 5.345c-6.16 7.34-16.823 18.105-19.908 19.182-3.33 1.162-7.652-2.348-12.131-8.145l.005-.096.004-.247v-1.183l-.12-3.433-.003-.187-.073-6.208c1.885-.749 3.768-1.498 5.647-2.25.103-.082.214-.177.322-.284l5.05 6.666c1.324-1.1 7.512-5.798 11.378-8.725C72.926 24.702 83.21 15.6 83.21 15.6zM41.627 1.778c.228.252.45.485.64.747.47.646.765 1.417.867 2.237l.41 3.629c.029.364.038.732.028 1.106-.173 4.598-1.65 8.017-3.323 8.414-.864.174-1.756.231-2.63.12-.117-.027-.039-.002-1.342-.285l-.02 2.052c2.178.42 3.062 1.226 3.062 1.226-.084.527-.278.901-.52 1.179-1.483 1.728-5.954.857-11.14-1.908 1.128-.264 2.159-.447 3.1-.566.188-.907.38-1.737.566-2.685l.111-.584-.96-3.5c-.072-.208-.85-.501-1.286-.846-.776-.631-.952-1.7-.805-2.768.219-1.023 1.121-1.949 2.092-2.026.363-.029.713.05 1.062.21l.024.014c.121.073.267.078.388.068.335-.063.573-.349.53-.688l-.715-5.181c-.063-.335.155-.616.49-.68.732-.12 1.431-.294 2.125-.57l.252-.063c.694-.194 4.463-1.113 6.994 1.348z" transform="translate(-58 -1) translate(58.8 35.4)"/>
            <path fill="#444" d="M38.018 20.755c1.38-.621 3.64-1.238 6.044.107 1.893 1.038 1.477 2.464 4.735 5.702 1.615 1.601 2.943 2.53 2.943 3.798 0 .709-.454 1.161-.892 1.448-1.88.752-3.764 1.505-5.647 2.235l-.133-4.016c.014-2.418-.674-4.6-2.064-6.547-1.074-1.505-2.736-2.414-4.986-2.727z" opacity=".177" transform="translate(-58 -1) translate(58.8 35.4)"/>
            <path fill="#8C2A00" d="M83.21 15.6c1.302.949.374 3.902-1.182 7.09.658.431 1.365 1.28 2.12 2.547.709 1.19.507 2.703-.466 3.667l-.138.128-6.117 5.345c-6.16 7.34-16.823 18.105-19.908 19.182-3.33 1.162-7.652-2.348-12.131-8.145l.005-.096.004-.247v-1.183l-.12-3.433-.003-.187-.073-6.208c1.885-.749 3.768-1.498 5.647-2.25.103-.082.214-.177.322-.284l5.05 6.666c1.324-1.1 7.512-5.798 11.378-8.725C72.926 24.702 83.21 15.6 83.21 15.6z" opacity=".2" transform="translate(-58 -1) translate(58.8 35.4)"/>
            <path fill="#482D1F" d="M19.11 81.536c.233 1.001.446 1.777.946 3.507.503 1.74.718 2.523.953 3.538.037.161-.063.322-.225.36-.161.037-.322-.063-.36-.225-.231-1.001-.444-1.777-.945-3.507-.503-1.74-.718-2.523-.953-3.538-.037-.161.064-.323.225-.36.161-.037.323.063.36.225zm-4.084-.738c.326 1.095.552 1.925 1.034 3.755l.087.33c.422 1.598.639 2.387.942 3.407.048.159-.043.326-.202.373-.158.047-.325-.043-.373-.202-.306-1.027-.523-1.82-.946-3.423l-.088-.332c-.48-1.824-.705-2.65-1.029-3.737-.047-.159.043-.326.202-.373.159-.047.326.043.373.202zM29.14 31.422c.146-.078.328-.022.406.124.031.059.08.169.142.334.1.266.198.593.29.984.126.546.23 1.175.302 1.893.112 1.138-.298 1.882-1.045 2.26-.22.11-.453.181-.686.22-.146.023-.266.03-.35.03-.17-.003-.301-.14-.298-.306.003-.165.14-.297.305-.294.014 0 .038 0 .07-.003.053-.003.113-.01.176-.02.176-.029.351-.082.512-.163.527-.266.807-.774.718-1.664-.069-.693-.168-1.297-.29-1.817-.085-.366-.176-.669-.266-.91-.052-.14-.09-.226-.11-.262-.078-.146-.022-.328.124-.406zM41.627 1.778c-.005.061-2.168 7.633-7.92 8.552l-1-1.752c-.29-.422-.683-.757-1.134-.995-.35-.16-.699-.238-1.063-.21-.97.078-1.873 1.003-2.091 2.027-.2 1.018.168 2.08.983 2.702.46.38 1.014.606 1.608.649l.203.005.013.187c.105 1.579.224 3.633.224 3.633h-.48c-.147 0-5.058-1.461-6.688-6.679-3.413 2.38-7.24 2.278-9.184.474-1.479-1.383-1.754-3.644-1.792-3.964-.391-3.221 2.258-4.253 2.481-4.35 0 0 3.266-2.854 8.725 2.01l.053.047-.043.074c.325-.597.8-1.086 1.34-1.489 1.446-1.061 2.707-.88 5.807-1.51.63-.115 1.606-.389 2.76-.718l.253-.063c.694-.193 4.414-1.09 6.945 1.37zm-1.982 5.69c.393-.078.717.067.936.199.155.126.116.383-.073.45-.379.136-1.02.296-1.572.228-.956-.113-.126-.752.709-.878zm3.667-.595c.431-.087.742 0 .98.126.169.102.15.355-.035.442-.369.174-.97.407-1.557.367-.975-.024-.228-.747.612-.935zM39.8 8.868c.145.005.324.064.392.335.203.65-.355 1.635-.656 1.256-.218-.213-.193-.776-.178-1.13 0-.248.218-.446.441-.46zm3.3-.399c.145.005.325.064.393.335.203.65-.375 1.64-.656 1.256-.199-.218-.194-.776-.179-1.13 0-.248.219-.446.442-.46zM42.633 11.614l-.182-2.127.054-1.176c.005-.11-.08-.204-.19-.209-.111-.005-.205.08-.21.191l-.054 1.188v.027l.184 2.139c0 .008-.014.023-.05.026l-.02.003c-.21.045-.464.067-.761.067-.11 0-.2.09-.2.2 0 .11.09.2.2.2.32 0 .597-.024.834-.073.237-.03.414-.224.395-.456z" transform="translate(-58 -1) translate(58.8 35.4)"/>
            <path fill="#482D1F" d="M25.477 4.795s.47 2.377-.901 5.81l3.348-1.288-.057-1.965-2.39-2.557z" transform="translate(-58 -1) translate(58.8 35.4)"/>
            <path fill="#482D1F" d="M36.631 17.906L35.071 17.106 35.771 20.806z" transform="translate(-58 -1) translate(58.8 35.4) rotate(-14 35.851 18.956)"/>
            <path fill="#482D1F" d="M41.283 13.752c-.146-.005-.504-.04-.601-.263-.01-.038-.044-.092-.034-.136.034-.111.679-.169.679-.169.81-.058 1.019-.13 1.087-.023.034.053.033.135-.102.334-.141.345-.801.262-1.029.257z" transform="translate(-58 -1) translate(58.8 35.4)"/>
        </g>
        <g fill-rule="nonzero" transform="translate(-58 -1) translate(268.6 22.4)">
            <rect width="66" height="50.6" fill="#E1E5F0" rx="4"/>
            <g>
                <path fill="#D8DEED" d="M25.258 22.74h1.932c.2 0 .271.021.344.06.073.039.13.096.17.169.038.073.059.145.059.344v22.344h-3.078V23.313c0-.199.021-.271.06-.344.039-.073.096-.13.169-.169.073-.039.145-.06.344-.06z" transform="rotate(90 24.41 35.78)"/>
                <path fill="#F2F6FB" d="M19.103 0h1.932c.199 0 .271.02.344.06.073.039.13.096.17.169.038.072.059.145.059.344v45.084H18.53V.573c0-.2.021-.272.06-.344.039-.073.096-.13.169-.17.073-.038.145-.059.344-.059z" transform="rotate(90 24.41 35.78)"/>
                <path fill="#D8DEED" d="M12.948 5.994h1.932c.199 0 .271.02.344.06.073.038.13.095.169.168.039.073.06.145.06.345v39.09h-3.078V6.567c0-.2.02-.272.06-.345.039-.073.096-.13.169-.169.073-.039.145-.06.344-.06zM6.793 19.567h1.932c.199 0 .271.021.344.06.073.039.13.096.169.169.039.073.06.145.06.344v25.517H6.22V20.14c0-.199.02-.271.06-.344.039-.073.096-.13.169-.169.073-.039.145-.06.344-.06zM.638 12.869H2.57c.199 0 .271.02.344.06.073.038.13.095.169.168.039.073.06.145.06.345v32.215H.065V13.442c0-.2.02-.272.06-.345.039-.073.096-.13.169-.169.073-.039.145-.06.344-.06z" transform="rotate(90 24.41 35.78)"/>
            </g>
        </g>
    </g>
</svg>
