<svg xmlns="http://www.w3.org/2000/svg" width="850" height="634" viewBox="0 0 850 634">
    <g fill="none">
        <path fill="#EBEBEB" d="M0 556.665H850V557.665H0zM89.182 572.849H116.48400000000001V573.849H89.182zM290.938 568.242H381.93899999999996V569.242H290.938zM118.184 588.642H179.809V589.642H118.184zM644.538 568.021H717.961V569.021H644.538zM733.108 568.021H743.8689999999999V569.021H733.108zM538.9 578.595H630.5129999999999V579.595H538.9zM402.9 480.845H74.647c-5.354-.01-9.69-4.353-9.69-9.707V9.707c0-5.354 4.336-9.698 9.69-9.707H402.9c5.361 0 9.707 4.346 9.707 9.707v461.431c0 2.574-1.023 5.043-2.843 6.864-1.82 1.82-4.29 2.843-6.864 2.843zM74.647.425c-5.12.01-9.265 4.162-9.265 9.282v461.431c0 5.12 4.145 9.273 9.265 9.282H402.9c5.122-.01 9.273-4.16 9.282-9.282V9.707c-.01-5.122-4.16-9.273-9.282-9.282H74.647z"/>
        <path fill="#EBEBEB" d="M770.627 480.845h-328.27c-5.338 0-9.707-4.352-9.707 107.729V127.143C432.65 4.352 437.019 0 442.357 0h328.27c5.348.019 9.673 4.36 9.673 9.707v461.431c0 5.348-4.325 9.688-9.673 9.707zM442.357.425c-5.1 0-9.282 4.165-9.282 126.718v461.431c0-112.319 4.165-108.154 9.282-108.154h328.27c5.122-.01 9.273-4.16 9.282-9.282V9.707c-.01-5.122-4.16-9.273-9.282-9.282h-328.27z"/>
        <path fill="#E6E6E6" d="M509.711 42.67H738.7180000000001V444.125H509.711z" transform="rotate(180 624.215 243.398)"/>
        <path fill="#E6E6E6" d="M485.163 34.867h268.379c.603-.005 1.182.232 1.61.656.427.425.668 1.002.668 1.605 0 1.258-1.02 2.278-2.278 2.278H485.163c-1.258 0-2.278-1.02-2.278-2.278 0-.603.24-1.18.668-1.605.428-.424 1.007-.66 1.61-.656z"/>
        <path fill="#F0F0F0" d="M499.987 42.67H734.1790000000001V444.125H499.987z" transform="rotate(180 617.083 243.398)"/>
        <path fill="#FAFAFA" d="M429.973 139.918H804.211V346.89300000000003H429.973z" transform="rotate(90 617.091 243.406)"/>
        <path fill="#FFF" d="M673.591 430.525L593.742 56.287 556.053 56.287 635.902 430.525zM627.793 430.525L547.944 56.287 533.256 56.287 613.105 430.525z"/>
        <path fill="#E6E6E6" d="M327.335 242.539H701.573V244.273H327.335z" transform="rotate(90 514.454 243.406)"/>
        <g opacity=".4">
            <path fill="#F0F0F0" d="M47.226 0.204H70.63499999999999V483.956H47.226z" transform="translate(673.2 30.6) rotate(180 58.93 242.08)"/>
            <path fill="#E6E6E6" d="M38.097 0.204H56.338V483.956H38.097z" transform="translate(673.2 30.6) rotate(180 47.218 242.08)"/>
            <path fill="#F0F0F0" d="M23.8 0.204H47.209V483.956H23.8z" transform="translate(673.2 30.6) rotate(180 35.505 242.08)"/>
            <path fill="#E6E6E6" d="M14.688 0.204H32.929V483.956H14.688z" transform="translate(673.2 30.6) rotate(180 23.808 242.08)"/>
            <path fill="#F0F0F0" d="M0.391 0.204H23.799999999999997V483.956H0.391z" transform="translate(673.2 30.6) rotate(180 12.096 242.08)"/>
        </g>
        <g opacity=".4">
            <path fill="#F0F0F0" d="M27.608 0.204H41.106V483.956H27.608z" transform="translate(494.7 30.6) rotate(180 34.357 242.08)"/>
            <path fill="#E6E6E6" d="M22.355 0.204H32.861000000000004V483.956H22.355z" transform="translate(494.7 30.6) rotate(180 27.608 242.08)"/>
            <path fill="#F0F0F0" d="M14.11 0.204H27.607999999999997V483.956H14.11z" transform="translate(494.7 30.6) rotate(180 20.859 242.08)"/>
            <path fill="#E6E6E6" d="M8.874 0.204H19.380000000000003V483.956H8.874z" transform="translate(494.7 30.6) rotate(180 14.127 242.08)"/>
            <path fill="#F0F0F0" d="M0.612 0.204H14.11V483.956H0.612z" transform="translate(494.7 30.6) rotate(180 7.361 242.08)"/>
        </g>
        <path fill="#F0F0F0" d="M345.338 303.824H387.09000000000003V544H345.338z" transform="rotate(180 366.214 423.912)"/>
        <path fill="#F0F0F0" d="M104.975 543.983H379.08299999999997V556.6479999999999H104.975z" transform="rotate(180 242.029 550.316)"/>
        <path fill="#F5F5F5" d="M96.951 303.807H345.33799999999997V543.983H96.951z"/>
        <path fill="#F0F0F0" d="M350.489 294.491H394.332V303.80699999999996H350.489z" transform="rotate(180 372.41 299.149)"/>
        <path fill="#FAFAFA" d="M89.709 294.508H350.50600000000003V303.82399999999996H89.709z"/>
        <path fill="#F0F0F0" d="M113.373 403.308H328.916V449.361H113.373zM113.373 473.331H328.916V519.384H113.373z"/>
        <rect width="109.412" height="8.993" x="166.43" y="398.803" fill="#F5F5F5" rx="3.706" transform="rotate(-180 221.136 403.3)"/>
        <path fill="#F0F0F0" d="M113.373 333.166H328.916V379.219H113.373z"/>
        <rect width="109.412" height="8.993" x="166.43" y="328.661" fill="#F5F5F5" rx="3.706" transform="rotate(180 221.136 333.158)"/>
        <rect width="109.412" height="8.993" x="166.43" y="469.489" fill="#F5F5F5" rx="3.706" transform="rotate(-180 221.136 473.986)"/>
        <path fill="#E6E6E6" d="M106.981 31.824H229.058V189.244H106.981z" transform="rotate(180 168.02 110.534)"/>
        <path fill="#F5F5F5" d="M98.005 31.824H226.066V189.244H98.005z" transform="rotate(180 162.036 110.534)"/>
        <path fill="#FFF" d="M108.358 42.177H215.696V178.874H108.358z"/>
        <path fill="#E6E6E6" d="M137.7 101.66c3.604-7.667 16.388-18.496 17.731-22.1 1.343-3.604-.34-12.937 2.448-14.28 6.885-3.298 11.9 5.916 11.594 13.379-.194 4.517-.654 9.018-1.377 13.481l25.908 2.397h2.924c1.752-.032 3.442.645 4.687 1.877 1.246 1.233 1.94 2.916 1.926 4.668-.164 3.38-2.958 6.031-6.341 6.018h.306c1.75-.023 3.436.66 4.677 1.895 1.241 1.234 1.933 2.917 1.92 4.667-.129 3.393-2.913 6.08-6.308 6.086h-2.89c1.816 0 3.545.781 4.746 2.144 1.2 1.364 1.756 3.177 1.527 4.979-.41 3.151-3.095 5.509-6.273 5.508h-4.675c1.952.004 3.794.907 4.992 2.447 1.199 1.541 1.621 3.548 1.145 5.441-.78 2.84-3.379 4.796-6.324 4.76h-36.822c-7.308-.007-14.462-2.1-20.621-6.035l-.629-.408c-1.417-.912-2.275-2.48-2.278-4.165v-27.2c0-2.378 1.692-4.42 4.029-4.862l3.978-.697z"/>
        <path fill="#F0F0F0" d="M108.358 111.248H129.659V130.475H108.358z" transform="rotate(180 119.008 120.862)"/>
        <path fill="#E6E6E6" d="M272.391 90.083H394.468V247.503H272.391z" transform="rotate(180 333.43 168.793)"/>
        <path fill="#F5F5F5" d="M263.381 90.083H391.442V247.503H263.381z"/>
        <path fill="#FFF" d="M273.751 100.453H381.08899999999994V237.15H273.751z"/>
        <path fill="#E6E6E6" d="M351.73 159.936c-3.604-7.667-16.388-18.496-17.731-22.1-1.343-3.604.34-12.937-2.448-14.28-6.885-3.298-11.815 5.916-11.594 13.379.195 4.511.655 9.007 1.377 13.464l-25.908 2.414h-2.941c-1.749-.028-3.435.652-4.676 1.883-1.242 1.232-1.934 2.913-1.92 4.662.128 3.4 2.922 6.088 6.324 6.086h-.306c-1.752-.028-3.44.654-4.682 1.89-1.242 1.235-1.933 2.92-1.914 4.672.128 3.393 2.912 6.08 6.307 6.086h2.89c-1.816 0-3.545.781-4.746 2.144-1.2 1.364-1.756 3.177-1.527 4.979.41 3.151 3.095 5.509 6.273 5.508h4.692c-1.95-.002-3.793.897-4.992 2.435-1.2 1.539-1.622 3.545-1.145 5.436.774 2.847 3.374 4.81 6.324 4.777h36.839c7.333-.043 14.5-2.184 20.655-6.171l.629-.391c1.415-.914 2.272-2.48 2.278-4.165v-27.2c0-2.378-1.692-4.42-4.029-4.862l-4.029-.646z"/>
        <path fill="#F0F0F0" d="M359.788 169.507H381.089V188.734H359.788z"/>
        <g fill="#F5F5F5" transform="translate(95.2 594.3)">
            <ellipse cx="329.8" cy="19.893" rx="329.613" ry="19.244"/>
        </g>
        <g>
            <path fill="#FFF" d="M122.369 336.498H21.865c-5.872.088-11.497-2.359-15.436-6.715-3.94-4.355-5.81-10.197-5.134-16.031L11.75 205.139c1.474-12.749 12.125-22.457 24.956-22.746h100.487c5.872-.088 11.497 2.359 15.436 6.715 3.94 4.355 5.81 10.197 5.134 16.031l-10.455 108.613c-1.466 12.746-12.112 22.456-24.939 22.746z" transform="translate(327.4 78.2)"/>
            <path fill="#407BFF" d="M122.369 337.45H21.865c-6.146.101-12.035-2.457-16.156-7.017-4.121-4.56-6.07-10.68-5.349-16.783L10.9 205.054c1.503-13.242 12.567-23.332 25.891-23.613h100.487c6.11-.077 11.966 2.451 16.099 6.953 4.117 4.592 6.088 10.716 5.423 16.847l-10.472 108.596c-1.493 13.275-12.603 23.38-25.959 23.613zM36.706 183.345c-12.357.254-22.618 9.614-24.004 21.896L2.247 313.837c-.663 5.57 1.113 11.156 4.873 15.32 3.76 4.164 9.136 6.5 14.745 6.406h100.504c12.353-.255 22.61-9.617 23.987-21.896l10.472-108.613c.612-5.595-1.18-11.187-4.93-15.385-3.778-4.105-9.127-6.405-14.705-6.324H36.706z" transform="translate(327.4 78.2)"/>
            <path fill="#407BFF" d="M120.414 279.276l-11.135-27.404-3.706-9.129c-1.386-3.148-5.005-4.647-8.211-3.4-1.942.629-3.55 2.01-4.464 3.835-.914 1.825-1.058 3.94-.398 5.872l-1.87-4.59c-1.372-3.153-4.993-4.655-8.194-3.4-1.945.625-3.556 2.006-4.47 3.832-.915 1.826-1.056 3.944-.392 5.875l-12.461-30.6c-1.38-3.155-5.005-4.656-8.211-3.4-1.944.624-3.555 2.006-4.467 3.833-.912 1.827-1.048 3.945-.378 5.874l.986 2.431c-1.373-3.162-5.005-4.666-8.211-3.4-1.944.624-3.555 2.006-4.467 3.833-.912 1.827-1.048 3.945-.378 5.874l11.9 29.138 7.973 26.979c-2.622.507-5.317.507-7.939 0-8.007-1.309-19.176 2.771-17.306 10.761.748 3.247 11.169 2.737 14.807 4.726 3.638 1.989 23.086 9.741 32.453 9.503 1.816 1.687 4.48 2.091 6.715 1.02l29.172-14.008c1.498-.711 2.636-2.01 3.145-3.587 2.319-6.657 2.143-13.93-.493-20.468z" transform="translate(327.4 78.2)"/>
            <path fill="#263238" d="M122.828 225.318h-.255l-32.844-9.52c-.452-.183-.692-.679-.556-1.147.135-.468.603-.759 1.083-.672l32.844 9.52c.435.148.703.585.636 1.04-.067.455-.449.797-.908.813v-.034z" transform="translate(327.4 78.2)"/>
            <path fill="#263238" d="M93.163 209.865L82.147 212.568 90.001 220.762z" transform="translate(327.4 78.2)"/>
            <path fill="#FFF" d="M339.901 418.321h-149.6c-5.872.082-11.496-2.37-15.432-6.729s-5.802-10.203-5.121-16.036l28.9-300.441c1.465-12.75 12.11-22.465 24.939-22.765h149.6c5.892-.09 11.536 2.37 15.479 6.75 3.942 4.38 5.799 10.25 5.091 16.1l-28.9 300.441c-1.505 12.722-12.148 22.394-24.956 22.68z" transform="translate(327.4 78.2)"/>
            <path fill="#407BFF" d="M339.884 419.257h-149.6c-6.146.098-12.035-2.46-16.156-7.02-4.121-4.56-6.07-10.68-5.349-16.783l28.9-300.441c1.505-13.255 12.588-23.349 25.925-23.616h149.6c6.144-.093 12.03 2.467 16.15 7.026 4.12 4.56 6.071 10.674 5.355 16.777l-28.9 300.441c-1.498 13.258-12.585 23.356-25.925 23.616zM223.604 73.3c-12.354.265-22.611 9.621-24.004 21.899l-28.9 300.441c-.663 5.57 1.113 11.156 4.873 15.32 3.76 4.164 9.136 6.5 14.745 6.409h149.6c12.357-.257 22.618-9.617 24.004-21.899l28.9-300.441c.663-5.57-1.113-11.156-4.873-15.32-3.76-4.164-9.136-6.5-14.745-6.409h-149.6z" transform="translate(327.4 78.2)"/>
            <path fill="#407BFF" d="M218.045 418.302L192.052 418.302 275.42 72.352 301.396 72.352zM263.163 418.302L226.511 418.302 309.862 72.352 346.514 72.352z" opacity=".1" transform="translate(327.4 78.2)"/>
            <path fill="#407BFF" d="M262.891 406.827c-2.91.054-5.702-1.152-7.657-3.31-1.955-2.156-2.882-5.053-2.543-7.944.697-6.214 5.886-10.953 12.138-11.084 2.91-.054 5.702 1.152 7.657 3.31 1.955 2.156 2.882 5.053 2.543 7.944-.697 6.214-5.886 10.953-12.138 11.084zm1.972-20.4c-5.26.129-9.615 4.122-10.2 9.35-.27 2.364.478 4.731 2.057 6.511 1.6 1.734 3.863 2.705 6.222 2.669 5.256-.136 9.608-4.125 10.2-9.35.291-2.354-.454-4.72-2.043-6.481-1.589-1.762-3.864-2.747-6.236-2.699zM332.302 419.254v-1.887c12.357-.254 22.618-9.614 24.004-21.896l28.9-300.441c.614-5.596-1.178-11.188-4.93-15.385-3.777-4.11-9.125-6.415-14.705-6.341v-1.906c6.113-.084 11.97 2.446 16.099 6.955 4.116 4.585 6.088 10.704 5.423 16.83l-28.9 300.441c-1.495 13.249-12.561 23.348-25.891 23.63z" transform="translate(327.4 78.2)"/>
            <path fill="#FFF" d="M227.14 155.142H126.636c-5.866.078-11.482-2.373-15.413-6.728-3.932-4.354-5.798-10.19-5.123-16.018L116.538 23.8c1.466-12.746 12.112-22.456 24.939-22.746h100.504c5.863-.073 11.474 2.38 15.402 6.734 3.928 4.354 5.792 10.187 5.117 16.012l-10.455 108.613c-1.472 12.727-12.097 22.424-24.905 22.729z" transform="translate(327.4 78.2)"/>
            <path fill="#407BFF" d="M227.14 156.094H126.636c-6.144.096-12.03-2.464-16.15-7.023-4.12-4.56-6.071-10.674-5.355-16.777l10.455-108.596C117.089 10.456 128.153.366 141.477.085h100.504c6.144-.096 12.03 2.464 16.15 7.023 4.12 4.56 6.071 10.674 5.355 16.777l-10.455 108.596c-1.503 13.242-12.567 23.332-25.891 23.613zM141.477 1.989c-12.357.254-22.618 9.614-24.004 21.896l-10.455 108.596c-.663 5.57 1.113 11.156 4.873 15.32 3.76 4.164 9.136 6.5 14.745 6.406H227.14c12.36-.263 22.619-9.628 24.004-21.913l10.455-108.596c.67-5.57-1.105-11.158-4.867-15.32-3.762-4.163-9.141-6.493-14.751-6.389H141.477z" transform="translate(327.4 78.2)"/>
            <path fill="#263238" d="M176.123 48.943c-3.206.057-6.28-1.276-8.431-3.654-2.15-2.38-3.168-5.572-2.789-8.756.774-6.864 6.507-12.096 13.413-12.24 3.208-.062 6.286 1.268 8.438 3.648 2.152 2.38 3.166 5.576 2.782 8.762-.774 6.864-6.507 12.096-13.413 12.24zm2.193-22.746c-5.921.146-10.834 4.624-11.526 10.506-.331 2.655.508 5.323 2.3 7.31 1.791 1.988 4.358 3.098 7.033 3.043 5.946-.122 10.89-4.615 11.577-10.523.306-2.668-.541-5.34-2.329-7.344-1.812-1.965-4.383-3.055-7.055-2.992z" transform="translate(327.4 78.2)"/>
            <path fill="#263238" d="M175.392 56.525c-5.168.101-10.126-2.042-13.592-5.877-3.467-3.835-5.1-8.983-4.479-14.115 1.257-11.115 10.542-19.586 21.726-19.822 5.159-.09 10.11 2.032 13.6 5.831 3.458 3.86 5.108 9.01 4.539 14.161-1.268 11.137-10.587 19.613-21.794 19.822zm3.655-37.927c-10.213.216-18.692 7.954-19.839 18.105-.568 4.601.89 9.222 3.996 12.664s7.553 5.365 12.188 5.271c10.22-.208 18.708-7.948 19.856-18.105.523-4.63-.955-9.262-4.063-12.733-3.117-3.388-7.535-5.281-12.138-5.202z" transform="translate(327.4 78.2)"/>
            <path fill="#407BFF" d="M216.753 69.7c-4.246-.397-8.027 2.68-8.5 6.919l.493-5.1c.201-1.64-.26-3.292-1.28-4.59-1.022-1.3-2.519-2.138-4.16-2.329-4.246-.397-8.027 2.68-8.5 6.919l.306-3.179c.206-1.635-.248-3.286-1.263-4.584-1.015-1.3-2.506-2.14-4.143-2.335-4.246-.397-8.027 2.68-8.5 6.919v.459l2.771-28.9c.202-1.635-.255-3.282-1.269-4.58-1.014-1.298-2.502-2.14-4.137-2.339-4.246-.397-8.027 2.68-8.5 6.919l-3.128 32.623-5.457 28.9c-2.463-.733-4.75-1.965-6.715-3.621-6.222-4.828-17.561-6.018-19.618 2.312-.816 3.4 8.279 7.565 10.455 11.067s15.215 19.499 23.29 23.477c.766 2.368 2.969 3.974 5.457 3.978h30.906c1.614-.012 3.15-.689 4.25-1.87 4.98-5.277 8.072-12.057 8.789-19.278l2.261-23.579.901-9.384.357-3.706.408-4.216c.196-1.642-.272-3.295-1.3-4.59-1.027-1.297-2.53-2.129-4.174-2.312zm-22.474 6.953l.425-4.42-.425 4.42zM298.013 252.11c-.586-2.796-1.458-5.525-2.601-8.143l2.771-6.8-12.291-13.6-7.089 2.108c-2.482-1.401-5.103-2.54-7.82-3.4l-2.771-6.375h-19.227l-3.995 6.341c-2.931.87-5.777 2.009-8.5 3.4l-6.681-2.108-14.909 13.6 1.445 6.8c-1.636 2.58-3.03 5.306-4.165 8.143l-6.681 3.4-1.819 19.244 6.035 3.4c.578 2.798 1.45 5.528 2.601 8.143l-2.771 6.885 12.274 13.6 7.089-2.108c2.486 1.404 5.113 2.544 7.837 3.4l2.754 6.341h19.227l3.995-6.341c2.93-.875 5.775-2.013 8.5-3.4l6.681 2.108 14.892-13.6-1.428-6.885c1.623-2.588 3.016-5.313 4.165-8.143l6.664-3.4 1.853-19.227-6.035-3.383zm-46.325 35.581c-5.834.111-11.43-2.311-15.343-6.64-3.912-4.33-5.757-10.143-5.057-15.936 1.45-12.663 12.027-22.31 24.769-22.593 5.838-.112 11.437 2.313 15.35 6.646 3.913 4.334 5.755 10.151 5.05 15.947-1.458 12.656-12.032 22.294-24.769 22.576z" transform="translate(327.4 78.2)"/>
            <path fill="#263238" d="M350.645 185.045l-4.386-.425c-.989-1.407-2.13-2.7-3.4-3.859v-4.437l-10.659-4.539-3.706 2.822c-1.814-.187-3.643-.187-5.457 0l-3.162-2.822-11.475 4.539-.85 4.437c-1.526 1.155-2.942 2.446-4.233 3.859l-4.471.425-5.61 10.999 2.499 3.4c-.345 1.804-.522 3.637-.527 5.474l-3.162 3.4 3.502 10.982 4.386.425c1.021 1.407 2.19 2.7 3.485 3.859v4.437l10.557 4.539 3.706-2.822c1.814.187 3.643.187 5.457 0l3.162 2.822 11.424-4.539.85-4.437c1.533-1.146 2.95-2.438 4.233-3.859l4.471-.425 5.61-10.982-2.499-3.4c.353-1.798.53-3.625.527-5.457l3.162-3.4-3.434-11.016zm-21.182 37.077c-11.441 4.556-23.545-.68-27.047-11.679-3.502-10.999 2.941-23.613 14.382-28.152 11.441-4.539 23.545.663 27.047 11.662 3.502 10.999-2.941 23.647-14.382 28.169z" transform="translate(327.4 78.2)"/>
        </g>
        <g>
            <path fill="#FF8B7B" d="M61.526 187.938l6.919 5.1-13.09 10.2c-1.09-3.521-1.735-7.165-1.921-10.846-.086-2.266 1.678-4.175 3.944-4.267l4.148-.187z" transform="translate(143.8 72.4)"/>
            <path fill="#FF8B7B" d="M70.757 205.958l-3.927 2.788c-1.757 1.24-3.987 1.604-6.048.987-2.06-.617-3.723-2.147-4.509-4.149l-.918-2.363 13.09-10.2 2.312 12.937zM164.291 98.042c3.111 7.803 6.29 15.793 9.52 23.579 1.598 3.91 3.281 7.769 4.947 11.577s3.4 7.497 5.27 10.846c.766 1.465 1.635 2.874 2.601 4.216 1.156 1.479 2.431 2.992 3.757 4.556 2.686 3.094 5.559 6.205 8.5 9.333 5.78 6.239 11.662 12.58 17.374 19.057l-6.46 7.616c-7.459-4.669-14.66-9.737-21.573-15.181-3.4-2.737-6.902-5.559-10.2-8.636-1.7-1.513-3.4-3.162-5.1-4.93-1.782-2-3.397-4.144-4.828-6.409-4.782-7.728-9.025-15.777-12.699-24.089-3.621-8.075-6.919-16.116-9.962-24.48l18.853-7.055zM229.571 191.576l.425-1.156c1.107-3.083-.19-6.513-3.06-8.092l-3.4-1.87-4.386 12.41 4.454 1.547c2.431.852 5.095-.415 5.967-2.839zM97.855 94.387c-5.236 7.871-10.608 15.793-15.98 23.596L73.8 129.73l-7.752 11.543c-.671 1.187-1.131 2.48-1.36 3.825-.454 2.011-.778 4.05-.969 6.103-.442 4.318-.663 8.908-.714 13.6-.102 9.231.136 18.7.476 28.152l-9.809 1.615c-2.602-9.482-4.511-19.14-5.712-28.9-.638-5.036-.978-10.105-1.02-15.181.01-2.738.175-5.474.493-8.194.175-1.526.46-3.037.85-4.522.21-.853.472-1.694.782-2.516.152-.451.328-.894.527-1.326l.697-1.445.561-1.037.442-.799.884-1.598 1.802-3.179c1.19-2.125 2.448-4.199 3.672-6.29 2.465-4.165 4.998-8.296 7.565-12.376 5.1-8.194 10.472-16.184 16.082-24.106l16.558 11.288z" transform="translate(143.8 72.4)"/>
            <path fill="#263238" d="M152.204 38.27c-.34 1.003 0 2.023.578 2.278.578.255 1.462-.391 1.802-1.411.34-1.02 0-2.04-.595-2.278s-1.445.391-1.785 1.411z" transform="translate(143.8 72.4)"/>
            <path fill="#FF5652" d="M152 40.259c.179 3.561.83 7.083 1.938 10.472-2.312 1.02-5.1-.867-5.1-.867L152 40.259z" transform="translate(143.8 72.4)"/>
            <path fill="#407BFF" d="M150.657 46.039h-.272c-1.408-.054-2.705-.781-3.485-1.955-1.287-2.23-1.505-4.919-.595-7.327 1.462-4.794 5.678-8.5 9.265-8.33 1.405.05 2.701.77 3.485 1.938 1.287 2.23 1.505 4.919.595 7.327-1.428 4.675-5.423 8.347-8.993 8.347zm4.624-16.779c-3.213 0-6.8 3.4-8.16 7.752-.834 2.154-.659 4.568.476 6.579.634.956 1.692 1.546 2.839 1.581 3.264.204 7.038-3.298 8.398-7.735.825-2.16.65-4.576-.476-6.596-.64-.948-1.696-1.53-2.839-1.564l-.238-.017z" transform="translate(143.8 72.4)"/>
            <path fill="#263238" d="M155.638 32.252c-.125-.018-.243-.071-.34-.153-1.259-.963-2.907-1.255-4.42-.782-.16.052-.335.037-.483-.044-.148-.08-.256-.218-.299-.381-.047-.16-.03-.332.05-.48.08-.146.215-.255.375-.302 1.928-.58 4.017-.193 5.61 1.037.233.249.233.635 0 .884-.121.146-.303.228-.493.221z" transform="translate(143.8 72.4)"/>
            <path fill="#FF8B7B" d="M116.436 41.245c-1.7 10.761-.119 24.463-7.735 29.614 0 0 1.173 10.2 18.87 13.6 19.448 3.655 10.727-7.973 10.727-7.973-10.2-4.556-8.789-12.444-5.831-19.55l-16.031-15.691z" transform="translate(143.8 72.4)"/>
            <path fill="#263238" d="M103.516 73.324c-.935-3.4-1.615-8.33 1.7-8.84 3.672-.561 26.52 1.887 39.1 8.619-1.967 2.742-2.678 6.19-1.955 9.486l-38.845-9.265z" transform="translate(143.8 72.4)"/>
            <path fill="#407BFF" d="M26.795 522.447c-1.813-.155-3.579-.657-5.202-1.479-.106-.057-.172-.168-.17-.289.009-.127.087-.238.204-.289.17 0 4.199-1.615 5.984-.731.403.19.706.542.833.969.224.502.1 1.092-.306 1.462-.394.267-.868.393-1.343.357zm-4.233-1.7c1.836.816 4.471 1.462 5.1.884 0 0 .272-.238.102-.816-.08-.256-.266-.466-.51-.578-1.579-.295-3.21-.124-4.692.493v.017z" transform="translate(143.8 72.4)"/>
            <path fill="#407BFF" d="M21.746 521.002c-.086.003-.168-.035-.221-.102-.058-.094-.058-.212 0-.306 0-.153 1.139-3.808 2.89-4.675.443-.2.95-.2 1.394 0 .484.127.815.571.799 1.071 0 1.496-3.247 3.689-4.692 4.063l-.17-.051zm3.4-4.641c-.172-.001-.34.04-.493.119-1.122.561-2.006 2.652-2.38 3.689 1.513-.663 3.604-2.397 3.655-3.281 0-.102 0-.306-.391-.459-.135-.052-.28-.075-.425-.068h.034zM143.211 528.295c-1.368 0-2.733-.12-4.08-.357-.125-.033-.222-.13-.255-.255-.014-.128.045-.253.153-.323.663-.391 6.545-3.757 7.973-1.428.293.412.293.965 0 1.377-.476.765-2.108.986-3.791.986zm-3.077-.833c2.482.34 5.848.306 6.409-.51 0 0 .187-.255 0-.697-.884-1.309-4.454.187-6.443 1.207h.034z" transform="translate(143.8 72.4)"/>
            <path fill="#407BFF" d="M139.199 527.938c-.061.017-.126.017-.187 0-.088-.07-.139-.177-.136-.289 0-.136.221-3.706 1.853-5.1.473-.398 1.084-.594 1.7-.544.884.085 1.139.544 1.207.901.255 1.53-2.771 4.335-4.352 5.1l-.085-.068zm3.009-5.372c-.393.008-.772.152-1.071.408-.941 1.167-1.494 2.6-1.581 4.097 1.598-.969 3.638-3.179 3.4-4.114 0 0 0-.323-.629-.374l-.119-.017z" transform="translate(143.8 72.4)"/>
            <path fill="#FF8B7B" d="M124.63 527.632L137.873 527.632 138.009 496.947 124.766 496.947zM7.024 516.99L19.876 520.22 32.66 491.796 19.808 488.583z" transform="translate(143.8 72.4)"/>
            <path fill="#263238" d="M21.1 518.945l-14.433-3.621c-.518-.138-1.059.122-1.275.612l-4.964 10.88c-.244.551-.228 1.183.041 1.722.27.54.766.93 1.353 1.066 5.1 1.173 7.565 1.496 13.906 3.094 3.91.969 11.9 3.4 17.255 4.76 5.355 1.36 7.242-3.859 5.1-4.896-9.435-4.675-12.529-8.619-15.096-12.291-.455-.648-1.123-1.117-1.887-1.326zM137.72 526.085h-14.467c-.538 0-.997.388-1.088.918l-2.159 11.764c-.1.587.063 1.187.447 1.643.383.455.947.718 1.542.72 5.219 0 12.75-.391 19.312-.391 7.667 0 10.795.408 19.788.408 5.423 0 6.8-5.491 4.437-6.001-10.455-2.261-15.402-2.499-24.582-8.024-.962-.633-2.079-.992-3.23-1.037z" transform="translate(143.8 72.4)"/>
            <path fill="#407BFF" d="M93.52 69.941c-12.614.459-31.62 31.416-31.62 31.416L84 122.862c7.412-7.67 14.194-15.925 20.281-24.684 9.469-13.974 2.142-28.781-10.761-28.237z" transform="translate(143.8 72.4)"/>
            <path fill="#FFF" d="M93.52 69.941c-12.614.459-31.62 31.416-31.62 31.416L84 122.862c7.412-7.67 14.194-15.925 20.281-24.684 9.469-13.974 2.142-28.781-10.761-28.237z" opacity=".2" transform="translate(143.8 72.4)"/>
            <path fill="#000" d="M98.824 92.381l-16.184 28.9 1.037 1.02s6.052-6.154 12.903-14.705l2.244-15.215z" opacity=".2" transform="translate(143.8 72.4)"/>
            <path fill="#407BFF" d="M153.7 142.531c-2.822 14.518-7.089 32.419-13.447 54.4l-69.7-13.056c1.02-10.013 13.447-54.4 13.158-102.629-.029-3.243 1.288-6.352 3.636-8.588 2.35-2.236 5.52-3.398 8.757-3.21 3.4.204 7.259.527 10.982 1.054 9.97 1.296 19.858 3.164 29.614 5.593 6.673 1.964 13.187 4.436 19.482 7.395 0 0 4.76 7.565.884 38.165-.816 6.035-1.904 12.937-3.366 20.876z" transform="translate(143.8 72.4)"/>
            <path fill="#FFF" d="M153.7 142.531c-2.822 14.518-7.089 32.419-13.447 54.4l-69.7-13.056c1.02-10.013 13.447-54.4 13.158-102.629-.029-3.243 1.288-6.352 3.636-8.588 2.35-2.236 5.52-3.398 8.757-3.21 3.4.204 7.259.527 10.982 1.054 9.97 1.296 19.858 3.164 29.614 5.593 6.673 1.964 13.187 4.436 19.482 7.395 0 0 4.76 7.565.884 38.165-.816 6.035-1.904 12.937-3.366 20.876z" opacity=".3" transform="translate(143.8 72.4)"/>
            <path fill="#407BFF" d="M153.7 142.531c-5.542-3.808-10.2-20.553-7.514-29.138l10.914 8.262c-.85 6.035-1.938 12.937-3.4 20.876z" opacity=".5" transform="translate(143.8 72.4)"/>
            <path fill="#407BFF" d="M139.794 91.837c-4.08 11.9 16.473 48.28 16.473 48.28l26.724-12.699s-5.27-18.105-14.161-32.3c-9.945-15.725-24.446-16.728-29.036-3.281z" transform="translate(143.8 72.4)"/>
            <path fill="#FFF" d="M139.794 91.837c-4.08 11.9 16.473 48.28 16.473 48.28l26.724-12.699s-5.27-18.105-14.161-32.3c-9.945-15.725-24.446-16.728-29.036-3.281z" opacity=".3" transform="translate(143.8 72.4)"/>
            <path fill="#000" d="M138.009 496.964L137.941 512.774 124.681 512.774 124.749 496.964zM19.791 488.583L32.643 491.813 26.064 506.45 13.212 503.237z" opacity=".2" transform="translate(143.8 72.4)"/>
            <path fill="#FF8B7B" d="M119.496 23.718c-3.4 12.75-5.916 20.026-1.802 28.73 2.63 5.797 8.26 9.653 14.615 10.01 6.355.357 12.383-2.844 15.645-8.31 6.324-10.2 10.71-29.376.289-38.811-4.458-4.28-10.864-5.853-16.797-4.124-5.934 1.73-10.491 6.499-11.95 12.505z" transform="translate(143.8 72.4)"/>
            <path fill="#263238" d="M141.239 36.485c3.128.221 9.826-4.352 10.2-8.602 3.298-1.887 8.806-4.335 9.69-8.313.884-3.978 2.295-18.309-6.103-15.385-8.398 2.924-6.885-1.326-14.773-3.128s-9.775 2.278-16.728 2.363c-6.953.085-3.927 7.072-3.927 7.072-7.174-2.244-13.872 4.369-9.809 9.469 4.063 5.1-2.907 5.321-1.496 12.291 1.411 6.97 6.307 15.759 1.02 14.331-5.287-1.428-2.074 10.2 13.311 9.724 15.385-.476 21.437-15.861 18.615-19.822z" transform="translate(143.8 72.4)"/>
            <path fill="#407BFF" d="M159.106 37.964L141.341 32.133 141.596 31.334 159.378 37.165z" transform="translate(143.8 72.4)"/>
            <path fill="#FF8B7B" d="M136.19 34.7c-.456 3.284.14 6.629 1.7 9.554 2.091 3.842 2.89 4.012 4.233.34 1.207-3.298 4.114-10.642 1.105-13.243-3.009-2.601-6.392-.544-7.038 3.349z" transform="translate(143.8 72.4)"/>
            <path fill="#263238" d="M115.45 192.341S102.7 291.927 95.9 329.854c-7.429 41.531-63.291 175.1-63.291 175.1L9.2 499.055s43.656-124.321 47.226-165.444c3.876-44.625 6.681-117.946 14.144-149.685l44.88 8.415z" transform="translate(143.8 72.4)"/>
            <path fill="#407BFF" d="M38.27 497.1c.102 0-4.352 8.5-4.352 8.5L7.5 499.021l2.21-8.024 28.56 6.103z" transform="translate(143.8 72.4)"/>
            <path fill="#000" d="M106.916 228.5c.753-.135 1.525-.135 2.278 0-3.4 31.025-8.5 72.488-12.342 96.186-3.247-34.442-6.273-92.888 10.064-96.186z" opacity=".2" transform="translate(143.8 72.4)"/>
            <path fill="#263238" d="M140.1 196.982s6.8 92.718 6.8 133.144c.119 42.024-4.182 179.588-4.182 179.588h-22.44s-11.101-135.116-13.685-176.375c-2.822-44.982-12.24-144.942-12.24-144.942l45.747 8.585z" transform="translate(143.8 72.4)"/>
            <path fill="#FF8B7B" d="M209.341 183.892l1.7-2.635c4.203-1.445 8.73-1.67 13.056-.646l-4.93 12.189-7.769-2.805c-1.175-.431-2.091-1.372-2.491-2.559-.4-1.186-.24-2.49.434-3.544z" transform="translate(143.8 72.4)"/>
            <path fill="#407BFF" d="M146.73 500.772c.102 0-.901 9.316-.901 9.316h-27.302l-1.054-8.313 29.257-1.003z" transform="translate(143.8 72.4)"/>
        </g>
    </g>
</svg>
