<svg xmlns="http://www.w3.org/2000/svg" width="830" height="557" viewBox="0 0 830 557">
    <g fill="none" fill-rule="evenodd">
        <g>
            <path fill="#E0E0E0" d="M269.736 417.245c4.13.517 8.171 1.584 12.017 3.174l8.818-7.41 15.166 11.535-4.78 10.485c2.554 3.28 4.66 6.884 6.262 10.72l11.46 1.012 2.57 18.883-10.782 4.026c-.523 4.129-1.59 8.17-3.174 12.017l7.41 8.818-11.548 15.166-10.46-4.767c-3.284 2.553-6.893 4.659-10.732 6.261l-1.013 11.46-18.908 2.545-4.026-10.794c-4.125-.512-8.162-1.576-12.004-3.161l-8.83 7.41-15.154-11.548 4.767-10.473c-2.55-3.284-4.651-6.893-6.249-10.732l-11.473-1.012-2.556-18.884 10.781-4.026c.515-4.125 1.583-8.163 3.174-12.004l-7.41-8.83 11.535-15.154 10.485 4.768c3.283-2.553 6.892-4.655 10.732-6.25l1-11.473 18.884-2.556 4.026 10.781.012.013zm-5.656 26.034c-8.644.277-16.178 5.966-18.812 14.204-2.634 8.239.203 17.243 7.083 22.484 6.88 5.24 16.315 5.584 23.557.856 7.243-4.727 10.726-13.502 8.698-21.91-2.277-9.414-10.845-15.94-20.526-15.634z" transform="translate(35.815)"/>
            <path fill="#E0E0E0" fill-rule="nonzero" d="M69.086 140.642V85.783c30.14.001 54.637 24.313 54.867 54.453.23 30.14-23.893 54.822-54.03 55.283-30.137.46-55.004-23.473-55.696-53.605l54.859-1.272z" transform="translate(35.815)"/>
            <path fill="#F5F5F5" fill-rule="nonzero" d="M55.71 125.859L.84 127.094c0-14.29 5.582-29.257 15.548-39.52 10.225-10.25 23.998-16.18 38.47-16.561l.853 54.846z" transform="translate(35.815)"/>
            <path fill="#E0E0E0" d="M672.865 10.782c4.13.516 8.17 1.584 12.017 3.174l8.817-7.41 15.191 11.547-4.78 10.485c2.554 3.28 4.66 6.884 6.262 10.72l11.46 1.012 2.57 18.884-10.782 4.026c-.523 4.128-1.59 8.168-3.174 12.016l7.41 8.818L706.31 99.22l-10.473-4.78c-3.284 2.554-6.893 4.66-10.732 6.262l-1.013 11.46-18.908 2.57-4.038-10.794c-4.125-.513-8.162-1.576-12.004-3.162l-8.83 7.41-15.154-11.56 4.767-10.472c-2.55-3.285-4.652-6.894-6.249-10.733l-11.473-1.012-2.557-18.834 10.782-4.026c.513-4.134 1.58-8.18 3.174-12.029l-7.41-8.83 11.535-15.154 10.485 4.767c3.282-2.552 6.892-4.654 10.732-6.249l1-11.473L668.84 0l4.026 10.782zm-5.656 26.033c-8.645.278-16.179 5.967-18.812 14.205-2.634 8.238.203 17.243 7.083 22.483 6.88 5.241 16.314 5.584 23.557.857 7.243-4.727 10.726-13.502 8.697-21.91-2.276-9.414-10.844-15.941-20.525-15.635z" transform="translate(35.815)"/>
        </g>
        <path fill="#263238" fill-rule="nonzero" d="M829.34 537.904c0 .186-185.67.321-414.652.321-228.981 0-414.688-.135-414.688-.32 0-.186 185.633-.322 414.688-.322 229.056 0 414.652.148 414.652.321z"/>
        <g>
            <path fill="#407BFF" d="M106.58 181.73c3.443 1.8 6.632 4.046 9.485 6.682l10.127-3.607 9.522 15.03-7.583 7.645c1.168 3.702 1.837 7.544 1.989 11.424l9.707 4.619-3.89 17.302H125.18c-1.792 3.447-4.04 6.637-6.682 9.485l3.606 10.127-15.03 9.522-7.62-7.583c-3.705 1.174-7.551 1.843-11.436 1.988l-4.606 9.806-17.364-3.89v-10.757c-3.45-1.788-6.64-4.035-9.485-6.681l-10.14 3.618-9.521-15.042 7.558-7.645c-1.173-3.718-1.838-7.577-1.976-11.473l-9.72-4.619 3.903-17.364h10.745c1.796-3.444 4.043-6.634 6.681-9.485l-3.606-10.14 15.03-9.521 7.632 7.595c3.701-1.174 7.544-1.843 11.424-1.988l4.619-9.72 17.364 3.903v10.745l.025.024zm-15.314 20.44c-10.288-2.31-20.5 4.16-22.81 14.449-2.308 10.289 4.16 20.501 14.45 22.81 10.289 2.309 20.501-4.16 22.81-14.45 1.109-4.94.21-10.12-2.5-14.397-2.71-4.278-7.009-7.304-11.95-8.412z" transform="translate(29.64 91.39)"/>
            <path fill="#FFF" d="M106.58 181.73c3.443 1.8 6.632 4.046 9.485 6.682l10.127-3.607 9.522 15.03-7.583 7.645c1.168 3.702 1.837 7.544 1.989 11.424l9.707 4.619-3.89 17.302H125.18c-1.792 3.447-4.04 6.637-6.682 9.485l3.606 10.127-15.03 9.522-7.62-7.583c-3.705 1.174-7.551 1.843-11.436 1.988l-4.606 9.806-17.364-3.89v-10.757c-3.45-1.788-6.64-4.035-9.485-6.681l-10.14 3.618-9.521-15.042 7.558-7.645c-1.173-3.718-1.838-7.577-1.976-11.473l-9.72-4.619 3.903-17.364h10.745c1.796-3.444 4.043-6.634 6.681-9.485l-3.606-10.14 15.03-9.521 7.632 7.595c3.701-1.174 7.544-1.843 11.424-1.988l4.619-9.72 17.364 3.903v10.745l.025.024zm-15.313 20.44c-10.29-2.31-20.502 4.16-22.81 14.449-2.31 10.289 4.16 20.501 14.449 22.81 10.289 2.309 20.501-4.16 22.81-14.45 1.109-4.94.21-10.12-2.5-14.397-2.71-4.278-7.009-7.304-11.95-8.413z" opacity=".8" transform="translate(29.64 91.39)"/>
            <path fill="#263238" fill-rule="nonzero" d="M122.018 337.834c1.417.185 2.794.602 4.076 1.235 3.586 1.719 6.463 4.63 8.138 8.238 1.166 2.501 1.721 5.244 1.618 8.002-.1 3.164-1.047 6.243-2.742 8.917-1.877 2.966-4.6 5.302-7.817 6.706-7.093 3.147-15.408 1.28-20.477-4.594-2.3-2.647-3.761-5.919-4.199-9.398-.771-5.953 1.559-11.886 6.175-15.722 3.057-2.544 6.904-3.946 10.88-3.964 1.435-.044 2.867.153 4.237.58 0 .124-1.52-.296-4.236-.197-3.839.167-7.51 1.62-10.424 4.125-4.37 3.701-6.55 9.378-5.78 15.054.192 1.61.633 3.182 1.31 4.656.673 1.545 1.586 2.975 2.704 4.236 4.812 5.526 12.657 7.282 19.365 4.335 1.554-.655 2.993-1.556 4.26-2.668 1.241-1.066 2.312-2.315 3.175-3.705 3.095-4.8 3.56-10.837 1.235-16.055-1.575-3.507-4.28-6.385-7.682-8.175-2.334-1.223-3.853-1.482-3.816-1.606z" transform="translate(29.64 91.39)"/>
            <path fill="#263238" fill-rule="nonzero" d="M135.85 319.359c-.017-.202-.017-.404 0-.606v-1.84c0-1.692 0-4.125-.111-7.286l.123.16-15.721-3.433.284-.136c-1.235 2.668-2.643 5.632-4.137 8.793l-.075.161h-.185c-3.482.15-6.928.761-10.25 1.815l-.186.062-.135-.136-6.916-6.854h.432l-13.585 8.645.16-.457c1.013 2.84 2.137 5.965 3.273 9.164l.087.235-.16.172c-2.38 2.573-4.398 5.456-6.003 8.571l-.124.223H72.63l.433-.346-3.508 15.709-.26-.519 8.794 4.224.26.111v.297c.148 3.468.75 6.901 1.79 10.213l.087.272-.198.21-6.867 6.89.062-.604 8.645 13.585-.58-.198 9.176-3.26.271-.099.223.198c2.549 2.352 5.398 4.358 8.472 5.965l.272.444v9.72l-.383-.482 15.709 3.532-.556.272 4.187-8.793.123-.26h.297c3.468-.134 6.903-.732 10.213-1.778l.272-.087.21.21 6.891 6.867-.593-.062 13.585-8.645-.185.531-3.236-9.114-.098-.26.185-.197c2.368-2.542 4.382-5.392 5.99-8.472l.123-.235h9.979l-.395.321c1.243-5.516 2.428-10.748 3.556-15.696l.21.42-8.78-4.2-.161-.086V353c-.13-3.484-.723-6.936-1.766-10.263v-.185l.136-.136 6.891-6.879v.37l-8.546-13.646.26.099-9.325 3.186h-.086l-.075-.074c-1.922-1.8-4.014-3.41-6.249-4.804l-1.667-1.013c-.192-.1-.377-.21-.556-.333.203.073.401.16.593.259.383.198.963.506 1.717.95 2.287 1.34 4.424 2.922 6.372 4.719h-.16l9.151-3.323.16-.061.1.148c2.47 3.828 5.31 8.311 8.645 13.585l.123.197-.173.173-6.842 6.916.087-.333c1.076 3.377 1.695 6.882 1.84 10.423l-.198-.308 8.793 4.162.272.123-.062.296c-1.111 4.94-2.26 10.19-3.495 15.71l-.074.32h-10.053l.383-.234c-1.646 3.136-3.697 6.043-6.1 8.645l.086-.457 3.285 9.164.111.346-.309.197-13.585 8.645-.32.198-.26-.272-6.867-6.78.482.123c-3.39 1.067-6.909 1.678-10.46 1.816l.42-.272-4.175 8.793-.16.346-.383-.086-15.71-3.52-.395-.086v-.396V389.754l.26.432c-3.143-1.642-6.05-3.698-8.645-6.113l.494.098-9.164 3.26-.37.137-.21-.334c-2.965-4.68-5.88-9.3-8.646-13.585l-.21-.333.272-.272 6.88-6.891-.124.481c-1.066-3.39-1.677-6.908-1.816-10.46l.272.395-8.781-4.174-.333-.16.086-.359 3.532-15.709.087-.333h10.077l-.383.234c1.666-3.143 3.743-6.05 6.175-8.645l-.086.42c-1.136-3.21-2.236-6.335-3.248-9.176l-.099-.296.26-.16 13.584-8.584.235-.148.198.197 6.879 6.88-.334-.075c3.384-1.055 6.894-1.653 10.436-1.778l-.26.16 4.212-8.768.086-.186h.198l15.684 3.62h.124v.123c0 3.136 0 5.545-.062 7.212v1.865c-.023.212-.06.422-.111.63z" transform="translate(29.64 91.39)"/>
            <path fill="#407BFF" d="M43.78 284.05c2.004 1.048 3.86 2.356 5.521 3.89l5.904-2.1 5.545 8.757-4.422 4.434c.686 2.156 1.076 4.395 1.161 6.656l5.657 2.68-2.273 10.115h-6.261c-1.044 2.006-2.353 3.862-3.89 5.52l2.099 5.904-8.744 5.545-4.446-4.471c-2.153.68-4.388 1.07-6.644 1.16l-2.692 5.657-10.103-2.272v-6.262c-2.01-1.038-3.867-2.347-5.52-3.89l-5.904 2.1-5.545-8.744 4.422-4.446c-.687-2.152-1.077-4.387-1.161-6.644l-5.669-2.594 2.272-10.102h6.25c1.045-2.01 2.353-3.87 3.89-5.533l-2.112-5.965 8.769-5.57 4.433 4.421c2.157-.685 4.396-1.076 6.657-1.16l2.692-5.657 10.102 2.273v6.298h.013zm-8.904 11.905c-4.386-.985-8.935.77-11.523 4.446-2.589 3.676-2.708 8.55-.302 12.347 2.406 3.798 6.864 5.773 11.293 5.003 4.43-.77 7.96-4.132 8.943-8.52.652-2.879.132-5.9-1.446-8.394-1.578-2.496-4.084-4.26-6.965-4.906v.024z" transform="translate(29.64 91.39)"/>
            <g fill="#FFF" opacity=".4">
                <path d="M42.966 8.57c2.003 1.05 3.86 2.357 5.52 3.891l5.903-2.1 5.546 8.757-4.422 4.433c.686 2.157 1.076 4.396 1.161 6.657l5.656 2.68-2.272 10.115h-6.261c-1.044 2.006-2.353 3.862-3.89 5.52l2.099 5.903-8.744 5.546-4.446-4.471c-2.153.68-4.388 1.07-6.644 1.16l-2.693 5.657-10.102-2.272v-6.262c-2.01-1.038-3.867-2.347-5.52-3.89l-5.904 2.1-5.545-8.744 4.422-4.446c-.687-2.152-1.077-4.387-1.161-6.645L0 29.566l2.272-10.102h6.25c1.045-2.01 2.353-3.87 3.89-5.533L10.3 7.966l8.768-5.57 4.434 4.421c2.156-.685 4.396-1.076 6.657-1.16L32.85 0l10.102 2.272v6.299h.013z" transform="translate(29.64 91.39) translate(.815 275.48)"/>
                <path d="M34.061 20.476c-4.386-.985-8.935.77-11.523 4.446-2.589 3.676-2.708 8.55-.302 12.347 2.406 3.798 6.863 5.773 11.293 5.003 4.43-.77 7.96-4.132 8.943-8.52.652-2.879.131-5.9-1.446-8.395-1.578-2.495-4.084-4.26-6.965-4.905v.024z" transform="translate(29.64 91.39) translate(.815 275.48)"/>
            </g>
            <path fill="#263238" d="M693.527 109.063c2.83.354 5.6 1.085 8.237 2.173l6.064-5.075 10.399 7.928-3.273 7.188c1.753 2.268 3.194 4.76 4.285 7.41l7.88.692 1.753 12.955-7.41 2.766c-.352 2.836-1.088 5.611-2.186 8.25l5.076 6.051-7.916 10.411-7.188-3.285c-2.264 1.762-4.757 3.208-7.41 4.298l-.691 7.867-12.968 1.766-2.766-7.41c-2.83-.354-5.601-1.085-8.238-2.173l-6.051 5.075-10.399-7.99 3.285-7.188c-1.758-2.266-3.204-4.758-4.298-7.41l-7.867-.691-1.766-12.955 7.41-2.767c.355-2.83 1.086-5.6 2.174-8.237l-5.076-6.064 7.916-10.399 7.188 3.273c2.27-1.75 4.762-3.19 7.41-4.286l.692-7.879 12.955-1.754 2.766 7.41.013.05zm-3.89 17.87c-5.934.192-11.105 4.097-12.912 9.752-1.807 5.655.141 11.835 4.864 15.432 4.723 3.597 11.198 3.832 16.17.587 4.97-3.245 7.36-9.268 5.969-15.039-1.56-6.465-7.445-10.946-14.092-10.732z" transform="translate(29.64 91.39)"/>
            <path fill="#263238" fill-rule="nonzero" d="M744.273 31.542c1.374-.304 2.788-.379 4.186-.222 6.69.668 12.372 5.182 14.536 11.547.988 2.94 1.172 6.091.531 9.127-.743 3.368-2.46 6.443-4.94 8.842-5.45 5.312-13.733 6.435-20.402 2.767-1.54-.83-2.94-1.897-4.15-3.162-1.171-1.194-2.154-2.56-2.914-4.05-1.435-2.758-2.1-5.851-1.927-8.955.387-6.709 4.661-12.571 10.93-14.993 1.308-.523 2.693-.827 4.1-.901 0 .123-1.494.247-3.952 1.235-3.485 1.479-6.37 4.09-8.188 7.41-2.742 4.901-2.807 10.86-.173 15.82.728 1.409 1.67 2.696 2.792 3.816 1.147 1.194 2.477 2.199 3.94 2.977 6.306 3.44 14.117 2.38 19.277-2.618 2.342-2.262 3.969-5.16 4.681-8.337.622-2.868.477-5.85-.42-8.645-.796-2.449-2.153-4.677-3.964-6.508-2.643-2.712-6.125-4.453-9.88-4.94-2.569-.37-4.05-.087-4.063-.21z" transform="translate(29.64 91.39)"/>
            <path fill="#263238" fill-rule="nonzero" d="M750.695 9.88c-.097-.174-.18-.356-.247-.543-.16-.42-.383-.964-.667-1.68L747.175.951l.16.099-15.622 2.21.21-.222c-.247 2.878-.507 6.076-.803 9.497v.173l-.16.074c-3.154 1.324-6.115 3.064-8.806 5.175l-.148.111-.173-.074-8.645-3.94.42-.098-9.534 12.572v-.47l6.175 7.3.148.185-.087.222c-1.298 3.163-2.167 6.486-2.58 9.88v.247l-.236.086-8.929 3.36.272-.47c.68 4.94 1.408 10.214 2.149 15.635l-.408-.383 9.498.828h.271l.111.26c1.316 3.135 3.04 6.083 5.126 8.768l.185.234-.124.26c-1.235 2.717-2.593 5.68-3.952 8.645l-.148-.58 12.461 9.62h-.592l7.31-6.175.223-.198.272.112c3.141 1.3 6.444 2.173 9.818 2.593l.395.321v.062l.062.148.099.284.21.556.42 1.124.84 2.235 1.667 4.458-.519-.308 15.635-2.124-.407.432c.284-3.187.555-6.36.84-9.497v-.284l.259-.112c3.146-1.304 6.103-3.024 8.793-5.112l.222-.173.26.11 8.645 3.965-.569.148 9.572-12.547v.555l-6.175-7.323-.173-.198.099-.247c1.31-3.161 2.19-6.484 2.618-9.88v-.247l.247-.086 8.929-3.322-.26.432c-.728-5.508-1.42-10.707-2.087-15.648l.346.322-9.51-.865h-.21l-.073-.197c-1.305-3.158-3.024-6.128-5.113-8.83l-.124-.149.087-.185c1.445-3.15 2.754-5.978 3.976-8.645l.087.346-12.51-9.621h.27l-7.409 6.076H760.315c-2.389-1.002-4.87-1.768-7.41-2.285l-1.89-.358c-.208-.023-.415-.064-.617-.123.21-.017.42-.017.63 0 .42 0 1.062.136 1.902.284 2.69.5 5.315 1.295 7.83 2.371h-.16l7.274-6.175.135-.111.136.099 12.61 9.51.173.135-.087.21c-1.235 2.692-2.47 5.533-3.927 8.645v-.334c2.137 2.74 3.902 5.751 5.249 8.954l-.297-.21 9.51.815h.296v.297c.68 4.94 1.396 10.14 2.149 15.635v.321l-.309.111-8.916 3.36.259-.346c-.423 3.458-1.312 6.844-2.643 10.065l-.062-.445 6.175 7.3.222.27-.21.285-9.546 12.572-.222.296-.346-.16-8.645-3.94.482-.061c-2.746 2.148-5.77 3.913-8.991 5.248l.296-.395c-.284 3.137-.556 6.299-.84 9.497v.383h-.382l-15.648 2.137h-.383l-.136-.358-1.741-4.298-.84-2.236-.407-1.124-.223-.568-.098-.284V87.24c.79.63.21.173.395.31-3.46-.428-6.845-1.321-10.066-2.656l.495-.074-7.312 6.175-.296.247-.309-.235-12.56-9.571-.296-.222.16-.346c1.359-3.001 2.717-5.965 3.965-8.645v.481c-2.14-2.753-3.901-5.781-5.237-9.003l.383.284-9.497-.84h-.358v-.358c-.729-5.434-1.445-10.732-2.1-15.647v-.334l.321-.123 8.942-3.322-.272.333c.443-3.455 1.344-6.835 2.68-10.053v.42l-6.249-7.509-.198-.247.186-.234 9.583-12.486.173-.222.247.11 8.645 3.99h-.321c2.746-2.122 5.76-3.87 8.966-5.2l-.173.235c.321-3.42.618-6.62.877-9.497v-.185h.185L747.286.79h.124v.112l2.47 6.656.605 1.73c.082.192.152.39.21.592z" transform="translate(29.64 91.39)"/>
        </g>
        <g fill-rule="nonzero">
            <path fill="#FAFAFA" d="M0.939 0.432H569.088V393.187H0.939z" transform="translate(144.495 53.105)"/>
            <path fill="#263238" d="M569.088 393.2c0-2.125-.099-153.82-.26-392.73l.26.259H.988l.321-.321v392.73l-.296-.297 568.1.297-568.1.296H.716v-.296V.086h568.619v.26c-.148 239.034-.247 390.73-.247 392.853z" transform="translate(144.495 53.105)"/>
            <path fill="#263238" d="M0.939 0.432H569.088V23.218H0.939z" transform="translate(144.495 53.105)"/>
            <path fill="#FFF" d="M17.154 11.4c.005 1.419-.846 2.701-2.156 3.248-1.31.547-2.821.25-3.827-.752-1.006-1.002-1.308-2.512-.766-3.824.542-1.312 1.822-2.168 3.242-2.168.929-.003 1.821.363 2.48 1.02.657.655 1.027 1.546 1.027 2.475zM29.776 11.4c.005 1.419-.847 2.701-2.157 3.248-1.31.547-2.82.25-3.826-.752-1.006-1.002-1.308-2.512-.766-3.824.542-1.312 1.822-2.168 3.241-2.168.93-.003 1.822.363 2.48 1.02.658.655 1.028 1.546 1.028 2.475zM42.398 11.4c.005 1.42-.848 2.703-2.16 3.25-1.312.545-2.823.246-3.828-.759-1.005-1.004-1.304-2.516-.758-3.828.546-1.311 1.83-2.164 3.25-2.159 1.93 0 3.496 1.565 3.496 3.495z" transform="translate(144.495 53.105)"/>
            <path fill="#E0E0E0" d="M548.76 368.512c0-1.42-.074-46.93-.185-127.576l.185.185-524.492.136.32-.32v127.575l-.32-.321 524.529.32-524.53.31h-.308v-.31-127.896h.358l524.492.136h.198v.185c-.173 80.683-.247 126.155-.247 127.576zM279.011 230.229v-3.248-9.448c0-8.275 0-20.427-.074-35.976 0-31.072-.074-75.68-.136-129.922l.26.26H25.478l.333-.321v178.593l-.296-.296 182.904.148 52.092.074H279.147h-18.549l-52.031.086-183.089.136h-.284v-.284V51.117h254.2v.259c-.062 54.34-.111 98.973-.136 130.083 0 15.523 0 27.651-.074 35.913v9.399c0 2.124-.173 3.458-.173 3.458z" transform="translate(144.495 53.105)"/>
            <path fill="#407BFF" d="M52.821 196.451l18.266-26.416c1.78-2.582 4.522-4.34 7.611-4.879 3.09-.539 6.265.187 8.814 2.014l2.557 1.827c3.007 2.156 6.858 2.761 10.382 1.632 3.524-1.13 6.306-3.86 7.5-7.362l8.868-25.935c1.618-4.73 6.065-7.91 11.065-7.91 5 0 9.447 3.18 11.066 7.91l4.31 12.548c1.557 4.555 5.747 7.69 10.556 7.9 4.81.21 9.256-2.548 11.205-6.95l3.705-8.397c1.716-3.88 5.4-6.525 9.625-6.91 4.225-.385 8.327 1.55 10.715 5.057 2.503 3.653 6.853 5.581 11.24 4.983 4.388-.599 8.063-3.621 9.496-7.811l4.15-12.14c3.803-11.115 19.846-10.3 22.464 1.235l15.882 69.654s-198.921-.605-199.477-.05z" transform="translate(144.495 53.105)"/>
            <path fill="#000" d="M52.821 196.451l18.266-26.416c1.78-2.582 4.522-4.34 7.611-4.879 3.09-.539 6.265.187 8.814 2.014l2.557 1.827c3.007 2.156 6.858 2.761 10.382 1.632 3.524-1.13 6.306-3.86 7.5-7.362l8.868-25.935c1.618-4.73 6.065-7.91 11.065-7.91 5 0 9.447 3.18 11.066 7.91l4.31 12.548c1.557 4.555 5.747 7.69 10.556 7.9 4.81.21 9.256-2.548 11.205-6.95l3.705-8.397c1.716-3.88 5.4-6.525 9.625-6.91 4.225-.385 8.327 1.55 10.715 5.057 2.503 3.653 6.853 5.581 11.24 4.983 4.388-.599 8.063-3.621 9.496-7.811l4.15-12.14c3.803-11.115 19.846-10.3 22.464 1.235l15.882 69.654s-198.921-.605-199.477-.05z" opacity=".3" transform="translate(144.495 53.105)"/>
            <path fill="#407BFF" d="M52.302 197.13l14.82-43.41c1.562-4.574 5.834-7.671 10.667-7.732 4.834-.061 9.183 2.927 10.86 7.46l7.113 19.242c1.427 3.856 4.816 6.648 8.874 7.31 4.059.661 8.16-.909 10.738-4.111l5.767-7.163c3.847-4.755 10.755-5.636 15.672-2.001l13.412 9.88c1.957 1.431 4.32 2.201 6.744 2.198h17.067c2.424-.003 4.787.767 6.743 2.199l12.696 9.188c2.499 1.823 5.629 2.557 8.677 2.033 3.048-.523 5.755-2.26 7.502-4.812l11.93-17.438c.148-.222.308-.432.469-.642 4.78-6.052 14.363-4.78 17.846 2.112l12.745 25.292s-200.342-.37-200.342.396z" transform="translate(144.495 53.105)"/>
            <path fill="#407BFF" d="M252.582 196.723l-15.462-12.622c-21.267-15.647-31.357 14.129-48.066-8.212l-5.768-7.163c-3.848-4.77-10.775-5.653-15.697-2.001l-6.668 4.94c-6.339 4.641-13.992 7.142-21.848 7.138h-8.706c-2.425-.003-4.787.767-6.743 2.199l-12.696 9.188c-5.212 3.804-8.843 4.31-17.18-2.68 0 0-9.052-7.41-9.262-7.62-4.446-5.397-13.708-5.397-17.71 0-.948 1.267-1.962 2.483-3.038 3.643l-11.98 13.203s200.824-.828 200.824-.013z" transform="translate(144.495 53.105)"/>
            <path fill="#FFF" d="M252.582 196.723l-15.462-12.622c-21.267-15.647-31.357 14.129-48.066-8.212l-5.768-7.163c-3.848-4.77-10.775-5.653-15.697-2.001l-6.669 4.94c-6.338 4.641-13.99 7.142-21.847 7.138h-8.706c-2.425-.003-4.787.767-6.743 2.199l-12.696 9.188c-5.212 3.804-8.843 4.31-17.18-2.68 0 0-9.052-7.41-9.262-7.62-4.446-5.397-13.708-5.397-17.71 0-.948 1.267-1.962 2.483-3.038 3.643l-11.98 13.202s200.824-.827 200.824-.012z" opacity=".3" transform="translate(144.495 53.105)"/>
            <path fill="#263238" d="M107.445 96.466c0 .185-7.089.321-15.845.321s-15.845-.136-15.845-.321 7.089-.321 15.845-.321 15.845.185 15.845.32z" transform="translate(144.495 53.105)"/>
            <path fill="#407BFF" d="M66.801 93.761H72.223V99.18299999999999H66.801z" transform="translate(144.495 53.105)"/>
            <path fill="#263238" d="M167.182 96.466c0 .185-7.101.321-15.845.321s-15.857-.136-15.857-.321 7.1-.321 15.857-.321c8.756 0 15.845.185 15.845.32z" transform="translate(144.495 53.105)"/>
            <path fill="#407BFF" d="M126.6 93.761H132.022V99.18299999999999H126.6z" transform="translate(144.495 53.105)"/>
            <path fill="#263238" d="M226.98 96.466c0 .185-7.1.321-15.857.321-8.756 0-15.845-.136-15.845-.321s7.101-.321 15.845-.321 15.858.185 15.858.32z" transform="translate(144.495 53.105)"/>
            <path fill="#407BFF" d="M186.399 93.761H191.821V99.18299999999999H186.399zM227.759 346.702l13.066-18.612c.729-1.041 1.85-1.741 3.105-1.94 1.256-.197 2.538.124 3.552.89l6.866 5.175c1.068.81 2.432 1.124 3.746.859 1.314-.265 2.45-1.081 3.12-2.242l19.76-34.308c.774-1.345 2.165-2.218 3.713-2.33 1.547-.111 3.049.554 4.007 1.774l12.35 15.672c.94 1.222 2.423 1.903 3.963 1.819 1.54-.084 2.94-.922 3.743-2.239l9.04-14.203c.876-1.38 2.41-2.203 4.044-2.168 1.635.036 3.132.924 3.947 2.341l7.471 12.918c.818 1.413 2.312 2.299 3.944 2.336 1.631.038 3.165-.777 4.047-2.15l25.515-39.99c.846-1.335 2.31-2.151 3.891-2.168 1.581-.018 3.063.766 3.939 2.082l42.15 63.06c.802 1.194 2.108 1.953 3.542 2.06 1.435.106 2.838-.454 3.807-1.518l25.577-28.157c.863-.947 2.075-1.499 3.355-1.53 1.28-.03 2.518.465 3.425 1.369l20.365 20.452c1.028 1.048 2.489 1.553 3.945 1.364 1.456-.19 2.739-1.051 3.465-2.328l36.395-63.17c1.06-1.83 3.216-2.723 5.26-2.177 2.044.547 3.467 2.396 3.472 4.511v82.498l-301.587.05z" transform="translate(144.495 53.105)"/>
            <path fill="#263238" d="M528.58 357.014c-.01-.123-.01-.247 0-.37v-1.1-4.606l.086.086c-17.413.136-78.002.235-149.966.235-71.963 0-132.552-.1-149.966-.235l.074-.086v6.076c-.018-.123-.018-.248 0-.37v-1.1-4.693h.087c17.413-.136 77.99-.235 149.966-.235 71.976 0 132.553.1 149.966.235h.086V356.644c-.096.136-.208.26-.333.37z" transform="translate(144.495 53.105)"/>
            <path fill="#263238" d="M261.968 356.532c-.173 0-.32-.58-.32-1.235 0-.654.147-1.235.32-1.235.173 0 .321.568.321 1.235 0 .667-.148 1.235-.32 1.235zM295.3 356.532c-.184 0-.32-.58-.32-1.235 0-.654.136-1.235.32-1.235.186 0 .322.568.322 1.235 0 .667-.148 1.235-.321 1.235zM328.621 356.532c-.173 0-.32-.58-.32-1.235 0-.654.147-1.235.32-1.235.173 0 .321.568.321 1.235 0 .667-.148 1.235-.32 1.235zM361.954 356.532c-.185 0-.321-.58-.321-1.235 0-.654.136-1.235.32-1.235.186 0 .322.568.322 1.235 0 .667-.148 1.235-.321 1.235zM395.274 356.532c-.173 0-.321-.58-.321-1.235 0-.654.148-1.235.321-1.235.173 0 .321.568.321 1.235 0 .667-.148 1.235-.32 1.235zM428.607 356.532c-.186 0-.334-.58-.334-1.235 0-.654.148-1.235.334-1.235.185 0 .32.568.32 1.235 0 .667-.147 1.235-.32 1.235zM461.89 356.532c-.173 0-.321-.58-.321-1.235 0-.654.148-1.235.321-1.235.173 0 .321.568.321 1.235 0 .667-.111 1.235-.321 1.235zM495.235 356.532c-.173 0-.321-.58-.321-1.235 0-.654.148-1.235.321-1.235.173 0 .321.568.321 1.235 0 .667-.123 1.235-.321 1.235z" transform="translate(144.495 53.105)"/>
            <path fill="#E0E0E0" d="M550.415 189.313v-2.161-6.299-24.169c0-20.995-.074-51.227-.124-88.61l.235.234-253.595.086.321-.32v121.24l-.309-.31 182.15.149 52.562.086h18.883-18.784l-52.488.087-182.36.148h-.308v-.309V67.604h.333l253.595.086h.235v.235c0 37.445-.1 67.777-.124 88.76v30.368c0 1.42-.222 2.26-.222 2.26z" transform="translate(144.495 53.105)"/>
            <path fill="#E0E0E0" d="M493.012 120.944h-174.69c-1.61 0-2.915-1.305-2.915-2.915s1.305-2.915 2.914-2.915h174.691c1.61 0 2.915 1.305 2.915 2.915s-1.305 2.915-2.915 2.915zM493.012 97.886h-174.69c-1.61 0-2.915-1.305-2.915-2.914 0-1.61 1.305-2.915 2.914-2.915h174.691c1.61 0 2.915 1.305 2.915 2.915s-1.305 2.914-2.915 2.914z" transform="translate(144.495 53.105)"/>
            <path fill="#455A64" d="M397.25 120.944h-78.929c-1.61 0-2.914-1.305-2.914-2.915s1.305-2.915 2.914-2.915h78.93c1.609 0 2.914 1.305 2.914 2.915s-1.305 2.915-2.915 2.915z" transform="translate(144.495 53.105)"/>
            <path fill="#263238" d="M515.168 119.276L513.933 119.276 513.933 120.944 512.994 120.944 512.994 119.276 509.215 119.276 509.215 118.56 512.698 114.114 513.735 114.114 510.413 118.399 513.019 118.399 513.019 116.93 513.933 116.93 513.933 118.399 515.168 118.399zM520.478 118.906c0 1.173-.827 2.112-2.568 2.112-.895.018-1.768-.275-2.47-.828l.444-.766c.568.484 1.292.743 2.038.73 1.037 0 1.618-.47 1.618-1.236s-.494-1.235-2.063-1.235h-1.543l.358-3.544h3.84v.84h-3.025l-.185 1.864h.765c2.001.013 2.791.852 2.791 2.063zM521.084 115.942c-.06-.46.078-.924.38-1.277.3-.353.737-.562 1.2-.576.939 0 1.569.741 1.569 1.853 0 1.111-.63 1.852-1.569 1.852-.463-.013-.9-.222-1.2-.575-.302-.353-.44-.817-.38-1.277zm2.531 0c0-.815-.358-1.235-.95-1.235-.593 0-.952.494-.952 1.235 0 .74.37 1.297.951 1.297.58 0 .976-.482.976-1.297h-.025zm3.15-1.79l.74-.001-4.63 6.793h-.754l4.644-6.793zm-1.371 4.939c.138-.835.905-1.417 1.746-1.324.842.093 1.464.827 1.416 1.672-.047.846-.747 1.506-1.594 1.505-.938.086-1.568-.692-1.568-1.804v-.049zm2.47 0c0-.803-.37-1.297-.951-1.297-.58 0-.951.482-.951 1.297s.358 1.31.95 1.31c.594 0 1.001-.445 1.001-1.26l-.05-.05z" transform="translate(144.495 53.105)"/>
            <path fill="#E0E0E0" d="M493.012 142.297h-174.69c-1.61 0-2.915-1.305-2.915-2.915s1.305-2.915 2.914-2.915h174.691c1.61 0 2.915 1.305 2.915 2.915s-1.305 2.915-2.915 2.915z" transform="translate(144.495 53.105)"/>
            <path fill="#455A64" d="M422.975 142.297h-104.48c-.817.106-1.637-.16-2.236-.726-.598-.564-.911-1.368-.852-2.189 0-1.605.914-2.915 2.05-2.915h104.48c.837-.086 1.672.18 2.307.732.634.552 1.01 1.343 1.04 2.183.021 1.397-.944 2.615-2.309 2.915z" transform="translate(144.495 53.105)"/>
            <path fill="#263238" d="M514.205 135.504L514.205 136.159 511.451 142.334 510.425 142.334 513.118 136.381 510.055 136.381 510.055 137.616 509.129 137.616 509.129 135.566zM514.86 138.9c0-2.223 1.234-3.482 2.778-3.482s2.766 1.235 2.766 3.482c0 2.248-1.235 3.47-2.766 3.47-1.532 0-2.779-1.259-2.779-3.47zm4.569 0c0-1.74-.729-2.618-1.791-2.618-1.062 0-1.803.877-1.803 2.618 0 1.742.74 2.606 1.803 2.606 1.062 0 1.79-.877 1.79-2.606zM521.232 137.295c-.06-.46.078-.924.38-1.277.3-.353.737-.562 1.2-.576.94 0 1.569.741 1.569 1.853 0 1.111-.63 1.852-1.568 1.852-.464-.013-.9-.222-1.202-.575-.3-.353-.439-.817-.38-1.277zm2.532 0c0-.815-.359-1.235-.951-1.235-.593 0-.951.494-.951 1.235 0 .741.37 1.297.95 1.297.581 0 .952-.482.952-1.297zm3.149-1.79h.74l-4.643 6.792h-.74l4.643-6.793zm-1.371 4.94c.138-.836.905-1.418 1.746-1.325.842.093 1.464.827 1.416 1.673-.047.845-.747 1.506-1.594 1.504-.938.05-1.568-.692-1.568-1.803v-.05zm2.47 0c0-.804-.37-1.236-.951-1.236-.58 0-.951.482-.951 1.235 0 .754.358 1.31.951 1.31s1-.458 1-1.26l-.05-.05z" transform="translate(144.495 53.105)"/>
            <path fill="#E0E0E0" d="M493.012 163.143h-174.69c-1.61 0-2.915-1.304-2.915-2.914s1.305-2.915 2.914-2.915h174.691c1.61 0 2.915 1.305 2.915 2.915s-1.305 2.914-2.915 2.914z" transform="translate(144.495 53.105)"/>
            <path fill="#455A64" d="M383.208 163.143h-64.887c-1.61 0-2.914-1.304-2.914-2.914s1.305-2.915 2.914-2.915h64.887c1.61 0 2.915 1.305 2.915 2.915s-1.305 2.914-2.915 2.914z" transform="translate(144.495 53.105)"/>
            <path fill="#263238" d="M514.02 161.106c0 1.235-.84 2.112-2.57 2.112-.894.018-1.767-.275-2.47-.828l.445-.766c.566.486 1.292.746 2.038.73 1.025 0 1.605-.483 1.605-1.236s-.481-1.235-2.05-1.235h-1.543l.358-3.557h3.828v.852h-3.013l-.185 1.865h.753c2 .013 2.803.852 2.803 2.063zM514.822 159.735c0-2.21 1.235-3.47 2.779-3.47 1.544 0 2.766 1.235 2.766 3.47 0 2.235-1.235 3.483-2.766 3.483-1.532 0-2.779-1.26-2.779-3.483zm4.57 0c0-1.73-.73-2.606-1.791-2.606-1.062 0-1.803.877-1.803 2.606 0 1.729.728 2.618 1.803 2.618 1.074 0 1.79-.877 1.79-2.618zM521.17 158.142c-.06-.46.078-.924.38-1.277.3-.353.737-.562 1.2-.576.94 0 1.57.729 1.57 1.853s-.63 1.852-1.57 1.852c-.463-.013-.9-.222-1.2-.575-.302-.353-.44-.817-.38-1.277zm2.532 0c0-.815-.358-1.297-.951-1.297s-.951.494-.951 1.297c0 .803.37 1.235.95 1.235.581 0 .976-.42.976-1.235h-.024zm3.137-1.803h.753l-4.644 6.804h-.74l4.63-6.804zm-1.359 4.94c.138-.836.905-1.417 1.747-1.325.841.093 1.463.828 1.416 1.673-.048.845-.748 1.506-1.594 1.504-.939.062-1.544-.68-1.544-1.79l-.025-.062zm2.47 0c0-.803-.37-1.235-.95-1.235-.581 0-.952.481-.952 1.235 0 .753.358 1.296.951 1.296s1.025-.432 1.025-1.235l-.074-.061z" transform="translate(144.495 53.105)"/>
            <path fill="#407BFF" d="M433.979 97.886H318.321c-1.61 0-2.914-1.305-2.914-2.914 0-1.61 1.305-2.915 2.914-2.915H433.98c1.61 0 2.915 1.305 2.915 2.915s-1.305 2.914-2.915 2.914z" transform="translate(144.495 53.105)"/>
            <path fill="#263238" d="M514.513 95.811c-.009.625-.283 1.216-.755 1.626-.471.41-1.095.6-1.715.523-1.827 0-2.853-1.235-2.853-3.384s1.31-3.569 3.212-3.569c.59-.02 1.175.122 1.691.408l-.37.753c-.374-.22-.802-.33-1.235-.321-1.383 0-2.26.864-2.26 2.556v.247c.46-.604 1.193-.937 1.951-.889.588-.066 1.176.119 1.62.51.445.39.704.949.714 1.54zm-.938 0c0-.79-.605-1.309-1.556-1.309-.385-.041-.77.077-1.067.326-.296.25-.477.61-.502.996 0 .704.568 1.309 1.618 1.309.373.045.749-.068 1.035-.312.286-.244.457-.597.472-.973v-.037zM515.242 94.49c0-2.21 1.235-3.483 2.779-3.483 1.543 0 2.766 1.235 2.766 3.483s-1.235 3.47-2.766 3.47c-1.532 0-2.779-1.26-2.779-3.47zm4.57 0c0-1.741-.741-2.618-1.791-2.618-1.05 0-1.803.877-1.803 2.618 0 1.741.728 2.606 1.803 2.606 1.074 0 1.79-.877 1.79-2.606zM521.615 92.884c-.064-.46.072-.927.374-1.28.302-.354.741-.562 1.206-.572.939 0 1.569.74 1.569 1.852s-.63 1.853-1.569 1.853c-.465-.01-.904-.218-1.206-.572-.302-.354-.438-.82-.374-1.28zm2.47 0c0-.815-.37-1.235-.951-1.235-.58 0-.951.494-.951 1.235 0 .741.358 1.297.95 1.297.593 0 1.013-.482 1.013-1.297h-.061zm3.136-1.79h.754l-4.644 6.792h-.74l4.63-6.792zm-1.37 4.94c.131-.846.902-1.44 1.753-1.35.85.089 1.482.829 1.436 1.683-.046.854-.753 1.522-1.609 1.52-.443-.032-.854-.241-1.14-.581-.287-.34-.423-.781-.379-1.223l-.061-.05zm2.47 0c0-.803-.37-1.235-.951-1.235-.58 0-.951.481-.951 1.235 0 .753.358 1.309.95 1.309.593 0 1.075-.445 1.075-1.26l-.123-.05z" transform="translate(144.495 53.105)"/>
            <path fill="#E0E0E0" d="M488.937 201.737c0 .173-42.756.321-95.49.321-52.735 0-95.503-.148-95.503-.32 0-.174 42.755-.322 95.502-.322 52.747 0 95.49.136 95.49.321zM488.937 213.062c0 .173-42.756.321-95.49.321-52.735 0-95.503-.148-95.503-.32 0-.174 42.755-.322 95.502-.322 52.747 0 95.49.136 95.49.321zM488.937 223.3c0 .173-42.756.321-95.49.321-52.735 0-95.503-.148-95.503-.32 0-.174 42.755-.322 95.502-.322 52.747 0 95.49.148 95.49.321zM59.144 339.304c-1.896 0-3.433-1.537-3.433-3.433v-64.406c0-1.896 1.537-3.433 3.433-3.433 1.893.007 3.427 1.54 3.433 3.433v64.455c-.033 1.874-1.559 3.377-3.433 3.384z" transform="translate(144.495 53.105)"/>
            <path fill="#407BFF" d="M59.144 339.625c-.911.003-1.787-.357-2.431-1.002-.645-.645-1.005-1.52-1.002-2.431v-41.533c-.003-.912.357-1.787 1.002-2.432.644-.644 1.52-1.005 2.431-1.002 1.896 0 3.433 1.537 3.433 3.434v41.508c.007.915-.352 1.794-.996 2.444-.645.649-1.522 1.014-2.437 1.014z" transform="translate(144.495 53.105)"/>
            <path fill="#263238" d="M56.983 342.293L56.983 348.023 56.39 348.023 56.39 342.811 55.044 342.811 55.044 342.293zM58.341 345.158c0-1.828.964-2.915 2.285-2.915 1.322 0 2.297 1.087 2.297 2.915s-.975 2.914-2.297 2.914c-1.321 0-2.285-1.037-2.285-2.914zm3.977 0c0-1.532-.691-2.371-1.692-2.371-1 0-1.68.84-1.68 2.37 0 1.532.68 2.372 1.68 2.372 1 0 1.692-.84 1.692-2.371z" transform="translate(144.495 53.105)"/>
            <path fill="#E0E0E0" d="M72.865 339.304c-1.896 0-3.433-1.537-3.433-3.433v-64.406c-.01-.917.347-1.8.992-2.451.645-.652 1.524-1.019 2.441-1.019 1.893.007 3.427 1.54 3.433 3.433v64.492c-.033 1.874-1.559 3.377-3.433 3.384z" transform="translate(144.495 53.105)"/>
            <path fill="#407BFF" d="M72.865 339.625c-.912.003-1.787-.357-2.431-1.002-.645-.645-1.006-1.52-1.002-2.431V281.58c-.004-.912.357-1.787 1.002-2.431.644-.645 1.52-1.006 2.431-1.002 1.896 0 3.433 1.537 3.433 3.433v54.587c.007.915-.352 1.794-.997 2.444-.644.649-1.521 1.014-2.436 1.014z" transform="translate(144.495 53.105)"/>
            <path fill="#263238" d="M72.05 347.492v.531h-4.014v-.42l2.371-2.334c.655-.642.778-1.025.778-1.408 0-.667-.469-1.074-1.346-1.074-.59-.036-1.166.195-1.568.63l-.408-.359c.52-.56 1.263-.858 2.026-.815 1.16 0 1.902.593 1.902 1.544-.028.71-.378 1.37-.951 1.79l-1.94 1.915h3.15zM72.742 345.158c0-1.828.963-2.915 2.284-2.915 1.322 0 2.297 1.087 2.297 2.915s-.975 2.914-2.297 2.914c-1.321 0-2.284-1.037-2.284-2.914zm3.976 0c0-1.532-.691-2.371-1.692-2.371-1 0-1.68.84-1.68 2.37 0 1.532.68 2.372 1.68 2.372 1 0 1.692-.84 1.692-2.371z" transform="translate(144.495 53.105)"/>
            <path fill="#E0E0E0" d="M86.586 339.304c-1.893-.007-3.427-1.54-3.433-3.433v-64.406c.006-1.893 1.54-3.426 3.433-3.433.91 0 1.784.362 2.428 1.006.643.644 1.005 1.517 1.005 2.427v64.455c-.027 1.877-1.556 3.384-3.433 3.384z" transform="translate(144.495 53.105)"/>
            <path fill="#407BFF" d="M86.586 339.625c-1.896 0-3.433-1.537-3.433-3.433v-31.727c0-1.897 1.537-3.434 3.433-3.434.911-.003 1.787.358 2.431 1.002.645.645 1.005 1.52 1.002 2.432v31.702c.01.916-.348 1.797-.993 2.447-.645.65-1.524 1.014-2.44 1.011z" transform="translate(144.495 53.105)"/>
            <path fill="#263238" d="M85.697 346.38c0 .951-.692 1.692-2.075 1.692-.756.021-1.492-.244-2.063-.74l.284-.47c.48.45 1.12.69 1.779.667.95 0 1.47-.445 1.47-1.149s-.482-1.148-1.544-1.148h-.408v-.432l1.581-1.989h-2.927v-.518h3.705v.42l-1.618 2.037c1.198.062 1.816.704 1.816 1.63zM86.512 345.158c0-1.828.963-2.915 2.284-2.915 1.322 0 2.298 1.087 2.298 2.915s-.964 2.914-2.297 2.914c-1.334 0-2.285-1.037-2.285-2.914zm3.976 0c0-1.532-.691-2.371-1.692-2.371-1 0-1.68.84-1.68 2.37 0 1.532.68 2.372 1.68 2.372 1 0 1.692-.84 1.692-2.371z" transform="translate(144.495 53.105)"/>
            <path fill="#E0E0E0" d="M100.307 339.304c-1.894-.007-3.427-1.54-3.434-3.433v-64.406c.007-1.893 1.54-3.426 3.434-3.433 1.896 0 3.433 1.537 3.433 3.433v64.455c-.027 1.877-1.556 3.384-3.433 3.384z" transform="translate(144.495 53.105)"/>
            <path fill="#407BFF" d="M100.307 339.625c-1.896 0-3.434-1.537-3.434-3.433V281.58c0-1.896 1.538-3.433 3.434-3.433.911-.004 1.786.357 2.431 1.002.645.644 1.005 1.52 1.002 2.431v54.587c.01.916-.348 1.797-.993 2.447-.645.65-1.524 1.014-2.44 1.011z" transform="translate(144.495 53.105)"/>
            <path fill="#263238" d="M100.344 346.516L99.195 346.516 99.195 348.023 98.602 348.023 98.602 346.516 95.379 346.516 95.379 346.084 98.405 342.293 99.059 342.293 96.132 345.998 98.602 345.998 98.602 344.676 99.171 344.676 99.171 345.998 100.319 345.998zM100.875 345.158c0-1.828.95-2.915 2.285-2.915 1.333 0 2.284 1.087 2.284 2.915s-.963 2.914-2.284 2.914c-1.322 0-2.285-1.037-2.285-2.914zm3.964 0c0-1.532-.691-2.371-1.68-2.371-.987 0-1.691.84-1.691 2.37 0 1.532.691 2.372 1.692 2.372 1 0 1.68-.84 1.68-2.371z" transform="translate(144.495 53.105)"/>
            <path fill="#E0E0E0" d="M114.028 339.304c-1.894-.007-3.427-1.54-3.434-3.433v-64.406c.007-1.893 1.54-3.426 3.434-3.433 1.896 0 3.433 1.537 3.433 3.433v64.455c-.027 1.877-1.556 3.384-3.433 3.384z" transform="translate(144.495 53.105)"/>
            <path fill="#407BFF" d="M114.028 339.625c-1.897 0-3.434-1.537-3.434-3.433V292.04c0-1.896 1.537-3.433 3.434-3.433.911-.003 1.786.358 2.43 1.002.645.645 1.006 1.52 1.003 2.431v44.127c.01.916-.348 1.797-.993 2.447-.646.65-1.525 1.014-2.44 1.011z" transform="translate(144.495 53.105)"/>
            <path fill="#263238" d="M113.731 346.331c0 .976-.68 1.741-2.087 1.741-.752.02-1.484-.245-2.05-.74l.284-.47c.477.447 1.112.687 1.766.667.976 0 1.482-.482 1.482-1.173 0-.692-.457-1.235-1.914-1.235h-1.235l.296-2.865h3.125v.518h-2.618l-.198 1.828h.74c1.755.037 2.41.716 2.41 1.73zM114.472 345.158c0-1.828.951-2.915 2.273-2.915 1.321 0 2.297 1.087 2.297 2.915s-.964 2.914-2.297 2.914c-1.334 0-2.273-1.037-2.273-2.914zm3.965 0c0-1.532-.692-2.371-1.692-2.371s-1.68.84-1.68 2.37c0 1.532.692 2.372 1.68 2.372s1.691-.84 1.691-2.371z" transform="translate(144.495 53.105)"/>
            <path fill="#E0E0E0" d="M127.76 339.304c-1.895 0-3.433-1.537-3.433-3.433v-64.406c0-1.896 1.538-3.433 3.434-3.433 1.891.007 3.42 1.542 3.42 3.433v64.455c-.026 1.872-1.548 3.377-3.42 3.384z" transform="translate(144.495 53.105)"/>
            <path fill="#407BFF" d="M127.76 339.304c-1.795.03-3.302-1.346-3.433-3.137v-31.702c-.05-.95.287-1.881.934-2.579.646-.698 1.548-1.104 2.5-1.126 1.891.006 3.42 1.542 3.42 3.433v31.727c-.026 1.872-1.548 3.377-3.42 3.384z" transform="translate(144.495 53.105)"/>
            <path fill="#263238" d="M127.304 346.306c-.005.5-.219.975-.59 1.31-.37.336-.864.501-1.361.456-1.52 0-2.347-1.062-2.347-2.865 0-1.803 1.062-2.964 2.618-2.964.472-.019.941.088 1.359.309l-.247.482c-.335-.2-.722-.295-1.112-.272-1.235 0-2.025.79-2.025 2.346v.47c.336-.648 1.025-1.036 1.754-.988.493-.064.99.087 1.364.416.373.329.587.803.587 1.3zm-.58 0c0-.753-.556-1.235-1.446-1.235-.36-.041-.722.068-1 .302-.278.233-.448.57-.47.933 0 .63.532 1.235 1.52 1.235.35.046.703-.06.97-.291.266-.231.421-.566.425-.919v-.025zM127.983 345.158c0-1.828.951-2.915 2.272-2.915 1.322 0 2.298 1.087 2.298 2.915s-.964 2.914-2.298 2.914c-1.333 0-2.272-1.037-2.272-2.914zm3.964 0c0-1.532-.691-2.371-1.692-2.371-1 0-1.68.84-1.68 2.37 0 1.532.692 2.372 1.68 2.372s1.692-.84 1.692-2.371z" transform="translate(144.495 53.105)"/>
            <path fill="#E0E0E0" d="M141.482 339.304c-1.897 0-3.434-1.537-3.434-3.433v-64.406c0-1.896 1.537-3.433 3.434-3.433 1.893.007 3.426 1.54 3.433 3.433v64.455c-.034 1.874-1.56 3.377-3.433 3.384z" transform="translate(144.495 53.105)"/>
            <path fill="#407BFF" d="M141.482 339.625c-.912.003-1.787-.357-2.432-1.002-.644-.645-1.005-1.52-1.002-2.431v-57.885c0-1.896 1.537-3.433 3.434-3.433 1.893.007 3.426 1.54 3.433 3.433v57.86c.006.915-.352 1.794-.997 2.444-.644.649-1.522 1.014-2.436 1.014z" transform="translate(144.495 53.105)"/>
            <path fill="#263238" d="M140.79 342.293L140.79 342.712 138.32 348.023 137.69 348.023 140.037 342.811 137.085 342.811 137.085 343.886 136.505 343.886 136.505 342.293zM141.358 345.158c0-1.828.951-2.915 2.285-2.915s2.285 1.087 2.285 2.915-.964 2.914-2.285 2.914c-1.322 0-2.285-1.037-2.285-2.914zm3.964 0c0-1.532-.691-2.371-1.68-2.371-.987 0-1.691.84-1.691 2.37 0 1.532.692 2.372 1.692 2.372s1.68-.84 1.68-2.371z" transform="translate(144.495 53.105)"/>
            <path fill="#E0E0E0" d="M155.202 339.304c-1.896 0-3.433-1.537-3.433-3.433v-64.406c0-1.896 1.537-3.433 3.433-3.433 1.894.007 3.427 1.54 3.434 3.433v64.455c-.034 1.874-1.56 3.377-3.434 3.384z" transform="translate(144.495 53.105)"/>
            <path fill="#407BFF" d="M155.202 339.625c-.911.003-1.786-.357-2.43-1.002-.645-.645-1.006-1.52-1.003-2.431v-25.194c0-1.896 1.537-3.434 3.433-3.434 1.894.007 3.427 1.54 3.434 3.434v25.169c.006.915-.352 1.794-.997 2.444-.645.649-1.522 1.014-2.437 1.014z" transform="translate(144.495 53.105)"/>
            <path fill="#263238" d="M154.51 346.43c0 1.013-.851 1.642-2.222 1.642s-2.198-.63-2.198-1.642c-.012-.67.446-1.257 1.099-1.408-.537-.172-.902-.671-.902-1.235 0-.939.79-1.52 2-1.52 1.211 0 2.026.581 2.026 1.52-.005.566-.374 1.064-.914 1.235.655.15 1.117.736 1.112 1.408zm-.604 0c0-.704-.605-1.149-1.618-1.149-1.013 0-1.606.445-1.606 1.149s.593 1.148 1.606 1.148c1.013 0 1.618-.457 1.618-1.16v.012zm-1.618-1.618c.901 0 1.432-.395 1.432-1.013 0-.617-.568-1.05-1.432-1.05-.865 0-1.408.396-1.408 1.038s.519 1.013 1.408 1.013v.012zM155.326 345.158c0-1.828.963-2.915 2.285-2.915 1.321 0 2.297 1.087 2.297 2.915s-.976 2.914-2.297 2.914c-1.322 0-2.285-1.037-2.285-2.914zm3.977 0c0-1.532-.692-2.371-1.692-2.371s-1.68.84-1.68 2.37c0 1.532.68 2.372 1.68 2.372 1 0 1.704-.84 1.704-2.371h-.012z" transform="translate(144.495 53.105)"/>
            <path fill="#E0E0E0" d="M168.923 339.304c-1.877 0-3.406-1.507-3.433-3.384v-64.455c0-1.896 1.537-3.433 3.433-3.433 1.894.007 3.427 1.54 3.434 3.433v64.455c-.034 1.874-1.56 3.377-3.434 3.384z" transform="translate(144.495 53.105)"/>
            <path fill="#407BFF" d="M168.923 339.304c-1.795.03-3.302-1.346-3.433-3.137v-8.818c-.05-.95.286-1.88.933-2.578.647-.699 1.549-1.105 2.5-1.127 1.894.007 3.427 1.54 3.434 3.433v8.843c-.034 1.874-1.56 3.377-3.434 3.384z" transform="translate(144.495 53.105)"/>
            <path fill="#263238" d="M167.886 345.108c0 1.94-1.062 2.964-2.618 2.964-.474.016-.942-.095-1.359-.32l.247-.47c.335.2.722.294 1.112.272 1.235 0 2.025-.79 2.025-2.347v-.47c-.338.647-1.027 1.03-1.754.977-.49.056-.98-.1-1.347-.427-.368-.328-.579-.797-.58-1.29.005-.499.22-.973.59-1.307.371-.333.866-.495 1.362-.447 1.494 0 2.322 1.087 2.322 2.865zm-.803-1.136c0-.63-.53-1.235-1.519-1.235-.354-.046-.711.063-.979.3s-.42.578-.416.935c0 .754.555 1.235 1.432 1.235.362.042.725-.067 1.005-.3.28-.234.453-.571.477-.935zM168.738 345.158c0-1.828.951-2.915 2.285-2.915s2.285 1.087 2.285 2.915-.964 2.914-2.285 2.914c-1.322 0-2.285-1.037-2.285-2.914zm3.964 0c0-1.532-.691-2.371-1.68-2.371-.987 0-1.691.84-1.691 2.37 0 1.532.691 2.372 1.692 2.372 1 0 1.68-.84 1.68-2.371z" transform="translate(144.495 53.105)"/>
            <path fill="#E0E0E0" d="M182.644 339.304c-1.893-.007-3.426-1.54-3.433-3.433v-64.406c.007-1.893 1.54-3.426 3.433-3.433 1.896 0 3.433 1.537 3.433 3.433v64.455c-.027 1.877-1.556 3.384-3.433 3.384z" transform="translate(144.495 53.105)"/>
            <path fill="#407BFF" d="M182.644 339.304c-1.793.025-3.296-1.349-3.433-3.137v-31.702c-.05-.95.286-1.881.933-2.579.647-.698 1.549-1.104 2.5-1.126 1.896 0 3.433 1.537 3.433 3.433v31.727c-.027 1.877-1.556 3.384-3.433 3.384z" transform="translate(144.495 53.105)"/>
            <path fill="#263238" d="M177.729 342.293L177.729 348.023 177.136 348.023 177.136 342.811 175.79 342.811 175.79 342.293zM179.075 345.158c0-1.828.963-2.915 2.285-2.915 1.321 0 2.284 1.087 2.284 2.915s-.963 2.914-2.284 2.914c-1.322 0-2.285-1.037-2.285-2.914zm3.964 0c0-1.532-.679-2.371-1.68-2.371-1 0-1.679.84-1.679 2.37 0 1.532.68 2.372 1.68 2.372 1 0 1.692-.84 1.692-2.371h-.013zM184.497 345.158c0-1.828.963-2.915 2.284-2.915 1.322 0 2.285 1.087 2.285 2.915s-.963 2.914-2.285 2.914c-1.321 0-2.284-1.037-2.284-2.914zm3.964 0c0-1.532-.68-2.371-1.68-2.371-1 0-1.68.84-1.68 2.37 0 1.532.68 2.372 1.68 2.372 1 0 1.68-.84 1.68-2.371z" transform="translate(144.495 53.105)"/>
            <path fill="#E0E0E0" d="M211.074 352.765c-.173 0-.321-21.192-.321-47.337 0-26.145.148-47.338.32-47.338.174 0 .334 21.193.334 47.338s-.148 47.337-.333 47.337z" transform="translate(144.495 53.105)"/>
            <path fill="#263238" d="M290.941 264.29c0 .173-13.066.321-29.183.321-16.116 0-29.195-.148-29.195-.321 0-.173 13.066-.321 29.195-.321 16.13 0 29.183.111 29.183.321z" transform="translate(144.495 53.105)"/>
            <path fill="#FFF" d="M227.759 346.702l13.066-18.612c.729-1.041 1.85-1.741 3.105-1.94 1.256-.197 2.538.124 3.552.89l6.866 5.175c1.068.81 2.432 1.124 3.746.859 1.314-.265 2.45-1.081 3.12-2.242l19.76-34.309c.774-1.344 2.165-2.217 3.713-2.329 1.547-.111 3.049.554 4.007 1.774l12.35 15.672c.94 1.222 2.423 1.903 3.963 1.819 1.54-.084 2.94-.922 3.743-2.239l9.04-14.203c.876-1.38 2.41-2.203 4.044-2.168 1.635.036 3.132.924 3.947 2.341l7.471 12.918c.818 1.413 2.312 2.299 3.944 2.336 1.631.038 3.165-.777 4.047-2.15l25.515-39.99c.846-1.335 2.31-2.151 3.891-2.168 1.581-.018 3.063.766 3.939 2.082l42.15 63.06c.802 1.194 2.108 1.953 3.542 2.06 1.435.106 2.838-.454 3.807-1.518l25.576-28.158c.864-.946 2.076-1.498 3.356-1.528 1.28-.03 2.518.464 3.425 1.368l20.365 20.452c1.028 1.048 2.489 1.553 3.945 1.364 1.456-.19 2.739-1.051 3.465-2.328l36.395-63.17c1.06-1.83 3.216-2.723 5.26-2.177 2.044.547 3.467 2.396 3.472 4.511v82.498l-301.587.05z" opacity=".5" transform="translate(144.495 53.105)"/>
        </g>
        <g fill="#455A64" fill-rule="nonzero">
            <path d="M58.267 116.312C27.184 116.29 1.697 91.662.61 60.597-.478 29.532 23.223 3.182 54.229.984c31.005-2.197 58.186 20.547 61.49 51.454 3.351 31.698-19.587 60.128-51.277 63.553-2.051.21-4.112.318-6.175.321zm.136-106.827c-1.774-.003-3.547.091-5.31.284-26.359 2.852-45.654 26.174-43.519 52.6 2.135 26.427 24.924 46.348 51.398 44.932 26.475-1.416 47.008-23.655 46.312-50.158-.696-26.504-22.368-47.634-48.88-47.658z" transform="translate(80.275 291.46)"/>
            <path d="M143.853 169.677c-1.269 0-2.474-.555-3.298-1.52l-54.587-64.071c-1.08-1.164-1.435-2.825-.926-4.329.51-1.503 1.802-2.607 3.367-2.873 1.565-.267 3.15.345 4.13 1.595l54.599 64.072c1.093 1.282 1.34 3.083.635 4.613-.705 1.53-2.235 2.51-3.92 2.513z" transform="translate(80.275 291.46)"/>
        </g>
        <g fill-rule="nonzero">
            <path fill="#407BFF" d="M80.275 91.97c8.892 3.113 20.476.334 28.084-5.224 7.608-5.557 13.079-13.498 17.92-21.563 2.075-3.445 4.088-7.04 4.742-11.004.655-3.964-.309-8.422-3.384-11.003-4.767-4.026-12.09-1.989-17.512 1.111-17.196 10.008-28.36 27.843-29.85 47.683M89.784 113.25c5.336 7.039 14.5 10.176 23.33 10.583 8.83.408 17.549-2.037 25.799-5.199 2.988-1.148 6.261-2.73 7.299-5.767.641-2.384.053-4.931-1.569-6.793-1.636-1.802-3.676-3.19-5.953-4.05-8.258-3.292-17.368-3.787-25.934-1.409-8.547 2.211-16.055 7.163-22.934 12.635M80.114 53.895c7.41.149 12.919-6.298 16.253-12.856 4.622-9.175 6.16-19.596 4.384-29.714-.679-3.767-2.1-7.818-5.458-9.62-3.36-1.804-7.867-.63-10.733 1.988-2.865 2.618-4.446 6.348-5.582 10.053-3.952 12.782-3.1 27.466 1.136 40.15M55.946 94.589C68.493 73.248 70.58 47.128 63.17 23.502c-1.235-3.84-3.47-8.225-7.484-8.472-4.434-.284-7.212 4.668-8.447 8.941-4.298 15.006-3.384 30.875-2.47 46.51.593 9.596 3.89 17.797 11.115 24.108M42.904 103.37c-4.73-14.817-15.927-26.686-30.443-32.271-3.334-1.235-7.558-1.976-10.053.58-2.494 2.557-1.68 6.67-.123 9.794 2.47 5.039 6.632 9.09 10.72 12.98 3.705 3.532 7.57 7.089 12.275 9.139 4.706 2.05 13.326 2.581 17.624-.222" transform="translate(666.9 365.56)"/>
            <path fill="#263238" d="M120.672 48.523l-.222.198-.68.53-2.63 1.964-1.902 1.408c-.692.531-1.408 1.137-2.186 1.779-1.556 1.297-3.384 2.692-5.237 4.446l-2.951 2.692c-1.025.939-2.013 2-3.075 3.05-2.162 2.075-4.249 4.496-6.496 7.003-9.558 11.058-17.3 23.564-22.934 37.05-1.235 3.137-2.47 6.088-3.36 8.941-.456 1.42-.963 2.78-1.346 4.113l-1.087 3.853c-.74 2.47-1.173 4.705-1.642 6.67-.222.987-.445 1.901-.618 2.753l-.407 2.334c-.247 1.371-.432 2.47-.58 3.224l-.161.84-.074.284c-.02-.094-.02-.19 0-.285 0-.234 0-.506.11-.852.112-.79.273-1.877.47-3.248.111-.716.223-1.494.358-2.346.136-.852.359-1.779.569-2.779.432-1.976.84-4.248 1.556-6.706.333-1.235.691-2.47 1.05-3.866.358-1.395.876-2.704 1.333-4.137.877-2.877 2.087-5.854 3.31-9.003 5.606-13.577 13.38-26.152 23.02-37.235 2.273-2.47 4.385-4.94 6.57-6.99 1.075-1.05 2.063-2.1 3.1-3.038l3.001-2.668c1.865-1.741 3.705-3.125 5.299-4.397.802-.63 1.531-1.235 2.223-1.741l1.939-1.37 2.704-1.878.704-.482.272-.11z" transform="translate(666.9 365.56)"/>
            <path fill="#263238" d="M137.283 107.704c-.293-.022-.582-.072-.865-.148-.568-.099-1.37-.309-2.47-.494-2.999-.563-6.03-.935-9.077-1.111-20.431-1.242-40.29 7.022-53.81 22.39-2.024 2.283-3.897 4.697-5.606 7.225-.63.89-1.05 1.618-1.37 2.087-.153.246-.322.482-.507.704.106-.267.239-.524.395-.766.296-.494.692-1.235 1.235-2.149 1.646-2.602 3.483-5.079 5.496-7.41 13.46-15.662 33.544-24.023 54.142-22.538 3.062.21 6.105.647 9.102 1.309 1.062.21 1.865.47 2.47.605.298.068.588.167.865.296zM90.958 10.226v.333c0 .223-.124.556-.198.951-.197.89-.482 2.112-.827 3.705-.729 3.186-1.828 7.793-3.211 13.474-2.767 11.362-6.78 27.01-10.967 44.349-2.075 8.645-3.952 16.969-5.582 24.527s-2.952 14.388-3.952 20.143c-.544 2.877-.951 5.483-1.334 7.78-.383 2.297-.704 4.261-.939 5.879-.234 1.618-.444 2.828-.58 3.705 0 .395-.124.716-.16.963l-.075.334c-.019-.11-.019-.223 0-.334 0-.26 0-.58.111-.975.111-.902.26-2.15.47-3.705.21-1.556.469-3.607.827-5.904.358-2.297.741-4.94 1.235-7.793.963-5.767 2.285-12.609 3.841-20.18 1.556-7.57 3.458-15.87 5.545-24.551 4.187-17.352 8.262-32.975 11.115-44.312 1.42-5.644 2.581-10.213 3.396-13.424l.927-3.706c.11-.382.197-.703.259-.938.017-.111.05-.22.099-.321zM62.145 134.615c-.032-.084-.057-.17-.074-.26 0-.21-.111-.469-.173-.777-.148-.73-.358-1.717-.617-2.964-.531-2.582-1.235-6.336-2.038-10.98-1.618-9.287-3.52-22.23-4.693-36.53-.568-7.176-.89-14.03-1.025-20.267-.136-6.237 0-11.844.148-16.562 0-2.358.21-4.483.321-6.347.111-1.865.223-3.483.346-4.792.123-1.31.21-2.285.272-3.026 0-.321.074-.568.086-.79-.005-.087-.005-.173 0-.26v1.062c0 .741-.099 1.754-.173 3.026-.074 1.272-.185 2.927-.247 4.792-.061 1.865-.197 4.001-.222 6.348-.148 4.705-.148 10.312 0 16.536.148 6.225.506 13.067 1.074 20.23 1.235 14.326 3.001 27.17 4.508 36.506.754 4.656 1.396 8.41 1.853 11.004.21 1.235.383 2.26.506 3.001 0 .309.086.568.123.778.028.088.036.18.025.272z" transform="translate(666.9 365.56)"/>
            <path fill="#263238" d="M63.084 137.344c-.141-.232-.253-.481-.334-.74l-.827-2.137c-.173-.482-.37-1-.58-1.556-.21-.556-.52-1.161-.816-1.803l-.914-2.075c-.32-.741-.74-1.482-1.148-2.273l-1.235-2.47-1.531-2.618c-1-1.84-2.31-3.705-3.57-5.668-2.913-4.202-6.067-8.23-9.447-12.066-3.42-3.808-7.04-7.431-10.844-10.856-1.803-1.52-3.445-3.038-5.113-4.31l-2.383-1.902-2.285-1.655c-1.42-1.087-2.766-1.988-3.94-2.779-1.173-.79-2.186-1.482-3.038-1.988l-1.951-1.235c-.236-.13-.455-.288-.655-.47.25.102.49.226.717.371l2 1.136c.877.482 1.927 1.136 3.113 1.915 1.185.778 2.556 1.642 4.001 2.704l2.285 1.643 2.396 1.877c1.692 1.235 3.359 2.766 5.187 4.285 3.834 3.421 7.479 7.05 10.917 10.868 3.398 3.859 6.558 7.921 9.46 12.165 1.235 2.013 2.544 3.853 3.532 5.718l1.507 2.655 1.235 2.47c.383.803.79 1.557 1.1 2.298.308.74.617 1.444.888 2.099l.766 1.84c.198.568.37 1.087.544 1.569l.716 2.186c.1.261.183.53.247.802zM116.016 73.285c-1.317.146-2.64.225-3.964.235-6.363.343-12.651 1.535-18.698 3.544-2.322.778-3.705 1.334-3.767 1.235.285-.22.601-.394.938-.519.618-.296 1.544-.679 2.693-1.124 6.027-2.242 12.391-3.449 18.821-3.569 1.235 0 2.223 0 2.915.062.358-.005.716.04 1.062.136zM125.476 119.499c-2.593-5.755-7-10.5-12.548-13.511.907.24 1.77.624 2.557 1.136 3.934 2.262 7.09 5.664 9.052 9.756.45.818.767 1.702.939 2.619zM93.205 27.553c.124.136-2.186 2.47-4.705 5.52-2.52 3.05-4.31 5.817-4.458 5.73 1.03-2.217 2.378-4.272 4.001-6.1 1.469-1.952 3.207-3.686 5.162-5.15zM85.635 14.462c.945 3.259 1.517 6.615 1.704 10.003-.96-3.255-1.533-6.613-1.704-10.003zM62.17 55.575c-2.265 5.218-4.881 10.276-7.83 15.141 2.26-5.22 4.875-10.28 7.83-15.141zM48.165 41.595c2.243 3.63 4.149 7.458 5.693 11.436-1.211-1.758-2.253-3.627-3.112-5.582-1.038-1.868-1.902-3.828-2.581-5.854z" transform="translate(666.9 365.56)"/>
            <path fill="#263238" d="M27.676 89.278c0 .173-2.47-.309-5.631-.53-3.162-.223-5.644-.1-5.657-.273 1.865-.436 3.793-.54 5.694-.308 1.916.033 3.81.41 5.594 1.111zM41.694 131.441l6.977 36.717c.468 2.428 2.591 4.183 5.064 4.186h20.624c2.516.004 4.665-1.815 5.076-4.298l6.076-36.605H41.694z" transform="translate(666.9 365.56)"/>
            <path fill="#455A64" d="M43.966 143.371L83.412 143.371 85.511 131.441 41.694 131.441z" transform="translate(666.9 365.56)"/>
            <path fill="#FAFAFA" d="M43.966 143.371L44.793 147.731 82.807 147.731 83.412 143.371z" transform="translate(666.9 365.56)"/>
        </g>
        <g fill-rule="nonzero">
            <path fill="#4F4F4F" d="M189.622 390.495l.63 22.44s23.02 6.903 23.551 11.04l-43.496 2.78-2.347-34.939 21.662-1.321z" transform="translate(391.495 112.385)"/>
            <path fill="#E0E0E0" d="M176.68 411.91c-.85.323-1.322 1.23-1.1 2.111.289.86 1.2 1.344 2.075 1.1.903-.337 1.405-1.303 1.16-2.236-.393-.874-1.413-1.274-2.296-.901" transform="translate(391.495 112.385)"/>
            <path fill="#FFF" d="M170.306 426.754l-.098-3.532 41.73-1.334s1.989.717 1.865 2.088l-43.496 2.778z" opacity=".6" transform="translate(391.495 112.385)"/>
            <path fill="#263238" d="M190.943 412.675c0 .21-1.05.37-2.05 1.124-1 .753-1.506 1.68-1.704 1.606-.198-.075 0-1.322 1.235-2.199 1.235-.877 2.544-.716 2.52-.53zM195.624 414.268c.062.198-.84.618-1.507 1.569-.667.95-.802 1.902-1.012 1.914-.21.012-.433-1.235.42-2.346.852-1.112 2.074-1.334 2.099-1.137zM198.563 419.567c-.197 0-.555-.988-.086-2.186.47-1.198 1.432-1.73 1.531-1.556.099.172-.47.84-.84 1.827-.37.988-.333 1.877-.605 1.915zM190.19 407.55c-.074.198-1.062 0-2.26.123-1.198.124-2.112.593-2.235.42-.124-.173.728-.988 2.149-1.148 1.42-.16 2.482.457 2.346.605zM190.017 403.042c-.7.24-1.45.287-2.173.136-.794-.091-1.573-.278-2.322-.556-.444-.167-.877-.361-1.297-.58-.254-.124-.488-.286-.692-.482-.307-.29-.379-.754-.173-1.124.205-.306.535-.505.902-.543.277-.013.555.008.827.062.472.085.935.213 1.384.383.757.296 1.462.713 2.087 1.235 1.074.876 1.47 1.642 1.395 1.692-.074.049-.617-.556-1.704-1.235-.992-.645-2.113-1.067-3.285-1.235-.47-.087-.852-.062-.963.148-.111.21 0 .11.061.234.152.14.322.256.507.346.4.217.812.411 1.235.58.696.297 1.42.525 2.161.68.688.045 1.373.132 2.05.26z" transform="translate(391.495 112.385)"/>
            <path fill="#263238" d="M189.758 403.363c-.453-.592-.7-1.316-.704-2.062-.087-.805-.037-1.62.148-2.408.106-.465.264-.916.47-1.346.182-.622.688-1.095 1.32-1.236.395-.013.762.204.94.556.131.244.227.507.283.778.102.483.132.978.087 1.47-.067.822-.334 1.615-.778 2.31-.778 1.234-1.655 1.494-1.68 1.42-.024-.074.642-.556 1.235-1.68.339-.65.529-1.367.556-2.1.024-.415-.018-.832-.124-1.234-.086-.457-.284-.828-.457-.766-.172.062-.568.383-.716.766-.193.396-.35.81-.47 1.235-.198.715-.294 1.455-.283 2.198.012 1.346.296 2.062.173 2.1z" transform="translate(391.495 112.385)"/>
            <path fill="#4F4F4F" d="M97.565 389.507l-2.618 28.85-8.645 22.23c-.301.764-.27 1.62.086 2.36.356.741 1.005 1.3 1.791 1.542.916.291 1.917.116 2.68-.47 4.866-3.704 22.724-17.45 22.798-19.562.087-2.47 4.78-30.245 4.78-30.245l-20.872-4.705z" transform="translate(391.495 112.385)"/>
            <path fill="#FFF" d="M88.204 444.476l25.7-21.983-.148 1.235c-.114 1.053-.6 2.03-1.371 2.755-2.075 1.938-7.916 7.175-21.415 17.549-.787.606-1.826.778-2.766.457v-.012zM109.05 412.49c-.794.454-1.12 1.434-.753 2.272.424.816 1.414 1.154 2.248.766.842-.48 1.184-1.522.79-2.408-.54-.82-1.635-1.06-2.47-.544" opacity=".6" transform="translate(391.495 112.385)"/>
            <path fill="#263238" d="M96.219 432.658c-.173.061-.655-1.52-2.273-2.532-1.007-.533-2.104-.877-3.235-1.013 0-.074.37-.247 1.05-.272 1.83.012 3.49 1.08 4.26 2.742.309.667.309 1.062.198 1.075zM93.724 436.276c-.148.111-.963-.939-2.408-1.531-.908-.283-1.831-.51-2.767-.68.961-.459 2.085-.422 3.014.1 1.642.69 2.297 2.05 2.161 2.111zM100.59 428.15c-1.119-.956-2.307-1.827-3.556-2.606-1.343-.601-2.73-1.097-4.15-1.482 1.544-.238 3.122.087 4.446.914 1.43.638 2.585 1.763 3.26 3.174zM102.122 419.443c-.099.173-1.605-.68-3.705-.988-2.1-.309-3.705 0-3.804-.185 2.518-1.005 5.384-.555 7.472 1.173h.037zM103.11 410.996c-1.213-.54-2.492-.919-3.804-1.124-1.322-.006-2.64.169-3.915.518 0-.061.31-.395 1.013-.703.935-.381 1.946-.538 2.952-.457 1.01.076 1.99.394 2.853.926.642.407.95.79.901.84zM99.541 408.266c-.048-.368-.018-.742.086-1.099.228-.986.647-1.918 1.235-2.742.368-.654.947-1.164 1.643-1.445.481-.138.998.028 1.31.42.258.398.364.877.296 1.347-.361 1.98-2.076 3.425-4.088 3.445-1.972-.027-3.733-1.241-4.459-3.075-.179-.454-.152-.963.074-1.396.294-.41.807-.6 1.297-.481.693.245 1.307.672 1.779 1.235.712.713 1.29 1.55 1.704 2.47.186.321.3.68.333 1.05-.624-1.17-1.415-2.243-2.346-3.187-.44-.454-.982-.797-1.581-1-.263-.076-.546.023-.704.247-.13.295-.13.631 0 .926.674 1.564 2.2 2.588 3.903 2.618 1.696-.015 3.154-1.206 3.507-2.865.058-.327-.004-.664-.173-.95-.16-.23-.45-.33-.716-.248-.578.264-1.064.694-1.396 1.235-.769 1.056-1.346 2.24-1.704 3.495z" transform="translate(391.495 112.385)"/>
            <path fill="#263238" d="M91.032 183.422L89.315 408.353 120.944 410.378 127.6 222.473 165.515 409.316 194.266 406.29 163.687 183.385z" transform="translate(391.495 112.385)"/>
            <path fill="#B78876" d="M129.49.778c-5.127-.4-10.2 1.276-14.078 4.653-3.879 3.377-6.238 8.17-6.547 13.304-.543 8.892-1.025 18.525-.963 23.379.123 10.41 10.534 12.028 10.534 12.028s-.247 3.088-.543 6.916c-.278 3.692.949 7.34 3.4 10.114 2.45 2.774 5.92 4.44 9.617 4.62 3.635.168 7.187-1.117 9.874-3.57 2.687-2.453 4.289-5.874 4.452-9.509l1.89-41.99c.457-10.335-7.36-19.173-17.673-19.982l.037.037z" transform="translate(391.495 112.385)"/>
            <path fill="#AA6550" d="M118.424 53.994c4.81.092 9.54-1.25 13.585-3.853 0 0-3.21 7.496-13.585 6.558v-2.705z" transform="translate(391.495 112.385)"/>
            <path fill="#B78876" d="M146.2 24.33c.172-.075 7.15-2.112 6.928 5.014-.223 7.126-7.336 5.421-7.336 5.211 0-.21.407-10.226.407-10.226z" transform="translate(391.495 112.385)"/>
            <path fill="#AA6550" d="M148.052 31.925s.123.099.333.197c.297.12.63.12.927 0 .948-.568 1.522-1.599 1.506-2.704.034-.612-.067-1.223-.296-1.791-.12-.458-.457-.828-.902-.988-.292-.081-.6.053-.74.321-.1.198-.063.346-.1.346-.037 0-.148-.124-.086-.408.046-.177.15-.334.296-.444.203-.138.45-.195.692-.16.58.148 1.045.58 1.235 1.148.284.627.411 1.313.37 2 .028 1.299-.727 2.487-1.914 3.014-.389.099-.802.017-1.124-.223-.185-.123-.222-.296-.197-.308z" transform="translate(391.495 112.385)"/>
            <path fill="#263238" d="M111.508 25.355c-.014.807.626 1.474 1.433 1.494.38.03.758-.094 1.046-.345.288-.25.463-.607.485-.989.008-.806-.627-1.473-1.432-1.507-.383-.03-.762.096-1.051.35-.289.253-.462.613-.48.997zM111.545 22.44c.185.198 1.31-.642 2.915-.642s2.766.815 2.94.617c.172-.197-.1-.444-.606-.815-.694-.476-1.517-.73-2.359-.729-.834-.001-1.647.262-2.322.754-.494.37-.654.729-.568.815zM127.205 25.355c-.007.804.629 1.467 1.433 1.494.381.034.76-.089 1.05-.34.288-.252.462-.611.481-.994.014-.809-.624-1.48-1.433-1.507-.383-.03-.762.096-1.05.35-.289.253-.462.613-.481.997zM127.28 22.736c.172.198 1.308-.642 2.901-.63 1.593.013 2.78.803 2.952.606.173-.198-.099-.433-.618-.815-.692-.48-1.517-.73-2.358-.717-.83-.006-1.639.254-2.31.741-.494.383-.642.729-.568.815zM121.462 34.58c-.842-.26-1.713-.417-2.593-.47-.408 0-.803-.123-.865-.407-.04-.43.056-.861.272-1.235l1.235-3.112c1.121-2.636 2.03-5.358 2.717-8.139-1.338 2.539-2.465 5.182-3.372 7.904-.395 1.1-.79 2.137-1.148 3.137-.259.489-.337 1.053-.222 1.593.124.294.373.516.679.605.226.06.458.093.691.1.865.115 1.74.124 2.606.024zM126.18 35.716c-.26 0-.272 1.717-1.754 2.952-1.482 1.235-3.334 1.037-3.347 1.235-.012.197.408.333 1.235.358 1.02.012 2.012-.333 2.804-.976.752-.619 1.239-1.503 1.358-2.47.013-.679-.185-1.111-.296-1.099zM126.86 16.463c.16.444 1.753.234 3.63.456 1.877.223 3.396.741 3.643.346.111-.185-.148-.593-.765-1.012-1.654-1.053-3.701-1.28-5.545-.618-.618.284-1.026.63-.964.828zM112.138 17.809c.272.358 1.383 0 2.705 0 1.321 0 2.47.247 2.704-.136.111-.185-.061-.544-.555-.89-1.348-.84-3.068-.786-4.36.136-.47.371-.63.717-.494.89z" transform="translate(391.495 112.385)"/>
            <path fill="#263238" d="M146.965 24.008c.099 1.144.037 2.295-.185 3.421-.187 1.093-.853 2.044-1.816 2.594-1.79.89-4.026-.47-4.829-2.31-.627-1.907-.763-3.942-.395-5.915.342-2.705.3-5.445-.123-8.139-.437-2.72-1.825-5.196-3.915-6.99-2.146-1.78-5.11-2.205-7.67-1.1-1.41.913-2.763 1.91-4.05 2.99-1.25.877-2.782 1.26-4.298 1.074-1.534-.207-2.815-1.271-3.298-2.742-.337-1.685.339-3.412 1.73-4.421 1.342-.97 2.903-1.593 4.544-1.815 4.512-.937 9.198-.573 13.511 1.05 4.34 1.63 7.862 4.905 9.806 9.114 2.062 4.94 1.803 7.854 1.235 13.14" transform="translate(391.495 112.385)"/>
            <path fill="#B78876" d="M1.976 78.534l15.19 3.062L38.05 94.897l-7.126 13.585s-7.335-2.05-9.484-3.94c-1.267-1.132-2.839-1.867-4.52-2.111 0 0 .148 3.36-2.396 2.779-2.544-.58-6.78-1.31-6.064-4.879-1.239-.455-1.983-1.722-1.779-3.025 0 0-2.1-.149-1.531-3.631.568-3.483 3.075-7.954 10.003-6.694.359.074.828-.617.21-.852l-10.707-2.47s-6.706-2.73-2.68-5.125z" transform="translate(391.495 112.385)"/>
            <path fill="#AA6550" d="M9.472 93.49c.87.099 1.726.306 2.545.617.928.25 1.84.56 2.729.926.593.273 1.042.785 1.235 1.408.155.722-.13 1.468-.729 1.902-1.071.65-2.366.82-3.569.47-.945-.133-1.881-.323-2.803-.569-.88-.168-1.718-.503-2.47-.988.858.126 1.708.308 2.544.544.778.16 1.716.308 2.766.432.531.08 1.068.117 1.606.111.535-.014 1.055-.186 1.494-.494.4-.274.603-.757.519-1.235-.148-.453-.474-.827-.902-1.037-.877-.433-1.852-.704-2.593-1.013-.832-.258-1.629-.619-2.372-1.074z" transform="translate(391.495 112.385)"/>
            <path fill="#AA6550" d="M13.177 91.526c0 .185-.926.21-1.815.79-.89.58-1.31 1.359-1.482 1.297-.173-.062 0-1.149 1.149-1.84 1.148-.692 2.21-.383 2.148-.247zM14.82 98.183s.16 0 .346.21c.185.21.284.654.333 1.025.132.654-.089 1.33-.582 1.78-.493.45-1.186.609-1.826.418-1.123-.134-2.234-.357-3.322-.667-.84-.272-1.31-.568-1.235-.642.074-.074.556 0 1.383.197.828.198 2 .284 3.297.482.508.138 1.05.013 1.445-.334.3-.338.451-.783.42-1.234.046-.315.02-.636-.074-.94-.185-.147-.26-.258-.185-.295z" transform="translate(391.495 112.385)"/>
            <path fill="#AA6550" d="M14.672 100.974c0-.075.271-.21.74-.075.562.202 1.04.584 1.36 1.087.337.532.397 1.195.16 1.779-.148.42-.334.63-.408.593-.074-.038-.061-.297 0-.68.07-.455-.017-.921-.247-1.321-.266-.41-.61-.762-1.012-1.038-.346-.197-.593-.247-.593-.345z" transform="translate(391.495 112.385)"/>
            <path fill="#B78876" d="M26.343 93.119l-7.336-.296-7.694 1.494s-.63 1.396 2.927 2.359c2.243.568 4.579.677 6.866.32 0 0 3.174 4.632 7.299 5.694" transform="translate(391.495 112.385)"/>
            <path fill="#AA6550" d="M28.405 102.69c-.232-.004-.461-.045-.68-.123-.622-.189-1.223-.446-1.79-.766-1.99-1.181-3.715-2.762-5.063-4.644l.284.112c-2.832.496-5.745.223-8.435-.79-.459-.172-.878-.432-1.236-.766-.45-.365-.64-.962-.481-1.52v-.148h.173l7.706-1.445c2.236.111 4.063.235 5.335.334.669.006 1.335.08 1.989.222-.665.073-1.336.073-2.001 0-1.235 0-3.112 0-5.348-.099h.062l-7.682 1.556.235-.173c-.036.31.096.616.346.803.304.269.65.486 1.025.642 2.575.953 5.35 1.233 8.065.816h.185l.11.148c1.283 1.844 2.9 3.432 4.768 4.68.788.434 1.6.822 2.433 1.161zM17.401 88.834c-.099.135-.803-.173-1.334-.94-.53-.765-.605-1.518-.432-1.555.173-.037.494.543.951 1.235.457.691.914 1.111.815 1.26z" transform="translate(391.495 112.385)"/>
            <path fill="#F5F5F5" d="M97.85 185.151c12.608 5.447 27.367 7.064 44.014 5.31l12.19-124.19-8.645-6.645-19.92 14.82-6.83-14.264-15.993 22.97-4.817 102z" transform="translate(391.495 112.385)"/>
            <path fill="#263238" d="M118.782 191.141c-.03-.096-.051-.196-.061-.296 0-.235-.087-.52-.136-.877-.124-.828-.284-1.964-.482-3.384s-.21-3.298-.346-5.397c-.136-2.1-.099-4.508-.16-7.15-.074-10.61.63-25.244 1.815-41.373 1.186-16.13 2.643-30.702 3.816-41.225.593-5.273 1.124-9.521 1.532-12.46.185-1.47.37-2.607.506-3.372.062-.358.111-.642.148-.877.01-.102.035-.202.074-.297.02.103.02.207 0 .31 0 .234 0 .53-.086.876-.099.828-.222 1.964-.383 3.396-.321 3.001-.766 7.25-1.321 12.474-1.063 10.534-2.47 25.107-3.631 41.224-1.161 16.117-1.964 30.74-2.001 41.323 0 2.643 0 5.039.062 7.138.061 2.1.173 3.89.247 5.385.074 1.494.26 2.557.346 3.384l.074.89c.012.102.007.206-.013.308z" transform="translate(391.495 112.385)"/>
            <path fill="#407BFF" d="M135.554 209.431s-9.288-97.083-3.52-107.926c4.458-8.386 11.35-25.935 14.24-33.42.864-2.236.802-4.725-.173-6.915l-.692-1.544 8.645 6.644 17.76 9.534-10.72 82.276 12.127 41.718-37.667 9.633z" transform="translate(391.495 112.385)"/>
            <path fill="#000" d="M133.17 181.323c7.546-1.569 4.286 2.815 11.918 1.704 4.112-.605 4.322-3.013 7.719-5.434 3.715-2.652 8.122-4.163 12.683-4.347l-1.692-5.817-31.567 1.235.94 12.659z" opacity=".3" transform="translate(391.495 112.385)"/>
            <path fill="#407BFF" d="M89.673 80.497l3.076 77.583-6.175 43.41 15.548 5.743 6.805-119.943c.077-4.462 1.073-8.86 2.927-12.918l6.088-13.289-20.624 7.027-7.645 12.387zM171.813 75.804s9.732 8.435 11.918 19.76c1.605 8.262 6.298 37.248 7.608 52.13.832 9.236-5.656 17.529-14.82 18.945h-.42c-14.129 1.926-37.828-.73-37.828-.73l4.137-18.042s20.995-3.026 24.7-5.558l-4.94-33.444s4.038-32.097 9.645-33.06z" transform="translate(391.495 112.385)"/>
            <path fill="#407BFF" d="M39.421 92.304l34.32 21.748s12.35-36.333 20.317-44.88l9.558-3.248-8.719 69.704c-.657 3.941-2.95 7.422-6.31 9.583-5.142 3.32-11.835 2.957-16.587-.901l-41.99-34.062 9.411-17.944z" transform="translate(391.495 112.385)"/>
            <path fill="#263238" d="M173.37 153.659c-.119-.67-.189-1.346-.21-2.026-.42-3.224-2.092-6.152-4.657-8.15-.975-.754-1.68-1.112-1.63-1.236.69.128 1.342.416 1.902.84 2.86 1.908 4.653 5.052 4.841 8.485.09.705.006 1.422-.247 2.087z" transform="translate(391.495 112.385)"/>
            <path fill="#263238" d="M169.689 156.042c.305-2.421.276-4.873-.086-7.286-.58-2.376-1.491-4.658-2.705-6.78.575.468 1.05 1.048 1.395 1.704 1.884 3.068 2.607 6.708 2.038 10.263-.06.738-.28 1.454-.642 2.1zM169.417 79.2c-1.351 1.113-2.592 2.354-3.705 3.706-2.54 3.426-4.122 7.467-4.582 11.707-.419 4.277-.282 8.59.408 12.832.235 1.52.42 2.816.58 3.853.109.47.158.951.149 1.433-.185-.445-.317-.909-.396-1.383-.21-.902-.494-2.199-.778-3.829-.85-4.247-1.066-8.596-.642-12.906.455-4.354 2.143-8.49 4.866-11.917.833-1.019 1.791-1.928 2.853-2.705.378-.318.798-.584 1.247-.79z" transform="translate(391.495 112.385)"/>
            <path fill="#000" d="M167.367 142.025c1.562 1.975 2.43 4.41 2.47 6.928.028 2.524-.39 5.032-1.235 7.41-.197.427-.197.92 0 1.346.205.214.488.335.784.335.296 0 .58-.12.785-.335.399-.439.664-.983.765-1.568-.296.333.136.902.58.865.445-.085.825-.373 1.026-.779 1.269-2.26 1.379-4.992.296-7.348-1.093-2.312-2.6-4.404-4.446-6.175" opacity=".3" transform="translate(391.495 112.385)"/>
            <path fill="#263238" d="M80.744 127.637c-1.7-1.946-3.114-4.125-4.199-6.471-1.262-2.262-2.202-4.69-2.79-7.213.184-.061 1.432 3.15 3.37 6.916 1.94 3.767 3.78 6.67 3.62 6.768zM75.94 130.255c-.404-.725-.695-1.508-.864-2.321-1.109-3.82-1.829-7.743-2.15-11.708-.121-.819-.121-1.651 0-2.47.186 0 .594 3.705 1.433 8.274.84 4.57 1.754 8.176 1.581 8.225zM92.749 90.254c.172 0 .32 15.178.32 33.9 0 18.723-.148 33.926-.32 33.926-.173 0-.322-15.178-.322-33.9 0-18.723.198-33.926.322-33.926zM113.62 62.503c-.122.214-.263.416-.42.605l-1.235 1.68c-1.494 2.075-2.88 4.227-4.15 6.447-1.966 3.26-3.451 6.788-4.408 10.473-.383 2.062-.63 4.371-.976 6.718-1.025 2.47 1.408 4.075 3.396 5.422l.494.333-.556.235c-.717.33-1.393.745-2.013 1.235-.876.679-1.729 1.42-2.47 2.124l.112-.26c.382 4.94 1.234 9.547 1.778 13.746.543 4.2 1.124 7.929 1.568 11.115.445 3.186.754 5.607 1 7.41.087.815.174 1.482.235 2.013.033.234.033.47 0 .704-.073-.225-.127-.457-.16-.691-.087-.52-.21-1.235-.358-2.001-.284-1.816-.692-4.323-1.235-7.41-.544-3.088-1.062-6.916-1.705-11.115-.642-4.2-1.457-8.793-1.852-13.77v-.16l.111-.1c.79-.728 1.643-1.457 2.556-2.173.663-.542 1.389-1.003 2.162-1.371v.568c-1.097-.66-2.095-1.47-2.964-2.408-.463-.49-.772-1.103-.89-1.766-.024-.177-.024-.355 0-.531l.062-.445.124-.89c.358-2.346.605-4.569 1.025-6.755.49-2.013 1.185-3.97 2.075-5.841.739-1.62 1.563-3.198 2.47-4.73 1.309-2.214 2.757-4.342 4.334-6.373.556-.716 1.013-1.235 1.334-1.618.168-.161.355-.302.556-.42zM151.707 64.776c.089.16.147.337.173.518.129.505.232 1.017.31 1.532.249 1.902.249 3.828 0 5.73-.39 2.809-1.009 5.58-1.853 8.287-.922 3.346-2.098 6.616-3.52 9.781-1.346 3.038-2.779 5.867-4.1 8.46l-.062.136h-.148l-2.977.593.16-.457 1.927 2.285.124.148-.099.148-4.322 6.928c-.482.766-.89 1.383-1.235 1.902-.135.233-.296.448-.482.642.083-.257.199-.502.346-.728l1.111-1.964 4.113-7.052v.309l-1.951-2.248-.322-.37.482-.099 2.964-.63-.197.16c1.234-2.605 2.704-5.433 4.038-8.447 1.412-3.138 2.597-6.374 3.544-9.682.856-2.674 1.516-5.406 1.976-8.176.28-1.867.354-3.76.223-5.644-.111-1.321-.284-2.038-.223-2.062z" transform="translate(391.495 112.385)"/>
            <path fill="#000" d="M79.275 127.082c-1.544-4.385-3.705-8.794-5.533-13.03l-1.556-.988c-1.127 3.954-.919 8.169.593 11.992.123.358.296.741.642.852.236.047.482-.006.678-.147.196-.14.326-.355.36-.594.047-.484-.043-.972-.26-1.408 1.011 1.803 2.172 3.517 3.47 5.126.175.271.436.476.741.58.537.045 1.017-.332 1.1-.864.05-.518-.03-1.041-.235-1.52zM105.21 130.774c-2.952-8.373-5.94-16.833-7.114-25.65-.348-1.935-.319-3.919.086-5.842.446-1.96 1.834-3.57 3.705-4.298-1.037-1.222-1.037-3.015 0-4.236 1.235 1.235 2.409 2.569 3.619 3.84-1.922.163-3.529 1.527-4.001 3.397-.396 1.835-.396 3.734 0 5.57l3.705 27.528M144.63 101.369c1.787-6.274 3.582-12.552 5.385-18.834-1.506 3.606-3.017 7.208-4.532 10.806-.55 1.543-1.347 2.986-2.359 4.273-1.053 1.292-2.673 1.985-4.335 1.853l2.816 1.914c-2.013 3.248-4.001 6.805-6.014 10.053l4.335.358 4.754-7.546c-.481-.864-.975-1.729-1.457-2.606l1.408-.271z" opacity=".3" transform="translate(391.495 112.385)"/>
            <path fill="#F5F5F5" d="M117.893 61.058L118.128 58.045 123.71 65.924 125.488 74.433 130.058 65.924 145.792 56.773 145.792 64.776 142.778 72.556 136.924 77.089 130.206 80.028 122.216 78.534 117.387 75.804 116.312 70.16z" transform="translate(391.495 112.385)"/>
            <path fill="#263238" d="M123.315 65.813c.086 0-.334 1.087-.815 2.865-.676 2.31-.988 4.71-.927 7.114v1.235l-.642-1.013-.395-.63c-1.202-2.315-2.238-4.713-3.1-7.175-.753-1.828-1.408-2.865-1.334-2.927.743.8 1.333 1.73 1.742 2.742.914 1.79 1.729 4.458 3.248 7.027.123.21.26.407.37.605l-.58.198c-.068-2.475.322-4.94 1.148-7.274.276-.986.71-1.92 1.285-2.767zM145.792 61.985v.32c.012.312-.017.624-.087.927-.315 1.115-.89 2.14-1.68 2.989-1.137 1.249-2.432 2.345-3.852 3.26-1.712 1.106-3.361 2.306-4.94 3.594-1.414 1.175-2.895 2.268-4.434 3.273l-.58.358.123-.667c.19-1.337.236-2.691.136-4.038-.074-1.236-.173-2.31-.26-3.212-.14-.949-.223-1.905-.247-2.865.31.912.513 1.857.606 2.816.148.902.296 1.976.407 3.223.166 1.391.166 2.796 0 4.187l-.457-.309c1.396-.901 2.84-2.062 4.36-3.26 1.564-1.308 3.214-2.508 4.94-3.594 1.395-.873 2.683-1.905 3.84-3.075.775-.78 1.377-1.714 1.767-2.742.296-.74.296-1.185.358-1.185zM164.823 167.38c-.166.038-.336.06-.506.061l-1.458.087c-1.235.074-3.149.136-5.508.173-2.358.037-5.224.061-8.46 0-1.617 0-3.346 0-5.15-.112l-2.766-.11-1.432-.1-.729-.074-.383-.061H138.098c-.118-.058-.207-.16-.247-.284v-.112c1.074-4.94 2.26-10.225 3.495-15.82.234-1.062.47-2.1.704-3.124v-.223h.222c9.658-1.42 18.463-2.865 24.7-5.47l-.148.259c-.593-4.323-1.087-7.843-1.445-10.374-.148-1.174-.26-2.125-.358-2.829-.058-.33-.083-.665-.074-1 .103.318.177.644.222.976.115.7.276 1.638.482 2.816.395 2.47.963 6.039 1.654 10.337v.185l-.172.074c-6.287 2.717-15.117 4.224-24.775 5.656l.26-.247c-.222 1.025-.457 2.075-.692 3.125-1.235 5.594-2.47 10.942-3.544 15.808l-.272-.062c7.731.346 14.474.494 19.167.494h6.978c.395-.087.568-.074.568-.05z" transform="translate(391.495 112.385)"/>
            <path fill="#455A64" d="M168.787 119.202L158.105 145.113 142.371 147.904 138.147 166.849 148.546 167.454 148.459 168.145 107.692 169.306 124.945 119.202z" transform="translate(391.495 112.385)"/>
            <path fill="#455A64" d="M119.19 110.607L124.945 119.202 107.692 169.306 102.073 159.698z" transform="translate(391.495 112.385)"/>
            <path fill="#EBEBEB" d="M168.787 119.202L162.489 113.077 119.19 110.607 124.945 119.202z" transform="translate(391.495 112.385)"/>
            <path fill="#263238" d="M124.945 119.202c.16 0-3.557 11.313-8.324 25.157-4.767 13.844-8.768 25.009-8.929 24.947-.16-.062 3.557-11.325 8.324-25.157 4.767-13.832 8.719-25.009 8.929-24.947z" transform="translate(391.495 112.385)"/>
            <path fill="#B78876" d="M141.79 149.336l-7.471-.642c-1.37-2.317-2.976-4.485-4.792-6.471-1.902-1.68-11.733-6.373-11.733-6.373-.821 1.002-.821 2.444 0 3.446 1.684 1.251 3.455 2.382 5.298 3.384.253.892.029 1.852-.594 2.54-.622.687-1.555 1.006-2.468.843-2.878-.53-6.175-1.136-6.67-1.136-.493 0-3.359-2.717-5.47-4.767-.555-.574-1.424-.709-2.126-.329-.702.38-1.065 1.181-.888 1.96.042.163.127.313.247.432 0 0-3.026-.112-.32 3.964 0 0-.63 3.705 1.592 5.483 0 0 .951 4.545 2.384 6.114 1.432 1.568 15.35 4.544 15.35 4.544l14.512 1.408 3.15-14.4z" transform="translate(391.495 112.385)"/>
            <path fill="#AA6550" d="M118.782 150.374c-.816.136-1.648.157-2.47.061-2.045-.045-4.051-.574-5.854-1.543-1.711-1.125-3.113-2.663-4.075-4.471-.469-.694-.827-1.456-1.062-2.26.553.617 1.037 1.292 1.445 2.013 1.024 1.663 2.398 3.083 4.026 4.162 1.728.915 3.622 1.473 5.57 1.642.819.043 1.63.176 2.42.396zM117.325 153.597c-.73.25-1.511.314-2.272.185-.831-.06-1.657-.18-2.47-.358-1.028-.197-2.006-.596-2.878-1.173-.795-.647-1.512-1.385-2.136-2.198l-1.495-1.853c-.499-.56-.915-1.187-1.235-1.865.614.444 1.163.972 1.63 1.569.482.506 1.038 1.123 1.643 1.815.619.757 1.314 1.448 2.075 2.063.797.527 1.685.903 2.618 1.111.78.207 1.572.367 2.371.482 1.31.16 2.149.136 2.149.222zM115.398 157.19c0 .26-2.544-.27-5.483-1.086-.407-.126-.776-.35-1.074-.655-.267-.243-.519-.503-.754-.778-.403-.45-.767-.933-1.087-1.445-.53-.889-.679-1.53-.605-1.556.074-.024.37.507.988 1.297.354.457.733.894 1.136 1.31.231.242.475.473.73.69.227.237.512.412.827.507 1.506.408 2.815.828 3.779 1.136.536.13 1.055.325 1.543.58z" transform="translate(391.495 112.385)"/>
        </g>
    </g>
</svg>
