<svg xmlns="http://www.w3.org/2000/svg" width="869" height="681" viewBox="0 0 869 681">
    <defs>
        <linearGradient id="prefix__a" x1="113.693%" x2="25.65%" y1="36.753%" y2="64.513%">
            <stop offset="0%" stop-color="#0D42BF"/>
            <stop offset="100%" stop-color="#08CBEC"/>
        </linearGradient>
        <linearGradient id="prefix__b" x1="-.046%" x2="100%" y1="50.025%" y2="50.025%">
            <stop offset="0%" stop-color="#22DDEC"/>
            <stop offset="100%" stop-color="#0D5FCF"/>
        </linearGradient>
        <linearGradient id="prefix__c" x1="-22.87%" x2="69.34%" y1="45.235%" y2="51.221%">
            <stop offset="0%" stop-color="#B9FFFF"/>
            <stop offset="100%" stop-color="#06AAEE"/>
        </linearGradient>
        <linearGradient id="prefix__d" x1="-.046%" x2="100%" y1="50.017%" y2="50.017%">
            <stop offset="0%" stop-color="#22DDEC"/>
            <stop offset="100%" stop-color="#0D5FCF"/>
        </linearGradient>
        <linearGradient id="prefix__e" x1="-22.87%" x2="69.34%" y1="45.278%" y2="51.21%">
            <stop offset="0%" stop-color="#B9FFFF"/>
            <stop offset="100%" stop-color="#06AAEE"/>
        </linearGradient>
        <linearGradient id="prefix__f" x1="-.046%" x2="100%" y1="49.961%" y2="49.961%">
            <stop offset="0%" stop-color="#22DDEC"/>
            <stop offset="100%" stop-color="#0D5FCF"/>
        </linearGradient>
        <linearGradient id="prefix__g" x1="-22.87%" x2="69.34%" y1="45.257%" y2="51.215%">
            <stop offset="0%" stop-color="#B9FFFF"/>
            <stop offset="100%" stop-color="#06AAEE"/>
        </linearGradient>
        <linearGradient id="prefix__h" x1="49.947%" x2="49.947%" y1="142.127%" y2="17.719%">
            <stop offset="0%" stop-color="#24B4C6"/>
            <stop offset="12%" stop-color="#45BFCF" stop-opacity=".85"/>
            <stop offset="43%" stop-color="#94DAE3" stop-opacity=".49"/>
            <stop offset="69%" stop-color="#CEEEF2" stop-opacity=".22"/>
            <stop offset="89%" stop-color="#F2FAFC" stop-opacity=".06"/>
            <stop offset="100%" stop-color="#FFF" stop-opacity="0"/>
        </linearGradient>
        <linearGradient id="prefix__i" x1="75.094%" x2="36.312%" y1="111.173%" y2="16.434%">
            <stop offset="0%" stop-color="#4A4A4A"/>
            <stop offset="100%" stop-color="#545454"/>
        </linearGradient>
        <linearGradient id="prefix__j" x1="44.868%" x2="56.537%" y1="-11.408%" y2="128.167%">
            <stop offset="0%" stop-color="#22DDEC"/>
            <stop offset="100%" stop-color="#0D5FCF"/>
        </linearGradient>
        <linearGradient id="prefix__k" x1="47.092%" x2="52.704%" y1="-12.5%" y2="108.13%">
            <stop offset="0%" stop-color="#22DDEC"/>
            <stop offset="100%" stop-color="#0D5FCF"/>
        </linearGradient>
        <linearGradient id="prefix__l" x1="41.814%" x2="58.706%" y1="-51.849%" y2="158.322%">
            <stop offset="0%" stop-color="#22DDEC"/>
            <stop offset="100%" stop-color="#0D5FCF"/>
        </linearGradient>
        <linearGradient id="prefix__m" x1="44.863%" x2="55.146%" y1="-26.36%" y2="126.493%">
            <stop offset="0%" stop-color="#22DDEC"/>
            <stop offset="100%" stop-color="#0D5FCF"/>
        </linearGradient>
        <linearGradient id="prefix__n" x1="51.46%" x2="49.012%" y1=".043%" y2="83.66%">
            <stop offset="0%" stop-color="#AAE4FF"/>
            <stop offset="100%" stop-color="#0D9DE7"/>
        </linearGradient>
        <linearGradient id="prefix__o" x1="49.597%" x2="50.232%" y1="2.399%" y2="77.075%">
            <stop offset="0%" stop-color="#AAE4FF"/>
            <stop offset="100%" stop-color="#0D9DE7"/>
        </linearGradient>
        <linearGradient id="prefix__p" x1="50.019%" x2="49.981%" y1="8.399%" y2="88.34%">
            <stop offset="0%" stop-color="#AAE4FF"/>
            <stop offset="100%" stop-color="#0D9DE7"/>
        </linearGradient>
        <linearGradient id="prefix__q" x1="51.132%" x2="49.168%" y1="-2.816%" y2="89.549%">
            <stop offset="0%" stop-color="#AAE4FF"/>
            <stop offset="100%" stop-color="#0D9DE7"/>
        </linearGradient>
        <linearGradient id="prefix__r" x1="12.122%" x2="84.693%" y1="50.017%" y2="50.017%">
            <stop offset="0%" stop-color="#22DDEC"/>
            <stop offset="100%" stop-color="#0D5FCF"/>
        </linearGradient>
        <linearGradient id="prefix__s" x1="-22.87%" x2="69.34%" y1="45.262%" y2="51.214%">
            <stop offset="0%" stop-color="#B9FFFF"/>
            <stop offset="100%" stop-color="#06AAEE"/>
        </linearGradient>
        <linearGradient id="prefix__t" x1="0%" x2="100%" y1="50%" y2="50%">
            <stop offset="0%" stop-color="#22DDEC"/>
            <stop offset="100%" stop-color="#0D5FCF"/>
        </linearGradient>
        <linearGradient id="prefix__u" x1="-22.87%" x2="69.34%" y1="45.239%" y2="51.22%">
            <stop offset="0%" stop-color="#B9FFFF"/>
            <stop offset="100%" stop-color="#06AAEE"/>
        </linearGradient>
        <linearGradient id="prefix__v" x1="50%" x2="50%" y1="115.243%" y2="10.073%">
            <stop offset="0%" stop-color="#24B4C6"/>
            <stop offset="24%" stop-color="#61C9D6" stop-opacity=".72"/>
            <stop offset="61%" stop-color="#B5E6EC" stop-opacity=".34"/>
            <stop offset="87%" stop-color="#EBF8FA" stop-opacity=".09"/>
            <stop offset="100%" stop-color="#FFF" stop-opacity="0"/>
        </linearGradient>
        <linearGradient id="prefix__w" x1="0%" x2="100%" y1="50.017%" y2="50.017%">
            <stop offset="0%" stop-color="#22DDEC"/>
            <stop offset="100%" stop-color="#0D5FCF"/>
        </linearGradient>
        <linearGradient id="prefix__x" x1="0%" x2="100%" y1="49.985%" y2="49.985%">
            <stop offset="0%" stop-color="#22DDEC"/>
            <stop offset="100%" stop-color="#0D5FCF"/>
        </linearGradient>
        <linearGradient id="prefix__y" x1="-22.87%" x2="69.34%" y1="45.249%" y2="51.217%">
            <stop offset="0%" stop-color="#B9FFFF"/>
            <stop offset="100%" stop-color="#06AAEE"/>
        </linearGradient>
        <linearGradient id="prefix__z" x1="-22.87%" x2="69.34%" y1="45.261%" y2="51.214%">
            <stop offset="0%" stop-color="#B9FFFF"/>
            <stop offset="100%" stop-color="#06AAEE"/>
        </linearGradient>
        <linearGradient id="prefix__A" x1="50%" x2="50%" y1="97.977%" y2="15.745%">
            <stop offset="0%" stop-color="#24B4C6"/>
            <stop offset="24%" stop-color="#61C9D6" stop-opacity=".72"/>
            <stop offset="61%" stop-color="#B5E6EC" stop-opacity=".34"/>
            <stop offset="87%" stop-color="#EBF8FA" stop-opacity=".09"/>
            <stop offset="100%" stop-color="#FFF" stop-opacity="0"/>
        </linearGradient>
    </defs>
    <g fill="none" fill-rule="evenodd">
        <path fill="url(#prefix__a)" fill-rule="nonzero" d="M868.44 118.468v461.01c-58.35 61.753-344.76 123.712-351 92.092-12-59.19-467.61 4.98-373.5-183.78 21.9-44.16-93.75-96.18-118.53-122.79-74.01-79.2 25.11-165 149.64-211.62C305.49 104.6 306.3 18.069 415.8 3c192.92-13.145 343.8 25.344 452.64 115.468z" opacity=".07"/>
        <g>
            <path fill="#C2DEFF" fill-rule="nonzero" d="M508.4 454.84l-114.3 66.42c-7.443 4.22-16.557 4.22-24 0l-65.58-37.23c.917-.275 1.794-.668 2.61-1.17l64.11 36.33c6.694 3.858 14.936 3.858 21.63 0l112.62-65.46c.923.484 1.9.857 2.91 1.11zM536.69 396.64c-1.036.165-2.045.468-3 .9l-161.82-92.25c.934-.241 1.824-.626 2.64-1.14l162.18 92.49zM449.75 208.99c-.01 2.814-1.534 5.405-3.99 6.78-11.28 6.42-25.14 14.25-34.68 19.62-.892-.474-1.84-.837-2.82-1.08l36.36-20.55c1.726-.982 2.79-2.815 2.79-4.8.015-1.973-1.042-3.8-2.76-4.77l-47.1-27.36c.906-.306 1.772-.719 2.58-1.23l45.69 26.55c2.442 1.41 3.942 4.02 3.93 6.84zM86.69 378.49c-.656.317-1.28.699-1.86 1.14l-.3.33-80.58-46.8c-2.08-1.192-3.365-3.407-3.365-5.805 0-2.398 1.284-4.613 3.365-5.805l17.7-10.05c.953.485 1.96.858 3 1.11L5.24 323.59c-1.375.741-2.22 2.189-2.19 3.75-.031 1.57.797 3.03 2.16 3.81l81.48 47.34zM749.87 243.28c.013 2.35-1.235 4.525-3.27 5.7l-89.61 52.56c-.195.062-.405.062-.6 0-.408.001-.786-.216-.99-.57-.163-.27-.21-.594-.131-.898.08-.305.278-.565.551-.722L745.43 247c1.306-.756 2.11-2.151 2.11-3.66 0-1.509-.804-2.904-2.11-3.66l-73.44-41.7c.958-.268 1.883-.64 2.76-1.11l71.79 40.71c2.072 1.145 3.35 3.333 3.33 5.7zM543.14 333.01c-.206.37-.596.6-1.02.6-.2 0-.396-.05-.57-.15l-93.45-51.84c-1.793-1.088-2.888-3.033-2.888-5.13s1.095-4.042 2.888-5.13L560 205.69c.951.476 1.96.83 3 1.05l-113.61 66.63c-1.118.634-1.808 1.82-1.808 3.105s.69 2.47 1.808 3.105l93.42 51.87c.516.344.662 1.037.33 1.56zM550.58 124c-.949.253-1.865.615-2.73 1.08L463.58 77.2c-6.272-3.524-13.94-3.467-20.16.15l-17.19 10.11c-.787-.51-1.633-.923-2.52-1.23l18.54-10.86c6.918-4.076 15.487-4.145 22.47-.18L550.58 124zM269 179.08l-101.76 59.19c-.826-.501-1.714-.895-2.64-1.17l102-59.28c.732.539 1.541.964 2.4 1.26zM292.25 350.14c.034 3.25-1.686 6.265-4.5 7.89l-29.52 17.13c-.88-.462-1.819-.805-2.79-1.02l31.11-18c2.14-1.227 3.432-3.533 3.36-6 .009-2.411-1.304-4.634-3.42-5.79l-31.05-17.61c-1.952-1.133-3.153-3.218-3.153-5.475 0-2.257 1.201-4.342 3.153-5.475l8.55-4.95c.867.482 1.796.846 2.76 1.08l-10.11 6c-1.245.702-2.016 2.02-2.016 3.45 0 1.43.77 2.748 2.016 3.45l31.05 17.64c2.773 1.572 4.507 4.493 4.56 7.68z" transform="translate(109 70)"/>
            <path fill="#C2DEFF" fill-rule="nonzero" d="M309.53 479.56c-.136 1.468-1.02 2.762-2.34 3.42-.816.502-1.693.895-2.61 1.17-1.69.527-3.45.79-5.22.78-5.61 0-10.14-2.4-10.14-5.37s4.53-5.37 10.14-5.37 10.17 2.4 10.17 5.37zM103.55 382.54c0 3-4.53 5.34-10.14 5.34s-10.17-2.4-10.17-5.34c.052-1.002.52-1.937 1.29-2.58l.3-.33c.58-.441 1.204-.823 1.86-1.14l.48-.21c1.987-.774 4.107-1.151 6.24-1.11 5.61 0 10.14 2.37 10.14 5.37zM377 300.64c-.17 1.53-1.125 2.86-2.52 3.51-.816.514-1.706.899-2.64 1.14-1.616.483-3.294.726-4.98.72-5.64 0-10.2-2.43-10.2-5.37s4.56-5.34 10.2-5.34 10.14 2.37 10.14 5.34zM261.17 379c0 3-4.56 5.34-10.2 5.34s-10.14-2.4-10.14-5.34 4.53-5.37 10.14-5.37c1.51-.022 3.014.17 4.47.57.971.215 1.91.558 2.79 1.02 1.591.636 2.715 2.081 2.94 3.78zM281.48 307.15c0 3-4.53 5.37-10.17 5.37-1.56.012-3.115-.19-4.62-.6-.964-.234-1.893-.598-2.76-1.08-1.524-.635-2.581-2.049-2.76-3.69 0-3 4.53-5.34 10.14-5.34s10.17 2.4 10.17 5.34zM550.61 402.37c-.18 3-4.89 5.07-10.47 4.71-5.58-.36-9.99-3-9.81-6 0-1.47 1.32-2.73 3.24-3.6.965-.406 1.97-.708 3-.9 1.358-.223 2.736-.294 4.11-.21 5.73.36 10.11 3.06 9.93 6zM402.29 172.3c-.132 1.389-.94 2.624-2.16 3.3-.808.511-1.674.924-2.58 1.23-1.756.556-3.588.84-5.43.84-5.64 0-10.17-2.43-10.17-5.37s4.53-5.34 10.17-5.34 10.17 2.37 10.17 5.34zM428.39 90.73c0 3-4.56 5.37-10.14 5.37-5.58 0-10.2-2.37-10.2-5.37s4.56-5.34 10.2-5.34c1.852-.003 3.694.28 5.46.84.887.307 1.733.72 2.52 1.23 1.223.659 2.034 1.887 2.16 3.27zM565.43 128.65c0 3-4.56 5.34-10.14 5.34-5.58 0-10.2-2.37-10.2-5.34.19-1.63 1.245-3.03 2.76-3.66.865-.465 1.781-.827 2.73-1.08 1.532-.433 3.118-.645 4.71-.63 5.58 0 10.14 2.43 10.14 5.37zM577.04 201.82c0 3-4.53 5.34-10.14 5.34-1.381.006-2.759-.134-4.11-.42-1.04-.22-2.049-.574-3-1.05-1.95-.96-3.21-2.34-3.21-3.87 0-3 4.56-5.37 10.2-5.37s10.26 2.55 10.26 5.37zM169.7 241.78c0 3-4.53 5.34-10.14 5.34s-10.17-2.4-10.17-5.34 4.56-5.37 10.17-5.37c1.705-.015 3.402.218 5.04.69.926.275 1.814.669 2.64 1.17 1.38.657 2.313 1.99 2.46 3.51zM39.11 307.75c0 3-4.56 5.37-10.17 5.37-1.477.013-2.95-.169-4.38-.54-1.043-.228-2.051-.59-3-1.08-1.606-.613-2.754-2.048-3-3.75 0-3 4.59-5.34 10.17-5.34s10.38 2.37 10.38 5.34zM285.05 173.92c.15 3-4.26 5.58-9.87 6-2.029.117-4.062-.137-6-.75-.9-.285-1.751-.71-2.52-1.26-1.02-.599-1.7-1.644-1.83-2.82 0-3 4.26-5.58 9.87-6 5.61-.42 10.2 1.89 10.35 4.83zM522.95 450.01c0 3-4.56 5.34-10.14 5.34-1.485.009-2.966-.162-4.41-.51-1.04-.237-2.048-.6-3-1.08-1.618-.597-2.773-2.04-3-3.75 0-3 4.56-5.37 10.2-5.37s10.35 2.4 10.35 5.37zM677.54 193.18c-.185 1.648-1.255 3.063-2.79 3.69-.877.47-1.802.842-2.76 1.11-1.51.383-3.062.575-4.62.57-5.64 0-10.17-2.4-10.17-5.37s4.53-5.34 10.17-5.34 10.17 2.4 10.17 5.34zM413.87 239.08c0 3-4.53 5.37-10.14 5.37s-10.2-2.37-10.2-5.37 4.56-5.34 10.2-5.34c1.529-.018 3.053.174 4.53.57.98.243 1.928.606 2.82 1.08 1.527.637 2.593 2.047 2.79 3.69z" transform="translate(109 70)"/>
            <path fill="#23359E" fill-rule="nonzero" d="M687.71 162.52c4.23 2.43-.3 6-4.5 8.49l-56.25 32.7c-4.811 2.428-10.489 2.428-15.3 0l-53.04-31.35c-4.23-2.46-4.26-6.42 0-9l56.25-32.7c4.792-2.462 10.478-2.462 15.27 0l57.57 31.86z" opacity=".45" transform="translate(109 70)"/>
            <path fill="url(#prefix__b)" fill-rule="nonzero" d="M690.08 148l-21.33.3-34.89-20.61c-4.8-2.432-10.47-2.432-15.27 0L581 149.62l-21.75.33v14.79c.07 1.961 1.226 3.72 3 4.56l53.04 31.35c4.803 2.462 10.497 2.462 15.3 0l56.25-32.67c1.75-.85 2.9-2.586 3-4.53l.24-15.45z" transform="translate(109 70)"/>
            <path fill="url(#prefix__c)" fill-rule="nonzero" d="M686.9 143.83c4.23 2.46 4.26 6.42 0 9l-56.25 32.7c-4.803 2.462-10.497 2.462-15.3 0L562.37 154c-4.23-2.46-4.26-6.42 0-9l56.25-32.7c4.8-2.432 10.47-2.432 15.27 0l53.01 31.53z" transform="translate(109 70)"/>
            <path fill="#57B156" fill-rule="nonzero" d="M588.98 147.4L623 127.57c1.675-.989 3.755-.989 5.43 0l32.04 18.57c.734.43 1.185 1.219 1.185 2.07 0 .851-.45 1.64-1.185 2.07l-33.93 19.53c-2.226 1.292-4.974 1.292-7.2 0l-30.48-18c-.743-.499-1.179-1.343-1.154-2.238.024-.895.505-1.714 1.274-2.172z" transform="translate(109 70)"/>
            <g style="mix-blend-mode:screen" fill="#0D5FCF" fill-rule="nonzero">
                <path d="M11.64 15.99L8.43 17.85 8.43 10.11 11.64 8.25zM16.11 13.41L12.93 15.24 12.93 7.5 16.11 5.64zM20.58 10.8L17.37 12.66 17.37 4.92 20.58 3.06zM25.05 8.19L21.84 10.05 21.84 2.31 25.05.45zM6.69 16.11c0 .96-.51 1.74-1.14 1.74-.63 0-1.17-.78-1.17-1.74s.51-1.77 1.17-1.77c.66 0 1.14.66 1.14 1.77zM2.79 18.54c0 .96-.51 1.74-1.14 1.74-.63 0-1.17-.78-1.17-1.74s.54-1.77 1.17-1.77c.63 0 1.14.78 1.14 1.77z" transform="translate(109 70) translate(659 154)"/>
            </g>
            <path fill="url(#prefix__d)" fill-rule="nonzero" d="M690.08 122.17l-21.33.3-34.89-20.61c-4.792-2.462-10.478-2.462-15.27 0L581 123.73l-21.75.3v14.79c.078 1.966 1.23 3.73 3 4.59l53.04 31.35c4.811 2.428 10.489 2.428 15.3 0L686.96 142c1.76-.84 2.913-2.582 3-4.53l.12-15.3z" transform="translate(109 70)"/>
            <path fill="url(#prefix__e)" fill-rule="nonzero" d="M686.9 118c4.23 2.43 4.26 6.39 0 9l-56.19 32.46c-4.803 2.462-10.497 2.462-15.3 0l-53.04-31.35c-4.23-2.43-4.26-6.39 0-8.85l56.25-32.67c4.796-2.447 10.474-2.447 15.27 0L686.9 118z" transform="translate(109 70)"/>
            <path fill="#57B156" fill-rule="nonzero" d="M588.98 121.48L623 101.65c1.683-.958 3.747-.958 5.43 0l32.04 18.57c.734.43 1.185 1.219 1.185 2.07 0 .851-.45 1.64-1.185 2.07l-33.93 19.56c-2.226 1.292-4.974 1.292-7.2 0l-30.48-17.85c-.814-.49-1.3-1.38-1.276-2.33.025-.95.558-1.813 1.396-2.26z" transform="translate(109 70)"/>
            <g style="mix-blend-mode:screen" fill="#0D5FCF" fill-rule="nonzero">
                <path d="M11.64 16.07L8.43 17.93 8.43 10.19 11.64 8.33zM16.11 13.49L12.93 15.35 12.93 7.61 16.11 5.75zM20.58 10.88L17.37 12.74 17.37 5 20.58 3.14zM25.05 8.27L21.84 10.16 21.84 2.39 25.05.53zM6.69 16.19c0 .96-.51 1.77-1.14 1.77-.63 0-1.17-.81-1.17-1.77s.51-1.74 1.17-1.74c.66 0 1.14.78 1.14 1.74zM2.79 18.62c0 .96-.51 1.77-1.14 1.77-.63 0-1.17-.81-1.17-1.77s.54-1.74 1.17-1.74c.63 0 1.14.78 1.14 1.74z" transform="translate(109 70) translate(659 128)"/>
            </g>
            <path fill="url(#prefix__f)" fill-rule="nonzero" d="M690.08 96.25l-21.33.3L633.86 76c-4.792-2.462-10.478-2.462-15.27 0L581 97.81l-21.75.3v14.79c.072 1.968 1.226 3.735 3 4.59l53.04 31.35c4.803 2.462 10.497 2.462 15.3 0l56.25-32.7c1.764-.835 2.92-2.58 3-4.53l.24-15.36z" transform="translate(109 70)"/>
            <path fill="url(#prefix__g)" fill-rule="nonzero" d="M686.9 92.02c4.23 2.43 4.26 6.42 0 8.85l-56.25 32.7c-4.811 2.428-10.489 2.428-15.3 0l-52.98-31.35c-4.23-2.46-4.26-6.42 0-9l56.25-32.7c4.792-2.462 10.478-2.462 15.27 0l53.01 31.5z" transform="translate(109 70)"/>
            <path fill="#FFF" fill-rule="nonzero" d="M588.98 95.59L623 75.76c1.675-.989 3.755-.989 5.43 0l32.04 18.54c.733.439 1.182 1.23 1.182 2.085 0 .854-.449 1.646-1.182 2.085L626.66 118c-2.223 1.305-4.977 1.305-7.2 0l-30.48-18c-.756-.479-1.214-1.31-1.214-2.205 0-.894.458-1.726 1.214-2.205z" transform="translate(109 70)"/>
            <g style="mix-blend-mode:screen" fill="#0D5FCF" fill-rule="nonzero">
                <path d="M11.64 16.18L8.43 18.04 8.43 10.3 11.64 8.44zM16.11 13.57L12.93 15.43 12.93 7.69 16.11 5.83zM20.58 10.99L17.37 12.85 17.37 5.08 20.58 3.22zM25.05 8.38L21.84 10.24 21.84 2.5 25.05.64zM6.69 16.27c0 .99-.51 1.77-1.14 1.77-.63 0-1.17-.78-1.17-1.77s.51-1.74 1.17-1.74c.66 0 1.14.78 1.14 1.74zM2.79 18.7c0 .99-.51 1.77-1.14 1.77-.63 0-1.17-.78-1.17-1.77s.54-1.74 1.17-1.74c.63 0 1.14.78 1.14 1.74z" transform="translate(109 70) translate(659 102)"/>
            </g>
            <path fill="url(#prefix__h)" fill-rule="nonzero" d="M681.98.64H569l18.57 96.15c.36 1.38.39 3 1.59 3.57l30.48 18c2.226 1.292 4.974 1.292 7.2 0l33.93-19.53c.593-.345 1.033-.903 1.23-1.56C666.98 74.77 681.98.64 681.98.64z" style="mix-blend-mode:overlay" transform="translate(109 70)"/>
            <path fill="#23359E" fill-rule="nonzero" d="M635 464.56l-21 12.27c-.65.375-1.45.375-2.1 0l-60-34.5c-.23-.127-.371-.368-.371-.63s.142-.503.371-.63l21-11.85 62.16 33c.397.262.63.71.62 1.187-.014.475-.27.911-.68 1.153z" opacity=".45" style="mix-blend-mode:multiply" transform="translate(109 70)"/>
            <path fill="#004A91" fill-rule="nonzero" d="M582.86 376.45v46.56l-29.43 13.95v3.21l60.78 35.16L632 465.1c7.107-4.132 11.483-11.73 11.49-19.95v-33.51l-60.63-35.19z" transform="translate(109 70)"/>
            <path fill="#C1DEFF" fill-rule="nonzero" d="M580.19 376.45v32.28c-.006 7.939-4.234 15.275-11.1 19.26l-15.6 9 60.78 35.19 15.6-9c6.87-3.995 11.098-11.342 11.1-19.29v-32.25l-60.78-35.19zM704.6 316.87c.328.182.64.393.93.63l.27.24.45.39.18.21.18.18.18.18.39.51.15.15.3.45s.15.27.24.42l.18.33c0 .15.15.3.21.42l.18.39.18.42c0 .15 0 .33.15.48v.42c.013.18.013.36 0 .54V324.91l-.42 148.71c.114 1.231-.434 2.43-1.44 3.15l-2.37 1.38-3.69-148.65c.029-.38.029-.76 0-1.14-.014-.06-.014-.12 0-.18-.062-.357-.152-.708-.27-1.05-.113-.4-.253-.79-.42-1.17-.176-.402-.376-.793-.6-1.17-.21-.36-.45-.72-.69-1.05l-.72-.87-.18-.18-.63-.57-.27-.24c-.296-.24-.606-.46-.93-.66L508.28 211l-.99-3.6 2.37-1.38h.24c.088-.026.182-.026.27 0h2.28c.242.096.473.217.69.36L704.6 316.87z" transform="translate(109 70)"/>
            <path fill="#004A91" fill-rule="nonzero" d="M702.26 318.22c2.903 1.895 4.73 5.059 4.92 8.52l-.42 148.71c0 3-2.25 4.41-4.95 2.82L510.38 367.75c-2.913-1.885-4.744-5.055-4.92-8.52l.54-148.71c0-3 2.22-4.38 4.95-2.82l191.31 110.52z" transform="translate(109 70)"/>
            <path fill="#FFF" fill-rule="nonzero" d="M511.46 344.86c.197 4.04 2.33 7.738 5.73 9.93l108 62.31L695 457.48c3.18 1.86 5.76.39 5.76-3.27l.33-117.54c-.202-4.047-2.333-7.751-5.73-9.96l-87.6-50.61-90.21-52.08c-3.18-1.83-5.76-.39-5.76 3.3l-.33 117.54z" transform="translate(109 70)"/>
            <path fill="#3878FF" fill-rule="nonzero" d="M582.41 315.52L582.23 378.94 596 386.89 596.18 323.47zM671.93 366.76L671.75 430.18 685.52 438.16 685.7 374.71zM600.5 359.83L600.41 389.44 614.18 397.39 614.27 367.78zM654.68 390.76L654.59 420.37 668.39 428.32 668.45 398.71zM618.74 346.15L618.59 399.94 632.36 407.89 632.51 354.13zM636.86 375.79L636.77 410.44 650.54 418.39 650.66 383.74z" transform="translate(109 70)"/>
            <path fill="#C1DEFF" fill-rule="nonzero" d="M560 369.1l-33.45-19.47c-1.473-.858-2.376-2.436-2.37-4.14v-97.8c.006-1.712.923-3.29 2.407-4.144 1.484-.854 3.31-.852 4.793.004l33.45 19.44c1.49.86 2.405 2.45 2.4 4.17v97.77c.011 1.727-.906 3.326-2.402 4.189-1.495.862-3.34.855-4.828-.019z" transform="translate(109 70)"/>
            <path fill="#23359E" fill-rule="nonzero" d="M216.53 121.84l77.46-44.73c1.882-.972 4.118-.972 6 0l114 66.18c.716.256 1.194.934 1.194 1.695 0 .76-.478 1.439-1.194 1.695l-77.76 44.73c-1.874 1.003-4.126 1.003-6 0l-113.85-66c-1.38-1.08-1.38-2.61.15-3.57z" opacity=".45" style="mix-blend-mode:multiply" transform="translate(109 70)"/>
            <path fill="#004A91" fill-rule="nonzero" d="M219.08 116.47c.059.126.129.247.21.36l.33.36.3.21.24.18 114 66.18.81.36H338.66l.57-.18.63-.3 77.46-44.73c.7-.308 1.173-.977 1.23-1.74v2.82c-.07.758-.538 1.421-1.23 1.74l-77.37 45-.6.27H335l-.81-.36-113.97-66.09-.21-.15-.27-.21-.27-.27v-.24c-.015-.08-.015-.16 0-.24v-2.82c-.119-.076-.251-.127-.39-.15z" transform="translate(109 70)"/>
            <path fill="#C1DEFF" fill-rule="nonzero" d="M297.71 69.61c1.878-.987 4.122-.987 6 0l113.85 66.18c1.62.93 1.62 2.46 0 3.42L339.95 184c-1.882.972-4.118.972-6 0l-114-66.18c-.716-.256-1.194-.934-1.194-1.695 0-.76.478-1.439 1.194-1.695l77.76-44.82z" transform="translate(109 70)"/>
            <path fill="#004A91" fill-rule="nonzero" d="M274.46 93.07l4.95 3c.183.103.39.155.6.15.21 0 .416-.05.6-.15l3.81-2.19c.09-.037.158-.115.18-.21l-.18-.18-4.95-3c-.197-.052-.403-.052-.6 0-.187-.048-.383-.048-.57 0l-3.84 2.22c-.082.034-.146.098-.18.18 0 0 .06.12.18.18zM281.24 97l.18.18 4.98 3c.187.048.383.048.57 0 .197.052.403.052.6 0l3.84-2.19c.08-.044.134-.121.15-.21l-.15-.18-4.98-3c-.187-.048-.383-.048-.57 0-.197-.052-.403-.052-.6 0l-3.84 2.22c-.082.034-.146.098-.18.18zM288.35 101.08l.18.18 4.95 3c.197.048.403.048.6 0 .197.052.403.052.6 0l3.84-2.22v-.18-.18l-4.98-3c-.183-.103-.39-.155-.6-.15-.2 0-.396.05-.57.15l-3.84 2.19s-.18.15-.18.21zM295.55 105.25l.15.18 4.98 3c.197.052.403.052.6 0 .187.048.383.048.57 0l3.84-2.19s.18 0 .18-.21 0 0-.18-.18l-4.95-3c-.183-.103-.39-.155-.6-.15-.21 0-.416.05-.6.15l-3.81 2.19s-.18.15-.18.21zM302.66 109.39l.15.18 4.98 3c.183.103.39.155.6.15.21 0 .416-.05.6-.15l3.81-2.22s.18 0 .18-.18 0 0-.18-.18l-4.95-3c-.199-.034-.401-.034-.6 0-.198-.037-.402-.037-.6 0l-3.81 2.22c-.084.03-.15.096-.18.18zM309.77 113.53c.034.082.098.146.18.18l4.95 3c.197.052.403.052.6 0 .197.048.403.048.6 0l3.81-2.22c.082-.034.146-.098.18-.18l-.18-.18-4.95-3c-.197-.05-.403-.05-.6 0-.187-.048-.383-.048-.57 0l-3.84 2.22s-.18.12-.18.18zM317 117.64c-.08.107-.08.253 0 .36l4.95 3c.197.05.403.05.6 0 .197.048.403.048.6 0l3.81-2.22s.18 0 .18-.18c-.016-.089-.07-.166-.15-.21l-4.98-3c-.197-.05-.403-.05-.6 0-.187-.048-.383-.048-.57 0l-3.84 2.22v.03zM323.99 121.78l.18.18 4.95 3c.199.034.401.034.6 0 .198.037.402.037.6 0l3.84-2.22c.069-.042.121-.105.15-.18-.016-.089-.07-.166-.15-.21l-4.98-3c-.183-.103-.39-.155-.6-.15-.2 0-.396.05-.57.15l-3.84 2.22s-.18.15-.18.21zM331.1 125.92l.18.18 4.98 3c.174.1.37.15.57.15.21.005.417-.047.6-.15l3.84-2.22v-.18-.18l-4.98-3c-.174-.1-.37-.15-.57-.15-.21-.005-.417.047-.6.15l-3.84 2.19s-.18.15-.18.21zM338.24 130l.18.18 4.95 3c.198.037.402.037.6 0 .197.048.403.048.6 0l3.81-2.19c.09-.037.158-.115.18-.21l-.15-.18-4.98-3c-.197-.052-.403-.052-.6 0-.187-.048-.383-.048-.57 0l-3.84 2.22-.18.18zM268.58 96.46l16.77 9.75c.187.048.383.048.57 0 .197.05.403.05.6 0l3.84-2.22c.023-.058.023-.122 0-.18v-.21L273.59 94c-.174-.1-.37-.15-.57-.15-.21-.005-.417.047-.6.15l-3.84 2.22v.18c-.003.02-.003.04 0 .06zM297.5 107.77l-4.95-3c-.184-.1-.39-.15-.6-.15-.21-.005-.417.047-.6.15l-3.81 2.19c-.09.037-.158.115-.18.21l.18.18 4.95 3c.197.052.403.052.6 0 .187.048.383.048.57 0l3.84-2.19c.09-.037.158-.115.18-.21 0 0-.06-.12-.18-.18zM304.61 112l-4.95-3c-.376-.197-.824-.197-1.2 0l-3.81 2.19c-.15 0-.18 0-.18.21v.18l4.98 3c.183.103.39.155.6.15.209-.004.414-.055.6-.15l3.81-2.22s.18 0 .18-.18.09-.18-.03-.18zM311.72 116.05l-4.95-3c-.197-.05-.403-.05-.6 0-.187-.048-.383-.048-.57 0l-3.84 2.22s-.18.15-.18.18 0 0 .18.21l4.95 3c.384.16.816.16 1.2 0l3.81-2.22c.082-.034.146-.098.18-.18 0 0-.03-.15-.18-.21zM318.83 120.16l-4.95-3c-.197-.052-.403-.052-.6 0-.198-.044-.402-.044-.6 0l-3.81 2.22s-.18 0-.18.18 0 0 .18.18l4.95 3c.197.048.403.048.6 0 .197.05.403.05.6 0l3.81-2.22s.18 0 .18-.18c-.03-.084-.096-.15-.18-.18zM326 124.3l-4.98-3c-.197-.052-.403-.052-.6 0-.187-.048-.383-.048-.57 0l-3.84 2.22c-.1 0-.18.08-.18.18 0 .1.08.18.18.18l4.98 3c.187.048.383.048.57 0 .197.052.403.052.6 0l3.81-2.19c.15 0 .18 0 .18-.21s-.15-.09-.15-.18zM333.08 128.44l-4.98-3c-.183-.103-.39-.155-.6-.15-.2 0-.396.05-.57.15l-3.84 2.19s-.18 0-.18.21 0 0 .18.18l4.98 3c.187.048.383.048.57 0 .197.052.403.052.6 0l3.84-2.19c.025-.068.025-.142 0-.21 0 0 .09-.12 0-.18zM340.19 132.58l-4.95-3c-.197-.052-.403-.052-.6 0-.198-.044-.402-.044-.6 0l-3.81 2.22s-.18 0-.18.18 0 0 .18.18l4.95 3c.197.048.403.048.6 0 .197.052.403.052.6 0l3.81-2.19c.09-.037.158-.115.18-.21-.034-.082-.098-.146-.18-.18zM347.3 136.72l-4.95-3c-.197-.052-.403-.052-.6 0-.187-.048-.383-.048-.57 0l-3.84 2.19s-.18 0-.18.21 0 0 .18.18l4.95 3c.374.203.826.203 1.2 0l3.81-2.22s.18 0 .18-.18-.03-.12-.18-.18zM262.67 100l5.37 3c.197.052.403.052.6 0 .187.048.383.048.57 0l3.84-2.22c.082-.034.146-.098.18-.18l-.18-.18-5.37-3c-.183-.103-.39-.155-.6-.15-.2 0-.396.05-.57.15l-3.84 2.19s-.18.15-.18.21c.034.082.098.146.18.18zM280.46 104.71l-5.37-3c-.183-.103-.39-.155-.6-.15-.2 0-.396.05-.57.15l-3.84 2.22s-.18 0-.18.18 0 0 .18.18l5.37 3c.187.048.383.048.57 0 .197.052.403.052.6 0l3.84-2.19s.15-.15.15-.21-.03-.09-.15-.18zM251 106.66l3.75 2.19c.384.16.816.16 1.2 0l9.66-5.58s.18-.15.18-.21 0 0-.18-.18l-3.75-2.19c-.197-.052-.403-.052-.6 0-.197-.048-.403-.048-.6 0l-9.66 5.58s-.18 0-.18.18 0 .12.18.21zM267.11 103.99c-.21 0-.416.05-.6.15l-3.81 2.19c-.09.037-.158.115-.18.21l.18.18 5.34 3c.198.044.402.044.6 0 .197.052.403.052.6 0l3.84-2.22v-.18-.18l-5.37-3c-.183-.103-.39-.155-.6-.15zM295.07 113.17l-4.98-3c-.188-.034-.382-.034-.57 0-.197-.052-.403-.052-.6 0l-3.84 2.19c-.08.044-.134.121-.15.21.029.075.081.138.15.18l4.98 3c.187.048.383.048.57 0 .197.052.403.052.6 0l3.84-2.22c.078-.03.135-.098.15-.18 0 0-.06-.12-.15-.18z" transform="translate(109 70)"/>
            <path fill="#004A91" fill-rule="nonzero" d="M282.32 106c-.197-.048-.403-.048-.6 0l-9.72 5.7s-.18 0-.18.18 0 0 .18.21l9.84 5.7c.187.048.383.048.57 0 .197.052.403.052.6 0l3.84-2.22c.023-.058.023-.122 0-.18v-.18l-4.53-2.64 5.52-3.21s.18 0 .18-.18c-.013-.094-.086-.167-.18-.18l-4.95-3c-.187-.046-.383-.046-.57 0zM302.18 117.28l-4.98-3c-.187-.048-.383-.048-.57 0-.197-.05-.403-.05-.6 0l-3.84 2.22v.18c-.025.068-.025.142 0 .21l4.98 3c.187.048.383.048.57 0 .197.05.403.05.6 0l3.84-2.22s.15 0 .15-.18c-.016-.089-.07-.166-.15-.21zM309.29 121.42l-4.98-3c-.187-.051-.383-.051-.57 0-.197-.05-.403-.05-.6 0l-3.84 2.22v.36l4.98 3c.197.05.403.05.6 0 .187.048.383.048.57 0l3.84-2.22s.18 0 .18-.18c-.03-.084-.096-.15-.18-.18zM316.4 125.56l-4.95-3c-.184-.1-.39-.15-.6-.15-.21-.005-.417.047-.6.15l-3.84 2.22c-.082.024-.141.095-.15.18l.15.18 4.98 3c.197.052.403.052.6 0 .187.048.383.048.57 0l3.84-2.19s.18 0 .18-.21-.06-.12-.18-.18zM323.51 129.7l-4.95-3c-.197-.052-.403-.052-.6 0-.197-.048-.403-.048-.6 0l-3.81 2.19c-.09.037-.158.115-.18.21l.15.18 4.98 3c.197.052.403.052.6 0 .198.044.402.044.6 0l3.81-2.19c.09-.037.158-.115.18-.21 0 0-.06-.12-.18-.18zM330.62 133.84l-4.95-3c-.197-.05-.403-.05-.6 0-.199-.034-.401-.034-.6 0l-3.81 2.22s-.18 0-.18.21c.034.082.098.146.18.18l4.95 3c.197.052.403.052.6 0 .187.048.383.048.57 0l3.84-2.22c.082-.034.146-.098.18-.18 0 0-.06-.15-.18-.21zM337.76 137.98l-4.95-3c-.197-.048-.403-.048-.6 0-.197-.052-.403-.052-.6 0l-3.84 2.19c-.08.044-.134.121-.15.21.029.075.081.138.15.18l4.98 3c.197.052.403.052.6 0 .187.048.383.048.57 0l3.84-2.22c.082-.034.146-.098.18-.18 0 0 .06-.12-.18-.18zM284 118.84c.009.085.068.156.15.18l4.98 3c.187.048.383.048.57 0 .197.05.403.05.6 0l3.84-2.22v-.18c.025-.068.025-.142 0-.21l-4.98-3c-.187-.048-.383-.048-.57 0-.197-.05-.403-.05-.6 0l-3.84 2.22s-.15.15-.15.21zM301.28 123.64l-.18-.18-4.98-3c-.187-.048-.383-.048-.57 0-.197-.052-.403-.052-.6 0l-3.81 2.22s-.18 0-.18.18 0 0 .15.18l4.98 3c.187.048.383.048.57 0 .198.037.402.037.6 0l3.84-2.04s.18-.3.18-.36zM298.22 127.3l4.98 3c.187.048.383.048.57 0 .197.052.403.052.6 0l3.84-2.19s.18 0 .18-.21 0 0-.18-.18l-4.95-3c-.186-.095-.391-.146-.6-.15-.21-.005-.417.047-.6.15l-3.84 2.19c-.08.044-.134.121-.15.21 0 0 .06.12.15.18zM305.33 131.44l4.98 3c.197.052.403.052.6 0 .197.048.403.048.6 0l3.81-2.22c.094-.013.167-.086.18-.18l-.18-.18-4.95-3c-.197-.052-.403-.052-.6 0-.197-.048-.403-.048-.6 0l-3.81 2.19c-.09.037-.158.115-.18.21 0 0 .06.12.15.18zM312.47 135.58l4.95 3c.183.103.39.155.6.15.209-.004.414-.055.6-.15l3.81-2.22c.082-.034.146-.098.18-.18l-.18-.18-4.95-3c-.197-.05-.403-.05-.6 0-.197-.045-.403-.045-.6 0l-3.81 2.22s-.18 0-.18.21c.04.07.104.124.18.15zM319.58 139.72l4.98 3c.187.048.383.048.57 0 .197.052.403.052.6 0l3.84-2.22s.18 0 .18-.18 0 0-.18-.18l-4.95-3c-.198-.044-.402-.044-.6 0-.197-.052-.403-.052-.6 0l-3.84 2.19c-.08.044-.134.121-.15.21 0 0 .06.12.15.18zM326.69 143.86l4.98 3c.187.048.383.048.57 0 .197.05.403.05.6 0l3.84-2.22c.082-.034.146-.098.18-.18l-.18-.18-4.98-3c-.187-.048-.383-.048-.57 0-.197-.05-.403-.05-.6 0l-3.81 2.22c-.15 0-.18.15-.18.18.024.078.078.143.15.18zM261.29 107.35c-.197-.052-.403-.052-.6 0l-3.84 2.22c-.1 0-.18.08-.18.18 0 .1.08.18.18.18l5.37 3c.183.103.39.155.6.15.2 0 .396-.05.57-.15l3.84-2.19c.09-.037.158-.115.18-.21-.034-.082-.098-.146-.18-.18l-5.37-3c-.187-.048-.383-.048-.57 0zM276.32 115.93c-.034-.082-.098-.146-.18-.18L269.6 112c-.197-.05-.403-.05-.6 0-.197-.045-.403-.045-.6 0l-3.81 2.22s-.18 0-.18.18c.022.095.09.173.18.21l6.54 3.81c.197.05.403.05.6 0 .197.048.403.048.6 0l3.81-2.22c.108-.047.178-.153.18-.27zM280.46 123.76l4.98 3c.188.034.382.034.57 0 .198.037.402.037.6 0l3.84-2.22c.025-.068.025-.142 0-.21.015-.059.015-.121 0-.18l-4.98-3c-.174-.1-.37-.15-.57-.15-.21-.005-.417.047-.6.15l-3.84 2.22v.18c0 .18-.09.15 0 .21zM287.57 127.9l4.98 3c.197.052.403.052.6 0 .187.048.383.048.57 0l3.84-2.19s.18-.15.18-.21 0 0-.18-.18l-4.98-3c-.187-.051-.383-.051-.57 0-.197-.052-.403-.052-.6 0l-3.84 2.22s-.15 0-.15.18.06.12.15.18zM294.68 132.04l4.98 3c.197.052.403.052.6 0 .187.048.383.048.57 0l3.84-2.22c.082-.034.146-.098.18-.18l-.18-.18-4.95-3c-.197-.048-.403-.048-.6 0-.197-.052-.403-.052-.6 0l-3.84 2.19c-.08.044-.134.121-.15.21.029.075.081.138.15.18zM301.79 136.18l4.98 3c.197.052.403.052.6 0 .198.044.402.044.6 0l3.81-2.22s.18 0 .18-.18 0 0-.18-.18l-4.95-3c-.197-.05-.403-.05-.6 0-.199-.034-.401-.034-.6 0l-3.81 2.22c-.082.034-.146.098-.18.18.024.078.078.143.15.18zM308.93 140.29l4.95 3c.197.05.403.05.6 0 .187.048.383.048.57 0l3.84-2.22c.082-.034.146-.098.18-.18-.022-.095-.09-.173-.18-.21l-4.95-3c-.197-.05-.403-.05-.6 0-.197-.048-.403-.048-.6 0l-3.81 2.22c-.082.034-.146.098-.18.18-.001.105.076.195.18.21zM316.04 144.46l4.98 3c.197.05.403.05.6 0 .187.048.383.048.57 0L326 145c.082-.034.146-.098.18-.18l-.18-.18-4.95-3c-.197-.048-.403-.048-.6 0-.197-.05-.403-.05-.6 0l-3.84 2.22s-.15 0-.15.18c-.04.079-.042.17-.007.252.035.08.103.142.187.168zM323.15 148.57l4.98 3c.197.05.403.05.6 0 .187.048.383.048.57 0l3.84-2.22s.18 0 .18-.18c-.022-.095-.09-.173-.18-.21l-4.95-3c-.197-.048-.403-.048-.6 0-.197-.05-.403-.05-.6 0l-3.84 2.22s-.15 0-.15.18 0 .15.15.21zM254 109.84l-.18-.18-3.75-2.19c-.183-.103-.39-.155-.6-.15-.21 0-.416.05-.6.15l-9.69 5.61s-.18 0-.18.18v.18l3.78 2.19c.187.048.383.048.57 0 .197.052.403.052.6 0l9.72-5.61c.137.015.268-.057.33-.18zM255.23 110.68c-.197-.048-.403-.048-.6 0l-3.81 2.19c-.09.037-.158.115-.18.21.034.082.098.146.18.18l5.64 3.3c.199.034.401.034.6 0 .197.05.403.05.6 0l3.84-2.22c.015-.059.015-.121 0-.18.025-.068.025-.142 0-.21l-5.67-3.3c-.2-.027-.404-.017-.6.03zM258.65 118l2.82 1.62c.197.052.403.052.6 0 .187.048.383.048.57 0l3.84-2.19s.18 0 .18-.21 0 0-.18-.18l-2.82-1.65c-.188-.034-.382-.034-.57 0-.198-.037-.402-.037-.6 0l-3.84 2.22c-.015.059-.015.121 0 .18-.025.068-.025.142 0 .21zM263.84 121l3 1.71c.197.048.403.048.6 0 .197.052.403.052.6 0l3.81-2.19c.09-.037.158-.115.18-.21l-.18-.18-3-1.71c-.187-.051-.383-.051-.57 0-.197-.05-.403-.05-.6 0l-3.84 2.22c-.023.058-.023.122 0 .18 0 0-.09.18 0 .18zM269 124l8.16 4.74c.187.048.383.048.57 0 .197.05.403.05.6 0l3.84-2.22v-.18c.025-.068.025-.142 0-.21l-8.16-4.71c-.187-.048-.383-.048-.57 0-.197-.052-.403-.052-.6 0l-3.84 2.19c-.08.044-.134.121-.15.21l.15.18zM279.32 130l4.98 3c.187.048.383.048.57 0 .197.052.403.052.6 0l3.84-2.19s.18 0 .18-.21 0 0-.18-.18l-4.98-3c-.172-.102-.37-.154-.57-.15-.21-.005-.417.047-.6.15l-3.84 2.22c-.078.03-.135.098-.15.18 0 0 .06.18.15.18zM286.43 134.11l4.98 3c.197.052.403.052.6 0 .187.048.383.048.57 0l3.84-2.19s.18 0 .18-.21 0 0-.18-.18l-4.95-3c-.184-.1-.39-.15-.6-.15-.21-.005-.417.047-.6.15l-3.84 2.19c-.08.044-.134.121-.15.21 0 0 .06.12.15.18zM293.54 138.25l4.98 3c.183.103.39.155.6.15.2 0 .396-.05.57-.15l3.84-2.22s.18 0 .18-.18 0 0-.18-.18l-4.95-3c-.198-.037-.402-.037-.6 0-.197-.048-.403-.048-.6 0l-3.81 2.19c-.09.037-.158.115-.18.21 0 0 .06.12.15.18zM300.68 142.39l4.95 3c.197.05.403.05.6 0 .187.048.383.048.57 0l3.84-2.22c.082-.034.146-.098.18-.18-.013-.094-.086-.167-.18-.18l-4.95-3c-.197-.05-.403-.05-.6 0-.197-.048-.403-.048-.6 0l-3.81 2.22c-.082.034-.146.098-.18.18.03.084.096.15.18.18zM307.79 146.53l4.98 3c.197.052.403.052.6 0 .187.048.383.048.57 0l3.84-2.22s.18 0 .18-.18 0 0-.18-.18l-4.95-3c-.199-.034-.401-.034-.6 0-.198-.037-.402-.037-.6 0l-3.84 2.22c-.069.042-.121.105-.15.18.024.078.078.143.15.18zM314.9 150.64l4.98 3c.187.048.383.048.57 0 .197.05.403.05.6 0l3.84-2.22c.082-.034.146-.098.18-.18l-.18-.21L320 148c-.187-.051-.383-.051-.57 0-.197-.05-.403-.05-.6 0l-3.84 2.22c-.078.03-.135.098-.15.18-.034.085-.01.182.06.24zM322.04 154.78l4.95 3c.197.05.403.05.6 0 .187.048.383.048.57 0l3.84-2.22s.18 0 .18-.21c-.034-.082-.098-.146-.18-.18l-4.95-3c-.374-.203-.826-.203-1.2 0l-3.84 2.22v.18c0 .18-.09.15.03.21zM353.36 167.5l-4.98-3c-.197-.05-.403-.05-.6 0-.197-.045-.403-.045-.6 0l-3.81 2.22s-.18 0-.18.18c.022.095.09.173.18.21l4.95 3c.197.048.403.048.6 0 .197.052.403.052.6 0l3.81-2.22s.18 0 .18-.18-.06-.15-.15-.21zM257.39 118.63v-.18l-4.98-3c-.187-.048-.383-.048-.57 0-.197-.052-.403-.052-.6 0l-3.84 2.19s-.18 0-.18.21 0 0 .18.18l4.95 3c.374.203.826.203 1.2 0l3.84-2.22v-.18zM264.5 122.77v-.18l-4.98-3c-.197-.05-.403-.05-.6 0-.187-.048-.383-.048-.57 0l-3.84 2.22s-.18 0-.18.18 0 0 .18.21l4.98 3c.187.048.383.048.57 0 .197.05.403.05.6 0l3.84-2.22v-.21zM271.7 127l-.18-.18-4.95-3c-.376-.197-.824-.197-1.2 0l-3.81 2.19s-.18.15-.18.21 0 0 .15.18l4.98 3c.197.052.403.052.6 0 .187.048.383.048.57 0l3.84-2.22.18-.18zM278.81 131.08c-.013-.094-.086-.167-.18-.18l-4.95-3c-.197-.048-.403-.048-.6 0-.197-.05-.403-.05-.6 0l-3.81 2.22s-.18 0-.18.18c-.025.068-.025.142 0 .21l4.98 3c.197.05.403.05.6 0 .197.045.403.045.6 0l3.81-2.22s.33-.15.33-.21zM314.39 151.75l-.18-.18-33.42-19.44c-.197-.052-.403-.052-.6 0-.187-.048-.383-.048-.57 0l-3.84 2.22c-.082.034-.146.098-.18.18l.18.18 33.42 19.44c.197.052.403.052.6 0 .197.048.403.048.6 0l3.81-2.22c.15-.06.18-.12.18-.18zM321.5 155.89l-.18-.18-4.95-3c-.197-.05-.403-.05-.6 0-.187-.048-.383-.048-.57 0l-3.84 2.22c-.082.034-.146.098-.18.18.022.095.09.173.18.21l4.95 3c.197.052.403.052.6 0 .197.048.403.048.6 0l3.81-2.22s.18-.15.18-.21zM328.61 160c-.016-.089-.07-.166-.15-.21l-4.98-3c-.187-.048-.383-.048-.57 0-.197-.05-.403-.05-.6 0l-3.84 2.22c-.082.034-.146.098-.18.18.022.095.09.173.18.21l4.95 3c.384.16.816.16 1.2 0l3.84-2.22c.078-.03.135-.098.15-.18zM335.72 164.14c-.029-.075-.081-.138-.15-.18l-4.98-3c-.197-.052-.403-.052-.6 0-.187-.048-.383-.048-.57 0l-3.84 2.22s-.18 0-.18.18 0 0 .18.18l4.98 3c.188.034.382.034.57 0 .197.052.403.052.6 0l3.84-2.19c.08-.044.134-.121.15-.21zM342.83 168.28l-.15-.18-4.98-3c-.187-.048-.383-.048-.57 0-.197-.052-.403-.052-.6 0l-3.84 2.19c-.025.068-.025.142 0 .21v.18l4.98 3c.187.048.383.048.57 0 .197.052.403.052.6 0l3.84-2.19c.08-.044.134-.121.15-.21zM348.68 171.58l-3.87-2.22c-.174-.1-.37-.15-.57-.15-.198-.037-.402-.037-.6 0l-3.84 2.22c-.025.068-.025.142 0 .21-.015.059-.015.121 0 .18l3.87 2.25c.188.034.382.034.57 0 .197.052.403.052.6 0l3.84-2.19c.08-.044.134-.121.15-.21 0 0-.06-.03-.15-.09zM345.35 134.2l.18.18 4.95 3c.197.052.403.052.6 0 .197.048.403.048.6 0l3.81-2.22s.18 0 .18-.18 0 0-.18-.18l-4.95-3c-.197-.052-.403-.052-.6 0-.187-.048-.383-.048-.57 0l-3.84 2.19s-.18.15-.18.21zM352.46 138.34l.18.18 4.98 3c.187.048.383.048.57 0 .197.052.403.052.6 0l3.84-2.22c.023-.058.023-.122 0-.18v-.18l-4.98-3c-.188-.034-.382-.034-.57 0-.198-.037-.402-.037-.6 0l-3.84 2.22s-.18.12-.18.18zM359.57 142.45l.18.21 4.95 3c.197.048.403.048.6 0 .197.05.403.05.6 0l3.84-2.22v-.18c.025-.068.025-.142 0-.21l-4.98-3c-.197-.05-.403-.05-.6 0-.187-.048-.383-.048-.57 0l-3.84 2.22s-.18.12-.18.18zM366.71 146.59l.15.18 4.98 3c.187.048.383.048.57 0 .197.05.403.05.6 0l3.84-2.22s.15 0 .15-.18c-.016-.089-.07-.166-.15-.21l-4.98-3c-.187-.048-.383-.048-.57 0-.197-.052-.403-.052-.6 0l-3.84 2.22c-.087.035-.145.117-.15.21zM383.96 151.21l-4.98-3c-.187-.048-.383-.048-.57 0-.197-.052-.403-.052-.6 0l-3.84 2.19c-.08.044-.134.121-.15.21l.15.18 4.98 3c.187.048.383.048.57 0 .197.052.403.052.6 0l3.84-2.19c.08-.044.134-.121.15-.21 0 0-.06-.12-.15-.18zM354.44 140.86l-4.98-3c-.197-.052-.403-.052-.6 0-.188-.034-.382-.034-.57 0l-3.84 2.22s-.18 0-.18.18 0 0 .18.21l4.98 3c.187.048.383.048.57 0 .197.052.403.052.6 0l3.84-2.22s.15 0 .15-.18-.06-.15-.15-.21zM357.11 147.7c.197.05.403.05.6 0l3.84-2.22s.15 0 .15-.18 0 0-.15-.21l-4.98-3c-.197-.05-.403-.05-.6 0-.187-.048-.383-.048-.57 0l-3.84 2.22c-.082.034-.146.098-.18.18l.18.18 4.98 3c.184.058.38.068.57.03zM364.22 151.84c.198.037.402.037.6 0l3.84-2.22s.15 0 .15-.18 0 0-.15-.21l-4.98-3c-.187-.048-.383-.048-.57 0-.197-.052-.403-.052-.6 0l-3.84 2.22c-.023.058-.023.122 0 .18v.18l4.98 3c.187.044.38.054.57.03zM375.77 153.25l-4.98-3c-.174-.1-.37-.15-.57-.15-.21-.005-.417.047-.6.15l-3.84 2.19c-.025.068-.025.142 0 .21v.18l4.98 3c.197.052.403.052.6 0 .187.048.383.048.57 0l3.84-2.19c.025-.068.025-.142 0-.21.023-.058.023-.122 0-.18zM340.46 144.82c.187.048.383.048.57 0l3.84-2.22s.18 0 .18-.18c-.013-.094-.086-.167-.18-.18l-4.95-3c-.197-.048-.403-.048-.6 0-.197-.05-.403-.05-.6 0l-3.84 2.22s-.15 0-.15.18c.016.089.07.166.15.21l4.98 3c.2.041.406.03.6-.03zM347.57 148.96c.187.048.383.048.57 0l3.84-2.22c.082-.034.146-.098.18-.18-.022-.095-.09-.173-.18-.21l-4.95-3c-.197-.05-.403-.05-.6 0-.197-.048-.403-.048-.6 0l-3.81 2.22c-.082.034-.146.098-.18.18.013.094.086.167.18.18l4.95 3c.194.06.4.071.6.03zM359.27 150.55l-.18-.18-4.95-3c-.197-.052-.403-.052-.6 0-.197-.048-.403-.048-.6 0l-3.81 2.22s-.18 0-.18.18 0 0 .18.18l4.95 3c.198.037.402.037.6 0 .197.048.403.048.6 0l3.81-2.19c.09-.037.158-.115.18-.21zM372.2 157.99l-10.86-6.3c-.187-.048-.383-.048-.57 0-.197-.052-.403-.052-.6 0l-3.84 2.22s-.15 0-.15.18 0 0 .15.18l10.86 6.3c.197.052.403.052.6 0 .197.048.403.048.6 0l3.81-2.19c.09-.037.158-.115.18-.21 0 0-.06-.12-.18-.18zM344 148.48c-.022-.095-.09-.173-.18-.21l-4.95-3c-.197-.048-.403-.048-.6 0-.197-.05-.403-.05-.6 0l-3.81 2.22s-.18 0-.18.18c.013.094.086.167.18.18l4.95 3c.197.05.403.05.6 0 .197.045.403.045.6 0l3.81-2.22c.076-.026.14-.08.18-.15zM351.08 152.59l-.18-.18-4.95-3c-.183-.103-.39-.155-.6-.15-.21 0-.416.05-.6.15l-3.81 2.22s-.18 0-.18.18 0 0 .15.18l4.98 3c.197.052.403.052.6 0 .197.048.403.048.6 0l3.81-2.19c.09-.037.158-.115.18-.21zM348.05 156.25l4.95 3c.183.103.39.155.6.15.21 0 .416-.05.6-.15l3.81-2.19c.15 0 .18 0 .18-.21v-.18l-4.98-3c-.197-.052-.403-.052-.6 0-.187-.048-.383-.048-.57 0l-3.84 2.19s-.18 0-.18.21-.09.12.03.18zM366.35 161.38l-6.18-3.57c-.197-.052-.403-.052-.6 0-.188-.034-.382-.034-.57 0l-3.84 2.22c-.09.037-.158.115-.18.21.034.082.098.146.18.18l6.18 3.57c.174.1.37.15.57.15.21.005.417-.047.6-.15l3.84-2.19c.08-.044.134-.121.15-.21 0 0-.06-.15-.15-.21zM330.29 152.71l4.95 3c.197.052.403.052.6 0 .187.048.383.048.57 0l3.84-2.19s.18 0 .18-.21 0 0-.18-.18l-4.95-3c-.197-.052-.403-.052-.6 0-.197-.048-.403-.048-.6 0l-3.81 2.22c-.082.034-.146.098-.18.18 0 0 .06.12.18.18zM347.54 157.33l-.18-.18-4.95-3c-.197-.052-.403-.052-.6 0-.197-.048-.403-.048-.6 0l-3.81 2.19c-.09.037-.158.115-.18.21l.18.18 4.95 3c.197.052.403.052.6 0 .197.048.403.048.6 0l3.81-2.19c.09-.037.158-.115.18-.21zM360.47 164.77l-10.86-6.33c-.188-.034-.382-.034-.57 0-.197-.052-.403-.052-.6 0l-3.84 2.19v.21c-.015.059-.015.121 0 .18l10.86 6.3c.197.052.403.052.6 0 .197.048.403.048.6 0l3.81-2.19s.18 0 .18-.21-.06-.09-.18-.15zM329 158.92l4.98 3c.183.103.39.155.6.15.21 0 .416-.05.6-.15l3.81-2.19c.09-.037.158-.115.18-.21l-.18-.18-4.95-3c-.197-.052-.403-.052-.6 0-.197-.048-.403-.048-.6 0l-3.81 2.22c-.094.013-.167.086-.18.18 0 0 .15.12.15.18zM336.26 163l4.95 3c.197.052.403.052.6 0 .197.048.403.048.6 0l3.81-2.22s.18 0 .18-.18 0 0-.15-.18l-4.98-3c-.197-.052-.403-.052-.6 0-.187-.048-.383-.048-.57 0l-3.84 2.19s-.18 0-.18.21.06.18.18.18zM273.35 119.65l4.98 3c.187.048.383.048.57 0 .197.05.403.05.6 0l3.84-2.22c.078-.03.135-.098.15-.18-.016-.089-.07-.166-.15-.21l-4.98-3c-.187-.048-.383-.048-.57 0-.197-.05-.403-.05-.6 0l-3.84 2.22v.18c-.025.068-.025.142 0 .21z" transform="translate(109 70)"/>
            <path fill="#FFF" fill-rule="nonzero" d="M326 106.87c-.61.249-1.008.842-1.008 1.5s.398 1.251 1.008 1.5l19.56 11.37c1.674.826 3.636.826 5.31 0l15-8.73c1.47-.87 1.47-2.25 0-3l-19.53-11.34c-1.663-.87-3.647-.87-5.31 0l-15.03 8.7z" opacity=".62" transform="translate(109 70)"/>
            <path fill="#004A91" fill-rule="nonzero" d="M220.79 23.86c-.134-.073-.275-.133-.42-.18h-1.26l-1.44.81.6 2.16 112.8 66.15c.194.11.375.24.54.39l.18.15.36.33.45.51c.157.198.298.409.42.63 0 .24.24.48.36.69l.27.69c.067.216.118.436.15.66.015.23.015.46 0 .69l2.01 89.46 1.41-.84c.597-.435.917-1.155.84-1.89l.27-89.01v-.78c.017-.069.017-.141 0-.21v-.51V93.34c.012-.09.012-.18 0-.27.016-.08.016-.16 0-.24.012-.09.012-.18 0-.27.009-.06.009-.12 0-.18-.01-.08-.01-.16 0-.24l-.18-.27c-.063-.113-.144-.214-.24-.3l-.27-.21h-.18c-.165-.15-.346-.28-.54-.39L220.79 23.86z" transform="translate(109 70)"/>
            <path fill="url(#prefix__i)" fill-rule="nonzero" d="M333.98 91c1.756 1.125 2.87 3.019 3 5.1l-.27 89.04c0 1.86-1.32 2.61-3 1.68l-114.6-66c-1.76-1.121-2.875-3.018-3-5.1l.24-89.04c0-1.89 1.35-2.64 3-1.68l114.63 66z" transform="translate(109 70)"/>
            <g fill-rule="nonzero">
                <path fill="#004A91" d="M18.14 18.5L31.25 10.88 13.67 0.71 0.56 8.33z" opacity=".45" transform="translate(109 70) translate(333 334) translate(0 70)"/>
                <path fill="#004A91" d="M18.03 18.7L31.14 11.08 13.56 0.91 0.45 8.53z" opacity=".45" transform="translate(109 70) translate(333 334) translate(23 83)"/>
                <path fill="#004A91" d="M18.19 17.93L31.3 10.31 13.72 0.14 0.61 7.79z" opacity=".45" transform="translate(109 70) translate(333 334) translate(46 97)"/>
                <path fill="#004A91" d="M18.47 18.55L31.58 10.93 14 0.79 0.89 8.41z" opacity=".45" transform="translate(109 70) translate(333 334) translate(69 110)"/>
                <path fill="url(#prefix__j)" d="M21.14 86.49L34.25 78.87 34.43 10.23 21.32 17.85z" transform="translate(109 70) translate(333 334)"/>
                <path fill="#DAEBFF" d="M21.32 17.85L34.43 10.23 16.85 0.09 3.74 7.71z" transform="translate(109 70) translate(333 334)"/>
            </g>
            <g fill-rule="nonzero">
                <path fill="url(#prefix__k)" d="M18.12 99.51L31.23 91.89 31.47 10.95 18.36 18.57z" transform="translate(109 70) translate(359 334)"/>
                <path fill="#DAEBFF" d="M18.36 18.57L31.47 10.95 13.89 0.78 0.75 8.43z" transform="translate(109 70) translate(359 334)"/>
            </g>
            <g fill-rule="nonzero">
                <path fill="url(#prefix__l)" d="M18.37 55.95L31.48 48.33 31.6 10.53 18.49 18.18z" transform="translate(109 70) translate(382 391)"/>
                <path fill="#DAEBFF" d="M18.49 18.18L31.6 10.53 14.02 0.39 0.91 8.01z" transform="translate(109 70) translate(382 391)"/>
            </g>
            <g fill-rule="nonzero">
                <path fill="url(#prefix__m)" d="M87.98 119.45L101.09 111.83 101.21 51.62 88.1 59.24z" transform="translate(109 70) translate(336 341)"/>
                <path fill="#DAEBFF" d="M88.1 59.27L101.21 51.65 83.63 41.51 70.52 49.13z" transform="translate(109 70) translate(336 341)"/>
                <path fill="url(#prefix__n)" d="M70.52 49.13L70.4 109.31 87.98 119.45 88.1 59.27z" transform="translate(109 70) translate(336 341)"/>
                <path fill="url(#prefix__o)" d="M0.74 0.71L0.56 69.32 18.14 79.49 18.32 10.85z" transform="translate(109 70) translate(336 341)"/>
                <path fill="url(#prefix__p)" d="M23.75 1.43L23.54 82.34 41.12 92.51 41.36 11.57z" transform="translate(109 70) translate(336 341)"/>
                <path fill="url(#prefix__q)" d="M46.91 58.01L46.79 95.78 64.37 105.95 64.49 68.18z" transform="translate(109 70) translate(336 341)"/>
            </g>
            <path fill="#23359E" fill-rule="nonzero" d="M385.76 270.25c4.26 2.46-.3 6-4.5 8.52l-56.25 32.67c-4.803 2.462-10.497 2.462-15.3 0L256.67 280c-4.23-2.43-4.26-6.42 0-9l56.25-32.7c4.8-2.432 10.47-2.432 15.27 0l57.57 31.95z" opacity=".45" transform="translate(109 70)"/>
            <path fill="url(#prefix__r)" fill-rule="nonzero" d="M386.9 255.13l-21.36.3-34.86-20.61c-4.803-2.462-10.497-2.462-15.3 0l-37.65 21.87-21.75.3v14.79c.078 1.966 1.23 3.73 3 4.59l53.04 31.35c4.811 2.428 10.489 2.428 15.3 0l56.25-32.7c1.76-.84 2.913-2.582 3-4.53l.33-15.36z" transform="translate(109 70)"/>
            <path fill="url(#prefix__s)" fill-rule="nonzero" d="M383.69 250.9c4.23 2.43 4.26 6.39 0 9l-56.25 32.7c-4.811 2.428-10.489 2.428-15.3 0l-53.04-31.38c-4.23-2.43-4.26-6.39 0-9l56.25-32.67c4.803-2.462 10.497-2.462 15.3 0l53.04 31.35z" transform="translate(109 70)"/>
            <path fill="#57B156" fill-rule="nonzero" d="M285.77 254.44L320 234.61c1.683-.958 3.747-.958 5.43 0l32.04 18.57c.75.419 1.216 1.21 1.216 2.07 0 .86-.465 1.651-1.216 2.07L323.45 277c-2.217 1.287-4.953 1.287-7.17 0l-30.51-18c-.81-.473-1.31-1.341-1.31-2.28 0-.939.5-1.807 1.31-2.28z" transform="translate(109 70)"/>
            <g style="mix-blend-mode:screen" fill="#0D5FCF" fill-rule="nonzero">
                <path d="M12.43 16.06L9.25 17.92 9.25 10.15 12.43 8.29zM16.9 13.45L13.72 15.31 13.72 7.57 16.9 5.71zM21.37 10.84L18.19 12.7 18.19 4.96 21.37 3.1zM25.84 8.26L22.66 10.09 22.66 2.35 25.84.49zM7.48 16.15c0 .96-.51 1.77-1.14 1.77-.63 0-1.17-.81-1.17-1.77s.54-1.74 1.17-1.74c.63 0 1.14.78 1.14 1.74zM3.58 18.58c0 .96-.51 1.77-1.14 1.77-.63 0-1.14-.81-1.14-1.77s.51-1.74 1.14-1.74c.63 0 1.14.78 1.14 1.74z" transform="translate(109 70) translate(355 261)"/>
            </g>
            <path fill="url(#prefix__t)" fill-rule="nonzero" d="M386.9 229.21l-21.36.3-34.86-20.61c-4.803-2.462-10.497-2.462-15.3 0l-37.65 21.87-21.75.3v14.79c.078 1.966 1.23 3.73 3 4.59l53.22 31.35c4.803 2.462 10.497 2.462 15.3 0l56.25-32.7c1.764-.835 2.92-2.58 3-4.53l.15-15.36z" transform="translate(109 70)"/>
            <path fill="url(#prefix__u)" fill-rule="nonzero" d="M383.69 224.98c4.23 2.46 4.26 6.42 0 9l-56.25 32.7c-4.811 2.428-10.489 2.428-15.3 0l-52.98-31.5c-4.23-2.46-4.26-6.42 0-9l56.25-32.7c4.803-2.462 10.497-2.462 15.3 0l52.98 31.5z" transform="translate(109 70)"/>
            <path fill="#FFF" fill-rule="nonzero" d="M285.77 228.55L320 208.72c1.675-.989 3.755-.989 5.43 0l32.04 18.54c.749.427 1.211 1.223 1.211 2.085 0 .862-.462 1.658-1.211 2.085l-33.93 19.53c-2.212 1.306-4.958 1.306-7.17 0l-30.51-18c-.766-.463-1.24-1.286-1.26-2.18-.017-.895.424-1.736 1.17-2.23z" transform="translate(109 70)"/>
            <g style="mix-blend-mode:screen" fill="#0D5FCF" fill-rule="nonzero">
                <path d="M12.43 16.14L9.25 18 9.25 10.26 12.43 8.4zM16.9 13.53L13.72 15.39 13.72 7.65 16.9 5.79zM21.37 10.95L18.19 12.81 18.19 5.04 21.37 3.18zM25.84 8.34L22.66 10.2 22.66 2.46 25.84.6zM7.48 16.23c0 .99-.51 1.77-1.14 1.77-.63 0-1.17-.78-1.17-1.77s.54-1.74 1.17-1.74c.63 0 1.14.78 1.14 1.74zM3.58 18.69c0 .96-.51 1.74-1.14 1.74-.63 0-1.14-.78-1.14-1.74s.51-1.77 1.14-1.77c.63 0 1.14.78 1.14 1.77z" transform="translate(109 70) translate(355 235)"/>
            </g>
            <path fill="url(#prefix__v)" fill-rule="nonzero" d="M378.08 119.53h-113.1l19.2 109.98c.33 1.38.39 3 1.59 3.57l30.48 18c2.223 1.305 4.977 1.305 7.2 0l33.93-19.53c.575-.365 1.01-.915 1.23-1.56 5.07-22.5 19.47-110.46 19.47-110.46z" style="mix-blend-mode:overlay" transform="translate(109 70)"/>
            <path fill="#23359E" fill-rule="nonzero" d="M304.64 439.18l-77.49-44.73c-1.882-.972-4.118-.972-6 0l-113.85 66c-.739.243-1.238.932-1.238 1.71 0 .778.5 1.467 1.238 1.71l77.7 44.88c1.882.972 4.118.972 6 0l113.85-66.15c.728-.285 1.188-1.007 1.14-1.786-.047-.78-.593-1.44-1.35-1.634z" opacity=".45" style="mix-blend-mode:multiply" transform="translate(109 70)"/>
            <path fill="#004A91" fill-rule="nonzero" d="M309.23 436.99c-.058.136-.129.266-.21.39-.093.134-.204.256-.33.36-.076.086-.168.157-.27.21l-.27.18-113.85 66.18c-.256.15-.527.27-.81.36h-3.63l-.6-.18-.63-.3-77.76-44.49c-.692-.319-1.16-.982-1.23-1.74v3c.08.747.547 1.397 1.23 1.71l77.46 44.73c.202.108.413.198.63.27h4.23c.292-.089.574-.21.84-.36l114-66.18c.081-.032.153-.084.21-.15l.3-.21.24-.27v-.24c.003-.05.003-.1 0-.15.017-.08.017-.16 0-.24v-2.82c.143-.056.297-.076.45-.06z" transform="translate(109 70)"/>
            <path fill="#C1DEFF" fill-rule="nonzero" d="M308 434.86c.748.225 1.26.914 1.26 1.695s-.512 1.47-1.26 1.695l-113.85 66.18c-1.882.972-4.118.972-6 0l-77.28-44.73c-.739-.243-1.238-.932-1.238-1.71 0-.778.5-1.467 1.238-1.71l113.85-66c1.874-1.003 4.126-1.003 6 0L308 434.86zM224 293.38l.42-.21h.48c.056-.032.124-.032.18 0h.51l1.44.84-.6 2.13-112.14 66.15-.57.39-.18.15-.36.36-.45.54-.42.63-.36.69c-.093.235-.174.476-.24.72-.014.21-.014.42 0 .63-.015.22-.015.44 0 .66l-2.19 88.98-1.41-.81c-.614-.424-.947-1.148-.87-1.89l-.27-89.04c-.013-.19-.013-.38 0-.57V363.79v-1.65c-.01-.07-.01-.14 0-.21-.01-.09-.01-.18 0-.27l.15-.24.24-.3.24-.24.18-.15.57-.39L224 293.38z" transform="translate(109 70)"/>
            <path fill="#004A91" fill-rule="nonzero" d="M225.53 294.19c1.65-.93 3-.18 3 1.71l.24 89.01c-.095 2.092-1.218 4-3 5.1L111.2 456.16c-1.62.96-3 .21-3-1.68l-.27-89.01c.12-2.084 1.237-3.982 3-5.1l114.6-66.18zm-.36 81.63l-.21-70.35c0-2.19-1.56-3-3.45-1.98l-106.5 61.47c-2.037 1.335-3.309 3.567-3.42 6l.18 70.35c0 2.19 1.56 3 3.45 1.98l106.5-61.47c2.044-1.332 3.327-3.563 3.45-6" transform="translate(109 70)"/>
            <path fill="#FFF" fill-rule="nonzero" d="M225.17 375.82c-.123 2.437-1.406 4.668-3.45 6l-64.62 37.26-42 24.18c-1.89 1.11-3.45.21-3.45-1.98l-.18-70.35c.111-2.433 1.383-4.665 3.42-6l52.5-30.3 54-31.17c1.89-1.11 3.45-.24 3.45 1.98l.33 70.38z" transform="translate(109 70)"/>
            <path fill="#004A91" fill-rule="nonzero" d="M234.8 400l-4.95 3c-.184.1-.39.15-.6.15-.21.005-.417-.047-.6-.15l-3.84-2.22v-.18-.18l4.98-3c.187-.048.383-.048.57 0 .197-.05.403-.05.6 0l3.84 2.22s.18.15.18.21-.09-.06-.18.15zM227.99 403.72c.015.059.015.121 0 .18l-4.98 3c-.174.1-.37.15-.57.15-.21.005-.417-.047-.6-.15l-3.84-2.22v-.18-.18l4.98-3c.187-.048.383-.048.57 0 .197-.05.403-.05.6 0l3.84 2.22v.18zM221 407.83v.18l-4.98 3c-.187.048-.383.048-.57 0-.197.05-.403.05-.6 0l-3.84-2.22v-.18c-.025-.068-.025-.142 0-.21l4.98-3c.187-.048.383-.048.57 0 .197-.05.403-.05.6 0l3.84 2.22v.21zM213.71 412c-.022.095-.09.173-.18.21l-4.95 3c-.197.05-.403.05-.6 0-.197.048-.403.048-.6 0l-3.81-2.22c-.082-.034-.146-.098-.18-.18l.18-.18 4.95-3c.197-.05.403-.05.6 0 .187-.048.383-.048.57 0l3.84 2.22c.076.026.14.08.18.15zM206.6 416.14l-.18.18-4.95 3c-.198.037-.402.037-.6 0-.199.034-.401.034-.6 0l-3.81-2.22c-.082-.034-.146-.098-.18-.18.022-.095.09-.173.18-.21l4.95-3c.183-.103.39-.155.6-.15.2 0 .396.05.57.15l3.84 2.22s.18.15.18.21zM199.49 420.28l-.18.18-4.95 3c-.374.203-.826.203-1.2 0l-3.84-2.19v-.21-.18l4.98-3c.174-.1.37-.15.57-.15.21-.005.417.047.6.15l3.84 2.22s.18.12.18.18zM192.38 424.42l-.18.18-4.98 3c-.172.102-.37.154-.57.15-.21.005-.417-.047-.6-.15l-3.84-2.22v-.18-.18l4.98-3c.183-.103.39-.155.6-.15.2 0 .396.05.57.15l3.84 2.19s.18.15.18.21zM185.24 428.56c.015.059.015.121 0 .18l-4.98 3c-.174.1-.37.15-.57.15-.21.005-.417-.047-.6-.15l-3.84-2.22v-.18-.18l4.98-3c.188-.034.382-.034.57 0 .198-.037.402-.037.6 0l3.84 2.22c.018.059.018.121 0 .18zM178.13 432.67c.025.068.025.142 0 .21l-4.98 3c-.187.048-.383.048-.57 0-.197.05-.403.05-.6 0l-3.84-2.22c-.023-.058-.023-.122 0-.18-.025-.068-.025-.142 0-.21l4.98-3c.187-.048.383-.048.57 0 .197-.05.403-.05.6 0l3.84 2.22c.023.058.023.122 0 .18zM171.02 436.81l-.18.21-4.98 3c-.187.051-.383.051-.57 0-.197.05-.403.05-.6 0l-3.69-2.34v-.18-.18l4.98-3c.197-.05.403-.05.6 0 .187-.048.383-.048.57 0l3.84 2.22s.03.21.03.27zM240.68 403.24L224 412.96c-.174.1-.37.15-.57.15-.21.005-.417-.047-.6-.15l-3.84-2.22v-.18c-.023-.058-.023-.122 0-.18l16.77-9.75c.187-.048.383-.048.57 0 .197-.05.403-.05.6 0l3.81 2.22s.18.15.18.18-.12.12-.24.21zM211.76 414.55l4.95-3c.384-.16.816-.16 1.2 0l3.81 2.22s.18 0 .18.18 0 0-.18.21l-4.95 3c-.384.16-.816.16-1.2 0l-3.81-2.22s-.18 0-.18-.18c-.001-.105.076-.195.18-.21zM204.65 418.66l4.95-3c.197-.052.403-.052.6 0 .198-.044.402-.044.6 0l3.81 2.22c.1 0 .18.08.18.18 0 .1-.08.18-.18.18l-4.95 3c-.197.048-.403.048-.6 0-.198.037-.402.037-.6 0l-3.81-2.22c-.082-.034-.146-.098-.18-.18.03-.084.096-.15.18-.18zM197.51 422.8l4.98-3c.197-.052.403-.052.6 0 .187-.048.383-.048.57 0l3.84 2.22s.18 0 .18.18c-.034.082-.098.146-.18.18l-4.98 3c-.187.048-.383.048-.57 0-.197.052-.403.052-.6 0l-3.84-2.19v-.21c-.023-.058-.023-.122 0-.18zM190.4 427l4.98-3c.183-.103.39-.155.6-.15.2 0 .396.05.57.15l3.84 2.19s.18.15.18.21 0 0-.18.18l-4.98 3c-.187.048-.383.048-.57 0-.197.052-.403.052-.6 0l-3.84-2.22v-.18c0-.18-.09-.18 0-.18zM183.29 431.08l4.98-3c.188-.034.382-.034.57 0 .198-.037.402-.037.6 0l3.84 2.22v.39l-4.98 3c-.174.1-.37.15-.57.15-.21.005-.417-.047-.6-.15l-3.84-2.22c-.078-.03-.135-.098-.15-.18 0 0 .03-.15.15-.21zM175.64 435.64l4.98-3c.197-.05.403-.05.6 0 .187-.048.383-.048.57 0l3.84 2.22s.15 0 .15.18c-.016.089-.07.166-.15.21l-4.98 3c-.187.048-.383.048-.57 0-.197.05-.403.05-.6 0l-3.84-2.25v-.18c0-.18-.09-.12 0-.18zM168.53 439.75l4.98-3c.197-.052.403-.052.6 0 .187-.048.383-.048.57 0l3.84 2.22v.36l-4.98 3c-.187.048-.383.048-.57 0-.197.05-.403.05-.6 0l-3.84-2.22s-.15 0-.15-.18c.024-.078.078-.143.15-.18zM161 443.89l4.98-3c.187-.048.383-.048.57 0 .197-.052.403-.052.6 0l3.84 2.19v.39l-4.98 3c-.197.052-.403.052-.6 0-.187.048-.383.048-.57 0l-3.84-2.22s-.18 0-.18-.18c.034-.082.098-.146.18-.18zM246.59 406.63l-5.37 3c-.183.103-.39.155-.6.15-.2 0-.396-.05-.57-.15l-3.84-2.19s-.18-.15-.18-.21l.18-.18 5.37-3c.187-.048.383-.048.57 0 .197-.05.403-.05.6 0l3.84 2.22c.023.058.023.122 0 .18 0 0 .12.12 0 .18zM228.8 411.49l5.37-3c.197-.052.403-.052.6 0 .187-.048.383-.048.57 0l3.84 2.19c.025.068.025.142 0 .21.015.059.015.121 0 .18l-5.37 3c-.197.05-.403.05-.6 0-.187.048-.383.048-.57 0L228.8 412c-.082-.034-.146-.098-.18-.18 0 0 .06-.27.18-.33zM258.32 413.41l-3.78 2.19c-.174.1-.37.15-.57.15-.21.005-.417-.047-.6-.15l-9.66-5.58c-.082-.034-.146-.098-.18-.18.022-.095.09-.173.18-.21l3.75-2.16c.183-.103.39-.155.6-.15.209.004.414.055.6.15l9.66 5.58v.18c.023.058.023.122 0 .18zM242 410.74c.197-.052.403-.052.6 0l3.84 2.19c.025.068.025.142 0 .21v.18l-6.36 3.78c-.197.048-.403.048-.6 0-.197.05-.403.05-.6 0l-3.84-2.22v-.18c-.025-.068-.025-.142 0-.21l6.39-3.75c.187-.048.383-.048.57 0zM214.19 419.92l4.95-3c.184-.1.39-.15.6-.15.21-.005.417.047.6.15l3.84 2.22v.36l-4.98 3c-.188.034-.382.034-.57 0-.21.005-.417-.047-.6-.15l-3.84-2.19s-.18-.15-.18-.21.09.03.18-.03z" transform="translate(109 70)"/>
            <path fill="#004A91" fill-rule="nonzero" d="M227 412.72c.198-.044.402-.044.6 0l9.69 5.58c.025.068.025.142 0 .21v.18l-9.84 5.73c-.188.034-.382.034-.57 0-.197.052-.403.052-.6 0l-3.84-2.19s-.18 0-.18-.21l.18-.18 4.53-2.64-5.52-3.18c-.09-.037-.158-.115-.18-.21l.15-.18 4.98-3c.204-.023.411.008.6.09zM207.08 424l4.95-3c.184-.1.39-.15.6-.15.21-.005.417.047.6.15l3.84 2.19c.025.068.025.142 0 .21v.18l-4.98 3c-.183.103-.39.155-.6.15-.2 0-.396-.05-.57-.15l-3.84-2.19s-.18-.15-.18-.21.06-.18.18-.18zM200 428.2l4.95-3c.183-.103.39-.155.6-.15.21 0 .416.05.6.15l3.81 2.19c.09.037.158.115.18.21l-.18.18-4.95 3c-.183.103-.39.155-.6.15-.21 0-.416-.05-.6-.15l-3.81-2.22s-.18 0-.18-.18.18-.12.18-.18zM192.86 432.34l4.95-3c.197-.05.403-.05.6 0 .197-.048.403-.048.6 0l3.81 2.22s.18 0 .18.18c-.022.095-.09.173-.18.21l-4.95 3c-.197.05-.403.05-.6 0-.187.048-.383.048-.57 0l-3.84-2.22c-.082-.034-.146-.098-.18-.18-.001-.105.076-.195.18-.21zM185.72 436.45l4.98-3c.197-.05.403-.05.6 0 .197-.045.403-.045.6 0l3.81 2.22s.18 0 .18.18 0 0-.18.18l-4.95 3c-.197.048-.403.048-.6 0-.197.05-.403.05-.6 0l-3.81-2.22s-.18 0-.18-.18c.024-.078.078-.143.15-.18zM178.61 440.59l4.98-3c.187-.048.383-.048.57 0 .197-.052.403-.052.6 0l3.84 2.22c.082.034.146.098.18.18l-.18.18-4.95 3c-.374.203-.826.203-1.2 0l-3.81-2.19s-.18 0-.18-.21.06-.12.15-.18zM171.5 444.73l4.95-3c.197-.052.403-.052.6 0 .197-.048.403-.048.6 0l3.81 2.22s.18 0 .18.18 0 0-.18.18l-4.95 3c-.197.05-.403.05-.6 0-.187.048-.383.048-.57 0L171.5 445s-.18 0-.18-.21c.053-.037.115-.058.18-.06zM225.41 425.62v.18l-4.98 3c-.183.103-.39.155-.6.15-.2 0-.396-.05-.57-.15l-3.84-2.19s-.18-.15-.18-.21 0 0 .18-.18l4.98-3c.174-.1.37-.15.57-.15.21-.005.417.047.6.15l3.84 2.19c.025.068.025.142 0 .21zM207.98 430.42l.18-.18 4.95-3c.183-.103.39-.155.6-.15.21 0 .416.05.6.15l3.81 2.19s.18.15.18.21v.18l-4.98 3c-.183.103-.39.155-.6.15-.2 0-.396-.05-.57-.15l-3.84-2.22s-.33-.12-.33-.18zM211.01 434.08l-4.95 3c-.197.05-.403.05-.6 0-.197.045-.403.045-.6 0l-3.81-2.22s-.18 0-.18-.18 0 0 .18-.18l4.95-3c.197-.048.403-.048.6 0 .197-.05.403-.05.6 0l3.81 2.22s.18 0 .18.18c-.03.084-.096.15-.18.18zM203.9 438.19l-4.95 3c-.384.16-.816.16-1.2 0L194 439s-.18 0-.18-.18c.022-.095.09-.173.18-.21l4.95-3c.197-.05.403-.05.6 0 .187-.048.383-.048.57 0l3.84 2.22s.18 0 .18.18c-.007.056-.037.107-.082.14-.045.034-.102.049-.158.04zM196.79 442.33l-4.95 3c-.183.103-.39.155-.6.15-.21 0-.416-.05-.6-.15l-3.81-2.19s-.18-.15-.18-.21v-.18l4.98-3c.183-.103.39-.155.6-.15.2 0 .396.05.57.15l3.84 2.22c.082.034.146.098.18.18 0 0 .18.12-.03.18zM189.65 446.47l-4.95 3c-.197.05-.403.05-.6 0-.197.045-.403.045-.6 0l-3.81-2.22c-.082-.034-.146-.098-.18-.18.022-.095.09-.173.18-.21l4.95-3c.197-.048.403-.048.6 0 .197-.052.403-.052.6 0l3.81 2.22s.18 0 .18.18-.06.15-.18.21zM182.57 450.61l-4.98 3c-.197.052-.403.052-.6 0-.198.044-.402.044-.6 0l-3.81-2.19s-.18 0-.18-.21 0 0 .18-.18l4.95-3c.197-.052.403-.052.6 0 .197-.048.403-.048.6 0l3.81 2.19s.18 0 .18.21-.06.12-.15.18zM248 414.13c.198-.037.402-.037.6 0l3.84 2.22v.39l-5.37 3c-.197.048-.403.048-.6 0-.197.05-.403.05-.6 0l-3.81-2.22s-.18 0-.18-.18 0 0 .18-.21l5.37-3c.188-.034.382-.034.57 0zM233 422.71v-.18l6.57-3.81c.174-.1.37-.15.57-.15.21-.005.417.047.6.15l3.84 2.22v.36l-6.54 3.81c-.197.048-.403.048-.6 0-.197.052-.403.052-.6 0l-3.81-2.22s-.03-.12-.03-.18zM228.8 430.54l-4.98 3c-.183.103-.39.155-.6.15-.2 0-.396-.05-.57-.15l-3.84-2.22s-.18 0-.18-.18 0 0 .18-.18l4.95-3c.199-.034.401-.034.6 0 .198-.037.402-.037.6 0l3.84 2.22c.069.042.121.105.15.18-.024.078-.078.143-.15.18zM221.66 434.68l-4.95 3c-.197.05-.403.05-.6 0-.197.048-.403.048-.6 0l-3.81-2.22s-.18 0-.18-.18c.013-.094.086-.167.18-.18l4.95-3c.197-.05.403-.05.6 0 .197-.048.403-.048.6 0l3.81 2.22s.18 0 .18.18c-.03.084-.096.15-.18.18zM214.55 438.79l-4.95 3c-.197.05-.403.05-.6 0-.187.048-.383.048-.57 0l-3.84-2.22s-.18 0-.18-.21c.034-.082.098-.146.18-.18l4.95-3c.197-.052.403-.052.6 0 .197-.048.403-.048.6 0l3.81 2.22s.18 0 .18.18-.06.15-.18.21zM207.44 442.93l-4.95 3c-.199.034-.401.034-.6 0-.197.052-.403.052-.6 0l-3.81-2.19c-.09-.037-.158-.115-.18-.21l.15-.18 4.98-3c.197-.052.403-.052.6 0 .198-.044.402-.044.6 0l3.81 2.22s.18 0 .18.18-.06.12-.18.18zM200.33 447.07l-4.95 3c-.374.203-.826.203-1.2 0l-3.81-2.22c-.15 0-.18 0-.18-.18v-.18l4.98-3c.174-.1.37-.15.57-.15.21-.005.417.047.6.15l3.84 2.19s.18.15.18.21.09.12-.03.18zM193.19 451.21l-4.95 3c-.183.103-.39.155-.6.15-.2 0-.396-.05-.57-.15l-3.84-2.19s-.18-.15-.18-.21 0 0 .18-.18l4.95-3c.183-.103.39-.155.6-.15.21 0 .416.05.6.15l3.81 2.22s.18 0 .18.18-.06.12-.18.18zM186.08 455.35l-4.95 3c-.183.103-.39.155-.6.15-.21 0-.416-.05-.6-.15l-3.93-2.34s-.18 0-.18-.18 0 0 .18-.18l4.95-3c.183-.103.39-.155.6-.15.21 0 .416.05.6.15l3.81 2.19c.09.037.158.115.18.21 0 0 .06.24-.06.3zM255.26 416.59l.18-.18 3.75-2.19c.197-.05.403-.05.6 0 .197-.045.403-.045.6 0l9.69 5.61s.18 0 .18.21c-.034.082-.098.146-.18.18l-3.75 2.19c-.197.05-.403.05-.6 0-.187.048-.383.048-.57 0l-9.72-5.61s-.18-.15-.18-.21zM254 417.43c.2 0 .396.05.57.15l3.84 2.22s.18 0 .18.18 0 0-.18.18l-5.67 3.3c-.183.103-.39.155-.6.15-.2 0-.396-.05-.57-.15l-3.84-2.22v-.18-.18l5.67-3.3c.183-.103.39-.155.6-.15zM250.61 424.72l-2.82 1.65c-.197.05-.403.05-.6 0-.187.048-.383.048-.57 0l-3.84-2.22s-.18 0-.18-.18c.022-.095.09-.173.18-.21l2.79-1.62c.197-.048.403-.048.6 0 .197-.052.403-.052.6 0l3.84 2.22v.18c0 .18.09.12 0 .18zM245.42 427.75l-3 1.71c-.197.045-.403.045-.6 0-.197.05-.403.05-.6 0l-3.84-2.22v-.18-.21l3-1.68c.197-.052.403-.052.6 0 .197-.048.403-.048.6 0l3.81 2.19c.15 0 .18 0 .18.21s-.06.12-.15.18zM240.23 430.75l-8.16 4.74c-.197.052-.403.052-.6 0-.187.048-.383.048-.57 0l-3.9-2.19s-.18 0-.18-.21 0 0 .18-.18l8.13-4.74c.197-.05.403-.05.6 0 .197-.048.403-.048.6 0l3.81 2.22s.18 0 .18.18 0 .12-.09.18zM230 436.75l-4.98 3c-.197.052-.403.052-.6 0-.187.048-.383.048-.57 0l-3.84-2.22c-.082-.034-.146-.098-.18-.18l.18-.18 4.95-3c.198-.037.402-.037.6 0 .197-.048.403-.048.6 0l3.81 2.19s.18 0 .18.21c-.029.075-.081.138-.15.18zM222.8 440.89l-4.95 3c-.197.05-.403.05-.6 0-.187.048-.383.048-.57 0l-3.84-2.22s-.18 0-.18-.18c.022-.095.09-.173.18-.21l4.95-3c.384-.16.816-.16 1.2 0l3.81 2.22s.18 0 .18.18c-.022.095-.09.173-.18.21zM215.69 445l-4.95 3c-.197.048-.403.048-.6 0-.197.05-.403.05-.6 0l-3.81-2.22c-.082-.034-.146-.098-.18-.18.022-.095.09-.173.18-.21l4.95-3c.197-.052.403-.052.6 0 .198-.044.402-.044.6 0l3.81 2.22s.18 0 .18.18-.06.21-.18.21zM208.58 449.14l-4.95 3c-.197.052-.403.052-.6 0-.197.048-.403.048-.6 0l-3.81-2.19c-.15 0-.18-.15-.18-.21v-.18l4.98-3c.183-.103.39-.155.6-.15.2 0 .396.05.57.15l3.84 2.22s.18 0 .18.18.09.12-.03.18zM201.44 453.28l-4.95 3c-.198.037-.402.037-.6 0-.188.034-.382.034-.57 0l-3.84-2.22c-.09-.037-.158-.115-.18-.21l.18-.18 4.95-3c.183-.103.39-.155.6-.15.21 0 .416.05.6.15l3.81 2.22s.18 0 .18.18-.06.15-.18.21zM194.36 457.42l-4.98 3c-.183.103-.39.155-.6.15-.2 0-.396-.05-.57-.15l-3.84-2.19s-.18-.15-.18-.21 0 0 .18-.18l4.95-3c.183-.103.39-.155.6-.15.21 0 .416.05.6.15l3.81 2.19s.18.15.18.21-.06.12-.15.18zM187.22 461.56l-4.95 3c-.374.203-.826.203-1.2 0l-3.81-2.22s-.18-.15-.18-.18v-.18l4.98-3c.197-.052.403-.052.6 0 .197-.048.403-.048.6 0l3.81 2.19c.09.037.158.115.18.21.007.062-.003.124-.03.18zM155.9 474.25l4.98-3c.187-.048.383-.048.57 0 .197-.052.403-.052.6 0l3.84 2.22s.18 0 .18.18 0 0-.18.18l-4.98 3c-.187.048-.383.048-.57 0-.197.052-.403.052-.6 0l-3.84-2.19c-.025-.068-.025-.142 0-.21 0 0-.09-.12 0-.18zM251.87 425.41c-.025-.068-.025-.142 0-.21l4.98-3c.187-.048.383-.048.57 0 .197-.05.403-.05.6 0l3.84 2.22c.023.058.023.122 0 .18v.18l-4.98 3c-.187.048-.383.048-.57 0-.197.05-.403.05-.6 0l-3.84-2.22v-.15zM244.76 429.52v-.18l4.98-3c.187-.048.383-.048.57 0 .197-.052.403-.052.6 0l3.84 2.19c.025.068.025.142 0 .21v.18l-4.98 3c-.174.1-.37.15-.57.15-.21.005-.417-.047-.6-.15l-3.84-2.19c-.025-.068-.025-.142 0-.21zM237.56 433.69c.034-.082.098-.146.18-.18l4.95-3c.183-.103.39-.155.6-.15.2 0 .396.05.57.15l3.84 2.22c.082.034.146.098.18.18l-.18.18-4.95 3c-.198.037-.402.037-.6 0-.21 0-.416-.05-.6-.15l-3.81-2.19c-.065 0-.128-.021-.18-.06zM230.45 437.83v-.18l4.98-3c.183-.103.39-.155.6-.15.21 0 .416.05.6.15l3.81 2.19c.09.037.158.115.18.21l-.18.18-4.95 3c-.183.103-.39.155-.6.15-.21 0-.416-.05-.6-.15l-3.81-2.19c-.035-.064-.046-.139-.03-.21zM194.87 458.53c-.025-.068-.025-.142 0-.21l33.6-19.32c.183-.103.39-.155.6-.15.2 0 .396.05.57.15l3.84 2.19s.18.15.18.21 0 0-.18.18L200 460.93c-.197.048-.403.048-.6 0-.197.05-.403.05-.6 0l-3.84-2.22s-.09-.15-.09-.18zM187.76 462.64v-.18l4.98-3c.183-.103.39-.155.6-.15.2 0 .396.05.57.15l3.84 2.19s.18 0 .18.21 0 0-.18.18l-4.95 3c-.197.048-.403.048-.6 0-.197.052-.403.052-.6 0L188 463c-.08-.014-.151-.06-.197-.129-.045-.068-.06-.151-.043-.231zM180.65 466.78v-.18l4.98-3c.174-.1.37-.15.57-.15.21-.005.417.047.6.15l3.84 2.19v.39l-4.98 3c-.174.1-.37.15-.57.15-.21.005-.417-.047-.6-.15l-3.84-2.22v-.18zM173.54 470.92v-.18l4.98-3c.188-.034.382-.034.57 0 .197-.05.403-.05.6 0l3.84 2.22c.015.059.015.121 0 .18.025.068.025.142 0 .21l-4.98 3c-.174.1-.37.15-.57.15-.21.005-.417-.047-.6-.15l-3.84-2.22v-.21zM166.4 475l.18-.18 4.95-3c.197-.048.403-.048.6 0 .197-.05.403-.05.6 0l3.81 2.22s.18 0 .18.18c.025.068.025.142 0 .21l-4.98 3c-.197.05-.403.05-.6 0-.197.045-.403.045-.6 0l-3.81-2.22-.33-.21zM160.58 478.36l3.84-2.25c.184-.1.39-.15.6-.15.21-.005.417.047.6.15l3.81 2.22s.18 0 .18.18 0 0-.15.18l-3.87 2.25c-.174.1-.37.15-.57.15-.21.005-.417-.047-.6-.15l-3.84-2.22v-.18c0-.18-.09-.12 0-.18zM164 440.95l-.18.18-4.95 3c-.384.16-.816.16-1.2 0l-3.84-2.22v-.18c-.025-.068-.025-.142 0-.21l4.98-3c.187-.048.383-.048.57 0 .197-.05.403-.05.6 0l3.84 2.22c.088.04.154.117.18.21zM156.77 445v.18l-4.98 3c-.188.034-.382.034-.57 0-.197.052-.403.052-.6 0l-3.84-2.19v-.21c-.015-.059-.015-.121 0-.18l4.98-3c.187-.048.383-.048.57 0 .197-.052.403-.052.6 0l3.84 2.22c.023.058.023.122 0 .18zM149.66 449.23v.18l-4.98 3c-.187.048-.383.048-.57 0-.197.052-.403.052-.6 0l-3.84-2.19c-.025-.068-.025-.142 0-.21v-.18l4.98-3c.174-.1.37-.15.57-.15.21-.005.417.047.6.15l3.84 2.19c.025.068.025.142 0 .21zM142.55 453.37v.18l-4.98 3c-.174.1-.37.15-.57.15-.21.005-.417-.047-.6-.15l-3.84-2.22c-.082-.034-.146-.098-.18-.18l.18-.18 4.95-3c.374-.203.826-.203 1.2 0l3.81 2.19s.03.15.03.21zM125.3 457.99l4.95-3c.197-.048.403-.048.6 0 .197-.05.403-.05.6 0l3.81 2.22s.18 0 .18.18c.025.068.025.142 0 .21l-4.98 3c-.197.05-.403.05-.6 0-.187.048-.383.048-.57 0l-3.84-2.22s-.18 0-.18-.18-.09-.15.03-.21zM153.74 448l4.98-3c.183-.103.39-.155.6-.15.2 0 .396.05.57.15l3.84 2.22s.18 0 .18.18c-.034.082-.098.146-.18.18l-4.98 3c-.187.048-.383.048-.57 0-.197.052-.403.052-.6 0l-3.84-2.19c-.025-.068-.025-.142 0-.21-.015-.059-.015-.121 0-.18zM151.04 455.05c-.187.048-.383.048-.57 0l-3.84-2.19c-.025-.068-.025-.142 0-.21-.023-.058-.023-.122 0-.18l4.98-3c.187-.048.383-.048.57 0 .197-.052.403-.052.6 0l3.84 2.19v.21c.023.058.023.122 0 .18l-4.98 3c-.197.052-.403.052-.6 0zM143.63 459.46c-.198.044-.402.044-.6 0l-3.81-2.46c-.082-.034-.146-.098-.18-.18l.18-.18 4.95-3c.198-.037.402-.037.6 0 .199-.031.401-.031.6 0l3.81 2.22s.18 0 .18.21c-.034.082-.098.146-.18.18l-4.95 3c-.177.124-.384.197-.6.21zM131.36 461.2l4.95-3c.183-.103.39-.155.6-.15.2 0 .396.05.57.15l3.84 2.22s.18 0 .18.18 0 0-.18.18l-4.95 3c-.184.1-.39.15-.6.15-.198.037-.402.037-.6 0l-3.81-2.22c-.082-.034-.146-.098-.18-.18 0 0 .03-.24.18-.33zM168.8 451.6c-.197.048-.403.048-.6 0l-3.81-2.19c-.09-.037-.158-.115-.18-.21l.18-.18 4.95-3c.183-.103.39-.155.6-.15.21 0 .416.05.6.15l3.81 2.22s.18 0 .18.18 0 0-.18.18l-4.95 3c-.197.052-.403.052-.6 0zM161.69 455.74c-.21 0-.416-.05-.6-.15l-3.81-2.19c-.15 0-.18-.15-.18-.21v-.18l4.98-3c.174-.1.37-.15.57-.15.21-.005.417.047.6.15l3.84 2.19s.18.15.18.21 0 0-.18.18l-4.95 3c-.14.078-.292.129-.45.15zM149.99 457.33v-.18l4.98-3c.198-.037.402-.037.6 0 .199-.031.401-.031.6 0l3.81 2.22c.082.034.146.098.18.18-.022.095-.09.173-.18.21l-4.95 3c-.184.1-.39.15-.6.15-.21.005-.417-.047-.6-.15l-3.81-2.22s-.03-.15-.03-.21zM137 464.77l10.86-6.33c.197-.05.403-.05.6 0 .197-.048.403-.048.6 0l3.81 2.22s.18.15.18.18c.025.068.025.142 0 .21l-10.86 6.3c-.184.1-.39.15-.6.15-.21.005-.417-.047-.6-.15l-3.99-2.22s-.18 0-.18-.18.18-.12.18-.18zM165.29 455.23v-.18l4.98-3c.197-.052.403-.052.6 0 .187-.051.383-.051.57 0l3.84 2.19c.09.037.158.115.18.21l-.18.18-4.95 3c-.197.052-.403.052-.6 0-.197.048-.403.048-.6 0l-3.81-2.22s-.03-.12-.03-.18zM158.18 459.37l.18-.18 4.95-3c.197-.05.403-.05.6 0 .187-.048.383-.048.57 0l3.84 2.22c.09.037.158.115.18.21-.034.082-.098.146-.18.18l-4.95 3c-.376.197-.824.197-1.2 0l-3.84-2.22s-.15-.15-.15-.21zM161.21 463l-4.98 3c-.187.051-.383.051-.57 0-.197.05-.403.05-.6 0l-3.84-2.22c-.023-.058-.023-.122 0-.18-.025-.068-.025-.142 0-.21l4.98-3c.187-.048.383-.048.57 0 .197-.05.403-.05.6 0l3.84 2.22c.082.034.146.098.18.18 0 0-.09.21-.18.21zM143 468.16l6.18-3.6c.183-.103.39-.155.6-.15.2 0 .396.05.57.15l3.84 2.22s.18 0 .18.18 0 0-.18.18l-6.18 3.6c-.187.048-.383.048-.57 0-.197.05-.403.05-.6 0l-3.84-2.22v-.18c0-.18-.18-.12 0-.18zM179 459.49l-4.95 3c-.376.197-.824.197-1.2 0l-3.81-2.22s-.18-.15-.18-.18v-.18l4.98-3c.187-.048.383-.048.57 0 .21-.005.417.047.6.15l3.84 2.19s.18.15.18.21l-.03.03zM161.72 464.11c.016-.089.07-.166.15-.21l4.98-3c.197-.05.403-.05.6 0 .197-.045.403-.045.6 0l3.81 2.22s.18 0 .18.18c-.022.095-.09.173-.18.21l-4.95 3c-.197.048-.403.048-.6 0-.197.05-.403.05-.6 0l-3.81-2.22s-.18-.12-.18-.18zM148.76 471.52l10.86-6.3c.183-.103.39-.155.6-.15.21 0 .416.05.6.15l3.84 2.22c.023.058.023.122 0 .18v.18l-10.86 6.33c-.197.048-.403.048-.6 0-.197.05-.403.05-.6 0l-3.81-2.13c-.082-.034-.146-.098-.18-.18-.016-.121.044-.24.15-.3zM180.11 465.7l-4.95 3c-.197.048-.403.048-.6 0-.197.05-.403.05-.6 0l-3.81-2.22s-.18 0-.18-.18c-.045-.098-.033-.213.03-.3l4.98-3c.197-.05.403-.05.6 0 .197-.045.403-.045.6 0l3.81 2.22s.18 0 .18.18c.036.103.013.218-.06.3zM173 469.81l-4.98 3c-.187.048-.383.048-.57 0-.197.05-.403.05-.6 0l-3.81-2.22c-.15 0-.18-.15-.18-.18-.025-.068-.025-.142 0-.21l4.98-3c.187-.048.383-.048.57 0 .197-.05.403-.05.6 0l3.84 2.22c.082.034.146.098.18.18 0 0-.03.15-.03.21zM236 426.4l-4.98 3c-.174.1-.37.15-.57.15-.21.005-.417-.047-.6-.15l-3.84-2.19s-.18-.15-.18-.21 0 0 .18-.18l4.95-3c.184-.1.39-.15.6-.15.21-.005.417.047.6.15l3.84 2.22v.36z" transform="translate(109 70)"/>
            <path fill="#FFF" fill-rule="nonzero" d="M254.96 457.45c.61.249 1.008.842 1.008 1.5s-.398 1.251-1.008 1.5L235.43 472c-1.674.826-3.636.826-5.31 0l-15-8.73c-1.47-.87-1.5-2.25 0-3l19.53-11.34c1.663-.87 3.647-.87 5.31 0l15 8.52z" opacity=".57" transform="translate(109 70)"/>
            <path fill="#C1DEFF" fill-rule="nonzero" d="M148.04 361v53.79c0 .785-.424 1.508-1.11 1.89L122 431.14c-.674.368-1.49.357-2.154-.03-.663-.387-1.075-1.092-1.086-1.86l-.18-53.76c0-.792.424-1.524 1.11-1.92l25.26-14.37c.646-.31 1.403-.28 2.022.08.62.361 1.02 1.005 1.068 1.72z" transform="translate(109 70)"/>
            <path stroke="#C1DEFF" stroke-linecap="round" stroke-linejoin="round" stroke-width=".75" d="M219.83 375.67L152.66 413.92 152.51 355.15" transform="translate(109 70)"/>
            <path fill="#3878FF" fill-rule="nonzero" d="M155.24 411.76c.9-4.44-1.86-41.25 16.02-30.33 7.56 4.62 4.14-26.76 13.14-29.25 5.76-1.59 9.72 14.79 13.14 13.89 3.42-.9 6.93-23.73 13.56-28.65 9-6.75 7.74 38.37 7.74 38.37l-63.6 35.97z" transform="translate(109 70)"/>
            <path stroke="#C1DEFF" stroke-linecap="round" stroke-linejoin="round" stroke-width=".75" d="M168.68 404.68L168.5 345.91M183.14 396.04L182.96 337.27M197.6 387.37L197.42 328.63M212.03 378.73L211.88 319.99" transform="translate(109 70)"/>
            <path fill="#23359E" fill-rule="nonzero" d="M141.92 268.6c4.26 2.46-.3 6-4.5 8.52l-56.25 32.7c-4.811 2.428-10.489 2.428-15.3 0l-53.01-31.38c-4.26-2.43-4.26-6.39 0-9l56.19-32.52c4.803-2.462 10.497-2.462 15.3 0l57.57 31.68z" opacity=".45" transform="translate(109 70)"/>
            <path fill="url(#prefix__w)" fill-rule="nonzero" d="M143.81 253.54l-21.36.3-34.89-20.61c-4.792-2.462-10.478-2.462-15.27 0L34.64 255.1l-21.75.3v14.79c.078 1.966 1.23 3.73 3 4.59l53.04 31.35c4.811 2.428 10.489 2.428 15.3 0l56.25-32.7c1.764-.835 2.92-2.58 3-4.53l.33-15.36z" transform="translate(109 70)"/>
            <path fill="#94CC85" fill-rule="nonzero" d="M140.6 249.31c4.23 2.43 4.26 6.39 0 9l-56.25 32.7c-4.811 2.428-10.489 2.428-15.3 0l-52.98-31.5c-4.23-2.46-4.26-6.42 0-9l56.22-32.55c4.792-2.462 10.478-2.462 15.27 0l53.04 31.35z" transform="translate(109 70)"/>
            <path fill="url(#prefix__g)" fill-rule="nonzero" d="M140.6 249.31c4.23 2.43 4.26 6.39 0 9l-56.25 32.7c-4.811 2.428-10.489 2.428-15.3 0l-52.98-31.5c-4.23-2.46-4.26-6.42 0-9l56.22-32.55c4.792-2.462 10.478-2.462 15.27 0l53.04 31.35z" transform="translate(109 70)"/>
            <path fill="#57B156" fill-rule="nonzero" d="M42.68 253l34.14-19.83c1.678-.976 3.752-.976 5.43 0l32.04 18.57c.75.419 1.216 1.21 1.216 2.07 0 .86-.465 1.651-1.216 2.07l-33.93 19.56c-2.217 1.287-4.953 1.287-7.17 0l-30.51-18c-.77-.476-1.238-1.316-1.238-2.22 0-.904.469-1.744 1.238-2.22z" transform="translate(109 70)"/>
            <g style="mix-blend-mode:screen" fill="#0D5FCF" fill-rule="nonzero">
                <path d="M12.34 16.47L9.16 18.33 9.16 10.59 12.34 8.73zM16.81 13.86L13.63 15.72 13.63 7.98 16.81 6.12zM21.28 11.25L18.1 13.11 18.1 5.37 21.28 3.51zM25.75 8.67L22.57 10.53 22.57 2.76 25.75.93zM7.39 16.56c0 .99-.51 1.77-1.14 1.77-.63 0-1.17-.78-1.17-1.77s.54-1.74 1.17-1.74c.63 0 1.14.78 1.14 1.74zM3.49 18.99c0 .99-.51 1.77-1.14 1.77-.63 0-1.14-.78-1.14-1.77s.51-1.74 1.14-1.74c.63 0 1.14.75 1.14 1.74z" transform="translate(109 70) translate(112 259)"/>
            </g>
            <path fill="url(#prefix__x)" fill-rule="nonzero" d="M143.81 227.62l-21.36.3-34.89-20.61c-4.8-2.432-10.47-2.432-15.27 0l-37.65 21.87-21.75.33v14.76c.072 1.968 1.226 3.735 3 4.59l53.04 31.35c4.803 2.462 10.497 2.462 15.3 0l56.25-32.67c1.75-.85 2.9-2.586 3-4.53l.33-15.39z" transform="translate(109 70)"/>
            <path fill="url(#prefix__y)" fill-rule="nonzero" d="M140.6 223.39c4.23 2.46 4.26 6.42 0 9L84.41 265c-4.803 2.462-10.497 2.462-15.3 0l-53.04-31.41c-4.23-2.46-4.26-6.42 0-9l56.25-32.7c4.8-2.432 10.47-2.432 15.27 0l53.01 31.5z" transform="translate(109 70)"/>
            <path fill="#57B156" fill-rule="nonzero" d="M42.68 226.96l34.14-19.83c1.675-.989 3.755-.989 5.43 0l32.04 18.54c.749.427 1.211 1.223 1.211 2.085 0 .862-.462 1.658-1.211 2.085l-33.93 19.53c-2.217 1.287-4.953 1.287-7.17 0l-30.51-18c-.756-.479-1.214-1.31-1.214-2.205 0-.894.458-1.726 1.214-2.205z" transform="translate(109 70)"/>
            <g style="mix-blend-mode:screen" fill="#0D5FCF" fill-rule="nonzero" transform="translate(109 70) translate(112 234)">
                <path d="M12.34 15.55L9.16 17.41 9.16 9.67 12.34 7.81zM16.81 12.94L13.63 14.8 13.63 7.06 16.81 5.2zM21.28 10.36L18.1 12.22 18.1 4.48 21.28 2.59zM25.75 7.75L22.57 9.61 22.57 1.87 25.75.01z"/>
                <ellipse cx="6.25" cy="15.67" rx="1.14" ry="1.74"/>
                <path d="M3.49 18.1c0 .96-.51 1.74-1.14 1.74-.63 0-1.14-.78-1.14-1.74s.51-1.77 1.14-1.77c.63 0 1.14.78 1.14 1.77z"/>
            </g>
            <path fill="url(#prefix__w)" fill-rule="nonzero" d="M143.81 201.73l-21.36.3-34.89-20.61c-4.792-2.462-10.478-2.462-15.27 0l-37.65 21.87-21.75.3v14.79c.082 1.957 1.236 3.71 3 4.56l53.04 31.38c4.811 2.428 10.489 2.428 15.3 0l56.25-32.7c1.76-.84 2.913-2.582 3-4.53l.33-15.36z" transform="translate(109 70)"/>
            <path fill="url(#prefix__z)" fill-rule="nonzero" d="M140.6 197.5c4.23 2.43 4.26 6.39 0 9l-56.19 32.52c-4.803 2.462-10.497 2.462-15.3 0l-53.04-31.35c-4.23-2.43-4.26-6.39 0-9L72.29 166c4.8-2.432 10.47-2.432 15.27 0l53.04 31.5z" transform="translate(109 70)"/>
            <path fill="#FFF" fill-rule="nonzero" d="M42.68 201.04l34.14-19.83c1.683-.958 3.747-.958 5.43 0l32.04 18.57c.75.419 1.216 1.21 1.216 2.07 0 .86-.465 1.651-1.216 2.07l-33.93 19.56c-2.217 1.287-4.953 1.287-7.17 0l-30.51-18c-.755-.486-1.211-1.322-1.211-2.22 0-.898.456-1.734 1.211-2.22z" transform="translate(109 70)"/>
            <path fill="url(#prefix__A)" fill-rule="nonzero" d="M137.15 105.67H24.05L41 202c.36 1.41.39 3 1.59 3.6l30.51 18c2.217 1.287 4.953 1.287 7.17 0l33.93-19.56c.593-.345 1.033-.903 1.23-1.56 5.19-22.47 21.72-96.81 21.72-96.81z" style="mix-blend-mode:overlay" transform="translate(109 70)"/>
            <g style="mix-blend-mode:screen" fill="#0D5FCF" fill-rule="nonzero" transform="translate(109 70) translate(112 208)">
                <path d="M12.34 15.66L9.16 17.49 9.16 9.75 12.34 7.89zM16.81 13.05L13.63 14.91 13.63 7.17 16.81 5.31zM21.28 10.44L18.1 12.3 18.1 4.56 21.28 2.7zM25.75 7.83L22.57 9.69 22.57 1.95 25.75.09z"/>
                <ellipse cx="6.25" cy="15.75" rx="1.14" ry="1.74"/>
                <path d="M3.49 18.18c0 .96-.51 1.77-1.14 1.77-.63 0-1.14-.81-1.14-1.77s.51-1.74 1.14-1.74c.63 0 1.14.78 1.14 1.74z"/>
            </g>
        </g>
    </g>
</svg>
