<svg xmlns="http://www.w3.org/2000/svg" width="539" height="609" viewBox="0 0 539 609">
    <g fill="none">
        <path fill="#E0E0E0" d="M116.415 446.017c-2.6-2.73-6.5-3.77-9.984-5.07-15.826-5.832-27.982-18.777-32.808-34.939-4.826-16.162-1.76-33.652 8.277-47.208l-.533-2.756c-1.209-12.805-16.679-21.983-28.496-16.9-11.817 5.083-15.847 22.607-7.371 32.305-13.871 1.157-23.036 16.9-21.086 30.758 1.95 13.858 11.986 25.09 23.231 33.293 18.598 13.554 40.973 20.946 63.986 21.138 1.558.134 3.124-.149 4.537-.819 3.263-1.872 2.834-7.059.247-9.802zM502.97 390c3.185-5.2 3.627-12.155.39-17.303-3.237-5.148-10.335-7.8-15.86-5.2 3.392-5.442 1.73-12.604-3.712-15.997-5.442-3.392-12.604-1.73-15.996 3.712-3.692 5.707-1.742 13.364 1.443 19.383 3.185 6.019 7.514 11.7 8.567 18.369 1.053 6.669-1.573 13.884-5.668 19.5-4.095 5.616-9.594 10.01-15.002 14.3l-1.04.988c9.89 3.36 20.738 2.417 29.9-2.6 5.096-2.821 9.815-7.488 10.14-13.299.195-3.25-1.014-6.5-.52-9.724.676-4.719 4.888-8.086 7.358-12.129zM223.392 602.472c-5.044-.624-10.127-2.834-13.104-6.968-1.898-2.6-2.808-5.876-4.472-8.684-1.664-2.808-4.524-5.343-7.8-5.031-5.031.494-8.411 7.436-13.312 6.214-2.951-.741-4.342-4.199-4.368-7.228-.026-3.029.871-6.058.494-9.1-1.066-8.463-11.934-12.623-20.033-9.971-8.099 2.652-20.397 12.441-25.597 19.136 5.551 9.243 16.9 12.831 27.417 15.457 17.55 4.394 35.252 8.125 53.105 11.193 4.148.932 8.42 1.183 12.649.741 4.186-.663 8.359-2.886 10.296-6.656-5.109.754-10.218 1.534-15.275.897zM424.658 537.277c-1.3-7.228-8.489-13.585-15.6-11.921 5.928-4.888 5.967-14.716 1.3-20.8-4.667-6.084-12.831-8.71-20.514-8.476-7.683.234-15.054 2.925-22.191 5.785 3.497-4.459-1.612-11.388-7.267-11.765-5.655-.377-10.699 3.224-15.275 6.5-4.576 3.276-9.867 6.708-15.47 5.837l5.2 2.106c12.532 1.898 25.181 4.823 36.049 11.375 10.868 6.552 19.799 17.277 21.71 29.822 1.911 12.545-4.719 26.585-16.627 30.979 16.315.865 32.04-6.222 42.198-19.019 4.511-5.85 7.787-13.195 6.487-20.423zM12.519 349.83c-.335-4.025-.448-8.066-.338-12.103-.11-4.042.003-8.087.338-12.116.335 4.03.448 8.074.338 12.116.11 4.037-.003 8.078-.338 12.103z"/>
        <path fill="#E0E0E0" d="M25.038 337.727c-4.164.335-8.343.448-12.519.338-4.176.11-8.355-.003-12.519-.338 4.164-.343 8.343-.455 12.519-.338 4.176-.117 8.355-.005 12.519.338zM495.443 474.292c-.335-4.03-.448-8.074-.338-12.116-.11-4.037.003-8.078.338-12.103.335 4.025.448 8.066.338 12.103.11 4.042-.003 8.087-.338 12.116z"/>
        <path fill="#E0E0E0" d="M507.962 462.176c-4.164.343-8.343.455-12.519.338-4.176.117-8.355.005-12.519-.338 4.164-.335 8.343-.448 12.519-.338 4.176-.11 8.355.003 12.519.338zM421.98 58.76c-.335-4.03-.448-8.074-.338-12.116-.11-4.037.003-8.078.338-12.103.342 4.025.455 8.066.338 12.103.118 4.042.005 8.087-.338 12.116z"/>
        <path fill="#E0E0E0" d="M434.499 46.644c-4.164.343-8.343.455-12.519.338-4.176.117-8.355.005-12.519-.338 4.164-.335 8.343-.448 12.519-.338 4.176-.11 8.355.003 12.519.338z"/>
        <circle cx="26.442" cy="236.08" r="7.397" fill="#E0E0E0"/>
        <path fill="#E0E0E0" d="M321.685 551.2c0 2.992-1.802 5.689-4.566 6.834-2.764 1.145-5.946.512-8.061-1.604-2.116-2.115-2.749-5.297-1.604-8.06 1.145-2.765 3.842-4.567 6.834-4.567 4.085 0 7.397 3.312 7.397 7.397zM390.533 411.359c0 4.085-3.312 7.397-7.397 7.397-4.085 0-7.397-3.312-7.397-7.397 0-4.085 3.312-7.397 7.397-7.397 4.085 0 7.397 3.312 7.397 7.397zM170.703 42.9c.005 2.998-1.797 5.704-4.565 6.855-2.769 1.151-5.958.52-8.08-1.598-2.122-2.118-2.758-5.306-1.612-8.077 1.146-2.77 3.849-4.577 6.847-4.577 4.087 0 7.403 3.31 7.41 7.397z"/>
        <circle cx="202.059" cy="480.636" r="3.705" fill="#E0E0E0"/>
        <path fill="#E0E0E0" d="M116.48 462.176c.005 1.5-.896 2.857-2.281 3.433-1.386.577-2.983.261-4.044-.8-1.061-1.061-1.377-2.658-.8-4.044.576-1.385 1.932-2.286 3.433-2.281 2.039 0 3.692 1.653 3.692 3.692zM207.688 50.31c0 2.046-1.659 3.705-3.705 3.705-2.046 0-3.705-1.659-3.705-3.705 0-2.046 1.659-3.705 3.705-3.705 2.046 0 3.705 1.659 3.705 3.705zM370.656 250.484c.005 1.5-.896 2.857-2.281 3.433-1.386.577-2.983.261-4.044-.8-1.061-1.061-1.377-2.658-.8-4.044.576-1.385 1.932-2.286 3.433-2.281 2.039 0 3.692 1.653 3.692 3.692z"/>
        <path fill="#EBEBEB" d="M15.366 39.325s-8.242 4.251 3.302 21.515 19.11 25.584 19.11 25.584 2.171 4.069-1.3 5.2c-3.471 1.131-11.57.767-12.649 5.343-1.079 4.576 2.704 8.658 9.854 11.7 7.15 3.042 22.594 10.075 23.985 10.712 1.391.637 2.886 2.47.611 3.601-2.275 1.131-19.825 5.083-17.459 13.299 2.366 8.216 23.673 13.234 26 13.832 2.327.598 2.964 1.469 2.925 2.704-.039 1.235-6.045 1.885-11.063 3.185-5.018 1.3-10.4 3.744-8.684 8.372 1.716 4.628 15.054 13.208 44.759 12.61l13.741-1.17 6.084-12.454c11.388-27.43 8.242-42.9 4.576-46.267-3.666-3.367-7.917.91-10.959 5.031-3.042 4.121-5.954 9.451-7.124 9.1-1.17-.351-1.755-1.3-1.456-3.718.299-2.418 3.393-24.05-3.419-29.263-6.812-5.213-16.9 9.659-18.72 11.401-1.82 1.742-3.029-.377-3.12-1.885-.091-1.508-1.066-18.486-1.3-26.234-.234-7.748-2.405-12.727-7.228-13.416-4.823-.689-7.293 6.942-9.594 9.815-2.301 2.873-5.291-.624-5.291-.624s-4.979-10.088-16.9-27.131S15.21 39.429 15.21 39.429"/>
        <path fill="#E0E0E0" d="M109.59 178.984c-8.658-12.545-23.673-35.1-36.66-54.431-12.987-19.331-24.765-36.764-33.345-49.4-4.303-6.279-7.8-11.375-10.192-14.911-1.196-1.742-2.093-3.042-2.769-4.017l-.715-1.053-.234-.377s.104.117.273.351l.741 1.04c.663.923 1.612 2.275 2.834 4.004 2.457 3.484 5.98 8.554 10.309 14.833 8.658 12.545 20.462 29.991 33.449 49.296 12.987 19.305 27.963 41.899 36.556 54.496"/>
        <path fill="#E0E0E0" d="M35.1 97.825c.33.016.657.068.975.156.637.117 1.534.325 2.6.585 2.236.533 5.291 1.3 8.658 2.301l8.567 2.483 2.6.741c.328.063.647.168.949.312-.334-.015-.666-.067-.988-.156-.637-.117-1.534-.325-2.6-.598-2.223-.559-5.278-1.404-8.632-2.366l-8.619-2.418-2.6-.728c-.315-.067-.62-.172-.91-.312zM60.32 103.415c-.117 0 1.3-6.422 3.12-14.3 1.82-7.878 3.419-14.196 3.536-14.17.117.026-1.3 6.409-3.12 14.3-1.82 7.891-3.419 14.196-3.536 14.17zM78.923 133.9c.12-.318.273-.623.455-.91l1.3-2.405c1.144-2.041 2.717-4.862 4.329-8.034 1.612-3.172 2.99-6.097 3.978-8.216l1.157-2.522c.122-.315.28-.616.468-.897-.074.331-.183.654-.325.962-.221.611-.572 1.495-1.027 2.6-.91 2.158-2.236 5.109-3.9 8.294-1.664 3.185-3.237 5.993-4.446 7.995-.611.988-1.118 1.794-1.482 2.34-.138.283-.308.55-.507.793zM54.951 133.9c.315-.039.634-.039.949 0l2.6-.104c2.158 0 5.2-.117 8.437-.156 3.237-.039 6.279 0 8.45 0h2.6c.314-.006.627.02.936.078-.307.068-.621.099-.936.091l-2.587.091c-2.158.065-5.2.117-8.437.156-3.237.039-6.292 0-8.45 0h-2.6c-.325-.018-.648-.07-.962-.156zM67.951 162.994c.395-.07.795-.104 1.196-.104l3.276-.143c2.769-.104 6.604-.208 10.829-.299 4.225-.091 8.047-.143 10.816-.169h3.276c.402-.03.807-.03 1.209 0-.394.079-.794.118-1.196.117l-3.289.13c-2.756.104-6.591.208-10.816.299-4.225.091-8.047.156-10.816.169H69.16c-.402.039-.807.039-1.209 0zM97.812 162.149c.148-.405.33-.797.546-1.17.429-.806.962-1.859 1.625-3.12 1.3-2.6 3.224-6.292 5.2-10.4 1.976-4.108 3.614-7.8 4.81-10.53l1.404-3.224c.148-.405.34-.793.572-1.157-.109.417-.248.825-.416 1.222-.286.78-.728 1.898-1.3 3.276-1.118 2.743-2.743 6.5-4.693 10.595-1.95 4.095-3.9 7.8-5.291 10.4-.715 1.3-1.3 2.34-1.729 3.055-.214.37-.457.722-.728 1.053z"/>
        <path fill="#F5F5F5" d="M461.747 286.949c-14.651-12.779-16.029-33.722-13.416-52.13.442-3.068.455-6.357 2.21-8.905 1.755-2.548 5.382-4.03 8.008-2.431 2.171 1.3 2.886 4.095 3.9 6.5 1.4 3.126 3.652 5.793 6.5 7.696 1.859 1.222 4.212 2.106 6.266 1.3 2.821-1.183 3.536-4.823 3.9-7.891.572-5.72 1.153-11.44 1.742-17.16.142-3.086.783-6.128 1.898-9.009 1.152-2.902 3.645-5.06 6.682-5.785 3.003-.507 6.422 1.56 6.721 4.641-.025 1.28-.133 2.556-.325 3.822-.182 1.295.434 2.572 1.56 3.237 1.275.293 2.611-.101 3.523-1.04 3.377-2.938 6.253-6.407 8.515-10.27 2.257-3.86 4.958-7.441 8.047-10.673 3.237-3.068 7.501-5.304 11.921-5.083 4.42.221 8.814 3.432 9.451 7.8.637 4.368-2.34 8.567-5.46 11.765-4.637 4.752-9.934 8.811-15.73 12.051-1.089.478-1.999 1.288-2.6 2.314-.897 1.976.832 4.212 2.769 5.096 2.21 1.014 4.719 1.04 7.072 1.586 2.353.546 4.849 1.872 5.499 4.225.923 3.276-2.054 6.279-4.862 8.151-5.666 3.75-11.938 6.49-18.538 8.099-2.396.388-4.7 1.212-6.799 2.431-1.989 1.391-3.38 4.03-2.509 6.305.871 2.275 3.614 3.289 6.019 3.094 2.386-.406 4.73-1.023 7.007-1.846 4.381-1.131 9.802-.26 12.103 3.679 1.395 2.722 1.439 5.939.117 8.697-1.331 2.7-3.192 5.106-5.473 7.072-7.543 7.31-16.892 12.482-27.092 14.989-10.14 2.34-19.305 2.275-28.6-2.327"/>
        <path fill="#E0E0E0" d="M467.766 275.886c4.156-9.734 8.866-19.222 14.105-28.418 1.378-2.444 2.73-4.875 4.082-7.254 1.352-2.379 2.665-4.745 4.121-6.968 2.782-4.272 5.798-8.386 9.035-12.324 3.068-3.783 6.123-7.254 8.996-10.478s5.616-6.188 8.229-8.762c4.105-4.106 8.53-7.88 13.234-11.284 1.664-1.196 2.977-2.093 3.9-2.678l1.04-.676.351-.208s-.104.091-.325.26l-1.001.715c-.871.624-2.171 1.547-3.809 2.769-4.638 3.464-9.01 7.27-13.078 11.388-2.6 2.6-5.304 5.551-8.177 8.788-2.873 3.237-5.876 6.721-8.931 10.504-3.21 3.938-6.208 8.043-8.983 12.298-1.43 2.21-2.743 4.55-4.095 6.942l-4.069 7.254c-5.232 9.175-9.946 18.637-14.118 28.34"/>
        <path fill="#E0E0E0" d="M490.23 233.246c-.096-.427-.149-.862-.156-1.3-.065-.871-.13-2.119-.182-3.679-.104-3.094-.104-7.384-.078-12.116.026-4.732 0-8.996-.195-12.09-.065-1.547-.143-2.795-.195-3.653-.053-.432-.053-.868 0-1.3.124.424.206.86.247 1.3.117.858.247 2.106.377 3.653.26 3.094.377 7.384.351 12.116-.026 4.732 0 8.892-.078 12.116v3.666c.017.431-.013.863-.091 1.287z"/>
        <path fill="#E0E0E0" d="M530.465 230.1c-.532.048-1.067.048-1.599 0h-4.329c-3.653 0-8.697.182-14.3.624-5.603.442-10.569 1.066-14.183 1.625-1.807.26-3.276.507-4.277.676-.52.125-1.051.2-1.586.221.5-.192 1.019-.336 1.547-.429.988-.247 2.444-.559 4.251-.871 3.614-.663 8.632-1.3 14.209-1.794 4.756-.396 9.529-.548 14.3-.455 1.833 0 3.315.13 4.329.221.55.004 1.1.065 1.638.182zM468.338 275.21s-.104-.169-.221-.507l-.52-1.495c-.455-1.3-1.04-3.211-1.755-5.577-1.417-4.719-3.159-11.31-4.992-18.603-1.833-7.293-3.523-13.884-4.836-18.629-.65-2.301-1.183-4.199-1.573-5.616l-.429-1.534c-.091-.351-.13-.533-.104-.546.091.165.165.34.221.52l.52 1.495c.442 1.3 1.04 3.211 1.742 5.564 1.417 4.732 3.172 11.31 5.005 18.603 1.833 7.293 3.523 13.884 4.836 18.629l1.573 5.616c.169.611.299 1.118.416 1.534.057.178.096.36.117.546zM522.6 263.965c-.173.082-.357.138-.546.169l-1.586.338-5.798 1.222c-4.901 1.027-11.7 2.522-19.123 4.173-7.423 1.651-14.3 3.107-19.175 4.03-2.457.455-4.459.819-5.837 1.027l-1.599.247c-.185.026-.374.026-.559 0 .172-.07.35-.122.533-.156l1.586-.351 5.798-1.209c4.914-1.027 11.7-2.522 19.136-4.186 7.436-1.664 14.235-3.094 19.162-4.017 2.457-.468 4.459-.819 5.837-1.04l1.599-.234c.19-.025.381-.03.572-.013zM348.816 67.314c2.366-13.546 8.814-33.345 16.549-44.707C373.1 11.245 385.021 2.21 398.645.325c13.624-1.885 28.6 4.498 34.762 16.809 3.289 6.591 3.9 14.17 6.292 21.138 2.392 6.968 7.657 13.936 15.002 14.495 6.5.494 12.766-4.186 19.175-2.938 8.333 1.625 11.557 11.895 11.596 20.384.039 8.489-1.157 17.927 4.056 24.687 4.277 5.486 11.583 7.371 17.485 11.05 12.753 7.956 18.2 24.375 16.9 39.351-1.3 14.976-8.19 28.834-15.509 41.951-6.087-21.537-14.364-42.393-24.7-62.244-5.915-11.336-16.705-20.982-26.26-29.458-14.677-13-46.891-19.253-66.3-21.645-19.409-2.392-22.919-2.925-42.211-6.5"/>
        <g>
            <path fill="#5085E8" d="M139.633 2.665C91.429 6.162 38.818 12.545.234 27.365l12.181 82.459s74.789-26.767 135.629-24.908l-8.411-82.251z" transform="translate(79.3 80.6)"/>
            <path fill="#FFF" d="M139.633 2.665C91.429 6.162 38.818 12.545.234 27.365l12.181 82.459s74.789-26.767 135.629-24.908l-8.411-82.251z" opacity=".8" transform="translate(79.3 80.6)"/>
            <path fill="#5069E8" d="M136.162 74.022c-.151.052-.309.083-.468.091l-1.3.195-5.265.65c-2.288.273-5.083.611-8.32 1.079-3.237.468-6.929.936-10.985 1.599-16.263 2.522-38.636 6.669-62.959 13-8.45 2.184-16.588 4.433-24.05 6.76l-.364.117v-.377c-2.6-18.902-5.2-35.204-7.059-46.8-.988-5.746-1.781-10.4-2.327-13.533-.273-1.547-.494-2.756-.637-3.627-.06-.373-.113-.685-.156-.936-.014-.104-.014-.208 0-.312.034.102.06.206.078.312 0 .234.13.533.208.923.182.867.429 2.063.741 3.588.624 3.146 1.495 7.8 2.522 13.507 2.041 11.544 4.654 27.846 7.293 46.8l-.416-.26c7.475-2.366 15.6-4.628 24.076-6.812 20.783-5.354 41.833-9.616 63.063-12.766 4.056-.65 7.8-1.079 11.011-1.508 3.211-.429 6.045-.728 8.333-.962l5.278-.533 1.365-.117.338-.078z" transform="translate(79.3 80.6)"/>
            <path fill="#5069E8" d="M137.8 53.989s-.182-.585-.546-1.651c-.634-1.52-1.474-2.946-2.496-4.238-1.634-2.038-3.614-3.772-5.85-5.122-.676-.407-1.375-.776-2.093-1.105-.764-.336-1.55-.618-2.353-.845-1.729-.55-3.553-.73-5.356-.533-1.979.224-3.863.969-5.46 2.158-1.73 1.307-3.209 2.914-4.368 4.745-2.535 3.757-4.186 8.32-6.123 13.078-.962 2.503-2.519 4.734-4.537 6.5-1.09.898-2.385 1.515-3.77 1.794-1.425.251-2.893.084-4.225-.481-5.499-2.184-7.943-8.502-13.481-10.4-2.72-.888-5.682-.669-8.242.611-1.25.634-2.357 1.519-3.25 2.6-.87 1.063-1.6 2.234-2.171 3.484-1.3 2.444-2.171 5.2-4.264 7.072-1.025.965-2.343 1.56-3.744 1.69-1.353.084-2.703-.208-3.9-.845-2.243-1.234-4.104-3.06-5.382-5.278-1.115-2.09-2.067-4.263-2.847-6.5-.732-2.048-1.678-4.013-2.821-5.863-1.074-1.68-2.56-3.059-4.316-4.004-3.069-1.631-6.722-1.737-9.88-.286-2.416 1-4.566 2.548-6.279 4.524-1.063 1.263-1.863 2.726-2.353 4.303-.325 1.079-.377 1.677-.416 1.677.03-.581.126-1.157.286-1.716.437-1.624 1.217-3.136 2.288-4.433 1.706-2.044 3.87-3.657 6.318-4.706 3.265-1.531 7.057-1.454 10.257.208 1.834.972 3.39 2.395 4.524 4.134 1.176 1.877 2.152 3.873 2.912 5.954.78 2.202 1.727 4.34 2.834 6.396 1.243 2.122 3.04 3.866 5.2 5.044 1.094.578 2.328.84 3.562.754 1.264-.114 2.451-.655 3.367-1.534 1.924-1.742 2.86-4.394 4.108-6.877.596-1.304 1.357-2.528 2.262-3.64.96-1.118 2.136-2.029 3.458-2.678 2.708-1.382 5.852-1.64 8.749-.715 2.964.962 5.07 3.25 7.033 5.304 1.769 2.18 3.986 3.953 6.5 5.2 1.23.524 2.583.682 3.9.455 1.28-.26 2.477-.832 3.484-1.664 1.945-1.696 3.445-3.843 4.368-6.253 1.937-4.68 3.627-9.334 6.227-13.13 1.209-1.875 2.74-3.522 4.524-4.862 1.68-1.221 3.654-1.98 5.72-2.197 1.867-.194 3.753.005 5.538.585.817.244 1.616.544 2.392.897 3.145 1.493 5.883 3.723 7.982 6.5 1.02 1.328 1.826 2.806 2.392 4.381.14.427.257.86.351 1.3 0 .07-.005.139-.013.208zM10.062 43.16c0 .182-.585.455-1.391.611-.806.156-1.495.13-1.534 0-.039-.13.598-.455 1.404-.611.806-.156 1.495-.182 1.521 0zM12.194 58.214c.078.169-.39.559-1.053.871-.663.312-1.3.416-1.3.247 0-.169.39-.559 1.053-.858.663-.299 1.222-.429 1.3-.26zM14.859 74.672c0 .182-.429.507-1.079.741-.65.234-1.3.273-1.3.091 0-.182.416-.507 1.079-.728.663-.221 1.235-.286 1.3-.104zM18.057 90.844c0 .182-.494.52-1.3.741-.806.221-1.378.273-1.43.104-.052-.169.494-.52 1.3-.741.806-.221 1.378-.273 1.43-.104zM108.953 13.143c.505-.194 1.034-.317 1.573-.364 1.027-.182 2.6-.403 4.485-.676 3.9-.546 9.36-1.3 15.938-2.067h.299v.312c.507 5.538 1.092 11.908 1.716 18.668v.611h-.325l-21.554 2.6h-.286v-.286c-.598-5.655-1.105-10.4-1.469-13.767-.143-1.586-.273-2.847-.364-3.809-.06-.43-.086-.865-.078-1.3.105.454.184.914.234 1.378.13.962.299 2.249.52 3.9.429 3.354 1.027 8.008 1.729 13.585l-.312-.247 21.541-2.73-.299.364v-.273c-.598-6.76-1.157-13.143-1.651-18.681l.338.273-22.035 2.509z" transform="translate(79.3 80.6)"/>
            <path fill="#5069E8" d="M128.96 16.419c0 .195-3.705.195-8.229.689-4.524.494-8.151 1.3-8.19 1.04 2.615-.948 5.35-1.526 8.125-1.716 2.75-.4 5.543-.404 8.294-.013zM129.194 21.255c0 .195-3.445.325-7.683.741-4.238.416-7.644.936-7.683.741 2.465-.81 5.027-1.286 7.618-1.417 2.569-.36 5.174-.382 7.748-.065zM124.033 25.467c-1.406.521-2.883.824-4.381.897-1.471.297-2.978.376-4.472.234 1.404-.528 2.882-.831 4.381-.897 1.471-.297 2.978-.376 4.472-.234z" transform="translate(79.3 80.6)"/>
            <path fill="#5085E8" d="M374.556 26.923C327.366 12.532 287.56.26 234.156.598l-8.177 84.019c55.523 4.914 74.1 8.541 125.359 27.105l23.218-84.799z" transform="translate(79.3 80.6)"/>
            <path fill="#FFF" d="M374.556 26.923C327.366 12.532 287.56.26 234.156.598l-8.177 84.019c55.523 4.914 74.1 8.541 125.359 27.105l23.218-84.799z" opacity=".8" transform="translate(79.3 80.6)"/>
            <path fill="#2741C5" d="M267.722 41.366l2.093-17.823c-5.184-.524-10.377.909-14.56 4.017-5.614 4.12-8.934 10.664-8.944 17.628-.018.867.008 1.735.078 2.6l20.8-2.34.533-4.082z" transform="translate(79.3 80.6)"/>
            <path fill="#5069E8" d="M289.25 38.454c-2-7.063-7.682-12.481-14.833-14.144l-.637-.13-.403-.091-1.209-.182h-.117l-2.08 17.823-.494 4.186 19.656 7.176c.494-1.483.838-3.012 1.027-4.563.4-3.385.09-6.816-.91-10.075z" transform="translate(79.3 80.6)"/>
            <path fill="#000" d="M289.25 38.454c-2-7.063-7.682-12.481-14.833-14.144l-.637-.13-.403-.091-1.209-.182h-.117l-2.08 17.823-.494 4.186 19.656 7.176c.494-1.483.838-3.012 1.027-4.563.4-3.385.09-6.816-.91-10.075z" opacity=".3" transform="translate(79.3 80.6)"/>
            <path fill="#5069E8" d="M268.021 47.905l-20.8 2.34c.871 10.088 8.229 18.447 18.122 19.669 9.893 1.222 19.149-5.2 22.386-14.833l-19.656-7.163M356.33 42.9c-.634-.198-1.251-.446-1.846-.741-1.157-.533-2.847-1.3-4.94-2.145-5.465-2.268-11.056-4.221-16.744-5.85-5.696-1.636-11.482-2.938-17.329-3.9-2.249-.364-4.069-.624-5.33-.793-.66-.047-1.313-.16-1.95-.338.66-.035 1.321-.008 1.976.078 1.3.078 3.107.273 5.369.585 11.798 1.625 23.303 4.93 34.164 9.815 2.08.936 3.744 1.742 4.875 2.34.61.269 1.196.586 1.755.949zM354.9 51.701c-.639-.183-1.258-.432-1.846-.741-1.157-.52-2.847-1.3-4.94-2.132-10.93-4.597-22.375-7.861-34.086-9.724-2.249-.364-4.069-.637-5.33-.793-.658-.063-1.31-.176-1.95-.338.66-.044 1.321-.023 1.976.065 1.3.091 3.107.286 5.369.585 5.882.81 11.698 2.035 17.407 3.666 5.72 1.63 11.316 3.667 16.744 6.097 2.08.936 3.744 1.742 4.875 2.34.62.273 1.217.599 1.781.975zM353.47 60.476c-.636-.19-1.254-.439-1.846-.741-1.157-.533-2.847-1.3-4.94-2.145-5.467-2.282-11.062-4.244-16.757-5.876-5.697-1.629-11.483-2.931-17.329-3.9-2.249-.364-4.069-.624-5.33-.793-.66-.047-1.313-.16-1.95-.338.66-.026 1.32 0 1.976.078 1.3.091 3.107.286 5.369.585 11.804 1.618 23.32 4.9 34.203 9.75 2.08.949 3.744 1.742 4.875 2.353.605.292 1.183.636 1.729 1.027zM350.61 69.251c-.614-.196-1.21-.444-1.781-.741-1.131-.533-2.756-1.3-4.797-2.145-5.291-2.278-10.713-4.24-16.237-5.876-5.529-1.636-11.15-2.938-16.835-3.9-2.184-.364-3.9-.624-5.2-.793-.642-.054-1.277-.167-1.898-.338.642-.035 1.287-.008 1.924.078 1.235.078 3.029.273 5.2.585 11.48 1.616 22.662 4.906 33.189 9.763 2.015.936 3.627 1.729 4.719 2.327.605.29 1.18.638 1.716 1.04zM344.396 76.245c-.556-.161-1.096-.375-1.612-.637l-4.29-1.911c-4.722-2.094-9.577-3.875-14.534-5.33-4.975-1.374-10.034-2.425-15.145-3.146l-4.654-.637c-.577-.04-1.149-.145-1.703-.312.575-.054 1.154-.054 1.729 0 1.105 0 2.717.208 4.693.429 5.164.572 10.272 1.563 15.275 2.964 4.983 1.46 9.843 3.311 14.534 5.538 1.794.858 3.237 1.573 4.212 2.106.525.268 1.025.58 1.495.936zM323.427 77.233c-1.135-.144-2.257-.379-3.354-.702-2.067-.468-4.914-1.092-8.086-1.638-3.172-.546-6.058-.936-8.151-1.3-1.145-.1-2.28-.295-3.393-.585 1.149-.09 2.304-.055 3.445.104 2.106.182 5.018.494 8.216 1.053 2.728.463 5.427 1.08 8.086 1.846 1.124.275 2.211.685 3.237 1.222z" transform="translate(79.3 80.6)"/>
            <path fill="#5069E8" d="M242.294 10.556s.351 0 1.079-.065l3.25-.104c2.873 0 7.02 0 12.324.273 14.676.974 29.197 3.59 43.29 7.8l.247.078v.247c-3.25 18.629-7.111 40.768-11.258 64.454-.156.962-.325 1.911-.494 2.86l-.065.364-.351-.104c-9.561-2.503-19.247-4.508-29.016-6.006-9.308-1.43-18.2-2.444-26.494-2.964h-.312v-.312c2.275-19.877 4.173-36.517 5.512-48.23.689-5.798 1.222-10.4 1.586-13.52.195-1.534.338-2.717.442-3.549 0-.39.091-.676.117-.91.026-.234 0-.299 0-.286.006.108.006.217 0 .325 0 .234-.026.546-.078.936-.091.845-.208 2.054-.364 3.614-.338 3.172-.819 7.8-1.443 13.598-1.3 11.7-3.068 28.275-5.2 48.1l-.273-.325c8.307.494 17.212 1.495 26.559 2.912 9.756 1.478 19.428 3.466 28.977 5.954l-.416.273c.156-.949.325-1.898.494-2.86 4.173-23.686 8.073-45.812 11.349-64.428l.195.325c-14.039-4.227-28.499-6.899-43.121-7.969-5.291-.351-9.477-.442-12.272-.442h-4.368l.104-.039z" transform="translate(79.3 80.6)"/>
        </g>
        <g>
            <path fill="#E8505B" d="M159.562 216.347L205.582 226.539 212.615 216.347 211.471 203.23 204.477 196.834 180.375 196.834 157.872 217.101" transform="translate(110.5 46.5)"/>
            <path fill="#000" d="M2.262 19.747L48.282 29.939 55.315 19.747 54.171 6.63 47.177 0.234 23.075 0.234 0.572 20.501" opacity=".3" transform="translate(110.5 46.5) translate(157.3 196.6)"/>
            <path fill="#FFBE9D" d="M229.736 121.577l58.084-7.8 9.1-2.6s20.93-4.589 22.88-5.291c2.262-.806 3.198.091 3.432.936.377 1.3-.897 2.821-2.808 3.575-.663.26-11.284 3.9-11.284 3.9 1.22.258 2.42.605 3.588 1.04 2.535.858 4.979 4.134 6.201 7.943 1.222 3.809 1.222 5.005-.234 5.538-.57.186-1.192.1-1.69-.234-.83-.488-1.45-1.266-1.742-2.184-2.041-6.084-5.85-6.565-5.85-6.565l-1.196.338s3.9 2.743 3.9 6.071c-.01.488-.116.97-.312 1.417.597 1.68.256 3.55-.896 4.91-1.151 1.36-2.94 2.005-4.694 1.694-.845-.143-1.742-.637-1.859-1.469-.024-.448.066-.895.26-1.3.095-.221.164-.452.208-.689l-3.484.481s-7.878.65-11.284 1.3l-54.392 16.38c-3.603 1.09-7.493.691-10.8-1.106-3.307-1.798-5.757-4.846-6.802-8.462-1.128-3.933-.488-8.163 1.754-11.586s5.864-5.7 9.92-6.237z" transform="translate(110.5 46.5)"/>
            <path fill="#FFBE9D" d="M289.172 115.233c.251 1.226 1.255 2.156 2.496 2.314 1.196.247 2.444.091 3.653.247 3.627.494 6.435 3.783 10.075 4.095.507 0 1.144-.065 1.3-.546.156-.481-.26-.884-.611-1.196l-9.1-8.008" transform="translate(110.5 46.5)"/>
            <path fill="#EB996E" d="M297.024 112.1c.384.214.741.471 1.066.767.663.533 1.599 1.3 2.743 2.288 1.144.988 2.6 2.171 4.017 3.445l1.157 1.001c.338.351.936.65 1.053 1.482 0 .416-.244.793-.624.962-.309.125-.642.179-.975.156-.597-.045-1.186-.163-1.755-.351-2.003-.842-3.945-1.824-5.811-2.938-.818-.42-1.694-.714-2.6-.871-.845-.117-1.664-.091-2.431-.156-1.264.045-2.48-.48-3.315-1.43-.533-.728-.416-1.3-.39-1.3.136.395.338.764.598 1.092.844.79 1.979 1.196 3.133 1.118.828-.017 1.657.01 2.483.078.967.13 1.906.416 2.782.845 1.858 1.069 3.776 2.028 5.746 2.873.516.16 1.048.265 1.586.312.494 0 .923-.143.884-.416-.039-.273-.429-.663-.819-1.001l-1.131-1.027-3.9-3.549c-1.118-1.027-2.002-1.859-2.6-2.444-.338-.272-.64-.587-.897-.936zM308.165 120.082c.748-.18 1.527-.18 2.275 0 .79.205 1.493.661 2.002 1.3.608.824 1.086 1.736 1.417 2.704.334 1.008.77 1.98 1.3 2.899.465.764 1.118 1.395 1.898 1.833.56.283 1.221.283 1.781 0 .377-.195.52-.39.507-.403-.013-.013-.208.104-.572.247-.524.175-1.098.114-1.573-.169-.703-.438-1.284-1.046-1.69-1.768-.52-.903-.955-1.851-1.3-2.834-.34-1.017-.854-1.968-1.521-2.808-.562-.714-1.35-1.214-2.236-1.417-.58-.145-1.188-.145-1.768 0-.338.234-.585.39-.52.416zM321.204 110.085c-.723.173-1.428.412-2.106.715l-5.057 1.859-5.07 1.781c-.721.197-1.422.463-2.093.793.742-.093 1.474-.258 2.184-.494 1.3-.377 3.146-.949 5.135-1.664 1.989-.715 3.757-1.43 5.018-1.989.7-.255 1.368-.59 1.989-1.001zM306.618 123.319c.142.19.299.368.468.533.44.413.677.997.65 1.599-.066.386-.326.71-.689.858-.45.186-.922.317-1.404.39-.604.077-1.16.373-1.56.832-.385.56-.486 1.266-.273 1.911.226.624.695 1.13 1.3 1.404.547.258 1.157.348 1.755.26.94-.206 1.846-.543 2.691-1.001.576-.298 1.098-.69 1.547-1.157.312-.364.39-.611.364-.624-.026-.013-.156.195-.481.494-.474.408-1.003.745-1.573 1.001-.825.406-1.699.703-2.6.884-1.082.18-2.149-.391-2.6-1.391-.176-.51-.104-1.072.195-1.521.337-.38.797-.63 1.3-.702.516-.084 1.02-.237 1.495-.455.458-.214.77-.654.819-1.157.013-.686-.3-1.338-.845-1.755-.377-.299-.533-.429-.559-.403z" transform="translate(110.5 46.5)"/>
            <path fill="#EB996E" d="M305.383 130.56s-.247 0-.572.273c-.464.4-.707 1.001-.65 1.612.11.912.694 1.697 1.534 2.067 1.014.404 2.145.404 3.159 0 1.014-.356 1.888-1.025 2.496-1.911.828-1.21 1.071-2.726.663-4.134-.13-.39-.247-.585-.273-.572.16.738.208 1.496.143 2.249-.242 1.796-1.473 3.304-3.185 3.9-.911.355-1.923.355-2.834 0-.73-.3-1.254-.952-1.391-1.729-.067-.528.099-1.06.455-1.456.26-.182.468-.26.455-.299zM295.711 125.789s0-.429-.377-1.014c-.492-.793-1.232-1.401-2.106-1.729v.39c.449-.214.883-.457 1.3-.728 1.534-.896 2.793-2.196 3.64-3.757-1.177 1.26-2.485 2.394-3.9 3.38-.429.273-.871.52-1.3.728l-.455.234.481.156c.81.287 1.518.801 2.041 1.482.481.507.624.871.676.858zM313.807 119.575c-.091-.078-.702.598-.767 1.677-.117.637.082 1.29.533 1.755.117 0-.169-.793-.091-1.729.078-.936.429-1.625.325-1.703z" transform="translate(110.5 46.5)"/>
            <path fill="#FFBE9D" d="M42.744 139.79s-8.489-13.741-9.997-14.911c-1.508-1.17-14.924-6.084-16.081-5.72-1.157.364-17.42 3.133-15.6 5.07 1.82 1.937 13.234-.169 13.234-.169l1.521.767s-9.802 1.56-11.869 2.756c-2.067 1.196-1.3 3.419.546 3.237 1.846-.182 10.322-1.833 10.816-1.482.494.351-9.256 2.288-10.309 2.912-1.417.845-1.56 3.354.221 3.237 1.053-.078 10.27-2.457 10.27-2.457-2.722 1.006-5.386 2.16-7.982 3.458-1.105 1.053-.221 2.6 1.3 2.288 1.092-.234 6.253-2.704 7.709-3.016 0 0 1.3.364 2.6 3.12.572 1.3 3.198 9.295 7.995 9.191 4.251-.091 8.424 3.406 8.424 3.406l7.202-11.687z" transform="translate(110.5 46.5)"/>
            <path fill="#EB996E" d="M1.144 124.268c.921.474 1.93.753 2.964.819 1.111.152 2.234.2 3.354.143 1.3-.143 2.6-.338 4.043-.533l3.029-.442H14.3c2.272.934 4.62 1.669 7.02 2.197-2.173-1.15-4.439-2.115-6.773-2.886h-.182l-3.016.403-3.978.585c-1.082.077-2.168.077-3.25 0-1.807-.13-2.938-.403-2.977-.286z" transform="translate(110.5 46.5)"/>
            <path fill="#FFBE9D" d="M36.4 138.165c-1.127.807-2.643.807-3.77 0-1.17-.702-2.054-1.768-3.159-2.6-3.315-2.34-8.086-1.781-11.271-4.277-.455-.338-.897-.91-.65-1.417s.871-.533 1.391-.52l13.403.325" transform="translate(110.5 46.5)"/>
            <path fill="#EB996E" d="M32.318 129.728c-.47-.128-.956-.19-1.443-.182-.936 0-2.288-.143-3.9-.221l-5.863-.221h-1.69c-.688-.126-1.397.023-1.976.416-.344.342-.428.867-.208 1.3.15.334.378.628.663.858.519.415 1.086.764 1.69 1.04 2.265.825 4.584 1.49 6.942 1.989.98.289 1.91.727 2.756 1.3.78.533 1.43 1.183 2.093 1.716 1.005.966 2.383 1.441 3.77 1.3.988-.195 1.3-.728 1.3-.728-.405.219-.845.364-1.3.429-1.28.014-2.505-.51-3.38-1.443-.624-.546-1.3-1.209-2.08-1.82-.89-.611-1.867-1.085-2.899-1.404-2.317-.531-4.6-1.2-6.838-2.002-.543-.25-1.053-.564-1.521-.936-.429-.338-.65-.819-.416-1.001.234-.182.845-.221 1.43-.208H30.901c.478.002.955-.059 1.417-.182z" transform="translate(110.5 46.5)"/>
            <path fill="#3749A1" d="M108.823 444.289l-3.094 34.099L95.498 504.7c-.354.905-.316 1.916.106 2.792.422.875 1.189 1.536 2.117 1.823 1.08.342 2.257.138 3.159-.546 5.759-4.394 26.871-20.631 26.949-23.14.104-2.912 5.668-35.763 5.668-35.763l-24.674-5.577z" transform="translate(110.5 46.5)"/>
            <path fill="#FFF" d="M97.721 509.276l30.381-26-.169 1.443c-.134 1.25-.716 2.41-1.638 3.263-2.444 2.288-9.347 8.476-25.311 20.8-.93.713-2.155.913-3.263.533v-.039zM122.369 471.524c-.942.53-1.33 1.687-.897 2.678.503.966 1.676 1.366 2.665.91.996-.569 1.396-1.802.923-2.847-.63-.951-1.9-1.233-2.873-.637" opacity=".6" transform="translate(110.5 46.5)"/>
            <path fill="#263238" d="M107.185 495.301c-.693-1.159-1.602-2.174-2.678-2.99-1.192-.635-2.493-1.04-3.835-1.196 0-.078.442-.299 1.3-.325 1.063 0 2.103.311 2.99.897.9.56 1.615 1.374 2.054 2.34.26.741.26 1.261.169 1.274zM104.247 499.578c-.182.13-1.144-1.105-2.847-1.807-1.076-.33-2.17-.599-3.276-.806 1.14-.542 2.473-.498 3.575.117 1.924.819 2.73 2.418 2.548 2.496zM112.359 489.971c-1.319-1.133-2.723-2.163-4.199-3.081-1.594-.7-3.236-1.287-4.914-1.755 1.829-.272 3.695.115 5.265 1.092 1.69.747 3.055 2.075 3.848 3.744zM114.179 479.688c-.117.195-1.911-.806-4.342-1.17-2.431-.364-4.446 0-4.498-.221 2.977-1.21 6.379-.675 8.84 1.391zM115.336 469.704c-1.428-.637-2.937-1.075-4.485-1.3-1.568-.003-3.13.207-4.641.624 0-.078.377-.468 1.209-.832 1.106-.456 2.305-.639 3.497-.533 1.19.082 2.34.452 3.354 1.079.767.442 1.131.858 1.066.962zM111.124 466.467c-.057-.436-.022-.879.104-1.3.25-1.165.728-2.269 1.404-3.25.44-.762 1.115-1.36 1.924-1.703.564-.174 1.177.023 1.534.494.316.47.446 1.04.364 1.599-.425 2.342-2.456 4.051-4.836 4.069-2.331-.03-4.415-1.461-5.278-3.627-.212-.543-.174-1.152.104-1.664.332-.496.946-.722 1.521-.559.816.276 1.543.765 2.106 1.417.843.84 1.526 1.827 2.015 2.912.221.377.355.8.39 1.235-.727-1.39-1.66-2.66-2.769-3.77-.52-.538-1.162-.944-1.872-1.183-.313-.1-.654.023-.832.299-.15.348-.15.744 0 1.092.812 1.836 2.608 3.04 4.615 3.094 2.004-.027 3.723-1.434 4.147-3.393.065-.39-.009-.79-.208-1.131-.195-.261-.534-.37-.845-.273-.682.287-1.259.777-1.651 1.404-.884 1.291-1.539 2.725-1.937 4.238z" transform="translate(110.5 46.5)"/>
            <path fill="#263238" d="M140.179 464.296l25.519-202.098-8.164-46.969-48.1 2.6-5.993 242.788c-.045 1.81 1.225 3.388 3.003 3.731l28.028 4.316c1.34.2 2.703-.153 3.778-.976 1.075-.823 1.771-2.047 1.929-3.392z" transform="translate(110.5 46.5)"/>
            <path fill="#263238" d="M164.97 268.984l46.41 45.916-66.781 16.25 4.758 33.696 90.402-12.246c7.725-1.048 14.68-5.221 19.24-11.544 6.993-9.713 7.164-22.763.429-32.656l-70.421-103.376-31.473 10.257 7.436 53.703z" transform="translate(110.5 46.5)"/>
            <path fill="#455A64" d="M162.409 257.284c.748 1.863 1.288 3.803 1.612 5.785.534 1.93.852 3.914.949 5.915-.754-1.857-1.295-3.793-1.612-5.772-.542-1.933-.86-3.922-.949-5.928z" transform="translate(110.5 46.5)"/>
            <path fill="#455A64" d="M155.636 335.401l1.105-.364 3.25-1.014 12.467-3.783 45.318-13.637-.117.442-55.718-59.345.572-.182c-1.105 9.321-2.249 19.058-3.432 28.99-5.746 48.1-11.141 91.676-15.327 123.162-2.067 15.743-3.9 28.47-5.2 37.245-.754 4.381-1.235 7.8-1.742 10.088-.247 1.131-.429 1.989-.559 2.6-.13.611-.221.884-.221.884s0-.312.156-.897.273-1.482.481-2.6c.468-2.288.91-5.72 1.612-10.101 1.3-8.788 3.016-21.515 5.031-37.271 4.056-31.499 9.373-75.049 15.119-123.188 1.183-9.919 2.34-19.656 3.445-28.977l.091-.715.481.52 55.614 59.436.299.312-.416.117-45.409 13.377-12.493 3.653-3.276.936c-.767.234-1.131.312-1.131.312z" transform="translate(110.5 46.5)"/>
            <path fill="#455A64" d="M140.621 460.5c-.182 0 5.109-42.9 11.83-95.784 6.721-52.884 12.337-95.732 12.519-95.706.182.026-5.109 42.9-11.843 95.797S140.803 460.5 140.621 460.5zM157.43 235.899c.471 1.002.833 2.053 1.079 3.133.559 1.963 1.3 4.706 1.937 7.8.637 3.094 1.157 5.824 1.456 7.8.229 1.081.338 2.184.325 3.289-.367-1.042-.633-2.118-.793-3.211-.468-2.223-1.027-4.862-1.651-7.8-.624-2.938-1.3-5.538-1.742-7.8-.301-1.05-.506-2.124-.611-3.211zM160.42 231.947c-.078 0 .65-.637 1.885-.208.73.267 1.263.9 1.404 1.664.178.957-.237 1.926-1.053 2.457-.853.488-1.922.384-2.665-.26-.602-.514-.842-1.336-.611-2.093.134-.485.445-.902.871-1.17.312-.169.507-.156.52-.117-.458.344-.784.835-.923 1.391-.122.563.084 1.147.533 1.508.552.43 1.305.495 1.924.169.582-.394.89-1.085.793-1.781-.091-.571-.462-1.06-.988-1.3-.533-.226-1.114-.316-1.69-.26zM225.056 322.778c-.143.156-2.756-2.249-6.5-4.42s-7.137-3.263-7.072-3.458c2.636.459 5.154 1.435 7.41 2.873 2.36 1.25 4.454 2.95 6.162 5.005z" transform="translate(110.5 46.5)"/>
            <path fill="#0089FF" d="M124.8 77.468l-26.65 12.87 11.479 80.171-4.511 35.997c-.581 4.64 1.183 9.264 4.706 12.337l43.03-.845 30.147-16.575 13.845-2.34-5.746-27.391 2.6-38.87 31.499 16.822c2.426 1.3 5.252 1.638 7.917.949l57.759-14.937-3.055-22.256-52.286 5.915-39.819-35.178-29.627-6.669-5.291-8.723h-30.329l-2.119 1.586c-1.012.76-1.773 1.806-2.184 3.003l-1.365 4.134z" transform="translate(110.5 46.5)"/>
            <path fill="#0089FF" d="M98.085 90.338c-5.543 3.806-9.743 9.266-11.999 15.6-3.055 9.451-9.919 47.71-9.919 47.71l-30.29-18.785-17.446 18.343 40.3 35.594c6.187 5.461 15.045 6.68 22.477 3.094 6.215-2.957 10.532-8.836 11.492-15.652l4.953-36.283-9.568-49.621z" transform="translate(110.5 46.5)"/>
            <path fill="#FFBE9D" d="M189.007 204.972L187.135 202.216 167.206 205.895 163.527 214.384z" transform="translate(110.5 46.5)"/>
            <path fill="#0089FF" d="M109.759 218.843c17.797 7.163 36.816 4.524 53.781-4.459 5.109-2.717 9.867-6.084 15.002-8.762 5.135-2.678 10.842-4.654 16.627-4.238 5.785.416 11.609 3.588 13.923 8.905 2.314 5.317 0 12.545-5.447 14.521l1.937 1.729c7.995-3.718 11.778-14.495 7.878-22.399-2.99-6.071-9.269-9.685-13.884-14.638-6.773-7.28-7.475-21.372-7.514-32.344" transform="translate(110.5 46.5)"/>
            <path fill="#263238" d="M148.824 92.964c-.43.072-.865.099-1.3.078-1.193.092-2.314.609-3.159 1.456-1.145 1.436-1.706 3.251-1.573 5.083-.002 2.35.49 4.676 1.443 6.825l.494 1.118-.975-.728c-2.399-1.789-4.643-3.776-6.708-5.941-4.427-4.555-7.932-9.923-10.322-15.808-.713-1.766-1.279-3.588-1.69-5.447-.17-.681-.27-1.378-.299-2.08.637 2.518 1.445 4.99 2.418 7.397 2.501 5.76 6.025 11.018 10.4 15.522 2.04 2.137 4.249 4.106 6.604 5.889l-.468.39c-.524-1.162-.9-2.385-1.118-3.64-.225-1.138-.325-2.298-.299-3.458-.088-1.949.567-3.859 1.833-5.343.927-.88 2.153-1.378 3.432-1.391.43-.01.86.017 1.287.078z" transform="translate(110.5 46.5)"/>
            <path fill="#0089FF" d="M150.41 92.964c2.197-.936 5.447.455 7.02 2.249 1.04 1.183 1.625 2.834 3.003 3.614 1.378.78 5.707 1.378 6.968.416 0 0 .767-3.692 1.17-5.2 1.47-5.854 2.482-11.813 3.029-17.823-4.199-2.028-3.042-4.706-10.582-4.186 1.082 3.45 1.172 7.135.26 10.634" transform="translate(110.5 46.5)"/>
            <path fill="#263238" d="M161.2 82.668s.273-1.014.442-2.847c.166-2.605-.151-5.22-.936-7.709l-.104-.312h.325c1.87-.233 3.767-.06 5.564.507.974.448 1.856 1.074 2.6 1.846.767.734 1.644 1.344 2.6 1.807l.195.091v.234c-.338 3.159-.728 6.604-1.3 10.166-.39 2.314-.858 4.576-1.404 6.721-.546 2.145-.962 4.212-1.43 6.162v.13h-.091c-.674.389-1.445.578-2.223.546-.7.01-1.4-.034-2.093-.13-.655-.095-1.303-.239-1.937-.429-.637-.167-1.225-.483-1.716-.923-.753-.853-1.423-1.776-2.002-2.756-.55-.75-1.244-1.381-2.041-1.859-1.12-.721-2.413-1.125-3.744-1.17-.476.036-.949.101-1.417.195.43-.243.911-.377 1.404-.39 1.374-.04 2.729.321 3.9 1.04.865.483 1.621 1.137 2.223 1.924.586.923 1.252 1.793 1.989 2.6.993.703 2.165 1.109 3.38 1.17.66.087 1.324.122 1.989.104.652.019 1.297-.134 1.872-.442l-.117.195c.455-1.976.871-4.069 1.404-6.201.533-2.132.988-4.368 1.378-6.682.598-3.536.988-6.968 1.3-10.114l.182.325c-1.01-.498-1.936-1.152-2.743-1.937-.677-.73-1.484-1.33-2.379-1.768-1.712-.542-3.518-.724-5.304-.533l.221-.338c.77 2.56 1.022 5.246.741 7.904-.09.717-.237 1.426-.442 2.119-.061.263-.157.517-.286.754zM205.634 205.414v-1.482c-.112-1.422-.558-2.798-1.3-4.017-1.178-1.918-2.824-3.506-4.784-4.615-2.63-1.401-5.538-2.2-8.515-2.34-3.315-.299-6.968-.117-10.907-.39-4.209-.23-8.356-1.107-12.298-2.6-4.393-1.684-8.232-4.556-11.089-8.294-1.49-1.998-2.577-4.268-3.198-6.682-.615-2.472-.86-5.022-.728-7.566.208-5.2 1.391-10.023 2.093-14.755.726-4.543 1.16-9.129 1.3-13.728.231-7.803-.34-15.61-1.703-23.296-.936-5.163-2.217-10.257-3.835-15.249-.559-1.781-1.066-3.133-1.391-4.069-.143-.429-.26-.78-.364-1.053-.05-.115-.081-.238-.091-.364.065.106.117.22.156.338.117.273.26.611.429 1.04.364.91.91 2.249 1.508 4.03 1.73 4.988 3.086 10.098 4.056 15.288 1.443 7.713 2.066 15.556 1.859 23.4-.139 4.63-.573 9.245-1.3 13.819-.715 4.758-1.885 9.62-2.08 14.677-.366 4.902.996 9.777 3.848 13.78 2.78 3.644 6.514 6.448 10.79 8.099 3.877 1.484 7.959 2.36 12.103 2.6 3.9.286 7.566.143 10.907.468 3.04.179 6.001 1.032 8.671 2.496 1.99 1.168 3.65 2.823 4.823 4.81.722 1.263 1.128 2.68 1.183 4.134.033.372.033.746 0 1.118-.117.286-.143.403-.143.403z" transform="translate(110.5 46.5)"/>
            <path fill="#263238" d="M186.186 181.702c-.46.559-.965 1.08-1.508 1.56-.494.481-1.105 1.066-1.872 1.703-.767.637-1.586 1.404-2.6 2.145-2.299 1.802-4.704 3.465-7.202 4.979-6.126 3.706-12.767 6.484-19.708 8.242-2.822.73-5.688 1.277-8.58 1.638-1.3.195-2.366.247-3.341.338-.864.09-1.732.134-2.6.13-.718.065-1.44.065-2.158 0 .707-.142 1.424-.225 2.145-.247.689 0 1.534-.117 2.509-.247.975-.13 2.093-.208 3.302-.429 2.864-.434 5.702-1.024 8.502-1.768 3.423-.926 6.784-2.067 10.062-3.419 3.256-1.399 6.425-2.992 9.49-4.771 2.49-1.473 4.898-3.078 7.215-4.81 1.014-.715 1.859-1.443 2.6-2.054.741-.611 1.417-1.157 1.937-1.612.56-.512 1.165-.973 1.807-1.378zM177.801 138.997c-.002.246-.037.491-.104.728-.13.533-.273 1.196-.455 2.015-.23 1.076-.517 2.139-.858 3.185-.39 1.222-.78 2.6-1.391 4.121-.286.767-.598 1.547-.91 2.379-.312.832-.728 1.638-1.118 2.509-.741 1.755-1.742 3.523-2.743 5.408-2.303 4.028-4.948 7.85-7.904 11.427-3.011 3.532-6.316 6.803-9.88 9.776-1.677 1.3-3.263 2.6-4.849 3.64-.793.533-1.534 1.079-2.275 1.547l-2.184 1.3c-1.3.871-2.691 1.495-3.822 2.08-.966.522-1.96.99-2.977 1.404l-1.911.806c-.223.097-.453.175-.689.234.191-.148.401-.27.624-.364l1.859-.91c.819-.377 1.807-.858 2.912-1.495 1.105-.637 2.418-1.3 3.757-2.158l2.145-1.3c.741-.468 1.456-1.027 2.236-1.56 1.573-1.053 3.12-2.34 4.784-3.666 3.508-2.972 6.769-6.224 9.75-9.724 2.934-3.546 5.57-7.329 7.878-11.31 1.014-1.859 2.015-3.614 2.782-5.33.39-.858.819-1.677 1.144-2.483.325-.806.65-1.586.949-2.34.637-1.469 1.04-2.873 1.469-4.069.429-1.196.741-2.262.962-3.133.221-.871.429-1.456.572-1.989.06-.25.144-.493.247-.728zM122.98 225.369c-.896-.43-1.7-1.03-2.366-1.768-1.725-1.675-3.092-3.683-4.017-5.902-.935-2.218-1.417-4.6-1.417-7.007-.05-.992.087-1.984.403-2.925.117 0 0 1.131.078 2.912.138 2.325.665 4.61 1.56 6.76.913 2.138 2.173 4.11 3.731 5.837 1.248 1.313 2.106 2.002 2.028 2.093zM122.031 215.242c.195 0-.169 1.729 0 3.77s.793 3.64.611 3.718c-.837-1.034-1.296-2.323-1.3-3.653-.208-1.32.035-2.67.689-3.835zM109.2 168.702c-.075-.197-.127-.402-.156-.611-.091-.481-.195-1.066-.325-1.768l-1.079-6.5c-.923-5.499-2.21-13.091-3.77-21.45s-3.094-15.912-4.225-21.372c-.546-2.6-.988-4.836-1.3-6.5-.13-.702-.247-1.3-.338-1.768-.054-.203-.076-.414-.065-.624.086.192.151.392.195.598l.468 1.742c.39 1.508.91 3.705 1.534 6.422 1.3 5.434 2.86 13 4.42 21.346s2.782 15.99 3.575 21.502c.39 2.769.702 5.005.884 6.5.078.715.13 1.3.195 1.781.03.233.026.47-.013.702zM192.4 168.702c-.036-.215-.036-.435 0-.65v-1.846-6.786c0-5.733.299-13.65.962-22.386.663-8.736 1.547-16.601 2.223-22.282.351-2.769.637-5.044.845-6.734.117-.728.195-1.3.273-1.833.01-.215.058-.426.143-.624.029.211.029.426 0 .637 0 .507-.078 1.118-.13 1.846-.169 1.703-.377 3.978-.65 6.76-.546 5.694-1.3 13.572-2.015 22.282-.715 8.71-.988 16.627-1.17 22.347-.078 2.782-.13 5.07-.182 6.786l-.078 1.833c-.035.228-.11.448-.221.65zM88.465 172.056c-.234.091-1.95-4.641-5.265-9.789-3.315-5.148-7.202-8.385-7.033-8.567.933.58 1.785 1.278 2.535 2.08 1.916 1.838 3.617 3.888 5.07 6.11 1.43 2.233 2.652 4.591 3.653 7.046.469.995.818 2.043 1.04 3.12z" transform="translate(110.5 46.5)"/>
            <path fill="#263238" d="M90.701 166.401c-.545-.834-1.036-1.703-1.469-2.6-1.185-1.978-2.702-3.738-4.485-5.2-1.827-1.45-3.827-2.669-5.954-3.627-.903-.356-1.773-.79-2.6-1.3.975.149 1.925.433 2.821.845 2.232.853 4.32 2.046 6.188 3.536 1.852 1.531 3.377 3.419 4.485 5.551.493.868.836 1.813 1.014 2.795z" transform="translate(110.5 46.5)"/>
            <path fill="#FAFAFA" d="M104.091 135.136c-.065.202-.157.394-.273.572-.327.52-.73.99-1.196 1.391-1.773 1.472-4.098 2.098-6.37 1.716-3.335-.7-6.232-2.747-8.008-5.655-1.048-1.637-1.92-3.38-2.6-5.2-.351-.949-.728-1.911-1.027-2.925-.351-1.054-.475-2.17-.364-3.276.116-1.152.681-2.212 1.573-2.951.928-.668 2.11-.878 3.211-.572 2.015.551 3.62 2.073 4.277 4.056.654 1.758.462 3.719-.52 5.317-.85 1.37-2.173 2.383-3.718 2.847-1.284.377-2.657.313-3.9-.182-.915-.357-1.737-.917-2.405-1.638-.416-.45-.758-.964-1.014-1.521-.1-.19-.167-.397-.195-.611.382.708.853 1.364 1.404 1.95.664.654 1.462 1.155 2.34 1.469 1.152.413 2.406.44 3.575.078 1.412-.457 2.612-1.408 3.38-2.678.87-1.46 1.023-3.236.416-4.823-.617-1.779-2.08-3.134-3.9-3.614-.891-.24-1.843-.074-2.6.455-.738.64-1.203 1.537-1.3 2.509-.234 2.015.689 3.991 1.3 5.863.654 1.82 1.504 3.563 2.535 5.2 1.667 2.796 4.397 4.795 7.566 5.538 2.155.396 4.377-.132 6.123-1.456.642-.544 1.21-1.168 1.69-1.859zM155.194 155.104l-.351.299-1.092.845c-1.404 1.067-2.901 2.006-4.472 2.808-1.149.577-2.375.984-3.64 1.209-1.521.283-3.089.185-4.563-.286-3.514-1.375-6.432-3.943-8.242-7.254-5.111-8.524-5.016-19.193.247-27.625 1.42-2.473 3.548-4.465 6.11-5.72 1.384-.594 2.906-.787 4.394-.559 1.537.214 2.933 1.01 3.9 2.223.934 1.28 1.368 2.856 1.222 4.433-.127 1.56-.607 3.072-1.404 4.42-1.702 2.699-4.247 4.76-7.241 5.863-2.957 1.104-6.148 1.435-9.269.962-3.028-.47-5.9-1.66-8.372-3.471-4.591-3.497-8.017-8.3-9.828-13.78-1.035-2.494-1.445-5.203-1.196-7.891.197-1.307.715-2.544 1.508-3.601.79-1.037 1.916-1.768 3.185-2.067 2.414-.44 4.881.418 6.5 2.262 1.445 1.733 2.028 4.027 1.586 6.24-.332 1.953-1.237 3.763-2.6 5.2-1.252 1.255-2.753 2.234-4.407 2.873-2.63 1.011-5.442 1.454-8.255 1.3-1.742-.083-3.478-.26-5.2-.533l-1.3-.221-.455-.091c.15-.023.304-.023.455 0l1.365.156c1.196.117 2.964.351 5.2.403 2.76.131 5.518-.312 8.099-1.3 1.59-.64 3.033-1.6 4.238-2.821 1.323-1.387 2.197-3.14 2.509-5.031.393-2.065-.16-4.197-1.508-5.811-1.511-1.696-3.798-2.48-6.032-2.067-2.33.72-3.997 2.772-4.225 5.2-.219 2.59.192 5.195 1.196 7.592 1.785 5.348 5.143 10.033 9.633 13.442 2.383 1.747 5.152 2.893 8.073 3.341 3.011.46 6.09.142 8.944-.923 2.846-1.047 5.267-3.002 6.89-5.564.739-1.263 1.183-2.676 1.3-4.134.138-1.415-.25-2.832-1.092-3.978-.867-1.085-2.12-1.793-3.497-1.976-1.364-.212-2.76-.037-4.03.507-2.452 1.195-4.49 3.096-5.85 5.46-5.164 8.239-5.3 18.67-.351 27.04 1.732 3.234 4.542 5.76 7.943 7.137 2.659.776 5.515.492 7.969-.793 1.579-.765 3.088-1.666 4.511-2.691l1.131-.78c.11-.098.232-.182.364-.247zM119.327 82.2c-.077.405-.217.796-.416 1.157-.46 1.026-1.017 2.005-1.664 2.925-4.323 6.281-11.664 9.783-19.266 9.191-1.124-.073-2.238-.251-3.328-.533-.409-.079-.803-.219-1.17-.416 0-.117 1.729.377 4.524.481 7.389.309 14.45-3.066 18.85-9.009 1.677-2.275 2.353-3.9 2.47-3.796zM138.528 87.686c-1.315.391-2.555 1.002-3.666 1.807-.984.957-1.786 2.084-2.366 3.328-.078 0-.104-.52.143-1.3.357-1.007.97-1.904 1.781-2.6.807-.678 1.781-1.127 2.821-1.3.793-.117 1.287-.013 1.287.065zM166.023 95.33c-.399-.093-.775-.265-1.105-.507-.936-.586-1.755-1.34-2.418-2.223-1.024-1.337-1.646-2.938-1.794-4.615-.094-1.034.188-2.068.793-2.912.658-.993 1.842-1.503 3.016-1.3 1.132.292 2.03 1.155 2.366 2.275.324 1.033.099 2.16-.598 2.99-1.136 1.384-3.02 1.905-4.706 1.3-1.074-.41-1.987-1.159-2.6-2.132-.429-.676-.52-1.105-.481-1.118.039-.013.221.377.689.962.642.846 1.52 1.484 2.522 1.833 1.466.487 3.081.016 4.056-1.183.561-.667.734-1.579.455-2.405-.276-.881-.981-1.562-1.872-1.807-.911-.15-1.827.246-2.34 1.014-.522.718-.77 1.598-.702 2.483.118 1.566.657 3.07 1.56 4.355.888 1.158 1.954 2.167 3.159 2.99zM171.21 80.159c-1.261-1.223-2.71-2.236-4.29-3.003-1.676-.565-3.431-.863-5.2-.884 0-.078.559-.312 1.573-.39 1.333-.083 2.667.139 3.9.65 1.22.497 2.309 1.266 3.185 2.249.65.819.897 1.326.832 1.378zM206.96 95.291c-.077.067-.165.12-.26.156l-.78.403c-1.018.485-2.059.919-3.12 1.3-3.928 1.433-8.065 2.21-12.246 2.301-1.398.029-2.794-.107-4.16-.403-1.516-.31-2.93-1-4.108-2.002-1.257-1.139-1.982-2.75-2.002-4.446-.026-1.784.587-3.518 1.729-4.888 2.673-2.803 6.722-3.816 10.4-2.6 3.951 1.093 7.076 4.12 8.294 8.034 1.184 3.931.25 8.195-2.47 11.271-2.601 2.68-5.964 4.496-9.633 5.2-3.249.624-6.546.959-9.854 1.001-2.856.045-5.704.323-8.515.832-4.097.663-7.818 2.781-10.478 5.967-.902 1.216-1.576 2.586-1.989 4.043-.017-.099-.017-.2 0-.299.051-.29.12-.577.208-.858.336-1.093.855-2.122 1.534-3.042 2.635-3.324 6.402-5.56 10.582-6.279 2.834-.546 5.708-.854 8.593-.923 3.27-.07 6.528-.422 9.737-1.053 3.531-.674 6.768-2.422 9.269-5.005 2.56-2.905 3.44-6.925 2.327-10.634-1.146-3.689-4.082-6.546-7.8-7.592-3.425-1.107-7.182-.169-9.685 2.418-1.057 1.254-1.629 2.845-1.612 4.485.007 1.539.658 3.005 1.794 4.043 1.096.952 2.415 1.61 3.835 1.911 1.322.3 2.675.443 4.03.429 4.14-.043 8.248-.745 12.168-2.08 1.391-.468 2.444-.897 3.159-1.196.336-.196.688-.361 1.053-.494zM174.525 146.329c-.104 0-.559-1.079-1.742-2.6-1.537-1.982-3.587-3.506-5.928-4.407-2.354-.858-4.896-1.064-7.358-.598-1.898.364-2.99.923-3.042.819.87-.647 1.874-1.092 2.938-1.3 5.225-1.324 10.722.752 13.767 5.2.669.845 1.136 1.833 1.365 2.886zM189.709 156.157c-.356 1.004-.965 1.9-1.768 2.6-3.808 3.91-9.924 4.394-14.3 1.131-.907-.576-1.654-1.372-2.171-2.314.091-.078.845.897 2.444 1.924 4.255 2.828 9.892 2.382 13.65-1.079 1.456-1.248 2.041-2.327 2.145-2.262zM193.7 130.3c0 .104-.832-.377-2.21-.741-1.795-.47-3.685-.435-5.46.104-1.757.587-3.315 1.655-4.498 3.081-.923 1.105-1.3 1.937-1.378 1.898.118-.806.46-1.563.988-2.184 2.345-3.342 6.628-4.713 10.478-3.354.79.2 1.51.614 2.08 1.196zM242.099 118.34c.11.312.188.634.234.962.093.393.15.793.169 1.196.054.549.054 1.102 0 1.651-.161 3.545-1.465 6.943-3.718 9.685-3.29 4.217-8.381 6.628-13.728 6.5-6.524-.122-12.651-3.155-16.705-8.268-1.066-1.335-1.864-2.862-2.353-4.498-.465-1.627-.433-3.357.091-4.966.487-1.587 1.58-2.919 3.042-3.705 1.42-.692 3.033-.884 4.576-.546 1.47.295 2.825 1.009 3.9 2.054.968.995 1.694 2.201 2.119 3.523.743 2.364.72 4.903-.065 7.254-1.135 3.383-3.508 6.211-6.643 7.917-.827.446-1.698.803-2.6 1.066-.32.084-.646.145-.975.182 1.209-.38 2.38-.871 3.497-1.469 2.998-1.729 5.25-4.508 6.318-7.8.722-2.253.722-4.676 0-6.929-.407-1.231-1.092-2.352-2.002-3.276-.992-.947-2.231-1.596-3.575-1.872-1.4-.292-2.858-.114-4.147.507-1.305.718-2.28 1.917-2.717 3.341-.443 1.493-.443 3.083 0 4.576.465 1.558 1.229 3.01 2.249 4.277 3.928 4.944 9.846 7.892 16.159 8.047 5.121.107 10.003-2.164 13.221-6.149 2.232-2.653 3.574-5.941 3.835-9.399.044-1.29-.017-2.581-.182-3.861zM252.2 145.263s-.338-.273-.793-.897c-.645-.886-1.125-1.881-1.417-2.938-.398-1.585-.469-3.235-.208-4.849.314-1.936.748-3.85 1.3-5.733 1.122-3.39 2.687-6.615 4.654-9.594.728-1.157 1.3-2.067 1.781-2.678.201-.345.45-.66.741-.936-.616 1.347-1.324 2.65-2.119 3.9-1.816 3.009-3.294 6.209-4.407 9.542-.54 1.85-.974 3.73-1.3 5.629-.29 1.533-.29 3.108 0 4.641.428 1.371 1.022 2.686 1.768 3.913zM276.744 115.35s.182.312.39.936c.293.847.515 1.716.663 2.6.997 6.071-.376 12.293-3.835 17.381-.513.76-1.087 1.478-1.716 2.145-.455.468-.715.715-.754.676-.039-.039.858-1.144 2.067-3.081 3.15-5.095 4.475-11.11 3.757-17.056-.273-2.197-.689-3.562-.572-3.601zM191.685 176.138s-.208-.078-.572-.286c-.511-.317-1.04-.604-1.586-.858-1.987-.968-4.131-1.572-6.331-1.781-3.264-.308-6.552.22-9.555 1.534-1.764.757-3.376 1.827-4.758 3.159-.743.67-1.378 1.451-1.885 2.314-.514.86-.742 1.862-.65 2.86.095.975.6 1.864 1.391 2.444.796.46 1.766.504 2.6.117 1.646-.9 2.593-2.697 2.405-4.563-.114-3.27-1.948-6.237-4.823-7.8-1.957-1.009-4.204-1.307-6.357-.845-.787.2-1.56.451-2.314.754.16-.141.34-.26.533-.351.55-.273 1.124-.49 1.716-.65 2.222-.59 4.582-.355 6.643.663 3.086 1.616 5.07 4.76 5.2 8.242.04 1.008-.146 2.012-.546 2.938-.445.993-1.235 1.792-2.223 2.249-1.05.505-2.284.442-3.276-.169-.968-.679-1.59-1.748-1.703-2.925-.104-1.139.155-2.281.741-3.263.537-.924 1.217-1.758 2.015-2.47 1.444-1.377 3.127-2.478 4.966-3.25 3.104-1.326 6.5-1.823 9.854-1.443 2.243.255 4.416.944 6.396 2.028.543.28 1.06.606 1.547.975.206.1.399.227.572.377zM196.391 186.902c-.33 1.084-.863 2.094-1.573 2.977-1.027 1.547-1.989 2.717-2.145 2.6.32-1.091.855-2.108 1.573-2.99 1.027-1.521 2.054-2.691 2.145-2.587zM212.888 205.505c-.104 0-.286-.455-.741-1.131-.59-.866-1.373-1.583-2.288-2.093-.915-.515-1.94-.805-2.99-.845-.806 0-1.3.065-1.3 0s.455-.351 1.3-.442c2.366-.18 4.61 1.068 5.707 3.172.377.767.39 1.326.312 1.339zM159.198 198.875c0 .104-1.573.897-4.082 2.34-3.294 1.785-6.28 4.09-8.84 6.825-2.512 2.772-4.14 6.23-4.68 9.932-.126 1.542-.091 3.093.104 4.628-.197-.382-.325-.795-.377-1.222-.217-1.14-.279-2.302-.182-3.458.412-3.853 2.042-7.473 4.654-10.335 2.599-2.8 5.682-5.107 9.1-6.812 1.3-.663 2.353-1.157 3.107-1.482.378-.191.78-.331 1.196-.416zM178.295 205.232s-.728-.429-1.417-1.573c-1.75-3.091-1.43-6.938.806-9.698.421-.576.992-1.026 1.651-1.3.078.104-.559.585-1.3 1.599-.908 1.338-1.459 2.887-1.599 4.498-.132 1.61.154 3.227.832 4.693.572 1.105 1.118 1.69 1.027 1.781zM148.434 181.676s-.234-.299-.741-.754c-.773-.642-1.71-1.056-2.704-1.196-1.575-.234-3.183.097-4.537.936-1.762 1.169-3.234 2.725-4.303 4.55-1.3 1.976-2.379 4.355-4.017 6.669-1.757 2.508-4.272 4.385-7.176 5.356-3.233 1.076-6.755.87-9.841-.572-3.32-1.539-5.912-4.308-7.228-7.722-.695-1.75-.773-3.685-.221-5.486.594-1.735 1.788-3.201 3.367-4.134 1.499-.93 3.265-1.332 5.018-1.144 1.67.242 3.228.98 4.472 2.119 2.279 2.104 3.559 5.076 3.523 8.177-.06 2.66-.906 5.243-2.431 7.423-1.228 1.794-2.829 3.302-4.693 4.42-1.397.843-2.901 1.495-4.472 1.937-.983.29-1.987.503-3.003.637l-.793.091h-.273c.341-.098.689-.172 1.04-.221.999-.189 1.984-.44 2.951-.754 1.528-.481 2.988-1.158 4.342-2.015 1.8-1.115 3.338-2.605 4.511-4.368 1.44-2.11 2.227-4.596 2.262-7.15.01-2.931-1.217-5.73-3.38-7.709-1.15-1.053-2.59-1.733-4.134-1.95-1.607-.16-3.222.22-4.589 1.079-1.45.847-2.546 2.19-3.081 3.783-.498 1.658-.42 3.436.221 5.044 1.258 3.244 3.723 5.876 6.877 7.345 2.932 1.379 6.281 1.584 9.36.572 2.796-.906 5.223-2.694 6.916-5.096 1.612-2.236 2.73-4.602 4.069-6.591 1.126-1.867 2.67-3.447 4.511-4.615 1.435-.852 3.128-1.161 4.771-.871 1.024.16 1.98.612 2.756 1.3.266.265.485.573.65.91zM148.876 201.93c-.813-.392-1.531-.955-2.106-1.651-2.997-3.25-4.321-7.704-3.588-12.064.086-.918.375-1.806.845-2.6.104 0-.208 1.014-.377 2.6-.454 4.21.802 8.425 3.484 11.7 1.066 1.287 1.807 1.885 1.742 2.015zM153.66 171.965s-.923-.442-2.6-1.105c-2.385-.951-4.878-1.606-7.423-1.95-3.772-.513-7.605-.328-11.31.546-2.17.502-4.264 1.288-6.227 2.34-.996.508-1.743 1.4-2.067 2.47-.223 1.063.316 2.14 1.3 2.6.5.125 1.03-.035 1.378-.416.368-.415.634-.908.78-1.443.264-1.133.36-2.298.286-3.458-.091-2.22-.654-4.397-1.651-6.383-.9-1.802-2.151-3.406-3.679-4.719-1.34-1.131-2.872-2.012-4.524-2.6-2.415-.859-5.003-1.118-7.54-.754-1.794.286-2.73.689-2.756.611.217-.117.443-.217.676-.299.664-.245 1.347-.436 2.041-.572 2.584-.472 5.246-.28 7.735.559 1.722.573 3.325 1.454 4.732 2.6 1.621 1.335 2.949 2.99 3.9 4.862 1.062 2.06 1.666 4.327 1.768 6.643.082 1.23-.024 2.467-.312 3.666-.164.651-.49 1.25-.949 1.742-.518.551-1.296.776-2.028.585-.682-.231-1.237-.735-1.534-1.391-.308-.62-.408-1.321-.286-2.002.364-1.254 1.223-2.306 2.379-2.912 2.03-1.074 4.194-1.874 6.435-2.379 3.78-.856 7.686-.997 11.518-.416 2.574.39 5.084 1.125 7.462 2.184.832.377 1.469.715 1.885.949.221.121.427.27.611.442zM52.351 175.696s.806-.624 2.08-1.924c1.815-1.848 3.212-4.065 4.095-6.5 1.376-3.56 1.259-7.525-.325-10.998-.958-2.015-2.384-3.772-4.16-5.122-1.868-1.458-4.135-2.315-6.5-2.457-1.188-.035-2.368.21-3.445.715-1.033.453-1.852 1.286-2.288 2.327-.34 1.022-.165 2.145.468 3.016.604.859 1.47 1.498 2.47 1.82 1.924.536 3.987.188 5.629-.949 1.47-.964 2.649-2.313 3.406-3.9 1.028-2.356 1.58-4.892 1.625-7.462 0-.858.078-1.56.091-2.119-.028-.242-.028-.486 0-.728.06.238.086.483.078.728v2.119c.05 2.631-.45 5.243-1.469 7.67-.771 1.68-1.996 3.112-3.536 4.134-1.777 1.257-4.023 1.653-6.123 1.079-1.134-.362-2.12-1.083-2.808-2.054-.753-1.041-.961-2.38-.559-3.601.485-1.204 1.416-2.173 2.6-2.704 1.17-.561 2.46-.833 3.757-.793 2.522.132 4.942 1.04 6.929 2.6 1.852 1.419 3.333 3.266 4.316 5.382.902 1.908 1.347 4 1.3 6.11-.045 1.826-.41 3.63-1.079 5.33-.941 2.465-2.425 4.687-4.342 6.5-.515.476-1.067.91-1.651 1.3-.165.183-.353.345-.559.481zM79.3 195.04c-.384-.314-.725-.677-1.014-1.079-.85-1.052-1.594-2.184-2.223-3.38-4.368-8.1-3.716-17.985 1.677-25.441.766-1.104 1.636-2.132 2.6-3.068.337-.362.722-.677 1.144-.936.104.104-1.521 1.469-3.406 4.277-5.025 7.405-5.652 16.949-1.638 24.947 1.56 3.029 2.964 4.602 2.86 4.68zM104.702 166.765c-.13 0-.663-1.95-2.275-4.823-4.22-7.602-11.88-12.67-20.527-13.585-3.263-.364-5.317-.078-5.33-.208.465-.141.945-.224 1.43-.247 1.298-.106 2.602-.106 3.9 0 8.902.673 16.82 5.913 20.917 13.845.614 1.166 1.124 2.384 1.521 3.64.181.441.304.905.364 1.378z" transform="translate(110.5 46.5)"/>
            <path fill="#000" d="M140.218 203.1c-1.3.533-1.118 2.509-.078 3.367 1.152.75 2.542 1.047 3.9.832 15.489-.873 29.703-8.858 38.506-21.632-11.7 9.633-27.17 13.273-41.99 16.64M137.904 189.892c-1.3-1.963-.429-4.719 1.235-6.383 1.795-1.51 3.823-2.717 6.006-3.575 7.71-3.83 13.885-10.172 17.511-17.979 2.366-5.122 4.16-11.414 9.386-13.507-2.973 18.417-15.806 33.72-33.423 39.858M100.997 122.5c1.304 14.23.295 28.577-2.99 42.484-.857 2.913-1.346 5.922-1.456 8.957.23 3.264 1.796 6.288 4.329 8.359 2.158-4.966 2.197-9.763 3.107-15.119.819-4.823 2.184-16.094 2.184-16.263.195-9.854-2.132-18.304-5.915-27.183M125.502 79.808c1.938 10.5 7.073 20.144 14.703 27.612 2.886 2.795 6.5 5.382 10.465 5.2-2.307-4.754-3.01-10.127-2.002-15.314 3.369 2.284 6.952 4.234 10.699 5.824 3.778 1.576 7.931 2.027 11.96 1.3.867-7.202 1.703-14.404 2.509-21.606.173-.807.091-1.647-.234-2.405-.403-.715-1.495-1.092-2.054-.494-.214.276-.353.603-.403.949-1.469 6.305-2.288 11.96-3.744 18.2-1.053 1.053-4.29.611-6.422-.169-1.859-.689-2.6-2.223-3.809-3.77-1.209-1.547-1.001-1.3-2.834-2.054-3.341-1.43-9.776-.286-11.18 2.717s-.338 6.968.585 9.932c-9.323-6.074-16.069-15.38-18.941-26.13M196.391 110.293c-.26.533 8.086 28.704 8.086 28.704l-10.777-6.175 2.691-22.529z" opacity=".3" transform="translate(110.5 46.5)"/>
            <path fill="#FFBE9D" d="M129.09 28.523v44.876c.013 2.57.934 5.051 2.6 7.007 2.531 3.007 5.583 5.535 9.009 7.462l9.1 5.096 7.488-6.682c2.206-1.965 3.516-4.744 3.627-7.696.13-3.263.13-6.5.13-6.5s12.688-.91 13.871-13.429c.559-5.889.741-17.953.78-29.068.017-12.681-9.697-23.254-22.334-24.31h-.364c-6.278-.176-12.36 2.195-16.862 6.573-4.503 4.378-7.044 10.39-7.045 16.671z" transform="translate(110.5 46.5)"/>
            <path fill="#EB996E" d="M160.953 72.034c-5.785-.498-11.306-2.64-15.912-6.175 0 0 3.289 9.49 15.873 9.399l.039-3.224z" transform="translate(110.5 46.5)"/>
            <path fill="#263238" d="M171.899 37.584c-.05.988-.883 1.753-1.872 1.716-.463-.003-.906-.192-1.228-.525-.323-.332-.498-.78-.488-1.243.07-.97.9-1.709 1.872-1.664.945.007 1.709.771 1.716 1.716zM172.406 34.581c-.247.221-1.521-.897-3.445-1.053-1.924-.156-3.406.702-3.601.442-.195-.26.169-.52.819-.91.883-.505 1.9-.727 2.912-.637 1 .073 1.95.47 2.704 1.131.559.546.728.936.611 1.027zM153.751 36.7c-.076.97-.913 1.703-1.885 1.651-.46 0-.902-.186-1.223-.517-.32-.33-.494-.777-.48-1.238.026-.483.247-.935.612-1.254.365-.318.843-.475 1.325-.436.95.042 1.688.844 1.651 1.794zM153.4 33.385c-.234.208-1.508-.91-3.432-1.053-1.924-.143-3.419.689-3.601.429-.182-.26.156-.507.819-.91.878-.505 1.89-.728 2.899-.637 1.004.074 1.957.47 2.717 1.131.598.455.767.936.598 1.04zM159.263 48.231c1.04-.24 2.106-.346 3.172-.312.494 0 .962 0 1.079-.39.077-.504.005-1.02-.208-1.482-.364-1.3-.741-2.522-1.144-3.9-1.586-5.499-2.678-9.997-2.457-10.062.221-.065 1.677 4.342 3.263 9.841.377 1.3.728 2.6 1.079 3.9.254.62.286 1.309.091 1.95-.173.341-.495.581-.871.65-.28.03-.564.03-.845 0-1.057.06-2.117-.005-3.159-.195zM153.491 49.089c.312 0 .143 2.093 1.807 3.731s3.9 1.586 3.9 1.872c0 .286-.533.364-1.469.312-1.223-.067-2.383-.565-3.276-1.404-.848-.821-1.342-1.94-1.378-3.12-.013-.91.325-1.417.416-1.391zM154.583 25.884c-.234.507-2.145.091-4.42.182s-4.16.546-4.42 0c-.117-.234.247-.702 1.027-1.144 1.029-.55 2.174-.85 3.341-.871 1.166-.044 2.325.192 3.38.689.806.455 1.209.897 1.092 1.144zM172.159 28.965c-.377.403-1.664-.156-3.263-.312s-2.964 0-3.237-.429c-.117-.234.13-.663.754-1.027 1.697-.858 3.742-.622 5.2.598.559.494.715.962.546 1.17zM143.819 15.9c-2.132 1.397-3.634 3.57-4.186 6.058l-.065.247c-.78 3.536-.988 7.176-1.82 10.699-.832 3.523-.663 6.214-4.186 7.007-1.896.467-3.883-.295-4.979-1.911-.266-.516-.375-1.1-.312-1.677 0-8.684-1.703-12.051-.936-21.073.216-2.424 1.578-4.599 3.666-5.85 2.002-1.196 4.42-2.418 6.435-1.3 2.015 1.118 4.407 5.317 5.902 7.124" transform="translate(110.5 46.5)"/>
            <path fill="#FFBE9D" d="M132.847 34.542c-.208-.104-8.398-3.25-8.827 5.33-.429 8.58 8.268 7.254 8.294 7.007.026-.247.533-12.337.533-12.337z" transform="translate(110.5 46.5)"/>
            <path fill="#EB996E" d="M129.857 43.486s-.156.104-.416.208c-.36.142-.759.142-1.118 0-1.088-.776-1.674-2.077-1.534-3.406.009-.737.187-1.462.52-2.119.198-.532.637-.937 1.183-1.092.358-.072.717.119.858.455.104.247 0 .416.091.429.091.013.195-.13.143-.494-.037-.213-.147-.406-.312-.546-.225-.196-.522-.29-.819-.26-.734.114-1.352.609-1.625 1.3-.405.724-.628 1.536-.65 2.366-.162 1.56.627 3.067 2.002 3.822.461.156.968.094 1.378-.169.273-.286.325-.468.299-.494z" transform="translate(110.5 46.5)"/>
            <path fill="#263238" d="M137.033 9.4c-1.82-3.601 4.355-8.034 8.697-9.022 4.342-.988 9.724 1.534 13.819 3.289 2.6 1.092 5.122 2.6 7.93 2.6 1.882-.034 3.749-.35 5.538-.936 1.794-.58 3.686-.793 5.564-.624 1.91.208 3.55 1.453 4.264 3.237.289.892.177 1.865-.307 2.668-.484.803-1.292 1.357-2.215 1.518 1.708-.759 3.712-.301 4.922 1.124 1.209 1.426 1.334 3.477.307 5.04-1.027 1.561-2.96 2.26-4.748 1.714 1.3-.819 3.029.858 2.756 2.366-.461 1.495-1.677 2.637-3.198 3.003-3.692 1.3-7.8.429-11.414-1.118-3.614-1.547-6.851-3.77-10.4-5.421-3.549-1.651-9.49-4.537-13.273-3.549-2.782.741-4.94 3.835-6.409 2.99-1.373-.902-2.247-2.392-2.366-4.03-.069-1.64.124-3.282.572-4.862" transform="translate(110.5 46.5)"/>
            <path fill="#455A64" d="M181.376 12c-.065 0-.494.598-1.495 1.521-1.429 1.282-3.146 2.2-5.005 2.678-2.741.734-5.66.37-8.138-1.014-2.808-1.547-5.083-4.355-7.8-7.059-2.45-2.714-5.678-4.607-9.243-5.421-2.986-.617-6.09.18-8.411 2.158-1.503 1.39-2.371 3.335-2.405 5.382.006.541.085 1.079.234 1.599.13.351.208.52.247.52-.107-.701-.159-1.41-.156-2.119.17-1.898 1.064-3.657 2.496-4.914 2.214-1.77 5.11-2.445 7.878-1.833 3.38.815 6.437 2.627 8.775 5.2 2.6 2.6 4.966 5.538 7.969 7.15 4.55 2.397 10.13 1.542 13.754-2.106.377-.398.712-.834 1.001-1.3.234-.234.325-.442.299-.442zM130.702 33.996s.377-.208.767-.858c.503-.941.737-2.003.676-3.068 0-2.782-2.158-5.941-2.145-9.776-.077-1.778.4-3.536 1.365-5.031.828-1.183 2.026-2.057 3.406-2.483.935-.308 1.936-.362 2.899-.156.676.169 1.027.351 1.066.286.039-.065-.273-.325-.975-.598-1.013-.355-2.11-.396-3.146-.117-1.56.391-2.938 1.31-3.9 2.6-1.102 1.616-1.653 3.545-1.573 5.499.056 1.9.461 3.772 1.196 5.525.592 1.36.994 2.795 1.196 4.264.125 1.358-.165 2.723-.832 3.913z" transform="translate(110.5 46.5)"/>
        </g>
        <g fill="#5069E8" transform="translate(59.8 174.2)">
            <path d="M216.71 154.219h-1.937l-5.681.078c-4.979.078-12.337.273-21.814.728-9.477.455-21.021 1.3-34.398 2.86-6.682.806-13.819 1.716-21.346 2.964-7.527 1.248-15.47 2.704-23.725 4.589-8.255 1.885-16.9 4.121-25.636 6.994-9.15 2.9-18.038 6.567-26.572 10.959-4.463 2.356-8.713 5.096-12.701 8.19-4.163 3.112-7.692 6.99-10.4 11.427-.312.572-.65 1.131-.949 1.716l-.741 1.833-.364.923c-.104.312-.169.637-.247.962l-.468 1.924c-.415 2.642-.282 5.341.39 7.93 1.3 5.278 4.758 9.815 8.736 13.637 8.151 7.657 18.538 13 29.315 17.446 11.095 4.443 22.506 8.054 34.138 10.803 24.48 5.727 49.398 9.397 74.49 10.972 25.102 1.695 50.286 1.795 75.4.299 23.398-1.314 46.666-4.355 69.615-9.1 10.675-2.252 21.217-5.095 31.577-8.515 9.784-3.163 19.233-7.282 28.21-12.298 4.228-2.437 8.211-5.276 11.895-8.476 3.592-3.025 6.525-6.755 8.619-10.959l.637-1.586c.238-.517.42-1.057.546-1.612l.403-1.638c.065-.273.143-.546.182-.819v-.845c.278-2.177.115-4.388-.481-6.5-.641-2.077-1.569-4.055-2.756-5.876-1.195-1.759-2.539-3.412-4.017-4.94-2.901-2.914-6.09-5.527-9.516-7.8-3.244-2.198-6.613-4.208-10.088-6.019-6.37-3.318-12.94-6.24-19.669-8.749-10.784-4.023-21.791-7.417-32.968-10.166-9.191-2.301-16.406-3.744-21.307-4.68-2.444-.494-4.316-.806-5.577-1.04l-1.898-.364s2.6.377 7.501 1.3 12.142 2.301 21.346 4.563c11.204 2.658 22.239 5.983 33.046 9.958 6.753 2.494 13.344 5.407 19.734 8.723 3.495 1.806 6.881 3.816 10.14 6.019 3.464 2.294 6.684 4.938 9.607 7.891 1.51 1.544 2.88 3.219 4.095 5.005 1.214 1.857 2.163 3.874 2.821 5.993.624 2.196.796 4.496.507 6.76l-.065.858c0 .286-.13.559-.182.845l-.403 1.677c-.133.567-.32 1.12-.559 1.651l-.663 1.625c-2.084 4.266-5.022 8.058-8.632 11.141-3.71 3.228-7.72 6.097-11.973 8.567-9.014 5.04-18.502 9.182-28.327 12.363-10.374 3.445-20.934 6.305-31.629 8.567-22.978 4.757-46.277 7.8-69.706 9.1-25.148 1.519-50.368 1.428-75.504-.273-25.146-1.574-50.116-5.257-74.646-11.011-11.663-2.758-23.105-6.382-34.229-10.842-10.816-4.498-21.255-9.841-29.497-17.589-4.03-3.9-7.579-8.502-8.892-13.936-.7-2.669-.833-5.454-.39-8.177l.468-1.989c.091-.338.156-.676.26-.988l.377-.949.754-1.885c.312-.598.663-1.17.988-1.755 2.743-4.499 6.322-8.43 10.543-11.583 4.032-3.093 8.325-5.829 12.831-8.177 8.574-4.396 17.502-8.066 26.689-10.972 8.801-2.86 17.42-5.096 25.688-6.955 8.268-1.859 16.211-3.354 23.751-4.537 7.54-1.183 14.69-2.145 21.385-2.925 13.377-1.495 24.96-2.288 34.424-2.743 9.464-.455 16.835-.572 21.827-.611h5.681l1.937.039z"/>
            <path d="M110.5 55.718s-.741.169-2.197.455c-1.456.286-3.601.702-6.422 1.3-5.629 1.17-13.936 2.977-24.492 5.863-12.837 3.426-25.382 7.864-37.518 13.273-3.536 1.612-7.137 3.393-10.738 5.434-3.735 2.075-7.335 4.385-10.777 6.916-3.654 2.641-6.99 5.694-9.945 9.1-3.18 3.574-5.496 7.83-6.773 12.441-1.258 4.838-.883 9.956 1.066 14.56 2.1 4.762 5.163 9.038 8.996 12.558 7.696 7.371 17.459 13 27.859 17.771 20.93 9.516 44.85 15.899 70.2 20.657 26.63 4.817 53.56 7.788 80.6 8.892 29.011 1.303 58.075.786 87.022-1.547 29.731-2.483 58.656-6.851 85.865-14.001 13.374-3.404 26.45-7.882 39.104-13.39 6.12-2.689 12.026-5.84 17.667-9.425 5.545-3.44 10.56-7.671 14.885-12.558 4.147-4.849 7.215-10.79 7.384-17.056.04-.776.013-1.555-.078-2.327-.023-.772-.106-1.541-.247-2.301l-.507-2.262c-.199-.74-.45-1.466-.754-2.171-1.105-2.852-2.606-5.535-4.459-7.969-3.768-4.689-8.21-8.794-13.182-12.181-4.816-3.303-9.864-6.253-15.106-8.827-9.985-4.86-20.334-8.932-30.953-12.181-10.179-3.185-20.124-5.72-29.666-7.8-30.23-6.376-60.93-10.289-91.793-11.7-10.92-.572-19.422-.585-25.168-.741l-6.5-.143h-2.236 2.236l6.5.078c5.759.104 14.3.078 25.181.611 30.907 1.294 61.656 5.125 91.936 11.453 9.555 2.093 19.5 4.615 29.718 7.8 10.63 3.211 20.992 7.25 30.992 12.077 5.266 2.578 10.336 5.537 15.171 8.853 5.028 3.41 9.519 7.55 13.325 12.285 1.892 2.482 3.428 5.217 4.563 8.125.304.727.556 1.474.754 2.236l.52 2.314c.14.782.226 1.572.26 2.366.09.79.117 1.585.078 2.379-.123 3.221-.888 6.386-2.249 9.308-1.345 2.942-3.095 5.682-5.2 8.138-4.363 4.935-9.421 9.21-15.015 12.688-5.67 3.602-11.601 6.774-17.745 9.49-12.688 5.535-25.8 10.043-39.208 13.481-27.3 7.163-56.212 11.544-85.982 14.014-28.972 2.346-58.063 2.863-87.1 1.547-27.04-1.125-53.97-4.114-80.6-8.944-25.402-4.784-49.4-11.193-70.343-20.8-10.4-4.849-20.228-10.465-27.989-17.927-3.88-3.583-6.98-7.929-9.1-12.766-1.976-4.706-2.35-9.932-1.066-14.872 1.305-4.645 3.653-8.931 6.864-12.532 2.979-3.445 6.347-6.534 10.036-9.204 3.464-2.526 7.08-4.835 10.829-6.916 3.627-2.041 7.241-3.822 10.777-5.434 12.168-5.39 24.749-9.794 37.622-13.169 10.569-2.847 18.889-4.615 24.531-5.746 5.642-1.131 8.567-1.573 8.567-1.573zM156 251.901l-6.5 1.027c-4.238.676-10.504 1.755-18.486 3.497-9.693 2.091-19.245 4.787-28.6 8.073-5.838 2.075-11.528 4.546-17.03 7.397-2.998 1.566-5.886 3.334-8.645 5.291-2.92 2.032-5.587 4.407-7.943 7.072-1.203 1.392-2.254 2.908-3.133 4.524-.915 1.62-1.568 3.376-1.937 5.2-.078.468-.182.936-.234 1.404l-.078 1.43c0 .962.117 1.924.208 2.886.198.952.446 1.894.741 2.821l.546 1.365.286.676.364.65c1.995 3.53 4.642 6.649 7.8 9.191 3.23 2.677 6.713 5.032 10.4 7.033 7.827 4.185 16.037 7.611 24.518 10.231 8.964 2.83 18.078 5.16 27.3 6.981 19.834 3.893 39.932 6.296 60.125 7.189 21.668 1.067 43.383.69 65-1.131 22.204-1.924 43.81-5.317 64.038-11.037 9.951-2.73 19.616-6.413 28.86-10.998 4.453-2.262 8.66-4.976 12.558-8.099.988-.741 1.82-1.651 2.73-2.47.91-.819 1.664-1.794 2.483-2.678 1.542-1.863 2.79-3.95 3.705-6.188 1.803-4.435 1.595-9.433-.572-13.702-2.224-4.056-5.276-7.6-8.957-10.4-7.163-5.694-15.288-9.529-23.231-12.714-7.719-3.023-15.621-5.554-23.66-7.579-7.722-1.989-15.21-3.562-22.412-4.823-22.768-3.889-45.804-5.997-68.9-6.305l-25.389-.13s9.1-.117 25.389 0c23.093.242 46.132 2.307 68.9 6.175 7.202 1.3 14.703 2.821 22.438 4.81 8.053 2.014 15.969 4.541 23.699 7.566 7.969 3.185 16.12 7.02 23.4 12.753 3.745 2.831 6.846 6.425 9.1 10.543 2.208 4.363 2.426 9.466.598 14.001-.929 2.27-2.195 4.387-3.757 6.279-.845.897-1.612 1.872-2.509 2.717-.897.845-1.768 1.742-2.769 2.483-3.907 3.154-8.133 5.89-12.61 8.164-9.24 4.581-18.895 8.273-28.834 11.024-20.983 5.683-42.454 9.383-64.129 11.05-21.618 1.819-43.332 2.197-65 1.131-20.215-.908-40.334-3.32-60.19-7.215-9.222-1.835-18.336-4.179-27.3-7.02-8.496-2.63-16.719-6.068-24.557-10.27-3.734-2.01-7.261-4.383-10.53-7.085-3.189-2.574-5.861-5.728-7.878-9.295l-.364-.65-.286-.702-.559-1.391c-.351-.923-.494-1.911-.754-2.86-.26-.949-.195-1.963-.208-2.938l.091-1.456c0-.481.156-.962.234-1.43.33-1.875.954-3.687 1.846-5.369.893-1.63 1.956-3.159 3.172-4.563 2.375-2.683 5.063-5.07 8.008-7.111 2.771-1.94 5.673-3.686 8.684-5.226 5.51-2.858 11.214-5.325 17.069-7.384 9.38-3.278 18.959-5.957 28.678-8.021 7.995-1.716 14.3-2.769 18.512-3.432 4.212-.663 6.461-.962 6.461-.962z"/>
            <path d="M325.793 370.773c-.07-1.63-.436-3.233-1.079-4.732-1.209-2.977-4.433-6.682-9.516-10.036-10.218-6.721-27.3-12.376-48.789-15.821-11.74-1.873-23.583-3.036-35.464-3.484-13.635-.573-27.293-.322-40.898.754-7.176.559-14.521 1.391-21.97 2.6-7.608 1.173-15.146 2.762-22.581 4.758-3.783 1.027-7.553 2.21-11.297 3.575-3.78 1.36-7.467 2.967-11.037 4.81-3.63 1.841-6.994 4.168-9.997 6.916-2.951 2.769-5.356 6.5-5.408 10.673-.052 4.173 2.444 7.904 5.395 10.66 2.997 2.76 6.361 5.091 9.997 6.929 3.567 1.849 7.254 3.456 11.037 4.81 3.744 1.378 7.527 2.6 11.31 3.575 7.429 2.007 14.963 3.6 22.568 4.771 7.462 1.183 14.807 2.015 21.983 2.6 13.605 1.076 27.263 1.327 40.898.754 11.885-.444 23.732-1.603 35.477-3.471 21.489-3.458 38.558-9.1 48.776-15.821 5.083-3.354 8.307-7.059 9.516-10.036.645-1.503 1.01-3.11 1.079-4.745 0 .208 0 .533-.091 1.3-.032.51-.119 1.016-.26 1.508-.15.69-.377 1.362-.676 2.002-1.196 3.003-4.42 6.734-9.503 10.114-10.231 6.76-27.3 12.441-48.815 15.912-11.748 1.889-23.6 3.06-35.49 3.51-13.643.59-27.31.346-40.924-.728-7.189-.559-14.547-1.391-22.009-2.6-7.618-1.168-15.165-2.757-22.607-4.758-3.783-1.027-7.579-2.197-11.323-3.575-3.789-1.364-7.485-2.975-11.063-4.823-3.66-1.851-7.046-4.2-10.062-6.981-1.55-1.402-2.867-3.044-3.9-4.862-2.202-3.692-2.202-8.294 0-11.986 1.01-1.82 2.305-3.465 3.835-4.875 3.02-2.768 6.405-5.109 10.062-6.955 3.576-1.853 7.272-3.464 11.063-4.823 3.744-1.378 7.527-2.6 11.323-3.575 7.44-2.01 14.988-3.599 22.607-4.758 7.449-1.183 14.807-2.015 21.996-2.6 13.614-1.061 27.28-1.304 40.924-.728 11.885.463 23.732 1.635 35.477 3.51 21.515 3.484 38.597 9.165 48.815 15.925 5.096 3.38 8.32 7.111 9.516 10.101.297.645.524 1.321.676 2.015.141.492.228.997.26 1.508.13.663.156.988.169 1.183zM38.571 169.143c0 2.29-1.857 4.147-4.147 4.147s-4.147-1.857-4.147-4.147 1.857-4.147 4.147-4.147 4.147 1.857 4.147 4.147z"/>
            <circle cx="409.786" cy="171.964" r="4.147"/>
            <path d="M244.647 324.896c0 2.29-1.857 4.147-4.147 4.147s-4.147-1.857-4.147-4.147 1.857-4.147 4.147-4.147 4.147 1.857 4.147 4.147zM118.612 218.231c.005.844-.5 1.607-1.278 1.932-.778.325-1.676.148-2.273-.448-.596-.597-.773-1.495-.448-2.273s1.088-1.283 1.932-1.278c1.142 0 2.067.925 2.067 2.067zM376.688 268.528c0 1.149-.931 2.08-2.08 2.08s-2.08-.931-2.08-2.08.931-2.08 2.08-2.08 2.08.931 2.08 2.08zM212.862 364.507c0 1.149-.931 2.08-2.08 2.08s-2.08-.931-2.08-2.08.931-2.08 2.08-2.08 2.08.931 2.08 2.08z"/>
            <circle cx="104.546" cy="1.196" r="1.04"/>
        </g>
        <g transform="translate(45.5 154.7)">
            <path fill="#5055E8" d="M305.942 180.336c-50.401 13.338-98.982 12.324-151.931 0l-6.188-96.785c54.717 10.647 109.642 9.295 158.119-2.301v99.086z"/>
            <path fill="#FFF" d="M305.942 180.336c-50.401 13.338-98.982 12.324-151.931 0l-6.188-96.785c54.717 10.647 109.642 9.295 158.119-2.301v99.086z" opacity=".8"/>
            <path fill="#5069E8" d="M298.129 165.62l-.312.156-.949.403c-.845.338-2.08.884-3.705 1.456-4.567 1.71-9.224 3.173-13.949 4.381-15.627 3.925-31.705 5.761-47.814 5.46-16.093-.349-32.125-2.089-47.918-5.2-6.058-1.144-10.946-2.21-14.3-2.99-1.677-.377-2.977-.715-3.9-.923l-1.001-.26-.338-.117c.116-.02.235-.02.351 0l1.014.182 3.9.806c3.38.702 8.268 1.69 14.3 2.782 15.8 2.988 31.817 4.675 47.892 5.044 16.051.306 32.076-1.441 47.684-5.2 5.98-1.495 10.738-3.003 13.988-4.16 1.625-.533 2.873-1.04 3.731-1.3l.975-.338c.104-.083.223-.145.351-.182z"/>
            <path fill="#0089FF" d="M224.081 169.559c-6.389 1.732-13.15 1.506-19.409-.65v-34.45c6.404-1.3 13.005-1.3 19.409 0v35.1z"/>
            <path fill="#5069E8" d="M255.398 167.505v-.26-.754c0-.702 0-1.651-.078-2.873 0-2.6-.117-6.162-.208-10.699-.143-9.1-.338-21.931-.559-36.764l.26.312c-6.632-1.3-13.453-1.3-20.085 0l.273-.338v.689c.208 20.358.39 38.753.52 51.883l-.182-.234c2.778.608 5.607.952 8.45 1.027 2.144.048 4.288-.127 6.396-.52 1.321-.255 2.624-.598 3.9-1.027l.988-.338.351-.117s-.091.065-.299.156l-.988.429c-1.27.481-2.573.868-3.9 1.157-2.138.443-4.317.656-6.5.637-2.875-.034-5.74-.348-8.554-.936h-.182v-.195c-.182-13.13-.442-31.512-.728-51.87v-.975h.273c6.717-1.327 13.628-1.327 20.345 0h.26v.26c.104 14.911.208 27.755.273 36.946v14.183c0 .182-.013.234-.026.221z"/>
            <path fill="#0089FF" d="M285.233 163.462c-5.2 2.808-12.038 3.185-19.409 2.756v-56.901c6.379-1.534 13.03-1.534 19.409 0v54.145z"/>
            <path fill="#5069E8" d="M193.271 166.738c-.035-.485-.035-.971 0-1.456 0-.997-.026-2.323-.078-3.978 0-3.458-.091-8.255-.156-13.962l.195.273c-5.922-2.398-12.301-3.459-18.681-3.107l.312-.338v19.409l-.182-.273c2.413.98 4.923 1.699 7.488 2.145 2.301.416 4.329.65 5.993.819l3.9.325c.858 0 1.3.13 1.378.143-.463.036-.928.036-1.391 0-.897 0-2.223 0-3.9-.169s-3.718-.312-6.045-.689c-2.611-.408-5.17-1.102-7.631-2.067l-.182-.078v-.195-19.721h.312c6.48-.36 12.958.742 18.954 3.224l.182.078v.208c0 5.785-.104 10.647-.143 14.157 0 1.625-.065 2.925-.078 3.9-.013.975-.234 1.378-.247 1.352zM202.397 116.402c-1.255.203-2.526.281-3.796.234-2.353 0-5.59 0-9.165-.221-3.575-.221-6.812-.546-9.1-.858-1.267-.1-2.521-.327-3.744-.676 1.268-.032 2.538.033 3.796.195 2.34.195 5.551.455 9.1.663 3.549.208 6.786.338 9.1.416 1.274-.023 2.548.06 3.809.247zM199.511 120.64c-1.11.113-2.23.113-3.341 0-2.054-.091-4.888-.273-8.021-.507-3.133-.234-5.954-.494-8.008-.715-1.11-.053-2.212-.219-3.289-.494 1.11-.11 2.23-.11 3.341 0 2.054.104 4.888.273 8.008.52 3.12.247 5.954.494 7.995.715 1.12.035 2.232.196 3.315.481z"/>
            <path fill="#5069E8" d="M206.609 126.191c-.028-.403-.028-.806 0-1.209 0-.832.078-1.95.13-3.354.143-2.938.338-7.072.572-12.155l.247.26c-12 .12-23.994-.544-35.906-1.989-.351.286.455-.377.364-.312V109.59c0 .728-.091 1.456-.13 2.171-.091 1.43-.169 2.86-.247 4.251-.169 2.795-.325 5.499-.481 8.086l-.286-.338c10.4 1.3 19.357 1.82 25.727 2.067l7.436.221 1.963.065h.715c-.22.019-.442.019-.663 0-.442 0-1.144 0-2.015.065h-7.449c-6.383-.143-15.379-.598-25.792-1.833h-.299v-.299c.156-2.6.299-5.291.455-8.086.091-1.391.169-2.821.247-4.251l.13-2.171.065-1.092v-1.066c-.078 0 .728-.598.39-.312 11.877 1.415 23.828 2.127 35.789 2.132h.273v.273c-.351 5.122-.637 9.308-.845 12.272-.104 1.378-.182 2.483-.247 3.289-.027.388-.075.774-.143 1.157z"/>
            <path fill="#5069E8" d="M211.029 133.484c-.983-1.04-1.822-2.208-2.496-3.471-.863-1.15-1.515-2.444-1.924-3.822.983 1.04 1.822 2.208 2.496 3.471.863 1.15 1.515 2.444 1.924 3.822z"/>
            <path fill="#5055E8" d="M.429 7.449L16.9 107.12s25.142 47.099 91.975 57.707l-10.79-88.972S36.309 56.745.429 7.449z"/>
            <path fill="#FFF" d="M.429 7.449L16.9 107.12s25.142 47.099 91.975 57.707l-10.79-88.972S36.309 56.745.429 7.449z" opacity=".8"/>
            <path fill="#3749A1" d="M100.269 157.729c-.147-.018-.29-.053-.429-.104l-1.3-.351-4.706-1.443c-2.028-.65-4.576-1.3-7.384-2.47l-4.55-1.729c-1.612-.611-3.315-1.3-5.044-2.08-3.484-1.586-7.345-3.224-11.271-5.434-3.926-2.21-8.099-4.589-12.376-7.306-9.19-6.044-17.54-13.279-24.83-21.515-3.378-3.855-6.353-8.046-8.879-12.506-3.003-19.422-5.655-36.491-7.553-48.75-.91-6.084-1.638-10.972-2.158-14.378l-.546-3.9-.13-1.001v-.351c.043.109.073.222.091.338l.182 1.001.663 3.9c.559 3.406 1.3 8.281 2.366 14.3l7.8 48.711v-.104c2.523 4.418 5.499 8.561 8.879 12.363 7.263 8.192 15.567 15.399 24.7 21.437 4.238 2.717 8.294 5.291 12.285 7.332 3.991 2.041 7.8 3.9 11.206 5.486 1.716.845 3.406 1.495 5.005 2.119l4.524 1.781c2.795 1.183 5.317 1.885 7.332 2.6l4.667 1.56 1.222.416c.079.023.157.049.234.078z"/>
            <path fill="#3749A1" d="M94.393 128.791c-.07.077-.15.147-.234.208l-.702.572-2.782 2.158-10.491 8.047-.169.117-.117-.169-12.844-17.758.39.065-9.841 7.007-.325.234-.143-.377-12.688-34.411c-.611-1.664-1.209-3.315-1.82-4.953h.624l-8.021 15.951-.338.689-.26-.728C27.664 85.345 21.736 68.25 17.888 57.2h.364c-1.053 4.446-1.885 7.943-2.47 10.4-.286 1.17-.507 2.08-.676 2.73l-.182.702c0 .156-.026.234-.078.234v-.247c0-.169.078-.416.143-.702.143-.663.325-1.586.572-2.756.546-2.457 1.3-5.98 2.301-10.4l.143-.637.208.611c3.9 11.063 9.932 28.119 17.017 48.178h-.611c2.6-5.109 5.2-10.4 7.995-15.912l.351-.702.273.728 1.82 4.953L57.72 128.7l-.468-.143 9.867-6.968.234-.169.156.234 12.714 17.849h-.286l10.608-7.891 2.847-2.08.741-.52.26-.221zM92.092 80.99c-.478-.055-.948-.16-1.404-.312-.897-.247-2.171-.637-3.744-1.157-4.078-1.362-8.082-2.933-11.999-4.706-3.918-1.779-7.745-3.753-11.466-5.915-1.43-.832-2.6-1.534-3.341-2.041-.419-.234-.807-.517-1.157-.845.456.152.892.357 1.3.611L63.7 68.51c2.899 1.547 6.942 3.627 11.518 5.694 4.576 2.067 8.801 3.718 11.882 4.862l3.653 1.3c.471.15.921.36 1.339.624zM94.744 85.124c-1.097-.066-2.183-.258-3.237-.572C86.4 83.328 81.437 81.568 76.7 79.3c-1.018-.413-1.98-.955-2.86-1.612 1.048.308 2.07.699 3.055 1.17 1.859.78 4.433 1.82 7.319 2.86 2.886 1.04 5.551 1.859 7.475 2.431 1.045.233 2.068.56 3.055.975z"/>
            <path fill="#3749A1" d="M68.406 121.992c0 .832-.507 1.495-1.118 1.495-.611 0-1.118-.663-1.118-1.495 0-.832.494-1.495 1.118-1.495.624 0 1.118.676 1.118 1.495z"/>
            <ellipse cx="42.835" cy="90.48" fill="#3749A1" rx="1.118" ry="1.495"/>
            <path fill="#3749A1" d="M19.279 57.603c0 .819-.507 1.495-1.131 1.495s-1.118-.676-1.118-1.495c0-.819.507-1.495 1.118-1.495.611 0 1.131.663 1.131 1.495z"/>
            <path fill="#5055E8" d="M436.371 25.207l-8.255 101.27s-24.102 43.303-90.48 44.954L345.8 69.472s57.941-2.353 90.571-44.265z"/>
            <path fill="#5069E8" d="M435.136 19.929c-2.158-7.007-7.397-17.004-19.89-19.084l-14.755 136.214s27.703-5.525 28.444-20.709c.065-1.3 5.616-69.017 6.994-85.8.439-3.558.17-7.168-.793-10.621z"/>
            <path fill="#FFF" d="M436.371 25.207l-8.255 101.27s-24.102 43.303-90.48 44.954L345.8 69.472s57.941-2.353 90.571-44.265z" opacity=".8"/>
            <path fill="#0089FF" d="M434.395 51.025c-6.649 9.65-10.331 21.032-10.595 32.747-.065 3.367.13 6.838-1.144 9.945s-4.615 5.707-7.8 4.823c-3.185-.884-4.901-4.94-7.8-6.812-2.783-1.558-6.193-1.484-8.905.195-2.66 1.684-4.71 4.176-5.85 7.111-2.418 5.551-2.6 11.817-4.355 17.602-1.755 5.785-6.136 11.622-12.181 11.882-2.21.091-4.394-.572-6.604-.507-4.68.143-8.723 3.614-10.907 7.8-2.184 4.186-2.834 8.879-3.445 13.507 0 0 35.373 3.38 75.101-43.524l4.485-54.769z"/>
            <path fill="#2741C5" d="M378.144 112.45c0 1.3-.624 2.275-1.391 2.275s-1.391-1.014-1.391-2.275.624-2.275 1.391-2.275 1.391 1.027 1.391 2.275zM394.81 70.343c0 1.3-.624 2.275-1.391 2.275s-1.391-1.014-1.391-2.275.624-2.275 1.391-2.275 1.391 1.027 1.391 2.275z"/>
            <path fill="#2741C5" d="M433.602 55.9c-.062.197-.14.388-.234.572l-.754 1.638c-.689 1.482-1.677 3.562-2.912 6.188l-10.556 21.983-.143.299-.273-.182-25.038-15.834.507-.156c-.338.806-.689 1.677-1.04 2.6-6.201 15.158-11.869 29.029-16.172 39.572l-.104.26-.26-.143c-6.24-3.51-11.336-6.331-14.872-8.242-1.768-.962-3.146-1.703-4.095-2.184l-1.092-.533c-.133-.039-.26-.095-.377-.169 1.984.675 3.896 1.545 5.707 2.6 3.575 1.846 8.71 4.602 14.976 8.06l-.364.13c4.277-10.556 9.88-24.453 16.016-39.637.364-.871.715-1.755 1.04-2.6l.156-.377.338.221 24.986 15.912-.416.117 10.764-21.866c1.3-2.6 2.34-4.654 3.068-6.123.338-.663.611-1.196.832-1.599.08-.183.185-.353.312-.507z"/>
        </g>
    </g>
</svg>
