<svg xmlns="http://www.w3.org/2000/svg" width="655" height="590" viewBox="0 0 655 590">
    <g fill="none">
        <g>
            <path fill="#EBEBEB" d="M568.764 356.3s-12.6-4.2-18.648 24.948-7 45.178-7 45.178-1.974 6.286-6.608 3.794c-4.634-2.492-12.376-11.046-18.2-7.546-5.824 3.5-6.132 11.438-1.988 21.728 4.144 10.29 12.376 33.166 13.104 35.238.728 2.072.378 5.418-3.052 4.2s-25.074-15.148-31.08-4.466c-6.006 10.682 10.234 37.436 11.942 40.39 1.708 2.954 1.47 4.494.168 5.698-1.302 1.204-8.134-4.2-14.448-7.882-6.314-3.682-14.308-6.916-17.262-.476-2.954 6.44 1.61 28.616 32.004 58.352l14.994 12.852 18.802-6.286c39.452-15.876 52.108-34.636 51.8-41.72-.308-7.084-8.862-7.168-16.128-6.146-7.266 1.022-15.624 3.388-16.38 1.778-.756-1.61-.378-3.122 2.338-5.208 2.716-2.086 28-20.636 26.446-32.788-1.554-12.152-26.81-7.518-30.436-7.714-3.626-.196-2.66-3.472-1.218-5.068 1.442-1.596 17.808-19.6 25.564-27.58 7.756-7.98 10.584-15.218 6.44-20.846-3.99-5.418-14.42-.476-19.6.07-5.18.546-4.662-6.034-4.662-6.034s5.292-15.204 10.794-44.408c5.502-29.204-8.05-30.142-8.05-30.142" transform="translate(36.4 1.4)"/>
            <path fill="#E0E0E0" d="M522.69 584.164c4.13-21.434 10.08-50.988 16.8-83.608 6.72-32.62 12.712-62.16 16.954-83.566l4.956-25.354c.588-2.968 1.05-5.292 1.4-6.888.168-.77.294-1.4.378-1.792.039-.204.09-.405.154-.602l-.084.616c-.07.434-.182 1.036-.308 1.806-.294 1.61-.714 3.934-1.246 6.916-1.092 5.992-2.73 14.672-4.788 25.396-4.13 21.42-10.08 50.974-16.8 83.594-6.72 32.62-12.712 62.174-16.954 83.58" transform="translate(36.4 1.4)"/>
            <path fill="#E0E0E0" d="M528.78 435.064c.328.35.61.74.84 1.162.504.756 1.218 1.89 2.058 3.29 1.708 2.8 3.948 6.748 6.342 11.2l6.09 11.27 1.848 3.402c.268.399.48.832.63 1.288-.324-.352-.61-.737-.854-1.148-.504-.77-1.204-1.904-2.044-3.318-1.68-2.8-3.864-6.79-6.258-11.2l-6.16-11.2c-.742-1.33-1.4-2.464-1.876-3.402-.265-.418-.473-.87-.616-1.344zM548.422 466.48c-.084-.168 7.826-5.152 17.682-11.2 9.856-6.048 17.92-10.738 18.018-10.57.098.168-7.812 5.138-17.668 11.2-9.856 6.062-17.934 10.724-18.032 10.57zM535.906 516.11c.445-.212.916-.367 1.4-.462l3.822-1.036c3.22-.882 7.672-2.114 12.6-3.64 4.928-1.526 9.226-3.052 12.376-4.2l3.696-1.372c.45-.193.919-.334 1.4-.42-.406.271-.843.492-1.302.658-.854.392-2.1.924-3.654 1.54-3.108 1.246-7.462 2.8-12.348 4.382-4.886 1.582-9.366 2.702-12.6 3.458-1.624.378-2.954.658-3.878.826-.49.153-.999.242-1.512.266zM511.882 491.61c.374.247.722.534 1.036.854.644.588 1.554 1.4 2.674 2.506 2.24 2.142 5.292 5.124 8.638 8.4 3.346 3.276 6.356 6.356 8.512 8.582 1.078 1.106 1.932 2.016 2.52 2.66.588.644.896 1.008.854 1.036-.042.028-.406-.266-1.036-.854s-1.554-1.4-2.674-2.506c-2.24-2.128-5.292-5.124-8.652-8.4-3.36-3.276-6.342-6.37-8.498-8.596-1.078-1.106-1.932-2.016-2.52-2.646-.588-.63-.896-.994-.854-1.036zM495.25 534.03c.48.323.925.693 1.33 1.106l3.43 3.206c2.884 2.716 6.832 6.51 11.2 10.738 4.368 4.228 8.19 8.12 10.99 10.92l3.276 3.36c.422.392.807.824 1.148 1.288-.508-.312-.978-.684-1.4-1.106l-3.43-3.192c-2.884-2.8-6.832-6.524-11.2-10.752-4.368-4.228-8.232-8.064-11.032-10.878l-3.276-3.36c-.385-.41-.732-.856-1.036-1.33zM526.078 563.668c.558-.264 1.139-.475 1.736-.63l4.802-1.484c4.046-1.26 9.646-3.024 15.764-5.138 6.118-2.114 11.62-4.2 15.582-5.6l4.704-1.778c.565-.244 1.15-.436 1.75-.574-.522.33-1.075.606-1.652.826-1.078.49-2.66 1.162-4.62 1.974-3.934 1.624-9.408 3.752-15.54 5.852-6.132 2.1-11.76 3.808-15.848 4.956-2.058.56-3.71 1.008-4.872 1.274-.59.168-1.195.276-1.806.322z" transform="translate(36.4 1.4)"/>
            <path fill="#EBEBEB" d="M242.004 112l-52.388-25.046c-3.618-1.733-5.147-6.07-3.416-9.688L220.808 4.76c1.753-3.596 6.084-5.098 9.688-3.36l33.222 15.848L276.78 56l-25.088 52.542c-.825 1.745-2.31 3.09-4.127 3.738-1.817.65-3.818.548-5.561-.28z" transform="translate(36.4 1.4)"/>
            <path fill="#F5F5F5" d="M263.718 17.192l-9.8 20.412c-.776 1.616-.875 3.475-.276 5.165.6 1.69 1.847 3.07 3.468 3.837l19.6 9.38-12.992-38.794z" transform="translate(36.4 1.4)"/>
            <path fill="#E0E0E0" d="M253.4 39.522c-1.49 3.196-.558 6.997 2.24 9.142.182.168.378.308.574.462 2.338 1.68 17.78 12.726 17.962 12.334L276.78 56l-19.6-9.366s-4.844-2.52-3.78-7.112z" transform="translate(36.4 1.4)"/>
            <path fill="#FAFAFA" d="M249.984 34.678c-.126.266-5.6-2.114-12.348-5.306-6.748-3.192-12.012-6.006-11.886-6.272.126-.266 5.6 2.114 12.334 5.32 6.734 3.206 12.026 5.992 11.9 6.258zM260.12 53.69c-.126.252-9.156-3.794-20.16-9.044s-19.852-9.8-19.726-9.996c.126-.196 9.156 3.78 20.174 9.044 11.018 5.264 19.838 9.73 19.712 9.996zM259.112 65.03c-.126.266-9.954-4.2-21.966-9.898-12.012-5.698-21.63-10.598-21.546-10.85.084-.252 9.954 4.2 21.966 9.898 12.012 5.698 21.672 10.598 21.546 10.85zM254.8 74.2c-.126.252-9.954-4.2-21.966-9.912-12.012-5.712-21.63-10.584-21.504-10.85.126-.266 9.954 4.2 21.966 9.898 12.012 5.698 21.602 10.528 21.504 10.864zM250.432 83.216c-.126.266-9.954-4.2-21.966-9.898-12.012-5.698-21.63-10.598-21.504-10.864.126-.266 9.954 4.2 21.966 9.912 12.012 5.712 21.672 10.584 21.504 10.85zM246.092 92.302c-.126.266-9.954-4.2-21.966-9.898-12.012-5.698-21.63-10.598-21.504-10.85.126-.252 9.954 4.2 21.966 9.898 12.012 5.698 21.63 10.598 21.504 10.85zM536.2 479.276H430.556s-1.232-24.864 20.72-26.53c0 0 3.64-21 28.182-21.126 29.4-.14 29.778 25.48 29.778 25.48s24.164-2.282 26.964 22.176" transform="translate(36.4 1.4)"/>
            <path fill="#EBEBEB" d="M33.908 441.812L33.908 441.812 33.908 441.812 33.908 441.812 13.608 460.208 25.858 460.208 25.858 486.248 33.446 486.248 34.37 486.248 41.958 486.248 41.958 460.208 54.208 460.208zM557.144 85.512L557.144 85.512 557.144 85.512 557.144 85.512 532.322 108.01 547.316 108.01 547.316 139.832 556.584 139.832 557.718 139.832 566.986 139.832 566.986 108.01 581.966 108.01z" transform="translate(36.4 1.4)"/>
            <path fill="#EBEBEB" d="M16.713 82.108H91.697V175.894H16.713z" transform="translate(36.4 1.4) rotate(-77.39 54.205 129.001)"/>
            <path fill="#F5F5F5" d="M21.391 85.383H86.939V172.589H21.391z" transform="translate(36.4 1.4) rotate(-77.39 54.165 128.986)"/>
            <path fill="#E0E0E0" d="M4.452 151.452L43.064 118.342 55.916 147.322 71.372 136.822 89.544 170.478zM70.378 119.336c-.833 3.694-4.503 6.014-8.197 5.183-3.695-.831-6.018-4.499-5.188-8.194.829-3.696 4.495-6.02 8.191-5.193 1.778.398 3.324 1.486 4.298 3.025.975 1.539 1.297 3.402.896 5.179z" transform="translate(36.4 1.4)"/>
        </g>
        <path fill="#263238" d="M654.612 589.218c0 .21-146.552.364-327.292.364-180.74 0-327.32-.182-327.32-.364s146.524-.364 327.32-.364 327.292.168 327.292.364z"/>
        <g>
            <path fill="#407BFF" d="M30.226 35.47c-2.394 3.416-7 2.282-9.212.196-2.212-2.086-3.066-5.11-3.892-7.98-1.89-6.594-3.808-13.51-2.394-20.216.338-2.031 1.23-3.93 2.576-5.488 1.399-1.578 3.537-2.283 5.6-1.848 2.352.616 3.808 2.912 4.858 5.096 3.101 6.454 4.727 13.518 4.76 20.678.225 3.341-.56 6.673-2.254 9.562" transform="translate(529.2 502.2)"/>
            <path fill="#000" d="M30.226 35.47c-2.394 3.416-7 2.282-9.212.196-2.212-2.086-3.066-5.11-3.892-7.98-1.89-6.594-3.808-13.51-2.394-20.216.338-2.031 1.23-3.93 2.576-5.488 1.399-1.578 3.537-2.283 5.6-1.848 2.352.616 3.808 2.912 4.858 5.096 3.101 6.454 4.727 13.518 4.76 20.678.225 3.341-.56 6.673-2.254 9.562" opacity=".2" transform="translate(529.2 502.2)"/>
            <path fill="#407BFF" d="M21.252 52.774c-4.007-1.88-8.512-2.425-12.852-1.554-2.372.198-4.609 1.184-6.356 2.8-1.582 1.764-1.89 4.844 0 6.356 1.176.793 2.593 1.15 4.004 1.008 3.402 0 7.168-.63 9.884 1.4 1.554 1.162 2.59 3.108 4.438 3.682 1.903.44 3.868-.434 4.816-2.142.884-1.705 1.08-3.685.546-5.53-.464-2.6-2.124-4.829-4.48-6.02zM36.792 40.37c-2.5-3.257-3.223-7.54-1.932-11.438 1.31-3.83 3.656-7.221 6.776-9.8 3.54-3.157 7.664-5.592 12.138-7.168 1.731-.702 3.594-1.017 5.46-.924 1.895.119 3.61 1.167 4.578 2.8 1.274 2.436 0 5.39-1.274 7.798-2.325 4.23-4.98 8.27-7.938 12.082-2.394 3.08-5.138 6.118-8.778 7.518-3.64 1.4-7.42 1.232-9.352-1.302" transform="translate(529.2 502.2)"/>
            <path fill="#263238" d="M30.38 87.018c-.122-.505-.193-1.02-.21-1.54-.112-1.134-.252-2.562-.42-4.2-.212-2.087-.53-4.161-.952-6.216-.551-2.502-1.305-4.956-2.254-7.336-.93-2.379-2.193-4.613-3.752-6.636-1.265-1.651-2.881-3-4.732-3.948-1.256-.621-2.603-1.037-3.99-1.232-.524-.028-1.044-.103-1.554-.224.525-.066 1.057-.066 1.582 0 1.453.105 2.876.47 4.2 1.078 1.95.923 3.66 2.283 4.998 3.976 1.624 2.052 2.931 4.336 3.878 6.776.965 2.412 1.715 4.904 2.24 7.448.406 2.08.682 4.185.826 6.3.14 1.792.196 3.262.21 4.2.033.519.01 1.04-.07 1.554z" transform="translate(529.2 502.2)"/>
            <path fill="#263238" d="M30.086 83.77c-.017-.242-.017-.486 0-.728v-2.058c0-1.792 0-4.382-.098-7.574-.154-6.384-.714-15.218-1.764-24.906-1.05-9.688-2.492-18.424-3.794-24.696-.308-1.568-.602-2.982-.896-4.2-.294-1.218-.518-2.31-.742-3.164l-.476-2.002c-.08-.23-.122-.47-.126-.714.101.216.181.44.238.672.168.518.364 1.176.602 1.974s.546 1.918.854 3.15c.308 1.232.658 2.646.994 4.2 1.766 8.16 3.093 16.408 3.976 24.71 1.064 9.716 1.54 18.564 1.582 24.962 0 3.206 0 5.81-.112 7.588 0 .84-.042 1.526-.126 2.058-.002.247-.04.492-.112.728z" transform="translate(529.2 502.2)"/>
            <path fill="#263238" d="M30.044 66.704c-.049-.718-.049-1.438 0-2.156.084-1.4.266-3.388.658-5.838.478-2.866 1.113-5.703 1.904-8.498.94-3.433 2.128-6.792 3.556-10.052 2.462-6.002 5.996-11.505 10.43-16.24.765-.814 1.584-1.576 2.45-2.282.378-.322.714-.644 1.05-.896l.952-.658c.57-.438 1.18-.822 1.82-1.148-2.093 1.636-4.08 3.404-5.95 5.292-4.287 4.775-7.724 10.249-10.164 16.184-1.411 3.24-2.608 6.57-3.584 9.968-.924 3.122-1.54 5.992-2.016 8.4-.476 2.408-.7 4.396-.854 5.768-.028.724-.112 1.445-.252 2.156z" transform="translate(529.2 502.2)"/>
        </g>
        <g>
            <path fill="#EBEBEB" d="M302.504 -1.84H392.048V110.16H302.504z" transform="translate(78) rotate(-79.98 347.276 54.16)"/>
            <path fill="#263238" d="M410.264 19.838l-.546-.084-1.554-.252-5.964-1.022-22.596-3.92-79.66-14 .336-.238c-4.634 26.236-9.94 56.336-15.554 88.2l-.266-.364 110.278 19.6-.308.224c4.746-26.6 8.694-48.552 11.438-63.938 1.4-7.686 2.492-13.72 3.234-17.85.378-2.058.672-3.626.868-4.718.196-1.092.322-1.624.322-1.624l-.252 1.582c-.177 1.073-.443 2.627-.798 4.662-.714 4.13-1.75 10.15-3.08 17.836-2.702 15.4-6.552 37.506-11.2 64.134v.266h-.266L284.32 88.83h-.322v-.322c5.6-31.836 10.976-61.922 15.624-88.2v-.28h.28l79.8 14.252 22.498 4.06 5.936 1.078 1.512.28.616.14z" transform="translate(78)"/>
            <path fill="#407BFF" d="M308.084 2.086H386.358V106.218H308.084z" transform="translate(78) rotate(-79.98 347.22 54.152)"/>
            <path fill="#3362CC" d="M289.164 83.636L333.446 42.056 350.33 75.95 368.208 62.594 391.7 101.766zM366.08 41.776c-.796 4.45-5.047 7.415-9.498 6.622-4.452-.793-7.418-5.043-6.628-9.494.79-4.452 5.038-7.421 9.49-6.634 4.455.796 7.425 5.05 6.636 9.506z" transform="translate(78)"/>
            <path fill="#2965E9" d="M0.364 41.636L44.646 0.056 61.53 33.95 79.408 20.594 102.9 59.766z" opacity=".2" transform="translate(78) translate(288.8 42)"/>
            <path fill="#2965E9" d="M366.08 41.776c-.796 4.45-5.047 7.415-9.498 6.622-4.452-.793-7.418-5.043-6.628-9.494.79-4.452 5.038-7.421 9.49-6.634 4.455.796 7.425 5.05 6.636 9.506z" opacity=".2" transform="translate(78)"/>
            <path fill="#407BFF" d="M501.964 319.326l-63.756-18.718c-4.39-1.31-6.894-5.923-5.6-10.318l25.9-88.2c1.348-4.36 5.929-6.845 10.318-5.6l40.446 11.872L531 249.718l-18.774 63.966c-1.292 4.379-5.873 6.897-10.262 5.642z" transform="translate(78)"/>
            <path fill="#FAFAFA" d="M498.394 272.188s.532.14 1.568.224c1.512.077 3.013-.282 4.326-1.036.93-.546 1.736-1.28 2.366-2.156.36-.503.656-1.048.882-1.624.224-.588.392-1.246.588-1.932l2.646-9.198c.504-1.708 1.008-3.5 1.554-5.348.266-.938.546-1.89.826-2.8.32-.948.532-1.93.63-2.926.234-3.253-1.436-6.348-4.284-7.938-1.004-.527-2.073-.922-3.178-1.176l-29.274-8.526c-3.912-.75-7.793 1.434-9.184 5.166-.406 1.176-.742 2.464-1.106 3.668-1.447 4.9-2.847 9.609-4.2 14.126-.308 1.12-.714 2.254-.924 3.304-.57 3.213.944 6.436 3.78 8.05.89.454 1.83.801 2.8 1.036l2.8.854 5.334 1.582 16.086 4.844 4.368 1.4 1.134.378.378.14c-.13.016-.262.016-.392 0l-1.162-.308-4.396-1.218L476.288 266l-5.348-1.54-2.8-.826c-1.019-.243-2.006-.605-2.94-1.078-1.972-1.114-3.403-2.985-3.962-5.18-.3-1.138-.347-2.328-.14-3.486.238-1.176.616-2.226.924-3.374l4.13-14.14c.378-1.232.686-2.436 1.12-3.71.466-1.288 1.234-2.445 2.24-3.374 2.069-1.94 4.942-2.773 7.728-2.24 10.472 2.982 20.3 5.95 29.316 8.582 1.153.284 2.267.708 3.318 1.26 3.015 1.738 4.78 5.04 4.55 8.512-.106 1.046-.336 2.075-.686 3.066-.28.966-.56 1.904-.84 2.8-.56 1.862-1.078 3.64-1.596 5.348-1.008 3.388-1.932 6.468-2.8 9.17-.196.672-.378 1.33-.63 1.96-.247.594-.562 1.158-.938 1.68-1.622 2.2-4.278 3.39-7 3.136-.529-.052-1.047-.18-1.54-.378z" transform="translate(78)"/>
            <path fill="#FAFAFA" d="M506.78 270.116s-.14-.196-.322-.616l-.798-1.806-2.8-6.706-1.89-4.634c-.35-.84-.7-1.708-1.05-2.59-.182-.448-.364-.896-.56-1.4-.179-.405-.47-.75-.84-.994-.782-.512-1.794-.512-2.576 0l-2.604 2.03-5.6 3.99-2.492 1.778-.322.224-.126-.392c-1.064-1.867-2.1-3.691-3.108-5.474-.238-.448-.49-.882-.728-1.316-.196-.41-.461-.785-.784-1.106-.656-.563-1.553-.753-2.38-.504-.404.14-.789.328-1.148.56l-1.162.658-2.212 1.246-3.878 2.17-5.726 3.164-1.568.826c-.18.107-.373.191-.574.252.149-.146.319-.269.504-.364l1.498-.938 5.6-3.346 3.92-2.296 2.198-1.288 1.148-.644c.4-.265.833-.477 1.288-.63 1.015-.286 2.106-.05 2.912.63.386.363.699.795.924 1.274l.742 1.302c1.008 1.764 2.058 3.584 3.122 5.46l-.504-.112 2.478-1.778 5.6-3.976 2.66-1.89c.997-.66 2.293-.66 3.29 0 .477.31.852.752 1.078 1.274l.546 1.4c.336.896.686 1.764 1.008 2.604l1.82 4.676c1.064 2.8 1.932 5.082 2.576 6.79l.672 1.862c.08.203.136.414.168.63zM486.956 245.602c0-.07.392 0 1.064 0 .932-.015 1.835-.33 2.576-.896 1.078-.841 1.666-2.164 1.568-3.528-.109-1.676-1.252-3.106-2.862-3.58-1.61-.476-3.347.104-4.348 1.452-.822 1.096-1.038 2.533-.574 3.822.313.88.902 1.637 1.68 2.156.546.364.924.49.896.546-.366-.012-.723-.118-1.036-.308-.916-.467-1.628-1.255-2.002-2.212-.595-1.452-.399-3.108.518-4.382 1.137-1.623 3.183-2.34 5.084-1.782 1.902.558 3.236 2.266 3.316 4.246.085 1.563-.64 3.059-1.918 3.962-.835.601-1.86.875-2.884.77-.377.016-.752-.076-1.078-.266z" transform="translate(78)"/>
            <path fill="#000" d="M439.477 266.68l79.713 23.4-6.775 23.078c-1.385 4.719-6.333 7.421-11.052 6.036l-62.625-18.384c-4.718-1.385-7.42-6.333-6.035-11.052l6.774-23.078z" opacity=".2" transform="translate(78)"/>
            <path fill="#2965E9" d="M509.23 208.278l-7.294 24.836c-1.201 4.094 1.143 8.387 5.236 9.59l23.884 7-21.826-41.426z" transform="translate(78)"/>
            <path fill="#000" d="M501.6 235.382s-2.086 5.936 4.2 9.926c.24.149.487.284.742.406 2.954 1.47 22.4 11.2 22.54 10.682l1.96-6.678-23.884-7s-5.88-1.918-5.558-7.336z" opacity=".2" transform="translate(78)"/>
            <path fill="#407BFF" d="M85.352 302.946L27.658 316.19c-1.92.443-3.938.1-5.604-.951-1.667-1.052-2.845-2.725-3.272-4.649L.4 230.776c-.443-1.92-.1-3.938.951-5.604 1.052-1.667 2.725-2.845 4.649-3.272l36.582-8.4 35 22.694 13.286 57.876c.926 3.974-1.543 7.947-5.516 8.876z" transform="translate(78)"/>
            <path fill="#2965E9" d="M42.596 213.5l5.166 22.47c.407 1.783 1.506 3.331 3.056 4.303s3.422 1.287 5.204.877l21.602-4.956L42.596 213.5z" transform="translate(78)"/>
            <path fill="#000" d="M48.504 237.888c.835 3.499 3.992 5.945 7.588 5.88h.742c2.94-.154 22.274-1.106 22.176-1.54l-1.4-6.034-21.602 4.956s-5.432 1.05-7.504-3.262z" opacity=".2" transform="translate(78)"/>
            <path fill="#FFF" d="M42.596 213.5l5.166 22.47c.407 1.783 1.506 3.331 3.056 4.303s3.422 1.287 5.204.877l21.602-4.956L42.596 213.5z" opacity=".3" transform="translate(78)"/>
            <path fill="#FAFAFA" d="M42.708 236.166c0 .294-5.852 1.904-13.216 3.584-7.364 1.68-13.412 2.8-13.468 2.548-.056-.252 5.852-1.89 13.216-3.584 7.364-1.694 13.412-2.828 13.468-2.548zM62.868 244.916c0 .294-9.716 2.8-21.84 5.6s-22.022 4.802-22.092 4.522c-.07-.28 9.716-2.8 21.854-5.6s22.008-4.802 22.078-4.522zM69.266 254.618c0 .294-10.612 2.996-23.8 6.02-13.188 3.024-24.066 5.264-24.066 4.984 0-.28 10.598-2.996 23.8-6.02 13.202-3.024 23.996-5.264 24.066-4.984zM71.562 264.6c0 .294-10.598 2.996-23.8 6.02-13.202 3.024-23.996 5.264-24.066 4.984-.07-.28 10.598-2.982 23.8-6.02 13.202-3.038 23.996-5.236 24.066-4.984zM73.858 274.652c0 .28-10.598 2.982-23.8 6.006s-24.024 5.264-24.094 4.942c-.07-.322 10.598-2.982 23.8-6.02 13.202-3.038 24.024-5.18 24.094-4.928zM76.154 284.662c0 .28-10.598 2.982-23.8 6.02-13.202 3.038-23.954 5.25-24.08 4.97-.126-.28 10.598-2.982 23.8-6.02 13.202-3.038 24.01-5.264 24.08-4.97z" transform="translate(78)"/>
        </g>
        <g transform="translate(160.6 80.8)">
            <path fill="#F5F5F5" d="M0.554 0.596H382.222V336.708H0.554z"/>
            <path fill="#263238" d="M382.222 336.722c0-2.604-.126-133.854-.308-336.126l.308.308H.582L.946.54v336.126l-.322-.322 381.668.322-381.668.322H.302v-.322V.176H382.6v.308c-.266 202.384-.378 333.634-.378 336.238z"/>
            <path fill="#407BFF" d="M61.51 128.024H39.852c-.718.004-1.407-.28-1.915-.787-.507-.508-.79-1.197-.787-1.915V95.348c-.004-.718.28-1.407.787-1.915.508-.507 1.197-.79 1.915-.787H53.6l10.64 10.948v21.728c0 .721-.288 1.413-.801 1.92-.513.508-1.208.79-1.929.782z"/>
            <path fill="#2965E9" d="M53.6 92.646v8.4c.008 1.389 1.131 2.512 2.52 2.52h8.12L53.6 92.646z"/>
            <path fill="#000" d="M53.698 101.816c.012 1.316.938 2.446 2.226 2.716h.266c1.064.196 8.036 1.4 8.036 1.274v-2.268h-8.12s-2.016-.014-2.408-1.722z" opacity=".2"/>
            <path fill="#FFF" d="M53.6 92.646v8.4c.008 1.389 1.131 2.512 2.52 2.52h8.12L53.6 92.646z" opacity=".3"/>
            <path fill="#FAFAFA" d="M51.78 100.724c-1.663.197-3.339.263-5.012.196-1.673.067-3.35.002-5.012-.196 1.663-.19 3.339-.255 5.012-.196 1.673-.058 3.348.007 5.012.196zM58.248 105.498c0 .112-3.696.196-8.246.196-4.55 0-8.246-.084-8.246-.196s3.696-.196 8.246-.196c4.55 0 8.246.098 8.246.196zM59.732 109.488c0 .098-4.032.196-8.988.196-4.956 0-8.988-.098-8.988-.196s4.018-.196 8.988-.196 8.988.084 8.988.196zM59.732 113.24c0 .112-4.032.196-8.988.196-4.956 0-8.988-.084-8.988-.196s4.018-.196 8.988-.196 8.988.084 8.988.196zM59.732 116.992c0 .112-4.032.196-8.988.196-4.956 0-8.988-.084-8.988-.196s4.018-.196 8.988-.196 8.988.098 8.988.196zM59.732 120.8c0 .098-4.032.196-8.988.196-4.956 0-8.988-.098-8.988-.196s4.018-.196 8.988-.196 8.988.042 8.988.196z"/>
            <path fill="#263238" d="M82.622 96.398c.423-.019.842.089 1.204.308l-.364 1.008c-.22-.148-.477-.23-.742-.238-.56 0-.84.308-.84.91v.35h1.568V99.8h-1.526v4.592h-1.33V99.8h-.952v-1.064h.952V98.4c-.054-.55.143-1.097.537-1.485.394-.389.943-.579 1.493-.517zm2.394.546c.004-.22.096-.43.258-.58.16-.15.376-.23.596-.218.216-.015.43.058.59.203.162.146.257.35.264.567 0 .472-.382.854-.854.854s-.854-.382-.854-.854v.028zm.182 1.75h1.4v5.698h-1.4v-5.698zM88.292 96.468L89.622 96.468 89.622 104.392 88.292 104.392zM96.72 101.97h-4.48c.174.866.967 1.467 1.848 1.4.584.022 1.15-.207 1.554-.63l.714.826c-.58.648-1.429.99-2.296.924-.816.071-1.624-.206-2.225-.764-.6-.557-.936-1.343-.925-2.162-.033-.79.27-1.556.832-2.11.563-.555 1.333-.846 2.122-.802.785-.025 1.543.28 2.092.843.548.561.836 1.327.792 2.111 0 .07-.014.238-.028.364zm-4.48-.882h3.234c-.128-.793-.813-1.377-1.617-1.377s-1.489.584-1.617 1.377zM103.65 101.2v3.262h-1.33v-3.094c0-1.022-.504-1.512-1.4-1.512-.455-.03-.898.147-1.208.48-.31.335-.452.791-.388 1.242v2.884h-1.33v-5.698h1.26v.728c.508-.545 1.23-.837 1.974-.798.674-.06 1.34.188 1.81.674.47.487.695 1.16.612 1.832zM110.132 101.046v3.346h-1.26v-.686c-.434.543-1.115.827-1.806.756-1.302 0-2.114-.714-2.114-1.708s.63-1.694 2.366-1.694h1.4v-.084c0-.784-.462-1.232-1.4-1.232-.625-.012-1.236.185-1.736.56l-.518-.966c.704-.493 1.55-.743 2.408-.714 1.708 0 2.66.784 2.66 2.422zm-1.4 1.568v-.672h-1.4c-.91 0-1.162.35-1.162.77 0 .42.406.784 1.092.784.657.101 1.295-.273 1.526-.896l-.056.014zM121.374 101.2v3.262h-1.33v-3.094c0-1.022-.476-1.512-1.288-1.512s-1.484.574-1.484 1.708v2.898h-1.33v-3.094c0-1.022-.476-1.512-1.288-1.512s-1.484.574-1.484 1.708v2.898h-1.4v-5.698h1.274v.728c.467-.535 1.152-.829 1.862-.798.768-.05 1.504.313 1.932.952.522-.631 1.31-.983 2.128-.952.676-.072 1.347.172 1.818.663.471.49.69 1.17.59 1.843zM128.486 101.97h-4.466c.168.87.965 1.473 1.848 1.4.58.02 1.14-.21 1.54-.63l.714.826c-.58.648-1.429.99-2.296.924-.816.071-1.624-.206-2.225-.764-.6-.557-.936-1.343-.925-2.162-.033-.79.27-1.556.832-2.11.563-.555 1.333-.846 2.122-.802.785-.025 1.543.28 2.092.843.548.561.836 1.327.792 2.111 0 .07-.014.238-.028.364zm-4.48-.882h3.234c-.128-.793-.813-1.377-1.617-1.377s-1.489.584-1.617 1.377zM129.354 103.58c-.043-.339.114-.672.402-.856.289-.183.657-.183.946 0 .288.184.445.517.402.856.043.339-.114.672-.402.856-.289.183-.657.183-.946 0-.288-.184-.445-.517-.402-.856zM137.88 96.468v7.924h-1.274v-.728c-.478.536-1.172.83-1.89.798-1.534-.106-2.724-1.382-2.724-2.919 0-1.537 1.19-2.813 2.724-2.919.695-.025 1.365.256 1.834.77v-2.926h1.33zm-1.302 5.068c-.046-.931-.83-1.653-1.761-1.623-.932.03-1.667.802-1.653 1.734.015.932.774 1.68 1.706 1.681.47.009.923-.18 1.248-.52.325-.341.491-.802.46-1.272zM139.168 101.536c-.046-1.238.665-2.38 1.796-2.885 1.13-.506 2.455-.274 3.347.585.893.86 1.174 2.174.71 3.323-.462 1.15-1.576 1.902-2.815 1.903-.8.047-1.583-.242-2.16-.798-.577-.556-.895-1.327-.878-2.128zm4.732 0c-.053-.92-.834-1.63-1.756-1.595-.921.035-1.646.801-1.629 1.724.017.922.769 1.661 1.691 1.663.47.01.92-.18 1.243-.521.323-.341.487-.803.451-1.271zM146.07 101.536c-.01-.805.318-1.577.902-2.13.585-.553 1.375-.837 2.178-.782 1.02-.064 1.978.487 2.436 1.4l-1.022.588c-.296-.49-.828-.788-1.4-.784-.925.082-1.634.857-1.634 1.785 0 .928.71 1.703 1.634 1.785.576.003 1.11-.3 1.4-.798l1.022.602c-.464.907-1.419 1.456-2.436 1.4-.83.058-1.647-.245-2.237-.833-.59-.588-.898-1.402-.843-2.233z"/>
            <path fill="#E0E0E0" d="M79.948 113.198c-.008-.79.308-1.548.874-2.098.566-.55 1.333-.845 2.122-.814.782-.024 1.539.28 2.086.84l-.378.378c-.445-.452-1.06-.696-1.694-.672-1.307 0-2.366 1.06-2.366 2.366 0 1.307 1.06 2.366 2.366 2.366.636.02 1.252-.228 1.694-.686l.378.378c-.545.564-1.302.874-2.086.854-.789.03-1.556-.263-2.122-.814-.566-.55-.882-1.308-.874-2.098zM85.576 113.912c0-1.206.978-2.184 2.184-2.184 1.206 0 2.184.978 2.184 2.184 0 1.206-.978 2.184-2.184 2.184-.585.02-1.152-.204-1.566-.618-.414-.414-.638-.98-.618-1.566zm3.78 0c-.038-.871-.769-1.55-1.64-1.525-.872.025-1.563.745-1.55 1.617.012.872.722 1.573 1.594 1.574.438.009.86-.166 1.163-.483.304-.317.46-.746.433-1.183zM98.204 113.562v2.492h-.574v-2.436c0-.896-.462-1.4-1.232-1.4-.4-.002-.781.166-1.049.463-.267.297-.395.694-.351 1.091v2.254h-.574v-2.436c0-.896-.462-1.4-1.246-1.4-.4-.002-.781.166-1.049.463-.267.297-.395.694-.351 1.091v2.254h-.574V111.7h.56v.784c.336-.536.936-.847 1.568-.812.649-.046 1.258.317 1.526.91.352-.594 1.004-.944 1.694-.91.486-.015.953.188 1.273.554.32.366.459.857.379 1.336zM104.112 113.912c.032.579-.18 1.144-.585 1.559-.404.415-.964.642-1.543.625-.657.02-1.278-.304-1.638-.854v2.394H99.8v-5.88h.546v.854c.357-.572.993-.909 1.666-.882.574-.009 1.126.222 1.525.636.398.414.606.974.575 1.548zm-.574 0c.023-.438-.135-.866-.437-1.183-.302-.318-.72-.498-1.159-.497-.686-.034-1.324.352-1.61.977-.287.624-.165 1.36.308 1.858s1.202.658 1.84.404c.638-.255 1.057-.872 1.058-1.559zM105.302 109.992L105.876 109.992 105.876 116.054 105.302 116.054zM111.224 114.094h-3.584c.021.421.212.816.528 1.095.316.28.731.42 1.152.389.5.02.984-.185 1.316-.56l.322.378c-.63.659-1.593.877-2.445.553-.852-.324-1.428-1.126-1.461-2.037 0-.75.4-1.444 1.05-1.819s1.45-.375 2.1 0c.65.375 1.05 1.069 1.05 1.819 0 0-.028.112-.028.182zm-3.584-.434h3.038c-.075-.783-.733-1.38-1.519-1.38-.786 0-1.444.597-1.519 1.38zM114.668 115.788c-.254.204-.57.313-.896.308-.342.04-.685-.077-.93-.32-.245-.242-.366-.583-.33-.926v-2.604h-.77v-.49h.77v-.938h.574v.938h1.302v.49h-1.302v2.562c-.031.208.035.42.18.572.145.154.352.231.562.212.232.005.46-.069.644-.21l.196.406zM119.302 114.094h-3.584c.021.421.212.816.528 1.095.316.28.731.42 1.152.389.5.02.984-.185 1.316-.56l.322.378c-.63.659-1.593.877-2.445.553-.852-.324-1.428-1.126-1.461-2.037 0-1.16.94-2.1 2.1-2.1 1.16 0 2.1.94 2.1 2.1 0 0-.028.112-.028.182zm-3.584-.434h3.038c-.075-.783-.733-1.38-1.519-1.38-.786 0-1.444.597-1.519 1.38z"/>
            <rect width="253.694" height="4.648" x="77.456" y="120.716" fill="#407BFF" rx="2.324"/>
            <path fill="#263238" d="M344.03 118.882c-.928 1.456-2.065 2.767-3.374 3.892-1.13 1.305-2.44 2.44-3.892 3.374 2.064-2.755 4.511-5.202 7.266-7.266z"/>
            <path fill="#263238" d="M343.876 126.148c-1.458-.93-2.773-2.067-3.906-3.374-1.3-1.134-2.436-2.444-3.374-3.892 1.448.938 2.758 2.074 3.892 3.374 1.303 1.135 2.443 2.445 3.388 3.892z"/>
            <path fill="#E0E0E0" d="M308.4 114.416c0 .952-.7 1.694-2.072 1.694-.755.024-1.492-.242-2.058-.742l.28-.462c.487.439 1.123.674 1.778.658.938 0 1.47-.434 1.47-1.148s-.49-1.134-1.54-1.134h-.42v-.434l1.596-1.988h-2.926v-.518h3.668v.42l-1.61 2.03c1.176.07 1.834.714 1.834 1.624zM317.752 110.342L317.752 116.054 317.164 116.054 317.164 111.49 314.924 115.326 314.644 115.326 312.39 111.504 312.39 116.054 311.816 116.054 311.816 110.342 312.32 110.342 314.798 114.542 317.248 110.342zM324.374 114.528c0 .966-.714 1.526-2.142 1.526H319.6v-5.712h2.464c1.274 0 2.002.546 2.002 1.47.003.57-.34 1.085-.868 1.302.69.112 1.192.715 1.176 1.414zm-4.2-3.682v2.072h1.82c.91 0 1.4-.35 1.4-1.036s-.532-1.036-1.4-1.036h-1.82zm3.57 3.64c0-.742-.546-1.078-1.554-1.078h-2.016v2.156h2.016c1.036 0 1.61-.364 1.61-1.078h-.056z"/>
            <path fill="#407BFF" d="M61.51 184.514H39.852c-.719 0-1.408-.287-1.916-.796-.507-.51-.79-1.201-.786-1.92v-29.974c-.004-.718.28-1.407.787-1.915.508-.507 1.197-.79 1.915-.787H53.6l10.64 10.948v21.728c0 .723-.288 1.416-.8 1.925-.513.51-1.207.795-1.93.791z"/>
            <path fill="#3362CC" d="M53.6 149.122v8.4c0 .668.265 1.31.738 1.782.473.473 1.114.738 1.782.738h8.12l-10.64-10.92z"/>
            <path fill="#000" d="M53.698 158.292c.012 1.316.938 2.446 2.226 2.716l.266.07c1.064.182 8.036 1.4 8.036 1.26v-2.268h-8.12s-2.016-.07-2.408-1.778z" opacity=".2"/>
            <path fill="#FFF" d="M53.6 149.122v8.4c0 .668.265 1.31.738 1.782.473.473 1.114.738 1.782.738h8.12l-10.64-10.92z" opacity=".3"/>
            <path fill="#FAFAFA" d="M51.78 157.2c-1.664.189-3.339.254-5.012.196-1.673.06-3.349-.006-5.012-.196 1.663-.198 3.339-.263 5.012-.196 1.673-.067 3.35-.001 5.012.196zM58.248 161.974c0 .112-3.696.196-8.246.196-4.55 0-8.246-.084-8.246-.196s3.696-.196 8.246-.196c4.55 0 8.246.098 8.246.196zM59.732 165.964c0 .112-4.032.196-8.988.196-4.956 0-8.988-.084-8.988-.196s4.018-.196 8.988-.196 8.988.084 8.988.196zM59.732 169.716c0 .112-4.032.196-8.988.196-4.956 0-8.988-.084-8.988-.196s4.018-.196 8.988-.196 8.988.084 8.988.196zM59.732 173.482c0 .098-4.032.196-8.988.196-4.956 0-8.988-.098-8.988-.196s4.018-.196 8.988-.196 8.988.084 8.988.196zM59.732 177.234c0 .112-4.032.196-8.988.196-4.956 0-8.988-.084-8.988-.196s4.018-.196 8.988-.196 8.988.084 8.988.196z"/>
            <path fill="#263238" d="M82.622 152.874c.423-.019.842.089 1.204.308l-.364 1.008c-.22-.148-.477-.23-.742-.238-.56 0-.84.308-.84.924v.336h1.568v1.064h-1.526v4.592h-1.33v-4.592h-.952v-1.064h.952v-.364c-.045-.546.156-1.084.55-1.466.392-.382.935-.568 1.48-.508zm2.394.56c.004-.222.096-.432.257-.585.16-.153.376-.235.597-.227.216-.015.43.058.59.203.162.146.257.35.264.567.004.226-.085.445-.247.603-.161.16-.38.245-.607.237-.22.011-.435-.067-.596-.218-.162-.15-.254-.36-.258-.58zm.182 1.736h1.4v5.698h-1.4v-5.698zM88.292 153L89.622 153 89.622 160.924 88.292 160.924zM96.72 158.446h-4.48c.168.87.965 1.473 1.848 1.4.581.02 1.145-.203 1.554-.616l.714.812c-.578.653-1.426 1-2.296.938-.816.071-1.624-.206-2.225-.764-.6-.557-.936-1.343-.925-2.162-.037-.792.263-1.562.827-2.12.563-.557 1.336-.85 2.127-.806.785-.025 1.543.28 2.092.843.548.561.836 1.327.792 2.111 0 .084-.014.238-.028.364zm-4.48-.882h3.234c-.128-.793-.813-1.377-1.617-1.377s-1.489.584-1.617 1.377zM103.65 157.606v3.262h-1.33v-3.094c0-1.008-.504-1.498-1.4-1.498-.452-.03-.893.146-1.202.477-.309.33-.454.782-.394 1.231v2.884h-1.33v-5.698h1.26v.742c.502-.555 1.227-.853 1.974-.812.674-.06 1.34.188 1.81.674.47.487.695 1.16.612 1.832zM110.132 157.536v3.332h-1.26v-.686c-.431.548-1.112.838-1.806.77-1.302 0-2.114-.714-2.114-1.708s.63-1.708 2.366-1.708h1.4v-.084c0-.77-.462-1.232-1.4-1.232-.625-.012-1.236.185-1.736.56l-.518-.966c.704-.493 1.55-.743 2.408-.714 1.708 0 2.66.784 2.66 2.436zm-1.4 1.554v-.658h-1.4c-.91 0-1.162.336-1.162.756s.406.784 1.092.784c.653.103 1.29-.265 1.526-.882h-.056zM121.374 157.606v3.262h-1.33v-3.094c0-1.008-.476-1.498-1.288-1.498s-1.484.574-1.484 1.708v2.884h-1.33v-3.094c0-1.008-.476-1.498-1.288-1.498s-1.484.574-1.484 1.708v2.884h-1.4v-5.698h1.274v.728c.467-.535 1.152-.829 1.862-.798.767-.044 1.5.317 1.932.952.522-.631 1.31-.983 2.128-.952.676-.072 1.347.172 1.818.663.471.49.69 1.17.59 1.843zM128.486 158.446h-4.466c.163.874.963 1.48 1.848 1.4.577.018 1.135-.205 1.54-.616l.714.812c-.578.653-1.426 1-2.296.938-.816.071-1.624-.206-2.225-.764-.6-.557-.936-1.343-.925-2.162-.037-.792.263-1.562.827-2.12.563-.557 1.336-.85 2.127-.806.785-.025 1.543.28 2.092.843.548.561.836 1.327.792 2.111 0 .084-.014.238-.028.364zm-4.48-.882h3.234c-.128-.793-.813-1.377-1.617-1.377s-1.489.584-1.617 1.377zM129.354 160c-.043-.339.114-.672.402-.856.289-.183.657-.183.946 0 .288.184.445.517.402.856.043.339-.114.672-.402.856-.289.183-.657.183-.946 0-.288-.184-.445-.517-.402-.856zM130.6 162.688l.392-.994c.225.157.496.235.77.224.49 0 .77-.294.77-.91v-5.838h1.4v5.81c.055.547-.134 1.09-.518 1.485-.383.394-.921.599-1.47.559-.473.037-.944-.081-1.344-.336zm1.736-9.254c.004-.224.098-.437.262-.59.163-.153.382-.233.606-.222.216-.015.43.058.59.203.162.146.257.35.264.567.004.226-.085.445-.247.603-.161.16-.38.245-.607.237-.215.004-.423-.078-.578-.228-.155-.15-.244-.355-.248-.57h-.042zM141.716 158.026c.035.779-.256 1.538-.803 2.093-.547.555-1.302.857-2.081.833-.694.023-1.364-.258-1.834-.77v2.8h-1.33v-7.77h1.274v.742c.47-.548 1.168-.848 1.89-.812.772-.024 1.52.273 2.065.819.546.546.843 1.293.819 2.065zm-1.4 0c-.046-.923-.823-1.64-1.747-1.61-.924.031-1.653.796-1.639 1.72.015.925.768 1.667 1.692 1.668.481.034.953-.143 1.294-.484.341-.34.518-.813.484-1.294h-.084zM148.66 155.17V160c.112.84-.18 1.684-.786 2.277-.606.592-1.456.864-2.294.733-.997.046-1.982-.24-2.8-.812l.602-1.008c.603.458 1.343.7 2.1.686 1.26 0 1.82-.574 1.82-1.736v-.294c-.501.515-1.2.79-1.918.756-1.1.193-2.21-.287-2.823-1.22-.614-.934-.614-2.142 0-3.076.613-.933 1.723-1.413 2.823-1.22.75-.038 1.475.266 1.974.826v-.756l1.302.014zm-1.316 2.674c.04-.711-.358-1.374-1.004-1.673-.646-.3-1.41-.174-1.926.317s-.68 1.247-.413 1.907c.266.66.909 1.092 1.621 1.087.46.048.919-.104 1.26-.417.34-.314.529-.758.518-1.221h-.056z"/>
            <path fill="#E0E0E0" d="M80.452 166.818L81.068 166.818 81.068 172.012 84.26 172.012 84.26 172.6 80.452 172.6zM84.638 170.388c0-1.206.978-2.184 2.184-2.184 1.206 0 2.184.978 2.184 2.184 0 1.206-.978 2.184-2.184 2.184-.585.02-1.152-.204-1.566-.618-.414-.414-.638-.98-.618-1.566zm3.78 0c-.038-.871-.769-1.55-1.64-1.525-.872.025-1.563.745-1.55 1.617.012.872.722 1.573 1.594 1.574.438.009.86-.166 1.163-.483.304-.317.46-.746.433-1.183zM93.402 169.87v2.73H92.8v-.672c-.32.45-.849.703-1.4.672-.98 0-1.568-.504-1.568-1.246s.42-1.218 1.652-1.218h1.4v-.336c0-.728-.406-1.134-1.218-1.134-.513.002-1.01.185-1.4.518l-.252-.434c.494-.399 1.115-.607 1.75-.588.457-.037.907.134 1.225.465.318.331.47.788.413 1.243zm-.588 1.4v-.7h-1.4c-.826 0-1.106.322-1.106.77s.406.798 1.092.798c.624.035 1.195-.348 1.4-.938l.014.07zM98.904 166.482v6.118H98.4v-.84c-.352.57-.983.906-1.652.882-1.206 0-2.184-.978-2.184-2.184 0-1.206.978-2.184 2.184-2.184.654-.023 1.272.302 1.624.854v-2.576l.532-.07zm-.574 3.906c-.038-.871-.769-1.55-1.64-1.525-.872.025-1.563.745-1.55 1.617.012.872.722 1.573 1.594 1.574.45.03.891-.137 1.21-.456.319-.319.485-.76.456-1.21h-.07zM100.374 166.888c.004-.111.051-.217.133-.293.081-.076.19-.117.301-.113.108-.004.212.035.291.109.079.073.125.175.129.283.004.114-.039.224-.118.306-.08.082-.188.128-.302.128-.234 0-.426-.186-.434-.42zm.14 1.4h.574v4.312h-.574v-4.312zM106.646 170.038v2.562h-.574v-2.422c.062-.367-.05-.742-.301-1.015-.252-.274-.616-.416-.987-.385-.414-.031-.82.123-1.109.42-.29.297-.432.707-.389 1.12v2.282h-.588v-4.284h.56v.784c.357-.55.983-.866 1.638-.826.476-.034.944.141 1.28.48.336.34.508.808.47 1.284zM112.218 168.246v3.766c.087.593-.113 1.192-.538 1.615-.425.422-1.026.618-1.618.527-.724.025-1.434-.208-2.002-.658l.294-.434c.478.39 1.078.598 1.694.588 1.092 0 1.582-.504 1.582-1.568v-.546c-.373.55-1.003.867-1.666.84-.57.027-1.126-.183-1.534-.581-.41-.399-.634-.949-.622-1.519-.009-.567.219-1.112.627-1.505.41-.393.963-.598 1.529-.567.678-.028 1.32.301 1.694.868v-.826h.56zm-.574 2.03c.017-.66-.368-1.265-.973-1.53-.605-.265-1.31-.136-1.784.325-.473.46-.62 1.162-.371 1.774.249.612.843 1.013 1.504 1.013.43.024.85-.134 1.16-.435.308-.3.476-.716.464-1.147zM115.592 172.124c0-.24.194-.434.434-.434s.434.194.434.434-.194.434-.434.434-.434-.194-.434-.434zM117.314 172.124c0-.24.194-.434.434-.434.118-.004.232.04.316.122.084.082.132.194.132.312 0 .247-.2.448-.448.448-.118 0-.23-.048-.312-.132-.082-.084-.126-.198-.122-.316zM119.05 172.124c0-.24.194-.434.434-.434s.434.194.434.434c0 .242-.192.44-.434.448-.118 0-.23-.048-.312-.132-.082-.084-.126-.198-.122-.316zM328.826 181.854H79.78c-1.278.031-2.342-.976-2.38-2.254 0-1.284 1.04-2.324 2.324-2.324h249.102c1.284 0 2.324 1.04 2.324 2.324-.038 1.256-1.067 2.255-2.324 2.254z"/>
            <path fill="#407BFF" d="M225.296 181.854H79.78c-1.278.031-2.342-.976-2.38-2.254 0-1.284 1.04-2.324 2.324-2.324h145.572c.616 0 1.207.245 1.643.68.436.437.681 1.028.681 1.644-.038 1.256-1.067 2.255-2.324 2.254z"/>
            <path fill="#263238" d="M344.03 175.4c-.928 1.456-2.065 2.767-3.374 3.892-1.132 1.307-2.442 2.447-3.892 3.388.936-1.454 2.072-2.769 3.374-3.906 1.138-1.296 2.447-2.432 3.892-3.374z"/>
            <path fill="#263238" d="M343.876 182.638c-1.457-.938-2.772-2.079-3.906-3.388-1.3-1.134-2.436-2.444-3.374-3.892 1.448.938 2.758 2.074 3.892 3.374 1.31 1.134 2.45 2.45 3.388 3.906z"/>
            <path fill="#E0E0E0" d="M308.484 172.012v.588h-4.018v-.42l2.38-2.324c.644-.63.77-1.008.77-1.4 0-.672-.462-1.078-1.4-1.078-.59-.034-1.162.203-1.554.644l-.42-.364c.524-.557 1.267-.854 2.03-.812 1.148 0 1.89.588 1.89 1.54-.027.708-.371 1.366-.938 1.792l-1.946 1.904 3.206-.07zM309.17 169.674c0-1.82.966-2.898 2.282-2.898s2.282 1.078 2.282 2.898-.966 2.912-2.282 2.912-2.282-1.092-2.282-2.912zm3.962 0c0-1.526-.686-2.366-1.68-2.366-.994 0-1.68.84-1.68 2.366 0 1.526.686 2.366 1.68 2.366.994 0 1.68-.84 1.68-2.366zM318.676 170.374L317.668 171.312 317.668 172.6 317.094 172.6 317.094 166.552 317.668 166.552 317.668 170.654 320.23 168.316 321 168.316 319.166 170.066 321.182 172.6 320.468 172.6zM326.334 170.388c.032.579-.18 1.144-.585 1.559-.404.415-.964.642-1.543.625-.673.027-1.31-.31-1.666-.882v.84h-.546v-6.048h.574v2.576c.36-.55.98-.874 1.638-.854.58-.017 1.139.21 1.543.625.404.415.617.98.585 1.559zm-.574 0c0-.881-.715-1.596-1.596-1.596-.881 0-1.596.715-1.596 1.596 0 .881.715 1.596 1.596 1.596.881 0 1.596-.715 1.596-1.596z"/>
            <path fill="#407BFF" d="M61.51 241.76H39.852c-.719 0-1.408-.287-1.916-.796-.507-.51-.79-1.201-.786-1.92v-29.96c-.004-.719.28-1.41.786-1.92.508-.51 1.197-.796 1.916-.796H53.6l10.64 10.962v21.714c0 .723-.288 1.416-.8 1.925-.513.51-1.207.795-1.93.791z"/>
            <path fill="#2965E9" d="M53.6 206.368v8.4c0 1.394 1.126 2.526 2.52 2.534h8.12L53.6 206.368z"/>
            <path fill="#000" d="M53.698 215.538c-.029 1.347.907 2.524 2.226 2.8h.266c1.064.182 8.036 1.4 8.036 1.26V217.4h-8.12s-2.016-.14-2.408-1.862z" opacity=".2"/>
            <path fill="#FFF" d="M53.6 206.368v8.4c0 1.394 1.126 2.526 2.52 2.534h8.12L53.6 206.368z" opacity=".3"/>
            <path fill="#FAFAFA" d="M51.78 214.46c-1.663.197-3.339.263-5.012.196-1.673.067-3.35.002-5.012-.196 1.663-.198 3.339-.263 5.012-.196 1.673-.067 3.35-.001 5.012.196zM58.248 219.234c0 .098-3.696.196-8.246.196-4.55 0-8.246-.098-8.246-.196s3.696-.196 8.246-.196c4.55 0 8.246.084 8.246.196zM59.732 223.21c0 .112-4.032.196-8.988.196-4.956 0-8.988-.084-8.988-.196s4.018-.196 8.988-.196 8.988.084 8.988.196zM59.732 226.962c0 .112-4.032.196-8.988.196-4.956 0-8.988-.084-8.988-.196s4.018-.196 8.988-.196 8.988.098 8.988.196zM59.732 230.728c0 .112-4.032.196-8.988.196-4.956 0-8.988-.084-8.988-.196s4.018-.196 8.988-.196 8.988.084 8.988.196zM59.732 234.48c0 .112-4.032.196-8.988.196-4.956 0-8.988-.084-8.988-.196s4.018-.196 8.988-.196 8.988.084 8.988.196z"/>
            <path fill="#263238" d="M82.622 210.12c.423-.019.842.089 1.204.308l-.364 1.008c-.22-.148-.477-.23-.742-.238-.56 0-.84.308-.84.924v.336h1.568v1.078h-1.526v4.592h-1.33v-4.592h-.952v-1.078h.952v-.364c-.045-.546.156-1.084.55-1.466.392-.382.935-.568 1.48-.508zm2.394.56c.004-.22.096-.43.258-.58.16-.15.376-.23.596-.218.217-.02.433.052.595.199.162.146.256.353.259.571 0 .472-.382.854-.854.854s-.854-.382-.854-.854v.028zm.182 1.736h1.4v5.712h-1.4v-5.712zM88.292 210.204L89.622 210.204 89.622 218.128 88.292 218.128zM96.72 215.706h-4.48c.168.87.965 1.473 1.848 1.4.582.027 1.149-.197 1.554-.616l.714.826c-.884.873-2.193 1.156-3.358.727-1.166-.428-1.98-1.492-2.088-2.729-.033-.79.27-1.556.832-2.11.563-.555 1.333-.846 2.122-.802.782-.024 1.539.28 2.086.838.548.558.838 1.32.798 2.102 0 .07-.014.224-.028.364zm-4.48-.896h3.234c-.08-.82-.787-1.434-1.61-1.4-.823-.027-1.53.582-1.624 1.4zM103.65 214.852v3.276h-1.33v-3.108c0-1.008-.504-1.498-1.4-1.498-.455-.03-.898.147-1.208.48-.31.335-.452.791-.388 1.242v2.884h-1.33v-5.712h1.26v.784c.508-.545 1.23-.837 1.974-.798.665-.062 1.322.177 1.791.651.47.475.701 1.135.631 1.799zM110.132 214.782v3.346h-1.26v-.728c-.431.548-1.112.838-1.806.77-1.302 0-2.114-.714-2.114-1.708s.63-1.694 2.366-1.694h1.4v-.084c0-.784-.462-1.246-1.4-1.246-.627-.008-1.238.194-1.736.574l-.518-.98c.705-.489 1.55-.735 2.408-.7 1.708.028 2.66.868 2.66 2.45zm-1.4 1.554v-.658h-1.4c-.91 0-1.162.336-1.162.756s.406.798 1.092.798c.657.101 1.295-.273 1.526-.896h-.056zM121.374 214.852v3.276h-1.33v-3.108c0-1.008-.476-1.498-1.288-1.498s-1.484.574-1.484 1.708v2.898h-1.33v-3.108c0-1.008-.476-1.498-1.288-1.498s-1.484.574-1.484 1.708v2.898h-1.4v-5.712h1.274v.784c.473-.525 1.156-.812 1.862-.784.768-.05 1.504.313 1.932.952.522-.631 1.31-.983 2.128-.952.663-.073 1.324.16 1.793.635.47.475.696 1.138.615 1.801zM128.486 215.706h-4.466c.163.874.963 1.48 1.848 1.4.578.023 1.138-.2 1.54-.616l.714.826c-.884.873-2.193 1.156-3.358.727-1.166-.428-1.98-1.492-2.088-2.729-.033-.79.27-1.556.832-2.11.563-.555 1.333-.846 2.122-.802.782-.024 1.539.28 2.086.838.548.558.838 1.32.798 2.102 0 .07-.014.224-.028.364zm-4.48-.896h3.234c-.08-.82-.787-1.434-1.61-1.4-.823-.027-1.53.582-1.624 1.4zM129.354 217.316c0-.358.216-.68.548-.816.331-.136.712-.058.963.197.25.256.323.637.182.966-.141.33-.467.54-.825.535-.233 0-.456-.093-.619-.26-.163-.165-.253-.39-.249-.622zM138.468 215.272c.036.782-.257 1.542-.808 2.098-.55.556-1.308.856-2.09.828-.695.03-1.368-.253-1.834-.77v2.8h-1.4v-7.784h1.274v.756c.47-.548 1.168-.848 1.89-.812.786-.048 1.556.238 2.12.787.565.549.873 1.31.848 2.097zm-1.4 0c-.046-.923-.823-1.64-1.747-1.61-.924.031-1.653.796-1.639 1.72.015.925.768 1.667 1.692 1.668.475.026.939-.155 1.271-.496.333-.34.502-.807.465-1.282h-.042zM145.356 214.852v3.276h-1.33v-3.108c0-1.008-.504-1.498-1.4-1.498-.455-.03-.898.147-1.208.48-.31.335-.452.791-.388 1.242v2.884h-1.33v-5.712h1.274v.784c.5-.547 1.22-.84 1.96-.798.666-.068 1.327.17 1.797.646s.7 1.139.625 1.804zM152.776 212.416v4.844c.112.84-.18 1.684-.786 2.277-.606.592-1.456.864-2.294.733-.997.046-1.982-.24-2.8-.812l.602-1.008c.603.458 1.343.7 2.1.686 1.26 0 1.82-.574 1.82-1.722v-.308c-.501.515-1.2.79-1.918.756-1.107.21-2.231-.264-2.854-1.202-.623-.939-.623-2.16 0-3.098.623-.938 1.747-1.412 2.854-1.202.747-.043 1.473.256 1.974.812v-.756h1.302zm-1.316 2.688c0-.959-.777-1.736-1.736-1.736s-1.736.777-1.736 1.736.777 1.736 1.736 1.736 1.736-.777 1.736-1.736z"/>
            <path fill="#E0E0E0" d="M80.452 224.078L81.068 224.078 81.068 229.258 84.26 229.258 84.26 229.79 80.452 229.79zM84.638 227.634c0-1.206.978-2.184 2.184-2.184 1.206 0 2.184.978 2.184 2.184 0 1.206-.978 2.184-2.184 2.184-.585.02-1.152-.204-1.566-.618-.414-.414-.638-.98-.618-1.566zm3.78 0c-.046-.869-.78-1.541-1.65-1.511-.869.03-1.554.751-1.54 1.622.015.87.724 1.568 1.594 1.569.44.009.865-.168 1.169-.488.304-.32.459-.752.427-1.192zM93.402 227.116v2.674H92.8v-.672c-.33.48-.89.747-1.47.7-.98 0-1.568-.504-1.568-1.246s.42-1.218 1.652-1.218h1.4v-.252c0-.742-.406-1.134-1.218-1.134-.51.004-1.004.181-1.4.504l-.252-.434c.502-.383 1.119-.585 1.75-.574.46-.062.922.09 1.255.411.333.323.5.78.453 1.241zm-.588 1.4v-.7h-1.4c-.826 0-1.106.336-1.106.77s.406.812 1.092.812c.616.039 1.185-.331 1.4-.91l.014.028zM98.904 223.728v6.062H98.4v-.854c-.352.57-.983.906-1.652.882-1.135-.091-2.01-1.039-2.01-2.177 0-1.138.875-2.086 2.01-2.177.651-.023 1.267.295 1.624.84v-2.576h.532zm-.574 3.906c-.046-.869-.78-1.541-1.65-1.511-.869.03-1.554.751-1.54 1.622.015.87.724 1.568 1.594 1.569.453.03.896-.138 1.216-.46.32-.323.483-.768.45-1.22h-.07zM100.374 224.134c.004-.111.051-.217.133-.293.081-.076.19-.117.301-.113.166-.03.334.04.427.181.093.14.093.323 0 .464-.093.14-.261.212-.427.181-.114.004-.224-.039-.306-.118-.082-.08-.128-.188-.128-.302zm.14 1.4h.574v4.298h-.574v-4.298zM106.646 227.298v2.492h-.574v-2.436c.062-.367-.05-.742-.301-1.015-.252-.274-.616-.416-.987-.385-.416-.032-.825.124-1.115.424-.29.3-.43.715-.383 1.13v2.254h-.588v-4.298h.56v.784c.36-.545.986-.855 1.638-.812.495-.039.981.15 1.322.511.34.362.497.86.428 1.351zM112.218 225.492v3.766c.092.595-.106 1.199-.531 1.625-.426.425-1.03.623-1.625.531-.727.028-1.439-.211-2.002-.672l.294-.434c.478.39 1.078.598 1.694.588 1.092 0 1.582-.504 1.582-1.554v-.56c-.369.554-1.002.873-1.666.84-1.16 0-2.1-.94-2.1-2.1 0-1.16.94-2.1 2.1-2.1.675-.028 1.316.295 1.694.854v-.826l.56.042zm-.574 2.044c.023-.661-.358-1.27-.963-1.54-.604-.269-1.312-.144-1.788.316-.476.46-.626 1.162-.378 1.776.248.614.843 1.016 1.505 1.016.429.028.85-.127 1.159-.425.309-.298.478-.713.465-1.143zM115.592 229.37c0-.24.194-.434.434-.434s.434.194.434.434-.194.434-.434.434-.434-.194-.434-.434zM117.314 229.37c0-.24.194-.434.434-.434.118-.004.232.04.316.122.084.082.132.194.132.312 0 .247-.2.448-.448.448-.118 0-.23-.048-.312-.132-.082-.084-.126-.198-.122-.316zM119.05 229.37c0-.24.194-.434.434-.434s.434.194.434.434c0 .242-.192.44-.434.448-.118 0-.23-.048-.312-.132-.082-.084-.126-.198-.122-.316zM328.826 239.1H79.78c-1.284 0-2.324-1.04-2.324-2.324 0-1.284 1.04-2.324 2.324-2.324h249.046c1.284 0 2.324 1.04 2.324 2.324 0 1.284-1.04 2.324-2.324 2.324z"/>
            <path fill="#407BFF" d="M135.01 239.1H79.78c-1.284 0-2.324-1.04-2.324-2.324 0-1.284 1.04-2.324 2.324-2.324h55.23c.616 0 1.207.245 1.643.68.436.437.681 1.028.681 1.644 0 1.284-1.04 2.324-2.324 2.324z"/>
            <path fill="#263238" d="M344.03 232.604c-.928 1.456-2.065 2.767-3.374 3.892-1.132 1.307-2.442 2.447-3.892 3.388.938-1.448 2.074-2.758 3.374-3.892 1.135-1.303 2.445-2.443 3.892-3.388z"/>
            <path fill="#263238" d="M343.876 239.884c-1.457-.938-2.772-2.079-3.906-3.388-1.3-1.134-2.436-2.444-3.374-3.892 2.751 2.079 5.201 4.529 7.28 7.28z"/>
            <path fill="#E0E0E0" d="M308.4 228.138c0 .966-.7 1.694-2.072 1.694-.754.029-1.49-.231-2.058-.728l.28-.476c.481.449 1.12.69 1.778.672.938 0 1.47-.448 1.47-1.162s-.49-1.134-1.54-1.134h-.42v-.434l1.596-1.974h-2.926v-.518h3.668v.406l-1.61 2.03c1.176.07 1.834.686 1.834 1.624zM313.034 229.258v.532h-4.004v-.42l2.38-2.324c.644-.644.756-1.022.756-1.4 0-.658-.462-1.078-1.33-1.078-.593-.034-1.17.203-1.568.644l-.406-.364c.518-.556 1.257-.854 2.016-.812 1.162 0 1.89.588 1.89 1.54-.027.708-.371 1.366-.938 1.792l-1.932 1.904 3.136-.014zM322.4 224.078L322.4 229.79 321.812 229.79 321.812 225.212 319.572 229.062 319.292 229.062 317.038 225.24 317.038 229.79 316.464 229.79 316.464 224.078 316.954 224.078 319.446 228.278 321.896 224.078zM328.966 228.264c0 .966-.714 1.526-2.142 1.526h-2.632v-5.712h2.408c1.274 0 2.002.532 2.002 1.4.003.57-.34 1.085-.868 1.302.74.088 1.282.74 1.232 1.484zm-4.2-3.696v2.072h1.834c.91 0 1.4-.35 1.4-1.036s-.532-1.036-1.4-1.036h-1.834zm3.57 3.64c0-.742-.546-1.064-1.554-1.064h-2.016v2.142h2.016c1.036 0 1.582-.322 1.582-1.078h-.028z"/>
            <path fill="#407BFF" d="M61.51 299.006H39.852c-1.492 0-2.702-1.21-2.702-2.702V266.4c-.004-.719.28-1.41.786-1.92.508-.51 1.197-.796 1.916-.796H53.6l10.64 10.962v21.728c-.046 1.473-1.257 2.64-2.73 2.632z"/>
            <path fill="#2965E9" d="M53.6 263.6v8.4c.008 1.389 1.131 2.512 2.52 2.52h8.12L53.6 263.6z"/>
            <path fill="#000" d="M53.698 272.798c.012 1.316.938 2.446 2.226 2.716h.266c1.064.196 8.036 1.4 8.036 1.274v-2.268h-8.12s-2.016-.014-2.408-1.722z" opacity=".2"/>
            <path fill="#FFF" d="M53.6 263.6v8.4c.008 1.389 1.131 2.512 2.52 2.52h8.12L53.6 263.6z" opacity=".3"/>
            <path fill="#FAFAFA" d="M51.78 271.706c-1.663.197-3.339.263-5.012.196-1.673.067-3.35.002-5.012-.196 1.663-.198 3.339-.263 5.012-.196 1.673-.067 3.35-.001 5.012.196zM58.248 276.48c0 .112-3.696.196-8.246.196-4.55 0-8.246-.084-8.246-.196s3.696-.196 8.246-.196c4.55 0 8.246.084 8.246.196zM59.732 280.4c0 .112-4.032.196-8.988.196-4.956 0-8.988-.084-8.988-.196s4.018-.196 8.988-.196 8.988.196 8.988.196zM59.732 284.222c0 .098-4.032.196-8.988.196-4.956 0-8.988-.098-8.988-.196s4.018-.196 8.988-.196 8.988.084 8.988.196zM59.732 287.974c0 .112-4.032.196-8.988.196-4.956 0-8.988-.084-8.988-.196s4.018-.196 8.988-.196 8.988.084 8.988.196zM59.732 291.726c0 .112-4.032.196-8.988.196-4.956 0-8.988-.084-8.988-.196s4.018-.196 8.988-.196 8.988.07 8.988.196z"/>
            <path fill="#263238" d="M82.622 267.366c.425-.022.846.091 1.204.322l-.364.994c-.221-.143-.479-.22-.742-.224-.56 0-.84.308-.84.91v.35h1.568v1.064h-1.526v4.592h-1.33v-4.592h-.952v-1.064h.952v-.364c-.044-.547.157-1.086.549-1.47.392-.384.935-.574 1.481-.518zm2.394.56c.004-.22.096-.43.258-.58.16-.15.376-.23.596-.218.216-.015.43.058.59.203.162.146.257.35.264.567 0 .472-.382.854-.854.854s-.854-.382-.854-.854v.028zm.182 1.75h1.4v5.698h-1.4v-5.698zM88.292 267.45L89.622 267.45 89.622 275.374 88.292 275.374zM96.72 272.952h-4.48c.168.87.965 1.473 1.848 1.4.582.027 1.149-.197 1.554-.616l.714.826c-.884.873-2.193 1.156-3.358.727-1.166-.428-1.98-1.492-2.088-2.729-.033-.79.27-1.556.832-2.11.563-.555 1.333-.846 2.122-.802.785-.025 1.543.28 2.092.843.548.561.836 1.327.792 2.111 0 .056-.014.224-.028.35zm-4.48-.896h3.234c-.128-.793-.813-1.377-1.617-1.377s-1.489.584-1.617 1.377zM103.65 272.098v3.276h-1.33v-3.094c0-1.022-.504-1.512-1.4-1.512-.455-.03-.898.147-1.208.48-.31.335-.452.791-.388 1.242v2.884h-1.33v-5.698h1.26v.728c.508-.545 1.23-.837 1.974-.798.673-.065 1.338.18 1.81.664.47.485.696 1.157.612 1.828zM110.132 272v3.346h-1.26v-.7c-.428.552-1.111.844-1.806.77-1.302 0-2.114-.714-2.114-1.708s.63-1.694 2.366-1.694h1.4V272c0-.784-.462-1.246-1.4-1.246-.627-.008-1.238.194-1.736.574l-.518-.98c.708-.482 1.551-.728 2.408-.7 1.708-.042 2.66.742 2.66 2.352zm-1.4 1.568v-.672h-1.4c-.91 0-1.162.35-1.162.756s.406.798 1.092.798c.646.107 1.28-.248 1.526-.854l-.056-.028zM121.374 272.098v3.276h-1.33v-3.094c0-1.022-.476-1.512-1.288-1.512s-1.484.574-1.484 1.708v2.898h-1.33v-3.094c0-1.022-.476-1.512-1.288-1.512s-1.484.574-1.484 1.708v2.898h-1.4v-5.698h1.274v.714c.473-.525 1.156-.812 1.862-.784.768-.05 1.504.313 1.932.952.522-.631 1.31-.983 2.128-.952.675-.077 1.347.164 1.818.652.472.489.69 1.168.59 1.84zM128.486 272.952h-4.466c.163.874.963 1.48 1.848 1.4.578.023 1.138-.2 1.54-.616l.714.826c-.884.873-2.193 1.156-3.358.727-1.166-.428-1.98-1.492-2.088-2.729-.033-.79.27-1.556.832-2.11.563-.555 1.333-.846 2.122-.802.785-.025 1.543.28 2.092.843.548.561.836 1.327.792 2.111 0 .056-.014.224-.028.35zm-4.48-.896h3.234c-.128-.793-.813-1.377-1.617-1.377s-1.489.584-1.617 1.377zM129.354 274.562c-.043-.339.114-.672.402-.856.289-.183.657-.183.946 0 .288.184.445.517.402.856.043.339-.114.672-.402.856-.289.183-.657.183-.946 0-.288-.184-.445-.517-.402-.856zM138.468 272.518c.036.782-.257 1.542-.808 2.098-.55.556-1.308.856-2.09.828-.695.03-1.368-.253-1.834-.77v2.8h-1.4v-7.77h1.274v.742c.47-.548 1.168-.848 1.89-.812.786-.048 1.556.238 2.12.787.565.549.873 1.31.848 2.097zm-1.4 0c-.053-.92-.834-1.63-1.756-1.595-.921.035-1.646.801-1.629 1.724.017.922.769 1.661 1.691 1.663.478.026.944-.156 1.277-.5.333-.344.5-.815.459-1.292h-.042zM145.328 267.45v7.924h-1.288v-.742c-.47.548-1.168.848-1.89.812-1.534-.106-2.724-1.382-2.724-2.919 0-1.537 1.19-2.813 2.724-2.919.695-.03 1.368.253 1.834.77v-2.926h1.344zm-1.316 5.068c-.046-.933-.833-1.656-1.766-1.623-.933.033-1.667.81-1.648 1.743.02.934.786 1.679 1.72 1.672.47.01.92-.18 1.243-.521.323-.341.487-.803.451-1.271zM148.562 269.368v.35h1.638v1.064h-1.526v4.592h-1.4v-4.592h-.938v-1.064h.938v-.364c-.045-.55.158-1.091.553-1.476.396-.385.943-.572 1.491-.512.425-.022.846.091 1.204.322l-.378.994c-.213-.149-.468-.227-.728-.224-.616 0-.854.308-.854.91z"/>
            <path fill="#E0E0E0" d="M80.452 281.324L81.068 281.324 81.068 286.504 84.26 286.504 84.26 287.036 80.452 287.036zM84.638 284.88c.008-1.204.989-2.175 2.193-2.17 1.205.005 2.178.984 2.175 2.189-.003 1.204-.98 2.179-2.184 2.179-.588.02-1.157-.206-1.571-.623-.415-.417-.637-.988-.613-1.575zm3.78 0c-.046-.869-.78-1.541-1.65-1.511-.869.03-1.554.751-1.54 1.622.015.87.724 1.568 1.594 1.569.44.009.865-.168 1.169-.488.304-.32.459-.752.427-1.192zM93.402 284.376v2.66H92.8v-.672c-.328.483-.888.755-1.47.714-.98 0-1.568-.504-1.568-1.246s.42-1.218 1.652-1.218h1.4v-.266c0-.728-.406-1.134-1.218-1.134-.51.004-1.004.181-1.4.504l-.252-.434c.502-.383 1.119-.585 1.75-.574.46-.058.923.098 1.255.422.333.324.5.782.453 1.244zm-.588 1.4v-.7h-1.4c-.826 0-1.106.322-1.106.756s.406.812 1.092.812c.613.04 1.18-.323 1.4-.896l.014.028zM98.904 280.974v6.062H98.4v-.854c-.346.577-.98.92-1.652.896-1.206 0-2.184-.978-2.184-2.184 0-1.206.978-2.184 2.184-2.184.651-.023 1.267.295 1.624.84v-2.576h.532zm-.504 3.906c-.046-.869-.78-1.541-1.65-1.511-.869.03-1.554.751-1.54 1.622.015.87.724 1.568 1.594 1.569.44.009.865-.168 1.169-.488.304-.32.459-.752.427-1.192zM100.374 281.38c.015-.229.205-.406.434-.406.166-.03.334.04.427.181.093.14.093.323 0 .464-.093.14-.261.212-.427.181-.114.004-.224-.039-.306-.118-.082-.08-.128-.188-.128-.302zm.14 1.4h.574v4.298h-.574v-4.298zM106.646 284.6v2.492h-.574V284.6c.062-.367-.05-.742-.301-1.015-.252-.274-.616-.416-.987-.385-.416-.032-.825.124-1.115.424-.29.3-.43.715-.383 1.13v2.254h-.588v-4.298h.56v.798c.353-.555.982-.872 1.638-.826.507-.043 1.004.153 1.347.528.343.376.492.89.403 1.39zM112.218 282.738v3.766c.092.595-.106 1.199-.531 1.625-.426.425-1.03.623-1.625.531-.724.025-1.434-.208-2.002-.658l.294-.448c.478.39 1.078.598 1.694.588 1.092 0 1.582-.49 1.582-1.554V286c-.374.546-1.005.859-1.666.826-1.16 0-2.1-.94-2.1-2.1 0-1.16.94-2.1 2.1-2.1.675-.028 1.316.295 1.694.854v-.826l.56.084zm-.574 2.044c.023-.661-.358-1.27-.963-1.54-.604-.269-1.312-.144-1.788.316-.476.46-.626 1.162-.378 1.776.248.614.843 1.016 1.505 1.016.429.028.85-.127 1.159-.425.309-.298.478-.713.465-1.143zM115.592 286.63c.008-.238.205-.425.443-.42.238.005.427.2.425.439-.003.237-.196.429-.434.429-.118 0-.23-.048-.312-.132-.082-.084-.126-.198-.122-.316zM117.314 286.63c-.004-.118.04-.232.122-.316.082-.084.194-.132.312-.132.247 0 .448.2.448.448 0 .247-.2.448-.448.448-.118 0-.23-.048-.312-.132-.082-.084-.126-.198-.122-.316zM119.05 286.63c-.004-.118.04-.232.122-.316.082-.084.194-.132.312-.132.247 0 .448.2.448.448 0 .247-.2.448-.448.448-.118 0-.23-.048-.312-.132-.082-.084-.126-.198-.122-.316zM328.826 296.346H79.78c-.616 0-1.207-.245-1.643-.68-.436-.437-.681-1.028-.681-1.644 0-1.284 1.04-2.324 2.324-2.324h249.046c1.284 0 2.324 1.04 2.324 2.324 0 1.284-1.04 2.324-2.324 2.324z"/>
            <path fill="#407BFF" d="M293.434 296.346H79.78c-.616 0-1.207-.245-1.643-.68-.436-.437-.681-1.028-.681-1.644 0-1.284 1.04-2.324 2.324-2.324h213.654c1.284 0 2.324 1.04 2.324 2.324 0 1.284-1.04 2.324-2.324 2.324z"/>
            <path fill="#263238" d="M344.03 289.864c-.932 1.453-2.068 2.763-3.374 3.892-1.134 1.3-2.444 2.436-3.892 3.374.938-1.448 2.074-2.758 3.374-3.892 1.129-1.306 2.44-2.442 3.892-3.374z"/>
            <path fill="#263238" d="M343.876 297.2c-1.454-.936-2.769-2.072-3.906-3.374-1.296-1.138-2.432-2.447-3.374-3.892 1.456.928 2.767 2.065 3.892 3.374 1.307 1.132 2.447 2.442 3.388 3.892z"/>
            <path fill="#E0E0E0" d="M306.16 281.324L306.16 287.036 305.6 287.036 305.6 281.8 304.2 281.8 304.2 281.282zM311.396 285.356c0 .966-.672 1.722-2.072 1.722-.75.028-1.481-.232-2.044-.728l.28-.462c.476.438 1.103.674 1.75.658.98 0 1.484-.476 1.484-1.176s-.448-1.19-1.904-1.19h-1.218l.294-2.8h3.122v.42h-2.604l-.196 1.82h.728c1.722.042 2.38.714 2.38 1.736zM320.706 281.324L320.706 287.036 320.132 287.036 320.132 282.458 317.892 286.308 317.598 286.308 315.358 282.486 315.358 287.036 314.77 287.036 314.77 281.324 315.274 281.324 317.752 285.524 320.216 281.324zM327.328 285.51c0 .966-.714 1.526-2.142 1.526h-2.632v-5.712h2.464c1.274 0 2.016.532 2.016 1.4.022.573-.33 1.093-.868 1.288.718.121 1.223.772 1.162 1.498zm-4.2-3.696v2.072h1.82c.91 0 1.4-.35 1.4-1.036s-.532-1.036-1.4-1.036h-1.82zm3.556 3.64c0-.742-.546-1.064-1.54-1.064h-2.016v2.142h2.072c.98 0 1.526-.322 1.526-1.078h-.042z"/>
            <path fill="#263238" d="M26.776 32.208v-4.69h1.176v4.634c0 1.834.84 2.646 2.324 2.646S32.6 34 32.6 32.152v-4.634h1.148v4.69c0 1.933-1.567 3.5-3.5 3.5s-3.5-1.567-3.5-3.5h.028zM42.4 32.6c.044.852-.272 1.683-.872 2.29-.599.607-1.426.935-2.278.902-.845.023-1.65-.356-2.17-1.022v3.234h-1.134V29.52h1.078v.994c.526-.693 1.357-1.085 2.226-1.05.843-.036 1.663.283 2.262.878.598.596.92 1.414.888 2.258zm-1.134 0c0-1.16-.94-2.1-2.1-2.1-1.16 0-2.1.94-2.1 2.1 0 1.16.94 2.1 2.1 2.1 1.16 0 2.1-.94 2.1-2.1zM44.024 27L45.2 27 45.2 35.736 44.066 35.736zM46.74 32.6c-.023-1.319.754-2.52 1.966-3.04 1.211-.52 2.618-.257 3.558.667.94.925 1.229 2.326.73 3.547-.5 1.22-1.687 2.018-3.006 2.018-.864.044-1.707-.277-2.324-.883-.618-.607-.953-1.444-.924-2.309zm5.348 0c-.046-1.157-1.015-2.062-2.172-2.03-1.158.034-2.074.992-2.054 2.15.02 1.158.968 2.085 2.126 2.078.578.013 1.135-.218 1.535-.636.4-.418.604-.985.565-1.562zM59.676 31.998v3.766h-1.064v-.826c-.49.628-1.265.965-2.058.896-1.4 0-2.31-.756-2.31-1.848s.658-1.82 2.52-1.82h1.778v-.224c0-.952-.546-1.498-1.666-1.498-.716-.012-1.414.225-1.974.672l-.476-.854c.748-.542 1.653-.822 2.576-.798 1.708 0 2.674.826 2.674 2.534zm-1.134 1.848v-.868h-1.736c-1.12 0-1.4.434-1.4.966s.518 1.008 1.4 1.008c.754.034 1.448-.409 1.736-1.106zM67.698 27v8.736h-1.092v-.994c-.518.696-1.345 1.093-2.212 1.064-1.677-.111-2.98-1.504-2.98-3.185 0-1.68 1.303-3.074 2.98-3.185.84-.035 1.647.335 2.17.994V27h1.134zm-1.12 5.6c-.054-1.146-1.016-2.036-2.162-2.001-1.147.035-2.052.984-2.035 2.13.017 1.147.95 2.068 2.097 2.069.578.013 1.135-.218 1.535-.636.4-.418.604-.985.565-1.562zM382.222 54.02c0 .196-85.512.364-190.96.364-105.448 0-190.96-.168-190.96-.364 0-.196 85.498-.42 190.96-.42s190.96.21 190.96.42z"/>
        </g>
        <g>
            <path fill="#F5F5F5" d="M334.754 226.38H.588s-3.92-78.624 65.52-83.86c0 0 11.522-66.486 89.11-66.836 93.044-.406 94.192 80.584 94.192 80.584s76.16-7.196 85.4 70.112" transform="translate(22.4 362.6)"/>
            <path fill="#263238" d="M334.754 226.38c-.05-.184-.087-.371-.112-.56-.07-.392-.154-.938-.28-1.666-.126-.728-.266-1.652-.434-2.73-.166-1.262-.4-2.515-.7-3.752-.308-1.4-.658-2.982-1.05-4.718-.392-1.736-1.036-3.556-1.624-5.6-.588-2.044-1.484-4.074-2.324-6.314-.504-1.092-1.022-2.212-1.54-3.374-.28-.574-.546-1.162-.826-1.75l-.952-1.75c-.672-1.162-1.26-2.422-2.058-3.598l-2.38-3.64-2.8-3.612c-.98-1.204-2.086-2.352-3.15-3.57-4.811-5.095-10.396-9.4-16.548-12.754-6.952-3.812-14.423-6.59-22.176-8.246-4.214-.934-8.483-1.593-12.782-1.974-4.491-.417-9.008-.482-13.51-.196h-.322v-.336c-.232-4.715-.883-9.4-1.946-14-1.064-4.77-2.496-9.451-4.284-14-3.768-9.652-9.353-18.491-16.45-26.04-3.719-3.916-7.839-7.43-12.292-10.486-1.12-.798-2.324-1.47-3.472-2.212l-1.764-1.078-1.834-.966c-1.232-.63-2.45-1.316-3.71-1.904l-3.836-1.666c-1.274-.602-2.618-1.022-3.948-1.498s-2.646-.994-4.004-1.4c-2.8-.728-5.446-1.638-8.274-2.128l-4.2-.882-4.27-.616c-2.8-.49-5.754-.686-8.652-.91-5.997-.41-12.014-.47-18.018-.182l-4.438.378-2.212.196-2.184.308-4.354.644-4.284.896c-5.632 1.235-11.132 3.012-16.422 5.306-5.141 2.231-10.047 4.97-14.644 8.176-8.75 6.21-16.19 14.083-21.896 23.17-2.711 4.278-5.053 8.779-7 13.454-1.909 4.458-3.381 9.09-4.396 13.832v.238h-.238c-8.505.553-16.85 2.57-24.668 5.964-7.035 3.085-13.395 7.523-18.718 13.062-4.637 4.871-8.538 10.394-11.578 16.394-2.597 5.1-4.68 10.447-6.216 15.96-2.183 7.717-3.549 15.643-4.074 23.646-.182 2.8-.238 4.886-.252 6.314-.014 1.428 0 2.17 0 2.17s0-.728-.084-2.17 0-3.556.168-6.328c.447-8.027 1.756-15.983 3.906-23.73 1.524-5.543 3.593-10.922 6.174-16.058 3.031-6.064 6.932-11.653 11.578-16.59 5.356-5.6 11.758-10.095 18.844-13.23 7.877-3.44 16.288-5.49 24.864-6.062l-.28.252c1.009-4.798 2.48-9.487 4.396-14 1.95-4.71 4.292-9.248 7-13.566 5.739-9.162 13.238-17.094 22.064-23.338 4.635-3.244 9.583-6.016 14.77-8.274 5.325-2.29 10.857-4.068 16.52-5.306l4.326-.896 4.382-.644 2.212-.308 2.212-.196 4.466-.392c6.032-.289 12.077-.228 18.102.182 2.926.238 5.838.434 8.708.91l4.312.63 4.2.882c2.8.504 5.6 1.4 8.33 2.142 1.4.392 2.702.938 4.046 1.4 1.344.462 2.688.91 3.962 1.512l3.878 1.694c1.274.588 2.492 1.288 3.738 1.918l1.848.966 1.778 1.106c1.176.742 2.38 1.4 3.514 2.226 4.5 3.081 8.658 6.634 12.404 10.598 7.126 7.641 12.715 16.582 16.464 26.334 1.823 4.59 3.275 9.318 4.34 14.14 1.063 4.623 1.714 9.332 1.946 14.07l-.35-.308c4.54-.28 9.095-.2 13.622.238 4.301.384 8.572 1.057 12.782 2.016 7.837 1.69 15.384 4.52 22.4 8.4 6.185 3.395 11.793 7.747 16.618 12.894 1.078 1.232 2.17 2.394 3.15 3.612l2.8 3.654c.826 1.246 1.61 2.478 2.394 3.668s1.4 2.45 2.044 3.626l.952 1.75.812 1.764c.518 1.176 1.036 2.296 1.526 3.402.84 2.254 1.652 4.354 2.296 6.356l1.596 5.6c.364 1.736.7 3.318.994 4.732.287 1.243.507 2.5.658 3.766.154 1.078.294 2.002.392 2.8.098.798.182 1.288.224 1.68.042.392.098.476.098.476z" transform="translate(22.4 362.6)"/>
            <path fill="#407BFF" d="M151.158 0.056L151.158 0.056 151.158 0.056 151.158 0.056 88.648 56.7 126.392 56.7 126.392 136.85 149.73 136.85 152.572 136.85 175.924 136.85 175.924 56.7 213.668 56.7z" transform="translate(22.4 362.6)"/>
            <path fill="#F5F5F5" d="M106.806 109.48c21.952-5.53 36.232.672 46.382 14.882 8.694-14.952 28.742-19.054 44.8-12.6l10.108 38.248-61.488 8.05-51.408-9.436 11.606-39.144z" transform="translate(22.4 362.6)"/>
            <path fill="#263238" d="M193.116 110.6c0 .07-1.218-.42-3.444-1.022-3.157-.807-6.424-1.096-9.674-.854-4.852.299-9.572 1.696-13.804 4.088-5.282 2.872-9.583 7.261-12.348 12.6l-.294.574-.35-.574-1.288-2.086c-1.78-2.703-3.95-5.128-6.44-7.196-6.34-5.187-14.213-8.14-22.4-8.4-3.458-.112-6.913.299-10.248 1.218-2.338.714-3.598 1.232-3.626 1.162.281-.175.582-.316.896-.42.863-.383 1.746-.72 2.646-1.008 3.342-1.047 6.831-1.543 10.332-1.47 8.347.156 16.4 3.115 22.862 8.4 2.56 2.051 4.804 4.466 6.664 7.168l1.316 2.156h-.644c2.825-5.423 7.215-9.87 12.6-12.768 4.332-2.397 9.154-3.771 14.098-4.018 3.305-.205 6.62.165 9.8 1.092.86.243 1.703.547 2.52.91.291.118.568.268.826.448z" transform="translate(22.4 362.6)"/>
        </g>
        <g>
            <path fill="#263238" d="M46.2 46.2c-2.884-9.254-1.68-24.78 4.69-32.438C57.26 6.104 68.306 1.68 78.19.462c1.642-.33 3.346-.155 4.886.504 1.575.742 2.3 2.583 1.652 4.2 2.003-1.156 4.184-1.97 6.454-2.408 2.307-.434 4.678.318 6.314 2.002.768.861 1.16 1.993 1.089 3.145-.071 1.151-.6 2.227-1.467 2.987 2.876-.764 5.93.254 7.773 2.59 1.843 2.335 2.122 5.543.711 8.162-1.57 2.612-3.629 4.898-6.062 6.734-2.212 1.68-2.716 3.584-2.632 6.356" transform="translate(247.8 301)"/>
            <path fill="#FFBE9D" d="M49.966 30.002l-7.476 54.39c-.611 4.431.621 8.92 3.41 12.418 2.789 3.497 6.89 5.699 11.346 6.09 8.679.752 16.421-5.438 17.598-14.07.56-4.102 1.036-7.518 1.12-7.924 0 0 14 .602 16.912-12.964 1.4-6.566 3.164-20.3 4.634-32.746 1.552-13.37-7.411-25.693-20.608-28.336l-1.316-.252c-14.322-2.002-24.01 9.03-25.62 23.394z" transform="translate(247.8 301)"/>
            <path fill="#EB996E" d="M76.034 80.71c-6.304-1.139-12.127-4.126-16.73-8.582 0 0 2.24 10.626 16.058 12.11l.672-3.528z" transform="translate(247.8 301)"/>
            <path fill="#263238" d="M91.728 43.512c-.205 1.053-1.209 1.753-2.268 1.582-.506-.06-.966-.32-1.277-.723-.311-.403-.446-.915-.375-1.419.192-1.057 1.194-1.766 2.254-1.596.51.06.974.321 1.287.727.314.406.45.921.379 1.429zM93.254 41.286c-.294.21-1.554-1.176-3.64-1.596-2.086-.42-3.836.336-4.004 0-.168-.336.238-.546 1.008-.896 1.032-.446 2.175-.563 3.276-.336 1.077.218 2.058.772 2.8 1.582.574.658.7 1.162.56 1.246zM71.078 40.124c-.192 1.055-1.196 1.76-2.254 1.582-.51-.051-.975-.31-1.287-.715-.313-.406-.445-.922-.365-1.427.192-1.057 1.194-1.766 2.254-1.596.507.063.967.326 1.278.732.31.405.445.918.374 1.424zM72.632 37.576c-.294.196-1.554-1.19-3.64-1.596-2.086-.406-3.836.322-4.004 0-.168-.322.238-.546 1.008-.896 1.032-.446 2.175-.563 3.276-.336 1.076.221 2.055.775 2.8 1.582.574.644.728 1.148.56 1.246zM77.112 54.6c1.167-.15 2.347-.15 3.514 0 .546 0 1.078 0 1.246-.308.16-.539.16-1.113 0-1.652-.252-1.4-.504-2.8-.77-4.382-1.036-6.216-1.666-11.298-1.4-11.34.266-.042 1.302 4.984 2.338 11.2.238 1.54.476 2.996.7 4.396.198.71.143 1.467-.154 2.142-.232.348-.607.573-1.022.616-.312.031-.626.031-.938 0-1.196-.066-2.378-.292-3.514-.672zM70.672 54.796c.35 0-.098 2.324 1.512 4.326s4.088 2.226 4.046 2.548c-.042.322-.63.336-1.652.154-1.335-.244-2.54-.953-3.402-2.002-.824-1.004-1.225-2.29-1.12-3.584.098-.966.462-1.484.616-1.442zM74.802 29.484c-.322.532-2.352-.154-4.858-.35-2.506-.196-4.634.084-4.858-.504-.098-.266.35-.728 1.26-1.12 1.2-.473 2.496-.655 3.78-.532 1.285.097 2.529.5 3.626 1.176.826.546 1.19 1.078 1.05 1.33zM93.688 35.084c-.462.406-1.806-.378-3.528-.756s-3.262-.308-3.5-.882c-.098-.266.224-.7.952-1.022.967-.382 2.03-.45 3.038-.196 1.011.223 1.93.75 2.632 1.512.518.616.616 1.148.406 1.344z" transform="translate(247.8 301)"/>
            <path fill="#FFBE9D" d="M49.07 40.292c-.21-.14-8.792-4.62-10.36 4.732-1.568 9.352 8.162 9.002 8.218 8.736.056-.266 2.142-13.468 2.142-13.468z" transform="translate(247.8 301)"/>
            <path fill="#EB996E" d="M44.66 49.728s-.182.084-.476.168c-.414.105-.853.04-1.218-.182-1.106-.978-1.59-2.481-1.26-3.92.104-.81.391-1.586.84-2.268.27-.553.793-.94 1.4-1.036.405-.043.783.21.896.602.084.28 0 .462 0 .49 0 .028.224-.126.21-.532-.022-.237-.114-.461-.266-.644-.229-.237-.54-.377-.868-.392-.808.029-1.544.474-1.946 1.176-.53.742-.872 1.602-.994 2.506-.382 1.686.286 3.436 1.694 4.438.486.236 1.054.236 1.54 0 .392-.182.476-.378.448-.406z" transform="translate(247.8 301)"/>
            <path fill="#263238" d="M106.4 18.536c-.938 12.32-16.8 14.868-22.148 7-2.506-3.64-4.494-8.008-8.4-10.108-2.706-1.328-5.832-1.52-8.68-.532h-.084c-4.2 1.4-7.21 5.432-8.526 9.646-1.848 5.852-1.764 11.298-4.2 16.548-.278.793-.81 1.472-1.512 1.932-1.274.63-2.8-.364-3.542-1.554-1.067-2.014-1.525-4.296-1.316-6.566.021-5.183 1.078-10.31 3.108-15.078 2.047-4.778 5.456-8.849 9.8-11.704 5.57-3.408 12.249-4.513 18.62-3.08 6.333 1.469 12.04 4.898 16.31 9.8 2.084 2.166 3.595 4.817 4.396 7.714" transform="translate(247.8 301)"/>
            <path fill="#455A64" d="M97.65 10.206c.44-.02.878.072 1.274.266 1.123.473 2.092 1.249 2.8 2.24 1.068 1.483 1.606 3.284 1.526 5.11-.179 2.23-1.176 4.314-2.8 5.852-1.58 1.552-3.564 2.628-5.726 3.108-1.737.382-3.525.477-5.292.28-1.18-.131-2.347-.365-3.486-.7-.424-.087-.83-.244-1.204-.462 0-.14 1.806.434 4.732.644 1.71.124 3.43-.018 5.096-.42 2.026-.487 3.884-1.513 5.376-2.968 1.502-1.415 2.446-3.323 2.66-5.376.103-1.69-.35-3.366-1.288-4.774-.624-.956-1.482-1.736-2.492-2.268-.742-.378-1.204-.462-1.176-.532zM92.106 4.872s.35 0 .868.308c.68.55 1.088 1.367 1.12 2.24-.034 1.268-.498 2.488-1.316 3.458-.91 1.183-1.979 2.234-3.178 3.122-2.173 1.636-4.717 2.71-7.406 3.122-1.094.226-2.224.226-3.318 0 0-.14 1.274-.084 3.234-.518 2.534-.553 4.92-1.641 7-3.192 1.141-.863 2.171-1.865 3.066-2.982.785-.833 1.277-1.9 1.4-3.038.014-.76-.273-1.494-.798-2.044-.378-.336-.7-.42-.672-.476z" transform="translate(247.8 301)"/>
            <path fill="#407BFF" d="M155.26 176.4c-4.077 4.552-9.898 7.154-16.009 7.154-6.11 0-11.932-2.602-16.009-7.154L98.49 148.68l-.294 39.494 8.736 25.326-86.8 15.05-3.682-68.474-6.244-52.584c-.77-6.446 2.905-12.6 8.946-14.98l23.884-9.394 33.6 6.16 13.538 5.152c5.7 2.115 10.792 5.601 14.826 10.15l37.954 43.4" transform="translate(247.8 301)"/>
            <path fill="#263238" d="M98.994 186.396c.196 0 .252-13.692.112-30.548-.14-16.856-.406-30.548-.616-30.548-.21 0-.252 13.678-.112 30.548.14 16.87.406 30.548.616 30.548z" transform="translate(247.8 301)"/>
            <path fill="#407BFF" d="M95.816 196.434L43.4 175.322c-4.23-1.701-7.124-5.66-7.462-10.206L32.06 114.8s.462-21.378-12.894-22.4l-7.602 2.996c-9.8 5.222-12.25 19.516-10.906 30.548 1.89 15.694 2.688 37.884 4.816 51.492 1.736 11.2 8.106 20.93 19.012 23.8l64.582 14 6.748-18.802z" transform="translate(247.8 301)"/>
            <path fill="#263238" d="M32.816 122.514c.091.377.147.761.168 1.148.084.826.196 1.918.336 3.318.266 2.94.644 7.084 1.106 12.194.462 5.11.98 11.284 1.554 18.088.154 1.694.294 3.444.448 5.222.101 1.805.32 3.6.658 5.376.37 1.803 1.284 3.45 2.618 4.718 1.437 1.258 3.068 2.274 4.83 3.01 14.462 6.258 27.79 11.424 37.464 15.05l11.48 4.2L96.6 196c.373.113.735.263 1.078.448-.38-.077-.754-.18-1.12-.308l-3.164-1.036c-2.8-.91-6.706-2.268-11.564-4.018-9.73-3.486-23.03-8.582-37.59-14.868-1.834-.766-3.531-1.826-5.026-3.136-1.432-1.361-2.41-3.13-2.8-5.068-.35-1.807-.575-3.636-.672-5.474-.14-1.778-.28-3.528-.42-5.222-.518-6.804-.994-12.936-1.4-18.116-.406-5.18-.672-9.254-.882-12.208-.098-1.4-.154-2.506-.21-3.318-.039-.386-.043-.775-.014-1.162zM2.8 149.8c.065.219.102.444.112.672 0 .532.098 1.162.168 1.946l.616 7.126c.294 3.01.658 6.594 1.176 10.556.517 4.289 1.312 8.54 2.38 12.726.473 2.194 1.336 4.285 2.548 6.174 1.164 1.716 2.476 3.327 3.92 4.816 2.458 2.521 5.291 4.646 8.4 6.3 2.897 1.473 6.004 2.488 9.212 3.01-.223.03-.45.03-.672 0-.654-.039-1.304-.123-1.946-.252-2.37-.446-4.665-1.224-6.818-2.31-3.198-1.61-6.112-3.734-8.624-6.286-1.487-1.496-2.832-3.127-4.018-4.872-1.254-1.917-2.159-4.04-2.674-6.272-1.066-4.221-1.843-8.51-2.324-12.838-.49-3.976-.812-7.574-1.036-10.598-.224-3.024-.336-5.46-.392-7.154v-1.946c-.038-.264-.047-.532-.028-.798z" transform="translate(247.8 301)"/>
            <path fill="#263238" d="M25.2 185.024c.135-.986.458-1.936.952-2.8 2.187-4.331 6.02-7.604 10.64-9.086.93-.351 1.918-.522 2.912-.504 0 .112-1.078.336-2.8.98-2.167.834-4.179 2.026-5.95 3.528-1.76 1.515-3.255 3.313-4.424 5.32-.826 1.54-1.218 2.604-1.33 2.562z" transform="translate(247.8 301)"/>
            <path fill="#000" d="M80.738 190.4c-5.6-3.178-11.088-5.6-16.954-8.274-5.866-2.674-11.606-6.076-15.4-11.2-7.238-9.8-6.412-23.8-13.818-33.46.495 6.477.961 12.95 1.4 19.418.448 5.936-.462 11.802 3.36 15.834 3.206 3.402 9.492 6.006 14 7.462 8.932 2.954 18.55 7.322 27.468 10.276" opacity=".3" transform="translate(247.8 301)"/>
            <path fill="#407BFF" d="M40.992 85.4l2.562-9.618 32.592 7.672c.873.206 1.624.762 2.074 1.538.45.776.561 1.704.306 2.564l-2.492 8.484-11.76 15.092-13.342-2.38-9.94-7.63V85.4z" transform="translate(247.8 301)"/>
            <path fill="#263238" d="M76.748 89.768c-.368.144-.754.234-1.148.266-1.058.161-2.123.264-3.192.308-7.127.282-14.19-1.43-20.398-4.942-.933-.526-1.836-1.106-2.702-1.736-.616-.448-.938-.714-.91-.756.028-.042 1.47.812 3.85 2.03 6.238 3.183 13.143 4.839 20.146 4.83 2.674.056 4.34-.168 4.354 0z" transform="translate(247.8 301)"/>
            <path fill="#F5F5F5" d="M52.486 85.4c-.07 0-.448-.266-.784-.994-.792-1.957-.264-4.2 1.316-5.6.63-.504 1.12-.616 1.148-.532.028.084-.322.364-.784.896-.59.7-1.007 1.53-1.218 2.422-.206.889-.206 1.813 0 2.702.196.658.42 1.106.322 1.106zM66.5 90.202c.293-1.555.415-3.137.364-4.718-.29-1.552-.76-3.065-1.4-4.508 0 0 .504.308.994 1.092.611 1.021.993 2.163 1.12 3.346.135 1.185.006 2.385-.378 3.514-.28.854-.63 1.302-.7 1.274zM67.634 184.926c-.037-.326-.037-.654 0-.98 0-.644.182-1.582.238-2.8.226-3.436.226-6.882 0-10.318-.375-5.09-1.02-10.155-1.932-15.176-.98-5.684-2.268-11.914-3.304-18.508-1.75-11.276-2.532-22.68-2.338-34.09.084-4.368.28-7.91.476-10.346.084-1.218.196-2.156.266-2.8.014-.33.061-.659.14-.98.036.33.036.664 0 .994 0 .714-.07 1.638-.126 2.8-.098 2.45-.224 5.978-.252 10.346-.034 11.37.823 22.727 2.562 33.964 1.022 6.566 2.282 12.796 3.234 18.508.887 5.048 1.485 10.143 1.792 15.26.2 3.458.13 6.927-.21 10.374-.098 1.218-.294 2.156-.378 2.8-.022.322-.078.642-.168.952zM83.664 91.658c.046.078.079.163.098.252.08.248.145.5.196.756.214.981.346 1.979.392 2.982.154 2.618-.196 6.37-.406 11.004-.21 4.634-.462 10.164-.294 16.296.14 6.641.985 13.249 2.52 19.712 1.624 6.874 3.514 13.412 4.2 19.6.649 5.425.831 10.896.546 16.352-.238 4.648-.658 8.4-.994 10.962-.168 1.288-.322 2.296-.434 2.968-.036.347-.106.69-.21 1.022-.002-.347.022-.693.07-1.036.065-.756.163-1.75.294-2.982.252-2.59.588-6.328.756-10.962.206-5.423-.028-10.855-.7-16.24-.728-6.076-2.618-12.6-4.2-19.474-1.535-6.514-2.366-13.174-2.478-19.866-.126-6.16.154-11.69.448-16.338.294-4.648.714-8.4.644-10.962-.015-.994-.099-1.986-.252-2.968-.085-.356-.15-.715-.196-1.078zM113.54 147.672c-.938-.557-1.796-1.24-2.548-2.03-1.937-1.745-3.756-3.615-5.446-5.6-1.687-2.003-3.244-4.112-4.662-6.314-.645-.862-1.176-1.803-1.582-2.8.196-.112 2.8 4.06 6.804 8.708 4.004 4.648 7.574 7.882 7.434 8.036zM131.474 143.416c-.555-.455-1.066-.96-1.526-1.512-.952-1.008-2.296-2.506-3.934-4.368-3.262-3.724-7.644-8.974-12.264-14.952-4.62-5.978-8.582-11.578-11.354-15.68-1.4-2.058-2.478-3.724-3.206-4.9-.417-.588-.782-1.211-1.092-1.862.493.52.933 1.088 1.316 1.694l3.416 4.774c2.87 4.018 6.888 9.548 11.494 15.526s8.932 11.27 12.082 15.064l3.752 4.508c.49.529.93 1.1 1.316 1.708zM42.756 175.616c-.212-.234-.395-.493-.546-.77-.464-.79-.858-1.619-1.176-2.478-1.095-3.182-1.515-6.558-1.232-9.912.196-4.2 1.4-9.17 2.1-14.672.622-5.996.692-12.037.21-18.046-.42-6.412-1.05-12.516-1.288-18.102-.27-4.95-.124-9.914.434-14.84.382-3.33 1.095-6.612 2.128-9.8.277-.866.6-1.716.966-2.548.111-.298.242-.588.392-.868.084 0-.434 1.232-1.078 3.5-.932 3.201-1.564 6.482-1.89 9.8-.479 4.904-.573 9.838-.28 14.756.266 5.6.924 11.648 1.4 18.088.499 6.06.414 12.155-.252 18.2-.728 5.6-2.002 10.43-2.268 14.616-.317 3.3.021 6.63.994 9.8.394 1.12.857 2.214 1.386 3.276zM27.37 180.404c-1.253-.461-2.418-1.134-3.444-1.988-2.79-2.37-4.861-5.474-5.978-8.96-.803-2.383-1.274-4.866-1.4-7.378-.12-2.873.025-5.75.434-8.596.798-6.006 2.408-12.446 2.926-19.362.558-6.496.502-13.03-.168-19.516-.344-2.844-.545-5.704-.602-8.568-.06-2.517.265-5.03.966-7.448 1-3.548 3.266-6.607 6.37-8.596.871-.51 1.816-.882 2.8-1.106.336-.076.678-.128 1.022-.154-1.27.325-2.486.83-3.612 1.498-2.96 2.029-5.1 5.047-6.034 8.512-.65 2.374-.938 4.834-.854 7.294 0 2.66.35 5.502.658 8.498.712 6.51.792 13.074.238 19.6-.532 7-2.17 13.454-2.982 19.39-.424 2.802-.592 5.637-.504 8.47.097 2.46.53 4.895 1.288 7.238 1.057 3.423 3.015 6.498 5.67 8.904 1.008.838 2.08 1.597 3.206 2.268zM87.43 201.6c-.797-.254-1.574-.568-2.324-.938l-6.23-2.702c-5.264-2.268-12.6-5.278-20.832-8.232-8.232-2.954-15.806-5.292-21.322-6.888l-6.524-1.862c-.818-.185-1.618-.438-2.394-.756.831.101 1.655.26 2.464.476 1.568.35 3.822.91 6.594 1.652 5.6 1.47 13.174 3.738 21.42 6.692 8.246 2.954 15.582 6.048 20.804 8.4 2.618 1.19 4.718 2.198 6.146 2.926.766.348 1.501.76 2.198 1.232zM19.726 198.688l-.224-.112c-.23-.113-.45-.244-.658-.392-.81-.552-1.569-1.175-2.268-1.862-2.583-2.532-4.643-5.548-6.062-8.876-.45-1.126-.714-2.317-.784-3.528-.14-1.232-.28-2.506-.434-3.836-.294-2.646-.602-5.474-.924-8.4-.67-6.452-1.683-12.864-3.038-19.208-1.291-6.414-1.99-12.932-2.086-19.474-.154-6.006.098-11.41.378-15.932s.602-8.176.84-10.71c.126-1.204.224-2.17.308-2.898.012-.34.064-.68.154-1.008.022.34.022.682 0 1.022l-.168 2.912c-.14 2.534-.392 6.188-.602 10.71-.21 4.522-.406 9.912-.224 15.89.134 6.481.846 12.937 2.128 19.292 1.362 6.369 2.362 12.81 2.996 19.292.294 2.982.588 5.81.854 8.4.14 1.316.266 2.604.392 3.836.06 1.163.295 2.31.7 3.402 1.359 3.288 3.32 6.294 5.782 8.862.674.697 1.394 1.347 2.156 1.946.285.195.548.42.784.672z" transform="translate(247.8 301)"/>
            <path fill="#407BFF" d="M171.864 264.32s43.876 12.152 45.626 12.768c2.646.938 2.198 10.612-1.904 10.458-1.946-.07-33.712 1.19-37.716.938-4.004-.252-16.114-5.026-16.114-5.026l10.108-19.138z" transform="translate(247.8 301)"/>
            <path fill="#263238" d="M190.134 281.064c.871-3.313 2.611-6.334 5.04-8.75-3.169 1.76-5.108 5.126-5.04 8.75zM185.556 278.992c.224 0 .672-2.03 1.834-4.326s2.548-3.892 2.394-4.046c-1.36.909-2.423 2.2-3.052 3.71-.833 1.408-1.242 3.027-1.176 4.662zM181.272 277.844c.221-1.569.563-3.118 1.022-4.634.687-1.43 1.487-2.801 2.394-4.102-2.855 1.91-4.219 5.396-3.416 8.736z" transform="translate(247.8 301)"/>
            <path fill="#263238" d="M182 272.174c.381-1.043.539-2.154.462-3.262-.002-1.209-.152-2.412-.448-3.584-.161-.693-.376-1.371-.644-2.03-.134-.415-.375-.787-.7-1.078-.456-.35-1.098-.314-1.512.084-.34.325-.55.763-.588 1.232-.02.387-.02.775 0 1.162.01.722.105 1.441.28 2.142.307 1.18.778 2.311 1.4 3.36.487.998 1.157 1.895 1.974 2.646.098-.07-.644-1.092-1.512-2.884-.514-1.037-.899-2.132-1.148-3.262-.142-.658-.212-1.329-.21-2.002 0-.686 0-1.526.392-1.848.166-.153.422-.153.588 0 .22.208.383.468.476.756.263.634.488 1.284.672 1.946.298 1.118.49 2.262.574 3.416.07 1.946-.056 3.192-.056 3.206z" transform="translate(247.8 301)"/>
            <path fill="#263238" d="M182 271.726c-.888-.356-1.845-.509-2.8-.448-1.052-.005-2.101.122-3.122.378-.625.135-1.228.356-1.792.658-.743.369-1.15 1.187-.994 2.002.207.77.81 1.368 1.582 1.568.648.161 1.326.161 1.974 0 1.022-.264 1.976-.741 2.8-1.4.806-.532 1.5-1.217 2.044-2.016-.813.476-1.594 1.005-2.338 1.582-.812.562-1.725.96-2.688 1.176-.534.126-1.09.126-1.624 0-.523-.128-.936-.53-1.078-1.05-.083-.508.188-1.009.658-1.218.501-.277 1.038-.484 1.596-.616.962-.283 1.953-.456 2.954-.518 1.736-.154 2.828.028 2.828-.098zM196.882 281.54c.168-1.344.459-2.67.868-3.962.612-1.204 1.329-2.352 2.142-3.43-2.64 1.43-3.9 4.525-3.01 7.392zM166.264 283.556c.534.331 1.102.604 1.694.812 1.594.61 3.226 1.115 4.886 1.512 5.516 1.203 11.157 1.734 16.8 1.582 6.58-.07 12.502-.378 16.8-.546l5.082-.266c.625-.01 1.248-.076 1.862-.196-.615-.101-1.24-.134-1.862-.098h-5.096l-16.8.336c-5.578.124-11.153-.345-16.632-1.4-4.228-.784-6.678-1.862-6.734-1.736z" transform="translate(247.8 301)"/>
            <path fill="#263238" d="M164.962 284.564c.07.098 1.26-.602 3.29-1.484 2.581-1.236 5.458-1.721 8.302-1.4 2.794.606 5.315 2.105 7.182 4.27.778.917 1.62 1.778 2.52 2.576-.574-1.07-1.295-2.056-2.142-2.926-.863-1.019-1.84-1.935-2.912-2.73-1.339-.99-2.893-1.647-4.536-1.918-2.975-.363-5.99.21-8.624 1.638-1.124.492-2.163 1.158-3.08 1.974z" transform="translate(247.8 301)"/>
            <path fill="#407BFF" d="M125.286 252.21s-41.51 27.188-43.008 28.308c-2.226 1.694.336 9.73 4.2 8.4 1.834-.658 36.68-10.346 40.418-11.802 3.738-1.456 13.832-9.688 13.832-9.688l-15.442-15.218z" transform="translate(247.8 301)"/>
            <path fill="#263238" d="M112.966 273.714c-1.037-3.474-3.908-6.09-7.462-6.804 1.46.876 2.863 1.844 4.2 2.898 1.163 1.237 2.252 2.541 3.262 3.906zM116.69 270.354c-1.08-3.102-3.487-5.561-6.566-6.706-.098.196 1.722 1.288 3.514 3.136 1.792 1.848 2.856 3.668 3.052 3.57zM120.4 267.946c-.006-1.697-.657-3.328-1.82-4.564-.961-1.399-2.426-2.372-4.088-2.716 1.258.964 2.438 2.027 3.528 3.178.905 1.3 1.7 2.671 2.38 4.102z" transform="translate(247.8 301)"/>
            <path fill="#263238" d="M117.964 262.794c.112 0-.462-1.176-.938-3.108-.276-1.13-.44-2.283-.49-3.444-.041-.68-.041-1.363 0-2.044.002-.308.079-.61.224-.882.133-.18.378-.233.574-.126.476.182.714.994.938 1.624.206.641.342 1.303.406 1.974.112 1.152.08 2.314-.098 3.458-.294 1.974-.686 3.178-.56 3.206.54-.963.901-2.016 1.064-3.108.26-1.185.355-2.4.28-3.612-.058-.722-.194-1.435-.406-2.128-.107-.374-.242-.74-.406-1.092-.175-.434-.504-.787-.924-.994-.497-.222-1.082-.064-1.4.378-.23.374-.352.806-.35 1.246-.056.708-.056 1.42 0 2.128.081 1.207.302 2.4.658 3.556.258 1.08.745 2.092 1.428 2.968z" transform="translate(247.8 301)"/>
            <path fill="#263238" d="M117.88 262.346c0 .112 1.022-.392 2.702-.798.974-.23 1.968-.367 2.968-.406.572-.04 1.146-.003 1.708.112.512.058.92.455.994.966.02.533-.247 1.035-.7 1.316-.466.29-.993.467-1.54.518-.985.09-1.978-.01-2.926-.294-.88-.33-1.783-.598-2.702-.798.759.592 1.624 1.034 2.548 1.302 1.008.367 2.08.524 3.15.462.663-.045 1.306-.246 1.876-.588.675-.422 1.067-1.179 1.022-1.974-.097-.825-.733-1.484-1.554-1.61-.628-.117-1.269-.145-1.904-.084-1.048.06-2.083.259-3.08.588-.945.218-1.823.66-2.562 1.288zM91.77 287.35s.7-.42 1.022-1.61c.333-1.547.052-3.164-.784-4.508-.414-.725-.882-1.417-1.4-2.072-.394-.567-.865-1.076-1.4-1.512-.373-.314-.831-.51-1.316-.56-.35 0-.532.07-.532.112.563.158 1.08.446 1.512.84.45.463.853.97 1.204 1.512.42.616.882 1.288 1.288 2.03.74 1.212 1.065 2.633.924 4.046-.144.582-.317 1.157-.518 1.722zM106.68 276.206c.13-1.466-.38-2.916-1.4-3.976-.84-1.214-2.171-1.997-3.64-2.142 1.103.78 2.133 1.655 3.08 2.618.757 1.106 1.413 2.277 1.96 3.5z" transform="translate(247.8 301)"/>
            <path fill="#263238" d="M136.458 268.8c-.637.37-1.245.786-1.82 1.246-1.642 1.149-3.354 2.196-5.124 3.136-2.622 1.39-5.335 2.6-8.12 3.626-3.15 1.176-6.678 2.282-10.402 3.36-7.476 2.156-14.238 4.116-19.11 5.6l-5.768 1.764c-.718.183-1.417.436-2.086.756.73-.102 1.451-.26 2.156-.476l5.838-1.554c4.914-1.33 11.69-3.22 19.166-5.376 3.738-1.078 7.28-2.212 10.444-3.43 2.801-1.062 5.52-2.33 8.134-3.794 1.76-.997 3.444-2.12 5.04-3.36.595-.449 1.147-.95 1.652-1.498z" transform="translate(247.8 301)"/>
            <path fill="#263238" d="M137.998 269.402c-1.112-.502-2.3-.819-3.514-.938-2.947-.555-5.994-.183-8.722 1.064-1.487.751-2.769 1.851-3.738 3.206-.776 1.081-1.429 2.246-1.946 3.472-.536 1.097-.927 2.26-1.162 3.458.626-1.036 1.173-2.117 1.638-3.234 1.112-2.63 3.054-4.822 5.53-6.244 2.61-1.171 5.495-1.588 8.33-1.204 2.212.224 3.556.532 3.584.42zM211.568 185.92S224 190.4 224.07 204.4c.112 26.754-54.04 56.238-54.04 56.238L98 212.8l-4.508-1.834s97.23-36.512 118.076-25.046z" transform="translate(247.8 301)"/>
            <path fill="#455A64" d="M134.47 236.936c.661-.37 1.289-.796 1.876-1.274 1.176-.854 2.8-2.128 4.928-3.724 4.116-3.178 9.73-7.7 15.778-12.88 6.048-5.18 11.354-10.066 15.134-13.65 1.89-1.806 3.402-3.276 4.424-4.312.558-.512 1.073-1.07 1.54-1.666-.62.414-1.2.882-1.736 1.4l-4.592 4.13c-3.85 3.5-9.226 8.302-15.246 13.482s-11.592 9.8-15.624 13.034l-4.788 3.906c-.613.463-1.18.983-1.694 1.554zM191.226 195.916c-2.35-.377-4.756-.16-7 .63-2.3.544-4.423 1.662-6.174 3.248.112.182 2.8-1.484 6.384-2.548 3.584-1.064 6.79-1.106 6.79-1.33z" transform="translate(247.8 301)"/>
            <path fill="#455A64" d="M185.024 191.702c-1.732.587-3.233 1.71-4.284 3.206-1.238 1.344-2.022 3.044-2.24 4.858.21.07.994-2.17 2.8-4.396 1.806-2.226 3.836-3.486 3.724-3.668z" transform="translate(247.8 301)"/>
            <path fill="#263238" d="M215.6 276.402c0-.084-.854-.252-1.862.56-1.172 1.106-1.907 2.597-2.072 4.2-.235 1.571-.006 3.177.658 4.62.504 1.092 1.064 1.61 1.134 1.554.07-.056-.308-.672-.658-1.75-.47-1.386-.61-2.863-.406-4.312.154-1.444.745-2.807 1.694-3.906.7-.812 1.512-.84 1.512-.966z" transform="translate(247.8 301)"/>
            <path fill="#455A64" d="M194.992 142.212L169.33 207.27 58.814 209.076 56.77 203.098 95.494 201.698 114.114 143.976z" transform="translate(247.8 301)"/>
            <path fill="#EBEBEB" d="M143.388 170.38c1.726-.877 3.807-.652 5.306.574 1.279 1.206 1.695 3.069 1.05 4.704-.705 1.61-2.25 2.69-4.004 2.8-1.867.106-3.58-1.036-4.2-2.8-.603-1.977.152-4.117 1.862-5.278" transform="translate(247.8 301)"/>
            <path fill="#263238" d="M176.848 263.816s-101.822-66.78-105.98-68.166c-4.158-1.386-14.252-8.05-24.332-5.25-10.08 2.8-19.096 11.816-23.618 25.018-2.576 7.546-3.794 20.412-4.368 30.058-.785 11.555 2.956 22.961 10.43 31.808 3.315 4.124 7.712 7.246 12.698 9.016 1.064.322 2.156.616 3.29.854 19.344 3.968 39.14-4.343 49.854-20.93l2.366-3.612s66.612 24.472 67.648 24.122l12.012-22.918z" transform="translate(247.8 301)"/>
            <path fill="#455A64" d="M50.89 245.434l.546.252 1.666.658 6.468 2.492 23.982 9.03c10.192 3.808 22.4 8.316 36.092 13.3s28.868 10.444 45.08 15.932l.294.112.14-.28 7.966-15.19 4.046-7.756.154-.294-.28-.182L99.4 214.2l-23.352-14.7-6.328-3.962-1.652-1.008c-.378-.224-.588-.322-.588-.322l.546.378 1.61 1.078 6.272 4.06 23.198 14.91 77.546 49.49-.126-.476-4.06 7.742c-2.716 5.208-5.404 10.332-7.952 15.204l.448-.182c-16.212-5.474-31.388-10.906-45.094-15.848l-36.148-13.16-24.066-8.82-6.454-2.366-1.694-.602-.616-.182z" transform="translate(247.8 301)"/>
        </g>
    </g>
</svg>
