<svg xmlns="http://www.w3.org/2000/svg" xmlns:xlink="http://www.w3.org/1999/xlink" width="871" height="493" viewBox="0 0 871 493">
    <defs>
        <linearGradient id="prefix__a" x1="50%" x2="50%" y1="0%" y2="100%">
            <stop offset="0%" stop-color="#E0F2FF"/>
            <stop offset="100%" stop-color="#FFF"/>
        </linearGradient>
        <path id="prefix__b" d="M40.91 49.526c.064.049.126.102.188.16 2.122-.573 4.36-.865 6.668-.833l10.56.181c13.392.136 24.528 10.981 24.336 24.095v.817l-.288 25.274-.048 23.754c-.512 2.92-.784 4.5-.816 4.742-.048.409-.048.772-.096 1.18-.096 1.09-.24 2.088-.528 3.086-.096.408-2.936 2.178-3.08 2.586-39.526 3.037-59.481 4.132-59.865 3.285-.779-1.8.605-16.332 4.15-43.598-2.901-.194-5.559-.462-7.973-.805-2.688 0-6.864-.48-8.88-3.36-2.928-4.128.432-10.8 4.176-18.288 4.512-8.976 7.566-12.414 12.48-17.04 8.366-7.875 14.261-8.878 19.017-5.236z"/>
    </defs>
    <g fill="none" fill-rule="evenodd">
        <path fill="url(#prefix__a)" d="M133.494 493C44.498 437.602 0 368.974 0 287.116 0 164.33 157.282 0 401.228 0 645.175 0 877.1 154.25 870.878 287.116c-4.149 88.578-43.589 157.04-118.322 205.385L133.494 493z" opacity=".35"/>
        <g transform="translate(128 15)">
            <path fill="#D8DEED" fill-rule="nonzero" d="M28.416 476.972c-.48.916-1.776 1.253-2.784.675l-.192-.097c-1.008-.578-1.44-1.83-.912-2.794l15.024-27.658c9.072-16.769 18.144-33.489 27.264-50.257l12.768-23.514H41.616c-1.152 0-2.16-.964-2.16-2.12v-.241c0-1.156 1.008-2.12 2.256-2.12h131.712c1.152 0 2.16.964 2.16 2.12v.24c0 1.157-.96 2.121-2.16 2.121h-46.322l12.77 23.514c9.072 16.768 18.144 33.488 27.264 50.257l15.024 27.658c.528.963.096 2.216-.912 2.794l-.192.097c-1.008.53-2.304.24-2.784-.675l-56.208-103.645h-37.44L28.416 476.972zm96.72-247.235c3.976 0 7.2 3.223 7.2 7.2v117.618c0 3.977-3.224 7.2-7.2 7.2h-.008l-78.336-.083c-3.973-.004-7.192-3.226-7.192-7.2V236.937c0-3.977 3.224-7.2 7.2-7.2h78.336z"/>
            <g>
                <g fill-rule="nonzero">
                    <path fill="#FFCB3D" d="M143.232 178.013c1.152 0 2.16.831 2.16 1.828v.665c.096.997-.912 1.827-2.112 1.827H94.032c-1.152 0-2.16-.83-2.16-1.827v-.665c0-.997.96-1.828 2.16-1.828h49.2zm-36.604-35.66c.904-.574 2.118-.406 2.825.396l.107.132.097.14c.603.951.386 2.246-.529 2.932l-48.192 35.904-.157.108c-.377.233-.805.34-1.228.327l-.047-.003H32.856l-.155-.005c-1.13-.081-2.053-1.032-2.053-2.155l.006-.152c.082-1.106 1.055-2.008 2.202-2.008h25.956l47.676-35.52z" transform="translate(45.08 155.904) matrix(-1 0 0 1 158.92 138.787)"/>
                    <path fill="#474961" d="M100.776 152.207l31.416-4.256 11.15 30.063H94.073c-.095 0-.187.005-.278.014l3.705-23.381 3.275-2.44zm5.767-9.768l-.013.01-47.676 35.52H32.898c-.267 0-.524.049-.763.138-.097-.351-.175-.723-.19-1.054.047-.336.047-.72.143-1.104.24-.864.624-1.68 1.056-2.4 1.392-2.208 3.888-3.744 3.888-3.744 2.88-1.872 5.52-3.12 8.64-4.464 1.632-.72 3.936-1.68 6.624-2.736.864-2.784 1.728-5.568 2.592-8.4 1.632-5.424 3.264-10.8 4.848-16.176l28.896-20.976 17.911 25.386z" transform="translate(45.08 155.904) matrix(-1 0 0 1 158.92 138.787)"/>
                    <path fill="#474BFF" d="M33.047 5.53C91.941 1.051 124.602-.526 131.03.796c9.64 1.983 16.836 6.465 21.509 15.72 4.672 9.254 6.376 19.536 3.516 33.842-2.641 13.215-10.21 19.61-13.355 20.545-.051 25.423-.87 60.052-1.148 71.82-.048 1.61.144 5.963-2.736 8.708-.816.805-1.632 1.136-3.168 1.846-1.2.568-6.576 2.271-17.328 3.218-.672.047-1.392.094-2.112.047-11.088-.426-13.824-1.183-18.096-2.508l.065.02 10.875-8.102c.915-.686 1.132-1.98.53-2.932l-.098-.14-.107-.132c-.707-.802-1.921-.97-2.825-.397l-.098.067-8.336-11.815c-3.284 1.843-8.74 3.343-17.082 6.217-16.093 5.557-22.54 9.159-27.224 5.597-1.566-1.139-2.298-2.502-2.584-3.154-7.183-16.94-35.079-64.607-49.52-99.991-.018-.091-.075-.126-.094-.217C-3.02 27.65 2.63 17.116 17.957 9.416c6.13-2.384 11.063-3.584 15.099-3.873zm54.29 84.192l-.033-.402-.15-.528c-.343-.915-.31-.947.102-.099-.224-2.88-.428-5.998-.613-9.376l-.051-.954-.629-10.486-11.048-4.19c4.165 8.573 8.32 17.271 12.422 26.035z" transform="translate(45.08 155.904) matrix(-1 0 0 1 158.92 138.787)"/>
                    <path fill="#482D1F" d="M98.591 130.747c2.14-1.466 3.74-3.146 4.165-4.811.623-2.32.197-4.5-.764-6.65-5.258-11.75-8.9-19.544-10.933-23.394-.186-.351-.621-.486-.973-.3-.351.186-.486.621-.3.973 2.013 3.813 5.646 11.587 10.892 23.31.838 1.874 1.206 3.756.685 5.696-.316 1.238-1.712 2.705-3.586 3.988-.328.224-.411.673-.187 1 .225.329.673.413 1.001.188z" transform="translate(45.08 155.904) matrix(-1 0 0 1 158.92 138.787)"/>
                    <path fill="#444" d="M32.923 5.748c58.894-4.477 91.555-6.055 97.983-4.733 9.64 1.983 16.836 6.465 21.508 15.72 4.673 9.254 6.376 19.537 3.517 33.842-2.57 12.854-9.802 19.257-13.088 20.456l.002-1.664v-2.256c.005-9.21.053-17.106.144-22.272.096-4.307.816-27.969-8.496-32.89-.816-.427-1.632-.758-3.264-1.373-1.296-.473-8.016-2.934-16.656-2.556-5.616.237-14.064.616-21.024 6.531-9.6 8.187-9.36 21.107-9.264 23.19l1.826 30.455-10.996-4.17c-7.322-15.073-14.676-29.761-21.832-43.744l-1.2-2.34c-3.688-7.171-8.075-13.049-19.137-12.162z" opacity=".177" transform="translate(45.08 155.904) matrix(-1 0 0 1 158.92 138.787)"/>
                </g>
                <g transform="translate(45.08 155.904) translate(4.84)">
                    <use fill="#FFCB3D" fill-rule="nonzero" xlink:href="#prefix__b"/>
                    <path fill="#ED9474" fill-rule="nonzero" d="M67.99 5.546c1.76.248 3.488.394 5.302.262.238.033.435.013.626.04 1.74.05 11.006.773 15.003 8.25.335.723.67 1.447.91 2.158.617 1.827.73 3.778.308 5.75l-1.736 8.556c-.141.55-.282 1.101-.452 1.662l-.177.55.336-.062c1.21-.22 2.148-.302 2.817-.245 3.356.284 3.858 2.008 1.504 5.173L82.185 49.545c16.215 38.163 24.076 62.583 23.585 73.262l23.695 1.19c8.042 2.012 19.454 4.563 19.454 4.563-.288 6.816-8.555 5.98-12.762 5.066l-.17-.038-11.628 2.709-8.72 1.953c-1.69 1.259-4.704 4.892-13.583 4.892-10.964 0-39.42-1.165-85.365-3.495-8.834-1.087-13.643-3.03-14.426-5.828-1.176-4.197-5.598-6.614 3.645-32.658 1.065-2.996 2.126-5.812 3.157-8.43 1.79.629 3.749.778 5.246.778 7.234 1.028 16.651 1.382 28.252 1.062-1.372 3.44-2.381 6.266-2.997 7.386-1.523 3.248-2.301 4.985-2.333 5.21l-.001.016 44.612 10.815.195-18.265.048-.454.288-25.275v-.816c.139-9.501-5.416-17.811-13.58-21.72 2.39.547 4.702.692 6.939.435 3.859-.445 6.776-4.342 8.75-11.692l-.042.007c.234-.422.465-.856.693-1.3l.28-.561-.198.396c-3.588 7.07-8.05 11.36-11.369 11.088-2.1-.247-4.162-.778-6.122-1.682-.248-.17-.074-.028-3.204-1.835l-1.043 3.044c3.308 1.02 4.884 2.099 4.692 1.98-.991 1.297-1.61 2.068-2.706 2.898-6.483 5.03-15.094 3.903-21.962 1.634-.698-3.447-1.563-5.564-2.594-6.354-.344-.263-.692-.501-1.046-.714l.55-.105c3.307-.612 6.323-.919 9.047-1.01.81-1.026 1.547-1.986 2.21-2.882 2.439 1.006 5.11 2.036 8.012 3.092.284.104.594.115.886.032.72-.205 1.155-.922 1.023-1.644l-.032-.135-.563-1.974c-2.036-1.306-3.065-2.118-3.571-2.504-.13-.115-2.547-1.567-2.676-1.682l-.004-7.62c-.022-.535-4.521-7.064-3.42-9.375 1.279-2.19 5.093-5.85 7.351-5.34.843.215 5.362 2.171 5.523 1.372L66.369 6.72c.113-.806.812-1.288 1.62-1.175z"/>
                    <path fill="#8C2A00" fill-rule="nonzero" d="M68.683 51.467c2.39.548 4.702.693 6.938.436 3.86-.445 6.777-4.342 8.751-11.692l-.042.007c1.166-2.104 2.26-4.499 3.218-7.126.038-.106.075-.212.11-.317 1.374-.267 2.425-.37 3.155-.308 3.356.284 3.857 2.008 1.504 5.173L82.07 49.545c16.3 38.363 24.16 62.839 23.577 73.429l-1.55-.078c-3.883-.727-7.579-1.295-7.796-1.23l-14.57-3.531.196-18.402.048-.454.288-25.275v-.816c.139-9.501-5.416-17.811-13.58-21.72z" opacity=".2"/>
                    <path fill="#482D1F" fill-rule="nonzero" d="M84.669 39.983c-2.139 7.739-5.138 11.83-8.997 12.275-3.726.43-7.684-.478-11.874-2.723l-.45-.246 1.238-3.089c3.105 1.793 2.933 1.651 3.18 1.821 1.96.904 4.021 1.436 6.122 1.683 3.094.253 7.182-3.458 10.63-9.694l.15-.027zm4.243-25.824c-.068.136-3.28-.8-5.493-.578-9.542.986-14.496 16.576-18.633 15.316-.04-.01-.08-.023-.124-.04l.036-.02-1.256-5.897c-.315-1.207-.996-2.224-1.84-3.118-.694-.583-1.455-1.029-2.297-1.244-2.255-.51-4.974.9-6.252 3.096-1.23 2.202-1.17 4.877.24 6.917.824 1.251 2.029 2.216 3.435 2.748l.284.101.571.068 4.2 14.774c.217.765-.227 1.562-.992 1.78-.288.081-.594.071-.875-.029C41.208 41.397 32.1 35.561 32.59 30.526c.435-4.452 4.69-11.12 12.766-20.004.662-1.273 1.537-2.514 2.694-3.608 1.178-1.143 2.643-1.907 4.169-2.42 4.07-1.366 6.836-.008 14.373.857 1.52.214 3.781.338 6.673.454.238.033.435.012.625.039 1.738.05 10.565.29 15.02 8.315zm-.48 11.759c1.066.004 1.733.437 2.209.843.387.346.205.95-.29 1.026-.997.2-2.524.372-3.876-.012-2.282-.66-.072-1.9 1.958-1.857zm-7.842-1.102c.957.086 1.664.573 2.086 1.02.286.38.056.977-.432 1.005-.984.105-2.539.128-3.823-.391-2.167-.79.111-1.827 2.169-1.634zM87.398 29.704l.113.01c.326.095.727.345.729 1.024.112 1.615-1.811 3.575-2.248 2.544-.3-.624-.018-1.942.238-2.73.135-.61.758-.911 1.281-.838zm-7.85-1.054l.114.01c.326.094.727.344.728 1.023.113 1.615-1.763 3.582-2.248 2.544-.395-.637-.018-1.941.239-2.73.134-.61.758-.91 1.28-.837zM86.018 29.618c.072-.255-.077-.52-.332-.592-.255-.072-.52.077-.592.332l-.775 2.751-.012.059-.755 5.03c-.026.055-.077.086-.14.083-.878-.216-1.799-.122-2.665.223-.246.098-.366.378-.268.624.098.246.378.366.624.268.698-.278 1.426-.35 2.106-.176l.052.01c.555.078 1.054-.254 1.216-.767l.017-.073.758-5.05.766-2.722z"/>
                    <path fill="#482D1F" fill-rule="nonzero" d="M80.085 41.516c-.327-.095-1.155-.405-1.272-.955.013-.095-.062-.25 0-.339.175-.218 1.649-.01 1.649-.01 1.942.321 2.43.293 2.54.55.027.15 0 .34-.392.72-.542.749-2.016.202-2.525.034zM36.1 106.892c.325-.228.774-.15 1.003.175.229.325.15.774-.174 1.003l-7.95 5.597c-.324.229-.774.15-1.003-.174-.229-.325-.15-.775.175-1.003zm8.21-23.673c.376-.132.787.064.92.44.033.095.09.265.16.5.118.387.235.816.344 1.278.299 1.26.485 2.519.502 3.707.053 3.68-1.537 6.034-5.2 5.986-.397-.005-.715-.332-.71-.73.006-.397.332-.715.73-.71 2.704.036 3.783-1.563 3.74-4.525-.016-1.07-.187-2.23-.463-3.396-.102-.431-.212-.832-.32-1.192-.065-.213-.115-.364-.142-.44-.132-.374.065-.786.44-.918z"/>
                </g>
            </g>
            <path fill="#474961" fill-rule="nonzero" d="M247.321 222.837l.167.056c1.44.528 2.16 2.112 1.632 3.552l-24.048 64.704c-.057.156-.127.303-.207.441-.476.853-1.388 1.43-2.433 1.43h-68.976c-1.48 0-2.647-1.156-2.731-2.614l-.005-.17c0-1.535 1.248-2.783 2.736-2.783l67.092-.001 23.388-62.927c.508-1.385 1.992-2.104 3.385-1.688z"/>
            <g fill-rule="nonzero" transform="translate(256.8 24.48)">
                <rect width="179.04" height="170.744" fill="#F2F6FB" rx="2.88"/>
                <path fill="#E1E5F0" d="M148.577 64.856v103.94c0 1.065-.864 1.928-1.923 1.928H32.626c-1.062 0-1.924-.852-1.924-1.928V64.856h117.875zm-96.521 72.38H43.47c-1.008 0-1.83.777-1.906 1.765l-.006.15v13.453c0 1.008.777 1.834 1.762 1.91l.15.006h8.585c1.008 0 1.83-.778 1.905-1.766l.006-.15v-13.453c0-1.059-.856-1.916-1.911-1.916zm20.938 0h-8.585c-1.008 0-1.83.777-1.906 1.765l-.005.15v13.453c0 1.008.776 1.834 1.762 1.91l.15.006h8.584c1.008 0 1.83-.778 1.906-1.766l.005-.15v-13.453c0-1.059-.855-1.916-1.911-1.916zm20.938 0h-8.585c-1.008 0-1.83.777-1.905 1.765l-.006.15v13.453c0 1.008.776 1.834 1.762 1.91l.15.006h8.584c1.009 0 1.83-.778 1.906-1.766l.006-.15v-13.453c0-1.059-.856-1.916-1.912-1.916zm20.939 0h-8.585c-1.009 0-1.83.777-1.906 1.765l-.006.15v13.453c0 1.008.776 1.834 1.762 1.91l.15.006h8.585c1.008 0 1.83-.778 1.905-1.766l.006-.15v-13.453c0-1.059-.856-1.916-1.911-1.916zm20.938 0h-8.585c-1.008 0-1.83.777-1.906 1.765l-.006.15v13.453c0 1.008.777 1.834 1.763 1.91l.149.006h8.585c1.008 0 1.83-.778 1.906-1.766l.005-.15v-13.453c0-1.059-.855-1.916-1.911-1.916zm-83.753-29.168H43.47c-1.008 0-1.83.778-1.906 1.766l-.006.15v13.452c0 1.009.777 1.834 1.762 1.91l.15.006h8.585c1.008 0 1.83-.778 1.905-1.766l.006-.15v-13.453c0-1.058-.856-1.915-1.911-1.915zm20.938 0h-8.585c-1.008 0-1.83.778-1.906 1.766l-.005.15v13.452c0 1.009.776 1.834 1.762 1.91l.15.006h8.584c1.008 0 1.83-.778 1.906-1.766l.005-.15v-13.453c0-1.058-.855-1.915-1.911-1.915zm20.938 0h-8.585c-1.008 0-1.83.778-1.905 1.766l-.006.15v13.452c0 1.009.776 1.834 1.762 1.91l.15.006h8.584c1.009 0 1.83-.778 1.906-1.766l.006-.15v-13.453c0-1.058-.856-1.915-1.912-1.915zm41.877 0h-8.585c-1.008 0-1.83.778-1.906 1.766l-.006.15v13.452c0 1.009.777 1.834 1.763 1.91l.149.006h8.585c1.008 0 1.83-.778 1.906-1.766l.005-.15v-13.453c0-1.058-.855-1.915-1.911-1.915zM52.056 78.9H43.47c-1.008 0-1.83.778-1.906 1.766l-.006.15v13.453c0 1.008.777 1.833 1.762 1.91l.15.005h8.585c1.008 0 1.83-.778 1.905-1.766l.006-.15V80.817c0-1.06-.856-1.916-1.911-1.916zm20.938 0h-8.585c-1.008 0-1.83.778-1.906 1.766l-.005.15v13.453c0 1.008.776 1.833 1.762 1.91l.15.005h8.584c1.008 0 1.83-.778 1.906-1.766l.005-.15V80.817c0-1.06-.855-1.916-1.911-1.916zm20.938 0h-8.585c-1.008 0-1.83.778-1.905 1.766l-.006.15v13.453c0 1.008.776 1.833 1.762 1.91l.15.005h8.584c1.009 0 1.83-.778 1.906-1.766l.006-.15V80.817c0-1.06-.856-1.916-1.912-1.916zm20.939 0h-8.585c-1.009 0-1.83.778-1.906 1.766l-.006.15v13.453c0 1.008.776 1.833 1.762 1.91l.15.005h8.585c1.008 0 1.83-.778 1.905-1.766l.006-.15V80.817c0-1.06-.856-1.916-1.911-1.916zm20.938 0h-8.585c-1.008 0-1.83.778-1.906 1.766l-.006.15v13.453c0 1.008.777 1.833 1.763 1.91l.149.005h8.585c1.008 0 1.83-.778 1.906-1.766l.005-.15V80.817c0-1.06-.855-1.916-1.911-1.916zM169.446 0c5.298 0 9.594 4.302 9.594 9.595V20.64H0V9.595C0 4.295 4.293 0 9.594 0h159.852z"/>
                <rect width="12.408" height="15.806" x=".365" y=".245" fill="#FFCB3D" rx="1.92" transform="translate(104.009 98.576)"/>
                <g fill="#D8DEED">
                    <path d="M115.951.053c1.063 0 1.924.86 1.924 1.926v21.853H0V1.98C0 .915.864.053 1.923.053h114.028zM77.365 7.979H40.51c-.53 0-.96.43-.96.96v6.007c0 .53.43.96.96.96h36.855c.53 0 .96-.43.96-.96V8.939c0-.53-.43-.96-.96-.96z" transform="translate(30.702 38.626)"/>
                </g>
            </g>
            <g fill-rule="nonzero" transform="translate(97.44)">
                <rect width="187.68" height="141.12" fill="#F2F6FB" rx="2.88"/>
                <path fill="#E1E5F0" d="M80.329 58.044h27.022v10.048c0 1.063-.868 1.924-1.921 1.924H82.25c-1.061 0-1.921-.861-1.921-1.924V58.044zM37.018 111.01H64.04v10.048c0 1.062-.869 1.923-1.922 1.923h-23.18c-1.06 0-1.921-.86-1.921-1.923V111.01zM80.329 111.01h27.022v10.048c0 1.062-.868 1.923-1.921 1.923H82.25c-1.061 0-1.921-.86-1.921-1.923V111.01zM124.01 111.01h27.022v10.048c0 1.062-.868 1.923-1.921 1.923h-23.18c-1.061 0-1.922-.86-1.922-1.923V111.01z"/>
                <path fill="#474BFF" d="M62.119 88.634c1.061 0 1.922.857 1.922 1.914v23.001H37.018V90.548c0-1.057.868-1.914 1.922-1.914h23.179zm43.31 0c1.062 0 1.922.857 1.922 1.914v23.001H80.33V90.548c0-1.057.868-1.914 1.921-1.914h23.18zm43.682 0c1.061 0 1.921.857 1.921 1.914v23.001H124.01V90.548c0-1.057.869-1.914 1.922-1.914h23.18zm-43.681-52.72c1.061 0 1.921.86 1.921 1.928v22.627H80.33V37.842c0-1.065.868-1.927 1.921-1.927h23.18z"/>
                <g fill="#E1E5F0">
                    <path d="M88.117 8.106c1.322 0 2.393 1.071 2.393 2.408v8.476H87.92v-7.392c0-.49-.37-.891-.845-.946l-.111-.006H3.734c-.518 0-.956.425-.956.95v7.393H.187v-8.48c0-1.327 1.077-2.403 2.392-2.403h85.538z" transform="translate(49.047 69.89)"/>
                    <path d="M43.498 0.125H46.089V18.989H43.498z" transform="translate(49.047 69.89)"/>
                </g>
                <path fill="#E1E5F0" d="M0 7.981C0 3.573 3.582 0 7.974 0h171.732c4.404 0 7.974 3.582 7.974 7.981v7.981H0v-7.98z"/>
                <ellipse cx="10.92" cy="8.162" fill="#FF5645" rx="3.517" ry="3.446"/>
                <ellipse cx="22.396" cy="8.162" fill="#FFCB3D" rx="3.517" ry="3.446"/>
                <ellipse cx="34.241" cy="8.162" fill="#3ABF7C" rx="3.517" ry="3.446"/>
            </g>
            <path fill="#D8DEED" fill-rule="nonzero" d="M559.728 230.16c.144-1.296 1.248-2.256 2.448-2.112l.24.048c1.152.144 1.968 1.344 1.824 2.544l-17.136 138.048c-.012.082-.028.163-.047.242l-.001.094c0 1.152-1.008 2.112-2.16 2.112h-36.242l12.77 23.424c6.84 12.528 13.653 25.029 20.46 37.543l6.804 12.521 15.024 27.552c.528.96.096 2.208-.912 2.784l-.192.096c-1.008.576-2.304.24-2.784-.672l-56.208-103.248h-37.44l-56.208 103.248c-.48.912-1.776 1.2-2.784.672l-.192-.096c-1.008-.576-1.44-1.824-.912-2.784l15.024-27.552c9.12-16.704 18.192-33.36 27.264-50.064l12.768-23.424h-48.048c-1.148 0-2.076-.878-2.155-1.963l-.005-.149v-.24c0-1.152 1.008-2.112 2.16-2.112h129.73l4.046-32.736c2.088-16.704 4.149-33.435 6.224-50.173l2.08-16.739z"/>
            <g>
                <g fill-rule="nonzero">
                    <path fill="#A339FF" d="M215.841 140.238l.14.243c.705.828.49 2.12-.385 2.778l-47.768 35.795-28.133.085c-1.052-.018-1.915-.817-2.02-1.847l-.01-.156.005-.288c.064-1.05.865-1.914 1.895-1.977l.156-.004 26.342-.058 46.953-35.004c.34-.234.679-.372 1.063-.365.672-.037 1.34.263 1.762.798zM79.44 174.72c1.193 0 2.16.967 2.16 2.16s-.967 2.16-2.16 2.16H2.16c-1.193 0-2.16-.967-2.16-2.16s.967-2.16 2.16-2.16h77.28z" transform="translate(300.96 136.32) translate(0 160.32)"/>
                    <path fill="#474961" d="M196.747 115.2l17.15 24.461c-.311.033-.595.162-.88.358l-46.954 35.004-26.342.058-.156.004c-.157.01-.31.038-.454.083-.063-.305-.096-.628-.09-.966.053-.336.06-.72.163-1.102.616-2.293 2.474-4.23 3.546-5.17 2.184-1.355 4.414-2.564 6.737-3.628 4.566-2.184 7.548-3.17 10.175-4.187.39-.667.76-1.353 1.12-2.096.449-.953.9-2.001 1.352-3.193.958-2.624 1.629-5.3 2.109-8.029l2.335-7.304.915-2.865 29.274-21.428zM87.648 145.54l-7.307 29.59c-.275-.126-.58-.196-.901-.196H2.16c-.156 0-.308.017-.455.048.027-.28.044-.58.119-.883.576-2.304 2.448-4.224 3.504-5.184 2.208-1.392 4.416-2.592 6.72-3.696 8.544-4.128 11.472-4.08 17.088-7.824 2.304-1.584 4.464-3.36 6.432-5.328 1.276-1.275 4.472-3.368 9.589-6.276l.443-.252h42.048z" transform="translate(300.96 136.32) translate(0 160.32)"/>
                    <path fill="#3ABF7C" d="M117.648.32c21.6-.047 99.984-.191 101.328-.095 1.92.144 11.69-.225 17.52 10.272.048 0 .048.048.048.048.864 1.632 1.776 3.648 2.592 6.144 1.536 4.848 2.592 11.376 2.112 19.44-.288 3.216-.72 10.224-4.8 16.944-4.224 7.008-10.08 11.712-18.768 14.688-7.392 2.496-14.64 1.344-23.568.528h-.096c-.336-.048-1.008-.192-1.824-.336l-1.632-.288c-.912-.192-1.728-.336-2.112-.384h-.096c-8.256-1.488-15.6-2.832-22.944-4.224l-.336-.048c-.59-.117-1.18-.232-1.77-.346 1.235 1.714 2.466 3.44 3.694 5.177 3.168 4.464 6.24 8.928 9.216 13.344l12.048 17.04c1.824 2.544 1.008 6.096-1.824 7.872l-14.832 9.216-13.44 8.928-2.64 1.68c-2.64 1.632-5.844.864-7.872-1.248-5.367-5.589-15.438-18.724-28.08-33.024-.497-.563-.993-1.121-1.485-1.676-7.104 13.244-15.925 30.527-21.079 39.18-1.008 1.729-2.976 2.64-4.992 2.353l-38.112-5.664c-3.264-.48-5.184-3.984-3.792-7.008 7.056-15.504 16.032-39.936 23.664-56.352 1.968-4.224 3.84-8.4 5.568-12.336.275-.624.56-1.273.853-1.944-2.867-3.935-4.554-6.75-6.033-10.313-1.68-4.032-3.216-7.728-3.12-12.72.144-7.392 3.84-15.792 11.232-20.304 4.128-2.544 8.16-2.688 10.56-2.88 3.216-.096 6.912-.048 11.04-.048 2.157-.017 3.78-.028 5.126.007C113.585.328 117.309.318 117.626.32z" transform="translate(300.96 136.32) translate(0 160.32)"/>
                    <path fill="#444" d="M138.411 58.208c2.16.288 4.32.576 6.48.912 2.976.528 5.952 1.104 8.976 1.632 3.127.569 6.22 1.138 9.308 1.735 1.277 1.772 2.551 3.556 3.821 5.353 3.168 4.464 6.24 8.928 9.216 13.344l12.048 17.04c1.824 2.544 1.008 6.096-1.824 7.872l-14.832 9.216-13.44 8.928-2.64 1.68c-2.64 1.632-5.844.864-7.872-1.248-5.367-5.589-15.438-18.724-28.08-33.024-.564-.638-1.125-1.27-1.682-1.897 1.757-3.273 3.408-6.3 4.873-8.887l.009-.015c.12-.213 1.469-2.597 4.215-6.945 2.352-3.744 4.8-7.008 6.864-9.744 1.104-1.488 2.64-3.552 4.56-5.952zM103.876 1.936c1.794-.014 3.22-.024 4.423-.007-5.616 2.092-12.36 6.617-15.728 16.391-.045.09-7.486 18.008-12.56 29.626-2.754-3.802-4.4-6.572-5.847-10.058-1.68-4.032-3.216-7.728-3.12-12.72.144-7.392 3.84-15.792 11.232-20.304 4.128-2.544 8.16-2.688 10.56-2.88 3.216-.096 6.912-.048 11.04-.048z" opacity=".177" transform="translate(300.96 136.32) translate(0 160.32)"/>
                    <path fill="#482D1F" d="M129.264 48.225c2.62 3.487 3.43 4.466 4.273 5.29.777.76 1.548 1.693 4.127 5.126.24.318.69.382 1.009.143.317-.239.381-.69.143-1.008-2.62-3.487-3.43-4.466-4.273-5.29-.777-.76-1.548-1.693-4.127-5.126-.24-.318-.69-.382-1.009-.143-.317.239-.381.69-.143 1.008z" transform="translate(300.96 136.32) translate(0 160.32)"/>
                </g>
                <g>
                    <path fill="#A339FF" fill-rule="nonzero" d="M133.42 63.273l1.517 4.41.025-.005c8.664-2.477 17.582-.3 24.053 5.076l.345.23c.995.715 2.098 1.897 3.25 3.403.826 1.015 1.58 2.097 2.254 3.243 5.093 7.95 10.394 20.105 11.26 25.075l.039.237c0 1.42-.873 2.637-2.11 3.144l7.371 25.087c.45 1.484 2.416 7.475 2.896 16.591.32 6.077-2.72 9.735-9.117 10.973-7.509-.077-20.072.063-37.69.422-17.617.359-28.143-18.697-31.577-57.166-3.792-12.581 2.163-25.665 13.49-31.233l-1.437-4.173c-.173-.502.094-1.048.595-1.22l13.615-4.689c.502-.172 1.048.094 1.22.595z" transform="translate(300.96 136.32) translate(45.6)"/>
                    <path fill="#F2A98A" fill-rule="nonzero" d="M8.778 286.07l37.425 5.562.232.028c.204.02.407.028.608.024l-4.995 14.175H0l8.778-19.79zm133.747-21.711l8.622 11.161-29.274 21.428-9.341-12.7 13.26-8.808 14.831-9.216.204-.133c.705-.48 1.274-1.073 1.698-1.732zm-37.187-162.66c.15.69.328 1.38.535 2.068 4.406 12.11 8.502 22.377 12.288 30.8 10.004-1.451 19.448-2.555 26.27-4.086v-.063c-.025-.982-.702-8.669-2.03-23.059l30.181 1.047.06.002h.048c.774 4.934 1.041 11.001.801 18.202-.456 13.693 1.032 24.855-7.377 30.837-1.96 1.397-2.52 2.352-9.254 2.873-14.052 1.087-26.816.773-39.759.208 4.4.214 8.77.403 13.18.517-19.572.93-84.327 1.715-89.977 1.526-6.666-.223-10.034-2.403-11.384-5.611-1.083-2.576 5.483-5.95 6.484-6.47.2-.104 2.293-.655 6.278-1.654l.076-.018c-3.015-.494-5.676-1.88-5.5-5.252 0 0 25.553-3.93 32.682-4.933l-.164.113c1.699-.22 3.497-.245 5.45.123 1.082.187 2.305.56 3.672 1.12l-.193.047c6.78-1.638 14.376-3.47 22.787-5.495l4.538-30.43c.06-.657.15-1.426.288-2.287l.02-.125zm11.15-76.4l1.523 12.196c.112.76 1.577.084 4.395-2.03 3.491 1.837 5.606 3.505 6.343 5.004 1.22 2.43.727 5.088-.577 6.914-.073.099-.148.194-.224.286l4.042 15.09-13.447 4.63-.988-3.931-.596.307c-3.84 2.045-3.616 1.876-3.892 2.002-2.922 1.127-5.505 1.35-5.987 1.353-4.04.135-9.486-6.677-12.696-17.006-.28-.84-.419-1.693-.605-2.543l-1.28-8.505c-.296-1.899-.115-3.849.617-5.615.306-.756.618-1.464.992-2.035 4.225-7.104 13.42-6.864 15.064-6.844.19-.02.387.008.577-.012 1.86.239 3.448-.266 5.161-.494.764-.08 1.45.475 1.578 1.234z" transform="translate(300.96 136.32) translate(45.6)"/>
                    <path fill="#8C2A00" fill-rule="nonzero" d="M41.841 148.797c2.266.397 4.762.253 6.383.074 4.487.442 8.929.837 13.416 1.28l4.23 1.67c2.335 3.97 20.415 6.99 27.436 7.508 2.153.152 3.447.263 6.41.358 10.51.438 20.438 1.096 30.564 1.358-19.57.93-84.326 1.715-89.976 1.526-6.666-.223-10.034-2.403-11.384-5.611-1.083-2.576 5.483-5.95 6.484-6.47.2-.104 2.293-.655 6.278-1.654zm63.497-47.098c.15.69.328 1.38.535 2.068 4.435 12.19 8.556 22.511 12.362 30.965-4.344.63-8.793 1.325-13.178 2.15-10.528 1.979-18.588 3.517-24.182 4.614-1.133-.585-2.19-1.072-3.17-1.46 6.78-1.638 14.376-3.47 22.787-5.495l4.538-30.43c.06-.657.15-1.426.288-2.287l.02-.125z" opacity=".2" transform="translate(300.96 136.32) translate(45.6)"/>
                    <path fill="#482D1F" fill-rule="nonzero" d="M94.488 46.966c.573-.06 1.095.32 1.251.882.18.801.464 2.123.047 2.746-.53.925-2.24-1.116-2.067-2.679.073-.683.387-.909.769-.95zm8.467-1.18c.573-.06 1.095.32 1.251.882.229.797.465 2.124.047 2.747-.53.924-2.24-1.116-2.067-2.679.073-.683.387-.91.769-.95zM102.833 56.562c.324-.13 1.105-.502 1.193-1.042-.01-.096.023-.244-.035-.334-.22-.267-.826-.058-1.676.127-1.512.304-2.768.291-2.768.291s.482.915.746 1.129c.557.713 2.03.028 2.54-.17z" transform="translate(300.96 136.32) translate(45.6)"/>
                    <path fill="#DE6903" fill-rule="nonzero" d="M128.916 11.758c.452 4.3-1.604 8.366-5.135 11.105 2.065-.211 3.707-.165 5.636.547.703.264 2.364.91 3.924 2.435 4.449 4.214 4.285 10.457 4.284 12.291-.192 5.523-2.732 9.361-3.742 10.77-2.353 3.337-4.522 5.135-6.509 5.396-1.151-1.664-2.059-3.252-2.722-4.763.834-.373 2.001-1.063 2.874-2.33 1.257-1.82 1.755-4.43.544-6.765-1.105-2.249-3.682-3.812-5.954-3.38-1.279.23-2.206 1.052-2.339 1.163-1.147 1.075-1.841 2.456-2.082 2.987.004-.07.006-.141.009-.211-2.286-.629-6.062-2.114-9.366-5.532-1.133-1.136-2.032-2.344-2.725-3.43-1.85.774-4.892 1.673-8.543 1.38-1.295-.101-2.448-.64-3.48-.92l-.009-.014c-.063-.138.538-.975.527-1.07 2.83-4.882 8.123-6.478 11.516-6.984-3.732-1.994-6.351-5.413-6.782-9.514C98.094 7.8 104.22 1.322 112.524.449c8.305-.873 15.644 4.19 16.392 11.309zM95.524 43.96c-1.287.618-2.83.635-3.752.588-.487-.046-.738-.599-.44-.968.39-.427 1.056-.98 2.006-1.128 1.947-.3 4.216.62 2.186 1.508zm9.356-.983c-1.334.623-2.877.64-3.847.597-.487-.045-.738-.598-.391-.972.39-.427 1.055-.98 2.052-1.133 1.948-.301 4.221.666 2.186 1.508z" transform="translate(300.96 136.32) translate(45.6)"/>
                    <path fill="#482D1F" fill-rule="nonzero" d="M117.991 66.116L122.747 61.001 117.575 63.177z" transform="translate(300.96 136.32) translate(45.6) rotate(-6 120.161 63.559)"/>
                    <path fill="#482D1F" fill-rule="nonzero" d="M143.813 130.288c.15-.368.57-.545.939-.395l6.48 2.64c.368.15.545.57.395.939-.15.368-.57.545-.939.395l-6.48-2.64c-.368-.15-.545-.57-.395-.939zm-6.99-43.168c.397.009.713.338.704.735-.14 6.652 1.728 13.087 5.401 18.644.22.332.128.778-.203.998-.332.219-.779.128-.998-.204-3.835-5.801-5.786-12.524-5.64-19.468.01-.398.338-.713.736-.705z" transform="translate(300.96 136.32) translate(45.6)"/>
                    <path fill="#482D1F" fill-rule="nonzero" d="M98.263 47.985l-.004-.07v.035l.004.035zm-.04 5.099l.002.053c.055.521.463.967.991 1 .097-.001.15-.003.204-.005.508-.02.871-.054 2.172-.19.264-.028.455-.264.427-.528-.028-.264-.264-.455-.527-.427-1.278.134-1.63.166-2.11.185l-.15.005c.01 0-.035-.052-.049-.122l.036-5.133-.005-.07-.391-2.806c-.037-.263-.28-.446-.542-.41-.263.038-.446.28-.41.543l.388 2.771-.036 5.134z" transform="translate(300.96 136.32) translate(45.6)"/>
                </g>
            </g>
            <path fill="#474961" fill-rule="nonzero" d="M349.799 222.837l-.167.056c-1.44.528-2.16 2.112-1.632 3.552l24.048 64.704c.057.156.127.303.207.441.476.853 1.388 1.43 2.433 1.43h68.976c1.48 0 2.647-1.156 2.731-2.614l.005-.17c0-1.535-1.248-2.783-2.736-2.783l-67.092-.001-23.388-62.927c-.508-1.385-1.992-2.104-3.385-1.688z"/>
            <rect width="490.56" height="6.72" fill="#D8DEED" fill-rule="nonzero" rx="3.36" transform="translate(47.52 292.8)"/>
            <g fill-rule="nonzero">
                <path fill="#E1E5F0" d="M69.12 0l-5.366 30.081c3.319 3.378 5.366 8.01 5.366 13.119v35.52H31.68V64.38c-12.26-1.148-20.873-18.66-16.55-33.744 2.41-8.412 7.979-15.3 16.55-20.635V3.84C31.68 1.72 33.4 0 35.52 0h33.6zM31.68 18.78c-4.922 3.91-8.104 8.519-9.629 13.84-1.639 5.718-.908 12.08 1.73 17.203 2.09 4.061 5.037 6.668 7.899 7.279z" transform="translate(256.8 213.6)"/>
                <path fill="#F2F6FB" d="M94.56 46.08v23.28c0 5.434-4.406 9.84-9.84 9.84s-9.84-4.406-9.84-9.84V46.08h19.68zm-74.88 0v23.28c0 5.434-4.406 9.84-9.84 9.84S0 74.794 0 69.36V46.08h19.68z" transform="translate(256.8 213.6)"/>
                <path fill="#474BFF" d="M94.56 59.04v10.32c0 5.434-4.406 9.84-9.84 9.84s-9.84-4.406-9.84-9.84V59.04h19.68zM19.68 67.2v2.16c0 5.434-4.406 9.84-9.84 9.84S0 74.794 0 69.36V67.2h19.68zm49.44-24v36H31.68v-36h37.44z" transform="translate(256.8 213.6)"/>
            </g>
        </g>
    </g>
</svg>
