<svg xmlns="http://www.w3.org/2000/svg" width="871" height="636" viewBox="0 0 871 636">
    <defs>
        <linearGradient id="prefix__a" x1="50%" x2="50%" y1="0%" y2="100%">
            <stop offset="0%" stop-color="#E0F2FF"/>
            <stop offset="100%" stop-color="#FFF"/>
        </linearGradient>
    </defs>
    <g fill="none" fill-rule="evenodd">
        <path fill="url(#prefix__a)" d="M133.494 493C44.498 437.602 0 368.974 0 287.116 0 164.33 157.282 0 401.228 0 645.175 0 877.1 154.25 870.878 287.116c-4.149 88.578-43.589 157.04-118.322 205.385L133.494 493z" opacity=".35"/>
        <g transform="translate(81 177)">
            <g fill-rule="nonzero">
                <path fill="#F5F5F5" d="M0.36 279.2H153.96V350.03999999999996H0.36z" transform="translate(14 57)"/>
                <path fill="#E0E0E0" d="M150.31 346.71H3.88v-63.78h146.43v63.78zm-145.48-1h144.52v-61.82H4.83v61.82zM153.97 279.2H191.49V350.03999999999996H153.97z" transform="translate(14 57)"/>
                <path fill="#E0E0E0" d="M4.36 302.67h145.47c.091-.02.156-.102.156-.195 0-.093-.065-.174-.156-.195H4.36c-.091.02-.156.102-.156.195 0 .093.065.174.156.195z" transform="translate(14 57)"/>
                <path fill="#E0E0E0" d="M77.57 302.48c.407-6.41.423-12.838.05-19.25-.02-.091-.102-.156-.195-.156-.093 0-.174.065-.195.156-.39 6.41-.39 12.84 0 19.25.017.066.077.112.145.112.068 0 .128-.046.145-.112h.05zM116.73 292.85c0 1.105-.895 2-2 2s-2-.895-2-2 .895-2 2-2 2 .895 2 2zM40.38 292.85c0 1.105-.895 2-2 2s-2-.895-2-2 .895-2 2-2 2 .895 2 2zM79.08 314.82c0 1.105-.895 2-2 2s-2-.895-2-2 .895-2 2-2 2 .895 2 2zM18.73 350.05L10.82 394.52 15.27 394.52 29.85 350.05zM143.1 350.05L149.71 394.6 145.26 394.6 131.98 350.05zM172.79 350.05L180.29 394.6 175.84 394.6 161.67 350.05zM78.94 334.87c0 1.105-.895 2-2 2s-2-.895-2-2 .895-2 2-2 2 .895 2 2zM4.36 324.61h145.47c.091-.02.156-.102.156-.195 0-.093-.065-.174-.156-.195H4.36c-.091.02-.156.102-.156.195 0 .093.065.174.156.195z" transform="translate(14 57)"/>
                <path fill="#E0E0E0" d="M79.634 227.324H89.084V273.764H79.634z" transform="translate(14 57) rotate(89.7 84.36 250.544)"/>
                <path fill="#F5F5F5" d="M79.92 245.905H94.61V297.665H79.92z" transform="translate(14 57) rotate(89.7 87.265 271.785)"/>
                <path fill="#E0E0E0" d="M103.21 278.91c-.25-2.441-.334-4.897-.25-7.35-.084-2.45 0-4.902.25-7.34.258 2.438.344 4.89.26 7.34.084 2.453-.003 4.909-.26 7.35zM105.39 278.91c-.25-2.441-.334-4.897-.25-7.35-.084-2.45 0-4.902.25-7.34.25 2.438.334 4.89.25 7.34.084 2.453 0 4.909-.25 7.35zM69.21 278.91c-.25-2.441-.334-4.897-.25-7.35-.084-2.45 0-4.902.25-7.34.25 2.438.334 4.89.25 7.34.084 2.453 0 4.909-.25 7.35zM71.39 278.91c-.257-2.441-.344-4.897-.26-7.35-.084-2.45.002-4.902.26-7.34.245 2.438.328 4.89.25 7.34.078 2.453-.005 4.908-.25 7.35zM76.13 271.8c0-.14 5.22-.26 11.66-.26s11.67.12 11.67.26-5.22.25-11.67.25-11.66-.11-11.66-.25z" transform="translate(14 57)"/>
                <path fill="#EBEBEB" d="M95.93 227.722H105.38000000000001V291.60200000000003H95.93z" transform="translate(14 57) rotate(89.7 100.655 259.662)"/>
                <path fill="#E0E0E0" d="M123.48 263.06c-1.243.024-2.377-.706-2.87-1.847-.492-1.141-.245-2.467.625-3.355.87-.887 2.19-1.16 3.342-.69 1.15.47 1.903 1.589 1.903 2.832.016.806-.293 1.585-.857 2.16-.565.576-1.337.9-2.143.9z" transform="translate(14 57)"/>
                <path fill="#E0E0E0" d="M92.855 238.615H94.745V281.375H92.855z" transform="translate(14 57) rotate(90 93.8 259.995)"/>
                <path fill="#E0E0E0" d="M607.903 16.939H616.933V61.849H607.903z" transform="translate(14 57) rotate(-.31 612.418 39.394)"/>
                <path fill="#EBEBEB" d="M529.66 17.094H553.03V41.884H529.66z" transform="translate(14 57) rotate(-.31 541.345 29.489)"/>
                <path fill="#F5F5F5" d="M552.929 16.968H576.299V41.757999999999996H552.929z" transform="translate(14 57) rotate(-.31 564.614 29.363)"/>
                <path fill="#E0E0E0" d="M529.63 24c15.53.12 31.1 0 46.63-.22.138 0 .25-.112.25-.25s-.112-.25-.25-.25c-15.54-.08-31.087.017-46.64.29-.101.022-.173.111-.173.215s.072.193.173.215h.01z" transform="translate(14 57)"/>
                <path fill="#EBEBEB" d="M515.08 41.531H557.5400000000001V61.730999999999995H515.08z" transform="translate(14 57) rotate(-.31 536.31 51.631)"/>
                <path fill="#F5F5F5" d="M557.338 41.302H599.798V61.501999999999995H557.338z" transform="translate(14 57) rotate(-.31 578.568 51.402)"/>
                <path fill="#E0E0E0" d="M515.05 47.29c28.21.32 56.52 0 84.72-.42.138 0 .25-.112.25-.25s-.112-.25-.25-.25c-28.21-.14-56.52-.13-84.72.49-.101.022-.173.111-.173.215s.072.193.173.215zM499.17 61.87H663.69V69.11H499.17z" transform="translate(14 57)"/>
                <path fill="#E0E0E0" d="M526.1 65.35H532.78V90.05H526.1zM625.8 65.35H632.4799999999999V90.05H625.8z" transform="translate(14 57)"/>
                <path fill="#EBEBEB" d="M616.757 0.192H625.7869999999999V61.962H616.757z" transform="translate(14 57) rotate(-.31 621.272 31.077)"/>
                <path fill="#F5F5F5" d="M625.828 11.699H639.848V61.748999999999995H625.828z" transform="translate(14 57) rotate(-.31 632.838 36.724)"/>
                <path fill="#E0E0E0" d="M639.62 21.34c-4.661.319-9.339.319-14 0 4.661-.319 9.339-.319 14 0zM639.62 19.24c-4.661.319-9.339.319-14 0 4.661-.319 9.339-.319 14 0zM639.62 54.22c-4.661.319-9.339.319-14 0 4.661-.319 9.339-.319 14 0zM639.62 52.12c-4.661.319-9.339.319-14 0 4.661-.319 9.339-.319 14 0zM632.83 47.53c-.13 0-.24-5-.24-11.28 0-6.28.11-11.25.24-11.25s.25 5 .25 11.28c0 6.28-.08 11.25-.25 11.25z" transform="translate(14 57)"/>
                <path fill="#EBEBEB" d="M639.77 23.99H655.03V61.769999999999996H639.77z" transform="translate(14 57)"/>
                <path fill="#E0E0E0" d="M623.56 10.75c0 1.053-.635 2.001-1.607 2.403-.973.402-2.092.178-2.835-.568-.743-.746-.963-1.866-.557-2.837.405-.971 1.356-1.602 2.409-1.598.689 0 1.349.274 1.835.762s.758 1.15.755 1.838zM620.16 17.88H621.76V54.620000000000005H620.16z" transform="translate(14 57)"/>
                <path fill="#EBEBEB" d="M641.07 196.55s-10.41-5.62-20.29 19c-9.88 24.62-13.21 38.55-13.21 38.55s-2.73 5.21-6.4 2.29c-3.67-2.92-9.13-11.63-14.73-9.48-5.81 2.24-7.18 9.08-5.17 18.76 2.01 9.68 5.64 31.06 6 33 .36 1.94-.53 4.81-3.35 3.23-2.82-1.58-19.62-17.25-26.57-8.83-6.95 8.42 3.08 34.47 4.13 37.34 1.05 2.87.58 4.18-.76 5-1.34.82-6.48-4.94-11.44-9.2-4.96-4.26-11.46-8.32-15.07-3.13-3.61 5.19-3.1 25.37 18.91 56.25L564.21 393l17.5-2.55c37.12-7.74 51.18-22.21 52.06-28.47.88-6.26-6.65-7.69-13.19-7.93-6.54-.24-14.25.51-14.65-1-.4-1.51.15-2.81 2.86-4.21s27.77-13.71 28.38-24.61c.61-10.9-22.36-10.82-25.5-11.57-3.14-.75-1.79-3.46-.27-4.64 1.52-1.18 18.72-14.43 26.77-20.17 8.05-5.74 11.69-11.69 8.94-17.29-2.65-5.39-12.58-2.68-17.25-3-4.67-.32-3.15-6-3.15-6s7-12.52 16.47-37.28c9.47-24.76-2.33-27.72-2.33-27.72" transform="translate(14 57)"/>
                <path fill="#E0E0E0" d="M564.77 389.3c7-18.16 16.87-43.17 27.87-70.75s20.94-52.56 28-70.67l8.38-21.47c1-2.51 1.76-4.47 2.29-5.83l.61-1.52c.14-.33.22-.5.22-.5-.046.18-.103.357-.17.53-.13.37-.31.88-.55 1.53l-2.18 5.87c-1.9 5.1-4.7 12.46-8.2 21.54-7 18.16-16.88 43.16-27.88 70.74s-20.94 52.57-28 70.68" transform="translate(14 57)"/>
                <path fill="#E0E0E0" d="M593.57 259.39c.233.36.42.745.56 1.15.33.75.77 1.85 1.3 3.21 1.05 2.73 2.4 6.54 3.81 10.78 1.41 4.24 2.6 7.93 3.56 10.85.43 1.28.79 2.38 1.09 3.28.165.391.283.8.35 1.22-.239-.354-.43-.737-.57-1.14-.32-.75-.76-1.85-1.27-3.22-1-2.74-2.33-6.57-3.74-10.8-1.41-4.23-2.66-7.91-3.66-10.82-.43-1.29-.8-2.38-1.11-3.28-.148-.398-.255-.81-.32-1.23zM605.88 290.05c-.06-.15 7.67-3.29 17.26-7 9.59-3.71 17.43-6.59 17.49-6.44.06.15-7.67 3.29-17.27 7s-17.42 6.6-17.48 6.44zM587.08 331.65c.416-.123.847-.187 1.28-.19l3.52-.31c3-.27 7.07-.65 11.58-1.23S612 328.7 615 328.2l3.49-.58c.423-.099.856-.146 1.29-.14-.397.173-.813.298-1.24.37-.82.2-2 .47-3.46.77-2.92.61-7 1.33-11.52 1.9-4.52.57-8.64.9-11.63 1.05-1.49.08-2.7.12-3.53.12-.44.038-.883.024-1.32-.04zM569.84 306.36c.298.272.56.582.78.92.48.61 1.14 1.5 2 2.62 1.62 2.22 3.84 5.32 6.25 8.77 2.41 3.45 4.58 6.59 6.11 8.88.77 1.14 1.38 2.07 1.8 2.73.24.323.439.676.59 1.05-.298-.272-.56-.582-.78-.92-.48-.61-1.14-1.5-2-2.62-1.62-2.23-3.84-5.33-6.25-8.77-2.41-3.44-4.57-6.59-6.11-8.88-.77-1.14-1.38-2.08-1.8-2.73-.24-.323-.439-.676-.59-1.05zM548.58 341c.37.364.705.762 1 1.19l2.52 3.34c2.1 2.85 5 6.8 8.1 11.19 3.1 4.39 6 8.38 8 11.28l2.36 3.47c.31.407.574.846.79 1.31-.372-.358-.707-.754-1-1.18-.67-.88-1.51-2-2.52-3.35-2.1-2.84-5-6.79-8.1-11.18-3.1-4.39-6-8.38-8-11.29l-2.36-3.46c-.313-.408-.579-.851-.79-1.32zM571 371.84c.533-.143 1.08-.233 1.63-.27L577 371c3.75-.47 8.94-1.13 14.64-2 5.7-.87 10.85-1.81 14.57-2.51l4.41-.82c.533-.137 1.08-.214 1.63-.23-.515.201-1.047.355-1.59.46-1 .26-2.52.61-4.37 1-3.7.8-8.84 1.8-14.56 2.69-5.72.89-10.91 1.49-14.69 1.85-1.88.17-3.41.3-4.47.36-.521.057-1.046.07-1.57.04z" transform="translate(14 57)"/>
            </g>
            <path fill="#263238" fill-rule="nonzero" d="M669.28 451.42c0 .14-149.83.26-334.62.26S0 451.56 0 451.42s149.8-.26 334.66-.26 334.62.11 334.62.26z"/>
            <g transform="translate(93 53)">
                <rect width="504.96" height="356.24" x=".56" y="1.3" fill="#FAFAFA" fill-rule="nonzero" rx="8.69"/>
                <path fill="#E0E0E0" fill-rule="nonzero" d="M488.54 285.71h-89.95c-3.985-.006-7.214-3.235-7.22-7.22v-189c.006-3.985 3.235-7.214 7.22-7.22h89.95c3.985.006 7.214 3.235 7.22 7.22v189c-.006 3.985-3.235 7.214-7.22 7.22zM398.59 83.23c-3.433.006-6.214 2.787-6.22 6.22v189c.006 3.433 2.787 6.214 6.22 6.22h89.95c3.433-.006 6.214-2.787 6.22-6.22v-189c-.006-3.433-2.787-6.214-6.22-6.22h-89.95z"/>
                <rect width="46.9" height="356.16" x=".36" y="1.66" fill="#407BFF" fill-rule="nonzero" rx="9.65"/>
                <path fill="#FAFAFA" fill-rule="nonzero" d="M44.74 155.19H8.69c-.743 0-1.456.297-1.98.824-.524.528-.815 1.243-.81 1.986v28.43c0 .74.294 1.45.817 1.973.523.523 1.233.817 1.973.817h39c.791.001 1.546-.333 2.076-.92.53-.588.786-1.373.704-2.16L54 155l-9.26.19z"/>
                <path fill="#263238" fill-rule="nonzero" d="M442.38 34.89l.24-.14c.226-.142.423-.325.58-.54.556-.822.836-1.799.8-2.79.044-.713.171-1.417.38-2.1.243-.905.92-1.63 1.806-1.934.886-.305 1.866-.15 2.614.414.75.694 1.218 1.642 1.31 2.66.069.437.109.878.12 1.32-.03.392.018.786.14 1.16.298.69.761 1.294 1.35 1.76l.54.44h-.69c-2.76 0-5.15-.12-6.75-.18l-2.44-.07 2.71-.07c1.66 0 3.87-.16 6.48-.17l-.14.44c-.679-.521-1.21-1.21-1.54-2-.142-.425-.203-.873-.18-1.32-.012-.422-.049-.843-.11-1.26-.08-.887-.474-1.717-1.11-2.34-.664-.47-1.515-.585-2.28-.31-.689.283-1.211.865-1.42 1.58-.215.65-.36 1.32-.43 2-.04.588-.15 1.169-.33 1.73-.147.423-.374.814-.67 1.15-.188.218-.424.39-.69.5-.065.019-.135.019-.2 0l-.09.07z"/>
                <circle cx="449.6" cy="28.77" r="1.97" fill="#407BFF" fill-rule="nonzero"/>
                <path fill="#263238" d="M445.74 36.15h2.72c.013.384-.14.755-.419 1.02-.28.263-.658.395-1.041.36-.37.053-.743-.08-.995-.357-.252-.276-.352-.66-.265-1.023z"/>
                <rect width="20.92" height="20.92" x="462.43" y="22.13" fill="#407BFF" fill-rule="nonzero" rx="4.51"/>
                <path fill="#FAFAFA" fill-rule="nonzero" d="M30.78 77.78c-.093.001-.183-.035-.25-.1l-6.72-6.08-6.73 6.08c-.148.144-.382.144-.53 0-.071-.07-.112-.165-.112-.265s.04-.195.112-.265l7-6.32c.141-.13.359-.13.5 0l7 6.32c.144.148.144.382 0 .53-.072.07-.17.106-.27.1z"/>
                <path fill="#FAFAFA" fill-rule="nonzero" d="M28.87 83.11H18.74c-.206-.005-.37-.174-.37-.38v-7c-.024-.149.041-.298.167-.38.127-.082.29-.082.416 0s.191.231.167.38v6.67h9.38v-6.67c-.003-.1.035-.197.105-.268.07-.072.165-.112.265-.112.21 0 .38.17.38.38v7c0 .21-.17.38-.38.38zM30.1 126.78H16.9c-.21 0-.38-.17-.38-.38V118c.006-1.045.855-1.89 1.9-1.89h3.43c.872-.014 1.664.505 2 1.31l.59 1.4h4.17c1.045.006 1.89.855 1.89 1.9v5.7c-.002.102-.047.198-.122.266-.076.068-.177.102-.278.094zM17.27 126h12.45v-5.3c0-.631-.509-1.145-1.14-1.15h-4.42c-.152 0-.29-.09-.35-.23l-.68-1.63c-.215-.517-.72-.852-1.28-.85h-3.43c-.631 0-1.145.509-1.15 1.14V126zM19.77 281.44c-.212 0-.418-.066-.59-.19-.317-.227-.473-.617-.4-1l.55-3.51c.012-.08-.014-.162-.07-.22l-2.51-2.51c-.269-.265-.365-.66-.249-1.02.116-.36.425-.622.799-.68l3.51-.55c.078-.016.145-.068.18-.14l1.62-3.16c.171-.334.515-.544.89-.544s.719.21.89.544l1.61 3.16c.042.07.11.121.19.14l3.51.55c.37.06.675.323.79.68.11.352.018.736-.24 1l-2.51 2.51c-.061.055-.088.14-.07.22l.55 3.51c.038.363-.124.718-.424.926-.3.208-.69.237-1.016.074l-3.17-1.61c-.07-.03-.15-.03-.22 0l-3.17 1.61c-.131.105-.285.177-.45.21zM23.5 279c.156-.002.31.032.45.1l3.17 1.61c.078.054.182.054.26 0 .076-.055.114-.148.1-.24l-.56-3.51c-.046-.317.061-.636.29-.86l2.5-2.51c.07-.067.094-.17.06-.26-.027-.086-.1-.148-.19-.16l-3.51-.56c-.316-.053-.587-.254-.73-.54l-1.62-3.16c-.043-.083-.127-.136-.22-.14-.094.002-.179.056-.22.14L21.66 272c-.143.286-.414.487-.73.54l-3.51.56c-.091.013-.168.074-.2.16-.025.091-.003.189.06.26l2.51 2.51c.225.226.329.545.28.86l-.55 3.51c-.02.093.02.188.1.24.078.054.182.054.26 0l3.17-1.61c.146-.044.3-.054.45-.03zM30.91 228.73H16.08c-.202-.005-.365-.168-.37-.37V219c0-.206.164-.375.37-.38h14.83c.21 0 .38.17.38.38v9.35c0 .21-.17.38-.38.38zM16.46 228h14.08v-8.6H16.46v8.6z"/>
                <path fill="#FAFAFA" fill-rule="nonzero" d="M23.68 226.1c-.091.001-.18-.03-.25-.09l-7.59-6.72c-.144-.148-.144-.382 0-.53.07-.071.165-.112.265-.112s.195.04.265.112l7.34 6.49 7-6.49c.155-.103.362-.078.489.058.126.137.135.345.021.492L23.93 226c-.067.065-.157.101-.25.1z"/>
                <path fill="#FAFAFA" fill-rule="nonzero" d="M16.3 228.32c-.101.003-.2-.037-.27-.11-.138-.15-.138-.38 0-.53l4.51-4.51c.15-.138.38-.138.53 0 .071.07.112.165.112.265s-.04.195-.112.265l-4.51 4.51c-.067.073-.161.113-.26.11zM31 228.63c-.101.003-.2-.037-.27-.11l-4.82-4.82c-.146-.146-.146-.384 0-.53.146-.146.384-.146.53 0l4.82 4.82c.071.07.112.165.112.265s-.04.195-.112.265c-.066.074-.161.114-.26.11z"/>
                <path fill="#407BFF" fill-rule="nonzero" d="M22.71 168.75H24.900000000000002V170.94H22.71zM26.84 168.75H29.03V170.94H26.84zM18.58 168.75H20.77V170.94H18.58zM26.84 172.2H29.03V174.39H26.84zM22.71 172.2H24.900000000000002V174.39H22.71zM18.58 172.2H20.77V174.39H18.58z"/>
                <path fill="#407BFF" fill-rule="nonzero" d="M31.58 178.13H16c-.204 0-.37-.166-.37-.37V165c-.003-.1.035-.197.105-.268.07-.072.165-.112.265-.112h15.55c.21 0 .38.17.38.38v12.79c-.019.183-.166.326-.35.34zm-15.17-.75h14.8v-12h-14.8v12z"/>
                <path fill="#407BFF" fill-rule="nonzero" d="M20.24 166.88c-.1.003-.197-.035-.268-.105-.072-.07-.112-.165-.112-.265v-4.12c-.024-.149.041-.298.167-.38.127-.082.29-.082.416 0s.191.231.167.38v4.12c0 .098-.039.192-.108.262-.07.069-.164.108-.262.108zM27 166.88c-.204 0-.37-.166-.37-.37v-4.12c-.024-.149.041-.298.167-.38.127-.082.29-.082.416 0s.191.231.167.38v4.12c0 .1-.04.196-.112.265-.071.07-.168.108-.268.105zM133.91 302.58H138.89V319.28H133.91zM92.27 300.16H97.25V319.28000000000003H92.27zM102.68 296.17H107.66000000000001V319.27000000000004H102.68zM113.09 297.44H118.07000000000001V319.27H113.09zM123.5 290.05H128.48V319.27H123.5zM144.32 290.19H149.29999999999998V319.27H144.32zM154.73 299.74H159.70999999999998V319.27H154.73zM165.14 291.48H170.11999999999998V319.28000000000003H165.14zM175.54 285.21H180.51999999999998V319.27H175.54zM185.95 291.33H190.92999999999998V319.27H185.95z"/>
                <path fill="#E0E0E0" fill-rule="nonzero" d="M201.36 340H78.75c-5.59 0-10.124-4.53-10.13-10.12v-73.33c.006-5.59 4.54-10.12 10.13-10.12h122.61c5.587.006 10.114 4.533 10.12 10.12v73.31c.003 2.687-1.062 5.264-2.96 7.166-1.898 1.902-4.473 2.971-7.16 2.974zM78.75 247.43c-5.036.005-9.119 4.084-9.13 9.12v73.31c.011 5.036 4.094 9.115 9.13 9.12h122.61c5.035-.006 9.114-4.085 9.12-9.12v-73.31c-.006-5.035-4.085-9.114-9.12-9.12H78.75zM158.2 241H75.806c-3.757 0-6.803-8.132-6.807-18.17V91.17C69.004 81.132 72.05 73 75.807 73H158.2c3.755.01 6.797 8.14 6.801 18.17v131.624c.002 4.824-.714 9.452-1.989 12.866-1.275 3.414-3.006 5.335-4.812 5.34zM76.092 75c-3.361.01-6.086 7.36-6.093 16.437v132.126c.007 9.077 2.732 16.427 6.093 16.437h81.821c3.36-.01 6.082-7.363 6.086-16.437V91.437c-.004-9.074-2.726-16.427-6.086-16.437H76.093z"/>
                <path fill="#E0E0E0" fill-rule="nonzero" d="M148.54 270.8c0 .14-14.18.26-31.67.26-17.49 0-31.68-.12-31.68-.26s14.18-.26 31.68-.26 31.67.12 31.67.26z"/>
                <path d="M260.41 285.1c-1.279.74-2.455 1.645-3.5 2.69-1.05 1.04-1.955 2.218-2.69 3.5-.739 1.277-1.307 2.645-1.69 4.07-.76 2.874-.76 5.896 0 8.77.38 1.426.948 2.795 1.69 4.07 1.48 2.574 3.616 4.71 6.19 6.19 1.278.744 2.65 1.313 4.08 1.69 2.867.787 5.893.787 8.76 0 1.427-.375 2.797-.944 4.07-1.69 1.268-.727 2.435-1.618 3.47-2.65 1.042-1.048 1.943-2.228 2.68-3.51 2.257-3.882 2.869-8.505 1.7-12.84-.387-1.425-.958-2.793-1.7-4.07-.732-1.282-1.633-2.46-2.68-3.5-1.046-1.048-2.226-1.952-3.51-2.69-3.881-2.249-8.499-2.857-12.83-1.69-1.413.375-2.771.933-4.04 1.66z"/>
                <path fill="#407BFF" fill-rule="nonzero" d="M277.32 314.39c-1.273.746-2.643 1.315-4.07 1.69-2.867.787-5.893.787-8.76 0-1.43-.377-2.802-.946-4.08-1.69-2.574-1.48-4.71-3.616-6.19-6.19-.742-1.275-1.31-2.644-1.69-4.07-.76-2.874-.76-5.896 0-8.77.383-1.425.951-2.793 1.69-4.07.735-1.282 1.64-2.46 2.69-3.5 1.045-1.045 2.221-1.95 3.5-2.69 1.28-.74 2.652-1.309 4.08-1.69 1.428-.388 2.9-.583 4.38-.58v-3.33c-3.556-.008-7.05.924-10.13 2.7-1.528.894-2.94 1.976-4.2 3.22-1.246 1.256-2.325 2.668-3.21 4.2-.88 1.531-1.552 3.172-2 4.88-.907 3.435-.907 7.045 0 10.48.447 1.711 1.12 3.356 2 4.89 1.767 3.085 4.325 5.643 7.41 7.41 1.533.884 3.177 1.556 4.89 2 3.433.92 7.047.92 10.48 0 1.71-.44 3.353-1.113 4.88-2 1.52-.874 2.918-1.943 4.16-3.18l-2.36-2.36c-1.035 1.032-2.202 1.923-3.47 2.65z"/>
                <path fill="#E0E0E0" fill-rule="nonzero" d="M288.43 294.5c-.448-1.708-1.12-3.35-2-4.88-.889-1.532-1.97-2.944-3.22-4.2-1.259-1.246-2.67-2.328-4.2-3.22-1.531-.88-3.172-1.552-4.88-2-1.71-.45-3.471-.679-5.24-.68v3.33c4.504.011 8.82 1.81 12 5 1.047 1.04 1.948 2.218 2.68 3.5.742 1.277 1.313 2.645 1.7 4.07 1.172 4.335.56 8.96-1.7 12.84-.737 1.282-1.638 2.462-2.68 3.51l2.36 2.36c1.25-1.256 2.331-2.668 3.22-4.2 2.676-4.656 3.396-10.184 2-15.37l-.04-.06z"/>
                <path fill="#263238" fill-rule="nonzero" d="M265.62 301.89c-.003.512-.222 1-.602 1.342-.381.342-.888.509-1.398.458-1.55 0-2.4-1.08-2.4-2.92 0-1.84 1.09-3 2.67-3 .483-.02.962.086 1.39.31l-.24.49c-.345-.202-.74-.3-1.14-.28-1.26 0-2.07.81-2.07 2.4-.009.157-.009.313 0 .47.341-.658 1.04-1.051 1.78-1 .503-.069 1.01.081 1.395.412.384.331.608.81.615 1.318zm-.59 0c0-.77-.57-1.26-1.47-1.26-.371-.042-.743.072-1.028.315-.284.242-.455.592-.472.965 0 .64.53 1.25 1.54 1.25.355.033.707-.082.973-.32.265-.237.42-.574.427-.93l.03-.02zM270.28 301.92c0 1-.69 1.77-2.12 1.77-.767.027-1.515-.242-2.09-.75l.29-.48c.485.452 1.127.696 1.79.68 1 0 1.52-.49 1.52-1.2s-.46-1.21-1.95-1.21h-1.24l.3-2.93H270v.53h-2.7l-.2 1.86h.75c1.76 0 2.43.69 2.43 1.73zM270.88 299.34c0-.95.53-1.59 1.32-1.59s1.32.63 1.32 1.59c0 .96-.55 1.59-1.32 1.59s-1.32-.64-1.32-1.59zm2.22 0c0-.76-.36-1.21-.9-1.21s-.91.46-.91 1.21.36 1.21.91 1.21.9-.45.9-1.21zm2.63-1.54h.5l-4 5.84h-.49l3.99-5.84zm-1.27 4.29c0-.95.54-1.58 1.32-1.58s1.32.63 1.32 1.58c0 .95-.54 1.59-1.32 1.59s-1.32-.63-1.32-1.59zm2.22 0c0-.75-.35-1.21-.9-1.21s-.9.45-.9 1.21.35 1.21.9 1.21.9-.45.9-1.21z"/>
                <path fill="#E0E0E0" fill-rule="nonzero" d="M347.44 299.75c0 1.769-.229 3.53-.68 5.24-.446 1.709-1.119 3.35-2 4.88-.888 1.533-1.97 2.945-3.22 4.2-1.25 1.249-2.659 2.328-4.19 3.21-1.534.881-3.178 1.554-4.89 2-3.433.92-7.047.92-10.48 0-1.709-.446-3.35-1.119-4.88-2-3.085-1.767-5.643-4.325-7.41-7.41-.881-1.53-1.554-3.171-2-4.88-.331-1.258-.546-2.543-.64-3.84h3.36c.078 1.013.246 2.017.5 3 1.575 5.853 6.147 10.425 12 12 2.87.76 5.89.76 8.76 0 4.33-1.172 8.022-4.008 10.27-7.89 3.02-5.232 3.02-11.678 0-16.91-1.488-2.568-3.622-4.702-6.19-6.19-2.573-1.483-5.49-2.265-8.46-2.27v-3.39c1.769 0 3.53.228 5.24.68 1.712.446 3.356 1.119 4.89 2 1.531.886 2.94 1.968 4.19 3.22 1.25 1.252 2.332 2.66 3.22 4.19.881 1.534 1.554 3.178 2 4.89.431 1.723.636 3.494.61 5.27z"/>
                <path fill="#263238" fill-rule="nonzero" d="M322.62 297.46L322.62 297.89 320.18 303.31 319.53 303.31 321.93 298 318.93 298 318.93 299.09 318.33 299.09 318.33 297.46zM327.23 301.59c0 1-.7 1.77-2.13 1.77-.767.027-1.515-.242-2.09-.75l.29-.48c.49.451 1.135.695 1.8.68 1 0 1.52-.49 1.52-1.2s-.47-1.22-2-1.22h-1.24l.3-2.93h3.2v.54h-2.67l-.2 1.86h.75c1.8 0 2.47.69 2.47 1.73zM327.82 299c0-.95.53-1.59 1.32-1.59s1.32.63 1.32 1.59c0 .96-.54 1.58-1.32 1.58s-1.32-.58-1.32-1.58zm2.22 0c0-.76-.36-1.21-.9-1.21s-.9.46-.9 1.21.35 1.21.9 1.21.86-.44.86-1.21h.04zm2.64-1.55h.49l-4 5.85h-.49l4-5.85zm-1.28 4.3c0-.95.54-1.58 1.32-1.58s1.32.63 1.32 1.58c0 .95-.54 1.59-1.32 1.59s-1.32-.63-1.32-1.58v-.01zm2.22 0c0-.75-.35-1.21-.9-1.21s-.9.45-.9 1.21.36 1.21.9 1.21.9-.45.9-1.2v-.01z"/>
                <path fill="#407BFF" fill-rule="nonzero" d="M344.11 299.75c-.002 2.967-.785 5.881-2.27 8.45-3.013 5.243-8.603 8.471-14.65 8.46-1.478 0-2.95-.192-4.38-.57-5.853-1.575-10.425-6.147-12-12-.254-.983-.422-1.987-.5-3 0-.46-.06-.93-.06-1.4 0-1.479.191-2.95.57-4.38.383-1.43.955-2.801 1.7-4.08.737-1.278 1.638-2.455 2.68-3.5 3.18-3.19 7.496-4.989 12-5v-3.34c-1.77-.001-3.531.23-5.24.69-1.709.446-3.35 1.119-4.88 2-1.535.885-2.947 1.968-4.2 3.22-2.506 2.516-4.312 5.642-5.24 9.07-.46 1.712-.691 3.477-.69 5.25 0 .47 0 .94.05 1.4.094 1.297.309 2.582.64 3.84.446 1.709 1.119 3.35 2 4.88 1.767 3.085 4.325 5.643 7.41 7.41 1.53.881 3.171 1.554 4.88 2 3.433.92 7.047.92 10.48 0 1.712-.446 3.356-1.119 4.89-2 1.531-.882 2.94-1.961 4.19-3.21 1.25-1.255 2.332-2.667 3.22-4.2.881-1.53 1.554-3.171 2-4.88.451-1.71.68-3.471.68-5.24l-3.28.13z"/>
                <path fill="#E0E0E0" fill-rule="nonzero" d="M363.4 338.69H232.67c-4.856 0-8.794-3.934-8.8-8.79v-73.39c.006-4.858 3.942-8.794 8.8-8.8H363.4c4.856.006 8.79 3.944 8.79 8.8v73.39c-.006 4.852-3.938 8.784-8.79 8.79zm-130.73-90c-4.306.006-7.794 3.494-7.8 7.8v73.41c.006 4.304 3.496 7.79 7.8 7.79H363.4c4.3-.006 7.784-3.49 7.79-7.79v-73.39c-.005-4.302-3.488-7.789-7.79-7.8l-130.73-.02z"/>
                <path fill="#E0E0E0" fill-rule="nonzero" d="M299.4 268.33c0 .14-13.67.26-30.53.26s-30.53-.12-30.53-.26 13.67-.26 30.53-.26 30.53.12 30.53.26zM407.43 168.2c-1.149 0-2.08-.931-2.08-2.08v-39.06c0-1.149.931-2.08 2.08-2.08s2.08.931 2.08 2.08v39.06c0 1.149-.931 2.08-2.08 2.08z"/>
                <path fill="#407BFF" fill-rule="nonzero" d="M407.43 168.38c-1.149 0-2.08-.931-2.08-2.08v-25.18c0-1.149.931-2.08 2.08-2.08s2.08.931 2.08 2.08v25.18c0 1.149-.931 2.08-2.08 2.08z"/>
                <path fill="#E0E0E0" fill-rule="nonzero" d="M415.75 168.2c-1.149 0-2.08-.931-2.08-2.08v-39.06c0-1.149.931-2.08 2.08-2.08s2.08.931 2.08 2.08v39.06c0 1.149-.931 2.08-2.08 2.08z"/>
                <path fill="#407BFF" fill-rule="nonzero" d="M415.75 168.38c-1.149 0-2.08-.931-2.08-2.08v-33.11c0-1.149.931-2.08 2.08-2.08s2.08.931 2.08 2.08v33.11c0 1.149-.931 2.08-2.08 2.08z"/>
                <path fill="#E0E0E0" fill-rule="nonzero" d="M424.07 168.2c-.552 0-1.08-.22-1.47-.61-.39-.39-.61-.918-.61-1.47v-39.06c0-.552.22-1.08.61-1.47.39-.39.918-.61 1.47-.61.552 0 1.08.22 1.47.61.39.39.61.918.61 1.47v39.06c0 .552-.22 1.08-.61 1.47-.39.39-.918.61-1.47.61z"/>
                <path fill="#407BFF" fill-rule="nonzero" d="M424.07 168.38c-1.145-.006-2.07-.935-2.07-2.08v-19.23c0-.552.22-1.08.61-1.47.39-.39.918-.61 1.47-.61.552 0 1.08.22 1.47.61.39.39.61.918.61 1.47v19.23c0 .553-.22 1.084-.613 1.474-.392.39-.924.609-1.477.606z"/>
                <path fill="#E0E0E0" fill-rule="nonzero" d="M432.39 168.2c-1.149 0-2.08-.931-2.08-2.08v-39.06c0-1.149.931-2.08 2.08-2.08 1.15 0 2.084.93 2.09 2.08v39.06c-.006 1.15-.94 2.08-2.09 2.08z"/>
                <path fill="#407BFF" fill-rule="nonzero" d="M432.39 168.38c-1.149 0-2.08-.931-2.08-2.08v-33.11c0-1.149.931-2.08 2.08-2.08 1.15 0 2.084.93 2.09 2.08v33.11c-.006 1.15-.94 2.08-2.09 2.08z"/>
                <path fill="#E0E0E0" fill-rule="nonzero" d="M440.72 168.2c-1.149 0-2.08-.931-2.08-2.08v-39.06c0-1.149.931-2.08 2.08-2.08.552 0 1.08.22 1.47.61.39.39.61.918.61 1.47v39.06c0 1.149-.931 2.08-2.08 2.08z"/>
                <path fill="#407BFF" fill-rule="nonzero" d="M440.72 168.38c-1.149 0-2.08-.931-2.08-2.08v-26.76c0-1.15.93-2.084 2.08-2.09 1.15.006 2.08.94 2.08 2.09v26.76c0 1.149-.931 2.08-2.08 2.08z"/>
                <path fill="#E0E0E0" fill-rule="nonzero" d="M449 168.2c-1.149 0-2.08-.931-2.08-2.08v-39.06c.011-1.14.939-2.06 2.08-2.06 1.149 0 2.08.931 2.08 2.08v39.06c-.011 1.14-.939 2.06-2.08 2.06z"/>
                <path fill="#407BFF" fill-rule="nonzero" d="M449 168.2c-1.097.045-2.026-.803-2.08-1.9v-19.23c-.038-.58.162-1.149.555-1.576.394-.427.945-.674 1.525-.684 1.149 0 2.08.931 2.08 2.08v19.23c0 .552-.22 1.08-.61 1.47-.39.39-.918.61-1.47.61z"/>
                <path fill="#E0E0E0" fill-rule="nonzero" d="M457.36 168.2c-1.149 0-2.08-.931-2.08-2.08v-39.06c0-1.149.931-2.08 2.08-2.08.552 0 1.08.22 1.47.61.39.39.61.918.61 1.47v39.06c0 1.149-.931 2.08-2.08 2.08z"/>
                <path fill="#407BFF" fill-rule="nonzero" d="M457.36 168.38c-1.149 0-2.08-.931-2.08-2.08v-35.09c0-1.149.931-2.08 2.08-2.08.552 0 1.08.22 1.47.61.39.39.61.918.61 1.47v35.09c0 1.149-.931 2.08-2.08 2.08z"/>
                <path fill="#E0E0E0" fill-rule="nonzero" d="M465.68 168.2c-1.149 0-2.08-.931-2.08-2.08v-39.06c0-1.149.931-2.08 2.08-2.08 1.15 0 2.084.93 2.09 2.08v39.06c-.006 1.15-.94 2.08-2.09 2.08z"/>
                <path fill="#407BFF" fill-rule="nonzero" d="M465.68 168.38c-1.149 0-2.08-.931-2.08-2.08V151c0-1.15.93-2.084 2.08-2.09 1.152.005 2.085.938 2.09 2.09v15.3c-.006 1.15-.94 2.08-2.09 2.08z"/>
                <path fill="#E0E0E0" fill-rule="nonzero" d="M474 168.2c-1.15 0-2.084-.93-2.09-2.08v-39.06c.016-1.143.947-2.06 2.09-2.06.552 0 1.08.22 1.47.61.39.39.61.918.61 1.47v39.06c-.011 1.14-.939 2.06-2.08 2.06z"/>
                <path fill="#407BFF" fill-rule="nonzero" d="M474 168.2c-1.09.02-2.006-.814-2.09-1.9V161c-.036-.581.167-1.152.562-1.58.394-.428.946-.677 1.528-.69 1.15.006 2.08.94 2.08 2.09v5.35c-.027 1.13-.95 2.03-2.08 2.03z"/>
                <path fill="#E0E0E0" fill-rule="nonzero" d="M482.33 168.2c-1.149 0-2.08-.931-2.08-2.08v-39.06c0-1.149.931-2.08 2.08-2.08s2.08.931 2.08 2.08v39.06c0 1.149-.931 2.08-2.08 2.08z"/>
                <path fill="#407BFF" fill-rule="nonzero" d="M482.33 168.2c-1.097.045-2.026-.803-2.08-1.9v-19.23c-.038-.58.162-1.149.555-1.576.394-.427.945-.674 1.525-.684 1.149 0 2.08.931 2.08 2.08v19.23c0 1.149-.931 2.08-2.08 2.08z"/>
                <path fill="#E0E0E0" fill-rule="nonzero" d="M465.59 105.46c0 .14-13.54.26-30.25.26s-30.27-.12-30.27-.26 13.55-.26 30.27-.26 30.25.11 30.25.26zM484.41 196.83c0 .15-17.76.26-39.67.26s-39.67-.11-39.67-.26c0-.15 17.76-.26 39.67-.26s39.67.12 39.67.26zM484.41 210.46c0 .15-17.76.26-39.67.26s-39.67-.11-39.67-.26c0-.15 17.76-.26 39.67-.26s39.67.12 39.67.26zM484.41 224.09c0 .15-17.76.26-39.67.26s-39.67-.11-39.67-.26c0-.15 17.76-.26 39.67-.26s39.67.17 39.67.26zM484.41 237.73c0 .14-17.76.26-39.67.26s-39.67-.12-39.67-.26 17.76-.27 39.67-.27 39.67.12 39.67.27zM484.41 251.36c0 .14-17.76.26-39.67.26s-39.67-.12-39.67-.26 17.76-.26 39.67-.26 39.67.11 39.67.26z"/>
                <path fill="#E8505B" fill-rule="nonzero" d="M481.27 297.74c7.374.011 13.349 5.986 13.36 13.36v11.13c-.011 7.374-5.986 13.349-13.36 13.36H406.6c-7.376-.006-13.354-5.984-13.36-13.36V311.1c.011-7.374 5.986-13.349 13.36-13.36h74.67m0-1H406.6c-7.93 0-14.36 6.43-14.36 14.36v11.13c0 7.93 6.43 14.36 14.36 14.36h74.67c7.93 0 14.36-6.43 14.36-14.36V311.1c0-7.93-6.43-14.36-14.36-14.36z"/>
                <path fill="#E8505B" fill-rule="nonzero" d="M475 317.79c0 .14-13.91.26-31.07.26s-31.07-.12-31.07-.26 13.91-.26 31.07-.26 31.07.11 31.07.26z"/>
                <path fill="#407BFF" fill-rule="nonzero" d="M183.05 45.58c7.7-6 14.5-13.45 23.34-17.65 15.19-7.22 33.12-3.56 49.34.91 16.22 4.47 33.35 9.65 49.53 5 15-4.26 26.93-17.44 30.27-32.59H57.17c3.7 30.77 26.9 56.15 57.74 61.48.64.12 1.29.22 1.93.31 23.524 3.387 47.416-2.913 66.21-17.46zM372 29.84c7.84 7.12 19.27 9 29.79 7.84 7.07-.82 14.26-3.08 19.37-8 5.8-5.62 8.18-14.34 6.62-22.27-.418-2.097-1.09-4.135-2-6.07h-58c-6.42 8.34-3.65 21.4 4.22 28.5z"/>
                <g fill="#FFF" fill-rule="nonzero" opacity=".8">
                    <path d="M126.05 44.58c7.7-6 14.5-13.45 23.34-17.65 15.19-7.22 33.12-3.56 49.34.91 16.22 4.47 33.35 9.65 49.53 5 15-4.26 26.93-17.44 30.27-32.59H.17c3.7 30.77 26.9 56.15 57.74 61.48.64.12 1.29.22 1.93.31 23.524 3.387 47.416-2.913 66.21-17.46zM315 28.84c7.84 7.12 19.27 9 29.79 7.84 7.07-.82 14.26-3.08 19.37-8 5.8-5.62 8.18-14.34 6.62-22.27-.418-2.097-1.09-4.135-2-6.07h-58c-6.42 8.34-3.65 21.4 4.22 28.5z" transform="translate(57 1)"/>
                </g>
                <path d="M429.79 28.57c.344.05.68.145 1 .28l.76-.64 1.3 1-.41.91c.224.268.413.563.56.88l1 .09.22 1.63-.93.34c-.047.343-.138.68-.27 1l.64.76-1 1.3-.9-.41c-.284.222-.597.404-.93.54l-.08 1-1.63.22-.35-.93c-.344-.046-.68-.137-1-.27L427 37l-1.31-1 .41-.9c-.218-.286-.4-.598-.54-.93l-1-.08-.22-1.63.92-.35c.049-.344.143-.68.28-1l-.64-.76 1-1.31.91.41c.281-.22.59-.402.92-.54l.09-1 1.63-.23.34.93v-.04zm-.48 2.25c-.746.021-1.397.51-1.625 1.22-.228.71.016 1.488.61 1.94.593.451 1.407.48 2.03.071.624-.409.923-1.167.745-1.891-.198-.806-.93-1.364-1.76-1.34z"/>
                <path fill="#263238" fill-rule="nonzero" d="M429.31 30.82s.15-.09.45-.06c.43.051.826.262 1.11.59.444.506.592 1.208.39 1.85-.253.806-.985 1.367-1.83 1.4-.85.027-1.624-.486-1.93-1.28-.226-.63-.12-1.333.28-1.87.263-.345.644-.58 1.07-.66.29-.05.46 0 .46 0s-.71.07-1.23.84c-.282.443-.33.995-.13 1.48.249.582.827.954 1.46.94.624-.025 1.174-.418 1.4-1 .168-.498.082-1.047-.23-1.47-.335-.378-.778-.644-1.27-.76z"/>
                <path fill="#263238" fill-rule="nonzero" d="M429.79 28.57c-.173-.284-.314-.585-.42-.9l.09.06-1.62.27.11-.12c0 .3 0 .64-.07 1V29h-.09c-.316.14-.612.322-.88.54l-.08.06h-.09l-.91-.4.22-.06-1 1.32v-.25l.64.75.09.1v.12c-.13.32-.214.657-.25 1v.13l-.13.05-.92.36.15-.25c.07.51.15 1.06.23 1.62l-.22-.21 1 .09h.14l.06.14c.132.308.303.597.51.86l.1.12-.07.14-.41.91-.07-.31 1.3 1h-.32l.76-.64.12-.1.15.06c.32.13.657.214 1 .25l.22.17V36.74l.09.24.17.46-.27-.17 1.62-.22-.22.24c0-.34.06-.66.09-1v-.16h.15c.31-.129.599-.3.86-.51l.13-.09.13.06.9.42-.3.07c.35-.44.68-.87 1-1.3V35l-.63-.76-.09-.11V34c.134-.32.225-.656.27-1v-.13l.12-.05.94-.34-.14.23c-.067-.567-.137-1.107-.21-1.62l.18.17-1-.1h-.12v-.11c-.13-.316-.298-.615-.5-.89l-.07-.08.05-.09.42-.9v.19l-1.28-1h.14l-.78.61c-.65-.28-1-.31-1-.35.089-.02.181-.02.27 0 .274.034.543.1.8.2h-.09l.74-.66.07-.06.08.06 1.33 1 .1.07-.06.12-.39.91V30c.238.304.43.64.57 1l-.15-.11 1 .07h.15v.16c.07.52.15 1.06.24 1.63v.17l-.16.06-.93.35.15-.18c-.048.378-.146.748-.29 1.1v-.24l.64.75.12.15-.11.15-1 1.31-.12.16-.18-.08-.91-.41h.26c-.305.239-.641.434-1 .58l.16-.22-.09 1v.21h-.21l-1.62.22h-.21l-.07-.2-.18-.46-.08-.23v-.18l.21.17c-.378-.047-.748-.144-1.1-.29h.27l-.77.63-.16.14-.16-.13-1.3-1-.17-.12.09-.18.41-.91v.26c-.234-.305-.422-.642-.56-1l.2.15-1-.09h-.19v-.19c-.08-.57-.15-1.12-.21-1.63v-.18l.17-.07.94-.34-.15.18c.049-.372.15-.736.3-1.08v.22l-.63-.77-.1-.13.1-.13 1-1.29.09-.12.13.06.9.43h-.18c.308-.227.644-.411 1-.55l-.09.13c0-.35.07-.68.11-1v-.11h.1l1.63-.17h.07v.07c.1.276.177.56.23.85z"/>
                <path fill="#263238" fill-rule="nonzero" d="M496.83 357.54h.28c.19 0 .47 0 .83-.07 4.2-.555 7.38-4.067 7.52-8.3v-4c0-11.38 0-28.15-.05-49.75 0-43.21 0-105.72-.08-183V51.8 11.3c.095-1.35-.06-2.707-.46-4-.89-2.626-3.014-4.648-5.68-5.41-1.349-.317-2.737-.431-4.12-.34H9.32c-3.692-.007-6.963 2.38-8.08 5.9-.56 1.69-.35 3.54-.39 5.38V347.65c-.031.778 0 1.557.09 2.33.546 3.921 3.744 6.936 7.69 7.25 1.52.07 3.11 0 4.65 0h233.51l250 .19-250 .18H8.54c-1.61-.126-3.156-.69-4.47-1.63-1.312-.944-2.348-2.221-3-3.7-.322-.743-.538-1.527-.64-2.33-.093-.793-.126-1.592-.1-2.39v-19V10.09c0-.945.139-1.885.41-2.79C1.32 5.483 2.46 3.896 4 2.77 5.528 1.629 7.383 1.009 9.29 1h485.75c1.423-.09 2.852.032 4.24.36 2.816.791 5.06 2.92 6 5.69.421 1.347.584 2.762.48 4.17v101.13c0 77.25-.06 139.76-.08 183v53.75c-.045 1.173-.323 2.326-.82 3.39-.779 1.656-2.06 3.024-3.66 3.91-.968.534-2.031.874-3.13 1-.41.075-.824.121-1.24.14z"/>
                <path fill="#FFF" fill-rule="nonzero" d="M23.81 41.2c-4.722 0-8.55-3.828-8.55-8.55 0-4.722 3.828-8.55 8.55-8.55 4.722 0 8.55 3.828 8.55 8.55 0 2.268-.9 4.442-2.504 6.046-1.604 1.603-3.778 2.504-6.046 2.504z"/>
            </g>
            <rect width="12.408" height="15.806" x="170" y="137" fill="#BEBEBE" fill-rule="nonzero" rx="1.92"/>
            <rect width="12.408" height="15.806" x="170" y="159" fill="#BEBEBE" fill-rule="nonzero" rx="1.92"/>
            <rect width="12.408" height="15.806" x="170" y="181" fill="#BEBEBE" fill-rule="nonzero" rx="1.92"/>
            <rect width="12.408" height="15.806" x="170" y="203" fill="#BEBEBE" fill-rule="nonzero" rx="1.92"/>
            <rect width="12.408" height="15.806" x="170" y="225" fill="#BEBEBE" fill-rule="nonzero" rx="1.92"/>
            <rect width="12.408" height="15.806" x="170" y="247" fill="#BEBEBE" fill-rule="nonzero" rx="1.92"/>
            <rect width="12.408" height="15.806" x="170" y="269" fill="#BEBEBE" fill-rule="nonzero" rx="1.92"/>
            <rect width="12.408" height="15.806" x="187" y="137" fill="#BEBEBE" fill-rule="nonzero" rx="1.92"/>
            <rect width="12.408" height="15.806" x="187" y="159" fill="#BEBEBE" fill-rule="nonzero" rx="1.92"/>
            <rect width="12.408" height="15.806" x="187" y="181" fill="#BEBEBE" fill-rule="nonzero" rx="1.92"/>
            <rect width="12.408" height="15.806" x="187" y="200" fill="#474BFF" fill-rule="nonzero" rx="1.92"/>
            <rect width="12.408" height="15.806" x="187" y="225" fill="#BEBEBE" fill-rule="nonzero" rx="1.92"/>
            <rect width="12.408" height="15.806" x="187" y="247" fill="#BEBEBE" fill-rule="nonzero" rx="1.92"/>
            <rect width="12.408" height="15.806" x="187" y="269" fill="#BEBEBE" fill-rule="nonzero" rx="1.92"/>
            <rect width="12.408" height="15.806" x="204" y="137" fill="#BEBEBE" fill-rule="nonzero" rx="1.92"/>
            <rect width="12.408" height="15.806" x="204" y="159" fill="#BEBEBE" fill-rule="nonzero" rx="1.92"/>
            <rect width="12.408" height="15.806" x="204" y="181" fill="#BEBEBE" fill-rule="nonzero" rx="1.92"/>
            <rect width="12.408" height="15.806" x="204" y="203" fill="#BEBEBE" fill-rule="nonzero" rx="1.92"/>
            <rect width="12.408" height="15.806" x="204" y="225" fill="#BEBEBE" fill-rule="nonzero" rx="1.92"/>
            <rect width="12.408" height="15.806" x="204" y="247" fill="#BEBEBE" fill-rule="nonzero" rx="1.92"/>
            <rect width="12.408" height="15.806" x="204" y="269" fill="#BEBEBE" fill-rule="nonzero" rx="1.92"/>
            <rect width="12.408" height="15.806" x="221" y="137" fill="#BEBEBE" fill-rule="nonzero" rx="1.92"/>
            <rect width="12.408" height="15.806" x="221" y="159" fill="#BEBEBE" fill-rule="nonzero" rx="1.92"/>
            <rect width="12.408" height="15.806" x="221" y="181" fill="#BEBEBE" fill-rule="nonzero" rx="1.92"/>
            <rect width="12.408" height="15.806" x="221" y="203" fill="#BEBEBE" fill-rule="nonzero" rx="1.92"/>
            <rect width="12.408" height="15.806" x="221" y="225" fill="#BEBEBE" fill-rule="nonzero" rx="1.92"/>
            <rect width="12.408" height="15.806" x="221" y="247" fill="#BEBEBE" fill-rule="nonzero" rx="1.92"/>
            <rect width="12.408" height="15.806" x="221" y="269" fill="#BEBEBE" fill-rule="nonzero" rx="1.92"/>
            <rect width="12.408" height="15.806" x="238" y="137" fill="#BEBEBE" fill-rule="nonzero" rx="1.92"/>
            <rect width="12.408" height="15.806" x="238" y="160" fill="#BEBEBE" fill-rule="nonzero" rx="1.92"/>
            <rect width="12.408" height="15.806" x="238" y="182" fill="#BEBEBE" fill-rule="nonzero" rx="1.92"/>
            <rect width="12.408" height="15.806" x="238" y="204" fill="#BEBEBE" fill-rule="nonzero" rx="1.92"/>
            <rect width="12.408" height="15.806" x="238" y="226" fill="#BEBEBE" fill-rule="nonzero" rx="1.92"/>
            <rect width="12.408" height="15.806" x="238" y="248" fill="#BEBEBE" fill-rule="nonzero" rx="1.92"/>
            <rect width="12.408" height="15.806" x="238" y="270" fill="#BEBEBE" fill-rule="nonzero" rx="1.92"/>
            <g fill-rule="nonzero">
                <path fill="#407BFF" d="M142.87 78.39s9.58 3.16 13.67 27c3.88 22.61 12.3 33.85 12.3 33.85l32.28 5.63-15.2 26.86L142 156.35l-2.3-44.9 3.17-33.06zM84.61 77.81S70.16 79.7 66.1 94.36c-4.06 14.66-8.49 49.16-8.49 49.16l-26.44 44.75 17.55 10.91 26.21-35.49c3.046-4.055 5.036-8.805 5.79-13.82.269-1.91.35-3.843.24-5.77l-.63-11 4.28-55.29z" transform="translate(425 228)"/>
                <path fill="#407BFF" d="M81.1 78.59l-5.22 36.23c-.753 5.239-.378 10.578 1.1 15.66l6.44 22.07s-5.51 12.39 1.7 16.72c1.42.85 36.86 1.42 36.86 1.42h15.59l5.66-54.94-.36-37.36s-13-4.74-18.11-5.31c-9.463-.618-18.959-.538-28.41.24L81.1 78.59z" transform="translate(425 228)"/>
                <path fill="#263238" d="M66.73 150.12c-1.23-1.463-2.6-2.803-4.09-4-1.074-.802-2.251-1.454-3.5-1.94-.543-.167-1.059-.413-1.53-.73.57.04 1.131.172 1.66.39 1.327.398 2.572 1.028 3.68 1.86 1.647 1.093 2.956 2.624 3.78 4.42zM79.21 97.48c-.116.57-.27 1.13-.46 1.68-.17.53-.37 1.18-.56 1.95-.19.77-.46 1.64-.64 2.62-.508 2.275-.875 4.58-1.1 6.9-.257 2.846-.323 5.705-.2 8.56.275 5.19.998 10.345 2.16 15.41.43 1.94.8 3.52 1.08 4.6.158.558.278 1.126.36 1.7-.232-.53-.42-1.079-.56-1.64-.33-1.07-.76-2.64-1.24-4.58-1.273-5.07-2.05-10.25-2.32-15.47-.121-2.879-.04-5.762.24-8.63.25-2.338.658-4.657 1.22-6.94.21-1 .5-1.84.72-2.61.22-.77.45-1.41.64-1.93.174-.558.395-1.1.66-1.62zM142.72 99.57c.076.56.113 1.125.11 1.69 0 1.09.07 2.67.09 4.62 0 3.89 0 9.28-.32 15.22-.32 5.94-.7 11.31-1.08 15.19-.2 1.94-.37 3.5-.51 4.59-.043.563-.133 1.122-.27 1.67-.026-.564-.002-1.13.07-1.69.08-1.18.2-2.73.34-4.6.29-3.89.66-9.25.93-15.18s.4-11.31.47-15.2c0-1.88.06-3.44.08-4.61-.02-.568.01-1.137.09-1.7z" transform="translate(425 228)"/>
                <path fill="#000" d="M128.55 142.64c.73 1.2-.41 3.49-3.28 5.91-1.677 1.386-3.517 2.562-5.48 3.5-4.796 2.304-10.05 3.497-15.37 3.49-2.174.007-4.34-.255-6.45-.78-3.63-.94-5.65-2.5-5.51-3.91.14-1.41 2.31-2.51 5.49-3.45 3.18-.94 7.41-1.85 12-2.89s8.83-2.07 12.12-2.61c3.29-.54 5.72-.51 6.48.74z" opacity=".3" transform="translate(425 228)"/>
                <path fill="#263238" d="M130 144c-.336.445-.711.86-1.12 1.24-.435.488-.91.94-1.42 1.35-.634.588-1.302 1.14-2 1.65l-1.22.89c-.43.3-.91.57-1.38.87-1.027.635-2.089 1.213-3.18 1.73-5.015 2.395-10.513 3.603-16.07 3.53-1.27-.06-2.48-.08-3.61-.25-.56-.07-1.1-.11-1.62-.21l-1.48-.3c-.852-.167-1.693-.385-2.52-.65-.631-.164-1.25-.374-1.85-.63-.527-.178-1.039-.399-1.53-.66 0-.12 2.23.85 6 1.58l1.47.26c.51.09 1.06.12 1.61.18 1.186.13 2.377.197 3.57.2 2.73-.015 5.45-.306 8.12-.87 2.66-.612 5.253-1.487 7.74-2.61 1.077-.503 2.129-1.06 3.15-1.67.48-.29 1-.55 1.39-.84l1.23-.85c3.06-2.19 4.64-3.94 4.72-3.94zM144.84 79.55c-.88 1.572-1.682 3.187-2.4 4.84-.556 1.718-1.023 3.464-1.4 5.23-.103-3.725 1.262-7.341 3.8-10.07z" transform="translate(425 228)"/>
                <g fill="#FFF" opacity=".5">
                    <path d="M98.33 35c-2.09.76-1.23.51-2.13 2.27-.992 1.764-1.067 3.9-.2 5.73.926 1.451 2.347 2.517 4 3 1.93.69 4.25.91 5.88-.32 1.591-1.414 2.175-3.648 1.48-5.66-.567-1.919-1.89-3.524-3.665-4.447-1.775-.922-3.85-1.082-5.745-.443M72.66 56.12c-.74-1.36-4.14-2.15-5.39-1.24-.925 1.299-.925 3.041 0 4.34 1 1.25 2.74 1.63 4.17.91 1.398-.808 1.931-2.56 1.22-4.01zM25.66 59.72c-.74-1.36-4.14-2.16-5.39-1.24-.925 1.299-.925 3.041 0 4.34 1 1.25 2.74 1.63 4.17.91 1.394-.811 1.926-2.56 1.22-4.01zM38.09.55c-3.917.564-7.321 2.985-9.14 6.5-.605 1.086-.899 2.318-.85 3.56.069 1.254.774 2.386 1.87 3 1.64.81 3.59-.05 5.17-1 1.405-.765 2.697-1.721 3.84-2.84 1.153-1.127 1.902-2.604 2.13-4.2.214-1.616-.43-3.227-1.7-4.25-1.321-.988-3.154-.913-4.39.18M10.43 76.52c-3.92.565-7.326 2.985-9.15 6.5-.597 1.089-.887 2.32-.84 3.56.069 1.251.77 2.382 1.86 3 1.64.82 3.59 0 5.18-1 1.401-.77 2.693-1.726 3.84-2.84 1.153-1.127 1.902-2.604 2.13-4.2.204-1.615-.438-3.221-1.7-4.25-1.321-.988-3.154-.913-4.39.18M79.92 1.05c-2.09.76-1.22.51-2.12 2.27-1.005 1.751-1.09 3.883-.23 5.71.919 1.458 2.343 2.527 4 3 1.93.69 4.24.91 5.88-.32 1.587-1.417 2.17-3.647 1.48-5.66-.566-1.921-1.891-3.528-3.669-4.451C83.484.676 81.407.518 79.51 1.16M71.55 26.81c.16 1.55.14.92 1.19 1.83 1.022.983 2.458 1.409 3.85 1.14 1.148-.392 2.117-1.183 2.73-2.23.911-1.143 1.203-2.66.78-4.06-.686-1.333-2.106-2.122-3.6-2-1.405.058-2.726.686-3.658 1.739-.932 1.052-1.395 2.44-1.282 3.841M13.12 43c.16 1.55.14.92 1.19 1.83 1.022.982 2.458 1.407 3.85 1.14 1.15-.387 2.12-1.18 2.73-2.23.911-1.143 1.206-2.659.79-4.06-.685-1.338-2.112-2.129-3.61-2-1.403.058-2.722.685-3.654 1.735-.932 1.05-1.396 2.435-1.286 3.835M57.56 23.49c-.362-.596-1.037-.928-1.73-.85-.68.087-1.336.308-1.93.65l-.74 1.42c.359.633.964 1.088 1.671 1.257.708.168 1.453.036 2.059-.367.687-.462.964-1.336.67-2.11zM24.69 22.86c-.35-.59-1.008-.925-1.69-.86-.683.083-1.342.301-1.94.64l-.74 1.42c.35.627.943 1.082 1.638 1.26.696.177 1.434.062 2.042-.32.712-.457 1-1.353.69-2.14zM88.3 50.05c-.362-.596-1.037-.928-1.73-.85-.68.086-1.337.307-1.93.65l-.74 1.42c.359.633.964 1.088 1.671 1.257.708.168 1.453.036 2.059-.367.687-.462.964-1.336.67-2.11zM39.35 80.78c-.357-.602-1.034-.938-1.73-.86-.683.087-1.342.308-1.94.65l-.74 1.42c.36.633.968 1.089 1.677 1.257.709.169 1.456.036 2.063-.367.685-.459.963-1.33.67-2.1zM64.71 38.9c-1.667-1.879-3.938-3.117-6.42-3.5-2.92.1-5 2-7 4.12-.978.883-1.547 2.132-1.57 3.45.247 1.434 1.13 2.68 2.4 3.39 2.835 1.867 6.34 2.414 9.61 1.5 1.31-.319 2.491-1.035 3.38-2.05 1.51-1.95 1.13-4.95-.4-6.91zM80.14 37.89c-.56-1-3.13-1.62-4.07-.93-.704.98-.704 2.3 0 3.28.758.942 2.071 1.226 3.15.68 1.051-.614 1.452-1.935.92-3.03zM62.46 82c-.56-1-3.13-1.62-4.07-.93-.704.98-.704 2.3 0 3.28.753.949 2.07 1.237 3.15.69 1.053-.618 1.453-1.942.92-3.04zM102.54 18.43c-.56-1-3.13-1.63-4.08-.93-.695.983-.695 2.297 0 3.28.758.942 2.071 1.226 3.15.68 1.055-.611 1.46-1.932.93-3.03zM42.47 55c-.744-.628-1.712-.925-2.68-.82-1.85 0-3.4.74-3.56 2.48-.151 1.775.537 3.518 1.86 4.71.812.957 2.11 1.349 3.315 1.002 1.206-.348 2.096-1.37 2.275-2.612.519-1.688.052-3.525-1.21-4.76zM86.49 73.19c-.338-1.345-1.248-2.474-2.49-3.09-1.325-.482-2.805-.26-3.93.59-1.106.847-1.969 1.972-2.5 3.26-.707 1.435-1.05 3.021-1 4.62.1 1.59 2.48 3.4 4.33 2.87 1.345.115 2.684-.289 3.74-1.13 1.967-1.8 2.692-4.59 1.85-7.12zM35.51 24.88c-2.09.76-1.22.51-2.12 2.27-1.005 1.751-1.09 3.883-.23 5.71.924 1.453 2.346 2.52 4 3 1.93.69 4.24.91 5.88-.32 1.587-1.417 2.17-3.647 1.48-5.66-.566-1.921-1.891-3.528-3.669-4.451-1.777-.923-3.854-1.081-5.751-.439" transform="translate(425 228) translate(50 81)"/>
                </g>
                <path fill="#407BFF" d="M120.59 202.85s38.29 10.6 39.83 11.14c2.3.81 1.92 9.26-1.67 9.13-1.7-.06-29.41 1-32.92.81-3.51-.19-14.06-4.38-14.06-4.38l8.82-16.7z" transform="translate(425 228)"/>
                <path fill="#263238" d="M136.54 217.46c.19 0 .45-2 1.69-4.11 1.24-2.11 2.83-3.37 2.71-3.52-.12-.15-2 .93-3.27 3.2s-1.29 4.45-1.13 4.43zM132.55 215.65c.19 0 .58-1.78 1.59-3.78 1.01-2 2.23-3.4 2.09-3.53-.14-.13-1.6 1.13-2.66 3.24-1.06 2.11-1.18 4.06-1.02 4.07zM128.8 214.65c.2 0 .05-1.93.9-4 .85-2.07 2.22-3.44 2.09-3.58-.13-.14-1.8 1-2.69 3.35-.89 2.35-.45 4.28-.3 4.23z" transform="translate(425 228)"/>
                <path fill="#263238" d="M129.48 209.7c.343-.909.486-1.88.42-2.85-.012-1.051-.143-2.098-.39-3.12-.149-.606-.34-1.2-.57-1.78-.124-.36-.337-.684-.62-.94-.393-.306-.952-.277-1.31.07-.294.288-.474.67-.51 1.08-.024.333-.024.667 0 1 .006.634.087 1.265.24 1.88.251 1.027.645 2.013 1.17 2.93.43.864 1.013 1.643 1.72 2.3.09-.06-.55-.95-1.31-2.51-.445-.907-.78-1.864-1-2.85-.122-.575-.183-1.162-.18-1.75 0-.59 0-1.32.35-1.61.145-.131.365-.131.51 0 .194.185.338.415.42.67.615 1.49.98 3.071 1.08 4.68.05 1.7-.12 2.79-.02 2.8z" transform="translate(425 228)"/>
                <path fill="#263238" d="M129.44 209.31c-.78-.326-1.627-.463-2.47-.4-.917-.002-1.831.113-2.72.34-.545.114-1.07.306-1.56.57-.649.323-1.004 1.038-.87 1.75.176.674.705 1.2 1.38 1.37.565.14 1.155.14 1.72 0 .905-.228 1.75-.648 2.48-1.23.697-.471 1.303-1.064 1.79-1.75-.7.41-1.368.871-2 1.38-.714.478-1.51.817-2.35 1-.467.11-.953.11-1.42 0-.451-.118-.808-.463-.94-.91-.073-.444.16-.882.57-1.07.437-.241.905-.423 1.39-.54.842-.239 1.707-.39 2.58-.45 1.46-.11 2.4.05 2.42-.06zM142.43 217.87c.18 0 0-1.66.75-3.45.75-1.79 2-2.85 1.87-3-.13-.15-1.66.75-2.46 2.76s-.32 3.76-.16 3.69zM115.71 219.64c.47.28.966.514 1.48.7 1.389.536 2.812.977 4.26 1.32 4.802 1.034 9.71 1.484 14.62 1.34 5.74-.06 10.91-.32 14.66-.47l4.43-.24c.547-.005 1.093-.062 1.63-.17-.539-.086-1.085-.113-1.63-.08h-4.45l-14.64.29c-4.869.12-9.736-.278-14.52-1.19-3.66-.68-5.8-1.62-5.84-1.5z" transform="translate(425 228)"/>
                <path fill="#263238" d="M114.58 220.51c.975-.384 1.93-.818 2.86-1.3 2.256-1.073 4.769-1.489 7.25-1.2 2.89.44 4.93 2.38 6.26 3.72.685.802 1.423 1.557 2.21 2.26-.506-.933-1.135-1.795-1.87-2.56-.755-.885-1.607-1.684-2.54-2.38-1.18-.872-2.552-1.448-4-1.68-2.6-.315-5.235.185-7.54 1.43-.96.432-1.846 1.009-2.63 1.71z" transform="translate(425 228)"/>
                <path fill="#000" d="M120.59 202.85s38.29 10.6 39.83 11.14c2.3.81 1.92 9.26-1.67 9.13-1.7-.06-29.41 1-32.92.81-3.51-.19-14.06-4.38-14.06-4.38l8.82-16.7z" opacity=".3" transform="translate(425 228)"/>
                <path fill="#263238" d="M86.6 169.53L74.13 184s-41.5-12.62-52-12c-10.5.62-19 4.77-21.05 13.27-2.05 8.5-2.31 20.21 9.89 28.34 12.2 8.13 72.83 12.63 72.83 12.63h24l39.2-51.72-3.44-2.84-56.96-2.15z" transform="translate(425 228)"/>
                <path fill="#455A64" d="M95 203.07c-.263.029-.527.029-.79 0-.51 0-1.28 0-2.25-.17-2.757-.322-5.48-.884-8.14-1.68-3.934-1.196-7.77-2.697-11.47-4.49-4.19-2-8.67-4.41-13.37-6.94-4.397-2.409-8.92-4.578-13.55-6.5-3.778-1.56-7.705-2.733-11.72-3.5-2.706-.513-5.456-.754-8.21-.72-1 0-1.74.08-2.25.09-.263.022-.527.022-.79 0 .256-.064.517-.105.78-.12.51 0 1.27-.17 2.25-.18 2.775-.117 5.555.068 8.29.55 4.051.73 8.016 1.88 11.83 3.43 4.659 1.901 9.206 4.065 13.62 6.48 4.7 2.53 9.16 5 13.33 7 3.67 1.804 7.47 3.328 11.37 4.56 2.613.824 5.288 1.436 8 1.83 1 .17 1.73.2 2.24.28.278.01.555.037.83.08z" transform="translate(425 228)"/>
                <path fill="#263238" d="M123.3 222c7.71-3 50.1-16.52 65.11-33.86 12.49-14.44-7.38-27.37-7.38-27.37s-13.94-.44-18.59 0-71.17 45.4-71.17 45.4 11.62 22.66 11.33 23.53l20.7-7.7z" transform="translate(425 228)"/>
                <path fill="#455A64" d="M144.18 171.73l-.18.14-.56.38-2.17 1.42-8 5.13-26.67 16.76-14.49 9 .09-.29 7.6 18.27 2.14 5.25c.22.58.41 1 .54 1.4.074.157.13.321.17.49-.094-.146-.174-.3-.24-.46l-.62-1.37-2.26-5.2-7.77-18.2-.08-.19.17-.11 14.47-9.06 26.68-16.6 8.14-5 2.23-1.34.58-.33c.16-.07.23-.1.23-.09zM85.61 191.72c-.702-.14-1.377-.39-2-.74-3.068-1.473-5.833-3.508-8.15-6-.518-.478-.957-1.035-1.3-1.65.12-.11 2.24 2.29 5.41 4.6 3.17 2.31 6.11 3.65 6.04 3.79zM103.73 170.29c.11.882.143 1.772.1 2.66 0 1.63.09 3.89.31 6.37s.57 4.71.84 6.32c.194.866.321 1.745.38 2.63-.352-.82-.6-1.68-.74-2.56-.473-2.092-.807-4.214-1-6.35-.189-2.134-.242-4.279-.16-6.42-.015-.89.076-1.78.27-2.65zM109.6 172.55s.2-.05.53.07c.454.183.84.505 1.1.92.412.634.525 1.416.31 2.14-.333.902-1.189 1.503-2.15 1.51-.962.096-1.878-.436-2.27-1.32-.253-.718-.145-1.515.29-2.14.268-.423.686-.73 1.17-.86.33-.09.52 0 .52 0-.566.183-1.051.558-1.37 1.06-.32.534-.383 1.184-.17 1.77.335.68 1.057 1.078 1.81 1 .754.003 1.435-.452 1.72-1.15.194-.595.129-1.245-.18-1.79-.307-.524-.763-.946-1.31-1.21zM93.15 170.7c.17.237.293.506.36.79.251.754.37 1.546.35 2.34-.014 1.191-.276 2.366-.77 3.45-1.2 2.752-3.888 4.558-6.89 4.63-1.188.053-2.374-.144-3.48-.58-.728-.292-1.404-.7-2-1.21-.42-.37-.61-.61-.59-.63.853.612 1.78 1.113 2.76 1.49 1.065.37 2.194.524 3.32.45 2.811-.11 5.32-1.797 6.48-4.36.495-1.016.781-2.121.84-3.25.003-1.052-.124-2.1-.38-3.12zM132.7 178.6c-.535.076-1.08-.004-1.57-.23-2.566-.874-4.213-3.377-4-6.08-.008-.54.141-1.072.43-1.53.08 0-.07.6-.06 1.54.01 1.21.356 2.395 1 3.42.673 1.013 1.62 1.814 2.73 2.31.89.39 1.48.48 1.47.57z" transform="translate(425 228)"/>
                <path fill="#A36957" d="M176.77 149.8s6.48-9.35 7.9-10.15c1.42-.8 13.41-3.22 14.33-2.77.92.45 14.32 4.9 12.5 6.29-1.82 1.39-11.16-1.84-11.16-1.84l-1.38.45s8.08 2.58 9.68 3.86c1.6 1.28.61 3.05-.88 2.66-1.49-.39-8.49-2.87-9-2.64-.51.23 7.54 3.13 8.35 3.79 1.09.89.88 3-.61 2.7-.88-.19-8.37-3.39-8.37-3.39s5.82 3.32 6.31 3.95c.79 1-.15 2.26-1.44 1.76-.89-.34-4.94-3.09-6.13-3.54 0 0-1.2.13-2.6 2.3-1.4 2.17-9.8 6.92-9.8 6.92l-7.7-10.35z" transform="translate(425 228)"/>
                <path fill="#A36957" d="M179.9 150.42c.85.83 2.134 1.023 3.19.48 1.07-.44 2-1.23 3-1.75 3.1-1.54 7.06-.46 10.08-2.15.42-.24.86-.66.72-1.12-.14-.46-.66-.56-1.11-.62l-11.37-1.45" transform="translate(425 228)"/>
                <path fill="#7C3B29" d="M184.41 143.81c.415-.052.835-.052 1.25 0 .79.07 1.94.18 3.36.33l5 .56 1.44.18c.593-.02 1.17.191 1.61.59.215.331.215.759 0 1.09-.172.268-.405.49-.68.65-.492.273-1.012.494-1.55.66-2.19.63-4.31.49-6.13.78-.86.113-1.7.352-2.49.71-.72.34-1.36.81-2 1.17-.965.703-2.194.937-3.35.64-.82-.29-1-.78-1-.78.331.278.716.485 1.13.61 1.066.16 2.151-.125 3-.79.643-.46 1.31-.883 2-1.27.829-.407 1.716-.68 2.63-.81 1.9-.34 4-.23 6-.82.487-.145.956-.343 1.4-.59.42-.24.66-.61.48-.8-.18-.19-.68-.3-1.17-.35l-1.44-.2-5-.7c-1.41-.21-2.55-.39-3.34-.53-.397-.054-.785-.165-1.15-.33zM211.46 143.2c-.838.288-1.728.393-2.61.31-.958-.007-1.913-.11-2.85-.31-1-.28-2.16-.61-3.34-1l-2.51-.77h.15c-2.04.503-4.116.837-6.21 1 1.982-.695 4.02-1.22 6.09-1.57h.16l2.49.73 3.3 1c.9.222 1.816.37 2.74.44 1.59.15 2.58.07 2.59.17z" transform="translate(425 228)"/>
                <path fill="#263238" d="M152.66 46.53c-2.67-3.2-5.94-6.48-6-10.64-.06-2.22.74-4.7-.58-6.48-1.16-1.54-3.45-1.78-4.75-3.21-1.73-1.9-1-4.91-1.58-7.41-.809-2.732-2.905-4.895-5.61-5.79-2.676-.854-5.515-1.07-8.29-.63l-2.61 57.36c1.27-1.39 4.59-2 6.35-1.3 1.76.7 3.42 1.76 5.3 1.91 4.22.35 7.19-3.87 10.79-6.09 3.6-2.22 8.18-2.79 10.07-6.36 1.89-3.57-.42-8.16-3.09-11.36z" transform="translate(425 228)"/>
                <path fill="#455A64" d="M144.77 64.69c.494-.12.966-.315 1.4-.58.488-.33.872-.791 1.11-1.33.282-.72.282-1.52 0-2.24-.389-.866-1.063-1.572-1.91-2-.486-.3-.919-.678-1.28-1.12-.378-.51-.57-1.135-.54-1.77.21-1.25.6-2.463 1.16-3.6.238-.578.367-1.195.38-1.82-.005-.633-.193-1.251-.54-1.78-.787-1.039-1.752-1.929-2.85-2.63-1.052-.693-2.016-1.513-2.87-2.44-1.409-1.625-2.358-3.596-2.75-5.71-.27-1.414-.27-2.866 0-4.28.07-.38.17-.756.3-1.12.034-.132.084-.26.15-.38.06 0-.13.55-.25 1.54-.46 3.48.604 6.99 2.92 9.63.84.893 1.783 1.682 2.81 2.35 1.162.727 2.179 1.663 3 2.76.396.61.611 1.322.62 2.05-.02.686-.162 1.364-.42 2-.55 1.085-.94 2.244-1.16 3.44-.034.528.118 1.052.43 1.48.33.39.717.728 1.15 1 .44.294.853.628 1.23 1 .354.35.62.778.78 1.25.285.813.246 1.705-.11 2.49-.279.575-.72 1.055-1.27 1.38-.336.206-.71.343-1.1.4-.127.036-.26.046-.39.03z" transform="translate(425 228)"/>
                <path fill="#A36957" d="M123.86 77.43l-.18-9.62s9.56-1.42 11.76-13.82c1.09-6.17 1-16.32.58-24.62-.33-7.47-8.24-15.07-15.69-14.41l-24.2 4.16v4l.66 54.72c.093 7.406 6.123 13.36 13.53 13.36 3.631 0 7.11-1.458 9.656-4.047 2.546-2.589 3.946-6.092 3.884-9.723z" transform="translate(425 228)"/>
                <path fill="#263238" d="M132.18 38c-.005.863-.697 1.564-1.56 1.58-.41.03-.816-.109-1.122-.384-.305-.276-.485-.664-.498-1.076 0-.867.694-1.574 1.56-1.59.41-.025.814.118 1.12.394.304.277.485.665.5 1.076zM133.73 34.61c-.2.2-1.4-.71-3.11-.74-1.71-.03-3 .81-3.18.6-.18-.21.12-.47.68-.86.75-.503 1.638-.759 2.54-.73.892.007 1.758.302 2.47.84.53.42.7.8.6.89zM116.42 37.54c-.005.866-.704 1.57-1.57 1.58-.41.027-.813-.112-1.119-.388-.305-.275-.486-.661-.501-1.072.01-.866.704-1.569 1.57-1.59.41-.025.814.118 1.12.394.304.277.485.665.5 1.076zM116.85 34.63c-.2.2-1.4-.71-3.11-.74-1.71-.03-3 .81-3.18.6-.18-.21.12-.47.68-.86.75-.503 1.638-.759 2.54-.73.892.01 1.757.304 2.47.84.52.42.75.8.6.89zM122.85 47.47c.911-.265 1.852-.416 2.8-.45.44 0 .86-.12.93-.42.049-.45-.046-.906-.27-1.3l-1.23-3.36c-1.72-4.79-3-8.72-2.76-8.79.24-.07 1.74 3.76 3.46 8.54.41 1.18.81 2.31 1.18 3.38.265.536.336 1.148.2 1.73-.138.312-.41.544-.74.63-.242.06-.49.09-.74.09-.942.104-1.893.087-2.83-.05z" transform="translate(425 228)"/>
                <path fill="#7C3B29" d="M123.68 67.81c-5.859-.015-11.599-1.656-16.58-4.74 0 0 4.16 8.69 16.63 7.74l-.05-3zM122.05 51.6c-.645-.851-1.687-1.306-2.75-1.2-.777.039-1.503.401-2 1-.46.57-.528 1.361-.17 2 .552.642 1.439.884 2.24.61.817-.272 1.571-.704 2.22-1.27.195-.136.364-.305.5-.5.131-.193.131-.447 0-.64" transform="translate(425 228)"/>
                <path fill="#263238" d="M117.78 48.57c.28 0 .25 1.85 1.82 3.2s3.56 1.18 3.57 1.44c.01.26-.45.36-1.29.37-1.098-.005-2.16-.394-3-1.1-.805-.676-1.312-1.643-1.41-2.69-.03-.79.18-1.23.31-1.22zM117.41 27.91c-.18.46-1.89.21-3.91.42-2.02.21-3.65.73-3.91.3-.12-.2.17-.63.84-1.07 1.804-1.11 4.022-1.317 6-.56.69.32 1.06.69.98.91zM133.19 29.63c-.31.38-1.49 0-2.91-.09-1.42-.09-2.63.22-2.9-.19-.12-.2.08-.59.61-1 1.461-.884 3.313-.793 4.68.23.49.42.65.86.52 1.05z" transform="translate(425 228)"/>
                <path fill="#455A64" d="M102.47 33.78c4.09-5 15.72-14 21.4-16.53.9-.4 1.75-1.24 2.31-1.24 1.191.626 2.308 1.384 3.33 2.26 3 2.64 5.42 8.86 6.58 12.7 1.68-4.78 1.13-11.65-2.19-15.48S127 9.55 122 9.3c-4.664-.308-9.298.937-13.18 3.54-1.71 1-7.88 6.18-9.6 9.13l3.25 11.81z" transform="translate(425 228)"/>
                <path fill="#263238" d="M124.25 9.55c.84.09-4.81-4.54-8.33-5.17-3.561-.623-7.226.143-10.24 2.14-2 1.35-3.69 3.23-5.92 4.18-1.7.72-3.59.84-5.35 1.36-4.775 1.509-8.18 5.733-8.64 10.72-.15 2.07.22 4.13.26 6.2.17 2.085-.456 4.157-1.75 5.8-1.22 1.33-3 1.93-4.52 2.89-3.673 2.374-5.626 6.671-5 11 .37 2.26 1.44 4.59.66 6.74-.52 1.42-1.75 2.44-2.58 3.7-1.653 2.609-1.546 5.962.27 8.46 2.11.23 3.77 1.81 5.41 3.15 1.64 1.34 3.73 2.59 5.76 2 2.64-.77 3.89-4.3 6.61-4.69 2.72-.39 4.62 2.45 7.14 3.41 2.87 1.08 6.23-.55 8-3.09 1.77-2.54 2.16-5.73 2.22-8.8.08-3.86-.41-7.94-2.7-11.05-1.64-2.23-4.24-4.14-4.28-6.91-.04-2.77 2.38-4.75 2.79-7.37.36-2.3-.88-4.5-1.84-6.62-.96-2.12-2.72-5.26-1.37-7.16 0 0 9.15-12.44 23.4-10.89zM125.37 11.63s.43.2.77.85c.44.869.461 1.89.059 2.777-.402.886-1.186 1.542-2.129 1.783-.71.17-1.16 0-1.15 0 .01 0 .43-.09 1-.33.786-.29 1.423-.882 1.77-1.645.345-.763.37-1.633.07-2.415-.17-.65-.45-.96-.39-1.02z" transform="translate(425 228)"/>
                <path fill="#263238" d="M128.85 16.94c0 .14-.86 0-1.65-.64-.79-.64-1.14-1.39-1-1.46.14-.07.62.49 1.34 1 .72.51 1.36.96 1.31 1.1zM120.63 13.69c0-.15.76-.13 1.6-.36.84-.23 1.47-.6 1.57-.48.1.12-.46.73-1.43 1s-1.77-.03-1.74-.16zM120.73 11.41c0-.15.74-.15 1.61 0 .87.15 1.56.36 1.54.5-.02.14-.74.15-1.61 0-.87-.15-1.56-.36-1.54-.5zM129.14 12.18c0 .14-.28.28-.65.31-.37.03-.68-.07-.69-.22-.01-.15.28-.28.65-.3.37-.02.68.03.69.21zM129.23 13.6c0 .14-.42.26-1 .26-.58 0-1-.12-1-.26s.43-.26 1-.26c.57 0 1 .12 1 .26zM107.32 22c.11.11-1.19 1.45-2.51 3.32-1.32 1.87-2.15 3.53-2.29 3.47.854-2.708 2.532-5.081 4.8-6.79zM107.78 18.27c.11.1-1.4 2-2.95 4.49-1.55 2.49-2.56 4.72-2.7 4.66.466-1.76 1.23-3.428 2.26-4.93.874-1.595 2.021-3.023 3.39-4.22zM74.23 36s-.11-.09-.3-.31c-.245-.339-.437-.713-.57-1.11-.47-1.507-.215-3.147.69-4.44 1.463-1.904 3.953-2.701 6.25-2 1.273.46 2.457 1.137 3.5 2 .542.39 1.148.68 1.79.86.638.152 1.31.008 1.83-.39.499-.431.849-1.008 1-1.65.155-.655.188-1.333.1-2-.16-1.33-.48-2.65-.51-3.94-.22-2.299.406-4.599 1.76-6.47.961-1.232 2.349-2.06 3.89-2.32.411-.062.829-.062 1.24 0 .28 0 .43.09.42.11-.545-.024-1.09.007-1.63.09-1.454.32-2.742 1.155-3.63 2.35-1.253 1.818-1.81 4.025-1.57 6.22 0 1.25.36 2.51.53 3.91.304 1.506-.195 3.063-1.32 4.11-.646.486-1.474.658-2.26.47-.721-.181-1.4-.5-2-.94-1.004-.822-2.135-1.474-3.35-1.93-2.107-.674-4.412.004-5.82 1.71-.87 1.204-1.159 2.732-.79 4.17.182.531.435 1.035.75 1.5zM150.69 36.93c-.143-.011-.287-.011-.43 0-.402.038-.768.25-1 .58-.395.483-.395 1.177 0 1.66.565.597 1.438.787 2.2.48.895-.47 1.482-1.371 1.55-2.38.052-1.177-.167-2.35-.64-3.43-.37-1.24-1.131-2.328-2.17-3.1-.57-.335-1.233-.475-1.89-.4-.708.104-1.406.26-2.09.47-.726.232-1.488.334-2.25.3-.782-.07-1.503-.452-2-1.06-.832-1.156-1.167-2.596-.93-4 .14-1.3.43-2.48.45-3.59.014-1.031-.19-2.054-.6-3-.598-1.386-1.567-2.58-2.8-3.45-.89-.6-1.47-.79-1.45-.83.02-.04.15 0 .43.11.393.149.77.333 1.13.55 1.317.839 2.36 2.045 3 3.47.451.989.687 2.063.69 3.15 0 1.18-.29 2.38-.41 3.63-.202 1.271.103 2.571.85 3.62.417.5 1.013.816 1.66.88.702.024 1.402-.074 2.07-.29.711-.223 1.44-.384 2.18-.48.762-.088 1.531.077 2.19.47 1.135.835 1.964 2.019 2.36 3.37.486 1.156.698 2.409.62 3.66-.11 1.143-.802 2.148-1.83 2.66-.905.364-1.941.106-2.57-.64-.251-.308-.366-.705-.32-1.1.04-.32.176-.62.39-.86.272-.356.692-.566 1.14-.57.166-.015.332.028.47.12zM69 53.29s.13.06.39.07c.374-.035.707-.252.89-.58.141-.219.192-.485.14-.74-.08-.299-.279-.552-.55-.7-.687-.38-1.545-.245-2.08.33-.65.71-1.007 1.638-1 2.6-.017.524.119 1.042.39 1.49.3.45.756.774 1.28.91 1.167.323 2.416-.068 3.19-1 .818-1.043 1.252-2.335 1.23-3.66-.035-1.357-.162-2.71-.38-4.05-.206-1.291-.176-2.61.09-3.89.305-1.165.92-2.226 1.78-3.07.732-.724 1.576-1.325 2.5-1.78 1.333-.618 2.737-1.071 4.18-1.35.522-.128 1.054-.212 1.59-.25-.501.189-1.016.34-1.54.45-1.404.342-2.766.838-4.06 1.48-.876.457-1.672 1.051-2.36 1.76-.79.792-1.35 1.784-1.62 2.87-.241 1.227-.262 2.486-.06 3.72.234 1.365.368 2.745.4 4.13.027 1.451-.454 2.866-1.36 4-.455.539-1.056.935-1.73 1.14-.653.194-1.347.194-2 0-.636-.172-1.185-.575-1.54-1.13-.309-.523-.458-1.124-.43-1.73.009-1.071.428-2.098 1.17-2.87.654-.676 1.69-.805 2.49-.31.331.196.564.523.64.9.052.369-.058.742-.301 1.023-.244.282-.597.445-.969.447-.146-.019-.28-.094-.37-.21zM103.61 5.84s-.06-.14-.16-.39c-.177-.355-.475-.636-.84-.79-.575-.248-1.22-.287-1.82-.11-.801.179-1.412.83-1.54 1.64-.32 1.78 1.74 4 4.18 3.59 1.267-.216 2.446-.788 3.4-1.65 1.04-.944 1.973-2 2.78-3.15.837-1.175 1.803-2.251 2.88-3.21 1.036-.915 2.32-1.503 3.69-1.69 1.258-.11 2.516.218 3.56.93.91.591 1.68 1.373 2.26 2.29.775 1.327 1.287 2.79 1.51 4.31.09.53.13.95.16 1.23.026.142.026.288 0 .43 0 0-.13-.58-.36-1.62-.288-1.47-.836-2.875-1.62-4.15-.556-.853-1.285-1.578-2.14-2.13-.97-.636-2.126-.921-3.28-.81-1.269.188-2.455.744-3.41 1.6-1.07.933-2.03 1.987-2.86 3.14-.838 1.176-1.8 2.259-2.87 3.23-1.035.911-2.308 1.508-3.67 1.72-1.274.19-2.564-.224-3.49-1.12-.844-.755-1.26-1.878-1.11-3 .076-.491.315-.942.68-1.28.325-.286.717-.485 1.14-.58.67-.174 1.38-.1 2 .21.393.186.695.52.84.93.059.136.09.282.09.43z" transform="translate(425 228)"/>
                <path fill="#455A64" d="M118.94 9.26s0-.06-.08-.19c-.06-.196-.151-.382-.27-.55-.454-.643-1.108-1.117-1.86-1.35-1.182-.41-2.431-.586-3.68-.52-.772.009-1.54.123-2.28.34-.814.3-1.568.74-2.23 1.3-1.568 1.252-2.905 2.768-3.95 4.48-.28.466-.52.954-.72 1.46-.193.57-.507 1.092-.92 1.53-.862.895-1.945 1.547-3.14 1.89-.594.16-1.199.277-1.81.35-.603.133-1.19.331-1.75.59-1.153.545-2.145 1.378-2.88 2.42-.731 1.096-1.098 2.394-1.05 3.71.057 1.384.221 2.761.49 4.12.296 1.4.364 2.839.2 4.26-.22 1.413-.927 2.704-2 3.65-2.06 1.86-4.65 2.62-6.45 4.21-.906.72-1.597 1.675-2 2.76-.33 1.038-.232 2.164.27 3.13.43 1 1.05 1.84 1.47 2.79.468.908.623 1.945.44 2.95-.272.892-.854 1.658-1.64 2.16-.654.432-1.278.906-1.87 1.42-.88.879-1.301 2.117-1.14 3.35.079.789.23 1.569.45 2.33.092.264.162.535.21.81 0 0 0-.06-.09-.19s-.13-.33-.22-.59c-.268-.758-.452-1.542-.55-2.34-.067-.588-.037-1.182.09-1.76.156-.689.502-1.32 1-1.82.593-.531 1.222-1.022 1.88-1.47.715-.47 1.24-1.179 1.48-2 .152-.927-.003-1.879-.44-2.71-.41-.89-1-1.76-1.51-2.78-.55-1.062-.66-2.297-.31-3.44.425-1.177 1.165-2.215 2.14-3 1.91-1.68 4.49-2.46 6.42-4.22.984-.871 1.632-2.06 1.83-3.36.16-1.368.096-2.753-.19-4.1-.282-1.384-.449-2.789-.5-4.2-.046-1.42.357-2.82 1.15-4 .783-1.116 1.85-2.004 3.09-2.57.592-.286 1.216-.497 1.86-.63.61-.075 1.215-.192 1.81-.35 1.133-.317 2.166-.92 3-1.75.377-.398.663-.872.84-1.39.21-.527.465-1.035.76-1.52 1.089-1.743 2.477-3.28 4.1-4.54.696-.58 1.493-1.027 2.35-1.32.775-.217 1.575-.328 2.38-.33 1.282-.035 2.56.18 3.76.63.773.268 1.432.79 1.87 1.48.112.18.19.38.23.59.013.187 0 .28-.04.28z" transform="translate(425 228)"/>
                <path fill="#000" d="M78.47 157.63c-5.55-14.55-5.73-31.19-2.32-46.39-.83 8.11.43 16.16 2.12 24.14 1.58 7.48 3.49 7.56 2.13 15.87-.185 1.134-.473 2.248-.86 3.33l-1.07 3.05z" opacity=".3" transform="translate(425 228)"/>
                <path fill="#407BFF" d="M93.6 209.23s-38.29 10.6-39.83 11.14c-2.3.81-1.92 9.26 1.67 9.13 1.7-.06 29.41 1 32.91.82 3.5-.18 12.93-3.95 12.93-3.95l-7.68-17.14z" transform="translate(425 228)"/>
                <path fill="#263238" d="M77.65 223.84c-.19 0-.45-2-1.69-4.11-1.24-2.11-2.83-3.37-2.71-3.52.12-.15 2 .93 3.27 3.2s1.29 4.45 1.13 4.43zM81.64 222c-.19 0-.58-1.77-1.6-3.77s-2.22-3.41-2.08-3.54c.14-.13 1.6 1.13 2.66 3.25S81.8 222 81.64 222zM85.38 221c-.19 0 0-1.92-.89-4s-2.22-3.44-2.09-3.58c.13-.14 1.8 1 2.69 3.35.89 2.35.45 4.31.29 4.23z" transform="translate(425 228)"/>
                <path fill="#263238" d="M84.7 216.08c-.33-.912-.47-1.882-.41-2.85.012-1.051.143-2.098.39-3.12.148-.603.338-1.194.57-1.77.119-.363.333-.688.62-.94.39-.31.95-.283 1.31.06.294.288.474.67.51 1.08.023.333.023.667 0 1-.006.63-.087 1.258-.24 1.87-.256 1.025-.65 2.01-1.17 2.93-.426.866-1.01 1.646-1.72 2.3-.09-.06.55-1 1.31-2.51.447-.906.782-1.863 1-2.85.122-.575.183-1.162.18-1.75 0-.59 0-1.32-.35-1.6-.13-.15-.354-.173-.51-.05-.194.185-.338.415-.42.67-.615 1.49-.98 3.071-1.08 4.68-.06 1.77.12 2.84.01 2.85z" transform="translate(425 228)"/>
                <path fill="#263238" d="M84.75 215.69c.782-.32 1.628-.454 2.47-.39.917-.005 1.83.106 2.72.33.546.114 1.072.31 1.56.58.654.318 1.011 1.037.87 1.75-.18.67-.708 1.189-1.38 1.36-.565.14-1.155.14-1.72 0-.909-.226-1.758-.646-2.49-1.23-.693-.472-1.296-1.065-1.78-1.75.7.41 1.368.871 2 1.38.714.478 1.51.817 2.35 1 .467.114.953.114 1.42 0 .453-.111.809-.46.93-.91.074-.442-.155-.879-.56-1.07-.44-.237-.906-.419-1.39-.54-.842-.239-1.707-.39-2.58-.45-1.46-.11-2.4.05-2.42-.06zM71.76 224.25c-.19 0 0-1.66-.75-3.45-.75-1.79-2-2.85-1.88-3 .12-.15 1.67.75 2.47 2.76.8 2.01.32 3.76.16 3.69zM98.48 226c-.467.285-.963.52-1.48.7-1.389.536-2.812.977-4.26 1.32-4.8 1.047-9.709 1.51-14.62 1.38-5.74-.06-10.91-.32-14.66-.47l-4.43-.24c-.547-.005-1.093-.062-1.63-.17.54-.08 1.085-.106 1.63-.08h4.45l14.64.28c4.868.123 9.736-.272 14.52-1.18 3.66-.7 5.8-1.64 5.84-1.54z" transform="translate(425 228)"/>
                <path fill="#263238" d="M99.61 226.89c-.975-.384-1.93-.818-2.86-1.3-2.256-1.073-4.769-1.489-7.25-1.2-2.89.44-4.93 2.38-6.26 3.72-.685.802-1.423 1.557-2.21 2.26.506-.933 1.135-1.795 1.87-2.56.755-.885 1.607-1.684 2.54-2.38 1.177-.874 2.55-1.448 4-1.67 2.6-.317 5.234.179 7.54 1.42.96.432 1.846 1.009 2.63 1.71zM61.2 228.55c-.07-.05.26-.55.56-1.45.828-2.35.344-4.962-1.27-6.86-.6-.73-1.08-1.08-1-1.15.08-.07.6.2 1.31.9.917.94 1.536 2.13 1.78 3.42.238 1.293.082 2.628-.45 3.83-.44.91-.88 1.35-.93 1.31z" transform="translate(425 228)"/>
                <path fill="#455A64" d="M101.16 169.68c0-.677.543-1.23 1.22-1.24l35.56-.45 14-43.53c.468-1.467 1.851-2.446 3.39-2.4l54 1.52c1.12.028 2.157.597 2.783 1.527.626.93.762 2.105.367 3.153l-17 45-93.18-2.33c-.654-.043-1.158-.595-1.14-1.25z" transform="translate(425 228)"/>
                <path fill="#FFF" d="M180.92 146.42c-.63-1.17-3.31-1.56-4.59-.59-.82.47-1.423 1.241-1.68 2.15-.366 1.496.434 3.032 1.87 3.59 1.436.327 2.928-.236 3.79-1.43.908-1.016 1.146-2.467.61-3.72z" transform="translate(425 228)"/>
            </g>
            <g fill-rule="nonzero" transform="translate(3)">
                <path fill="#263238" d="M14.84 167.76s0-.16.08-.47c.08-.31.16-.77.29-1.35.26-1.21.65-2.95 1.14-5.18 1-4.53 2.5-11 4.32-19.08l14.47-63.05.26-1.11.25 1.11L36 80c5.63 25 10.73 47.65 14.42 64.06 1.82 8.19 3.29 14.82 4.31 19.43.5 2.28.88 4 1.15 5.28.12.59.22 1 .28 1.38.038.158.065.318.08.48 0 0-.05-.16-.13-.47l-.33-1.36-1.25-5.27c-1.06-4.6-2.58-11.22-4.47-19.39-3.73-16.4-8.88-39-14.57-64l-.32-1.4h.51L21 141.77l-4.48 19c-.54 2.23-.95 4-1.24 5.17-.15.57-.26 1-.34 1.34-.08.34-.1.48-.1.48z"/>
                <path fill="#455A64" d="M14.83 186.49v-15.83h42.23v15.83c-.006 10.175-8.255 18.42-18.43 18.42h-5.37c-10.175 0-18.424-8.245-18.43-18.42z"/>
                <path fill="#263238" d="M14.83 170.66c.18.205.34.426.48.66l1.29 2c1.12 1.76 2.71 4.23 4.65 7.26l15.19 24.02.11.17h-.44c5.74-9.44 10.94-18 14.73-24.19l4.51-7.3 1.25-2c.138-.23.292-.45.46-.66-.1.251-.224.492-.37.72l-1.17 2c-1.06 1.78-2.54 4.29-4.37 7.38-3.76 6.24-8.9 14.8-14.6 24.27l-.22.36-.22-.36-.11-.17-15.06-24.08c-1.89-3.07-3.42-5.57-4.51-7.35l-1.21-2c-.151-.231-.282-.476-.39-.73z"/>
                <circle cx="35.53" cy="78.49" r="4.61" fill="#263238"/>
                <path fill="#263238" d="M35.53 0c.14 0 .26 17.77.26 39.68s-.12 39.68-.26 39.68-.26-17.77-.26-39.68S35.38 0 35.53 0zM37.92 206.63c0 1.105-.895 2-2 2s-2-.895-2-2 .895-2 2-2 2 .895 2 2z"/>
                <path fill="#263238" d="M35.07 207.37l.32-.16c-1.131.727-1.868 1.932-2 3.27-.107 1.32.008 2.648.34 3.93.09.41.31.92.73.9.42-.02.55-.47.62-.85.13-.783.15-1.581.06-2.37-.046 1.013.277 2.008.91 2.8.13.15.31.31.49.26.18-.05.26-.26.31-.44.168-.655.269-1.325.3-2 .045.6.264 1.173.63 1.65.19.23.466.37.763.39.298.018.59-.086.807-.29.208-.345.27-.76.17-1.15-.34-2.364-1.291-4.597-2.76-6.48"/>
                <path fill="#407BFF" d="M17.49 170.66S-1.48 148.78.62 148c2.1-.78 19 11.34 19 11.34S5.1 126.91 8 124.54c2.9-2.37 18.18 28.72 18.18 28.72s-2.37-45.32 0-45.85c2.37-.53 11.07 45.33 11.07 45.33s12.91-41.9 16.6-41.9c3.69 0-4 40.32-4 40.32s15.28-25.83 17.66-22.4c2.38 3.43-10.81 31.36-10.81 31.36s19.24-16.08 20-14c.76 2.08-20.7 24.54-20.7 24.54H17.49z"/>
                <path fill="#263238" d="M14.84 137.72c.13-.06 3.5 7.15 7.52 16.11 4.02 8.96 7.17 16.27 7 16.33-.17.06-3.46-7.16-7.48-16.16-4.02-9-7.17-16.22-7.04-16.28zM30.17 141.75c.14 0 .7 6.35 1.25 14.2s.87 14.23.73 14.24c-.14.01-.71-6.35-1.25-14.2s-.9-14.23-.73-14.24zM51.31 121.45c-.012.174-.049.346-.11.51-.107.387-.247.867-.42 1.44-.39 1.32-.93 3.11-1.58 5.28-1.34 4.46-3.14 10.64-5 17.5-1.86 6.86-3.35 13.11-4.41 17.64-.52 2.21-.94 4-1.25 5.37l-.36 1.46c-.032.173-.086.34-.16.5-.007-.179.013-.357.06-.53l.26-1.47c.23-1.28.6-3.13 1.09-5.41 1-4.56 2.43-10.83 4.26-17.7 1.83-6.87 3.69-13 5.12-17.47.72-2.21 1.32-4 1.75-5.23.2-.57.37-1 .51-1.41.054-.172.135-.334.24-.48zM60.45 144.81c.12.08-3.58 5.61-8.27 12.33-4.69 6.72-8.58 12.12-8.7 12-.12-.12 3.59-5.6 8.27-12.33s8.58-12.08 8.7-12zM23.89 170.19c-.608-.315-1.167-.716-1.66-1.19-1.262-1.048-2.467-2.163-3.61-3.34-1.146-1.16-2.227-2.382-3.24-3.66-.46-.505-.845-1.074-1.14-1.69.12-.09 2.09 2.29 4.75 5s5.01 4.76 4.9 4.88zM35.41 161.5c.401 1.472.63 2.985.68 4.51.229 1.509.28 3.04.15 4.56-.391-1.474-.616-2.986-.67-4.51-.223-1.51-.277-3.039-.16-4.56z"/>
                <path fill="#FFF" d="M57.06 180.52c-.533.159-1.078.273-1.63.34-1.06.18-2.59.42-4.49.69-4.954.692-9.94 1.133-14.94 1.32-5.009.19-10.024-.017-15-.62-1.9-.25-3.43-.5-4.48-.72-.55-.083-1.092-.214-1.62-.39.554.02 1.106.083 1.65.19 1.06.16 2.59.35 4.5.55 4.953.497 9.935.654 14.91.47 5.83-.2 11.09-.74 14.9-1.17l4.5-.52c.562-.094 1.13-.141 1.7-.14zM57.06 185.23c-.531.165-1.077.279-1.63.34-1.06.19-2.59.43-4.49.69-3.79.52-9.07 1.12-14.92 1.33-5.014.197-10.037 0-15.02-.59-1.9-.25-3.43-.5-4.48-.72-.55-.083-1.092-.214-1.62-.39.554.026 1.105.09 1.65.19 1.06.16 2.59.36 4.5.55 4.953.497 9.935.654 14.91.47 5.83-.2 11.09-.74 14.9-1.17l4.5-.52c.562-.1 1.13-.16 1.7-.18z"/>
            </g>
            <g fill-rule="nonzero">
                <path fill="#E1E5F0" d="M43.329 23.044H70.35v10.048c0 1.063-.868 1.924-1.921 1.924H45.25c-1.061 0-1.921-.861-1.921-1.924V23.044zM.018 76.01H27.04v10.048c0 1.062-.869 1.923-1.922 1.923H1.939c-1.06 0-1.921-.86-1.921-1.923V76.01zM43.329 76.01H70.35v10.048c0 1.062-.868 1.923-1.921 1.923H45.25c-1.061 0-1.921-.86-1.921-1.923V76.01zM87.01 76.01h27.022v10.048c0 1.062-.868 1.923-1.921 1.923H88.93c-1.061 0-1.922-.86-1.922-1.923V76.01z" transform="translate(288.44 159)"/>
                <path fill="#474BFF" d="M25.119 53.634c1.061 0 1.922.857 1.922 1.914v23.001H.018V55.548c0-1.057.868-1.914 1.922-1.914h23.179zm43.31 0c1.062 0 1.922.857 1.922 1.914v23.001H43.33V55.548c0-1.057.868-1.914 1.921-1.914h23.18zm43.682 0c1.061 0 1.921.857 1.921 1.914v23.001H87.01V55.548c0-1.057.869-1.914 1.922-1.914h23.18zM68.43.914c1.061 0 1.921.86 1.921 1.928v22.627H43.33V2.842c0-1.065.868-1.927 1.921-1.927h23.18z" transform="translate(288.44 159)"/>
                <g fill="#E1E5F0">
                    <path d="M88.117 8.106c1.322 0 2.393 1.071 2.393 2.408v8.476H87.92v-7.392c0-.49-.37-.891-.845-.946l-.111-.006H3.734c-.518 0-.956.425-.956.95v7.393H.187v-8.48c0-1.327 1.077-2.403 2.392-2.403h85.538z" transform="translate(288.44 159) translate(12.047 34.89)"/>
                    <path d="M43.498 0.125H46.089V18.989H43.498z" transform="translate(288.44 159) translate(12.047 34.89)"/>
                </g>
            </g>
        </g>
    </g>
</svg>
